<?xml version="1.0" encoding="UTF-8"?>
<svg xmlns="http://www.w3.org/2000/svg" width="211.595" height="187.567" viewBox="0 0 211.595 187.567">
  <g id="Component_3_1" data-name="Component 3 – 1" transform="translate(0.5 0.5)">
    <g id="Group_321" data-name="Group 321" transform="translate(43.674 9.41)">
      <path id="Path_1033" data-name="Path 1033" d="M-628.724,2385.481c3.537,22.674,12.066,26.835,12.066,26.835s38.9,18.2,50.445,16.33,6.865-14.354,5.3-16.538c0,0,3.328-4.993,5.409-6.553,0,0,.624-4.784-1.872-6.24,0,0,4.681-1.456,4.681-4.472s-1.977-9.569,0-10.61,8.841-1.248,9.777-5.1-5.825-17.37-12.066-23.09c0,0-1.768-1.873,1.56-5.825s-4.681-22.675-6.449-28.915-6.75-35.366-60.108-35.366-59.337,40.46-59.337,43.893c0,3.1-6.768,29.737,12.722,49.4a20.58,20.58,0,0,0,14.569,6.056C-644.883,2385.3-634.4,2385.352-628.724,2385.481Z" transform="translate(680.45 -2285.94)" fill="#21113b" stroke="#fff" stroke-linecap="round" stroke-linejoin="round" stroke-width="1"/>
      <path id="Path_1034" data-name="Path 1034" d="M-584.581,2354.126s6.188,1.406,7.032,1.969,11.251,2.25,14.345,0,5.907-4.781,6.188-14.344-1.266-5.485-1.266-10.548-2.813-3.657-3.375-6.75-6.188-4.5-6.75-7.032-6.469-4.219-7.313-6.75-6.469-.562-12.939-5.625-7.313-.844-14.345-2.531-7.875.281-12.938-1.688-8.719,2.25-12.939,1.406-7.313,3.938-14.626,5.625-6.469,7.875-11.532,10.125-2.813,6.75-8.157,10.688-6.188,18.564,8.72,24.471c0,0-1.969,19.97,26.439,18,0,0,7.032-.844,10.688-9.281,0,0,6.469,3.938,10.689,3.375s7.313,2.813,10.969,1.125,10.407-1.125,11.532-5.344A9.562,9.562,0,0,0-584.581,2354.126Z" transform="translate(673.166 -2293.56)" stroke="#fff" stroke-linecap="round" stroke-linejoin="round" stroke-width="1"/>
      <g id="Group_319" data-name="Group 319" transform="translate(12.963 11.484)">
        <path id="Path_1035" data-name="Path 1035" d="M-477.792,2371.959s-4.782,5.344-6.75,0-3.657-8.157-7.594-7.594-7.032,0-8.719-2.813-5.906-1.125-6.75,1.969,5.846,10.62,2.079,14.873" transform="translate(575.775 -2336.801)" fill="none" stroke="#fff" stroke-linecap="round" stroke-linejoin="round" stroke-width="1"/>
        <path id="Path_1036" data-name="Path 1036" d="M-514.433,2342.657s-3.539-3.863-2.695-7.519,4.5-6.188-4.782-11.532" transform="translate(583.329 -2317.418)" fill="none" stroke="#fff" stroke-linecap="round" stroke-linejoin="round" stroke-width="1"/>
        <path id="Path_1037" data-name="Path 1037" d="M-470.156,2357.563s7.361-1.576-.8-10.576" transform="translate(556.279 -2329.83)" fill="none" stroke="#fff" stroke-linecap="round" stroke-linejoin="round" stroke-width="1"/>
        <path id="Path_1038" data-name="Path 1038" d="M-484.714,2369.108a6.423,6.423,0,0,1-.027,8.467" transform="translate(563.598 -2341.572)" fill="none" stroke="#fff" stroke-linecap="round" stroke-linejoin="round" stroke-width="1"/>
        <path id="Path_1039" data-name="Path 1039" d="M-552.763,2348.244s6.755,2.395,7.6-4.356-1.969-9.282-.844-12.095-6.188-1.406-5.906-4.219-1.969-3.375-2.532-7.876-4.219-8.719-7.032-9.281" transform="translate(604.333 -2310.417)" fill="none" stroke="#fff" stroke-linecap="round" stroke-linejoin="round" stroke-width="1"/>
        <path id="Path_1040" data-name="Path 1040" d="M-567.061,2343.164s5.946.338,6.509-3.037-.563-5.063,0-7.032-6.75-3.938-7.031-5.625-.281-4.219-1.688-5.062" transform="translate(608.469 -2316.782)" fill="none" stroke="#fff" stroke-linecap="round" stroke-linejoin="round" stroke-width="1"/>
        <path id="Path_1041" data-name="Path 1041" d="M-635.705,2339.793s-9.282,9.563-4.219,11.532a7.145,7.145,0,0,0,8.157-1.969" transform="translate(646.777 -2326.011)" fill="none" stroke="#fff" stroke-linecap="round" stroke-linejoin="round" stroke-width="1"/>
        <path id="Path_1042" data-name="Path 1042" d="M-630.029,2365.548s6,5.917,9.942,6.48,11.532,2.25,12.376,3.656,0,4.219,3.375,5.625,8.438-.563,7.313,4.5,7.594-2.25,10.125,0,9.563-1.968,7.594,1.688,9,2.531,9.282,4.782" transform="translate(640.722 -2339.682)" fill="none" stroke="#fff" stroke-linecap="round" stroke-linejoin="round" stroke-width="1"/>
        <path id="Path_1043" data-name="Path 1043" d="M-619.136,2375.944s-7.217,12.721,6.284,12.44" transform="translate(635.962 -2345.201)" fill="none" stroke="#fff" stroke-linecap="round" stroke-linejoin="round" stroke-width="1"/>
        <path id="Path_1044" data-name="Path 1044" d="M-637.672,2394.036s-9.8,3.375-15.148,0" transform="translate(652.82 -2354.805)" fill="none" stroke="#fff" stroke-linecap="round" stroke-linejoin="round" stroke-width="1"/>
        <path id="Path_1045" data-name="Path 1045" d="M-603.544,2332.8s3.094-3.376.563-5.344-8.157-.563-7.594,5.344-5.907,9-2.813,12.094,14.626,3.094,16.313-3.375" transform="translate(632.336 -2319.019)" fill="none" stroke="#fff" stroke-linecap="round" stroke-linejoin="round" stroke-width="1"/>
        <path id="Path_1046" data-name="Path 1046" d="M-497.33,2345.5s3.375-7.313,10.126-5.906" transform="translate(570.281 -2325.807)" fill="none" stroke="#fff" stroke-linecap="round" stroke-linejoin="round" stroke-width="1"/>
        <path id="Path_1047" data-name="Path 1047" d="M-454.166,2365.261s2.813-.281,1.407-3.656-.282-5.063.281-5.626" transform="translate(547.368 -2334.603)" fill="none" stroke="#fff" stroke-linecap="round" stroke-linejoin="round" stroke-width="1"/>
        <path id="Path_1048" data-name="Path 1048" d="M-513.154,2320.434a25.217,25.217,0,0,0-6.183-1.526c-3.094-.281-1.688-5.787-6.469-5.506s-10.354,2.469-12.981.415" transform="translate(592.288 -2311.996)" fill="none" stroke="#fff" stroke-linecap="round" stroke-linejoin="round" stroke-width="1"/>
        <path id="Path_1049" data-name="Path 1049" d="M-520.629,2343.731s-6.469-1.407-7.876-3.938" transform="translate(586.829 -2326.011)" fill="none" stroke="#fff" stroke-linecap="round" stroke-linejoin="round" stroke-width="1"/>
        <path id="Path_1050" data-name="Path 1050" d="M-590.254,2320.446s2.531-4.5,1.406-7.032" transform="translate(619.608 -2312.008)" fill="none" stroke="#fff" stroke-linecap="round" stroke-linejoin="round" stroke-width="1"/>
        <path id="Path_1051" data-name="Path 1051" d="M-580.359,2339.193a5.573,5.573,0,0,1-4.5,4.219" transform="translate(616.744 -2325.692)" fill="none" stroke="#fff" stroke-linecap="round" stroke-linejoin="round" stroke-width="1"/>
        <path id="Path_1052" data-name="Path 1052" d="M-468.486,2400.343s-6.188,5.344-12.657,1.688" transform="translate(561.688 -2358.153)" fill="none" stroke="#fff" stroke-linecap="round" stroke-linejoin="round" stroke-width="1"/>
        <path id="Path_1053" data-name="Path 1053" d="M-470.261,2382.957s-6.469,7.032,1.125,6.188" transform="translate(557.275 -2348.924)" fill="none" stroke="#fff" stroke-linecap="round" stroke-linejoin="round" stroke-width="1"/>
        <path id="Path_1054" data-name="Path 1054" d="M-481.38,2392.853s-4.744,3.514-7.557,3.514" transform="translate(565.825 -2354.177)" fill="none" stroke="#fff" stroke-linecap="round" stroke-linejoin="round" stroke-width="1"/>
        <path id="Path_1055" data-name="Path 1055" d="M-528.79,2426.286s-6.834-2.5-2.9-6.159" transform="translate(589.167 -2368.655)" fill="none" stroke="#fff" stroke-linecap="round" stroke-linejoin="round" stroke-width="1"/>
        <path id="Path_1056" data-name="Path 1056" d="M-566.5,2415.287s-5.114.466-6.524-.937-8.985-.718-10.963-2.96c-5.743-6.514-9.435-5.319-11.966-5.031" transform="translate(622.63 -2361.201)" fill="none" stroke="#fff" stroke-linecap="round" stroke-linejoin="round" stroke-width="1"/>
        <path id="Path_1057" data-name="Path 1057" d="M-600.845,2435.581s-4.1,4.053-13.386,2.928" transform="translate(632.336 -2376.858)" fill="none" stroke="#fff" stroke-linecap="round" stroke-linejoin="round" stroke-width="1"/>
        <path id="Path_1058" data-name="Path 1058" d="M-611.315,2431.159s-8.551,4.106-16.708.45" transform="translate(639.657 -2374.511)" fill="none" stroke="#fff" stroke-linecap="round" stroke-linejoin="round" stroke-width="1"/>
        <path id="Path_1059" data-name="Path 1059" d="M-588.852,2438.912s-2.5,2.764-8.972,3.608" transform="translate(623.626 -2378.626)" fill="none" stroke="#fff" stroke-linecap="round" stroke-linejoin="round" stroke-width="1"/>
        <path id="Path_1060" data-name="Path 1060" d="M-617.555,2422.884s-10.6,1.59-15.864-2.757" transform="translate(642.521 -2368.655)" fill="none" stroke="#fff" stroke-linecap="round" stroke-linejoin="round" stroke-width="1"/>
      </g>
      <g id="Group_320" data-name="Group 320" transform="translate(96.377 59.596)">
        <path id="Path_1061" data-name="Path 1061" d="M-441.636,2422.639c0,5.339-1.745,9.669-3.9,9.669-1.013,0-1.933-.962-2.632-2.533-.15-.347-.3-.727-.427-1.135a20.211,20.211,0,0,1-.84-6,20.263,20.263,0,0,1,.84-6.005c.131-.408.277-.788.427-1.135.7-1.572,1.619-2.533,2.632-2.533C-443.381,2412.965-441.636,2417.3-441.636,2422.639Z" transform="translate(461.444 -2412.965)" fill="#fff" stroke="#fff" stroke-linecap="round" stroke-linejoin="round" stroke-width="1"/>
        <path id="Path_1062" data-name="Path 1062" d="M-452.461,2432.309h-6.118c-1.013,0-1.933-.962-2.632-2.533a18.41,18.41,0,0,1-1.267-7.136,18.433,18.433,0,0,1,1.267-7.141c.7-1.572,1.619-2.533,2.632-2.533h6.118c-1.013,0-1.933.962-2.632,2.533-.15.347-.3.727-.427,1.135a20.264,20.264,0,0,0-.84,6.005,20.212,20.212,0,0,0,.84,6c.131.408.277.788.427,1.135C-454.394,2431.347-453.475,2432.309-452.461,2432.309Z" transform="translate(468.366 -2412.965)" stroke="#fff" stroke-linecap="round" stroke-linejoin="round" stroke-width="1"/>
        <path id="Path_1063" data-name="Path 1063" d="M-469.14,2425.506a18.408,18.408,0,0,0,1.267,7.136h-4.279c-1.586,0-2.876-3.2-2.876-7.136s1.29-7.141,2.876-7.141h4.279A18.434,18.434,0,0,0-469.14,2425.506Z" transform="translate(475.028 -2415.832)" stroke="#fff" stroke-linecap="round" stroke-linejoin="round" stroke-width="1"/>
      </g>
      <path id="Path_1064" data-name="Path 1064" d="M-460.432,2510.951l-30.788-7.24s2.08-4.08,0-7.864l30.788,6.2A21.118,21.118,0,0,1-460.432,2510.951Z" transform="translate(580.001 -2397.365)" stroke="#fff" stroke-linecap="round" stroke-linejoin="round" stroke-width="1"/>
      <path id="Path_1065" data-name="Path 1065" d="M-432.81,2507.609s.887,5.807.523,8.913" transform="translate(548.995 -2403.609)" stroke="#fff" stroke-linecap="round" stroke-linejoin="round" stroke-width="1"/>
      <path id="Path_1066" data-name="Path 1066" d="M-440.132,2506.135s.254,6.2,0,8.673" transform="translate(552.881 -2402.827)" stroke="#fff" stroke-linecap="round" stroke-linejoin="round" stroke-width="1"/>
      <path id="Path_1067" data-name="Path 1067" d="M-452.039,2503.785s.394,7.018-.208,8.439" transform="translate(559.312 -2401.579)" fill="#c3baf4" stroke="#fff" stroke-linecap="round" stroke-linejoin="round" stroke-width="1"/>
      <line id="Line_218" data-name="Line 218" x1="0.408" y2="8.184" transform="translate(100.695 100.963)" stroke="#fff" stroke-linecap="round" stroke-linejoin="round" stroke-width="1"/>
      <line id="Line_219" data-name="Line 219" x1="0.443" y2="7.881" transform="translate(94.709 99.764)" stroke="#fff" stroke-linecap="round" stroke-linejoin="round" stroke-width="1"/>
      <path id="Path_1068" data-name="Path 1068" d="M-469.17,2519.849s-2.392,5.6-4.68,7.346l-33.83-9.385s6.826-1.746,7.723-5.2Z" transform="translate(588.739 -2406.263)" stroke="#fff" stroke-linecap="round" stroke-linejoin="round" stroke-width="1"/>
      <line id="Line_220" data-name="Line 220" x1="4.426" y2="7.296" transform="translate(112.282 112.912)" fill="#c3baf4" stroke="#fff" stroke-linecap="round" stroke-linejoin="round" stroke-width="1"/>
      <line id="Line_221" data-name="Line 221" x1="4.366" y2="7.145" transform="translate(108.383 111.982)" fill="#c3baf4" stroke="#fff" stroke-linecap="round" stroke-linejoin="round" stroke-width="1"/>
      <line id="Line_222" data-name="Line 222" x1="3.885" y2="7.038" transform="translate(103.18 110.645)" fill="#c3baf4" stroke="#fff" stroke-linecap="round" stroke-linejoin="round" stroke-width="1"/>
      <line id="Line_223" data-name="Line 223" x1="4.317" y2="6.407" transform="translate(96.377 109.147)" fill="#c3baf4" stroke="#fff" stroke-linecap="round" stroke-linejoin="round" stroke-width="1"/>
      <line id="Line_224" data-name="Line 224" x1="4.858" y2="6.341" transform="translate(89.852 107.645)" fill="#c3baf4" stroke="#fff" stroke-linecap="round" stroke-linejoin="round" stroke-width="1"/>
      <circle id="Ellipse_207" data-name="Ellipse 207" cx="7.739" cy="7.739" r="7.739" transform="translate(54.231 85.312)" stroke-width="1" stroke="#fff" stroke-linecap="round" stroke-linejoin="round"/>
      <path id="Path_1069" data-name="Path 1069" d="M-561.333,2494.462s2.976,19.643,10.524,24.792c0,0,42.386,21.063,49.774,14.354,0,0,4.422-4.954-1.69-11.4l.393-4.644" transform="translate(617.219 -2396.63)" fill="none" stroke="#fff" stroke-linecap="round" stroke-linejoin="round" stroke-width="1"/>
      <path id="Path_1070" data-name="Path 1070" d="M-531.87,2474.976c16.5-4.141,19.072,5.43,19.072,5.43a25.371,25.371,0,0,1,9.509-13.646" transform="translate(601.579 -2381.925)" fill="none" stroke="#fff" stroke-linecap="round" stroke-linejoin="round" stroke-width="1"/>
      <path id="Path_1071" data-name="Path 1071" d="M-523.04,2508.912s-7.57-2.572-13.575-13.065" transform="translate(604.098 -2397.365)" fill="none" stroke="#fff" stroke-linecap="round" stroke-linejoin="round" stroke-width="1"/>
      <path id="Path_1072" data-name="Path 1072" d="M-430.435,2436.491s-.364-11.609,2.756-12.67c0,0-5.461-11.458,1.092-16.634,0,0-4.446-6.562-3.861-12.421s-.061-16.66-4.262-22.416" transform="translate(550.003 -2331.809)" fill="none" stroke="#fff" stroke-linecap="round" stroke-linejoin="round" stroke-width="1"/>
      <path id="Path_1073" data-name="Path 1073" d="M-460.47,2437.713s-2.191,13.717-10.655,13.634c-8.748-.086-11.27-7.635-13.026-18.093" transform="translate(576.248 -2364.139)" fill="none" stroke="#fff" stroke-linecap="round" stroke-linejoin="round" stroke-width="1"/>
      <path id="Path_1074" data-name="Path 1074" d="M-435.5,2475.793s-8.068-.809-13.941-5.538" transform="translate(557.821 -2383.781)" fill="none" stroke="#fff" stroke-linecap="round" stroke-linejoin="round" stroke-width="1"/>
      <path id="Path_1075" data-name="Path 1075" d="M-465.506,2551.994s-17.03-6.039-25.714,6.838" transform="translate(580.001 -2426.419)" fill="none" stroke="#fff" stroke-linecap="round" stroke-linejoin="round" stroke-width="1"/>
      <path id="Path_1076" data-name="Path 1076" d="M-548.366,2500.769s4.189,19.433,32.74,26.016" transform="translate(610.336 -2399.978)" fill="none" stroke="#fff" stroke-linecap="round" stroke-linejoin="round" stroke-width="1"/>
      <path id="Path_1077" data-name="Path 1077" d="M-542.278,2453.162s-.792-9.763,4.863-13.962" transform="translate(607.124 -2367.296)" fill="none" stroke="#fff" stroke-linecap="round" stroke-linejoin="round" stroke-width="1"/>
      <path id="Path_1078" data-name="Path 1078" d="M-512.771,2463.986s-14.412-8.326-27.671-11.45" transform="translate(606.129 -2374.375)" fill="none" stroke="#fff" stroke-linecap="round" stroke-linejoin="round" stroke-width="1"/>
      <path id="Path_1079" data-name="Path 1079" d="M-468.893,2484.273a67.753,67.753,0,0,0,16.038,3.673" transform="translate(568.149 -2391.222)" fill="none" stroke="#fff" stroke-linecap="round" stroke-linejoin="round" stroke-width="1"/>
    </g>
    <g id="Group_322" data-name="Group 322" transform="translate(5.26 43.723)">
      <path id="Path_1080" data-name="Path 1080" d="M-710.6,2458.617c3.537,22.675,12.066,26.835,12.066,26.835s38.9,18.2,50.445,16.33,6.865-14.354,5.3-16.538c0,0,3.328-4.993,5.409-6.553,0,0,.624-4.785-1.872-6.241,0,0,4.681-1.456,4.681-4.472s-1.977-9.569,0-10.609,8.841-1.248,9.777-5.1-5.825-17.37-12.066-23.091c0,0-1.768-1.872,1.56-5.825s-4.68-22.674-6.449-28.915-6.75-35.366-60.108-35.366-59.338,40.461-59.338,43.893c0,3.1-6.768,29.737,12.722,49.4a20.577,20.577,0,0,0,14.568,6.056C-726.761,2458.439-716.28,2458.488-710.6,2458.617Z" transform="translate(762.328 -2359.076)" stroke="#fff" stroke-linecap="round" stroke-linejoin="round" stroke-width="1"/>
      <path id="Path_1081" data-name="Path 1081" d="M-498.7,2559.073s-4.057-.338-9.517,2.782-4.135-4.525-4.135-4.525" transform="translate(629.706 -2464.316)" stroke="#fff" stroke-linecap="round" stroke-linejoin="round" stroke-width="1"/>
      <path id="Path_1082" data-name="Path 1082" d="M-508.938,2600.727a44.933,44.933,0,0,0-7.9,2.262" transform="translate(632.017 -2487.353)" stroke="#fff" stroke-linecap="round" stroke-linejoin="round" stroke-width="1"/>
      <ellipse id="Ellipse_208" data-name="Ellipse 208" cx="3.9" cy="9.673" rx="3.9" ry="9.673" transform="translate(106.774 58.353)" fill="#fff" stroke="#10101c" stroke-linecap="round" stroke-linejoin="round" stroke-width="1"/>
      <path id="Path_1083" data-name="Path 1083" d="M-530.944,2467.589a10.582,10.582,0,0,0-10.623-2.271,10.582,10.582,0,0,0-7.3,8.067" transform="translate(649.014 -2415.182)" stroke="#fff" stroke-linecap="round" stroke-linejoin="round" stroke-width="1"/>
      <circle id="Ellipse_209" data-name="Ellipse 209" cx="26.679" cy="26.679" r="26.679" transform="translate(25.109 51.074)" stroke-width="1" stroke="#fff" stroke-linecap="round" stroke-linejoin="round"/>
      <circle id="Ellipse_210" data-name="Ellipse 210" cx="12.722" cy="12.722" r="12.722" transform="translate(39.066 65.031)" stroke-width="1" stroke="#fff" stroke-linecap="round" stroke-linejoin="round" fill="#21113b"/>
      <circle id="Ellipse_211" data-name="Ellipse 211" cx="4.52" cy="4.52" r="4.52" transform="translate(73.947 42.193)" stroke-width="1" stroke="#fff" stroke-linecap="round" stroke-linejoin="round"/>
      <circle id="Ellipse_212" data-name="Ellipse 212" cx="4.52" cy="4.52" r="4.52" transform="translate(53.16 34.322)" stroke-width="1" stroke="#fff" stroke-linecap="round" stroke-linejoin="round"/>
      <circle id="Ellipse_213" data-name="Ellipse 213" cx="3.351" cy="3.351" r="3.351" transform="translate(35.715 38.842)" stroke-width="1" stroke="#fff" stroke-linecap="round" stroke-linejoin="round"/>
      <circle id="Ellipse_214" data-name="Ellipse 214" cx="3.196" cy="3.196" r="3.196" transform="translate(21.212 54.857)" stroke-width="1" stroke="#fff" stroke-linecap="round" stroke-linejoin="round"/>
      <line id="Line_225" data-name="Line 225" y1="13.957" transform="translate(51.788 51.074)" stroke="#fff" stroke-linecap="round" stroke-linejoin="round" stroke-width="1"/>
      <line id="Line_226" data-name="Line 226" x2="13.957" transform="translate(64.51 77.753)" stroke="#fff" stroke-linecap="round" stroke-linejoin="round" stroke-width="1"/>
      <line id="Line_227" data-name="Line 227" x2="6.83" y2="12.18" transform="translate(57.68 89.029)" stroke="#fff" stroke-linecap="round" stroke-linejoin="round" stroke-width="1"/>
      <line id="Line_228" data-name="Line 228" x1="12.653" y2="5.9" transform="translate(27.604 83.13)" stroke="#fff" stroke-linecap="round" stroke-linejoin="round" stroke-width="1"/>
    </g>
    <line id="Line_229" data-name="Line 229" y2="11.545" transform="translate(37.901)" fill="#c3baf4" stroke="#fff" stroke-linecap="round" stroke-linejoin="round" stroke-width="1"/>
    <line id="Line_230" data-name="Line 230" x1="11.545" transform="translate(32.129 5.773)" fill="#c3baf4" stroke="#fff" stroke-linecap="round" stroke-linejoin="round" stroke-width="1"/>
    <line id="Line_231" data-name="Line 231" y2="19.013" transform="translate(9.507 29.107)" fill="#c3baf4" stroke="#fff" stroke-linecap="round" stroke-linejoin="round" stroke-width="1"/>
    <line id="Line_232" data-name="Line 232" x1="19.013" transform="translate(0 38.614)" fill="#c3baf4" stroke="#fff" stroke-linecap="round" stroke-linejoin="round" stroke-width="1"/>
    <line id="Line_233" data-name="Line 233" y2="19.013" transform="translate(188.116 20.74)" fill="#c3baf4" stroke="#fff" stroke-linecap="round" stroke-linejoin="round" stroke-width="1"/>
    <line id="Line_234" data-name="Line 234" x1="19.013" transform="translate(178.609 30.247)" fill="#c3baf4" stroke="#fff" stroke-linecap="round" stroke-linejoin="round" stroke-width="1"/>
    <line id="Line_235" data-name="Line 235" y2="9.985" transform="translate(159.859 170.527)" fill="#c3baf4" stroke="#fff" stroke-linecap="round" stroke-linejoin="round" stroke-width="1"/>
    <line id="Line_236" data-name="Line 236" x1="9.985" transform="translate(154.867 175.519)" fill="#c3baf4" stroke="#fff" stroke-linecap="round" stroke-linejoin="round" stroke-width="1"/>
    <line id="Line_237" data-name="Line 237" y2="9.985" transform="translate(26.472 157.098)" fill="#c3baf4" stroke="#fff" stroke-linecap="round" stroke-linejoin="round" stroke-width="1"/>
    <line id="Line_238" data-name="Line 238" x1="9.985" transform="translate(21.479 162.09)" fill="#c3baf4" stroke="#fff" stroke-linecap="round" stroke-linejoin="round" stroke-width="1"/>
    <line id="Line_239" data-name="Line 239" y2="9.985" transform="translate(205.604 93.282)" fill="#c3baf4" stroke="#fff" stroke-linecap="round" stroke-linejoin="round" stroke-width="1"/>
    <line id="Line_240" data-name="Line 240" x1="9.985" transform="translate(200.61 98.275)" fill="#c3baf4" stroke="#fff" stroke-linecap="round" stroke-linejoin="round" stroke-width="1"/>
  </g>
</svg>
