<?xml version="1.0" encoding="UTF-8"?>
<svg xmlns="http://www.w3.org/2000/svg" width="170.514" height="168.715" viewBox="0 0 170.514 168.715">
  <g id="Component_4_1" data-name="Component 4 – 1" transform="translate(0.5 0.5)">
    <circle id="Ellipse_182" data-name="Ellipse 182" cx="70.025" cy="70.025" r="70.025" transform="translate(29.464 27.665)" stroke-width="1" stroke="#fff" stroke-linecap="round" stroke-linejoin="round"/>
    <g id="Group_275" data-name="Group 275" transform="translate(103.481 49.23)">
      <path id="Path_905" data-name="Path 905" d="M89.628,2332.158s1.913-19.707,19.9-19.707,23.725,19.707,23.725,19.707-4.975,19.184-24.49,19.158S89.628,2332.158,89.628,2332.158Z" transform="translate(-88.144 -2284.229)" fill="#21113b" stroke="#fff" stroke-linecap="round" stroke-linejoin="round" stroke-width="1"/>
      <path id="Path_906" data-name="Path 906" d="M87.519,2292.04s-5.74-28.573,5.357-41.263,25.255-4.753,32.143,3.141" transform="translate(-86.035 -2244.111)" fill="none" stroke="#fff" stroke-linecap="round" stroke-linejoin="round" stroke-width="1"/>
    </g>
    <circle id="Ellipse_183" data-name="Ellipse 183" cx="5.271" cy="5.271" r="5.271" transform="translate(115.131 87.487)" stroke-width="1" stroke="#fff" stroke-linecap="round" stroke-linejoin="round" fill="#fff"/>
    <path id="Path_907" data-name="Path 907" d="M71.5,2424.767c0-9.721-5.3-15.3-11.837-15.3s-11.837,5.579-11.837,15.3,5.3,17.6,11.837,17.6S71.5,2434.489,71.5,2424.767Z" transform="translate(39.878 -2291.951)" fill="none" stroke="#fff" stroke-linecap="round" stroke-linejoin="round" stroke-width="1"/>
    <g id="Group_276" data-name="Group 276" transform="translate(133.161 124.546)">
      <path id="Path_908" data-name="Path 908" d="M158.165,2455.395c-.782,4.246.23,7.935,2.828,9.115,3.463,1.575,8.433-1.906,11.1-7.774a19.6,19.6,0,0,0,.885-2.323" transform="translate(-157.907 -2442.882)" fill="none" stroke="#fff" stroke-linecap="round" stroke-linejoin="round" stroke-width="1"/>
      <path id="Path_909" data-name="Path 909" d="M177.461,2430.278a5.173,5.173,0,0,0-2.681-3.408c-2.973-1.352-7.057,1.023-9.841,5.436" transform="translate(-162.035 -2426.49)" fill="none" stroke="#fff" stroke-linecap="round" stroke-linejoin="round" stroke-width="1"/>
    </g>
    <g id="Group_277" data-name="Group 277" transform="translate(156.064 106.635)">
      <path id="Path_910" data-name="Path 910" d="M221.019,2388.36c.43-2.641.01-4.747-1.192-5.168-1.6-.561-3.988,2.086-5.328,5.914-.177.506-.327,1.006-.45,1.5" transform="translate(-213.768 -2383.117)" fill="none" stroke="#fff" stroke-linecap="round" stroke-linejoin="round" stroke-width="1"/>
      <path id="Path_911" data-name="Path 911" d="M213.366,2408.9a2.188,2.188,0,0,0,1.208,1.751c1.376.482,3.329-1.4,4.7-4.367" transform="translate(-213.366 -2396.718)" fill="none" stroke="#fff" stroke-linecap="round" stroke-linejoin="round" stroke-width="1"/>
    </g>
    <g id="Group_278" data-name="Group 278" transform="translate(48.312 134.471)">
      <path id="Path_912" data-name="Path 912" d="M-34.832,2464.124c2.116,1.638,4.168,2.274,5.111,1.419,1.257-1.141.069-4.5-2.655-7.5-.36-.4-.728-.767-1.1-1.109" transform="translate(40.087 -2454.284)" fill="none" stroke="#fff" stroke-linecap="round" stroke-linejoin="round" stroke-width="1"/>
      <path id="Path_913" data-name="Path 913" d="M-44.94,2450.679a2.187,2.187,0,0,0-2.116.226c-1.08.979-.356,3.595,1.594,6.216" transform="translate(47.557 -2450.524)" fill="none" stroke="#fff" stroke-linecap="round" stroke-linejoin="round" stroke-width="1"/>
    </g>
    <path id="Path_914" data-name="Path 914" d="M63.571,2500.317s5.9,1.913,10.76,0" transform="translate(30.633 -2345.284)" fill="none" stroke="#fff" stroke-linecap="round" stroke-linejoin="round" stroke-width="1"/>
    <path id="Path_915" data-name="Path 915" d="M33.995,2349.053s2.7-3.408,15.515-1.736" transform="translate(47.995 -2255.195)" fill="none" stroke="#fff" stroke-linecap="round" stroke-linejoin="round" stroke-width="1"/>
    <path id="Path_916" data-name="Path 916" d="M8.475,2363.819s-5.922,6.417-5.922,15.026" transform="translate(66.453 -2265.154)" fill="none" stroke="#fff" stroke-linecap="round" stroke-linejoin="round" stroke-width="1"/>
    <path id="Path_917" data-name="Path 917" d="M36.537,2304.45s-.656-2.484,4.7-4.78" transform="translate(46.518 -2227.496)" fill="none" stroke="#fff" stroke-linecap="round" stroke-linejoin="round" stroke-width="1"/>
    <path id="Path_918" data-name="Path 918" d="M-31.159,2361.779s-8.149-.468-12.976,4.923" transform="translate(93.861 -2263.95)" fill="none" stroke="#fff" stroke-linecap="round" stroke-linejoin="round" stroke-width="1"/>
    <path id="Path_919" data-name="Path 919" d="M-38.268,2338.043a5.461,5.461,0,0,0-5.867,1.588" transform="translate(93.861 -2249.855)" fill="none" stroke="#fff" stroke-linecap="round" stroke-linejoin="round" stroke-width="1"/>
    <path id="Path_920" data-name="Path 920" d="M44.042,2320.591s5.749-2.315,10.188-1.7" transform="translate(42.097 -2238.718)" fill="none" stroke="#fff" stroke-linecap="round" stroke-linejoin="round" stroke-width="1"/>
    <g id="Group_279" data-name="Group 279" transform="translate(69.064 36.52)">
      <path id="Path_921" data-name="Path 921" d="M6.64,2219.784c-2.785,1.674-4.4,3.753-3.834,5.258.753,2.006,5.1,2.232,9.7.5.608-.229,1.19-.479,1.741-.747" transform="translate(-2.694 -2217.119)" fill="none" stroke="#fff" stroke-linecap="round" stroke-linejoin="round" stroke-width="1"/>
      <path id="Path_922" data-name="Path 922" d="M31.626,2217.563a2.761,2.761,0,0,0,.661-2.565c-.647-1.723-3.939-2.133-7.771-1.121" transform="translate(-15.504 -2213.332)" fill="none" stroke="#fff" stroke-linecap="round" stroke-linejoin="round" stroke-width="1"/>
    </g>
    <path id="Path_923" data-name="Path 923" d="M-1.283,2124.9l2.843,5.76,6.356.923-4.6,4.483L4.4,2142.4l-5.685-2.989-5.685,2.989,1.086-6.331-4.6-4.483,6.356-.923Z" transform="translate(74.105 -2124.899)" stroke="#fff" stroke-linecap="round" stroke-linejoin="round" stroke-width="1"/>
    <path id="Path_924" data-name="Path 924" d="M-154.844,2262.345l5.936,6.579,8.785-1.16-4.423,7.679,3.818,8-8.67-1.834-6.425,6.1-.935-8.812-7.789-4.225,8.091-3.612Z" transform="translate(164.547 -2205.585)" stroke="#fff" stroke-linecap="round" stroke-linejoin="round" stroke-width="1"/>
    <g id="Group_281" data-name="Group 281" transform="translate(19.801 17.125)">
      <path id="Path_925" data-name="Path 925" d="M-110.407,2222.129a6.627,6.627,0,0,1-.91-1.071Z" transform="translate(113.498 -2198.472)" stroke="#fff" stroke-linecap="round" stroke-linejoin="round" stroke-width="1"/>
      <path id="Path_926" data-name="Path 926" d="M-51.061,2180.038a6.727,6.727,0,0,1,.666,1.245Z" transform="translate(78.125 -2174.392)" stroke="#fff" stroke-linecap="round" stroke-linejoin="round" stroke-width="1"/>
      <path id="Path_927" data-name="Path 927" d="M-93.428,2169.309c2.733,4.014.025,10.618-6.044,14.749s-13.21,4.233-15.943.219c-.036-.052-.075-.11-.105-.166a6.393,6.393,0,0,1-.961-3.445.012.012,0,0,0,0-.016l.006-.032c0-3.684,2.649-8.06,7.105-11.095s9.492-3.886,12.922-2.539l.032.006a.013.013,0,0,0,.016,0,6.373,6.373,0,0,1,2.847,2.147C-93.506,2169.195-93.467,2169.252-93.428,2169.309Z" transform="translate(116.529 -2166.366)" fill="#21113b" stroke="#fff" stroke-linecap="round" stroke-linejoin="round" stroke-width="1"/>
      <path id="Path_928" data-name="Path 928" d="M-63.075,2211.421a6.868,6.868,0,0,1,.838,1.671,7.6,7.6,0,0,1,.241.8l0,.013a11.191,11.191,0,0,1-1.144,7.307,21.484,21.484,0,0,1-7.276,8.113,21.765,21.765,0,0,1-9.813,3.764,11.193,11.193,0,0,1-7.877-1.765c-.109-.079-.214-.161-.313-.246a7.239,7.239,0,0,1-1.353-1.487,8.243,8.243,0,0,1-1.141-6.134l2.045,2.4a5.655,5.655,0,0,0,1.079,1.186l0,0c3.237,2.751,9.467,2.262,14.86-1.409,5.451-3.71,8.189-9.41,6.711-13.442a5.854,5.854,0,0,0-.667-1.307l-1.484-2.783A8.242,8.242,0,0,1-63.075,2211.421Z" transform="translate(101.607 -2190.871)" fill="#21113b" stroke="#fff" stroke-linecap="round" stroke-linejoin="round" stroke-width="1"/>
      <path id="Path_929" data-name="Path 929" d="M-89.534,2172.9l.666,1.245.008.022,5.505,10.325,1.484,2.784a5.862,5.862,0,0,1,.667,1.306c1.478,4.033-1.26,9.732-6.711,13.443-5.393,3.672-11.623,4.161-14.86,1.409l0,0a5.643,5.643,0,0,1-1.079-1.186l-2.045-2.4-7.6-8.921-.007-.01-.91-1.072c-.062-.09-.12-.176-.173-.265a13.068,13.068,0,0,1-1.959-8.02,6.4,6.4,0,0,0,.961,3.445c.031.056.069.113.105.165,2.733,4.014,9.869,3.916,15.943-.219s8.777-10.736,6.044-14.75c-.039-.057-.078-.114-.121-.168a6.37,6.37,0,0,0-2.847-2.147,13.016,13.016,0,0,1,6.749,4.76C-89.653,2172.729-89.6,2172.814-89.534,2172.9Z" transform="translate(116.598 -2167.258)" fill="#21113b" stroke="#fff" stroke-linecap="round" stroke-linejoin="round" stroke-width="1"/>
      <path id="Path_930" data-name="Path 930" d="M-116.481,2200.927a.013.013,0,0,0,0-.016l.006-.032" transform="translate(116.529 -2186.626)" stroke="#fff" stroke-linecap="round" stroke-linejoin="round" stroke-width="1"/>
      <path id="Path_931" data-name="Path 931" d="M-67.962,2167.864l.032.006a.011.011,0,0,0,.016,0" transform="translate(88.047 -2167.245)" stroke="#fff" stroke-linecap="round" stroke-linejoin="round" stroke-width="1"/>
      <g id="Group_280" data-name="Group 280" transform="translate(13.166 22.221)">
        <path id="Path_932" data-name="Path 932" d="M-84.379,2263.982l-.337-.077.024-.169C-84.592,2263.821-84.488,2263.9-84.379,2263.982Z" transform="translate(84.716 -2245.746)" stroke="#fff" stroke-linecap="round" stroke-linejoin="round" stroke-width="1"/>
        <path id="Path_933" data-name="Path 933" d="M-47.736,2239.845l-.557,3.567-13.279,9.04-3.252-.729a21.765,21.765,0,0,0,9.813-3.764A21.486,21.486,0,0,0-47.736,2239.845Z" transform="translate(73.039 -2231.721)" stroke="#fff" stroke-linecap="round" stroke-linejoin="round" stroke-width="1"/>
        <path id="Path_934" data-name="Path 934" d="M-20.909,2220.253l-.112.724a7.634,7.634,0,0,0-.241-.8Z" transform="translate(47.466 -2220.174)" stroke="#fff" stroke-linecap="round" stroke-linejoin="round" stroke-width="1"/>
        <path id="Path_935" data-name="Path 935" d="M-22.981,2220.366l26.615,42.449-1.6,10.248-8.112-12.427-18.715-28.658.557-3.567a11.192,11.192,0,0,0,1.144-7.307l0-.013Z" transform="translate(49.539 -2220.287)" fill="#21113b" stroke="#fff" stroke-linecap="round" stroke-linejoin="round" stroke-width="1"/>
        <path id="Path_936" data-name="Path 936" d="M-44.861,2306.741l-10.12-2.27-29.734-40.325.337.076a11.192,11.192,0,0,0,7.877,1.765l3.252.73,19.8,27.919Z" transform="translate(84.716 -2245.987)" fill="#21113b" stroke="#fff" stroke-linecap="round" stroke-linejoin="round" stroke-width="1"/>
        <path id="Path_937" data-name="Path 937" d="M-43.67,2248.483l18.715,28.658,8.112,12.427-11.719,7.978-8.588-12.1-19.8-27.92Z" transform="translate(68.415 -2236.792)" fill="#21113b" stroke="#fff" stroke-linecap="round" stroke-linejoin="round" stroke-width="1"/>
      </g>
    </g>
  </g>
</svg>
