<svg xmlns="http://www.w3.org/2000/svg" width="56" height="55" viewBox="0 0 56 55">
  <g id="Group_298" data-name="Group 298" transform="translate(-969 -2305)">
    <g id="Group_167" data-name="Group 167" transform="translate(1184.703 2503.733) rotate(180)">
      <g id="Ellipse_92" data-name="Ellipse 92" transform="translate(159.703 143.733)" fill="none" stroke="#fff" stroke-width="1">
        <ellipse cx="28" cy="27.5" rx="28" ry="27.5" stroke="none"/>
        <ellipse cx="28" cy="27.5" rx="27.5" ry="27" fill="none"/>
      </g>
    </g>
    <path id="Path_497" data-name="Path 497" d="M19.065,15.73H2.294s-2.272,0-2.272-2c0,0-.411-2.188,2.284-2.188H13.279A4.393,4.393,0,0,1,12.188,9.42c0-.9,1.219-1.661,1.219-1.661a3.951,3.951,0,0,1-.321-2.446A1.962,1.962,0,0,1,14.242,3.9a2.537,2.537,0,0,1,1.6-3.165c2.31-.814,5.262-1.391,10.588.726L31.246.737s2.567.825,2.824,7.128A9.564,9.564,0,0,1,31.951,14.1a20.309,20.309,0,0,1-4.235-.962,10,10,0,0,0-1.531,2.351,5.843,5.843,0,0,1-4.3,2.937,18.7,18.7,0,0,0-8.065,3.5,1.865,1.865,0,0,1-2.01-.644,3.812,3.812,0,0,1,3.659-5C19.2,16.163,19.065,15.73,19.065,15.73Z" transform="translate(1013.573 2343.505) rotate(180)" fill="none" stroke="#fff" stroke-linecap="round" stroke-linejoin="round" stroke-width="1"/>
  </g>
</svg>
