<?xml version="1.0" encoding="utf-8"?>
<!-- Generator: Adobe Illustrator 22.0.1, SVG Export Plug-In . SVG Version: 6.00 Build 0)  -->
<svg version="1.1" id="Calque_1" xmlns="http://www.w3.org/2000/svg" xmlns:xlink="http://www.w3.org/1999/xlink" x="0px" y="0px"
	 viewBox="0 0 160.2 206.8" style="enable-background:new 0 0 160.2 206.8;" xml:space="preserve">
<style type="text/css">
	.st0{fill:#FFFFFF;stroke:#000000;stroke-width:5;stroke-linecap:round;stroke-linejoin:round;stroke-miterlimit:10;}
</style>
<path class="st0" d="M133.9,57.8c-0.6-4.3-8.3-17.4-14.7-27.3c-3.3-5.1-14.7-22.2-21-27.3c-0.3-0.2-0.6-0.4-0.9-0.4
	C97,2.8,90.6,1.3,85,4.9c-3.9,2.5-6.4,6.7-7.5,12.6c-0.4,2.3-0.5,4.4-0.4,6.4c-4-0.1-9.2,1.7-11.6,8.5c-2.4,6.8,0.6,16.6,12.7,22.1
	c1.8,2.5,9.5,13,15.5,18c0.4,1.4,1.5,4.6,2.9,7.9c-10.4-4.6-23.1-9.8-30.5-11.3c-0.2,0-0.5-0.1-0.7,0c-0.6,0.1-14.9,1.6-26.5,5.3
	c-1,0.3-2,0.6-3,0.9c-9.9,3-18.4,5.7-16.6,20.5c0.3,2.2,1,4.2,2.2,5.7c-6.6-0.9-11,0.7-13.7,2.3c-2.6,1.6-4.4,3.8-4.9,5.9
	c-0.9,3.7,1,9.3,4.1,12.4c0.7,0.9,0.9,5.2,1,8c0.2,4.6,0.4,9.8,2,13.4c1.8,4.2,5.1,8.4,8.1,12.2c1.8,2.2,3.4,4.3,4.1,5.7
	c0.9,2,20.2,42.9,58.8,42.9c0.2,0,0.5,0,0.7,0c38.1-0.5,55.3-14.1,57.2-22.6c1.3-5.9,10.4-35.6,16.1-48.5
	c6.3-14.2,1.3-22.1-4.9-32.3C143.9,91.3,134.8,64.4,133.9,57.8z M77,23.9c0,2.1,0.7,4.7,0.7,4.7c1.9,7.5,7.2,12.6,11,16.4
	c1.5,1.5,2.8,2.8,3.6,3.9c1.3,1.8,2.7,3.8,4,5.8c3.2,4.7,5.4,8,7.3,9.6c0.6,3.2,2.7,14,5.1,21.7c-1.5-0.7-3.3-1.5-5.3-2.4l-6.9-3.1
	 M32,106.3c6.3,0.2,12.9-2,15.2-2.9c2.4,0.6,9.7,1.9,17.9-0.5c3.1,3,13,11.7,24,14.4c0.4,0.1,0.8,0.2,1.2,0.3
	c-0.9,1.7-2,4.3-2.9,7.7c-1.7,6.5-18.2,16.2-26.4,16.7c-8.4,0.5-14.9-8.6-15.6-10.3c-0.3-1.4-2-7.6-5.2-13.9
	C37.8,112.8,35,109,32,106.3z"/>
<line class="st0" x1="32" y1="106.3" x2="21.3" y2="101.5"/>
</svg>
