<svg xmlns="http://www.w3.org/2000/svg" width="23.925" height="46.118" viewBox="0 0 23.925 46.118">
  <g id="Group_253" data-name="Group 253" transform="translate(-159.458 -635.736)">
    <g id="Group_170" data-name="Group 170" transform="translate(160 671.788) rotate(-90)">
      <path id="Path_497" data-name="Path 497" d="M19.886,6.546H2.393s-2.37,0-2.37,2.091c0,0-.429,2.282,2.382,2.282H13.851a4.583,4.583,0,0,0-1.138,2.209c0,.937,1.272,1.733,1.272,1.733a4.122,4.122,0,0,0-.335,2.551,2.047,2.047,0,0,0,1.2,1.473,2.647,2.647,0,0,0,1.673,3.3c2.41.849,5.488,1.451,11.044-.758l5.02.758s2.677-.861,2.945-7.435a9.976,9.976,0,0,0-2.209-6.508,21.184,21.184,0,0,0-4.417,1,10.428,10.428,0,0,1-1.6-2.453,6.1,6.1,0,0,0-4.488-3.064A19.5,19.5,0,0,1,14.413.074a1.946,1.946,0,0,0-2.1.672c-.672,1.075-.081,5.079,3.816,5.214S19.886,6.546,19.886,6.546Z" transform="translate(0 0)" fill="none" stroke="#fff" stroke-linecap="round" stroke-linejoin="round" stroke-width="1"/>
    </g>
    <ellipse id="Ellipse_168" data-name="Ellipse 168" cx="8.942" cy="1.073" rx="8.942" ry="1.073" transform="translate(160 679.707)" fill="#fff"/>
  </g>
</svg>
