<?xml version="1.0" encoding="utf-8"?>
<svg id="Groupe_22" data-name="Groupe 22" xmlns="http://www.w3.org/2000/svg" width="13.578" height="25.115" viewBox="0 0 13.578 25.115">
  <path id="Tracé_76" data-name="Tracé 76" d="M157.282,74.349l-3.257-.006c-3.659,0-6.023,2.426-6.023,6.181v2.849h-3.275a.512.512,0,0,0-.512.512v4.129a.511.511,0,0,0,.512.512H148V98.946a.512.512,0,0,0,.512.512h4.272a.512.512,0,0,0,.512-.512V88.527h3.828a.512.512,0,0,0,.512-.512l0-4.129a.512.512,0,0,0-.512-.512H153.3V80.958c0-1.161.276-1.75,1.789-1.75h2.194a.512.512,0,0,0,.512-.512V74.86A.512.512,0,0,0,157.282,74.349Z" transform="translate(-144.215 -74.343)" fill="#725ac1"/>
</svg>
