<?xml version="1.0" encoding="utf-8"?>
<svg id="Groupe_21" data-name="Groupe 21" xmlns="http://www.w3.org/2000/svg" width="27.02" height="27.021" viewBox="0 0 27.02 27.021">
  <path id="Tracé_74" data-name="Tracé 74" d="M96.28,95.924h-13.7a6.666,6.666,0,0,1-6.66-6.658v-13.7a6.667,6.667,0,0,1,6.66-6.659h13.7a6.667,6.667,0,0,1,6.659,6.659v13.7A6.666,6.666,0,0,1,96.28,95.924Zm-13.7-24.14A3.782,3.782,0,0,0,78.8,75.563v13.7a3.782,3.782,0,0,0,3.779,3.778h13.7a3.781,3.781,0,0,0,3.779-3.778v-13.7a3.782,3.782,0,0,0-3.779-3.778Zm6.852,16.667a6.533,6.533,0,1,1,6.533-6.535A6.543,6.543,0,0,1,89.431,88.451Zm0-10.185a3.653,3.653,0,1,0,3.652,3.651A3.657,3.657,0,0,0,89.431,78.266Z" transform="translate(-75.919 -68.904)" fill="#725ac1"/>
  <path id="Tracé_75" data-name="Tracé 75" d="M108.723,77.22A1.383,1.383,0,1,0,107.34,78.6a1.383,1.383,0,0,0,1.383-1.382" transform="translate(-86.653 -71.381)" fill="#725ac1"/>
</svg>
