<?xml version="1.0" encoding="utf-8"?>
<svg xmlns="http://www.w3.org/2000/svg" width="73.905" height="43.014" viewBox="0 0 73.905 43.014">
  <g id="Groupe_6" data-name="Groupe 6" transform="translate(-3735.651 -1115.4)">
    <path id="Tracé_54" data-name="Tracé 54" d="M3749.476,1134.205q-.168-.068.033-.241a6.294,6.294,0,0,0,2.209-5.015q0-6.594-8.2-5l-7.364,1.432a.615.615,0,0,0-.368.205.594.594,0,0,0-.134.394v22.427a.412.412,0,0,0,.134.342.431.431,0,0,0,.368.063l8.033-1.562a11.19,11.19,0,0,0,5.741-2.807,7.111,7.111,0,0,0,2.192-5.464Q3752.12,1135.5,3749.476,1134.205Zm-7.532-4.361a.222.222,0,0,1,.2-.239l1.439-.28q1.975-.384,1.975,1.457a2.194,2.194,0,0,1-.5,1.487,2.494,2.494,0,0,1-1.473.772l-1.439.28q-.2.039-.2-.162Zm3.381,11.26a2.276,2.276,0,0,1-1.406.809l-1.774.345q-.2.039-.2-.162v-3.749a.222.222,0,0,1,.2-.24l1.807-.351a1.5,1.5,0,0,1,1.389.282,1.883,1.883,0,0,1,.485,1.428A2.554,2.554,0,0,1,3745.325,1141.1Z" transform="translate(0 -6.948)" fill="#fff"/>
    <path id="Tracé_55" data-name="Tracé 55" d="M3856.766,1154.962a11.8,11.8,0,0,1,3.558-1.591.653.653,0,0,0,.381-.269,10.339,10.339,0,0,0,1.169-2.493.468.468,0,0,0-.034-.395.352.352,0,0,0-.335-.136l-4.786.026q-.369-.028-.636.459a1.9,1.9,0,0,1-1.473,1.089,1.182,1.182,0,0,1-1.507-.845,2.212,2.212,0,0,1-.134-.744c0-.089.056-.145.167-.167l8.536-1.659a.555.555,0,0,0,.5-.6l.033-1.178q0-.7-.067-2.029a6.071,6.071,0,0,0-1.155-3.307,5.3,5.3,0,0,0-2.745-1.893,8.019,8.019,0,0,0-3.934-.106,9.593,9.593,0,0,0-5.071,2.609,8.5,8.5,0,0,0-2.46,4.847,14.193,14.193,0,0,0-.2,3.018,14,14,0,0,0,.335,3.282,5.385,5.385,0,0,0,2.543,3.706,7.454,7.454,0,0,0,4.8.477.661.661,0,0,0,.395-.226A10.309,10.309,0,0,1,3856.766,1154.962Zm-3.728-9a1.672,1.672,0,0,1,1.339-1.465,1.111,1.111,0,0,1,.887.146,1.192,1.192,0,0,1,.452.8l.067.556a.205.205,0,0,1-.168.234l-2.477.481q-.168.033-.167-.169Z" transform="translate(-93.541 -19.848)" fill="#fff"/>
    <path id="Tracé_56" data-name="Tracé 56" d="M3960.027,1134.169a.664.664,0,0,0,.476.092l1.358-.264a.617.617,0,0,0,.368-.205.6.6,0,0,0,.134-.394v-10.143a2.178,2.178,0,0,1,.351-1.273,1.51,1.51,0,0,1,.988-.627.926.926,0,0,1,.92.274,1.6,1.6,0,0,1,.352,1.12v10.142a.412.412,0,0,0,.134.342.43.43,0,0,0,.368.062l5.289-1.028a.612.612,0,0,0,.368-.205.6.6,0,0,0,.134-.394v-11.046a5.632,5.632,0,0,0-1.406-4.229,4.185,4.185,0,0,0-3.916-.862,4.708,4.708,0,0,0-3.281,2.244.475.475,0,0,1-.218.176c-.056.011-.084-.028-.084-.118V1117a.417.417,0,0,0-.134-.342.435.435,0,0,0-.368-.062l-5.289,1.028a.617.617,0,0,0-.368.205.594.594,0,0,0-.134.394v14.252a.652.652,0,0,0,.6.651,8.378,8.378,0,0,1,1.626.291A6.954,6.954,0,0,1,3960.027,1134.169Z" transform="translate(-185.894 0)" fill="#fff"/>
    <path id="Tracé_57" data-name="Tracé 57" d="M3906.117,1247.237a5.5,5.5,0,0,0-.389-.506,4.683,4.683,0,0,0-1.418-1.118q-.268-.136-.58-.277-.624-.282-1.422-.585-.2-.076-.411-.153l-.432-.155q-.335-.1-.586-.187t-.418-.153q-.829-.228-1.452-.432a10.347,10.347,0,0,1-1.3-.5q-.117-.058-.211-.113a1.322,1.322,0,0,1-.753-1.175,1.8,1.8,0,0,1,.028-.323,1.554,1.554,0,0,1,.266-.622,1.715,1.715,0,0,1,.157-.2,1.972,1.972,0,0,1,.523-.39,2.461,2.461,0,0,1,.665-.226c.089-.017.174-.029.258-.039l.08-.006c.056,0,.111-.008.165-.009l.033,0c.015,0,.028,0,.042,0q.107,0,.207.014l.06.007a1.653,1.653,0,0,1,.237.053l.045.016a1.489,1.489,0,0,1,.177.073l.057.029a1.409,1.409,0,0,1,.2.126,1.651,1.651,0,0,1,.256.245,1.426,1.426,0,0,1,.33.946v.469a.414.414,0,0,0,.134.343.322.322,0,0,0,.095.05l.03.009a.414.414,0,0,0,.094.014l.028,0a.661.661,0,0,0,.12-.012h0l5.188-1.009a.7.7,0,0,0,.209-.074.56.56,0,0,0,.159-.131.594.594,0,0,0,.134-.395v-.535a7.594,7.594,0,0,0-.065-1.012,6.187,6.187,0,0,0-.2-.928,5.334,5.334,0,0,0-.33-.844,5.1,5.1,0,0,0-1.72-1.971,5.435,5.435,0,0,0-.784-.437c-.06-.028-.124-.051-.185-.076a6.4,6.4,0,0,0-.7-.25c-.163-.047-.328-.087-.5-.123-.055-.012-.113-.02-.169-.03-.114-.021-.228-.042-.344-.059-.069-.01-.138-.016-.208-.023-.107-.012-.214-.024-.323-.032-.076-.005-.152-.008-.229-.011l-.181-.006c-.046,0-.091,0-.138,0-.1,0-.193,0-.291,0-.074,0-.147,0-.222.006-.106,0-.215.013-.323.022-.071.005-.141.01-.213.016-.121.012-.244.028-.367.044-.062.008-.122.014-.183.023-.186.027-.374.059-.564.1q-.578.112-1.123.272c-.323.094-.636.2-.941.322-.038.015-.078.028-.116.043a10.655,10.655,0,0,0-.993.46,10.264,10.264,0,0,0-.927.554,9.9,9.9,0,0,0-.847.635c-.053.044-.1.091-.154.137-.208.182-.409.37-.6.568a8.715,8.715,0,0,0-.655.774,8.536,8.536,0,0,0-.558.843,7.394,7.394,0,0,0-1.005,3.291q-.016.25-.016.506a6.2,6.2,0,0,0,.393,2.289,4.5,4.5,0,0,0,.376.745c.073.116.152.228.236.336a6.4,6.4,0,0,0,2.376,1.931q.344.159.718.312.749.307,1.624.588.437.141.906.276l.8.246q.578.151,1.016.29a7.4,7.4,0,0,1,.923.346c.056.027.107.053.153.079a1.018,1.018,0,0,1,.552.947,1.724,1.724,0,0,1-.912,1.445,2.56,2.56,0,0,1-.626.219c-.035.008-.066.02-.1.027-.1.02-.2.034-.3.045l-.086.008c-.069.006-.135.01-.2.011l-.051,0-.032,0a2.384,2.384,0,0,1-.24-.014l-.021,0a1.915,1.915,0,0,1-.24-.047l-.065-.019a1.615,1.615,0,0,1-.164-.059l-.062-.027a1.5,1.5,0,0,1-.2-.11,1.311,1.311,0,0,1-.619-1.151v-.469a.416.416,0,0,0-.134-.342.329.329,0,0,0-.1-.051l-.03-.009a.437.437,0,0,0-.1-.014l-.027,0a.679.679,0,0,0-.121.012l-5.188,1.009a.615.615,0,0,0-.368.205.593.593,0,0,0-.134.394v.77a5.5,5.5,0,0,0,1.021,3.4,4.766,4.766,0,0,0,.883.9,5.621,5.621,0,0,0,2,.968l.024.006c.149.04.3.076.456.107.058.011.119.019.178.029.107.018.213.038.323.052.07.009.143.014.214.021.1.01.2.022.306.029.077,0,.157.005.235.008.1,0,.2.009.306.009s.208,0,.313-.007c.077,0,.153,0,.231-.006.111-.006.225-.016.338-.026.075-.006.149-.01.226-.018.127-.013.258-.031.388-.049.065-.009.128-.015.194-.025q.3-.044.6-.1.456-.088.89-.2a12.281,12.281,0,0,0,1.646-.554,10.641,10.641,0,0,0,1.067-.527,9.678,9.678,0,0,0,2.272-1.733,8.511,8.511,0,0,0,.783-.949q.226-.315.417-.644a7.7,7.7,0,0,0,1.026-3.928A4.975,4.975,0,0,0,3906.117,1247.237Z" transform="translate(-130.61 -100.447)" fill="#fff"/>
    <path id="Tracé_58" data-name="Tracé 58" d="M4009.342,1256.712a1.063,1.063,0,0,1,1.339.811,1.309,1.309,0,0,1,.1.55q.066.457.469.378l.067-.013,5.255-1.524a.615.615,0,0,0,.469-.627q-.033-.361-.167-1.072a4.761,4.761,0,0,0-2.51-3.428,7.5,7.5,0,0,0-4.988-.47,10.074,10.074,0,0,0-5.088,2.478,7.953,7.953,0,0,0-2.477,4.515,18.2,18.2,0,0,0-.335,3.446,13.854,13.854,0,0,0,.335,3.35,4.9,4.9,0,0,0,2.46,3.672,7.51,7.51,0,0,0,5.1.48,10.136,10.136,0,0,0,5.121-2.485,7.736,7.736,0,0,0,2.41-4.7l.1-.79a.392.392,0,0,0-.469-.444l-5.255.553q-.469.025-.569.579a3.1,3.1,0,0,1-.067.482,1.6,1.6,0,0,1-1.306,1.425,1.03,1.03,0,0,1-1.305-.851,8.741,8.741,0,0,1-.234-2.464,10.773,10.773,0,0,1,.2-2.416A1.743,1.743,0,0,1,4009.342,1256.712Z" transform="translate(-224.188 -114.454)" fill="#fff"/>
    <path id="Tracé_59" data-name="Tracé 59" d="M4124.258,1202.851a4.186,4.186,0,0,0-3.917-.862,4.709,4.709,0,0,0-3.28,2.244.478.478,0,0,1-.218.176c-.056.011-.083-.028-.083-.118v-6.862a.416.416,0,0,0-.134-.342.435.435,0,0,0-.368-.062l-5.29,1.028a.612.612,0,0,0-.367.205.59.59,0,0,0-.135.394v22.427a.41.41,0,0,0,.135.342.429.429,0,0,0,.367.063l5.29-1.028a.617.617,0,0,0,.368-.206.594.594,0,0,0,.134-.394v-10.143a2.179,2.179,0,0,1,.351-1.274,1.507,1.507,0,0,1,.988-.627.926.926,0,0,1,.92.274,1.6,1.6,0,0,1,.352,1.12v10.143a.411.411,0,0,0,.134.342.43.43,0,0,0,.368.063l5.288-1.028a.621.621,0,0,0,.369-.206.6.6,0,0,0,.133-.394V1207.08A5.633,5.633,0,0,0,4124.258,1202.851Z" transform="translate(-316.108 -68.829)" fill="#fff"/>
  </g>
</svg>
