<?xml version="1.0" encoding="utf-8"?>
<svg id="Groupe_136" data-name="Groupe 136" xmlns="http://www.w3.org/2000/svg" width="111.302" height="111.436" viewBox="0 0 111.302 111.436">
  <g id="Groupe_88" data-name="Groupe 88" transform="translate(0)">
    <g id="Groupe_93" data-name="Groupe 93" transform="translate(56.374)">
      <g id="Groupe_92" data-name="Groupe 92" transform="translate(0)">
        <path id="Tracé_401" data-name="Tracé 401" d="M1130.882,314.151l1.325.106L1128.552,322l-1.448-.116-2.39-8.224,1.4.111,1.854,6.725Z" transform="translate(-1124.714 -313.659)" fill="#725ac1"/>
        <path id="Tracé_402" data-name="Tracé 402" d="M1149.091,318.959a4,4,0,0,1,3.135-.316,4.122,4.122,0,0,1,.767,7.569,4.226,4.226,0,0,1-5.593-1.643,4.186,4.186,0,0,1,1.691-5.61Zm3.252,6.174a2.929,2.929,0,0,0,1.379-1.766,2.887,2.887,0,0,0-.192-2.223,2.709,2.709,0,0,0-3.794-1.129,2.879,2.879,0,0,0-1.366,1.759,2.919,2.919,0,0,0,.179,2.23,2.709,2.709,0,0,0,3.793,1.129Z" transform="translate(-1137.041 -316.326)" fill="#725ac1"/>
        <path id="Tracé_403" data-name="Tracé 403" d="M1172.616,326.138l1.128.556-3.537,7.18-1.128-.556Z" transform="translate(-1149.358 -320.591)" fill="#725ac1"/>
        <path id="Tracé_404" data-name="Tracé 404" d="M1183.735,332.808l2.469,1.715a2.717,2.717,0,0,1,1.294,1.758,2.476,2.476,0,0,1-.458,1.823,2.309,2.309,0,0,1-2.7.913l-.293,3.755-1.167-.811.305-3.486-1.251-.869L1180.2,340.1l-1.033-.717Zm-1.154,3.867,1.327.922a1.347,1.347,0,0,0,2.066-.2c.35-.5.531-1.249-.544-2l-1.326-.922Z" transform="translate(-1154.962 -324.296)" fill="#725ac1"/>
        <path id="Tracé_405" data-name="Tracé 405" d="M1208.759,357.463l-1.725,1.41,2.226,2.723-.878.718-2.226-2.723-1.828,1.495,2.471,3.024-.886.725-3.268-4,6.2-5.067,3.242,3.966-.879.718Z" transform="translate(-1168.002 -337.051)" fill="#725ac1"/>
        <path id="Tracé_406" data-name="Tracé 406" d="M1220.247,375.82l-5.448,2.888-.579-1.093,7.075-3.75.694,1.31-3.365,6.25,5.213-2.763.584,1.1-7.074,3.75-.613-1.157Z" transform="translate(-1174.432 -347.102)" fill="#725ac1"/>
        <path id="Tracé_407" data-name="Tracé 407" d="M1234.011,416.606a2.57,2.57,0,0,0,1.264-2.762,2.6,2.6,0,0,0-1.164-1.8,3.214,3.214,0,0,0-4.142.709,2.576,2.576,0,0,0-.5,2.089,2.214,2.214,0,0,0,2.181,2.039l-.492-2.831,1.128-.2.725,4.17-.433.076a3.538,3.538,0,0,1-4.245-3.05,3.951,3.951,0,0,1,.636-3.089,4,4,0,0,1,2.686-1.618,4.084,4.084,0,0,1,4.768,3.312,3.85,3.85,0,0,1-.288,2.405,3.4,3.4,0,0,1-1.431,1.556Z" transform="translate(-1182.231 -367.325)" fill="#725ac1"/>
        <path id="Tracé_408" data-name="Tracé 408" d="M1238.054,436.553l-.09,3.005a2.714,2.714,0,0,1-.767,2.044,2.474,2.474,0,0,1-1.778.612,2.309,2.309,0,0,1-2.239-1.765l-3.307,1.8.043-1.421,3.088-1.647.045-1.523-3.036-.091.037-1.258Zm-3.871,1.143-.048,1.615c-.033,1.114.556,1.6,1.292,1.624.613.018,1.337-.236,1.376-1.545l.048-1.615Z" transform="translate(-1183.127 -381.79)" fill="#725ac1"/>
        <path id="Tracé_409" data-name="Tracé 409" d="M1234.264,459.336l-.332,1.445-8.529,1.363.293-1.275,2-.286.88-3.826-1.668-1.139.29-1.255Zm-4.706-1.891-.681,2.96,4.048-.632Z" transform="translate(-1180.644 -391.816)" fill="#725ac1"/>
        <path id="Tracé_410" data-name="Tracé 410" d="M1224.776,481.324l-5.583-2.618.526-1.12,7.249,3.4-.629,1.342-7.018,1.069,5.343,2.5-.53,1.13-7.249-3.4.556-1.185Z" transform="translate(-1175.911 -404.716)" fill="#725ac1"/>
        <path id="Tracé_411" data-name="Tracé 411" d="M1206.863,503.683a4.2,4.2,0,0,1,.925-3.37l1.551-2.031,6.362,4.854-1.537,2.015a4.346,4.346,0,0,1-2.463,1.695,4.132,4.132,0,0,1-3.314-.729A4.175,4.175,0,0,1,1206.863,503.683Zm4.24,1.975a2.853,2.853,0,0,0,2.146-1.229l.763-1-4.51-3.441-.756.991a2.97,2.97,0,0,0-.666,2.372,2.947,2.947,0,0,0,3.023,2.306Z" transform="translate(-1170.306 -416.212)" fill="#725ac1"/>
      </g>
    </g>
    <g id="Groupe_95" data-name="Groupe 95" transform="translate(0 20.712)">
      <g id="Groupe_94" data-name="Groupe 94">
        <path id="Tracé_412" data-name="Tracé 412" d="M1105.929,553.428l-1.325-.106,3.655-7.742,1.447.116,2.391,8.225-1.4-.112-1.854-6.725Z" transform="translate(-1057.169 -463.196)" fill="#725ac1"/>
        <path id="Tracé_413" data-name="Tracé 413" d="M1086.748,548.752a4,4,0,0,1-3.135.316,4.121,4.121,0,0,1-.767-7.569,4.225,4.225,0,0,1,5.592,1.643,4.185,4.185,0,0,1-1.69,5.61Zm-3.253-6.175a2.93,2.93,0,0,0-1.379,1.767,2.886,2.886,0,0,0,.192,2.223,2.708,2.708,0,0,0,3.793,1.129,2.876,2.876,0,0,0,1.367-1.759,2.922,2.922,0,0,0-.18-2.23,2.709,2.709,0,0,0-3.793-1.129Z" transform="translate(-1043.87 -460.661)" fill="#725ac1"/>
        <path id="Tracé_414" data-name="Tracé 414" d="M1067.728,542.2l-1.128-.556,3.537-7.18,1.128.556Z" transform="translate(-1036.059 -457.019)" fill="#725ac1"/>
        <path id="Tracé_415" data-name="Tracé 415" d="M1052,532.741l-2.469-1.715a2.713,2.713,0,0,1-1.294-1.758,2.476,2.476,0,0,1,.457-1.823,2.309,2.309,0,0,1,2.7-.913l.293-3.755,1.167.811-.3,3.486,1.251.869,1.732-2.494,1.033.717Zm1.155-3.866-1.326-.922a1.347,1.347,0,0,0-2.066.2c-.35.5-.532,1.249.543,2l1.327.921Z" transform="translate(-1025.842 -450.53)" fill="#725ac1"/>
        <path id="Tracé_416" data-name="Tracé 416" d="M1025.619,509.21l1.725-1.41-2.226-2.723.879-.718,2.226,2.723,1.828-1.495-2.472-3.024.886-.725,3.268,4-6.2,5.067-3.242-3.966.879-.718Z" transform="translate(-1011.448 -438.899)" fill="#725ac1"/>
        <path id="Tracé_417" data-name="Tracé 417" d="M1013.179,490.122l5.448-2.888.579,1.093-7.074,3.75-.694-1.31,3.365-6.25-5.214,2.763-.584-1.1,7.074-3.75.613,1.157Z" transform="translate(-1004.067 -428.117)" fill="#725ac1"/>
        <path id="Tracé_418" data-name="Tracé 418" d="M1001.87,451.529a2.571,2.571,0,0,0-1.263,2.762,2.6,2.6,0,0,0,1.163,1.8,3.214,3.214,0,0,0,4.142-.709,2.573,2.573,0,0,0,.5-2.089,2.214,2.214,0,0,0-2.18-2.039l.492,2.831-1.128.2-.725-4.17.433-.076a3.538,3.538,0,0,1,4.245,3.05,3.95,3.95,0,0,1-.636,3.089,4,4,0,0,1-2.686,1.619,4.084,4.084,0,0,1-4.768-3.312,3.854,3.854,0,0,1,.288-2.405,3.4,3.4,0,0,1,1.431-1.556Z" transform="translate(-998.723 -410.087)" fill="#725ac1"/>
        <path id="Tracé_419" data-name="Tracé 419" d="M997.9,434.026l.09-3.005a2.714,2.714,0,0,1,.767-2.044,2.473,2.473,0,0,1,1.778-.612,2.308,2.308,0,0,1,2.239,1.765l3.308-1.8-.043,1.421-3.088,1.647-.046,1.523,3.036.091-.037,1.258Zm3.871-1.143.048-1.615c.033-1.114-.556-1.6-1.292-1.624-.613-.018-1.337.236-1.376,1.545L999.1,432.8Z" transform="translate(-997.896 -398.065)" fill="#725ac1"/>
        <path id="Tracé_420" data-name="Tracé 420" d="M1000.836,408.94l.333-1.445,8.529-1.363-.294,1.275-2,.286-.88,3.826,1.669,1.139-.289,1.255Zm4.706,1.891.681-2.96-4.048.632Z" transform="translate(-999.529 -385.737)" fill="#725ac1"/>
        <path id="Tracé_421" data-name="Tracé 421" d="M1008.8,384.874l5.583,2.618-.525,1.12-7.25-3.4.629-1.342,7.018-1.069-5.342-2.5.529-1.13,7.25,3.4-.556,1.185Z" transform="translate(-1002.734 -370.758)" fill="#725ac1"/>
        <path id="Tracé_422" data-name="Tracé 422" d="M1028.178,363.5a4.2,4.2,0,0,1-.925,3.37L1025.7,368.9l-6.363-4.854,1.538-2.015a4.342,4.342,0,0,1,2.463-1.7,4.046,4.046,0,0,1,4.837,3.163Zm-4.239-1.975a2.855,2.855,0,0,0-2.147,1.229l-.762,1,4.51,3.441.756-.991a2.969,2.969,0,0,0,.666-2.372,2.947,2.947,0,0,0-3.022-2.306Z" transform="translate(-1009.807 -360.251)" fill="#725ac1"/>
      </g>
    </g>
  </g>
</svg>
