<?xml version="1.0" encoding="utf-8"?>
<svg xmlns="http://www.w3.org/2000/svg" width="348.474" height="438.144" viewBox="0 0 348.474 438.144">
  <g id="tête" transform="translate(0.087)" opacity="0.05">
    <path id="Tracé_482" data-name="Tracé 482" d="M140.315,179.722a2.022,2.022,0,0,1,.439.586,33.578,33.578,0,0,1,2.49,4.1,8.728,8.728,0,0,0-.439-5.127,17.7,17.7,0,0,0-2.93-4.395,14.632,14.632,0,0,0-4.248-2.93,16.274,16.274,0,0,0-2.344-1.025c-.732-.293-1.611-.439-2.49-.732a7.358,7.358,0,0,0,1.758,1.9l1.758,1.611a3.884,3.884,0,0,0,.879.732A129.3,129.3,0,0,1,120.832,191a83.542,83.542,0,0,1-17.871,13.33,58.851,58.851,0,0,1-21.094,7.031,48.32,48.32,0,0,1-11.28.146A35.672,35.672,0,0,1,59.6,208.726a39.447,39.447,0,0,0,10.84,3.662,50.756,50.756,0,0,0,11.573.879,60.16,60.16,0,0,0,22.559-5.567,86.592,86.592,0,0,0,19.776-12.451A123.193,123.193,0,0,0,140.315,179.722Z" transform="translate(27.747 79.121)" fill="#10101c"/>
    <path id="Tracé_483" data-name="Tracé 483" d="M126.552,166.06a23.817,23.817,0,0,1,4.1,6.885,9.473,9.473,0,0,1,.586,1.9l.293.879.146,1.025c.146.732.293,1.318.439,2.051,0,.732.146,1.318.146,2.051a10.376,10.376,0,0,1,.146,2.051,11.087,11.087,0,0,0,.146,2.2c0,1.465-.146,2.93,0,4.541a36.425,36.425,0,0,0,2.2-4.1c.293-.732.439-1.465.732-2.2a11.1,11.1,0,0,0,.439-2.344,12.6,12.6,0,0,0,.146-2.344c0-.732-.146-1.611-.146-2.49L135.781,175l-.293-1.172a14.4,14.4,0,0,0-.732-2.344,17.96,17.96,0,0,0-5.713-7.764A17.257,17.257,0,0,0,120.4,160.2,33.446,33.446,0,0,1,126.552,166.06Z" transform="translate(56.011 74.473)" fill="#10101c"/>
    <path id="Tracé_484" data-name="Tracé 484" d="M113.159,99.432a38.331,38.331,0,0,0-10.694-5.274A20.5,20.5,0,0,0,90.6,93.719a58.614,58.614,0,0,1,10.108,4.688,96.216,96.216,0,0,1,9.082,5.859c3.076,2.051,6.006,4.248,9.082,6.445s6.152,4.248,9.522,6.3a44.215,44.215,0,0,0-15.235-17.578Z" transform="translate(42.158 43.247)" fill="#10101c"/>
    <path id="Tracé_485" data-name="Tracé 485" d="M51.606,98.758a60.366,60.366,0,0,1,4.541-4.1,31,31,0,0,1,5.127-3.369A67.117,67.117,0,0,1,73.14,86.306a24.63,24.63,0,0,0-13.77.732A29.063,29.063,0,0,0,47.5,94.656a35.925,35.925,0,0,0-7.617,11.719,32.488,32.488,0,0,0-2.783,13.33c2.2-3.955,4.395-7.617,6.885-11.28A59.758,59.758,0,0,1,51.606,98.758Z" transform="translate(17.283 39.819)" fill="#10101c"/>
    <path id="Tracé_486" data-name="Tracé 486" d="M63.212,161.718a19.93,19.93,0,0,0,1.758,7.617c.586-2.49,1.172-4.981,1.611-7.324a45.27,45.27,0,0,1,1.758-6.738,28.853,28.853,0,0,1,2.637-6.152,25.512,25.512,0,0,1,4.541-5.42,11.334,11.334,0,0,0-7.324,3.369,17.137,17.137,0,0,0-4.1,7.031A21.778,21.778,0,0,0,63.212,161.718Z" transform="translate(29.409 66.802)" fill="#10101c"/>
    <path id="Tracé_487" data-name="Tracé 487" d="M170.092,138.326a30.788,30.788,0,0,0-.732,6.3,33.432,33.432,0,0,0,.586,6.592,56.943,56.943,0,0,0,1.611-6.3l1.025-4.834A19.966,19.966,0,0,1,176.1,143.6a44.081,44.081,0,0,1,2.783,4.688,10.871,10.871,0,0,0-.732-5.713,15.26,15.26,0,0,0-1.465-2.637,15.537,15.537,0,0,0-2.2-2.2,4.453,4.453,0,0,0-1.025-.732c.293-1.465.732-2.93,1.172-4.395a18.3,18.3,0,0,1,2.637-5.713,10.7,10.7,0,0,0-4.688,4.834,23.363,23.363,0,0,0-1.758,3.955,6.6,6.6,0,0,0-1.611-.439,10.8,10.8,0,0,0-5.713,0c1.758.732,3.369,1.465,4.981,2.2A15.97,15.97,0,0,0,170.092,138.326Z" transform="translate(76.047 58.992)" fill="#10101c"/>
    <path id="Tracé_488" data-name="Tracé 488" d="M66.88,162.338c3.955-4.834,6.445-13.477,6.445-23.145,0-15.235-6.3-27.393-14.063-27.393S45.2,124.1,45.2,139.193c0,10.4,2.93,19.483,7.324,24.17a29.231,29.231,0,0,1,5.127-1.318A27.223,27.223,0,0,1,66.88,162.338Z" transform="translate(21.053 51.973)" fill="#10101c"/>
    <path id="Tracé_489" data-name="Tracé 489" d="M105.063,111.8C97.3,111.8,91,124.1,91,139.193c0,10.987,3.369,20.508,8.057,24.9a25.077,25.077,0,0,1,15.674-4.981c2.783-4.981,4.395-12.158,4.395-19.922C119.126,124.1,112.827,111.8,105.063,111.8Z" transform="translate(42.344 51.973)" fill="#10101c"/>
    <path id="Tracé_490" data-name="Tracé 490" d="M340.477,336.189l-2.783-.732-5.567-1.465-5.713-1.172a151.274,151.274,0,0,0-23-2.49,176.806,176.806,0,0,0-23.291.732l-5.859.586c-1.9.293-3.809.439-5.859.879-2.637.439-5.274.879-8.057,1.465-15.821-31.495-16.993-84.084-16.7-102.541a24.669,24.669,0,0,0,14.356.879c6.152-1.465,11.573-6.885,14.942-14.649,5.42-12.6,4.248-27.979-3.223-41.309-.732-1.318-7.031-11.865-16.553-15.528-2.49-41.309,17.871-92.58,18.018-93.166L272.36,64.6l-2.637-2.051a61.079,61.079,0,0,0-14.5-8.35L253.17,24.756,234.42,29.3c-14.649-11.426-37.794-8.643-60.06-5.859-7.471.879-15.235,1.9-22.559,2.344C124.555,27.54,106.39,4.541,106.244,4.248L102.874,0,87.054,18.75C73.137,16.407,53.508,3.369,53.362,3.223L49.7.732,30.51,30.03,6.779,20.8,5.314,25.342C4.728,27.1-8.163,69.435,8.1,94.045c5.713,8.5,13.916,13.77,24.756,15.821C30.363,137.112,17.912,282.281,43.986,327.4l-4.1,2.344.732,1.318,4.1-2.344c.732,1.172,1.611,2.344,2.344,3.369a64.847,64.847,0,0,0,13.77,13.037l-3.076,4.248,1.172.879L62,346a84.433,84.433,0,0,0,18.457,9.522l-2.49,5.274,1.318.586,2.49-5.42a111.313,111.313,0,0,0,31.348,6.152v6.738h1.465v-6.738c1.025,0,2.051.147,3.223.147h2.637c4.688,0,9.375-.293,13.916-.732l.732,4.395,1.465-.293-.732-4.395a129.13,129.13,0,0,0,22.852-4.834l2.2,4.834,1.318-.586-2.051-4.688a107.411,107.411,0,0,0,19.483-8.643l2.051,21.094c-3.076,1.611-6.152,3.223-9.082,5.127-3.955,2.344-7.764,4.688-11.573,7.178a232.292,232.292,0,0,0-21.68,16.26,196.236,196.236,0,0,0-19.19,19.043,141.351,141.351,0,0,0-15.235,22.12,134.7,134.7,0,0,1,16.846-20.655,173.62,173.62,0,0,1,20.215-17.139A221.2,221.2,0,0,1,164.4,386.287c2.783-1.465,5.567-2.93,8.2-4.395,2.2,8.057,9.961,24.024,36.915,24.024h.732c36.329-.439,64.308-28.126,66.8-46.436,1.465-10.254-.586-16.846-2.783-20.655.293-.147.732-.147,1.025-.293l5.567-1.172a164.358,164.358,0,0,1,22.413-2.783,130.806,130.806,0,0,1,22.706.293l5.713.586,5.566.879,2.783.439,2.783.732,5.567,1.318-5.42-1.9Zm-83.5,9.375a6.622,6.622,0,0,1,1.025,4.1c-.586,8.789-5.274,24.9-29.444,34.425-11.28,4.395-20.508,4.981-27.54,1.758a20.567,20.567,0,0,1-9.961-10.694l-2.344-23.731c32.667-19.043,44.825-48.048,49.366-65.773C241.744,311.725,248.043,331.94,256.979,345.564Zm-101.955,2.93a105.422,105.422,0,0,1-20.655,4.248l-.879-4.981-1.465.293.879,4.981a123.7,123.7,0,0,1-14.8.586c-1.172,0-2.2-.147-3.369-.147v-3.662h-1.465v3.516a109.22,109.22,0,0,1-27.686-5.274l2.344-4.981-1.318-.586-2.344,5.127a80.365,80.365,0,0,1-16.993-8.643l1.9-2.637-1.172-.879-1.9,2.637a58.721,58.721,0,0,1-11.865-11.426,22.345,22.345,0,0,1-1.611-2.344l2.2-1.172-.732-1.318-2.2,1.318c-27.1-45.265-9.961-214.75-9.815-216.508v-.293c20.655-.146,56.691-14.942,80.129-16.993A100.764,100.764,0,0,1,169.087,96.1a6.2,6.2,0,0,0,7.324-2.2c.439-.586.732-1.172,1.172-1.758a125.075,125.075,0,0,1,10.4-12.6l2.783-2.93,2.93-2.783c1.9-1.9,3.955-3.662,5.86-5.567l6.152-5.274,6.3-4.981-5.42,5.859c-1.758,2.051-3.516,3.955-5.127,6.006s-3.369,4.1-4.834,6.3L194.282,79.4l-2.2,3.223a124.656,124.656,0,0,0-7.91,13.477c-1.172,2.344-2.2,4.688-3.223,7.031l-1.318,3.516c-.146.586-.146,1.318-.293,1.9,2.051,46,32.227,81.008,32.227,81.008l23.291-7.324a15.565,15.565,0,0,1,1.465-7.031,6.2,6.2,0,0,0,.732-1.025c3.369-4.1,6.738-6.152,9.961-5.86,6.738.439,13.037,9.082,14.942,12.3,6.152,10.84,7.178,23.438,2.93,33.546-2.2,5.127-5.713,8.789-8.936,9.522-9.375,2.2-17.578-5.713-17.725-5.713l-7.471-7.324V221.2c0,27.247-10.254,71.193-39.112,105.324-8.057,9.522-20.508,16.993-35.01,21.68l-1.611-3.516-1.318.586Zm119.241,10.84c-2.344,17.286-29.151,43.507-64.015,43.8h-.732c-26.075,0-32.667-15.381-34.278-22.413l.879-.439c2.051-1.025,4.248-2.051,6.445-2.93h0a29.014,29.014,0,0,0,14.5,16.407,31.919,31.919,0,0,0,14.063,3.076q9.229,0,20.655-4.395c29.59-11.719,34.278-33.253,35.01-41.9a14.259,14.259,0,0,0-2.051-8.789c1.758-.586,3.516-1.025,5.274-1.465.439-.146,1.025-.293,1.465-.439C273.386,342.78,275.729,348.933,274.265,359.334Z" transform="translate(0)" fill="#10101c"/>
    <rect id="Rectangle_55" data-name="Rectangle 55" width="16.7" height="1.465" transform="translate(211.872 193.295) rotate(-16.744)" fill="#10101c"/>
    <rect id="Rectangle_56" data-name="Rectangle 56" width="12.744" height="1.465" transform="translate(213.6 197.659) rotate(-18.984)" fill="#10101c"/>
    <rect id="Rectangle_57" data-name="Rectangle 57" width="13.77" height="1.465" transform="matrix(0.5, -0.866, 0.866, 0.5, 79.799, 335.449)" fill="#10101c"/>
    <rect id="Rectangle_58" data-name="Rectangle 58" width="12.744" height="1.465" transform="matrix(0.856, -0.517, 0.517, 0.856, 60.909, 325.701)" fill="#10101c"/>
    <rect id="Rectangle_59" data-name="Rectangle 59" width="10.401" height="1.465" transform="matrix(0.18, -0.984, 0.984, 0.18, 100.113, 342.627)" fill="#10101c"/>
    <rect id="Rectangle_60" data-name="Rectangle 60" width="1.465" height="13.037" transform="translate(123.822 329.89)" fill="#10101c"/>
    <rect id="Rectangle_61" data-name="Rectangle 61" width="1.465" height="7.471" transform="translate(140.788 337.806) rotate(-14.477)" fill="#10101c"/>
    <rect id="Rectangle_62" data-name="Rectangle 62" width="1.465" height="10.108" transform="translate(153.5 330.114) rotate(-25.176)" fill="#10101c"/>
    <rect id="Rectangle_63" data-name="Rectangle 63" width="14.356" height="1.465" transform="translate(54.041 303.54) rotate(-5.987)" fill="#10101c"/>
    <rect id="Rectangle_64" data-name="Rectangle 64" width="1.465" height="6.592" transform="matrix(0.7, -0.714, 0.714, 0.7, 168.036, 328.486)" fill="#10101c"/>
  </g>
</svg>
