<?xml version="1.0" encoding="UTF-8"?>
<!-- Generator: Adobe Illustrator 24.1.2, SVG Export Plug-In . SVG Version: 6.00 Build 0)  -->
<svg version="1.1" id="Calque_1" xmlns="http://www.w3.org/2000/svg" xmlns:xlink="http://www.w3.org/1999/xlink" x="0px" y="0px" viewBox="0 0 636 545" style="enable-background:new 0 0 636 545;" xml:space="preserve">
<g>
	<path style="fill:#725AC1;stroke:#C3BAF4;stroke-width:5;stroke-linecap:round;stroke-linejoin:round;stroke-miterlimit:10;" d="   M287.9,316c9.8,63,33.5,74.6,33.5,74.6s108.2,50.6,140.3,45.4s19.1-39.9,14.7-46c0,0,9.3-13.9,15-18.2c0,0,1.7-13.3-5.2-17.4   c0,0,13-4,13-12.4s-5.5-26.6,0-29.5c5.5-2.9,24.6-3.5,27.2-14.2c2.6-10.7-16.2-48.3-33.5-64.2c0,0-4.9-5.2,4.3-16.2   c9.3-11-13-63-17.9-80.4s-18.8-98.3-167.1-98.3s-165,112.5-165,122c0,8.6-18.8,82.7,35.4,137.4c10.7,10.8,25.3,16.8,40.5,16.8   C242.9,315.5,272.1,315.6,287.9,316z"/>
	<path style="fill:#C3BAF4;stroke:#10101C;stroke-width:5;stroke-linecap:round;stroke-linejoin:round;stroke-miterlimit:10;" d="   M390.3,207.6c0,0,17.2,3.9,19.6,5.5c2.3,1.6,31.3,6.3,39.9,0c8.6-6.3,16.4-13.3,17.2-39.9s-3.5-15.3-3.5-29.3s-7.8-10.2-9.4-18.8   s-17.2-12.5-18.8-19.6c-1.6-7-18-11.7-20.3-18.8c-2.3-7-18-1.6-36-15.6c-18-14.1-20.3-2.3-39.9-7c-19.6-4.7-21.9,0.8-36-4.7   c-14.1-5.5-24.2,6.3-36,3.9c-11.7-2.3-20.3,10.9-40.7,15.6c-20.3,4.7-18,21.9-32.1,28.2c-14.1,6.3-7.8,18.8-22.7,29.7   s-17.2,51.6,24.2,68c0,0-5.5,55.5,73.5,50.1c0,0,19.6-2.3,29.7-25.8c0,0,18,10.9,29.7,9.4c11.7-1.6,20.3,7.8,30.5,3.1   c10.2-4.7,28.9-3.1,32.1-14.9C394.6,215,390.3,207.6,390.3,207.6z"/>
	<g>
		<path style="fill:none;stroke:#725AC1;stroke-width:3;stroke-linecap:round;stroke-linejoin:round;stroke-miterlimit:10;" d="    M452.5,168.9c0,0-13.3,14.9-18.8,0c-5.5-14.9-10.2-22.7-21.1-21.1c-10.9,1.6-19.6,0-24.2-7.8s-16.4-3.1-18.8,5.5    c-2.3,8.6,16.3,29.5,5.8,41.4"/>
		<path style="fill:none;stroke:#725AC1;stroke-width:3;stroke-linecap:round;stroke-linejoin:round;stroke-miterlimit:10;" d="    M371.6,141.3c0,0-9.8-10.7-7.5-20.9s12.5-17.2-13.3-32.1"/>
		<path style="fill:none;stroke:#725AC1;stroke-width:3;stroke-linecap:round;stroke-linejoin:round;stroke-miterlimit:10;" d="    M419.5,148.2c0,0,20.5-4.4-2.2-29.4"/>
		<path style="fill:none;stroke:#725AC1;stroke-width:3;stroke-linecap:round;stroke-linejoin:round;stroke-miterlimit:10;" d="    M399.4,147.7c0,0,10.1,11-0.1,23.5"/>
		<path style="fill:none;stroke:#725AC1;stroke-width:3;stroke-linecap:round;stroke-linejoin:round;stroke-miterlimit:10;" d="    M323.5,176.3c0,0,18.8,6.7,21.1-12.1s-5.5-25.8-2.3-33.6c3.1-7.8-17.2-3.9-16.4-11.7s-5.5-9.4-7-21.9    c-1.6-12.5-11.7-24.2-19.6-25.8"/>
		<path style="fill:none;stroke:#725AC1;stroke-width:3;stroke-linecap:round;stroke-linejoin:round;stroke-miterlimit:10;" d="    M295.2,144.5c0,0,16.5,0.9,18.1-8.4c1.6-9.4-1.6-14.1,0-19.6s-18.8-10.9-19.6-15.6c-0.8-4.7-0.8-11.7-4.7-14.1"/>
		<path style="fill:none;stroke:#725AC1;stroke-width:3;stroke-linecap:round;stroke-linejoin:round;stroke-miterlimit:10;" d="    M210.8,109.4c0,0-25.8,26.6-11.7,32.1c14.1,5.5,22.7-5.5,22.7-5.5"/>
		<path style="fill:none;stroke:#725AC1;stroke-width:3;stroke-linecap:round;stroke-linejoin:round;stroke-miterlimit:10;" d="    M209.8,143c0,0,16.7,16.5,27.6,18c10.9,1.6,32.1,6.3,34.4,10.2c2.3,3.9,0,11.7,9.4,15.6c9.4,3.9,23.5-1.6,20.3,12.5    c-3.1,14.1,21.1-6.3,28.2,0s26.6-5.5,21.1,4.7c-5.5,10.2,25,7,25.8,13.3"/>
		<path style="fill:none;stroke:#725AC1;stroke-width:3;stroke-linecap:round;stroke-linejoin:round;stroke-miterlimit:10;" d="    M226.9,156.6c0,0-20.1,35.4,17.5,34.6"/>
		<path style="fill:none;stroke:#725AC1;stroke-width:3;stroke-linecap:round;stroke-linejoin:round;stroke-miterlimit:10;" d="    M222.2,180.2c0,0-27.3,9.4-42.1,0"/>
		<path style="fill:none;stroke:#725AC1;stroke-width:3;stroke-linecap:round;stroke-linejoin:round;stroke-miterlimit:10;" d="    M260.1,109.4c0,0,8.6-9.4,1.6-14.9S239,93,240.6,109.4s-16.4,25-7.8,33.6c8.6,8.6,40.7,8.6,45.4-9.4"/>
		<path style="fill:none;stroke:#725AC1;stroke-width:3;stroke-linecap:round;stroke-linejoin:round;stroke-miterlimit:10;" d="    M382.9,125.8c0,0,9.4-20.3,28.2-16.4"/>
		<path style="fill:none;stroke:#725AC1;stroke-width:3;stroke-linecap:round;stroke-linejoin:round;stroke-miterlimit:10;" d="    M439.2,156.3c0,0,7.8-0.8,3.9-10.2c-3.9-9.4-0.8-14.1,0.8-15.6"/>
		<path style="fill:none;stroke:#725AC1;stroke-width:3;stroke-linecap:round;stroke-linejoin:round;stroke-miterlimit:10;" d="    M400.1,94.6c0,0-8.6-3.5-17.2-4.2c-8.6-0.8-4.7-16.1-18-15.3c-13.3,0.8-28.8,6.9-36.1,1.2"/>
		<path style="fill:none;stroke:#725AC1;stroke-width:3;stroke-linecap:round;stroke-linejoin:round;stroke-miterlimit:10;" d="    M364.1,120.4c0,0-18-3.9-21.9-10.9"/>
		<path style="fill:none;stroke:#725AC1;stroke-width:3;stroke-linecap:round;stroke-linejoin:round;stroke-miterlimit:10;" d="    M261.7,94.6c0,0,7-12.5,3.9-19.6"/>
		<path style="fill:none;stroke:#725AC1;stroke-width:3;stroke-linecap:round;stroke-linejoin:round;stroke-miterlimit:10;" d="    M281.2,108.6c0,0-1.6,9.4-12.5,11.7"/>
		<path style="fill:none;stroke:#725AC1;stroke-width:3;stroke-linecap:round;stroke-linejoin:round;stroke-miterlimit:10;" d="    M439.2,188.4c0,0-17.2,14.9-35.2,4.7"/>
		<path style="fill:none;stroke:#725AC1;stroke-width:3;stroke-linecap:round;stroke-linejoin:round;stroke-miterlimit:10;" d="    M422,165.7c0,0-18,19.6,3.1,17.2"/>
		<path style="fill:none;stroke:#725AC1;stroke-width:3;stroke-linecap:round;stroke-linejoin:round;stroke-miterlimit:10;" d="    M414.9,178.6c0,0-13.2,9.8-21,9.8"/>
		<path style="fill:none;stroke:#725AC1;stroke-width:3;stroke-linecap:round;stroke-linejoin:round;stroke-miterlimit:10;" d="    M348,231.3c0,0-19-7-8.1-17.1"/>
		<path style="fill:none;stroke:#725AC1;stroke-width:3;stroke-linecap:round;stroke-linejoin:round;stroke-miterlimit:10;" d="    M336.2,221.5c0,0-14.2,1.3-18.1-2.6c-3.9-3.9-25-2-30.5-8.2c-16-18.1-26.2-14.8-33.3-14"/>
		<path style="fill:none;stroke:#725AC1;stroke-width:3;stroke-linecap:round;stroke-linejoin:round;stroke-miterlimit:10;" d="    M267.6,234.4c0,0-11.4,11.3-37.2,8.1"/>
		<path style="fill:none;stroke:#725AC1;stroke-width:3;stroke-linecap:round;stroke-linejoin:round;stroke-miterlimit:10;" d="    M258.9,228.6c0,0-23.8,11.4-46.5,1.3"/>
		<path style="fill:none;stroke:#725AC1;stroke-width:3;stroke-linecap:round;stroke-linejoin:round;stroke-miterlimit:10;" d="    M276.8,238.7c0,0-7,7.7-24.9,10"/>
		<path style="fill:none;stroke:#725AC1;stroke-width:3;stroke-linecap:round;stroke-linejoin:round;stroke-miterlimit:10;" d="    M249.5,221.9c0,0-29.5,4.4-44.1-7.7"/>
	</g>
	<g>
		<path style="fill:#FFFFFF;stroke:#10101C;stroke-width:5;stroke-linecap:round;stroke-linejoin:round;stroke-miterlimit:10;" d="    M467.1,231.8c0,14.8-4.9,26.9-10.9,26.9c-2.8,0-5.4-2.7-7.3-7c-0.4-1-0.8-2-1.2-3.2c-1.5-4.6-2.3-10.4-2.3-16.7    c0-6.3,0.9-12.1,2.3-16.7c0.4-1.1,0.8-2.2,1.2-3.2c1.9-4.4,4.5-7,7.3-7C462.2,204.9,467.1,216.9,467.1,231.8z"/>
		<path style="fill:#C3BAF4;stroke:#10101C;stroke-width:5;stroke-linecap:round;stroke-linejoin:round;stroke-miterlimit:10;" d="    M456.2,258.7h-17c-2.8,0-5.4-2.7-7.3-7c-2.2-4.9-3.5-12-3.5-19.8c0-7.9,1.4-14.9,3.5-19.9c1.9-4.4,4.5-7,7.3-7h17    c-2.8,0-5.4,2.7-7.3,7c-0.4,1-0.8,2-1.2,3.2c-1.5,4.6-2.3,10.4-2.3,16.7c0,6.3,0.9,12.1,2.3,16.7c0.4,1.1,0.8,2.2,1.2,3.2    C450.9,256,453.4,258.7,456.2,258.7z"/>
		<path style="fill:#C3BAF4;stroke:#10101C;stroke-width:5;stroke-linecap:round;stroke-linejoin:round;stroke-miterlimit:10;" d="    M428.4,231.8c0,7.9,1.4,14.9,3.5,19.8H420c-4.4,0-8-8.9-8-19.8c0-11,3.6-19.9,8-19.9h11.9C429.7,216.8,428.4,223.9,428.4,231.8z"/>
	</g>
	<path style="fill:#C3BAF4;stroke:#10101C;stroke-width:5;stroke-linecap:round;stroke-linejoin:round;stroke-miterlimit:10;" d="   M476.5,355l-85.6-20.1c0,0,5.8-11.3,0-21.9l85.6,17.2C476.5,330.2,479.4,341,476.5,355z"/>
	<path style="fill:#C3BAF4;stroke:#10101C;stroke-width:5;stroke-linecap:round;stroke-linejoin:round;stroke-miterlimit:10;" d="   M467.1,328.3c0,0,2.5,16.1,1.5,24.8"/>
	<path style="fill:#C3BAF4;stroke:#10101C;stroke-width:5;stroke-linecap:round;stroke-linejoin:round;stroke-miterlimit:10;" d="   M457.5,326.4c0,0,0.7,17.2,0,24.1"/>
	<path style="fill:#C3BAF4;stroke:#10101C;stroke-width:5;stroke-linecap:round;stroke-linejoin:round;stroke-miterlimit:10;" d="   M442.3,323.4c0,0,1.1,19.5-0.6,23.5"/>
	
		<line style="fill:#C3BAF4;stroke:#10101C;stroke-width:5;stroke-linecap:round;stroke-linejoin:round;stroke-miterlimit:10;" x1="425.1" y1="319.9" x2="424" y2="342.7"/>
	
		<line style="fill:#C3BAF4;stroke:#10101C;stroke-width:5;stroke-linecap:round;stroke-linejoin:round;stroke-miterlimit:10;" x1="408.6" y1="316.6" x2="407.4" y2="338.5"/>
	<path style="fill:#C3BAF4;stroke:#10101C;stroke-width:5;stroke-linecap:round;stroke-linejoin:round;stroke-miterlimit:10;" d="   M476.5,355c0,0-6.7,15.6-13,20.4l-94.1-26.1c0,0,19-4.9,21.5-14.5L476.5,355z"/>
	
		<line style="fill:#C3BAF4;stroke:#10101C;stroke-width:5;stroke-linecap:round;stroke-linejoin:round;stroke-miterlimit:10;" x1="468.5" y1="353.1" x2="456.2" y2="373.4"/>
	
		<line style="fill:#C3BAF4;stroke:#10101C;stroke-width:5;stroke-linecap:round;stroke-linejoin:round;stroke-miterlimit:10;" x1="457.5" y1="350.5" x2="445.4" y2="370.4"/>
	
		<line style="fill:#C3BAF4;stroke:#10101C;stroke-width:5;stroke-linecap:round;stroke-linejoin:round;stroke-miterlimit:10;" x1="441.7" y1="346.8" x2="430.9" y2="366.4"/>
	
		<line style="fill:#C3BAF4;stroke:#10101C;stroke-width:5;stroke-linecap:round;stroke-linejoin:round;stroke-miterlimit:10;" x1="424" y1="342.7" x2="412" y2="360.5"/>
	
		<line style="fill:#C3BAF4;stroke:#10101C;stroke-width:5;stroke-linecap:round;stroke-linejoin:round;stroke-miterlimit:10;" x1="407.4" y1="338.5" x2="393.9" y2="356.1"/>
	
		<circle style="fill:#C3BAF4;stroke:#10101C;stroke-width:5;stroke-linecap:round;stroke-linejoin:round;stroke-miterlimit:10;" cx="316.3" cy="297.9" r="21.5"/>
	<path style="fill:none;stroke:#10101C;stroke-width:5;stroke-linecap:round;stroke-linejoin:round;stroke-miterlimit:10;" d="   M299.4,311.2c0,0,8.3,54.6,29.3,68.9c0,0,117.9,58.6,138.4,39.9c0,0,12.3-13.8-4.7-31.7l1.1-12.9"/>
	<path style="fill:none;stroke:#10101C;stroke-width:5;stroke-linecap:round;stroke-linejoin:round;stroke-miterlimit:10;" d="   M337.9,297.9c45.9-11.5,53,15.1,53,15.1s4.5-21.6,26.4-37.9"/>
	<path style="fill:none;stroke:#10101C;stroke-width:5;stroke-linecap:round;stroke-linejoin:round;stroke-miterlimit:10;" d="   M369.4,349.3c0,0-21-7.1-37.7-36.3"/>
	<path style="fill:none;stroke:#10101C;stroke-width:5;stroke-linecap:round;stroke-linejoin:round;stroke-miterlimit:10;" d="   M476.5,330.2c0,0-1-32.3,7.7-35.2c0,0-15.2-31.9,3-46.3c0,0-12.4-18.2-10.7-34.5c1.6-16.3-0.2-46.3-11.9-62.3"/>
	<path style="fill:none;stroke:#10101C;stroke-width:5;stroke-linecap:round;stroke-linejoin:round;stroke-miterlimit:10;" d="   M466,243.7c0,0-6.1,38.1-29.6,37.9c-24.3-0.2-31.3-21.2-36.2-50.3"/>
	<path style="fill:none;stroke:#10101C;stroke-width:5;stroke-linecap:round;stroke-linejoin:round;stroke-miterlimit:10;" d="   M484.2,295c0,0-22.4-2.3-38.8-15.4"/>
	<path style="fill:none;stroke:#10101C;stroke-width:5;stroke-linecap:round;stroke-linejoin:round;stroke-miterlimit:10;" d="   M462.4,388.3c0,0-47.4-16.8-71.5,19"/>
	<path style="fill:none;stroke:#10101C;stroke-width:5;stroke-linecap:round;stroke-linejoin:round;stroke-miterlimit:10;" d="   M316.3,319.4c0,0,11.6,54,91,72.3"/>
	<path style="fill:none;stroke:#10101C;stroke-width:5;stroke-linecap:round;stroke-linejoin:round;stroke-miterlimit:10;" d="   M324.3,277.9c0,0-2.2-27.1,13.5-38.8"/>
	<path style="fill:none;stroke:#10101C;stroke-width:5;stroke-linecap:round;stroke-linejoin:round;stroke-miterlimit:10;" d="   M403.6,288.3c0,0-40.1-23.2-76.9-31.8"/>
	<path style="fill:none;stroke:#10101C;stroke-width:5;stroke-linecap:round;stroke-linejoin:round;stroke-miterlimit:10;" d="   M420,297.9c0,0,19.4,7.6,44.6,10.2"/>
</g>
<g>
	<path style="fill:#C3BAF4;stroke:#725AC1;stroke-width:5;stroke-linecap:round;stroke-linejoin:round;stroke-miterlimit:10;" d="   M181,411.4c9.8,63,33.5,74.6,33.5,74.6s108.2,50.6,140.3,45.4s19.1-39.9,14.7-46c0,0,9.3-13.9,15-18.2c0,0,1.7-13.3-5.2-17.4   c0,0,13-4,13-12.4c0-8.4-5.5-26.6,0-29.5s24.6-3.5,27.2-14.2s-16.2-48.3-33.5-64.2c0,0-4.9-5.2,4.3-16.2s-13-63-17.9-80.4   s-18.8-98.3-167.1-98.3s-165,112.5-165,122c0,8.6-18.8,82.7,35.4,137.4c10.7,10.8,25.3,16.8,40.5,16.8   C136.1,410.9,165.2,411,181,411.4z"/>
	<g>
		<path style="fill:#725AC1;" d="M401.5,398.1c-2.2,0.1-4.3,0.5-6.4,0.9c-2.1,0.5-4.2,1-6.2,1.7c-1,0.3-2,0.7-3,1.1    c-1,0.4-2,0.8-3,1.2c-2,0.9-3.9,1.8-5.8,2.8c-1.8,1-3.8,2.2-6.2,2.7c-1.1,0.3-2.4,0.4-3.7,0c-1.3-0.3-2.4-1.2-3-2.2    c-1.4-2.1-1.6-4.4-1.6-6.6c0-2.2,0.3-4.4,0.8-6.5c-0.1,2.2-0.1,4.3,0.1,6.5c0.2,2.1,0.7,4.2,1.9,5.8c0.6,0.7,1.3,1.2,2.2,1.4    c0.9,0.2,1.8,0.1,2.8-0.2c1-0.2,1.9-0.7,2.8-1.1l2.8-1.5c3.9-2.1,8-3.8,12.3-4.8c2.1-0.6,4.3-0.9,6.5-1.2    C397.1,397.8,399.3,397.7,401.5,398.1z"/>
	</g>
	<g>
		<path style="fill:#725AC1;" d="M379.9,452.3c-1.8,0.1-3.8,0.4-5.6,0.6c-1.9,0.2-3.8,0.5-5.6,0.8c-3.8,0.6-7.5,1.3-11.2,2.5    c3.3-1.9,6.9-3.5,10.5-4.9c1.8-0.7,3.6-1.4,5.5-2c1.8-0.6,3.7-1.3,5.6-1.8c1.3-0.4,2.7,0.3,3.1,1.7c0.4,1.3-0.3,2.7-1.7,3.1    C380.3,452.2,380.1,452.3,379.9,452.3L379.9,452.3z"/>
	</g>
	
		<ellipse style="fill:#FFFFFF;stroke:#10101C;stroke-width:5;stroke-linecap:round;stroke-linejoin:round;stroke-miterlimit:10;" cx="344.9" cy="323.7" rx="10.8" ry="26.9"/>
	<g>
		<path style="fill:#725AC1;" d="M365.5,280.3c-4.5-2.9-9.4-4.7-14.3-5.3c-4.9-0.6-9.9-0.1-14.5,1.4c-4.6,1.5-8.9,4-12.6,7.4    c-3.6,3.4-6.5,7.6-8.5,12.7c-0.1-5.4,2-10.9,5.6-15.3c3.5-4.4,8.5-7.7,13.9-9.5c5.4-1.8,11.4-2,16.8-0.5    C357.4,272.6,362.4,275.8,365.5,280.3z"/>
	</g>
	
		<circle style="fill:#725AC1;stroke:#10101C;stroke-width:5;stroke-linecap:round;stroke-linejoin:round;stroke-miterlimit:10;" cx="181.2" cy="350.8" r="74.2"/>
	
		<circle style="fill:#C3BAF4;stroke:#10101C;stroke-width:5;stroke-linecap:round;stroke-linejoin:round;stroke-miterlimit:10;" cx="181.2" cy="350.8" r="35.4"/>
	
		<circle style="fill:#C3BAF4;stroke:#725AC1;stroke-width:3;stroke-linecap:round;stroke-linejoin:round;stroke-miterlimit:10;" cx="255.4" cy="264.5" r="12.6"/>
	
		<circle style="fill:#C3BAF4;stroke:#725AC1;stroke-width:3;stroke-linecap:round;stroke-linejoin:round;stroke-miterlimit:10;" cx="197.6" cy="242.6" r="12.6"/>
	
		<circle style="fill:#C3BAF4;stroke:#725AC1;stroke-width:3;stroke-linecap:round;stroke-linejoin:round;stroke-miterlimit:10;" cx="145.8" cy="251.9" r="9.3"/>
	
		<circle style="fill:#C3BAF4;stroke:#725AC1;stroke-width:3;stroke-linecap:round;stroke-linejoin:round;stroke-miterlimit:10;" cx="105.1" cy="296" r="8.9"/>
	
		<line style="fill:#725AC1;stroke:#10101C;stroke-width:5;stroke-linecap:round;stroke-linejoin:round;stroke-miterlimit:10;" x1="181.2" y1="315.4" x2="181.2" y2="276.6"/>
	
		<line style="fill:#725AC1;stroke:#10101C;stroke-width:5;stroke-linecap:round;stroke-linejoin:round;stroke-miterlimit:10;" x1="216.6" y1="350.8" x2="255.4" y2="350.8"/>
	
		<line style="fill:#725AC1;stroke:#10101C;stroke-width:5;stroke-linecap:round;stroke-linejoin:round;stroke-miterlimit:10;" x1="197.6" y1="382.1" x2="216.6" y2="416"/>
	
		<line style="fill:#725AC1;stroke:#10101C;stroke-width:5;stroke-linecap:round;stroke-linejoin:round;stroke-miterlimit:10;" x1="149.1" y1="365.7" x2="114" y2="382.1"/>
</g>
<line style="fill:#C3BAF4;stroke:#725AC1;stroke-width:5;stroke-linecap:round;stroke-linejoin:round;stroke-miterlimit:10;" x1="128" y1="13" x2="128" y2="45.1"/>
<line style="fill:#C3BAF4;stroke:#725AC1;stroke-width:5;stroke-linecap:round;stroke-linejoin:round;stroke-miterlimit:10;" x1="144" y1="29.1" x2="111.9" y2="29.1"/>
<line style="fill:#C3BAF4;stroke:#725AC1;stroke-width:5;stroke-linecap:round;stroke-linejoin:round;stroke-miterlimit:10;" x1="49" y1="93.9" x2="49" y2="146.8"/>
<line style="fill:#C3BAF4;stroke:#725AC1;stroke-width:5;stroke-linecap:round;stroke-linejoin:round;stroke-miterlimit:10;" x1="75.4" y1="120.4" x2="22.6" y2="120.4"/>
<line style="fill:#C3BAF4;stroke:#725AC1;stroke-width:5;stroke-linecap:round;stroke-linejoin:round;stroke-miterlimit:10;" x1="586" y1="154.8" x2="586" y2="207.7"/>
<line style="fill:#C3BAF4;stroke:#725AC1;stroke-width:5;stroke-linecap:round;stroke-linejoin:round;stroke-miterlimit:10;" x1="612.4" y1="181.3" x2="559.5" y2="181.3"/>
<line style="fill:#C3BAF4;stroke:#725AC1;stroke-width:5;stroke-linecap:round;stroke-linejoin:round;stroke-miterlimit:10;" x1="467.1" y1="487.2" x2="467.1" y2="514.9"/>
<line style="fill:#C3BAF4;stroke:#725AC1;stroke-width:5;stroke-linecap:round;stroke-linejoin:round;stroke-miterlimit:10;" x1="481" y1="501.1" x2="453.2" y2="501.1"/>
<line style="fill:#C3BAF4;stroke:#725AC1;stroke-width:5;stroke-linecap:round;stroke-linejoin:round;stroke-miterlimit:10;" x1="96.2" y1="449.8" x2="96.2" y2="477.6"/>
<line style="fill:#C3BAF4;stroke:#725AC1;stroke-width:5;stroke-linecap:round;stroke-linejoin:round;stroke-miterlimit:10;" x1="110.1" y1="463.7" x2="82.3" y2="463.7"/>
<line style="fill:#C3BAF4;stroke:#725AC1;stroke-width:5;stroke-linecap:round;stroke-linejoin:round;stroke-miterlimit:10;" x1="555.6" y1="356.5" x2="555.6" y2="384.3"/>
<line style="fill:#C3BAF4;stroke:#725AC1;stroke-width:5;stroke-linecap:round;stroke-linejoin:round;stroke-miterlimit:10;" x1="569.5" y1="370.4" x2="541.7" y2="370.4"/>
</svg>