<?xml version="1.0" encoding="UTF-8"?>
<!-- Generator: Adobe Illustrator 24.1.2, SVG Export Plug-In . SVG Version: 6.00 Build 0)  -->
<svg version="1.1" id="Calque_1" xmlns="http://www.w3.org/2000/svg" xmlns:xlink="http://www.w3.org/1999/xlink" x="0px" y="0px" viewBox="0 0 636 545" style="enable-background:new 0 0 636 545;" xml:space="preserve">
<circle style="fill:#C3BAF4;stroke:#725AC1;stroke-width:5;stroke-linecap:round;stroke-linejoin:round;stroke-miterlimit:10;" cx="344.8" cy="313.5" r="215.2"/>
<g>
	<path style="fill:#FFFFFF;stroke:#10101C;stroke-width:5;stroke-linecap:round;stroke-linejoin:round;stroke-miterlimit:10;" d="   M361.6,311.9c0,0,5.9-60.6,61.2-60.6s72.9,60.6,72.9,60.6s-15.3,59-75.3,58.9C360.4,370.7,361.6,311.9,361.6,311.9z"/>
	<path style="fill:none;stroke:#10101C;stroke-width:5;stroke-linecap:round;stroke-linejoin:round;stroke-miterlimit:10;" d="   M361.6,311.9c0,0-17.6-87.8,16.5-126.8s77.6-14.6,98.8,9.7"/>
</g>
<circle style="fill:#725AC1;stroke:#10101C;stroke-width:5;stroke-linecap:round;stroke-linejoin:round;stroke-miterlimit:10;" cx="409" cy="298.3" r="16.2"/>
<path style="fill:#725AC1;stroke:#10101C;stroke-width:5;stroke-linecap:round;stroke-linejoin:round;stroke-miterlimit:10;" d="  M381.3,421.5c0-29.9-16.3-47-36.4-47c-20.1,0-36.4,17.1-36.4,47c0,29.9,16.3,54.1,36.4,54.1C365,475.6,381.3,451.3,381.3,421.5z"/>
<g>
	<path style="fill:none;stroke:#725AC1;stroke-width:3;stroke-linecap:round;stroke-linejoin:round;stroke-miterlimit:10;" d="   M449.1,434.5c-2.4,13.1,0.7,24.4,8.7,28c10.6,4.8,25.9-5.9,34.1-23.9c1.1-2.4,2-4.8,2.7-7.1"/>
	<path style="fill:none;stroke:#725AC1;stroke-width:3;stroke-linecap:round;stroke-linejoin:round;stroke-miterlimit:10;" d="   M495.7,407.7c-1.5-4.9-4.2-8.7-8.2-10.5c-9.1-4.2-21.7,3.1-30.2,16.7"/>
</g>
<g>
	<path style="fill:none;stroke:#725AC1;stroke-width:3;stroke-linecap:round;stroke-linejoin:round;stroke-miterlimit:10;" d="   M540.9,357.1c1.3-8.1,0-14.6-3.7-15.9c-4.9-1.7-12.3,6.4-16.4,18.2c-0.5,1.6-1,3.1-1.4,4.6"/>
	<path style="fill:none;stroke:#725AC1;stroke-width:3;stroke-linecap:round;stroke-linejoin:round;stroke-miterlimit:10;" d="   M518.7,378.4c0.6,2.8,1.9,4.7,3.7,5.4c4.2,1.5,10.2-4.3,14.5-13.4"/>
</g>
<g>
	<path style="fill:none;stroke:#725AC1;stroke-width:3;stroke-linecap:round;stroke-linejoin:round;stroke-miterlimit:10;" d="   M203.6,456.8c6.5,5,12.8,7,15.7,4.4c3.9-3.5,0.2-13.8-8.2-23.1c-1.1-1.2-2.2-2.4-3.4-3.4"/>
	<path style="fill:none;stroke:#725AC1;stroke-width:3;stroke-linecap:round;stroke-linejoin:round;stroke-miterlimit:10;" d="   M195.5,427c-2.8-0.8-5.1-0.6-6.5,0.7c-3.3,3-1.1,11,4.9,19.1"/>
</g>
<path style="fill:none;stroke:#725AC1;stroke-width:3;stroke-linecap:round;stroke-linejoin:round;stroke-miterlimit:10;" d="  M328.5,489.8c0,0,18.1,5.9,33.1,0"/>
<path style="fill:none;stroke:#725AC1;stroke-width:5;stroke-linecap:round;stroke-linejoin:round;stroke-miterlimit:10;" d="  M291,301.7c0,0,8.3-10.5,47.7-5.3"/>
<path style="fill:none;stroke:#725AC1;stroke-width:5;stroke-linecap:round;stroke-linejoin:round;stroke-miterlimit:10;" d="  M269.3,316.5c0,0-18.2,19.7-18.2,46.2"/>
<path style="fill:none;stroke:#725AC1;stroke-width:5;stroke-linecap:round;stroke-linejoin:round;stroke-miterlimit:10;" d="  M294.3,249.8c0,0-2-7.6,14.4-14.7"/>
<path style="fill:none;stroke:#725AC1;stroke-width:5;stroke-linecap:round;stroke-linejoin:round;stroke-miterlimit:10;" d="  M231.7,313.9c0,0-25-1.4-39.9,15.1"/>
<path style="fill:none;stroke:#725AC1;stroke-width:5;stroke-linecap:round;stroke-linejoin:round;stroke-miterlimit:10;" d="  M209.8,284.3c0,0-10.3-3.9-18,4.9"/>
<path style="fill:none;stroke:#725AC1;stroke-width:5;stroke-linecap:round;stroke-linejoin:round;stroke-miterlimit:10;" d="  M303.7,264.9c0,0,17.7-7.1,31.3-5.2"/>
<g>
	<path style="fill:none;stroke:#725AC1;stroke-width:3;stroke-linecap:round;stroke-linejoin:round;stroke-miterlimit:10;" d="   M263.4,133.7c-8.6,5.1-13.5,11.5-11.8,16.2c2.3,6.2,15.7,6.9,29.8,1.6c1.9-0.7,3.7-1.5,5.4-2.3"/>
	<path style="fill:none;stroke:#725AC1;stroke-width:3;stroke-linecap:round;stroke-linejoin:round;stroke-miterlimit:10;" d="   M300.8,138.5c2.1-2.8,2.9-5.6,2-7.9c-2-5.3-12.1-6.6-23.9-3.4"/>
</g>
<polygon style="fill:#C3BAF4;stroke:#725AC1;stroke-width:5;stroke-linecap:round;stroke-linejoin:round;stroke-miterlimit:10;" points="  262.8,13.2 271.5,30.9 291.1,33.8 276.9,47.6 280.3,67 262.8,57.8 245.3,67 248.7,47.6 234.5,33.8 254.1,30.9 "/>
<polygon style="fill:#C3BAF4;stroke:#725AC1;stroke-width:5;stroke-linecap:round;stroke-linejoin:round;stroke-miterlimit:10;" points="  68.8,187.7 87,207.9 114,204.3 100.4,228 112.2,252.5 85.5,246.9 65.8,265.7 62.9,238.6 39,225.6 63.8,214.5 "/>
<g>
	<path style="fill:#725AC1;stroke:#10101C;stroke-width:5;stroke-linecap:round;stroke-linejoin:round;stroke-miterlimit:10;" d="   M109.3,138.6c-1-1-2-2.1-2.8-3.3L109.3,138.6z"/>
	<path style="fill:#725AC1;stroke:#10101C;stroke-width:5;stroke-linecap:round;stroke-linejoin:round;stroke-miterlimit:10;" d="   M183,83.2c0.8,1.2,1.5,2.5,2,3.8L183,83.2z"/>
	<path style="fill:#C3BAF4;stroke:#10101C;stroke-width:5;stroke-linecap:round;stroke-linejoin:round;stroke-miterlimit:10;" d="   M170.8,74.9c8.4,12.3,0.1,32.6-18.6,45.3c-18.7,12.7-40.6,13-49,0.7c-0.1-0.2-0.2-0.3-0.3-0.5c-2-3.1-2.9-6.7-3-10.6c0,0,0,0,0,0   c0-0.1,0-0.1,0-0.1c0-11.3,8.1-24.8,21.8-34.1c13.7-9.3,29.2-11.9,39.7-7.8c0,0,0,0,0.1,0c0,0,0,0,0,0c3.6,1.4,6.6,3.6,8.8,6.6   C170.6,74.6,170.7,74.7,170.8,74.9z"/>
	<path style="fill:#725AC1;stroke:#10101C;stroke-width:5;stroke-linecap:round;stroke-linejoin:round;stroke-miterlimit:10;" d="   M218.3,129c1.1,1.6,2,3.3,2.6,5.1c0.3,0.8,0.5,1.6,0.7,2.5l0,0c1.6,6.8,0.3,14.7-3.5,22.5c-4.4,9-12.1,17.9-22.4,24.9   c-9.9,6.7-20.5,10.6-30.2,11.6c-9.5,1-18.1-0.8-24.2-5.4c-0.3-0.2-0.7-0.5-1-0.8c-1.6-1.3-3-2.8-4.2-4.6   c-3.6-5.3-4.7-11.9-3.5-18.9l6.3,7.4c0.9,1.4,2,2.6,3.3,3.6l0,0c10,8.5,29.1,7,45.7-4.3c16.8-11.4,25.2-28.9,20.6-41.3   c-0.5-1.4-1.2-2.8-2.1-4l-4.6-8.6C208.9,120.3,214.6,123.7,218.3,129z"/>
	<path style="fill:#C3BAF4;stroke:#10101C;stroke-width:5;stroke-linecap:round;stroke-linejoin:round;stroke-miterlimit:10;" d="   M183,83.2l2,3.8l0,0.1l16.9,31.7l4.6,8.6c0.9,1.3,1.5,2.6,2.1,4c4.5,12.4-3.9,29.9-20.6,41.3c-16.6,11.3-35.7,12.8-45.7,4.3l0,0   c-1.3-1.1-2.4-2.3-3.3-3.6l-6.3-7.4l-23.4-27.4l0,0l-2.8-3.3c-0.2-0.3-0.4-0.5-0.5-0.8c-7.3-11.3-6.2-23.2-6-24.7   c0,3.8,1,7.5,3,10.6c0.1,0.2,0.2,0.3,0.3,0.5c8.4,12.3,30.3,12,49-0.7c18.7-12.7,27-33,18.6-45.3c-0.1-0.2-0.2-0.4-0.4-0.5   c-2.2-3-5.2-5.2-8.8-6.6c1.4,0.4,12.9,3.7,20.7,14.6C182.7,82.7,182.8,82.9,183,83.2z"/>
	<path style="fill:#725AC1;stroke:#10101C;stroke-width:5;stroke-linecap:round;stroke-linejoin:round;stroke-miterlimit:10;" d="   M100,109.8C100,109.8,100,109.8,100,109.8c0-0.1,0-0.1,0-0.1"/>
	<path style="fill:#725AC1;stroke:#10101C;stroke-width:5;stroke-linecap:round;stroke-linejoin:round;stroke-miterlimit:10;" d="   M161.6,67.8C161.6,67.8,161.6,67.8,161.6,67.8c0.1,0,0.1,0,0.1,0"/>
	<g>
		<path style="fill:#725AC1;stroke:#10101C;stroke-width:5;stroke-linecap:round;stroke-linejoin:round;stroke-miterlimit:10;" d="    M141.3,190.2l-1-0.2l0.1-0.5C140.7,189.7,141,190,141.3,190.2z"/>
		<path style="fill:#725AC1;stroke:#10101C;stroke-width:5;stroke-linecap:round;stroke-linejoin:round;stroke-miterlimit:10;" d="    M218.1,159.1l-1.7,11l-40.8,27.8l-10-2.2c9.7-1,20.3-4.9,30.2-11.6C206,177.1,213.7,168.2,218.1,159.1z"/>
		<path style="fill:#725AC1;stroke:#10101C;stroke-width:5;stroke-linecap:round;stroke-linejoin:round;stroke-miterlimit:10;" d="    M221.9,134.4l-0.3,2.2c-0.2-0.8-0.4-1.7-0.7-2.5L221.9,134.4z"/>
		<path style="fill:#725AC1;stroke:#10101C;stroke-width:5;stroke-linecap:round;stroke-linejoin:round;stroke-miterlimit:10;" d="    M221.9,134.4l81.8,130.5l-4.9,31.5l-24.9-38.2l-57.5-88.1l1.7-11c3.8-7.8,5.1-15.6,3.5-22.5l0,0L221.9,134.4z"/>
		<path style="fill:#725AC1;stroke:#10101C;stroke-width:5;stroke-linecap:round;stroke-linejoin:round;stroke-miterlimit:10;" d="    M262.8,320.9l-31.1-7L140.3,190l1,0.2c6.1,4.6,14.7,6.4,24.2,5.4l10,2.2l60.9,85.8L262.8,320.9z"/>
		
			<polygon style="fill:#725AC1;stroke:#10101C;stroke-width:5;stroke-linecap:round;stroke-linejoin:round;stroke-miterlimit:10;" points="    216.4,170.1 273.9,258.2 298.8,296.4 262.8,320.9 236.4,283.7 175.5,197.9   "/>
	</g>
</g>
</svg>