<?xml version="1.0" encoding="UTF-8"?>
<!-- Generator: Adobe Illustrator 24.1.2, SVG Export Plug-In . SVG Version: 6.00 Build 0)  -->
<svg version="1.1" id="Calque_1" xmlns="http://www.w3.org/2000/svg" xmlns:xlink="http://www.w3.org/1999/xlink" x="0px" y="0px" viewBox="0 0 636 545" style="enable-background:new 0 0 636 545;" xml:space="preserve">
<g>
	<path style="fill:#C3BAF4;stroke:#725AC1;stroke-width:5;stroke-linecap:round;stroke-linejoin:round;stroke-miterlimit:10;" d="   M495.6,338.1l-60.3-60.3c-4.9-4.9-4.9-12.9,0-17.9l2.6-2.6c4.9-4.9,12.9-4.9,17.9,0l60.3,60.3c4.9,4.9,4.9,12.9,0,17.9l-2.6,2.6   C508.6,343.1,500.6,343.1,495.6,338.1z"/>
	<path style="fill:#C3BAF4;stroke:#725AC1;stroke-width:5;stroke-linecap:round;stroke-linejoin:round;stroke-miterlimit:10;" d="   M498.4,323l60.3-60.3c4.9-4.9,12.9-4.9,17.9,0l2.6,2.6c4.9,4.9,4.9,12.9,0,17.9l-60.3,60.3c-4.9,4.9-12.9,4.9-17.9,0l-2.6-2.6   C493.4,335.9,493.4,327.9,498.4,323z"/>
	
		<circle style="fill:#C3BAF4;stroke:#10101C;stroke-width:5;stroke-linecap:round;stroke-linejoin:round;stroke-miterlimit:10;" cx="575.6" cy="266.2" r="23.9"/>
	<path style="fill:#C3BAF4;stroke:#725AC1;stroke-width:5;stroke-linecap:round;stroke-linejoin:round;stroke-miterlimit:10;" d="   M568.7,235.3c0,0,3.3-18.2,24.8-21.2l1.2,8.7c0,0-10,2.7-12.4,10.6L568.7,235.3z"/>
	<path style="fill:#C3BAF4;stroke:#725AC1;stroke-width:5;stroke-linecap:round;stroke-linejoin:round;stroke-miterlimit:10;" d="   M606.8,273.4c0,0,18.2-3.3,21.2-24.8l-8.7-1.2c0,0-2.7,10-10.6,12.4L606.8,273.4z"/>
	<path style="fill:#C3BAF4;stroke:#725AC1;stroke-width:3;stroke-linecap:round;stroke-linejoin:round;stroke-miterlimit:10;" d="   M498.2,327L460.1,289c-1.7-1.7-1.7-4.3,0-6l0.9-0.9c1.7-1.7,4.3-1.7,6,0l38.1,38.1c1.7,1.7,1.7,4.3,0,6l-0.9,0.9   C502.5,328.7,499.8,328.7,498.2,327z"/>
	
		<circle style="fill:#C3BAF4;stroke:#10101C;stroke-width:5;stroke-linecap:round;stroke-linejoin:round;stroke-miterlimit:10;" cx="509.9" cy="331.9" r="30.5"/>
	
		<circle style="fill:#C3BAF4;stroke:#725AC1;stroke-width:3;stroke-linecap:round;stroke-linejoin:round;stroke-miterlimit:10;" cx="509.9" cy="331.9" r="17.6"/>
</g>
<g>
	<path style="fill:#C3BAF4;stroke:#725AC1;stroke-width:5;stroke-linecap:round;stroke-linejoin:round;stroke-miterlimit:10;" d="   M139.4,338.1l60.3-60.3c4.9-4.9,4.9-12.9,0-17.9l-2.6-2.6c-4.9-4.9-12.9-4.9-17.9,0l-60.3,60.3c-4.9,4.9-4.9,12.9,0,17.9l2.6,2.6   C126.4,343.1,134.4,343.1,139.4,338.1z"/>
	<path style="fill:#C3BAF4;stroke:#725AC1;stroke-width:5;stroke-linecap:round;stroke-linejoin:round;stroke-miterlimit:10;" d="   M136.6,323l-60.3-60.3c-4.9-4.9-12.9-4.9-17.9,0l-2.6,2.6c-4.9,4.9-4.9,12.9,0,17.9l60.3,60.3c4.9,4.9,12.9,4.9,17.9,0l2.6-2.6   C141.5,335.9,141.5,327.9,136.6,323z"/>
	
		<circle style="fill:#C3BAF4;stroke:#10101C;stroke-width:5;stroke-linecap:round;stroke-linejoin:round;stroke-miterlimit:10;" cx="59.3" cy="266.2" r="23.9"/>
	<path style="fill:#C3BAF4;stroke:#725AC1;stroke-width:5;stroke-linecap:round;stroke-linejoin:round;stroke-miterlimit:10;" d="   M66.3,235.3c0,0-3.3-18.2-24.8-21.2l-1.2,8.7c0,0,10,2.7,12.4,10.6L66.3,235.3z"/>
	<path style="fill:#C3BAF4;stroke:#725AC1;stroke-width:5;stroke-linecap:round;stroke-linejoin:round;stroke-miterlimit:10;" d="   M28.2,273.4c0,0-18.2-3.3-21.2-24.8l8.7-1.2c0,0,2.7,10,10.6,12.4L28.2,273.4z"/>
	<path style="fill:#C3BAF4;stroke:#725AC1;stroke-width:3;stroke-linecap:round;stroke-linejoin:round;stroke-miterlimit:10;" d="   M136.8,327l38.1-38.1c1.7-1.7,1.7-4.3,0-6l-0.9-0.9c-1.7-1.7-4.3-1.7-6,0L130,320.2c-1.7,1.7-1.7,4.3,0,6l0.9,0.9   C132.5,328.7,135.2,328.7,136.8,327z"/>
	
		<circle style="fill:#C3BAF4;stroke:#10101C;stroke-width:5;stroke-linecap:round;stroke-linejoin:round;stroke-miterlimit:10;" cx="125" cy="331.9" r="30.5"/>
	
		<circle style="fill:#C3BAF4;stroke:#725AC1;stroke-width:3;stroke-linecap:round;stroke-linejoin:round;stroke-miterlimit:10;" cx="125" cy="331.9" r="17.6"/>
</g>
<g>
	<path style="fill:#C3BAF4;stroke:#725AC1;stroke-width:5;stroke-linecap:round;stroke-linejoin:round;stroke-miterlimit:10;" d="   M408.1,498.2H191.2c-10.7,0-19.4-8.7-19.4-19.4V67.2c0-10.7,8.7-19.4,19.4-19.4h254.4c10.7,0,19.4,8.7,19.4,19.4v374.2   C465,472.7,439.5,498.2,408.1,498.2z"/>
	<path style="fill:#725AC1;stroke:#10101C;stroke-width:5;stroke-linecap:round;stroke-linejoin:round;stroke-miterlimit:10;" d="   M388.4,265.4H218.3c-5,0-9.1-4.1-9.1-9.1V112.9c0-5,4.1-9.1,9.1-9.1h200.4c5,0,9.1,4.1,9.1,9.1v113.3   C427.7,247.8,410.1,265.4,388.4,265.4z"/>
	<path style="fill:#FFFFFF;stroke:#10101C;stroke-width:5;stroke-linecap:round;stroke-linejoin:round;stroke-miterlimit:10;" d="   M368.7,240.2H268.2c-8.3,0-15.1-6.7-15.1-15.1v-75.7c0-8.3,6.7-15.1,15.1-15.1h100.5c8.3,0,15.1,6.7,15.1,15.1v75.7   C383.8,233.4,377,240.2,368.7,240.2z"/>
	
		<circle style="fill:#C3BAF4;stroke:#10101C;stroke-width:5;stroke-linecap:round;stroke-linejoin:round;stroke-miterlimit:10;" cx="250.9" cy="333.2" r="41.7"/>
	<g>
		<path style="fill:#C3BAF4;stroke:#10101C;stroke-width:5;stroke-linecap:round;stroke-linejoin:round;stroke-miterlimit:10;" d="    M419.4,338.4l-50.1,34.9c-8.1,5.7-19.3,3.7-25-4.5l-5.3-7.6c-5.7-8.1-3.7-19.3,4.5-25l50.1-34.9c8.1-5.7,19.3-3.7,25,4.5l5.3,7.6    C429.6,321.5,427.6,332.7,419.4,338.4z"/>
		
			<circle style="fill:#C3BAF4;stroke:#725AC1;stroke-width:3;stroke-linecap:round;stroke-linejoin:round;stroke-miterlimit:10;" cx="361.6" cy="351.2" r="14.8"/>
		
			<circle style="fill:#C3BAF4;stroke:#725AC1;stroke-width:3;stroke-linecap:round;stroke-linejoin:round;stroke-miterlimit:10;" cx="401.1" cy="323.6" r="14.8"/>
	</g>
	<g>
		<path style="fill:#C3BAF4;stroke:#725AC1;stroke-width:3;stroke-linecap:round;stroke-linejoin:round;stroke-miterlimit:10;" d="    M305.9,425.8l-15.6,10.9c-2.5,1.8-6,1.1-7.8-1.4l-1.6-2.4c-1.8-2.5-1.1-6,1.4-7.8l15.6-10.9c2.5-1.8,6-1.1,7.8,1.4l1.6,2.4    C309,420.5,308.4,424,305.9,425.8z"/>
	</g>
	<g>
		<path style="fill:#C3BAF4;stroke:#725AC1;stroke-width:3;stroke-linecap:round;stroke-linejoin:round;stroke-miterlimit:10;" d="    M354.6,425.8L339,436.6c-2.5,1.8-6,1.1-7.8-1.4l-1.6-2.4c-1.8-2.5-1.1-6,1.4-7.8l15.6-10.9c2.5-1.8,6-1.1,7.8,1.4l1.6,2.4    C357.8,420.5,357.2,424,354.6,425.8z"/>
	</g>
	<g>
		<path style="fill:#C3BAF4;stroke:#10101C;stroke-width:3;stroke-linecap:round;stroke-linejoin:round;stroke-miterlimit:10;" d="    M419.5,471.8l-21-30.8c-1.3-1.9-0.8-4.6,1.1-5.9l1.8-1.2c1.9-1.3,4.6-0.8,5.9,1.1l21,30.8c1.3,1.9,0.8,4.6-1.1,5.9l-1.8,1.2    C423.4,474.2,420.8,473.7,419.5,471.8z"/>
	</g>
	<g>
		<path style="fill:#C3BAF4;stroke:#10101C;stroke-width:3;stroke-linecap:round;stroke-linejoin:round;stroke-miterlimit:10;" d="    M434.4,461.6l-21-30.8c-1.3-1.9-0.8-4.6,1.1-5.9l1.8-1.2c1.9-1.3,4.6-0.8,5.9,1.1l21,30.8c1.3,1.9,0.8,4.6-1.1,5.9l-1.8,1.2    C438.4,464,435.8,463.5,434.4,461.6z"/>
	</g>
	<g>
		<path style="fill:#C3BAF4;stroke:#10101C;stroke-width:3;stroke-linecap:round;stroke-linejoin:round;stroke-miterlimit:10;" d="    M404.5,482l-21-30.8c-1.3-1.9-0.8-4.6,1.1-5.9l1.8-1.2c1.9-1.3,4.6-0.8,5.9,1.1l21,30.8c1.3,1.9,0.8,4.6-1.1,5.9l-1.8,1.2    C408.5,484.5,405.9,484,404.5,482z"/>
	</g>
	
		<polygon style="fill:#C3BAF4;stroke:#725AC1;stroke-width:3;stroke-linecap:round;stroke-linejoin:round;stroke-miterlimit:10;" points="   277.3,323.4 260.7,323.4 260.7,306.9 241.2,306.9 241.2,323.4 224.6,323.4 224.6,342.9 241.2,342.9 241.2,359.5 260.7,359.5    260.7,342.9 277.3,342.9  "/>
	<path style="fill:#C3BAF4;stroke:#725AC1;stroke-width:3;stroke-linecap:round;stroke-linejoin:round;stroke-miterlimit:10;" d="   M338.9,472H298c-2.9,0-5.3,2.4-5.3,5.3v2.7c0,2.9,2.4,5.3,5.3,5.3h40.9c2.9,0,5.3-2.4,5.3-5.3v-2.7   C344.2,474.4,341.9,472,338.9,472z"/>
	<path style="fill:#C3BAF4;stroke:#725AC1;stroke-width:3;stroke-linecap:round;stroke-linejoin:round;stroke-miterlimit:10;" d="   M256.5,61.2h-19.3c-2.2,0-4,1.8-4,4v2c0,2.2,1.8,4,4,4h19.3c2.2,0,4-1.8,4-4v-2C260.5,63,258.7,61.2,256.5,61.2z"/>
	
		<line style="fill:#C3BAF4;stroke:#10101C;stroke-width:3;stroke-linecap:round;stroke-linejoin:round;stroke-miterlimit:10;" x1="171.9" y1="83.3" x2="465" y2="83.3"/>
	
		<line style="fill:#C3BAF4;stroke:#10101C;stroke-width:3;stroke-linecap:round;stroke-linejoin:round;stroke-miterlimit:10;" x1="223.4" y1="83.3" x2="223.4" y2="47.8"/>
	
		<line style="fill:#C3BAF4;stroke:#10101C;stroke-width:3;stroke-linecap:round;stroke-linejoin:round;stroke-miterlimit:10;" x1="413.5" y1="83.3" x2="413.5" y2="47.8"/>
	
		<circle style="fill:#C3BAF4;stroke:#10101C;stroke-width:3;stroke-linecap:round;stroke-linejoin:round;stroke-miterlimit:10;" cx="230.6" cy="170.8" r="7.2"/>
	
		<line style="fill:#C3BAF4;stroke:#10101C;stroke-width:3;stroke-linecap:round;stroke-linejoin:round;stroke-miterlimit:10;" x1="218.6" y1="186" x2="242.8" y2="186"/>
</g>
<g>
	
		<line style="fill:none;stroke:#000000;stroke-width:3;stroke-linecap:round;stroke-linejoin:round;stroke-miterlimit:10;" x1="281.3" y1="168.6" x2="310.8" y2="168.6"/>
	<path d="M297.4,186h-2.7c-2.9,0-5.3-2.4-5.3-5.3v-12.1h13.4v12.1C302.7,183.6,300.4,186,297.4,186z"/>
</g>
<g>
	
		<polyline style="fill:none;stroke:#000000;stroke-width:3;stroke-linecap:round;stroke-linejoin:round;stroke-miterlimit:10;" points="   350.5,168.6 321,168.6 332.7,162.7  "/>
	<path d="M337.1,186h-2.7c-2.9,0-5.3-2.4-5.3-5.3v-12.1h13.4v12.1C342.5,183.6,340.1,186,337.1,186z"/>
</g>
<path style="fill:none;stroke:#000000;stroke-width:3;stroke-linecap:round;stroke-linejoin:round;stroke-miterlimit:10;" d="  M346.6,205.8c-22.5-15-38.1,7.9-38.1,7.9"/>
<path style="fill:none;stroke:#000000;stroke-width:3;stroke-linecap:round;stroke-linejoin:round;stroke-miterlimit:10;" d="  M318.7,213.7c0,0,7.8-5,14-2.3"/>
<line style="fill:#C3BAF4;stroke:#725AC1;stroke-width:5;stroke-linecap:round;stroke-linejoin:round;stroke-miterlimit:10;" x1="28.2" y1="130.8" x2="152.4" y2="130.8"/>
<line style="fill:#C3BAF4;stroke:#725AC1;stroke-width:5;stroke-linecap:round;stroke-linejoin:round;stroke-miterlimit:10;" x1="476.7" y1="155.4" x2="600.9" y2="155.4"/>
<line style="fill:#C3BAF4;stroke:#725AC1;stroke-width:5;stroke-linecap:round;stroke-linejoin:round;stroke-miterlimit:10;" x1="152.4" y1="102.6" x2="83.3" y2="102.6"/>
<line style="fill:#C3BAF4;stroke:#725AC1;stroke-width:5;stroke-linecap:round;stroke-linejoin:round;stroke-miterlimit:10;" x1="159.2" y1="214.6" x2="117.8" y2="214.6"/>
<line style="fill:#C3BAF4;stroke:#725AC1;stroke-width:5;stroke-linecap:round;stroke-linejoin:round;stroke-miterlimit:10;" x1="475.7" y1="179.8" x2="538.8" y2="179.8"/>
<line style="fill:#C3BAF4;stroke:#725AC1;stroke-width:5;stroke-linecap:round;stroke-linejoin:round;stroke-miterlimit:10;" x1="482.3" y1="409.9" x2="545.4" y2="409.9"/>
<line style="fill:#C3BAF4;stroke:#725AC1;stroke-width:5;stroke-linecap:round;stroke-linejoin:round;stroke-miterlimit:10;" x1="509.9" y1="428.3" x2="581.7" y2="428.3"/>
<line style="fill:#C3BAF4;stroke:#725AC1;stroke-width:5;stroke-linecap:round;stroke-linejoin:round;stroke-miterlimit:10;" x1="147.3" y1="392" x2="66.3" y2="392"/>
<line style="fill:#C3BAF4;stroke:#725AC1;stroke-width:5;stroke-linecap:round;stroke-linejoin:round;stroke-miterlimit:10;" x1="66.3" y1="357.8" x2="35.4" y2="357.8"/>
<line style="fill:#C3BAF4;stroke:#725AC1;stroke-width:5;stroke-linecap:round;stroke-linejoin:round;stroke-miterlimit:10;" x1="125" y1="427.3" x2="96.2" y2="427.3"/>
<line style="fill:#C3BAF4;stroke:#725AC1;stroke-width:5;stroke-linecap:round;stroke-linejoin:round;stroke-miterlimit:10;" x1="507.2" y1="118.6" x2="540.4" y2="118.6"/>
</svg>