<?xml version="1.0" standalone="no"?>
<!DOCTYPE svg PUBLIC "-//W3C//DTD SVG 1.1//EN" "http://www.w3.org/Graphics/SVG/1.1/DTD/svg11.dtd" >
<svg>
<metadata>
Created by FontForge 20090622 at Sat Feb  1 17:18:23 2020
 By deploy user
Copyright 2017 The Inria Serif Project Authors (https://github.com/BlackFoundryCom/InriaFonts)
</metadata>
<defs>
<font id="InriaSerif-Bold" horiz-adv-x="588" >
  <font-face 
    font-family="Inria Serif"
    font-weight="700"
    font-stretch="normal"
    units-per-em="1000"
    panose-1="0 0 0 0 0 0 0 0 0 0"
    ascent="800"
    descent="-200"
    x-height="507"
    cap-height="680"
    bbox="-176 -248 1283 976"
    underline-thickness="65"
    underline-position="-53"
    unicode-range="U+000D-U+FB04"
  />
<missing-glyph horiz-adv-x="656" 
d="M99 0v680h458v-680h-458zM219 35h218v610h-218v-610z" />
    <glyph glyph-name="ff" unicode="ff" horiz-adv-x="686" 
d="M635 28v-28h-289v28l55 7q16 2 19 8.5t3 40.5v388h-208v-388q0 -34 3 -40.5t19 -8.5l55 -7v-28h-269v28l55 7q16 2 19 8.5t3 40.5v339q0 34 -3 40.5t-19 8.5l-55 7v28h77v24q0 53 21.5 101t70.5 78t130 30q45 0 80 -13.5t59 -36.5q21 27 55.5 43.5t85.5 16.5
q61 0 100.5 -21t57 -56t10.5 -76l-110 -16q10 75 -5.5 104.5t-52.5 29.5q-20 0 -34.5 -11t-22 -39.5t-7.5 -83.5v-74h150v-35h-150v-388q0 -34 3 -40.5t19 -8.5zM215 551v-44h208v44q0 90 -25 122t-76 32q-31 0 -55 -12.5t-38 -45.5t-14 -96z" />
    <glyph glyph-name="ffi" unicode="ffi" horiz-adv-x="954" 
d="M615 28v-28h-269v28l55 7q16 2 19 8.5t3 40.5v388h-208v-388q0 -34 3 -40.5t19 -8.5l55 -7v-28h-269v28l55 7q16 2 19 8.5t3 40.5v339q0 34 -3 40.5t-19 8.5l-55 7v28h77v24q0 53 21.5 101t70.5 78t130 30q49 0 86 -16t61 -42q26 31 69 49.5t107 18.5q70 0 118 -21.5
t71 -56t16 -75.5l-110 -16q11 71 -15.5 102.5t-79.5 31.5q-32 0 -56.5 -13.5t-37.5 -47t-13 -93.5v-54h323v-423q0 -34 3 -40.5t19 -8.5l55 -7v-28h-269v28l55 7q16 2 19 8.5t3 40.5v388h-208v-388q0 -34 3 -40.5t19 -8.5zM215 507h208v44q0 90 -25 122t-76 32
q-31 0 -55 -12.5t-38 -45.5t-14 -96v-44z" />
    <glyph glyph-name="ffl" unicode="ffl" horiz-adv-x="954" 
d="M615 28v-28h-269v28l55 7q16 2 19 8.5t3 40.5v388h-208v-388q0 -34 3 -40.5t19 -8.5l55 -7v-28h-269v28l55 7q16 2 19 8.5t3 40.5v339q0 34 -3 40.5t-19 8.5l-55 7v28h77v24q0 53 21.5 101t70.5 78t130 30q50 0 86.5 -16t61.5 -42q26 31 69 49.5t106 18.5q42 0 76 -10.5
t59 -29.5q30 14 54 30h27v-656q0 -34 3 -40.5t19 -8.5l55 -7v-28h-269v28l55 7q16 2 19 8.5t3 40.5v506q0 73 -27 99t-74 26q-31 0 -55 -12.5t-38 -45.5t-14 -96v-54h129v-35h-129v-388q0 -34 3 -40.5t19 -8.5zM215 507h208v44q0 90 -25 122t-76 32q-31 0 -55 -12.5
t-38 -45.5t-14 -96v-44z" />
    <glyph glyph-name="fi" unicode="fi" horiz-adv-x="631" 
d="M615 28v-28h-269v28l55 7q16 2 19 8.5t3 40.5v388h-208v-388q0 -34 3 -40.5t19 -8.5l55 -7v-28h-269v28l55 7q16 2 19 8.5t3 40.5v339q0 34 -3 40.5t-19 8.5l-55 7v28h77v34q0 53 21 101t69.5 78t131.5 30q70 0 118 -21.5t71 -56t16 -75.5l-110 -16q11 71 -15.5 102.5
t-79.5 31.5q-32 0 -56.5 -13.5t-37.5 -47t-13 -93.5v-54h323v-423q0 -34 3 -40.5t19 -8.5z" />
    <glyph glyph-name="fl" unicode="fl" horiz-adv-x="631" 
d="M615 28v-28h-269v28l55 7q16 2 19 8.5t3 40.5v506q0 73 -27 99t-74 26q-31 0 -55 -12.5t-38 -45.5t-14 -96v-54h150v-35h-150v-388q0 -34 3 -40.5t19 -8.5l55 -7v-28h-269v28l55 7q16 2 19 8.5t3 40.5v339q0 34 -3 40.5t-19 8.5l-55 7v28h77v34q0 53 21.5 101t70.5 78
t130 30q42 0 76 -10.5t59 -29.5q30 14 54 30h27v-656q0 -34 3 -40.5t19 -8.5z" />
    <glyph glyph-name="ft" unicode="ft" horiz-adv-x="724" 
d="M312 28v-28h-289v28l55 7q16 2 19 8.5t3 40.5v339q0 34 -3 40.5t-19 8.5l-55 7v28h77v34q0 53 20.5 101t65.5 78t118 30q77 0 116 -34t50 -87l18 10.5l17 10.5h27v-143h160v-35h-160v-333q0 -64 16 -88.5t41 -24.5q26 0 40.5 20t18.5 73l60 -15q-13 -61 -49.5 -87.5
t-88.5 -26.5q-53 0 -87 23.5t-50 62.5t-16 83v313h-202v-388q0 -34 3 -40.5t19 -8.5zM215 561v-54h202v54q0 88 -24.5 120t-73.5 32q-30 0 -53.5 -12.5t-37 -45t-13.5 -94.5z" />
    <glyph glyph-name="fft" unicode="fft" horiz-adv-x="1047" 
d="M292 28v-28h-269v28l55 7q16 2 19 8.5t3 40.5v339q0 34 -3 40.5t-19 8.5l-55 7v28h77v24q0 53 21.5 101t70.5 78t130 30q49 0 85.5 -15.5t60.5 -41.5q25 30 64.5 48.5t94.5 18.5q76 0 114.5 -33t50.5 -83q20 9 36 21h27v-148h160v-35h-160v-333q0 -64 16 -88.5t41 -24.5
q26 0 40.5 20t18.5 73l60 -15q-13 -61 -49.5 -87.5t-88.5 -26.5q-53 0 -87 23.5t-50 62.5t-16 83v313h-202v-388q0 -34 3 -40.5t19 -8.5l75 -7v-28h-289v28l55 7q16 2 19 8.5t3 40.5v388h-208v-388q0 -34 3 -40.5t19 -8.5zM538 561v-54h202v54q0 88 -24.5 120t-73.5 32
q-30 0 -53.5 -12.5t-37 -45t-13.5 -94.5zM215 507h208v44q0 90 -25 122t-76 32q-31 0 -55 -12.5t-38 -45.5t-14 -96v-44z" />
    <glyph glyph-name="fb" unicode="fb" horiz-adv-x="915" 
d="M312 28v-28h-289v28l55 7q16 2 19 8.5t3 40.5v339q0 34 -3 40.5t-19 8.5l-55 7v28h77v34q0 53 21.5 101t70.5 78t130 30q42 0 76 -10.5t59 -29.5q30 14 54 30h27v-307q27 42 60.5 63t77.5 21q84 0 133.5 -66.5t49.5 -186.5v-20q0 -116 -57 -185t-158 -69q-77 0 -126 46
q-18 -7 -34.5 -17.5t-33.5 -23.5h-27v595q0 73 -27 99t-74 26q-31 0 -55 -12.5t-38 -45.5t-14 -96v-54h150v-35h-150v-388q0 -34 3 -40.5t19 -8.5zM650 473q-25 0 -52.5 -20.5t-59.5 -83.5v-302q38 -38 93 -38q56 0 80.5 49.5t24.5 135.5v80q0 93 -23 136t-63 43z" />
    <glyph glyph-name="ffb" unicode="ffb" horiz-adv-x="1237" 
d="M292 28v-28h-269v28l55 7q16 2 19 8.5t3 40.5v339q0 34 -3 40.5t-19 8.5l-55 7v28h77v24q0 53 21.5 101t70.5 78t130 30q49 0 86 -16t61 -42q26 31 69 49.5t106 18.5q42 0 76 -10.5t59 -29.5q30 14 54 30h27v-307q27 42 60.5 63t77.5 21q84 0 133.5 -66.5t49.5 -186.5
v-20q0 -116 -57 -185t-158 -69q-77 0 -126 46q-18 -7 -34.5 -17.5t-33.5 -23.5h-27v595q0 73 -27 99t-74 26q-31 0 -55 -12.5t-38 -45.5t-14 -96v-54h150v-35h-150v-388q0 -34 3 -40.5t19 -8.5l75 -7v-28h-289v28l55 7q16 2 19 8.5t3 40.5v388h-207v-388q0 -34 3 -40.5
t19 -8.5zM215 551v-44h207v55q0 83 -25 113t-75 30q-31 0 -55 -12.5t-38 -45.5t-14 -96zM972 473q-25 0 -52.5 -20.5t-59.5 -83.5v-302q38 -38 93 -38q56 0 80.5 49.5t24.5 135.5v80q0 93 -23 136t-63 43z" />
    <glyph glyph-name="fff" unicode="fff" horiz-adv-x="1009" 
d="M615 28v-28h-269v28l55 7q16 2 19 8.5t3 40.5v388h-208v-388q0 -34 3 -40.5t19 -8.5l55 -7v-28h-269v28l55 7q16 2 19 8.5t3 40.5v339q0 34 -3 40.5t-19 8.5l-55 7v28h77v24q0 53 21.5 101t70.5 78t130 30q52 0 90 -17.5t62 -46.5q26 29 68 46.5t103 17.5q45 0 80 -13.5
t59 -36.5q21 27 55.5 43.5t85.5 16.5q61 0 100.5 -21t57 -56t10.5 -76l-110 -16q10 75 -5.5 104.5t-52.5 29.5q-20 0 -34.5 -11t-22 -39.5t-7.5 -83.5v-74h150v-35h-150v-388q0 -34 3 -40.5t19 -8.5l75 -7v-28h-289v28l55 7q16 2 19 8.5t3 40.5v388h-208v-388q0 -34 3 -40.5
t19 -8.5zM215 551v-44h208v44q0 90 -25 122t-76 32q-31 0 -55 -12.5t-38 -45.5t-14 -96zM538 551v-44h208v44q0 90 -25 122t-76 32q-31 0 -55 -12.5t-38 -45.5t-14 -96z" />
    <glyph glyph-name="fh" unicode="fh" horiz-adv-x="946" 
d="M615 28v-28h-269v28l55 7q16 2 19 8.5t3 40.5v477q0 90 -25 122t-76 32q-31 0 -55 -12.5t-38 -45.5t-14 -96v-54h150v-35h-150v-388q0 -34 3 -40.5t19 -8.5l55 -7v-28h-269v28l55 7q16 2 19 8.5t3 40.5v339q0 34 -3 40.5t-19 8.5l-55 7v28h77v34q0 53 21.5 101t70.5 78
t130 30q42 0 75.5 -10.5t58.5 -29.5q15 7 29 14.5t26 15.5h27v-311q29 46 72.5 67t87.5 21q74 0 117 -47t43 -133v-253q0 -34 3 -40.5t19 -8.5l55 -7v-28h-269v28l55 7q16 2 19 8.5t3 40.5v252q0 69 -20.5 100.5t-60.5 31.5q-17 0 -39.5 -8.5t-45 -30.5t-39.5 -65v-280
q0 -34 3 -40.5t19 -8.5z" />
    <glyph glyph-name="ffh" unicode="ffh" horiz-adv-x="1269" 
d="M615 28v-28h-269v28l55 7q16 2 19 8.5t3 40.5v388h-208v-388q0 -34 3 -40.5t19 -8.5l55 -7v-28h-269v28l55 7q16 2 19 8.5t3 40.5v339q0 34 -3 40.5t-19 8.5l-55 7v28h77v24q0 53 21.5 101t70.5 78t130 30q50 0 86.5 -16t61.5 -42q26 31 69 49.5t106 18.5
q42 0 75.5 -10.5t58.5 -29.5q15 7 29 14.5t26 15.5h27v-311q29 46 72.5 67t87.5 21q74 0 117 -47t43 -133v-253q0 -34 3 -40.5t19 -8.5l55 -7v-28h-269v28l55 7q16 2 19 8.5t3 40.5v252q0 69 -20.5 100.5t-60.5 31.5q-17 0 -39.5 -8.5t-45 -30.5t-39.5 -65v-280
q0 -34 3 -40.5t19 -8.5l55 -7v-28h-269v28l55 7q16 2 19 8.5t3 40.5v477q0 90 -25 122t-76 32q-31 0 -55 -12.5t-38 -45.5t-14 -96v-54h150v-35h-150v-388q0 -34 3 -40.5t19 -8.5zM215 507h208v44q0 90 -25 122t-76 32q-31 0 -55 -12.5t-38 -45.5t-14 -96v-44z" />
    <glyph glyph-name="fj" unicode="fj" horiz-adv-x="616" 
d="M215 561v-54h316v-541q0 -50 -17 -93t-55 -69.5t-101 -26.5q-55 0 -94 28t-48 95l62 19q5 -64 24 -85.5t44 -21.5q33 0 51.5 29t18.5 105v526h-201v-388q0 -34 3 -40.5t19 -8.5l75 -7v-28h-289v28l55 7q16 2 19 8.5t3 40.5v339q0 34 -3 40.5t-19 8.5l-55 7v28h77v34
q0 53 20.5 101t68.5 78t129 30q69 0 116.5 -21.5t70 -56t15.5 -75.5l-110 -16q11 71 -14.5 102.5t-77.5 31.5q-31 0 -54.5 -13.5t-36 -47t-12.5 -93.5z" />
    <glyph glyph-name="ffj" unicode="ffj" horiz-adv-x="939" 
d="M538 561v-54h316v-541q0 -50 -17 -93t-55 -69.5t-101 -26.5q-55 0 -94 28t-48 95l62 19q5 -64 24 -85.5t44 -21.5q33 0 51.5 29t18.5 105v526h-201v-388q0 -34 3 -40.5t19 -8.5l75 -7v-28h-289v28l55 7q16 2 19 8.5t3 40.5v388h-208v-388q0 -34 3 -40.5t19 -8.5l55 -7
v-28h-269v28l55 7q16 2 19 8.5t3 40.5v339q0 34 -3 40.5t-19 8.5l-55 7v28h77v24q0 53 21.5 101t70.5 78t130 30q49 0 86 -15.5t61 -41.5q26 30 68 48.5t104 18.5q69 0 116.5 -21.5t70 -56t15.5 -75.5l-110 -16q11 71 -14.5 102.5t-77.5 31.5q-31 0 -54.5 -13.5t-36 -47
t-12.5 -93.5zM215 507h208v44q0 90 -25 122t-76 32q-31 0 -55 -12.5t-38 -45.5t-14 -96v-44z" />
    <glyph glyph-name="fk" unicode="fk" horiz-adv-x="918" 
d="M615 28v-28h-269v28l55 7q16 2 19 8.5t3 40.5v506q0 73 -27 99t-74 26q-31 0 -55 -12.5t-38 -45.5t-14 -96v-54h150v-35h-150v-388q0 -34 3 -40.5t19 -8.5l55 -7v-28h-269v28l55 7q16 2 19 8.5t3 40.5v339q0 34 -3 40.5t-19 8.5l-55 7v28h77v34q0 53 21.5 101t70.5 78
t130 30q42 0 76 -10.5t59 -29.5q30 14 54 30h27v-485l176 168q35 33 37.5 40t-14.5 9l-55 7v28h205v-28l-55 -7q-9 -1 -15 -4t-17 -12.5t-35 -32.5l-96 -92l142 -247q14 -23 21 -32.5t13.5 -12t16.5 -4.5l55 -7v-28h-191l-139 253l-49 -47v-122q0 -34 3 -40.5t19 -8.5z" />
    <glyph glyph-name="ffk" unicode="ffk" horiz-adv-x="1241" 
d="M615 28v-28h-269v28l55 7q16 2 19 8.5t3 40.5v388h-208v-388q0 -34 3 -40.5t19 -8.5l55 -7v-28h-269v28l55 7q16 2 19 8.5t3 40.5v339q0 34 -3 40.5t-19 8.5l-55 7v28h77v24q0 53 21.5 101t70.5 78t130 30q50 0 86.5 -16t61.5 -42q26 31 69 49.5t106 18.5q42 0 76 -10.5
t59 -29.5q30 14 54 30h27v-485l176 168q35 33 37.5 40t-14.5 9l-55 7v28h205v-28l-55 -7q-9 -1 -15 -4t-17 -12.5t-35 -32.5l-96 -92l142 -247q14 -23 21 -32.5t13.5 -12t16.5 -4.5l55 -7v-28h-191l-139 253l-49 -47v-122q0 -34 3 -40.5t19 -8.5l55 -7v-28h-269v28l55 7
q16 2 19 8.5t3 40.5v506q0 73 -27 99t-74 26q-31 0 -55 -12.5t-38 -45.5t-14 -96v-54h150v-35h-150v-388q0 -34 3 -40.5t19 -8.5zM215 507h208v44q0 90 -25 122t-76 32q-31 0 -55 -12.5t-38 -45.5t-14 -96v-44z" />
    <glyph glyph-name=".notdef" horiz-adv-x="656" 
d="M99 0v680h458v-680h-458zM219 35h218v610h-218v-610z" />
    <glyph glyph-name="A" unicode="A" horiz-adv-x="639" 
d="M187 28v-28h-193v28l55 7q11 2 16 4.5t9 12.5t11 32l191 596h86l192 -596q7 -22 11 -32t9.5 -12.5t15.5 -4.5l55 -7v-28h-276v28l55 7q16 2 17.5 8.5t-9.5 40.5l-38 124h-231l-39 -124q-10 -34 -9 -40.5t17 -8.5zM175 243h208l-103 332z" />
    <glyph glyph-name="Aacute" unicode="&#xc1;" horiz-adv-x="639" 
d="M187 28v-28h-193v28l55 7q11 2 16 4.5t9 12.5t11 32l191 596h86l192 -596q7 -22 11 -32t9.5 -12.5t15.5 -4.5l55 -7v-28h-276v28l55 7q16 2 17.5 8.5t-9.5 40.5l-38 124h-231l-39 -124q-10 -34 -9 -40.5t17 -8.5zM175 243h208l-103 332zM319 752l-24 21q20 32 36 63.5
t26 76.5h126q-34 -46 -71 -83t-93 -78z" />
    <glyph glyph-name="Abreve" unicode="&#x102;" horiz-adv-x="639" 
d="M187 28v-28h-193v28l55 7q11 2 16 4.5t9 12.5t11 32l191 596h86l192 -596q7 -22 11 -32t9.5 -12.5t15.5 -4.5l55 -7v-28h-276v28l55 7q16 2 17.5 8.5t-9.5 40.5l-38 124h-231l-39 -124q-10 -34 -9 -40.5t17 -8.5zM175 243h208l-103 332zM320 834q47 0 75 19.5t38 64.5
l33 -10q-14 -74 -50 -115t-96 -41t-96 41t-50 115l33 10q11 -45 39 -64.5t74 -19.5z" />
    <glyph glyph-name="Acircumflex" unicode="&#xc2;" horiz-adv-x="639" 
d="M187 28v-28h-193v28l55 7q11 2 16 4.5t9 12.5t11 32l191 596h86l192 -596q7 -22 11 -32t9.5 -12.5t15.5 -4.5l55 -7v-28h-276v28l55 7q16 2 17.5 8.5t-9.5 40.5l-38 124h-231l-39 -124q-10 -34 -9 -40.5t17 -8.5zM175 243h208l-103 332zM457 774l-14 -22q-36 21 -69 44
t-58 45q-51 -46 -119 -89l-14 22q24 28 39 47.5t27 40t27 51.5h88l27.5 -51.5t26.5 -40t39 -47.5z" />
    <glyph glyph-name="Adieresis" unicode="&#xc4;" horiz-adv-x="639" 
d="M188 28v-28h-193v28l55 7q11 2 16 4.5t9 12.5t11 32l191 596h86l192 -596q7 -22 11 -32t9.5 -12.5t15.5 -4.5l55 -7v-28h-276v28l55 7q16 2 17.5 8.5t-9.5 40.5l-38 124h-231l-39 -124q-10 -34 -9 -40.5t17 -8.5zM176 243h208l-103 332zM209 773q-28 0 -45 17.5t-17 45.5
t17 45t45 17q27 0 45 -17t18 -45t-18 -45.5t-45 -17.5zM419 773q-28 0 -45 17.5t-17 45.5t17 45t45 17q27 0 45 -17t18 -45t-18 -45.5t-45 -17.5z" />
    <glyph glyph-name="Agrave" unicode="&#xc0;" horiz-adv-x="639" 
d="M187 28v-28h-193v28l55 7q11 2 16 4.5t9 12.5t11 32l191 596h86l192 -596q7 -22 11 -32t9.5 -12.5t15.5 -4.5l55 -7v-28h-276v28l55 7q16 2 17.5 8.5t-9.5 40.5l-38 124h-231l-39 -124q-10 -34 -9 -40.5t17 -8.5zM175 243h208l-103 332zM321 752q-55 41 -92.5 78
t-71.5 83h126q11 -45 26.5 -76.5t35.5 -63.5z" />
    <glyph glyph-name="Amacron" unicode="&#x100;" horiz-adv-x="639" 
d="M187 28v-28h-193v28l55 7q11 2 16 4.5t9 12.5t11 32l191 596h86l192 -596q7 -22 11 -32t9.5 -12.5t15.5 -4.5l55 -7v-28h-276v28l55 7q16 2 17.5 8.5t-9.5 40.5l-38 124h-231l-39 -124q-10 -34 -9 -40.5t17 -8.5zM175 243h208l-103 332zM463 847v-55h-287v55h287z" />
    <glyph glyph-name="Aogonek" unicode="&#x104;" horiz-adv-x="639" 
d="M605 -125q-15 -54 -50.5 -76t-78.5 -22q-50 0 -84 25t-34 68q0 41 29.5 74t70.5 54l-64 210h-231l-39 -124q-10 -34 -9 -40.5t17 -8.5l55 -7v-28h-193v28l55 7q11 2 16 4.5t9 12.5t11 32l191 596h86l192 -596q7 -22 11 -32t9.5 -12.5t15.5 -4.5l55 -7v-28h-63
q-68 0 -104.5 -38t-36.5 -91q0 -28 10.5 -44t32.5 -16q20 0 35.5 16.5t21.5 60.5zM175 243h208l-103 332z" />
    <glyph glyph-name="Aring" unicode="&#xc5;" horiz-adv-x="639" 
d="M187 28v-28h-193v28l55 7q11 2 16 4.5t9 12.5t11 32l185 576q-38 13 -59 43.5t-21 64.5v11q0 29 14.5 55t42 42.5t66.5 16.5t66.5 -16.5t42 -42.5t14.5 -55v-11q0 -31 -18 -60t-51 -44l187 -580q7 -22 11 -32t9.5 -12.5t15.5 -4.5l55 -7v-28h-276v28l55 7q16 2 17.5 8.5
t-9.5 40.5l-38 124h-231l-39 -124q-10 -34 -9 -40.5t17 -8.5zM363 786q0 80 -50 80q-49 0 -49 -80v-25q0 -81 49 -81q50 0 50 81v25zM175 243h208l-103 332z" />
    <glyph glyph-name="Atilde" unicode="&#xc3;" horiz-adv-x="639" 
d="M187 28v-28h-193v28l55 7q11 2 16 4.5t9 12.5t11 32l191 596h86l192 -596q7 -22 11 -32t9.5 -12.5t15.5 -4.5l55 -7v-28h-276v28l55 7q16 2 17.5 8.5t-9.5 40.5l-38 124h-231l-39 -124q-10 -34 -9 -40.5t17 -8.5zM175 243h208l-103 332zM382 756q-22 0 -40.5 12.5
t-34.5 29t-30.5 29t-28.5 12.5q-17 0 -26.5 -18.5t-14.5 -59.5h-36q8 80 29 118.5t60 38.5q22 0 40 -12.5t34 -29t30 -29t29 -12.5q17 0 26 19t14 59h36q-8 -80 -28.5 -118.5t-58.5 -38.5z" />
    <glyph glyph-name="AE" unicode="&#xc6;" horiz-adv-x="908" 
d="M843 172v-172h-495v28l55 7q16 2 19 8.5t3 40.5v124h-219l-67 -124q-18 -34 -19 -40.5t15 -8.5l55 -7v-28h-196v28l55 7q11 2 17 4.5t12.5 12.5t18.5 32l276 512q18 34 18 40.5t-16 8.5l-55 7v28h513v-172h-28l-32 111q-3 12 -6.5 17.5t-13.5 7t-34 1.5h-174v-284h114
q24 0 34 1.5t13.5 7t6.5 17.5l22 81h28v-249h-28l-22 81q-3 12 -6.5 17.5t-13.5 7t-34 1.5h-114v-291h184q24 0 34 1.5t13.5 7t6.5 17.5l32 111h28zM224 243h201v374z" />
    <glyph glyph-name="B" unicode="B" horiz-adv-x="616" 
d="M43 652v28h276q80 0 127 -22t67.5 -58t20.5 -80v-27q0 -52 -32.5 -89.5t-94.5 -53.5q76 -13 116.5 -54t40.5 -103v-28q0 -45 -21 -82.5t-69.5 -60t-129.5 -22.5h-301v28l55 7q16 2 19 8.5t3 40.5v512q0 34 -3 40.5t-19 8.5zM319 645h-79v-280h79q43 0 65 29.5t22 93.5v32
q0 65 -22 95t-65 30zM344 330h-104v-295h104q45 0 68.5 30.5t23.5 99.5v33q0 132 -92 132z" />
    <glyph glyph-name="C" unicode="C" horiz-adv-x="597" 
d="M352 -10q-92 0 -156 39.5t-97 111.5t-33 168v63q0 96 29.5 167.5t88.5 111t148 39.5q76 0 127 -29.5t75.5 -78t20.5 -105.5l-117 -29q10 100 -20.5 153.5t-90.5 53.5q-64 0 -98.5 -54t-34.5 -179v-163q0 -124 39 -179t119 -55q33 0 61.5 12t48 41.5t24.5 83.5l72 -19
q-14 -56 -45 -90t-72.5 -48.5t-88.5 -14.5z" />
    <glyph glyph-name="Cacute" unicode="&#x106;" horiz-adv-x="597" 
d="M352 -10q-92 0 -156 39.5t-97 111.5t-33 168v63q0 96 29.5 167.5t88.5 111t148 39.5q76 0 127 -29.5t75.5 -78t20.5 -105.5l-117 -29q10 100 -20.5 153.5t-90.5 53.5q-64 0 -98.5 -54t-34.5 -179v-163q0 -124 39 -179t119 -55q33 0 61.5 12t48 41.5t24.5 83.5l72 -19
q-14 -56 -45 -90t-72.5 -48.5t-88.5 -14.5zM335 752l-24 21q20 32 36 63.5t26 76.5h126q-34 -46 -71 -83t-93 -78z" />
    <glyph glyph-name="Ccaron" unicode="&#x10c;" horiz-adv-x="597" 
d="M352 -10q-92 0 -156 39.5t-97 111.5t-33 168v63q0 96 29.5 167.5t88.5 111t148 39.5q76 0 127 -29.5t75.5 -78t20.5 -105.5l-117 -29q10 100 -20.5 153.5t-90.5 53.5q-64 0 -98.5 -54t-34.5 -179v-163q0 -124 39 -179t119 -55q33 0 61.5 12t48 41.5t24.5 83.5l72 -19
q-14 -56 -45 -90t-72.5 -48.5t-88.5 -14.5zM473 896q-24 -27 -39 -47t-26.5 -40.5l-27.5 -51.5h-88q-15 31 -27 51.5t-27 40.5t-39 47l14 22q36 -21 69 -44t58 -45q51 46 119 89z" />
    <glyph glyph-name="Ccedilla" unicode="&#xc7;" horiz-adv-x="597" 
d="M462 -140q0 -39 -33.5 -61t-85.5 -22q-41 0 -72 17.5t-39 60.5l55 14q4 -33 16.5 -46.5t31.5 -13.5q23 0 33.5 14.5t10.5 36.5q0 23 -11 38t-41 15q-4 0 -9.5 -0.5t-10.5 -1.5l-13 26l23 55q-122 11 -186.5 96.5t-64.5 220.5v63q0 96 29.5 167.5t88.5 111t148 39.5
q76 0 127 -29.5t75.5 -78t20.5 -105.5l-117 -29q10 100 -20.5 153.5t-90.5 53.5q-64 0 -98.5 -54t-34.5 -179v-163q0 -124 39 -179t119 -55q33 0 61.5 12t48 41.5t24.5 83.5l72 -19q-14 -56 -45 -90t-71.5 -48.5t-85.5 -14.5l-19 -45q57 -1 91 -23.5t34 -61.5z" />
    <glyph glyph-name="Ccircumflex" unicode="&#x108;" horiz-adv-x="597" 
d="M352 -10q-92 0 -156 39.5t-97 111.5t-33 168v63q0 96 29.5 167.5t88.5 111t148 39.5q76 0 127 -29.5t75.5 -78t20.5 -105.5l-117 -29q10 100 -20.5 153.5t-90.5 53.5q-64 0 -98.5 -54t-34.5 -179v-163q0 -124 39 -179t119 -55q33 0 61.5 12t48 41.5t24.5 83.5l72 -19
q-14 -56 -45 -90t-72.5 -48.5t-88.5 -14.5zM473 774l-14 -22q-36 21 -69 44t-58 45q-51 -46 -119 -89l-14 22q24 28 39 47.5t27 40t27 51.5h88l27.5 -51.5t26.5 -40t39 -47.5z" />
    <glyph glyph-name="Cdotaccent" unicode="&#x10a;" horiz-adv-x="597" 
d="M352 -10q-92 0 -156 39.5t-97 111.5t-33 168v63q0 96 29.5 167.5t88.5 111t148 39.5q76 0 127 -29.5t75.5 -78t20.5 -105.5l-117 -29q10 100 -20.5 153.5t-90.5 53.5q-64 0 -98.5 -54t-34.5 -179v-163q0 -124 39 -179t119 -55q33 0 61.5 12t48 41.5t24.5 83.5l72 -19
q-14 -56 -45 -90t-72.5 -48.5t-88.5 -14.5zM335 766q-31 0 -50 19.5t-19 50.5t19 50t50 19q30 0 50 -19t20 -50t-20 -50.5t-50 -19.5z" />
    <glyph glyph-name="D" unicode="D" horiz-adv-x="669" 
d="M43 652v28h295q128 0 196.5 -75t68.5 -233v-63q0 -158 -68.5 -233.5t-196.5 -75.5h-295v28l55 7q16 2 19 8.5t3 40.5v512q0 34 -3 40.5t-19 8.5zM333 645h-93v-610h93q51 0 82 17.5t45.5 66t14.5 140.5v163q0 92 -14.5 140t-45.5 65.5t-82 17.5z" />
    <glyph glyph-name="Eth" unicode="&#xd0;" horiz-adv-x="674" 
d="M48 652v28h295q128 0 196.5 -75t68.5 -233v-63q0 -158 -68.5 -233.5t-196.5 -75.5h-295v28l55 7q16 2 19 8.5t3 40.5v253h-77v35h77v224q0 34 -3 40.5t-19 8.5zM385 337h-140v-302h93q51 0 82 17.5t45.5 66t14.5 140.5v163q0 92 -14.5 140t-45.5 65.5t-82 17.5h-93v-273
h140v-35z" />
    <glyph glyph-name="Dcaron" unicode="&#x10e;" horiz-adv-x="669" 
d="M43 652v28h295q128 0 196.5 -75t68.5 -233v-63q0 -158 -68.5 -233.5t-196.5 -75.5h-295v28l55 7q16 2 19 8.5t3 40.5v512q0 34 -3 40.5t-19 8.5zM333 645h-93v-610h93q51 0 82 17.5t45.5 66t14.5 140.5v163q0 92 -14.5 140t-45.5 65.5t-82 17.5zM470 896q-24 -27 -39 -47
t-26.5 -40.5l-27.5 -51.5h-88q-15 31 -27 51.5t-27 40.5t-39 47l14 22q36 -21 69 -44t58 -45q51 46 119 89z" />
    <glyph glyph-name="Dcroat" unicode="&#x110;" horiz-adv-x="674" 
d="M48 652v28h295q128 0 196.5 -75t68.5 -233v-63q0 -158 -68.5 -233.5t-196.5 -75.5h-295v28l55 7q16 2 19 8.5t3 40.5v253h-77v35h77v224q0 34 -3 40.5t-19 8.5zM385 337h-140v-302h93q51 0 82 17.5t45.5 66t14.5 140.5v163q0 92 -14.5 140t-45.5 65.5t-82 17.5h-93v-273
h140v-35z" />
    <glyph glyph-name="E" unicode="E" horiz-adv-x="603" 
d="M510 172h28v-172h-495v28l55 7q16 2 19 8.5t3 40.5v512q0 34 -3 40.5t-19 8.5l-55 7v28h485v-172h-28l-32 111q-3 12 -6.5 17.5t-13.5 7t-34 1.5h-174v-284h114q24 0 34 1.5t13.5 7t6.5 17.5l22 81h28v-249h-28l-22 81q-3 12 -6.5 17.5t-13.5 7t-34 1.5h-114v-291h184
q24 0 34 1.5t13.5 7t6.5 17.5z" />
    <glyph glyph-name="Eacute" unicode="&#xc9;" horiz-adv-x="603" 
d="M510 172h28v-172h-495v28l55 7q16 2 19 8.5t3 40.5v512q0 34 -3 40.5t-19 8.5l-55 7v28h485v-172h-28l-32 111q-3 12 -6.5 17.5t-13.5 7t-34 1.5h-174v-284h114q24 0 34 1.5t13.5 7t6.5 17.5l22 81h28v-249h-28l-22 81q-3 12 -6.5 17.5t-13.5 7t-34 1.5h-114v-291h184
q24 0 34 1.5t13.5 7t6.5 17.5zM331 752l-24 21q20 32 36 63.5t26 76.5h126q-34 -46 -71 -83t-93 -78z" />
    <glyph glyph-name="Ebreve" unicode="&#x114;" horiz-adv-x="603" 
d="M510 172h28v-172h-495v28l55 7q16 2 19 8.5t3 40.5v512q0 34 -3 40.5t-19 8.5l-55 7v28h485v-172h-28l-32 111q-3 12 -6.5 17.5t-13.5 7t-34 1.5h-174v-284h114q24 0 34 1.5t13.5 7t6.5 17.5l22 81h28v-249h-28l-22 81q-3 12 -6.5 17.5t-13.5 7t-34 1.5h-114v-291h184
q24 0 34 1.5t13.5 7t6.5 17.5zM332 834q47 0 75 19.5t38 64.5l33 -10q-14 -74 -50 -115t-96 -41t-96 41t-50 115l33 10q11 -45 39 -64.5t74 -19.5z" />
    <glyph glyph-name="Ecaron" unicode="&#x11a;" horiz-adv-x="603" 
d="M510 172h28v-172h-495v28l55 7q16 2 19 8.5t3 40.5v512q0 34 -3 40.5t-19 8.5l-55 7v28h485v-172h-28l-32 111q-3 12 -6.5 17.5t-13.5 7t-34 1.5h-174v-284h114q24 0 34 1.5t13.5 7t6.5 17.5l22 81h28v-249h-28l-22 81q-3 12 -6.5 17.5t-13.5 7t-34 1.5h-114v-291h184
q24 0 34 1.5t13.5 7t6.5 17.5zM469 896q-24 -27 -39 -47t-26.5 -40.5l-27.5 -51.5h-88q-15 31 -27 51.5t-27 40.5t-39 47l14 22q36 -21 69 -44t58 -45q51 46 119 89z" />
    <glyph glyph-name="Ecircumflex" unicode="&#xca;" horiz-adv-x="603" 
d="M510 172h28v-172h-495v28l55 7q16 2 19 8.5t3 40.5v512q0 34 -3 40.5t-19 8.5l-55 7v28h485v-172h-28l-32 111q-3 12 -6.5 17.5t-13.5 7t-34 1.5h-174v-284h114q24 0 34 1.5t13.5 7t6.5 17.5l22 81h28v-249h-28l-22 81q-3 12 -6.5 17.5t-13.5 7t-34 1.5h-114v-291h184
q24 0 34 1.5t13.5 7t6.5 17.5zM469 774l-14 -22q-36 21 -69 44t-58 45q-51 -46 -119 -89l-14 22q24 28 39 47.5t27 40t27 51.5h88l27.5 -51.5t26.5 -40t39 -47.5z" />
    <glyph glyph-name="Edieresis" unicode="&#xcb;" horiz-adv-x="603" 
d="M510 172h28v-172h-495v28l55 7q16 2 19 8.5t3 40.5v512q0 34 -3 40.5t-19 8.5l-55 7v28h485v-172h-28l-32 111q-3 12 -6.5 17.5t-13.5 7t-34 1.5h-174v-284h114q24 0 34 1.5t13.5 7t6.5 17.5l22 81h28v-249h-28l-22 81q-3 12 -6.5 17.5t-13.5 7t-34 1.5h-114v-291h184
q24 0 34 1.5t13.5 7t6.5 17.5zM226 773q-28 0 -45 17.5t-17 45.5t17 45t45 17q27 0 45 -17t18 -45t-18 -45.5t-45 -17.5zM436 773q-28 0 -45 17.5t-17 45.5t17 45t45 17q27 0 45 -17t18 -45t-18 -45.5t-45 -17.5z" />
    <glyph glyph-name="Edotaccent" unicode="&#x116;" horiz-adv-x="603" 
d="M510 172h28v-172h-495v28l55 7q16 2 19 8.5t3 40.5v512q0 34 -3 40.5t-19 8.5l-55 7v28h485v-172h-28l-32 111q-3 12 -6.5 17.5t-13.5 7t-34 1.5h-174v-284h114q24 0 34 1.5t13.5 7t6.5 17.5l22 81h28v-249h-28l-22 81q-3 12 -6.5 17.5t-13.5 7t-34 1.5h-114v-291h184
q24 0 34 1.5t13.5 7t6.5 17.5zM331 766q-31 0 -50 19.5t-19 50.5t19 50t50 19q30 0 50 -19t20 -50t-20 -50.5t-50 -19.5z" />
    <glyph glyph-name="Egrave" unicode="&#xc8;" horiz-adv-x="603" 
d="M510 172h28v-172h-495v28l55 7q16 2 19 8.5t3 40.5v512q0 34 -3 40.5t-19 8.5l-55 7v28h485v-172h-28l-32 111q-3 12 -6.5 17.5t-13.5 7t-34 1.5h-174v-284h114q24 0 34 1.5t13.5 7t6.5 17.5l22 81h28v-249h-28l-22 81q-3 12 -6.5 17.5t-13.5 7t-34 1.5h-114v-291h184
q24 0 34 1.5t13.5 7t6.5 17.5zM333 752q-55 41 -92.5 78t-71.5 83h126q11 -45 26.5 -76.5t35.5 -63.5z" />
    <glyph glyph-name="Emacron" unicode="&#x112;" horiz-adv-x="603" 
d="M510 172h28v-172h-495v28l55 7q16 2 19 8.5t3 40.5v512q0 34 -3 40.5t-19 8.5l-55 7v28h485v-172h-28l-32 111q-3 12 -6.5 17.5t-13.5 7t-34 1.5h-174v-284h114q24 0 34 1.5t13.5 7t6.5 17.5l22 81h28v-249h-28l-22 81q-3 12 -6.5 17.5t-13.5 7t-34 1.5h-114v-291h184
q24 0 34 1.5t13.5 7t6.5 17.5zM475 847v-55h-287v55h287z" />
    <glyph glyph-name="Eogonek" unicode="&#x118;" horiz-adv-x="603" 
d="M538 -125q-15 -54 -50.5 -76t-78.5 -22q-50 0 -84 25t-34 68q0 44 35 77.5t82 52.5h-365v28l55 7q16 2 19 8.5t3 40.5v512q0 34 -3 40.5t-19 8.5l-55 7v28h485v-172h-28l-32 111q-3 12 -6.5 17.5t-13.5 7t-34 1.5h-174v-284h114q24 0 34 1.5t13.5 7t6.5 17.5l22 81h28
v-249h-28l-22 81q-3 12 -6.5 17.5t-13.5 7t-34 1.5h-114v-291h184q24 0 34 1.5t13.5 7t6.5 17.5l32 111h28v-172h-23q-68 0 -104.5 -38t-36.5 -91q0 -28 10.5 -44t32.5 -16q20 0 35.5 16.5t21.5 60.5z" />
    <glyph glyph-name="F" unicode="F" horiz-adv-x="554" 
d="M419 462h28v-249h-28l-22 81q-3 12 -6.5 17.5t-13.5 7t-34 1.5h-103v-236q0 -34 3 -40.5t19 -8.5l75 -7v-28h-294v28l55 7q16 2 19 8.5t3 40.5v512q0 34 -3 40.5t-19 8.5l-55 7v28h474v-172h-28l-32 111q-3 12 -6.5 17.5t-13.5 7t-34 1.5h-163v-290h103q24 0 34 1.5
t13.5 7t6.5 17.5z" />
    <glyph glyph-name="G" unicode="G" horiz-adv-x="663" 
d="M361 280v28h284v-28l-55 -7q-16 -2 -19 -8.5t-3 -40.5v-224h-27q-27 28 -60 47q-27 -24 -64 -40.5t-90 -16.5q-82 0 -140.5 41.5t-89.5 115t-31 167.5v63q0 91 31 161.5t91 111t147 40.5q82 0 135.5 -29.5t78.5 -78t19 -105.5l-117 -29q11 100 -22 153.5t-98 53.5
q-137 0 -137 -243v-143q0 -244 145 -244q32 0 64.5 13t54.5 38v148q0 34 -3 41t-19 8z" />
    <glyph glyph-name="Gbreve" unicode="&#x11e;" horiz-adv-x="663" 
d="M361 280v28h284v-28l-55 -7q-16 -2 -19 -8.5t-3 -40.5v-224h-27q-27 28 -60 47q-27 -24 -64 -40.5t-90 -16.5q-82 0 -140.5 41.5t-89.5 115t-31 167.5v63q0 91 31 161.5t91 111t147 40.5q82 0 135.5 -29.5t78.5 -78t19 -105.5l-117 -29q11 100 -22 153.5t-98 53.5
q-137 0 -137 -243v-143q0 -244 145 -244q32 0 64.5 13t54.5 38v148q0 34 -3 41t-19 8zM341 834q47 0 75 19.5t38 64.5l33 -10q-14 -74 -50 -115t-96 -41t-96 41t-50 115l33 10q11 -45 39 -64.5t74 -19.5z" />
    <glyph glyph-name="Gcircumflex" unicode="&#x11c;" horiz-adv-x="663" 
d="M361 280v28h284v-28l-55 -7q-16 -2 -19 -8.5t-3 -40.5v-224h-27q-27 28 -60 47q-27 -24 -64 -40.5t-90 -16.5q-82 0 -140.5 41.5t-89.5 115t-31 167.5v63q0 91 31 161.5t91 111t147 40.5q82 0 135.5 -29.5t78.5 -78t19 -105.5l-117 -29q11 100 -22 153.5t-98 53.5
q-137 0 -137 -243v-143q0 -244 145 -244q32 0 64.5 13t54.5 38v148q0 34 -3 41t-19 8zM478 774l-14 -22q-36 21 -69 44t-58 45q-51 -46 -119 -89l-14 22q24 28 39 47.5t27 40t27 51.5h88l27.5 -51.5t26.5 -40t39 -47.5z" />
    <glyph glyph-name="uni0122" unicode="&#x122;" horiz-adv-x="663" 
d="M361 280v28h284v-28l-55 -7q-16 -2 -19 -8.5t-3 -40.5v-224h-27q-27 28 -60 47q-27 -24 -64 -40.5t-90 -16.5q-82 0 -140.5 41.5t-89.5 115t-31 167.5v63q0 91 31 161.5t91 111t147 40.5q82 0 135.5 -29.5t78.5 -78t19 -105.5l-117 -29q11 100 -22 153.5t-98 53.5
q-137 0 -137 -243v-143q0 -244 145 -244q32 0 64.5 13t54.5 38v148q0 34 -3 41t-19 8zM262 -248l-19 18q16 33 26.5 68.5t16.5 84.5h113q-23 -46 -56.5 -88.5t-80.5 -82.5z" />
    <glyph glyph-name="Gdotaccent" unicode="&#x120;" horiz-adv-x="663" 
d="M361 280v28h284v-28l-55 -7q-16 -2 -19 -8.5t-3 -40.5v-224h-27q-27 28 -60 47q-27 -24 -64 -40.5t-90 -16.5q-82 0 -140.5 41.5t-89.5 115t-31 167.5v63q0 91 31 161.5t91 111t147 40.5q82 0 135.5 -29.5t78.5 -78t19 -105.5l-117 -29q11 100 -22 153.5t-98 53.5
q-137 0 -137 -243v-143q0 -244 145 -244q32 0 64.5 13t54.5 38v148q0 34 -3 41t-19 8zM340 766q-31 0 -50 19.5t-19 50.5t19 50t50 19q30 0 50 -19t20 -50t-20 -50.5t-50 -19.5z" />
    <glyph glyph-name="H" unicode="H" horiz-adv-x="743" 
d="M700 28v-28h-274v28l55 7q16 2 19 8.5t3 40.5v242h-263v-242q0 -34 3 -40.5t19 -8.5l55 -7v-28h-274v28l55 7q16 2 19 8.5t3 40.5v512q0 34 -3 40.5t-19 8.5l-55 7v28h274v-28l-55 -7q-16 -2 -19 -8.5t-3 -40.5v-235h263v235q0 34 -3 40.5t-19 8.5l-55 7v28h274v-28
l-55 -7q-16 -2 -19 -8.5t-3 -40.5v-512q0 -34 3 -40.5t19 -8.5z" />
    <glyph glyph-name="Hbar" unicode="&#x126;" horiz-adv-x="753" 
d="M322 28v-28h-274v28l55 7q16 2 19 8.5t3 40.5v409h-77v33h77v70q0 34 -3 40.5t-19 8.5l-55 7v28h274v-28l-55 -7q-16 -2 -19 -8.5t-3 -40.5v-70h263v70q0 34 -3 40.5t-19 8.5l-55 7v28h274v-28l-55 -7q-16 -2 -19 -8.5t-3 -40.5v-70h77v-33h-77v-409q0 -34 3 -40.5
t19 -8.5l55 -7v-28h-274v28l55 7q16 2 19 8.5t3 40.5v242h-263v-242q0 -34 3 -40.5t19 -8.5zM245 361h263v132h-263v-132z" />
    <glyph glyph-name="Hcircumflex" unicode="&#x124;" horiz-adv-x="743" 
d="M700 28v-28h-274v28l55 7q16 2 19 8.5t3 40.5v242h-263v-242q0 -34 3 -40.5t19 -8.5l55 -7v-28h-274v28l55 7q16 2 19 8.5t3 40.5v512q0 34 -3 40.5t-19 8.5l-55 7v28h274v-28l-55 -7q-16 -2 -19 -8.5t-3 -40.5v-235h263v235q0 34 -3 40.5t-19 8.5l-55 7v28h274v-28
l-55 -7q-16 -2 -19 -8.5t-3 -40.5v-512q0 -34 3 -40.5t19 -8.5zM509 774l-14 -22q-36 21 -69 44t-58 45q-51 -46 -119 -89l-14 22q24 28 39 47.5t27 40t27 51.5h88l27.5 -51.5t26.5 -40t39 -47.5z" />
    <glyph glyph-name="I" unicode="I" horiz-adv-x="360" 
d="M43 652v28h274v-28l-55 -7q-16 -2 -19 -8.5t-3 -40.5v-512q0 -34 3 -40.5t19 -8.5l55 -7v-28h-274v28l55 7q16 2 19 8.5t3 40.5v512q0 34 -3 40.5t-19 8.5z" />
    <glyph glyph-name="IJ" unicode="&#x132;" horiz-adv-x="836" 
d="M43 652v28h274v-28l-55 -7q-16 -2 -19 -8.5t-3 -40.5v-512q0 -34 3 -40.5t19 -8.5l55 -7v-28h-274v28l55 7q16 2 19 8.5t3 40.5v512q0 34 -3 40.5t-19 8.5zM532 652v28h274v-28l-55 -7q-16 -2 -19 -8.5t-3 -40.5v-402q0 -57 -19 -103.5t-62 -73.5t-115 -27
q-37 0 -72.5 12.5t-61 45.5t-33.5 94l69 20q3 -55 16 -84.5t33 -41t43 -11.5t41.5 12t29.5 44t11 93v422q0 34 -3 40.5t-19 8.5z" />
    <glyph glyph-name="Iacute" unicode="&#xcd;" horiz-adv-x="360" 
d="M43 652v28h274v-28l-55 -7q-16 -2 -19 -8.5t-3 -40.5v-512q0 -34 3 -40.5t19 -8.5l55 -7v-28h-274v28l55 7q16 2 19 8.5t3 40.5v512q0 34 -3 40.5t-19 8.5zM179 752l-24 21q20 32 36 63.5t26 76.5h126q-34 -46 -71 -83t-93 -78z" />
    <glyph glyph-name="Ibreve" unicode="&#x12c;" horiz-adv-x="360" 
d="M43 652v28h274v-28l-55 -7q-16 -2 -19 -8.5t-3 -40.5v-512q0 -34 3 -40.5t19 -8.5l55 -7v-28h-274v28l55 7q16 2 19 8.5t3 40.5v512q0 34 -3 40.5t-19 8.5zM180 834q47 0 75 19.5t38 64.5l33 -10q-14 -74 -50 -115t-96 -41t-96 41t-50 115l33 10q11 -45 39 -64.5
t74 -19.5z" />
    <glyph glyph-name="Icircumflex" unicode="&#xce;" horiz-adv-x="360" 
d="M43 652v28h274v-28l-55 -7q-16 -2 -19 -8.5t-3 -40.5v-512q0 -34 3 -40.5t19 -8.5l55 -7v-28h-274v28l55 7q16 2 19 8.5t3 40.5v512q0 34 -3 40.5t-19 8.5zM317 774l-14 -22q-36 21 -69 44t-58 45q-51 -46 -119 -89l-14 22q24 28 39 47.5t27 40t27 51.5h88l27.5 -51.5
t26.5 -40t39 -47.5z" />
    <glyph glyph-name="Idieresis" unicode="&#xcf;" horiz-adv-x="360" 
d="M43 652v28h274v-28l-55 -7q-16 -2 -19 -8.5t-3 -40.5v-512q0 -34 3 -40.5t19 -8.5l55 -7v-28h-274v28l55 7q16 2 19 8.5t3 40.5v512q0 34 -3 40.5t-19 8.5zM75 773q-28 0 -45 17.5t-17 45.5t17 45t45 17q27 0 45 -17t18 -45t-18 -45.5t-45 -17.5zM285 773q-28 0 -45 17.5
t-17 45.5t17 45t45 17q27 0 45 -17t18 -45t-18 -45.5t-45 -17.5z" />
    <glyph glyph-name="Idotaccent" unicode="&#x130;" horiz-adv-x="360" 
d="M43 652v28h274v-28l-55 -7q-16 -2 -19 -8.5t-3 -40.5v-512q0 -34 3 -40.5t19 -8.5l55 -7v-28h-274v28l55 7q16 2 19 8.5t3 40.5v512q0 34 -3 40.5t-19 8.5zM180 766q-31 0 -50 19.5t-19 50.5t19 50t50 19q30 0 50 -19t20 -50t-20 -50.5t-50 -19.5z" />
    <glyph glyph-name="Igrave" unicode="&#xcc;" horiz-adv-x="360" 
d="M43 652v28h274v-28l-55 -7q-16 -2 -19 -8.5t-3 -40.5v-512q0 -34 3 -40.5t19 -8.5l55 -7v-28h-274v28l55 7q16 2 19 8.5t3 40.5v512q0 34 -3 40.5t-19 8.5zM181 752q-55 41 -92.5 78t-71.5 83h126q11 -45 26.5 -76.5t35.5 -63.5z" />
    <glyph glyph-name="Imacron" unicode="&#x12a;" horiz-adv-x="360" 
d="M43 652v28h274v-28l-55 -7q-16 -2 -19 -8.5t-3 -40.5v-512q0 -34 3 -40.5t19 -8.5l55 -7v-28h-274v28l55 7q16 2 19 8.5t3 40.5v512q0 34 -3 40.5t-19 8.5zM324 847v-55h-287v55h287z" />
    <glyph glyph-name="Iogonek" unicode="&#x12e;" horiz-adv-x="357" 
d="M40 652v28h274v-28l-55 -7q-16 -2 -19 -8.5t-3 -40.5v-512q0 -34 3 -40.5t19 -8.5l55 -7v-28h-61q-68 0 -104.5 -38t-36.5 -91q0 -28 10.5 -44t32.5 -16q20 0 35.5 16.5t21.5 60.5l64 -13q-15 -54 -50.5 -76t-78.5 -22q-50 0 -84 25t-34 68q0 38 25.5 69t62.5 52v605
q0 34 -3 40.5t-19 8.5z" />
    <glyph glyph-name="Itilde" unicode="&#x128;" horiz-adv-x="360" 
d="M43 652v28h274v-28l-55 -7q-16 -2 -19 -8.5t-3 -40.5v-512q0 -34 3 -40.5t19 -8.5l55 -7v-28h-274v28l55 7q16 2 19 8.5t3 40.5v512q0 34 -3 40.5t-19 8.5zM242 756q-22 0 -40.5 12.5t-34.5 29t-30.5 29t-28.5 12.5q-17 0 -26.5 -18.5t-14.5 -59.5h-36q8 80 29 118.5
t60 38.5q22 0 40 -12.5t34 -29t30 -29t29 -12.5q17 0 26 19t14 59h36q-8 -80 -28.5 -118.5t-58.5 -38.5z" />
    <glyph glyph-name="J" unicode="J" horiz-adv-x="476" 
d="M172 652v28h274v-28l-55 -7q-16 -2 -19 -8.5t-3 -40.5v-402q0 -57 -19 -103.5t-62 -73.5t-115 -27q-37 0 -72.5 12.5t-61 45.5t-33.5 94l69 20q3 -55 16 -84.5t33 -41t43 -11.5t41.5 12t29.5 44t11 93v422q0 34 -3 40.5t-19 8.5z" />
    <glyph glyph-name="Jcircumflex" unicode="&#x134;" horiz-adv-x="476" 
d="M172 652v28h274v-28l-55 -7q-16 -2 -19 -8.5t-3 -40.5v-402q0 -57 -19 -103.5t-62 -73.5t-115 -27q-37 0 -72.5 12.5t-61 45.5t-33.5 94l69 20q3 -55 16 -84.5t33 -41t43 -11.5t41.5 12t29.5 44t11 93v422q0 34 -3 40.5t-19 8.5zM446 774l-14 -22q-36 21 -69 44t-58 45
q-51 -46 -119 -89l-14 22q24 28 39 47.5t27 40t27 51.5h88l27.5 -51.5t26.5 -40t39 -47.5z" />
    <glyph glyph-name="K" unicode="K" horiz-adv-x="656" 
d="M43 652v28h274v-28l-55 -7q-16 -2 -19 -8.5t-3 -40.5v-269l237 269q29 33 30.5 40t-14.5 9l-55 7v28h203v-28l-55 -7q-10 -1 -16 -4t-15 -13l-29 -32l-140 -158l173 -354q11 -21 17 -31t14 -13t22 -5l45 -7v-28h-190l-162 346l-65 -74v-188q0 -34 3 -40.5t19 -8.5l55 -7
v-28h-274v28l55 7q16 2 19 8.5t3 40.5v512q0 34 -3 40.5t-19 8.5z" />
    <glyph glyph-name="uni0136" unicode="&#x136;" horiz-adv-x="656" 
d="M43 652v28h274v-28l-55 -7q-16 -2 -19 -8.5t-3 -40.5v-269l237 269q29 33 30.5 40t-14.5 9l-55 7v28h203v-28l-55 -7q-10 -1 -16 -4t-15 -13l-29 -32l-140 -158l173 -354q11 -21 17 -31t14 -13t22 -5l45 -7v-28h-190l-162 346l-65 -74v-188q0 -34 3 -40.5t19 -8.5l55 -7
v-28h-274v28l55 7q16 2 19 8.5t3 40.5v512q0 34 -3 40.5t-19 8.5zM272 -248l-19 18q16 33 26.5 68.5t16.5 84.5h113q-23 -46 -56.5 -88.5t-80.5 -82.5z" />
    <glyph glyph-name="L" unicode="L" horiz-adv-x="532" 
d="M490 172h28v-172h-475v28l55 7q16 2 19 8.5t3 40.5v512q0 34 -3 40.5t-19 8.5l-55 7v28h274v-28l-55 -7q-16 -2 -19 -8.5t-3 -40.5v-561h164q24 0 34 1.5t13.5 7t6.5 17.5z" />
    <glyph glyph-name="Lacute" unicode="&#x139;" horiz-adv-x="532" 
d="M490 172h28v-172h-475v28l55 7q16 2 19 8.5t3 40.5v512q0 34 -3 40.5t-19 8.5l-55 7v28h274v-28l-55 -7q-16 -2 -19 -8.5t-3 -40.5v-561h164q24 0 34 1.5t13.5 7t6.5 17.5zM184 752l-24 21q20 32 36 63.5t26 76.5h126q-34 -46 -71 -83t-93 -78z" />
    <glyph glyph-name="Lcaron" unicode="&#x13d;" horiz-adv-x="532" 
d="M490 172h28v-172h-475v28l55 7q16 2 19 8.5t3 40.5v512q0 34 -3 40.5t-19 8.5l-55 7v28h274v-28l-55 -7q-16 -2 -19 -8.5t-3 -40.5v-561h164q24 0 34 1.5t13.5 7t6.5 17.5zM392 466h-24v214h109q-18 -56 -37.5 -106t-47.5 -108z" />
    <glyph glyph-name="uni013B" unicode="&#x13b;" horiz-adv-x="532" 
d="M490 172h28v-172h-475v28l55 7q16 2 19 8.5t3 40.5v512q0 34 -3 40.5t-19 8.5l-55 7v28h274v-28l-55 -7q-16 -2 -19 -8.5t-3 -40.5v-561h164q24 0 34 1.5t13.5 7t6.5 17.5zM214 -248l-19 18q16 33 26.5 68.5t16.5 84.5h113q-23 -46 -56.5 -88.5t-80.5 -82.5z" />
    <glyph glyph-name="Ldot" unicode="&#x13f;" horiz-adv-x="532" 
d="M490 172h28v-172h-475v28l55 7q16 2 19 8.5t3 40.5v512q0 34 -3 40.5t-19 8.5l-55 7v28h274v-28l-55 -7q-16 -2 -19 -8.5t-3 -40.5v-561h164q24 0 34 1.5t13.5 7t6.5 17.5zM445 315q-31 0 -50 19.5t-19 50.5t19 50t50 19q30 0 50 -19t20 -50t-20 -50.5t-50 -19.5z" />
    <glyph glyph-name="Lslash" unicode="&#x141;" horiz-adv-x="535" 
d="M493 172h28v-172h-475v28l55 7q16 2 19 8.5t3 40.5v207l-78 -37l-14 34l92 43v265q0 34 -3 40.5t-19 8.5l-55 7v28h274v-28l-55 -7q-16 -2 -19 -8.5t-3 -40.5v-209l125 59l14 -34l-139 -65v-312h164q24 0 34 1.5t13.5 7t6.5 17.5z" />
    <glyph glyph-name="M" unicode="M" horiz-adv-x="871" 
d="M828 28v-28h-274v28l55 7q16 2 19 8.5t3 40.5v514l-183 -518h-107l-181 515v-511q0 -34 3 -40.5t19 -8.5l55 -7v-28h-194v28l55 7q16 2 19 8.5t3 40.5v512q0 34 -3 40.5t-19 8.5l-55 7v28h211l183 -520l186 520h205v-28l-55 -7q-16 -2 -19 -8.5t-3 -40.5v-512
q0 -34 3 -40.5t19 -8.5z" />
    <glyph glyph-name="N" unicode="N" horiz-adv-x="687" 
d="M465 652v28h194v-28l-55 -7q-16 -2 -19 -8.5t-3 -40.5v-596h-55l-367 593v-509q0 -34 3 -40.5t19 -8.5l55 -7v-28h-194v28l55 7q16 2 19 8.5t3 40.5v512q0 34 -3 40.5t-19 8.5l-55 7v28h201l298 -479v395q0 34 -3 40.5t-19 8.5z" />
    <glyph glyph-name="Nacute" unicode="&#x143;" horiz-adv-x="687" 
d="M465 652v28h194v-28l-55 -7q-16 -2 -19 -8.5t-3 -40.5v-596h-55l-367 593v-509q0 -34 3 -40.5t19 -8.5l55 -7v-28h-194v28l55 7q16 2 19 8.5t3 40.5v512q0 34 -3 40.5t-19 8.5l-55 7v28h201l298 -479v395q0 34 -3 40.5t-19 8.5zM359 752l-24 21q20 32 36 63.5t26 76.5
h126q-34 -46 -71 -83t-93 -78z" />
    <glyph glyph-name="Ncaron" unicode="&#x147;" horiz-adv-x="687" 
d="M465 652v28h194v-28l-55 -7q-16 -2 -19 -8.5t-3 -40.5v-596h-55l-367 593v-509q0 -34 3 -40.5t19 -8.5l55 -7v-28h-194v28l55 7q16 2 19 8.5t3 40.5v512q0 34 -3 40.5t-19 8.5l-55 7v28h201l298 -479v395q0 34 -3 40.5t-19 8.5zM497 896q-24 -27 -39 -47t-26.5 -40.5
l-27.5 -51.5h-88q-15 31 -27 51.5t-27 40.5t-39 47l14 22q36 -21 69 -44t58 -45q51 46 119 89z" />
    <glyph glyph-name="uni0145" unicode="&#x145;" horiz-adv-x="687" 
d="M465 652v28h194v-28l-55 -7q-16 -2 -19 -8.5t-3 -40.5v-596h-55l-367 593v-509q0 -34 3 -40.5t19 -8.5l55 -7v-28h-194v28l55 7q16 2 19 8.5t3 40.5v512q0 34 -3 40.5t-19 8.5l-55 7v28h201l298 -479v395q0 34 -3 40.5t-19 8.5zM272 -248l-19 18q16 33 26.5 68.5
t16.5 84.5h113q-23 -46 -56.5 -88.5t-80.5 -82.5z" />
    <glyph glyph-name="Eng" unicode="&#x14a;" horiz-adv-x="687" 
d="M604 645q-16 -2 -19 -8.5t-3 -40.5v-615q0 -51 -18 -98t-58.5 -76.5t-108.5 -29.5q-33 0 -66.5 12.5t-58.5 45.5t-33 94l69 20q3 -55 15 -84.5t30.5 -41t39.5 -11.5q18 0 35 12t28 44t11 93v136l-307 496v-509q0 -34 3 -40.5t19 -8.5l55 -7v-28h-194v28l55 7q16 2 19 8.5
t3 40.5v512q0 34 -3 40.5t-19 8.5l-55 7v28h201l298 -479v395q0 34 -3 40.5t-19 8.5l-55 7v28h194v-28z" />
    <glyph glyph-name="Ntilde" unicode="&#xd1;" horiz-adv-x="687" 
d="M465 652v28h194v-28l-55 -7q-16 -2 -19 -8.5t-3 -40.5v-596h-55l-367 593v-509q0 -34 3 -40.5t19 -8.5l55 -7v-28h-194v28l55 7q16 2 19 8.5t3 40.5v512q0 34 -3 40.5t-19 8.5l-55 7v28h201l298 -479v395q0 34 -3 40.5t-19 8.5zM422 756q-22 0 -40.5 12.5t-34.5 29
t-30.5 29t-28.5 12.5q-17 0 -26.5 -18.5t-14.5 -59.5h-36q8 80 29 118.5t60 38.5q22 0 40 -12.5t34 -29t30 -29t29 -12.5q17 0 26 19t14 59h36q-8 -80 -28.5 -118.5t-58.5 -38.5z" />
    <glyph glyph-name="O" unicode="O" horiz-adv-x="674" 
d="M608 372v-63q0 -154 -68.5 -236.5t-202.5 -82.5t-202.5 82.5t-68.5 236.5v63q0 154 68.5 236t202.5 82t202.5 -82t68.5 -236zM480 422q0 88 -15 138.5t-46.5 72.5t-81.5 22q-49 0 -81 -22t-47 -72.5t-15 -138.5v-163q0 -87 15 -138t47 -73.5t81 -22.5q50 0 81.5 22.5
t46.5 73.5t15 138v163z" />
    <glyph glyph-name="Oacute" unicode="&#xd3;" horiz-adv-x="674" 
d="M608 372v-63q0 -154 -68.5 -236.5t-202.5 -82.5t-202.5 82.5t-68.5 236.5v63q0 154 68.5 236t202.5 82t202.5 -82t68.5 -236zM480 422q0 88 -15 138.5t-46.5 72.5t-81.5 22q-49 0 -81 -22t-47 -72.5t-15 -138.5v-163q0 -87 15 -138t47 -73.5t81 -22.5q50 0 81.5 22.5
t46.5 73.5t15 138v163zM341 752l-24 21q20 32 36 63.5t26 76.5h126q-34 -46 -71 -83t-93 -78z" />
    <glyph glyph-name="Obreve" unicode="&#x14e;" horiz-adv-x="674" 
d="M608 372v-63q0 -154 -68.5 -236.5t-202.5 -82.5t-202.5 82.5t-68.5 236.5v63q0 154 68.5 236t202.5 82t202.5 -82t68.5 -236zM480 422q0 88 -15 138.5t-46.5 72.5t-81.5 22q-49 0 -81 -22t-47 -72.5t-15 -138.5v-163q0 -87 15 -138t47 -73.5t81 -22.5q50 0 81.5 22.5
t46.5 73.5t15 138v163zM342 834q47 0 75 19.5t38 64.5l33 -10q-14 -74 -50 -115t-96 -41t-96 41t-50 115l33 10q11 -45 39 -64.5t74 -19.5z" />
    <glyph glyph-name="Ocircumflex" unicode="&#xd4;" horiz-adv-x="674" 
d="M608 372v-63q0 -154 -68.5 -236.5t-202.5 -82.5t-202.5 82.5t-68.5 236.5v63q0 154 68.5 236t202.5 82t202.5 -82t68.5 -236zM480 422q0 88 -15 138.5t-46.5 72.5t-81.5 22q-49 0 -81 -22t-47 -72.5t-15 -138.5v-163q0 -87 15 -138t47 -73.5t81 -22.5q50 0 81.5 22.5
t46.5 73.5t15 138v163zM479 774l-14 -22q-36 21 -69 44t-58 45q-51 -46 -119 -89l-14 22q24 28 39 47.5t27 40t27 51.5h88l27.5 -51.5t26.5 -40t39 -47.5z" />
    <glyph glyph-name="Odieresis" unicode="&#xd6;" horiz-adv-x="674" 
d="M608 372v-63q0 -154 -68.5 -236.5t-202.5 -82.5t-202.5 82.5t-68.5 236.5v63q0 154 68.5 236t202.5 82t202.5 -82t68.5 -236zM480 422q0 88 -15 138.5t-46.5 72.5t-81.5 22q-49 0 -81 -22t-47 -72.5t-15 -138.5v-163q0 -87 15 -138t47 -73.5t81 -22.5q50 0 81.5 22.5
t46.5 73.5t15 138v163zM237 773q-28 0 -45 17.5t-17 45.5t17 45t45 17q27 0 45 -17t18 -45t-18 -45.5t-45 -17.5zM447 773q-28 0 -45 17.5t-17 45.5t17 45t45 17q27 0 45 -17t18 -45t-18 -45.5t-45 -17.5z" />
    <glyph glyph-name="Ograve" unicode="&#xd2;" horiz-adv-x="674" 
d="M608 372v-63q0 -154 -68.5 -236.5t-202.5 -82.5t-202.5 82.5t-68.5 236.5v63q0 154 68.5 236t202.5 82t202.5 -82t68.5 -236zM480 422q0 88 -15 138.5t-46.5 72.5t-81.5 22q-49 0 -81 -22t-47 -72.5t-15 -138.5v-163q0 -87 15 -138t47 -73.5t81 -22.5q50 0 81.5 22.5
t46.5 73.5t15 138v163zM343 752q-55 41 -92.5 78t-71.5 83h126q11 -45 26.5 -76.5t35.5 -63.5z" />
    <glyph glyph-name="Ohungarumlaut" unicode="&#x150;" horiz-adv-x="674" 
d="M608 372v-63q0 -154 -68.5 -236.5t-202.5 -82.5t-202.5 82.5t-68.5 236.5v63q0 154 68.5 236t202.5 82t202.5 -82t68.5 -236zM480 422q0 88 -15 138.5t-46.5 72.5t-81.5 22q-49 0 -81 -22t-47 -72.5t-15 -138.5v-163q0 -87 15 -138t47 -73.5t81 -22.5q50 0 81.5 22.5
t46.5 73.5t15 138v163zM262 752l-27 24q20 30 32 61.5t22 75.5h111q-28 -45 -61 -83.5t-77 -77.5zM402 752l-27 24q20 30 32 61.5t22 75.5h111q-28 -45 -61 -83.5t-77 -77.5z" />
    <glyph glyph-name="Omacron" unicode="&#x14c;" horiz-adv-x="674" 
d="M608 372v-63q0 -154 -68.5 -236.5t-202.5 -82.5t-202.5 82.5t-68.5 236.5v63q0 154 68.5 236t202.5 82t202.5 -82t68.5 -236zM480 422q0 88 -15 138.5t-46.5 72.5t-81.5 22q-49 0 -81 -22t-47 -72.5t-15 -138.5v-163q0 -87 15 -138t47 -73.5t81 -22.5q50 0 81.5 22.5
t46.5 73.5t15 138v163zM486 847v-55h-287v55h287z" />
    <glyph glyph-name="Oslash" unicode="&#xd8;" horiz-adv-x="674" 
d="M608 309q0 -154 -68.5 -236.5t-202.5 -82.5q-115 0 -182 61l-37 -51h-52l60 83q-60 81 -60 226v63q0 154 68.5 236t202.5 82q115 0 182 -61l37 51h52l-60 -83q60 -81 60 -225v-63zM194 259q0 -21 1 -40t3 -36l268 372q-15 55 -47 77.5t-82 22.5q-49 0 -81 -22t-47 -72.5
t-15 -138.5v-163zM480 422q0 42 -3 76l-269 -373q15 -54 47 -77t82 -23t81.5 22.5t46.5 73.5t15 138v163z" />
    <glyph glyph-name="Otilde" unicode="&#xd5;" horiz-adv-x="674" 
d="M608 372v-63q0 -154 -68.5 -236.5t-202.5 -82.5t-202.5 82.5t-68.5 236.5v63q0 154 68.5 236t202.5 82t202.5 -82t68.5 -236zM480 422q0 88 -15 138.5t-46.5 72.5t-81.5 22q-49 0 -81 -22t-47 -72.5t-15 -138.5v-163q0 -87 15 -138t47 -73.5t81 -22.5q50 0 81.5 22.5
t46.5 73.5t15 138v163zM404 756q-22 0 -40.5 12.5t-34.5 29t-30.5 29t-28.5 12.5q-17 0 -26.5 -18.5t-14.5 -59.5h-36q8 80 29 118.5t60 38.5q22 0 40 -12.5t34 -29t30 -29t29 -12.5q17 0 26 19t14 59h36q-8 -80 -28.5 -118.5t-58.5 -38.5z" />
    <glyph glyph-name="OE" unicode="&#x152;" horiz-adv-x="912" 
d="M819 172h28v-172h-516q-128 0 -196.5 75.5t-68.5 233.5v63q0 158 68.5 233t196.5 75h506v-172h-28l-32 111q-3 12 -6.5 17.5t-13.5 7t-34 1.5h-174v-284h114q35 0 42.5 4t11.5 22l17 81h33v-249h-28l-22 81q-3 12 -6.5 17.5t-13.5 7t-34 1.5h-114v-291h184q24 0 34 1.5
t13.5 7t6.5 17.5zM336 35h93v610h-93q-50 0 -81.5 -17.5t-46 -65.5t-14.5 -140v-163q0 -92 14.5 -140.5t46 -66t81.5 -17.5z" />
    <glyph glyph-name="P" unicode="P" horiz-adv-x="598" 
d="M43 652v28h301q110 0 164.5 -50.5t54.5 -134.5v-23q0 -84 -54.5 -135t-164.5 -51h-104v-202q0 -34 3 -40.5t19 -8.5l75 -7v-28h-294v28l55 7q16 2 19 8.5t3 40.5v512q0 34 -3 40.5t-19 8.5zM344 645h-104v-324h104q44 0 67.5 35t23.5 96v63q0 61 -23.5 95.5t-67.5 34.5z
" />
    <glyph glyph-name="Thorn" unicode="&#xde;" horiz-adv-x="598" 
d="M43 652v28h294v-28l-75 -7q-16 -1 -19 -8t-3 -41v-55h104q110 0 164.5 -50.5t54.5 -134.5v-23q0 -84 -54.5 -135t-164.5 -51h-104v-63q0 -34 3 -40.5t19 -8.5l75 -7v-28h-294v28l55 7q16 2 19 8.5t3 40.5v512q0 34 -3 40.5t-19 8.5zM344 506h-104v-324h104q44 0 67.5 35
t23.5 96v63q0 61 -23.5 95.5t-67.5 34.5z" />
    <glyph glyph-name="Q" unicode="Q" horiz-adv-x="678" 
d="M575 -83l17 -125q-54 0 -99 18.5t-81.5 61.5t-63.5 118h-9q-135 0 -204 82.5t-69 236.5v63q0 154 69 236t204 82q134 0 203.5 -82t69.5 -236v-63q0 -139 -57 -220.5t-168 -95.5q20 -40 63 -58t125 -18zM484 422q0 88 -15.5 138.5t-47.5 72.5t-82 22t-82 -22t-47.5 -72.5
t-15.5 -138.5v-163q0 -87 15.5 -138t47.5 -73.5t82 -22.5t82 22.5t47.5 73.5t15.5 138v163z" />
    <glyph glyph-name="R" unicode="R" horiz-adv-x="651" 
d="M43 652v28h302q105 0 162 -47t57 -126v-23q0 -60 -33 -102t-95 -60l125 -238q12 -22 18 -32t11.5 -12.5t15.5 -4.5l45 -7v-28h-187l-151 310h-73v-226q0 -34 3 -40.5t19 -8.5l55 -7v-28h-274v28l55 7q16 2 19 8.5t3 40.5v512q0 34 -3 40.5t-19 8.5zM345 645h-105v-300
h105q44 0 67.5 27.5t23.5 101.5v43q0 74 -23.5 101t-67.5 27z" />
    <glyph glyph-name="Racute" unicode="&#x154;" horiz-adv-x="651" 
d="M43 652v28h302q105 0 162 -47t57 -126v-23q0 -60 -33 -102t-95 -60l125 -238q12 -22 18 -32t11.5 -12.5t15.5 -4.5l45 -7v-28h-187l-151 310h-73v-226q0 -34 3 -40.5t19 -8.5l55 -7v-28h-274v28l55 7q16 2 19 8.5t3 40.5v512q0 34 -3 40.5t-19 8.5zM345 645h-105v-300
h105q44 0 67.5 27.5t23.5 101.5v43q0 74 -23.5 101t-67.5 27zM321 752l-24 21q20 32 36 63.5t26 76.5h126q-34 -46 -71 -83t-93 -78z" />
    <glyph glyph-name="Rcaron" unicode="&#x158;" horiz-adv-x="651" 
d="M43 652v28h302q105 0 162 -47t57 -126v-23q0 -60 -33 -102t-95 -60l125 -238q12 -22 18 -32t11.5 -12.5t15.5 -4.5l45 -7v-28h-187l-151 310h-73v-226q0 -34 3 -40.5t19 -8.5l55 -7v-28h-274v28l55 7q16 2 19 8.5t3 40.5v512q0 34 -3 40.5t-19 8.5zM345 645h-105v-300
h105q44 0 67.5 27.5t23.5 101.5v43q0 74 -23.5 101t-67.5 27zM459 896q-24 -27 -39 -47t-26.5 -40.5l-27.5 -51.5h-88q-15 31 -27 51.5t-27 40.5t-39 47l14 22q36 -21 69 -44t58 -45q51 46 119 89z" />
    <glyph glyph-name="uni0156" unicode="&#x156;" horiz-adv-x="651" 
d="M43 652v28h302q105 0 162 -47t57 -126v-23q0 -60 -33 -102t-95 -60l125 -238q12 -22 18 -32t11.5 -12.5t15.5 -4.5l45 -7v-28h-187l-151 310h-73v-226q0 -34 3 -40.5t19 -8.5l55 -7v-28h-274v28l55 7q16 2 19 8.5t3 40.5v512q0 34 -3 40.5t-19 8.5zM345 645h-105v-300
h105q44 0 67.5 27.5t23.5 101.5v43q0 74 -23.5 101t-67.5 27zM270 -248l-19 18q16 33 26.5 68.5t16.5 84.5h113q-23 -46 -56.5 -88.5t-80.5 -82.5z" />
    <glyph glyph-name="S" unicode="S" horiz-adv-x="562" 
d="M275 25q60 0 99.5 28.5t39.5 89.5q0 45 -26.5 75t-94.5 50l-93 28q-70 21 -107.5 72.5t-37.5 128.5q0 51 23.5 95t72 71t122.5 27q81 0 131 -29.5t70 -76.5t10 -101l-115 -21q16 93 -13.5 143t-95.5 50q-51 0 -81.5 -30t-30.5 -86q0 -46 26.5 -81t87.5 -54l93 -28
q76 -22 114 -66.5t38 -123.5q0 -56 -25.5 -100.5t-77 -70t-128.5 -25.5q-56 0 -106 16.5t-83.5 54.5t-42.5 103l67 24q5 -64 28.5 -99.5t59 -49.5t76.5 -14z" />
    <glyph glyph-name="Sacute" unicode="&#x15a;" horiz-adv-x="562" 
d="M275 25q60 0 99.5 28.5t39.5 89.5q0 45 -26.5 75t-94.5 50l-93 28q-70 21 -107.5 72.5t-37.5 128.5q0 51 23.5 95t72 71t122.5 27q81 0 131 -29.5t70 -76.5t10 -101l-115 -21q16 93 -13.5 143t-95.5 50q-51 0 -81.5 -30t-30.5 -86q0 -46 26.5 -81t87.5 -54l93 -28
q76 -22 114 -66.5t38 -123.5q0 -56 -25.5 -100.5t-77 -70t-128.5 -25.5q-56 0 -106 16.5t-83.5 54.5t-42.5 103l67 24q5 -64 28.5 -99.5t59 -49.5t76.5 -14zM275 752l-24 21q20 32 36 63.5t26 76.5h126q-34 -46 -71 -83t-93 -78z" />
    <glyph glyph-name="Scaron" unicode="&#x160;" horiz-adv-x="562" 
d="M275 25q60 0 99.5 28.5t39.5 89.5q0 45 -26.5 75t-94.5 50l-93 28q-70 21 -107.5 72.5t-37.5 128.5q0 51 23.5 95t72 71t122.5 27q81 0 131 -29.5t70 -76.5t10 -101l-115 -21q16 93 -13.5 143t-95.5 50q-51 0 -81.5 -30t-30.5 -86q0 -46 26.5 -81t87.5 -54l93 -28
q76 -22 114 -66.5t38 -123.5q0 -56 -25.5 -100.5t-77 -70t-128.5 -25.5q-56 0 -106 16.5t-83.5 54.5t-42.5 103l67 24q5 -64 28.5 -99.5t59 -49.5t76.5 -14zM413 896q-24 -27 -39 -47t-26.5 -40.5l-27.5 -51.5h-88q-15 31 -27 51.5t-27 40.5t-39 47l14 22q36 -21 69 -44
t58 -45q51 46 119 89z" />
    <glyph glyph-name="Scedilla" unicode="&#x15e;" horiz-adv-x="562" 
d="M372 -140q0 -39 -33.5 -61t-85.5 -22q-41 0 -72 17.5t-39 60.5l55 14q4 -33 16.5 -46.5t31.5 -13.5q23 0 33.5 14.5t10.5 36.5q0 23 -11 38t-41 15q-4 0 -9.5 -0.5t-10.5 -1.5l-13 26l23 56q-46 6 -85 25t-65 55t-33 91l67 24q5 -64 28.5 -99.5t59 -49.5t76.5 -14
q60 0 99.5 28.5t39.5 89.5q0 45 -26.5 75t-94.5 50l-93 28q-70 21 -107.5 72.5t-37.5 128.5q0 51 23.5 95t72 71t122.5 27q81 0 131 -29.5t70 -76.5t10 -101l-115 -21q16 93 -13.5 143t-95.5 50q-51 0 -81.5 -30t-30.5 -86q0 -46 26.5 -81t87.5 -54l93 -28q76 -22 114 -66.5
t38 -123.5q0 -56 -25.5 -100.5t-77 -70t-128.5 -25.5h-10l-19 -45q57 -1 91 -23.5t34 -61.5z" />
    <glyph glyph-name="Scircumflex" unicode="&#x15c;" horiz-adv-x="562" 
d="M275 25q60 0 99.5 28.5t39.5 89.5q0 45 -26.5 75t-94.5 50l-93 28q-70 21 -107.5 72.5t-37.5 128.5q0 51 23.5 95t72 71t122.5 27q81 0 131 -29.5t70 -76.5t10 -101l-115 -21q16 93 -13.5 143t-95.5 50q-51 0 -81.5 -30t-30.5 -86q0 -46 26.5 -81t87.5 -54l93 -28
q76 -22 114 -66.5t38 -123.5q0 -56 -25.5 -100.5t-77 -70t-128.5 -25.5q-56 0 -106 16.5t-83.5 54.5t-42.5 103l67 24q5 -64 28.5 -99.5t59 -49.5t76.5 -14zM413 774l-14 -22q-36 21 -69 44t-58 45q-51 -46 -119 -89l-14 22q24 28 39 47.5t27 40t27 51.5h88l27.5 -51.5
t26.5 -40t39 -47.5z" />
    <glyph glyph-name="uni1E9E" unicode="&#x1e9e;" horiz-adv-x="660" 
d="M224 491v-491h-197v28l55 7q16 2 19 8.5t3 40.5v397q0 93 59.5 151t182.5 58q74 0 130 -22t96 -60v-22l-120 -206q79 -21 124.5 -72t45.5 -123v-16q0 -81 -53.5 -130t-139.5 -49q-34 0 -68 10.5t-58 34.5t-31 65l72 19q6 -40 19.5 -60t29.5 -27t28 -7q35 0 54 35t19 99
v36q0 51 -13.5 88t-47 57t-93.5 20h-8v29l128 219q-24 25 -52 36t-60 11q-59 0 -91.5 -39t-32.5 -125z" />
    <glyph glyph-name="T" unicode="T" horiz-adv-x="574" 
d="M12 680h550v-172h-28l-32 111q-3 13 -6.5 18.5t-13.5 6.5t-34 1h-101v-561q0 -34 3 -40.5t19 -8.5l55 -7v-28h-274v28l55 7q16 2 19 8.5t3 40.5v561h-101q-23 0 -33.5 -1t-13.5 -6.5t-7 -18.5l-32 -111h-28v172z" />
    <glyph glyph-name="Tbar" unicode="&#x166;" horiz-adv-x="574" 
d="M424 28v-28h-274v28l55 7q16 2 19 8.5t3 40.5v238h-141v35h141v288h-101q-23 0 -33.5 -1t-13.5 -6.5t-7 -18.5l-32 -111h-28v172h550v-172h-28l-32 111q-3 13 -6.5 18.5t-13.5 6.5t-34 1h-101v-288h141v-35h-141v-238q0 -34 3 -40.5t19 -8.5z" />
    <glyph glyph-name="Tcaron" unicode="&#x164;" horiz-adv-x="574" 
d="M12 680h550v-172h-28l-32 111q-3 13 -6.5 18.5t-13.5 6.5t-34 1h-101v-561q0 -34 3 -40.5t19 -8.5l55 -7v-28h-274v28l55 7q16 2 19 8.5t3 40.5v561h-101q-23 0 -33.5 -1t-13.5 -6.5t-7 -18.5l-32 -111h-28v172zM424 896q-24 -27 -39 -47t-26.5 -40.5l-27.5 -51.5h-88
q-15 31 -27 51.5t-27 40.5t-39 47l14 22q36 -21 69 -44t58 -45q51 46 119 89z" />
    <glyph glyph-name="U" unicode="U" horiz-adv-x="684" 
d="M461 652v28h194v-28l-55 -7q-16 -2 -19 -8.5t-3 -40.5v-365q0 -120 -50.5 -180.5t-154.5 -60.5q-121 0 -195 66t-74 190v350q0 34 -3 40.5t-19 8.5l-55 7v28h274v-28l-55 -7q-16 -2 -19 -8.5t-3 -40.5v-357q0 -112 41 -162t117 -50q74 0 115 47.5t41 154.5v367
q0 34 -3 40.5t-19 8.5z" />
    <glyph glyph-name="Uacute" unicode="&#xda;" horiz-adv-x="684" 
d="M461 652v28h194v-28l-55 -7q-16 -2 -19 -8.5t-3 -40.5v-365q0 -120 -50.5 -180.5t-154.5 -60.5q-121 0 -195 66t-74 190v350q0 34 -3 40.5t-19 8.5l-55 7v28h274v-28l-55 -7q-16 -2 -19 -8.5t-3 -40.5v-357q0 -112 41 -162t117 -50q74 0 115 47.5t41 154.5v367
q0 34 -3 40.5t-19 8.5zM381 752l-24 21q20 32 36 63.5t26 76.5h126q-34 -46 -71 -83t-93 -78z" />
    <glyph glyph-name="Ubreve" unicode="&#x16c;" horiz-adv-x="684" 
d="M461 652v28h194v-28l-55 -7q-16 -2 -19 -8.5t-3 -40.5v-365q0 -120 -50.5 -180.5t-154.5 -60.5q-121 0 -195 66t-74 190v350q0 34 -3 40.5t-19 8.5l-55 7v28h274v-28l-55 -7q-16 -2 -19 -8.5t-3 -40.5v-357q0 -112 41 -162t117 -50q74 0 115 47.5t41 154.5v367
q0 34 -3 40.5t-19 8.5zM382 834q47 0 75 19.5t38 64.5l33 -10q-14 -74 -50 -115t-96 -41t-96 41t-50 115l33 10q11 -45 39 -64.5t74 -19.5z" />
    <glyph glyph-name="Ucircumflex" unicode="&#xdb;" horiz-adv-x="684" 
d="M461 652v28h194v-28l-55 -7q-16 -2 -19 -8.5t-3 -40.5v-365q0 -120 -50.5 -180.5t-154.5 -60.5q-121 0 -195 66t-74 190v350q0 34 -3 40.5t-19 8.5l-55 7v28h274v-28l-55 -7q-16 -2 -19 -8.5t-3 -40.5v-357q0 -112 41 -162t117 -50q74 0 115 47.5t41 154.5v367
q0 34 -3 40.5t-19 8.5zM519 774l-14 -22q-36 21 -69 44t-58 45q-51 -46 -119 -89l-14 22q24 28 39 47.5t27 40t27 51.5h88l27.5 -51.5t26.5 -40t39 -47.5z" />
    <glyph glyph-name="Udieresis" unicode="&#xdc;" horiz-adv-x="684" 
d="M461 652v28h194v-28l-55 -7q-16 -2 -19 -8.5t-3 -40.5v-365q0 -120 -50.5 -180.5t-154.5 -60.5q-121 0 -195 66t-74 190v350q0 34 -3 40.5t-19 8.5l-55 7v28h274v-28l-55 -7q-16 -2 -19 -8.5t-3 -40.5v-357q0 -112 41 -162t117 -50q74 0 115 47.5t41 154.5v367
q0 34 -3 40.5t-19 8.5zM277 773q-28 0 -45 17.5t-17 45.5t17 45t45 17q27 0 45 -17t18 -45t-18 -45.5t-45 -17.5zM487 773q-28 0 -45 17.5t-17 45.5t17 45t45 17q27 0 45 -17t18 -45t-18 -45.5t-45 -17.5z" />
    <glyph glyph-name="Ugrave" unicode="&#xd9;" horiz-adv-x="684" 
d="M461 652v28h194v-28l-55 -7q-16 -2 -19 -8.5t-3 -40.5v-365q0 -120 -50.5 -180.5t-154.5 -60.5q-121 0 -195 66t-74 190v350q0 34 -3 40.5t-19 8.5l-55 7v28h274v-28l-55 -7q-16 -2 -19 -8.5t-3 -40.5v-357q0 -112 41 -162t117 -50q74 0 115 47.5t41 154.5v367
q0 34 -3 40.5t-19 8.5zM383 752q-55 41 -92.5 78t-71.5 83h126q11 -45 26.5 -76.5t35.5 -63.5z" />
    <glyph glyph-name="Uhungarumlaut" unicode="&#x170;" horiz-adv-x="684" 
d="M461 652v28h194v-28l-55 -7q-16 -2 -19 -8.5t-3 -40.5v-365q0 -120 -50.5 -180.5t-154.5 -60.5q-121 0 -195 66t-74 190v350q0 34 -3 40.5t-19 8.5l-55 7v28h274v-28l-55 -7q-16 -2 -19 -8.5t-3 -40.5v-357q0 -112 41 -162t117 -50q74 0 115 47.5t41 154.5v367
q0 34 -3 40.5t-19 8.5zM302 752l-27 24q20 30 32 61.5t22 75.5h111q-28 -45 -61 -83.5t-77 -77.5zM442 752l-27 24q20 30 32 61.5t22 75.5h111q-28 -45 -61 -83.5t-77 -77.5z" />
    <glyph glyph-name="Umacron" unicode="&#x16a;" horiz-adv-x="684" 
d="M461 652v28h194v-28l-55 -7q-16 -2 -19 -8.5t-3 -40.5v-365q0 -120 -50.5 -180.5t-154.5 -60.5q-121 0 -195 66t-74 190v350q0 34 -3 40.5t-19 8.5l-55 7v28h274v-28l-55 -7q-16 -2 -19 -8.5t-3 -40.5v-357q0 -112 41 -162t117 -50q74 0 115 47.5t41 154.5v367
q0 34 -3 40.5t-19 8.5zM526 847v-55h-287v55h287z" />
    <glyph glyph-name="Uogonek" unicode="&#x172;" horiz-adv-x="684" 
d="M461 652v28h194v-28l-55 -7q-16 -2 -19 -8.5t-3 -40.5v-365q0 -76 -16.5 -119t-46.5 -75q-27 -29 -55 -50t-46.5 -45.5t-18.5 -66.5q0 -64 44 -64q20 0 35 16.5t21 60.5l64 -13q-15 -54 -50.5 -76t-78.5 -22q-50 0 -84 25t-34 69q0 30 14.5 51t38.5 38t50 33
q-19 -3 -42 -3q-121 0 -195 66t-74 190v350q0 34 -3 40.5t-19 8.5l-55 7v28h274v-28l-55 -7q-16 -2 -19 -8.5t-3 -40.5v-357q0 -112 41 -162t117 -50q74 0 115 47.5t41 154.5v367q0 34 -3 40.5t-19 8.5z" />
    <glyph glyph-name="Uring" unicode="&#x16e;" horiz-adv-x="684" 
d="M461 652v28h194v-28l-55 -7q-16 -2 -19 -8.5t-3 -40.5v-365q0 -120 -50.5 -180.5t-154.5 -60.5q-121 0 -195 66t-74 190v350q0 34 -3 40.5t-19 8.5l-55 7v28h274v-28l-55 -7q-16 -2 -19 -8.5t-3 -40.5v-357q0 -112 41 -162t117 -50q74 0 115 47.5t41 154.5v367
q0 34 -3 40.5t-19 8.5zM505 862v-11q0 -28 -14.5 -54.5t-42 -43.5t-66.5 -17t-66.5 17t-42 43.5t-14.5 54.5v11q0 29 14.5 55t42 42.5t66.5 16.5t66.5 -16.5t42 -42.5t14.5 -55zM432 869q0 80 -50 80q-49 0 -49 -80v-25q0 -81 49 -81q50 0 50 81v25z" />
    <glyph glyph-name="Utilde" unicode="&#x168;" horiz-adv-x="684" 
d="M461 652v28h194v-28l-55 -7q-16 -2 -19 -8.5t-3 -40.5v-365q0 -120 -50.5 -180.5t-154.5 -60.5q-121 0 -195 66t-74 190v350q0 34 -3 40.5t-19 8.5l-55 7v28h274v-28l-55 -7q-16 -2 -19 -8.5t-3 -40.5v-357q0 -112 41 -162t117 -50q74 0 115 47.5t41 154.5v367
q0 34 -3 40.5t-19 8.5zM444 756q-22 0 -40.5 12.5t-34.5 29t-30.5 29t-28.5 12.5q-17 0 -26.5 -18.5t-14.5 -59.5h-36q8 80 29 118.5t60 38.5q22 0 40 -12.5t34 -29t30 -29t29 -12.5q17 0 26 19t14 59h36q-8 -80 -28.5 -118.5t-58.5 -38.5z" />
    <glyph glyph-name="V" unicode="V" horiz-adv-x="632" 
d="M549 596l-189 -596h-86l-190 596q-7 23 -11 32.5t-9 12.5t-16 4l-55 7v28h278v-28l-55 -7q-16 -2 -17 -8.5t9 -40.5l152 -477l150 477q11 34 9.5 40.5t-17.5 8.5l-55 7v28h192v-28l-55 -7q-10 -1 -15 -4t-9 -12.5t-11 -32.5z" />
    <glyph glyph-name="W" unicode="W" horiz-adv-x="938" 
d="M628 0l-164 546l-155 -546h-87l-139 596q-5 23 -8 32.5t-8.5 12.5t-16.5 4l-55 7v28h277v-28l-55 -7q-16 -2 -17 -8t6 -41l104 -466l153 550h83l163 -540l106 456q8 35 6 41t-17 8l-55 7v28h194v-28l-55 -7q-11 -1 -16 -4t-8.5 -12.5t-8.5 -32.5l-139 -596h-88z" />
    <glyph glyph-name="Wacute" unicode="&#x1e82;" horiz-adv-x="938" 
d="M628 0l-164 546l-155 -546h-87l-139 596q-5 23 -8 32.5t-8.5 12.5t-16.5 4l-55 7v28h277v-28l-55 -7q-16 -2 -17 -8t6 -41l104 -466l153 550h83l163 -540l106 456q8 35 6 41t-17 8l-55 7v28h194v-28l-55 -7q-11 -1 -16 -4t-8.5 -12.5t-8.5 -32.5l-139 -596h-88zM496 752
l-24 21q20 32 36 63.5t26 76.5h126q-34 -46 -71 -83t-93 -78z" />
    <glyph glyph-name="Wcircumflex" unicode="&#x174;" horiz-adv-x="938" 
d="M628 0l-164 546l-155 -546h-87l-139 596q-5 23 -8 32.5t-8.5 12.5t-16.5 4l-55 7v28h277v-28l-55 -7q-16 -2 -17 -8t6 -41l104 -466l153 550h83l163 -540l106 456q8 35 6 41t-17 8l-55 7v28h194v-28l-55 -7q-11 -1 -16 -4t-8.5 -12.5t-8.5 -32.5l-139 -596h-88zM634 774
l-14 -22q-36 21 -69 44t-58 45q-51 -46 -119 -89l-14 22q24 28 39 47.5t27 40t27 51.5h88l27.5 -51.5t26.5 -40t39 -47.5z" />
    <glyph glyph-name="Wdieresis" unicode="&#x1e84;" horiz-adv-x="938" 
d="M628 0l-164 546l-155 -546h-87l-139 596q-5 23 -8 32.5t-8.5 12.5t-16.5 4l-55 7v28h277v-28l-55 -7q-16 -2 -17 -8t6 -41l104 -466l153 550h83l163 -540l106 456q8 35 6 41t-17 8l-55 7v28h194v-28l-55 -7q-11 -1 -16 -4t-8.5 -12.5t-8.5 -32.5l-139 -596h-88zM392 773
q-28 0 -45 17.5t-17 45.5t17 45t45 17q27 0 45 -17t18 -45t-18 -45.5t-45 -17.5zM602 773q-28 0 -45 17.5t-17 45.5t17 45t45 17q27 0 45 -17t18 -45t-18 -45.5t-45 -17.5z" />
    <glyph glyph-name="Wgrave" unicode="&#x1e80;" horiz-adv-x="938" 
d="M628 0l-164 546l-155 -546h-87l-139 596q-5 23 -8 32.5t-8.5 12.5t-16.5 4l-55 7v28h277v-28l-55 -7q-16 -2 -17 -8t6 -41l104 -466l153 550h83l163 -540l106 456q8 35 6 41t-17 8l-55 7v28h194v-28l-55 -7q-11 -1 -16 -4t-8.5 -12.5t-8.5 -32.5l-139 -596h-88zM498 752
q-55 41 -92.5 78t-71.5 83h126q11 -45 26.5 -76.5t35.5 -63.5z" />
    <glyph glyph-name="X" unicode="X" horiz-adv-x="621" 
d="M198 28v-28h-197v28l55 7q10 2 15.5 4.5t13 12t21.5 32.5l151 240l-148 272q-12 23 -18 32.5t-11.5 12.5t-16.5 4l-55 7v28h286v-28l-55 -7q-15 -2 -15 -8.5t18 -40.5l100 -184l115 184q21 34 21.5 40.5t-15.5 8.5l-55 7v28h197v-28l-55 -7q-10 -1 -15.5 -4t-12.5 -12.5
t-22 -32.5l-138 -221l157 -291q12 -22 18 -32t12 -12.5t16 -4.5l55 -7v-28h-285v28l55 7q16 2 16 8.5t-19 40.5l-111 204l-127 -204q-21 -34 -21.5 -40.5t15.5 -8.5z" />
    <glyph glyph-name="Y" unicode="Y" horiz-adv-x="615" 
d="M446 28v-28h-274v28l55 7q16 2 19 8.5t3 40.5v207l-159 305q-12 23 -18 32.5t-11.5 12.5t-15.5 4l-55 7v28h285v-28l-55 -7q-15 -2 -15 -8.5t16 -40.5l129 -258l134 258q17 33 16.5 40t-15.5 9l-55 7v28h195v-28l-55 -7q-10 -1 -15.5 -4t-11 -12.5t-17.5 -32.5l-157 -303
v-209q0 -34 3 -40.5t19 -8.5z" />
    <glyph glyph-name="Yacute" unicode="&#xdd;" horiz-adv-x="615" 
d="M446 28v-28h-274v28l55 7q16 2 19 8.5t3 40.5v207l-159 305q-12 23 -18 32.5t-11.5 12.5t-15.5 4l-55 7v28h285v-28l-55 -7q-15 -2 -15 -8.5t16 -40.5l129 -258l134 258q17 33 16.5 40t-15.5 9l-55 7v28h195v-28l-55 -7q-10 -1 -15.5 -4t-11 -12.5t-17.5 -32.5l-157 -303
v-209q0 -34 3 -40.5t19 -8.5zM337 752l-24 21q20 32 36 63.5t26 76.5h126q-34 -46 -71 -83t-93 -78z" />
    <glyph glyph-name="Ycircumflex" unicode="&#x176;" horiz-adv-x="615" 
d="M446 28v-28h-274v28l55 7q16 2 19 8.5t3 40.5v207l-159 305q-12 23 -18 32.5t-11.5 12.5t-15.5 4l-55 7v28h285v-28l-55 -7q-15 -2 -15 -8.5t16 -40.5l129 -258l134 258q17 33 16.5 40t-15.5 9l-55 7v28h195v-28l-55 -7q-10 -1 -15.5 -4t-11 -12.5t-17.5 -32.5l-157 -303
v-209q0 -34 3 -40.5t19 -8.5zM475 774l-14 -22q-36 21 -69 44t-58 45q-51 -46 -119 -89l-14 22q24 28 39 47.5t27 40t27 51.5h88l27.5 -51.5t26.5 -40t39 -47.5z" />
    <glyph glyph-name="Ydieresis" unicode="&#x178;" horiz-adv-x="615" 
d="M446 28v-28h-274v28l55 7q16 2 19 8.5t3 40.5v207l-159 305q-12 23 -18 32.5t-11.5 12.5t-15.5 4l-55 7v28h285v-28l-55 -7q-15 -2 -15 -8.5t16 -40.5l129 -258l134 258q17 33 16.5 40t-15.5 9l-55 7v28h195v-28l-55 -7q-10 -1 -15.5 -4t-11 -12.5t-17.5 -32.5l-157 -303
v-209q0 -34 3 -40.5t19 -8.5zM232 773q-28 0 -45 17.5t-17 45.5t17 45t45 17q27 0 45 -17t18 -45t-18 -45.5t-45 -17.5zM442 773q-28 0 -45 17.5t-17 45.5t17 45t45 17q27 0 45 -17t18 -45t-18 -45.5t-45 -17.5z" />
    <glyph glyph-name="Ygrave" unicode="&#x1ef2;" horiz-adv-x="615" 
d="M446 28v-28h-274v28l55 7q16 2 19 8.5t3 40.5v207l-159 305q-12 23 -18 32.5t-11.5 12.5t-15.5 4l-55 7v28h285v-28l-55 -7q-15 -2 -15 -8.5t16 -40.5l129 -258l134 258q17 33 16.5 40t-15.5 9l-55 7v28h195v-28l-55 -7q-10 -1 -15.5 -4t-11 -12.5t-17.5 -32.5l-157 -303
v-209q0 -34 3 -40.5t19 -8.5zM339 752q-55 41 -92.5 78t-71.5 83h126q11 -45 26.5 -76.5t35.5 -63.5z" />
    <glyph glyph-name="Z" unicode="Z" horiz-adv-x="546" 
d="M480 172h28v-172h-470v25l324 620h-194q-23 0 -33.5 -1.5t-13.5 -7t-7 -17.5l-32 -111h-28v172h444v-25l-324 -620h220q24 0 34 1.5t13.5 7t6.5 17.5z" />
    <glyph glyph-name="Zacute" unicode="&#x179;" horiz-adv-x="546" 
d="M480 172h28v-172h-470v25l324 620h-194q-23 0 -33.5 -1.5t-13.5 -7t-7 -17.5l-32 -111h-28v172h444v-25l-324 -620h220q24 0 34 1.5t13.5 7t6.5 17.5zM273 752l-24 21q20 32 36 63.5t26 76.5h126q-34 -46 -71 -83t-93 -78z" />
    <glyph glyph-name="Zcaron" unicode="&#x17d;" horiz-adv-x="546" 
d="M480 172h28v-172h-470v25l324 620h-194q-23 0 -33.5 -1.5t-13.5 -7t-7 -17.5l-32 -111h-28v172h444v-25l-324 -620h220q24 0 34 1.5t13.5 7t6.5 17.5zM411 896q-24 -27 -39 -47t-26.5 -40.5l-27.5 -51.5h-88q-15 31 -27 51.5t-27 40.5t-39 47l14 22q36 -21 69 -44t58 -45
q51 46 119 89z" />
    <glyph glyph-name="Zdotaccent" unicode="&#x17b;" horiz-adv-x="546" 
d="M480 172h28v-172h-470v25l324 620h-194q-23 0 -33.5 -1.5t-13.5 -7t-7 -17.5l-32 -111h-28v172h444v-25l-324 -620h220q24 0 34 1.5t13.5 7t6.5 17.5zM273 766q-31 0 -50 19.5t-19 50.5t19 50t50 19q30 0 50 -19t20 -50t-20 -50.5t-50 -19.5z" />
    <glyph glyph-name="uni0162" unicode="&#x162;" horiz-adv-x="574" 
d="M12 680h550v-172h-28l-32 111q-3 13 -6.5 18.5t-13.5 6.5t-34 1h-101v-561q0 -34 3 -40.5t19 -8.5l55 -7v-28h-274v28l55 7q16 2 19 8.5t3 40.5v561h-101q-23 0 -33.5 -1t-13.5 -6.5t-7 -18.5l-32 -111h-28v172zM207 -248l-19 18q16 33 26.5 68.5t16.5 84.5h113
q-23 -46 -56.5 -88.5t-80.5 -82.5z" />
    <glyph glyph-name="uni0218" unicode="&#x218;" horiz-adv-x="562" 
d="M275 25q60 0 99.5 28.5t39.5 89.5q0 45 -26.5 75t-94.5 50l-93 28q-70 21 -107.5 72.5t-37.5 128.5q0 51 23.5 95t72 71t122.5 27q81 0 131 -29.5t70 -76.5t10 -101l-115 -21q16 93 -13.5 143t-95.5 50q-51 0 -81.5 -30t-30.5 -86q0 -46 26.5 -81t87.5 -54l93 -28
q76 -22 114 -66.5t38 -123.5q0 -56 -25.5 -100.5t-77 -70t-128.5 -25.5q-56 0 -106 16.5t-83.5 54.5t-42.5 103l67 24q5 -64 28.5 -99.5t59 -49.5t76.5 -14zM196 -248l-19 18q16 33 26.5 68.5t16.5 84.5h113q-23 -46 -56.5 -88.5t-80.5 -82.5z" />
    <glyph glyph-name="uni021A" unicode="&#x21a;" horiz-adv-x="574" 
d="M12 680h550v-172h-28l-32 111q-3 13 -6.5 18.5t-13.5 6.5t-34 1h-101v-561q0 -34 3 -40.5t19 -8.5l55 -7v-28h-274v28l55 7q16 2 19 8.5t3 40.5v561h-101q-23 0 -33.5 -1t-13.5 -6.5t-7 -18.5l-32 -111h-28v172zM207 -248l-19 18q16 33 26.5 68.5t16.5 84.5h113
q-23 -46 -56.5 -88.5t-80.5 -82.5z" />
    <glyph glyph-name="A.alt" horiz-adv-x="719" 
d="M22 427q-4 68 22.5 125.5t86.5 92.5t154 35h157l192 -596q7 -22 11 -32t9.5 -12.5t15.5 -4.5l55 -7v-28h-276v28l55 7q16 2 17.5 8.5t-9.5 40.5l-38 124h-229q-49 -152 -97 -247.5t-101.5 -139.5t-121.5 -44v110q74 0 124 38.5t88 114.5t74 188l134 417h-55
q-94 0 -133.5 -64t-27.5 -183zM256 243h207l-103 332z" />
    <glyph glyph-name="Aacute.alt" horiz-adv-x="719" 
d="M22 427q-4 68 22.5 125.5t86.5 92.5t154 35h157l192 -596q7 -22 11 -32t9.5 -12.5t15.5 -4.5l55 -7v-28h-276v28l55 7q16 2 17.5 8.5t-9.5 40.5l-38 124h-229q-49 -152 -97 -247.5t-101.5 -139.5t-121.5 -44v110q74 0 124 38.5t88 114.5t74 188l134 417h-55
q-94 0 -133.5 -64t-27.5 -183zM256 243h207l-103 332zM399 752l-24 21q20 32 36 63.5t26 76.5h126q-34 -46 -71 -83t-93 -78z" />
    <glyph glyph-name="Abreve.alt" horiz-adv-x="719" 
d="M22 427q-4 68 22.5 125.5t86.5 92.5t154 35h157l192 -596q7 -22 11 -32t9.5 -12.5t15.5 -4.5l55 -7v-28h-276v28l55 7q16 2 17.5 8.5t-9.5 40.5l-38 124h-229q-49 -152 -97 -247.5t-101.5 -139.5t-121.5 -44v110q74 0 124 38.5t88 114.5t74 188l134 417h-55
q-94 0 -133.5 -64t-27.5 -183zM256 243h207l-103 332zM400 834q47 0 75 19.5t38 64.5l33 -10q-14 -74 -50 -115t-96 -41t-96 41t-50 115l33 10q11 -45 39 -64.5t74 -19.5z" />
    <glyph glyph-name="Acircumflex.alt" horiz-adv-x="719" 
d="M22 427q-4 68 22.5 125.5t86.5 92.5t154 35h157l192 -596q7 -22 11 -32t9.5 -12.5t15.5 -4.5l55 -7v-28h-276v28l55 7q16 2 17.5 8.5t-9.5 40.5l-38 124h-229q-49 -152 -97 -247.5t-101.5 -139.5t-121.5 -44v110q74 0 124 38.5t88 114.5t74 188l134 417h-55
q-94 0 -133.5 -64t-27.5 -183zM256 243h207l-103 332zM537 774l-14 -22q-36 21 -69 44t-58 45q-51 -46 -119 -89l-14 22q24 28 39 47.5t27 40t27 51.5h88l27.5 -51.5t26.5 -40t39 -47.5z" />
    <glyph glyph-name="Adieresis.alt" horiz-adv-x="719" 
d="M22 427q-4 68 22.5 125.5t86.5 92.5t154 35h157l192 -596q7 -22 11 -32t9.5 -12.5t15.5 -4.5l55 -7v-28h-276v28l55 7q16 2 17.5 8.5t-9.5 40.5l-38 124h-229q-49 -152 -97 -247.5t-101.5 -139.5t-121.5 -44v110q74 0 124 38.5t88 114.5t74 188l134 417h-55
q-94 0 -133.5 -64t-27.5 -183zM256 243h207l-103 332zM289 773q-28 0 -45 17.5t-17 45.5t17 45t45 17q27 0 45 -17t18 -45t-18 -45.5t-45 -17.5zM499 773q-28 0 -45 17.5t-17 45.5t17 45t45 17q27 0 45 -17t18 -45t-18 -45.5t-45 -17.5z" />
    <glyph glyph-name="Agrave.alt" horiz-adv-x="719" 
d="M22 427q-4 68 22.5 125.5t86.5 92.5t154 35h157l192 -596q7 -22 11 -32t9.5 -12.5t15.5 -4.5l55 -7v-28h-276v28l55 7q16 2 17.5 8.5t-9.5 40.5l-38 124h-229q-49 -152 -97 -247.5t-101.5 -139.5t-121.5 -44v110q74 0 124 38.5t88 114.5t74 188l134 417h-55
q-94 0 -133.5 -64t-27.5 -183zM256 243h207l-103 332zM401 752q-55 41 -92.5 78t-71.5 83h126q11 -45 26.5 -76.5t35.5 -63.5z" />
    <glyph glyph-name="Amacron.alt" horiz-adv-x="719" 
d="M22 427q-4 68 22.5 125.5t86.5 92.5t154 35h157l192 -596q7 -22 11 -32t9.5 -12.5t15.5 -4.5l55 -7v-28h-276v28l55 7q16 2 17.5 8.5t-9.5 40.5l-38 124h-229q-49 -152 -97 -247.5t-101.5 -139.5t-121.5 -44v110q74 0 124 38.5t88 114.5t74 188l134 417h-55
q-94 0 -133.5 -64t-27.5 -183zM256 243h207l-103 332zM543 847v-55h-287v55h287z" />
    <glyph glyph-name="Aogonek.alt" horiz-adv-x="719" 
d="M22 427q-4 68 22.5 125.5t86.5 92.5t154 35h157l192 -596q7 -22 11 -32t9.5 -12.5t15.5 -4.5l55 -7v-28h-63q-68 0 -104.5 -38t-36.5 -91q0 -28 10.5 -44t32.5 -16q20 0 35.5 16.5t21.5 60.5l64 -13q-15 -54 -50.5 -76t-78.5 -22q-50 0 -84 25t-34 68q0 41 29.5 74
t71.5 54l-65 210h-229q-49 -152 -97 -247.5t-101.5 -139.5t-121.5 -44v110q74 0 124 38.5t88 114.5t74 188l134 417h-55q-94 0 -133.5 -64t-27.5 -183zM256 243h207l-103 332z" />
    <glyph glyph-name="Aring.alt" horiz-adv-x="639" 
d="M432 84l-38 124h-229q-49 -152 -97 -247.5t-101.5 -139.5t-121.5 -44v110q74 0 124 38.5t88 114.5t74 188l139 432q-38 13 -59 43.5t-21 64.5v11q0 29 14.5 55t42 42.5t66.5 16.5t66.5 -16.5t42 -42.5t14.5 -55v-11q0 -31 -18 -60t-51 -44l187 -580q7 -22 11 -32
t9.5 -12.5t15.5 -4.5l55 -7v-28h-276v28l55 7q16 2 17.5 8.5t-9.5 40.5zM363 786q0 80 -50 80q-49 0 -49 -80v-25q0 -81 49 -81q50 0 50 81v25zM176 243h207l-103 332z" />
    <glyph glyph-name="Atilde.alt" horiz-adv-x="719" 
d="M22 427q-4 68 22.5 125.5t86.5 92.5t154 35h157l192 -596q7 -22 11 -32t9.5 -12.5t15.5 -4.5l55 -7v-28h-276v28l55 7q16 2 17.5 8.5t-9.5 40.5l-38 124h-229q-49 -152 -97 -247.5t-101.5 -139.5t-121.5 -44v110q74 0 124 38.5t88 114.5t74 188l134 417h-55
q-94 0 -133.5 -64t-27.5 -183zM256 243h207l-103 332zM462 756q-22 0 -40.5 12.5t-34.5 29t-30.5 29t-28.5 12.5q-17 0 -26.5 -18.5t-14.5 -59.5h-36q8 80 29 118.5t60 38.5q22 0 40 -12.5t34 -29t30 -29t29 -12.5q17 0 26 19t14 59h36q-8 -80 -28.5 -118.5t-58.5 -38.5z
" />
    <glyph glyph-name="B.alt" horiz-adv-x="766" 
d="M5 427q-4 68 20.5 125.5t80 92.5t142.5 35h221q80 0 127 -22t67.5 -58t20.5 -80v-27q0 -52 -32.5 -89.5t-94.5 -53.5q76 -13 116.5 -54t40.5 -103v-28q0 -45 -21 -82.5t-69.5 -60t-129.5 -22.5h-301v28l55 7q16 2 19 8.5t3 40.5v561h-17q-82 0 -117.5 -64t-23.5 -183z
M469 645h-79v-280h79q43 0 65 29.5t22 93.5v32q0 65 -22 95t-65 30zM494 330h-104v-295h104q45 0 68.5 30.5t23.5 99.5v33q0 132 -92 132z" />
    <glyph glyph-name="D.alt" horiz-adv-x="819" 
d="M5 427q-4 68 20.5 125.5t80 92.5t142.5 35h240q128 0 196.5 -75t68.5 -233v-63q0 -158 -68.5 -233.5t-196.5 -75.5h-295v28l55 7q16 2 19 8.5t3 40.5v561h-17q-83 0 -118 -64t-23 -183zM483 645h-93v-610h93q51 0 82 17.5t45.5 66t14.5 140.5v163q0 92 -14.5 140
t-45.5 65.5t-82 17.5z" />
    <glyph glyph-name="Dcaron.alt" horiz-adv-x="819" 
d="M5 427q-4 68 20.5 125.5t80 92.5t142.5 35h240q128 0 196.5 -75t68.5 -233v-63q0 -158 -68.5 -233.5t-196.5 -75.5h-295v28l55 7q16 2 19 8.5t3 40.5v561h-17q-83 0 -118 -64t-23 -183zM483 645h-93v-610h93q51 0 82 17.5t45.5 66t14.5 140.5v163q0 92 -14.5 140
t-45.5 65.5t-82 17.5zM620 896q-24 -27 -39 -47t-26.5 -40.5l-27.5 -51.5h-88q-15 31 -27 51.5t-27 40.5t-39 47l14 22q36 -21 69 -44t58 -45q51 46 119 89z" />
    <glyph glyph-name="E.alt" horiz-adv-x="753" 
d="M660 172h28v-172h-495v28l55 7q16 2 19 8.5t3 40.5v561h-17q-83 0 -118 -64t-23 -183l-107 29q-4 68 20.5 125.5t80 92.5t142.5 35h430v-172h-28l-32 111q-3 12 -6.5 17.5t-13.5 7t-34 1.5h-174v-284h114q24 0 34 1.5t13.5 7t6.5 17.5l22 81h28v-249h-28l-22 81
q-3 12 -6.5 17.5t-13.5 7t-34 1.5h-114v-291h184q24 0 34 1.5t13.5 7t6.5 17.5z" />
    <glyph glyph-name="Eacute.alt" horiz-adv-x="753" 
d="M660 172h28v-172h-495v28l55 7q16 2 19 8.5t3 40.5v561h-17q-83 0 -118 -64t-23 -183l-107 29q-4 68 20.5 125.5t80 92.5t142.5 35h430v-172h-28l-32 111q-3 12 -6.5 17.5t-13.5 7t-34 1.5h-174v-284h114q24 0 34 1.5t13.5 7t6.5 17.5l22 81h28v-249h-28l-22 81
q-3 12 -6.5 17.5t-13.5 7t-34 1.5h-114v-291h184q24 0 34 1.5t13.5 7t6.5 17.5zM481 752l-24 21q20 32 36 63.5t26 76.5h126q-34 -46 -71 -83t-93 -78z" />
    <glyph glyph-name="Ebreve.alt" horiz-adv-x="753" 
d="M660 172h28v-172h-495v28l55 7q16 2 19 8.5t3 40.5v561h-17q-83 0 -118 -64t-23 -183l-107 29q-4 68 20.5 125.5t80 92.5t142.5 35h430v-172h-28l-32 111q-3 12 -6.5 17.5t-13.5 7t-34 1.5h-174v-284h114q24 0 34 1.5t13.5 7t6.5 17.5l22 81h28v-249h-28l-22 81
q-3 12 -6.5 17.5t-13.5 7t-34 1.5h-114v-291h184q24 0 34 1.5t13.5 7t6.5 17.5zM482 834q47 0 75 19.5t38 64.5l33 -10q-14 -74 -50 -115t-96 -41t-96 41t-50 115l33 10q11 -45 39 -64.5t74 -19.5z" />
    <glyph glyph-name="Ecaron.alt" horiz-adv-x="753" 
d="M660 172h28v-172h-495v28l55 7q16 2 19 8.5t3 40.5v561h-17q-83 0 -118 -64t-23 -183l-107 29q-4 68 20.5 125.5t80 92.5t142.5 35h430v-172h-28l-32 111q-3 12 -6.5 17.5t-13.5 7t-34 1.5h-174v-284h114q24 0 34 1.5t13.5 7t6.5 17.5l22 81h28v-249h-28l-22 81
q-3 12 -6.5 17.5t-13.5 7t-34 1.5h-114v-291h184q24 0 34 1.5t13.5 7t6.5 17.5zM619 896q-24 -27 -39 -47t-26.5 -40.5l-27.5 -51.5h-88q-15 31 -27 51.5t-27 40.5t-39 47l14 22q36 -21 69 -44t58 -45q51 46 119 89z" />
    <glyph glyph-name="Ecircumflex.alt" horiz-adv-x="753" 
d="M660 172h28v-172h-495v28l55 7q16 2 19 8.5t3 40.5v561h-17q-83 0 -118 -64t-23 -183l-107 29q-4 68 20.5 125.5t80 92.5t142.5 35h430v-172h-28l-32 111q-3 12 -6.5 17.5t-13.5 7t-34 1.5h-174v-284h114q24 0 34 1.5t13.5 7t6.5 17.5l22 81h28v-249h-28l-22 81
q-3 12 -6.5 17.5t-13.5 7t-34 1.5h-114v-291h184q24 0 34 1.5t13.5 7t6.5 17.5zM619 774l-14 -22q-36 21 -69 44t-58 45q-51 -46 -119 -89l-14 22q24 28 39 47.5t27 40t27 51.5h88l27.5 -51.5t26.5 -40t39 -47.5z" />
    <glyph glyph-name="Edieresis.alt" horiz-adv-x="753" 
d="M660 172h28v-172h-495v28l55 7q16 2 19 8.5t3 40.5v561h-17q-83 0 -118 -64t-23 -183l-107 29q-4 68 20.5 125.5t80 92.5t142.5 35h430v-172h-28l-32 111q-3 12 -6.5 17.5t-13.5 7t-34 1.5h-174v-284h114q24 0 34 1.5t13.5 7t6.5 17.5l22 81h28v-249h-28l-22 81
q-3 12 -6.5 17.5t-13.5 7t-34 1.5h-114v-291h184q24 0 34 1.5t13.5 7t6.5 17.5zM376 773q-28 0 -45 17.5t-17 45.5t17 45t45 17q27 0 45 -17t18 -45t-18 -45.5t-45 -17.5zM586 773q-28 0 -45 17.5t-17 45.5t17 45t45 17q27 0 45 -17t18 -45t-18 -45.5t-45 -17.5z" />
    <glyph glyph-name="Edotaccent.alt" horiz-adv-x="753" 
d="M660 172h28v-172h-495v28l55 7q16 2 19 8.5t3 40.5v561h-17q-83 0 -118 -64t-23 -183l-107 29q-4 68 20.5 125.5t80 92.5t142.5 35h430v-172h-28l-32 111q-3 12 -6.5 17.5t-13.5 7t-34 1.5h-174v-284h114q24 0 34 1.5t13.5 7t6.5 17.5l22 81h28v-249h-28l-22 81
q-3 12 -6.5 17.5t-13.5 7t-34 1.5h-114v-291h184q24 0 34 1.5t13.5 7t6.5 17.5zM481 766q-31 0 -50 19.5t-19 50.5t19 50t50 19q30 0 50 -19t20 -50t-20 -50.5t-50 -19.5z" />
    <glyph glyph-name="Egrave.alt" horiz-adv-x="753" 
d="M660 172h28v-172h-495v28l55 7q16 2 19 8.5t3 40.5v561h-17q-83 0 -118 -64t-23 -183l-107 29q-4 68 20.5 125.5t80 92.5t142.5 35h430v-172h-28l-32 111q-3 12 -6.5 17.5t-13.5 7t-34 1.5h-174v-284h114q24 0 34 1.5t13.5 7t6.5 17.5l22 81h28v-249h-28l-22 81
q-3 12 -6.5 17.5t-13.5 7t-34 1.5h-114v-291h184q24 0 34 1.5t13.5 7t6.5 17.5zM483 752q-55 41 -92.5 78t-71.5 83h126q11 -45 26.5 -76.5t35.5 -63.5z" />
    <glyph glyph-name="Emacron.alt" horiz-adv-x="753" 
d="M660 172h28v-172h-495v28l55 7q16 2 19 8.5t3 40.5v561h-17q-83 0 -118 -64t-23 -183l-107 29q-4 68 20.5 125.5t80 92.5t142.5 35h430v-172h-28l-32 111q-3 12 -6.5 17.5t-13.5 7t-34 1.5h-174v-284h114q24 0 34 1.5t13.5 7t6.5 17.5l22 81h28v-249h-28l-22 81
q-3 12 -6.5 17.5t-13.5 7t-34 1.5h-114v-291h184q24 0 34 1.5t13.5 7t6.5 17.5zM625 847v-55h-287v55h287z" />
    <glyph glyph-name="Eogonek.alt" horiz-adv-x="753" 
d="M660 172h28v-172h-23q-68 0 -104.5 -38t-36.5 -91q0 -28 10.5 -44t32.5 -16q20 0 35.5 16.5t21.5 60.5l64 -13q-15 -54 -50.5 -76t-78.5 -22q-50 0 -84 25t-34 68q0 44 35 77.5t82 52.5h-365v28l55 7q16 2 19 8.5t3 40.5v561h-17q-83 0 -118 -64t-23 -183l-107 29
q-4 68 20.5 125.5t80 92.5t142.5 35h430v-172h-28l-32 111q-3 12 -6.5 17.5t-13.5 7t-34 1.5h-174v-284h114q24 0 34 1.5t13.5 7t6.5 17.5l22 81h28v-249h-28l-22 81q-3 12 -6.5 17.5t-13.5 7t-34 1.5h-114v-291h184q24 0 34 1.5t13.5 7t6.5 17.5z" />
    <glyph glyph-name="F.alt" horiz-adv-x="704" 
d="M569 462h28v-249h-28l-22 81q-3 12 -6.5 17.5t-13.5 7t-34 1.5h-103v-236q0 -34 3 -40.5t19 -8.5l75 -7v-28h-294v28l55 7q16 2 19 8.5t3 40.5v561h-17q-83 0 -118 -64t-23 -183l-107 29q-4 68 20.5 125.5t80 92.5t142.5 35h419v-172h-28l-32 111q-3 12 -6.5 17.5
t-13.5 7t-34 1.5h-163v-290h103q24 0 34 1.5t13.5 7t6.5 17.5z" />
    <glyph glyph-name="G.alt" horiz-adv-x="663" 
d="M361 280v28h284v-28l-55 -7q-16 -2 -19 -8.5t-3 -40.5v-243q0 -51 -21.5 -98t-66 -76.5t-115.5 -29.5q-35 0 -69.5 10t-59 37t-31.5 77l69 20q3 -66 28 -87.5t58 -21.5q23 0 45.5 12t37.5 44t15 93v88q-25 -17 -57 -28t-74 -11q-82 0 -140.5 41.5t-89.5 115t-31 167.5v43
q0 91 31 161.5t91 111t147 40.5q82 0 135.5 -29.5t78.5 -78t19 -105.5l-117 -29q11 100 -22 153.5t-98 53.5q-137 0 -137 -243v-123q0 -244 145 -244q32 0 64.5 13t54.5 38v128q0 34 -3 41t-19 8z" />
    <glyph glyph-name="Gbreve.alt" horiz-adv-x="663" 
d="M361 280v28h284v-28l-55 -7q-16 -2 -19 -8.5t-3 -40.5v-243q0 -51 -21.5 -98t-66 -76.5t-115.5 -29.5q-35 0 -69.5 10t-59 37t-31.5 77l69 20q3 -66 28 -87.5t58 -21.5q23 0 45.5 12t37.5 44t15 93v88q-25 -17 -57 -28t-74 -11q-82 0 -140.5 41.5t-89.5 115t-31 167.5v43
q0 91 31 161.5t91 111t147 40.5q82 0 135.5 -29.5t78.5 -78t19 -105.5l-117 -29q11 100 -22 153.5t-98 53.5q-137 0 -137 -243v-123q0 -244 145 -244q32 0 64.5 13t54.5 38v128q0 34 -3 41t-19 8zM341 834q47 0 75 19.5t38 64.5l33 -10q-14 -74 -50 -115t-96 -41t-96 41
t-50 115l33 10q11 -45 39 -64.5t74 -19.5z" />
    <glyph glyph-name="Gcircumflex.alt" horiz-adv-x="663" 
d="M361 280v28h284v-28l-55 -7q-16 -2 -19 -8.5t-3 -40.5v-243q0 -51 -21.5 -98t-66 -76.5t-115.5 -29.5q-35 0 -69.5 10t-59 37t-31.5 77l69 20q3 -66 28 -87.5t58 -21.5q23 0 45.5 12t37.5 44t15 93v88q-25 -17 -57 -28t-74 -11q-82 0 -140.5 41.5t-89.5 115t-31 167.5v43
q0 91 31 161.5t91 111t147 40.5q82 0 135.5 -29.5t78.5 -78t19 -105.5l-117 -29q11 100 -22 153.5t-98 53.5q-137 0 -137 -243v-123q0 -244 145 -244q32 0 64.5 13t54.5 38v128q0 34 -3 41t-19 8zM478 774l-14 -22q-36 21 -69 44t-58 45q-51 -46 -119 -89l-14 22
q24 28 39 47.5t27 40t27 51.5h88l27.5 -51.5t26.5 -40t39 -47.5z" />
    <glyph glyph-name="Gdotaccent.alt" horiz-adv-x="663" 
d="M361 280v28h284v-28l-55 -7q-16 -2 -19 -8.5t-3 -40.5v-243q0 -51 -21.5 -98t-66 -76.5t-115.5 -29.5q-35 0 -69.5 10t-59 37t-31.5 77l69 20q3 -66 28 -87.5t58 -21.5q23 0 45.5 12t37.5 44t15 93v88q-25 -17 -57 -28t-74 -11q-82 0 -140.5 41.5t-89.5 115t-31 167.5v43
q0 91 31 161.5t91 111t147 40.5q82 0 135.5 -29.5t78.5 -78t19 -105.5l-117 -29q11 100 -22 153.5t-98 53.5q-137 0 -137 -243v-123q0 -244 145 -244q32 0 64.5 13t54.5 38v128q0 34 -3 41t-19 8zM340 766q-31 0 -50 19.5t-19 50.5t19 50t50 19q30 0 50 -19t20 -50
t-20 -50.5t-50 -19.5z" />
    <glyph glyph-name="H.alt" horiz-adv-x="893" 
d="M850 28v-28h-274v28l55 7q16 2 19 8.5t3 40.5v242h-263v-242q0 -34 3 -40.5t19 -8.5l55 -7v-28h-274v28l55 7q16 2 19 8.5t3 40.5v561h-17q-83 0 -118 -64t-23 -183l-107 29q-4 68 20.5 125.5t80 92.5t142.5 35h219v-28l-55 -7q-16 -2 -19 -8.5t-3 -40.5v-235h263v235
q0 34 -3 40.5t-19 8.5l-55 7v28h274v-28l-55 -7q-16 -2 -19 -8.5t-3 -40.5v-512q0 -34 3 -40.5t19 -8.5z" />
    <glyph glyph-name="Hcircumflex.alt" horiz-adv-x="893" 
d="M850 28v-28h-274v28l55 7q16 2 19 8.5t3 40.5v242h-263v-242q0 -34 3 -40.5t19 -8.5l55 -7v-28h-274v28l55 7q16 2 19 8.5t3 40.5v561h-17q-83 0 -118 -64t-23 -183l-107 29q-4 68 20.5 125.5t80 92.5t142.5 35h219v-28l-55 -7q-16 -2 -19 -8.5t-3 -40.5v-235h263v235
q0 34 -3 40.5t-19 8.5l-55 7v28h274v-28l-55 -7q-16 -2 -19 -8.5t-3 -40.5v-512q0 -34 3 -40.5t19 -8.5zM659 774l-14 -22q-36 21 -69 44t-58 45q-51 -46 -119 -89l-14 22q24 28 39 47.5t27 40t27 51.5h88l27.5 -51.5t26.5 -40t39 -47.5z" />
    <glyph glyph-name="J.alt" horiz-adv-x="497" 
d="M5 427q-4 68 20.5 125.5t80 92.5t142.5 35h218v-28l-55 -7q-16 -2 -19 -8.5t-3 -40.5v-402q0 -57 -19 -103.5t-62 -73.5t-115 -27q-37 0 -72.5 12.5t-61 45.5t-33.5 94l69 20q3 -55 16 -84.5t33 -41t43 -11.5t41.5 12t29.5 44t11 93v471h-16q-83 0 -118 -64t-23 -183z
" />
    <glyph glyph-name="Jcircumflex.alt" horiz-adv-x="497" 
d="M5 427q-4 68 20.5 125.5t80 92.5t142.5 35h218v-28l-55 -7q-16 -2 -19 -8.5t-3 -40.5v-402q0 -57 -19 -103.5t-62 -73.5t-115 -27q-37 0 -72.5 12.5t-61 45.5t-33.5 94l69 20q3 -55 16 -84.5t33 -41t43 -11.5t41.5 12t29.5 44t11 93v471h-16q-83 0 -118 -64t-23 -183z
M467 774l-14 -22q-36 21 -69 44t-58 45q-51 -46 -119 -89l-14 22q24 28 39 47.5t27 40t27 51.5h88l27.5 -51.5t26.5 -40t39 -47.5z" />
    <glyph glyph-name="K.alt" horiz-adv-x="806" 
d="M5 427q-4 68 20.5 125.5t80 92.5t142.5 35h219v-28l-55 -7q-16 -2 -19 -8.5t-3 -40.5v-269l237 269q29 33 30.5 40t-14.5 9l-55 7v28h203v-28l-55 -7q-10 -1 -16 -4t-15 -13l-29 -32l-140 -158l173 -354q11 -21 17 -31t14 -13t22 -5l45 -7v-28h-190l-162 346l-65 -74
v-188q0 -34 3 -40.5t19 -8.5l55 -7v-28h-274v28l55 7q16 2 19 8.5t3 40.5v561h-17q-83 0 -118 -64t-23 -183z" />
    <glyph glyph-name="uni0136.alt" horiz-adv-x="806" 
d="M5 427q-4 68 20.5 125.5t80 92.5t142.5 35h219v-28l-55 -7q-16 -2 -19 -8.5t-3 -40.5v-269l237 269q29 33 30.5 40t-14.5 9l-55 7v28h203v-28l-55 -7q-10 -1 -16 -4t-15 -13l-29 -32l-140 -158l173 -354q11 -21 17 -31t14 -13t22 -5l45 -7v-28h-190l-162 346l-65 -74
v-188q0 -34 3 -40.5t19 -8.5l55 -7v-28h-274v28l55 7q16 2 19 8.5t3 40.5v561h-17q-83 0 -118 -64t-23 -183zM422 -248l-19 18q16 33 26.5 68.5t16.5 84.5h113q-23 -46 -56.5 -88.5t-80.5 -82.5z" />
    <glyph glyph-name="L.alt" horiz-adv-x="682" 
d="M640 172h28v-172h-475v28l55 7q16 2 19 8.5t3 40.5v561h-17q-83 0 -118 -64t-23 -183l-107 29q-4 68 20.5 125.5t80 92.5t142.5 35h219v-28l-55 -7q-16 -2 -19 -8.5t-3 -40.5v-561h164q24 0 34 1.5t13.5 7t6.5 17.5z" />
    <glyph glyph-name="Lacute.alt" horiz-adv-x="682" 
d="M640 172h28v-172h-475v28l55 7q16 2 19 8.5t3 40.5v561h-17q-83 0 -118 -64t-23 -183l-107 29q-4 68 20.5 125.5t80 92.5t142.5 35h219v-28l-55 -7q-16 -2 -19 -8.5t-3 -40.5v-561h164q24 0 34 1.5t13.5 7t6.5 17.5zM334 752l-24 21q20 32 36 63.5t26 76.5h126
q-34 -46 -71 -83t-93 -78z" />
    <glyph glyph-name="Lcaron.alt" horiz-adv-x="682" 
d="M640 172h28v-172h-475v28l55 7q16 2 19 8.5t3 40.5v561h-17q-83 0 -118 -64t-23 -183l-107 29q-4 68 20.5 125.5t80 92.5t142.5 35h219v-28l-55 -7q-16 -2 -19 -8.5t-3 -40.5v-561h164q24 0 34 1.5t13.5 7t6.5 17.5zM542 466h-24v214h109q-18 -56 -37.5 -106t-47.5 -108z
" />
    <glyph glyph-name="uni013B.alt" horiz-adv-x="682" 
d="M640 172h28v-172h-475v28l55 7q16 2 19 8.5t3 40.5v561h-17q-83 0 -118 -64t-23 -183l-107 29q-4 68 20.5 125.5t80 92.5t142.5 35h219v-28l-55 -7q-16 -2 -19 -8.5t-3 -40.5v-561h164q24 0 34 1.5t13.5 7t6.5 17.5zM364 -248l-19 18q16 33 26.5 68.5t16.5 84.5h113
q-23 -46 -56.5 -88.5t-80.5 -82.5z" />
    <glyph glyph-name="M.alt" horiz-adv-x="1021" 
d="M978 28v-28h-274v28l55 7q16 2 19 8.5t3 40.5v514l-183 -518h-107l-181 515v-511q0 -34 3 -40.5t19 -8.5l55 -7v-28h-194v28l55 7q16 2 19 8.5t3 40.5v561h-17q-83 0 -118 -64t-23 -183l-107 29q-4 68 20.5 125.5t80 92.5t142.5 35h158l182 -517l185 517h205v-28l-55 -7
q-16 -2 -19 -8.5t-3 -40.5v-512q0 -34 3 -40.5t19 -8.5z" />
    <glyph glyph-name="N.alt" horiz-adv-x="837" 
d="M615 652v28h194v-28l-55 -7q-16 -2 -19 -8.5t-3 -40.5v-596h-55l-367 593v-509q0 -34 3 -40.5t19 -8.5l55 -7v-28h-194v28l55 7q16 2 19 8.5t3 40.5v561h-17q-83 0 -118 -64t-23 -183l-107 29q-4 68 20.5 125.5t80 92.5t142.5 35h146l298 -479v395q0 34 -3 40.5t-19 8.5z
" />
    <glyph glyph-name="Nacute.alt" horiz-adv-x="837" 
d="M615 652v28h194v-28l-55 -7q-16 -2 -19 -8.5t-3 -40.5v-596h-55l-367 593v-509q0 -34 3 -40.5t19 -8.5l55 -7v-28h-194v28l55 7q16 2 19 8.5t3 40.5v561h-17q-83 0 -118 -64t-23 -183l-107 29q-4 68 20.5 125.5t80 92.5t142.5 35h146l298 -479v395q0 34 -3 40.5t-19 8.5z
M509 752l-24 21q20 32 36 63.5t26 76.5h126q-34 -46 -71 -83t-93 -78z" />
    <glyph glyph-name="Ncaron.alt" horiz-adv-x="837" 
d="M615 652v28h194v-28l-55 -7q-16 -2 -19 -8.5t-3 -40.5v-596h-55l-367 593v-509q0 -34 3 -40.5t19 -8.5l55 -7v-28h-194v28l55 7q16 2 19 8.5t3 40.5v561h-17q-83 0 -118 -64t-23 -183l-107 29q-4 68 20.5 125.5t80 92.5t142.5 35h146l298 -479v395q0 34 -3 40.5t-19 8.5z
M647 896q-24 -27 -39 -47t-26.5 -40.5l-27.5 -51.5h-88q-15 31 -27 51.5t-27 40.5t-39 47l14 22q36 -21 69 -44t58 -45q51 46 119 89z" />
    <glyph glyph-name="uni0145.alt" horiz-adv-x="837" 
d="M615 652v28h194v-28l-55 -7q-16 -2 -19 -8.5t-3 -40.5v-596h-55l-367 593v-509q0 -34 3 -40.5t19 -8.5l55 -7v-28h-194v28l55 7q16 2 19 8.5t3 40.5v561h-17q-83 0 -118 -64t-23 -183l-107 29q-4 68 20.5 125.5t80 92.5t142.5 35h146l298 -479v395q0 34 -3 40.5t-19 8.5z
M425 -248l-19 18q16 33 26.5 68.5t16.5 84.5h113q-23 -46 -56.5 -88.5t-80.5 -82.5z" />
    <glyph glyph-name="Eng.alt" horiz-adv-x="837" 
d="M754 645q-16 -2 -19 -8.5t-3 -40.5v-615q0 -51 -18 -98t-58.5 -76.5t-108.5 -29.5q-33 0 -66.5 12.5t-58.5 45.5t-33 94l69 20q3 -55 15 -84.5t30.5 -41t39.5 -11.5q18 0 35 12t28 44t11 93v136l-307 496v-509q0 -34 3 -40.5t19 -8.5l55 -7v-28h-194v28l55 7q16 2 19 8.5
t3 40.5v561h-17q-83 0 -118 -64t-23 -183l-107 29q-4 68 20.5 125.5t80 92.5t142.5 35h146l298 -479v395q0 34 -3 40.5t-19 8.5l-55 7v28h194v-28z" />
    <glyph glyph-name="Ntilde.alt" horiz-adv-x="837" 
d="M615 652v28h194v-28l-55 -7q-16 -2 -19 -8.5t-3 -40.5v-596h-55l-367 593v-509q0 -34 3 -40.5t19 -8.5l55 -7v-28h-194v28l55 7q16 2 19 8.5t3 40.5v561h-17q-83 0 -118 -64t-23 -183l-107 29q-4 68 20.5 125.5t80 92.5t142.5 35h146l298 -479v395q0 34 -3 40.5t-19 8.5z
M572 756q-22 0 -40.5 12.5t-34.5 29t-30.5 29t-28.5 12.5q-17 0 -26.5 -18.5t-14.5 -59.5h-36q8 80 29 118.5t60 38.5q22 0 40 -12.5t34 -29t30 -29t29 -12.5q17 0 26 19t14 59h36q-8 -80 -28.5 -118.5t-58.5 -38.5z" />
    <glyph glyph-name="P.alt" horiz-adv-x="748" 
d="M5 427q-4 68 20.5 125.5t80 92.5t142.5 35h246q110 0 164.5 -50.5t54.5 -134.5v-23q0 -84 -54.5 -135t-164.5 -51h-104v-202q0 -34 3 -40.5t19 -8.5l75 -7v-28h-294v28l55 7q16 2 19 8.5t3 40.5v561h-17q-83 0 -118 -64t-23 -183zM494 645h-104v-324h104q44 0 67.5 35
t23.5 96v63q0 61 -23.5 95.5t-67.5 34.5z" />
    <glyph glyph-name="R.alt" horiz-adv-x="801" 
d="M5 427q-4 68 20.5 125.5t80 92.5t142.5 35h247q105 0 162 -47t57 -126v-23q0 -60 -33 -102t-95 -60l125 -238q12 -22 18 -32t11.5 -12.5t15.5 -4.5l45 -7v-28h-187l-151 310h-73v-226q0 -34 3 -40.5t19 -8.5l55 -7v-28h-274v28l55 7q16 2 19 8.5t3 40.5v561h-17
q-83 0 -118 -64t-23 -183zM495 645h-105v-300h105q44 0 67.5 27.5t23.5 101.5v43q0 74 -23.5 101t-67.5 27z" />
    <glyph glyph-name="Racute.alt" horiz-adv-x="801" 
d="M5 427q-4 68 20.5 125.5t80 92.5t142.5 35h247q105 0 162 -47t57 -126v-23q0 -60 -33 -102t-95 -60l125 -238q12 -22 18 -32t11.5 -12.5t15.5 -4.5l45 -7v-28h-187l-151 310h-73v-226q0 -34 3 -40.5t19 -8.5l55 -7v-28h-274v28l55 7q16 2 19 8.5t3 40.5v561h-17
q-83 0 -118 -64t-23 -183zM495 645h-105v-300h105q44 0 67.5 27.5t23.5 101.5v43q0 74 -23.5 101t-67.5 27zM471 752l-24 21q20 32 36 63.5t26 76.5h126q-34 -46 -71 -83t-93 -78z" />
    <glyph glyph-name="Rcaron.alt" horiz-adv-x="801" 
d="M5 427q-4 68 20.5 125.5t80 92.5t142.5 35h247q105 0 162 -47t57 -126v-23q0 -60 -33 -102t-95 -60l125 -238q12 -22 18 -32t11.5 -12.5t15.5 -4.5l45 -7v-28h-187l-151 310h-73v-226q0 -34 3 -40.5t19 -8.5l55 -7v-28h-274v28l55 7q16 2 19 8.5t3 40.5v561h-17
q-83 0 -118 -64t-23 -183zM495 645h-105v-300h105q44 0 67.5 27.5t23.5 101.5v43q0 74 -23.5 101t-67.5 27zM609 896q-24 -27 -39 -47t-26.5 -40.5l-27.5 -51.5h-88q-15 31 -27 51.5t-27 40.5t-39 47l14 22q36 -21 69 -44t58 -45q51 46 119 89z" />
    <glyph glyph-name="uni0156.alt" horiz-adv-x="801" 
d="M5 427q-4 68 20.5 125.5t80 92.5t142.5 35h247q105 0 162 -47t57 -126v-23q0 -60 -33 -102t-95 -60l125 -238q12 -22 18 -32t11.5 -12.5t15.5 -4.5l45 -7v-28h-187l-151 310h-73v-226q0 -34 3 -40.5t19 -8.5l55 -7v-28h-274v28l55 7q16 2 19 8.5t3 40.5v561h-17
q-83 0 -118 -64t-23 -183zM495 645h-105v-300h105q44 0 67.5 27.5t23.5 101.5v43q0 74 -23.5 101t-67.5 27zM420 -248l-19 18q16 33 26.5 68.5t16.5 84.5h113q-23 -46 -56.5 -88.5t-80.5 -82.5z" />
    <glyph glyph-name="S.alt" horiz-adv-x="734" 
d="M5 5q-3 49 15.5 90.5t68.5 67t139 25.5h55q5 -64 28.5 -99.5t59 -49.5t76.5 -14q60 0 99.5 28.5t39.5 89.5q0 45 -26.5 75t-94.5 50l-93 28q-70 21 -107.5 72.5t-37.5 128.5q0 51 23.5 95t72 71t122.5 27q81 0 131 -29.5t70 -76.5t10 -101l-115 -21q16 93 -13.5 143
t-95.5 50q-51 0 -81.5 -30t-30.5 -86q0 -46 26.5 -81t87.5 -54l93 -28q76 -22 114 -66.5t38 -123.5q0 -56 -25.5 -100.5t-77 -70t-128.5 -25.5q-54 0 -103 15.5t-83 52t-45 97.5q-73 -4 -93 -50t-12 -129z" />
    <glyph glyph-name="Sacute.alt" horiz-adv-x="734" 
d="M5 5q-3 49 15.5 90.5t68.5 67t139 25.5h55q5 -64 28.5 -99.5t59 -49.5t76.5 -14q60 0 99.5 28.5t39.5 89.5q0 45 -26.5 75t-94.5 50l-93 28q-70 21 -107.5 72.5t-37.5 128.5q0 51 23.5 95t72 71t122.5 27q81 0 131 -29.5t70 -76.5t10 -101l-115 -21q16 93 -13.5 143
t-95.5 50q-51 0 -81.5 -30t-30.5 -86q0 -46 26.5 -81t87.5 -54l93 -28q76 -22 114 -66.5t38 -123.5q0 -56 -25.5 -100.5t-77 -70t-128.5 -25.5q-54 0 -103 15.5t-83 52t-45 97.5q-73 -4 -93 -50t-12 -129zM447 752l-24 21q20 32 36 63.5t26 76.5h126q-34 -46 -71 -83
t-93 -78z" />
    <glyph glyph-name="Scaron.alt" horiz-adv-x="734" 
d="M5 5q-3 49 15.5 90.5t68.5 67t139 25.5h55q5 -64 28.5 -99.5t59 -49.5t76.5 -14q60 0 99.5 28.5t39.5 89.5q0 45 -26.5 75t-94.5 50l-93 28q-70 21 -107.5 72.5t-37.5 128.5q0 51 23.5 95t72 71t122.5 27q81 0 131 -29.5t70 -76.5t10 -101l-115 -21q16 93 -13.5 143
t-95.5 50q-51 0 -81.5 -30t-30.5 -86q0 -46 26.5 -81t87.5 -54l93 -28q76 -22 114 -66.5t38 -123.5q0 -56 -25.5 -100.5t-77 -70t-128.5 -25.5q-54 0 -103 15.5t-83 52t-45 97.5q-73 -4 -93 -50t-12 -129zM585 896q-24 -27 -39 -47t-26.5 -40.5l-27.5 -51.5h-88
q-15 31 -27 51.5t-27 40.5t-39 47l14 22q36 -21 69 -44t58 -45q51 46 119 89z" />
    <glyph glyph-name="Scedilla.alt" horiz-adv-x="734" 
d="M544 -140q0 -39 -33.5 -61t-85.5 -22q-41 0 -72 17.5t-39 60.5l55 14q4 -33 16.5 -46.5t31.5 -13.5q23 0 33.5 14.5t10.5 36.5q0 23 -11 38t-41 15q-4 0 -9.5 -0.5t-10.5 -1.5l-13 26l23 56q-67 9 -117.5 46.5t-64.5 115.5q-73 -4 -93 -50t-12 -129l-107 29
q-3 49 15.5 90.5t68.5 67t139 25.5h55q5 -64 28.5 -99.5t59 -49.5t76.5 -14q60 0 99.5 28.5t39.5 89.5q0 45 -26.5 75t-94.5 50l-93 28q-70 21 -107.5 72.5t-37.5 128.5q0 51 23.5 95t72 71t122.5 27q81 0 131 -29.5t70 -76.5t10 -101l-115 -21q16 93 -13.5 143t-95.5 50
q-51 0 -81.5 -30t-30.5 -86q0 -46 26.5 -81t87.5 -54l93 -28q76 -22 114 -66.5t38 -123.5q0 -56 -25.5 -100.5t-77 -70t-128.5 -25.5h-10l-19 -45q57 -1 91 -23.5t34 -61.5z" />
    <glyph glyph-name="Scircumflex.alt" horiz-adv-x="734" 
d="M5 5q-3 49 15.5 90.5t68.5 67t139 25.5h55q5 -64 28.5 -99.5t59 -49.5t76.5 -14q60 0 99.5 28.5t39.5 89.5q0 45 -26.5 75t-94.5 50l-93 28q-70 21 -107.5 72.5t-37.5 128.5q0 51 23.5 95t72 71t122.5 27q81 0 131 -29.5t70 -76.5t10 -101l-115 -21q16 93 -13.5 143
t-95.5 50q-51 0 -81.5 -30t-30.5 -86q0 -46 26.5 -81t87.5 -54l93 -28q76 -22 114 -66.5t38 -123.5q0 -56 -25.5 -100.5t-77 -70t-128.5 -25.5q-54 0 -103 15.5t-83 52t-45 97.5q-73 -4 -93 -50t-12 -129zM585 774l-14 -22q-36 21 -69 44t-58 45q-51 -46 -119 -89l-14 22
q24 28 39 47.5t27 40t27 51.5h88l27.5 -51.5t26.5 -40t39 -47.5z" />
    <glyph glyph-name="uni0218.alt" horiz-adv-x="734" 
d="M5 5q-3 49 15.5 90.5t68.5 67t139 25.5h55q5 -64 28.5 -99.5t59 -49.5t76.5 -14q60 0 99.5 28.5t39.5 89.5q0 45 -26.5 75t-94.5 50l-93 28q-70 21 -107.5 72.5t-37.5 128.5q0 51 23.5 95t72 71t122.5 27q81 0 131 -29.5t70 -76.5t10 -101l-115 -21q16 93 -13.5 143
t-95.5 50q-51 0 -81.5 -30t-30.5 -86q0 -46 26.5 -81t87.5 -54l93 -28q76 -22 114 -66.5t38 -123.5q0 -56 -25.5 -100.5t-77 -70t-128.5 -25.5q-54 0 -103 15.5t-83 52t-45 97.5q-73 -4 -93 -50t-12 -129zM368 -248l-19 18q16 33 26.5 68.5t16.5 84.5h113
q-23 -46 -56.5 -88.5t-80.5 -82.5z" />
    <glyph glyph-name="T.alt" horiz-adv-x="646" 
d="M248 680h386v-172h-28l-32 111q-3 13 -6.5 18.5t-13.5 6.5t-34 1h-101v-561q0 -34 3 -40.5t19 -8.5l55 -7v-28h-274v28l55 7q16 2 19 8.5t3 40.5v561h-46q-83 0 -118 -64t-23 -183l-107 29q-4 68 20.5 125.5t80 92.5t142.5 35z" />
    <glyph glyph-name="Tbar.alt" horiz-adv-x="646" 
d="M496 28v-28h-274v28l55 7q16 2 19 8.5t3 40.5v238h-141v35h141v288h-46q-83 0 -118 -64t-23 -183l-107 29q-4 68 20.5 125.5t80 92.5t142.5 35h386v-172h-28l-32 111q-3 13 -6.5 18.5t-13.5 6.5t-34 1h-101v-288h141v-35h-141v-238q0 -34 3 -40.5t19 -8.5z" />
    <glyph glyph-name="Tcaron.alt" horiz-adv-x="646" 
d="M248 680h386v-172h-28l-32 111q-3 13 -6.5 18.5t-13.5 6.5t-34 1h-101v-561q0 -34 3 -40.5t19 -8.5l55 -7v-28h-274v28l55 7q16 2 19 8.5t3 40.5v561h-46q-83 0 -118 -64t-23 -183l-107 29q-4 68 20.5 125.5t80 92.5t142.5 35zM496 896q-24 -27 -39 -47t-26.5 -40.5
l-27.5 -51.5h-88q-15 31 -27 51.5t-27 40.5t-39 47l14 22q36 -21 69 -44t58 -45q51 46 119 89z" />
    <glyph glyph-name="uni0162.alt" horiz-adv-x="646" 
d="M248 680h386v-172h-28l-32 111q-3 13 -6.5 18.5t-13.5 6.5t-34 1h-101v-561q0 -34 3 -40.5t19 -8.5l55 -7v-28h-274v28l55 7q16 2 19 8.5t3 40.5v561h-46q-83 0 -118 -64t-23 -183l-107 29q-4 68 20.5 125.5t80 92.5t142.5 35zM279 -248l-19 18q16 33 26.5 68.5
t16.5 84.5h113q-23 -46 -56.5 -88.5t-80.5 -82.5z" />
    <glyph glyph-name="uni021A.alt" horiz-adv-x="646" 
d="M248 680h386v-172h-28l-32 111q-3 13 -6.5 18.5t-13.5 6.5t-34 1h-101v-561q0 -34 3 -40.5t19 -8.5l55 -7v-28h-274v28l55 7q16 2 19 8.5t3 40.5v561h-46q-83 0 -118 -64t-23 -183l-107 29q-4 68 20.5 125.5t80 92.5t142.5 35zM279 -248l-19 18q16 33 26.5 68.5
t16.5 84.5h113q-23 -46 -56.5 -88.5t-80.5 -82.5z" />
    <glyph glyph-name="U.alt" horiz-adv-x="850" 
d="M627 652v28h194v-28l-55 -7q-16 -2 -19 -8.5t-3 -40.5v-365q0 -120 -50.5 -180.5t-154.5 -60.5q-121 0 -195 66t-74 190v399h-17q-83 0 -118 -64t-23 -183l-107 29q-4 68 20.5 125.5t80 92.5t142.5 35h219v-28l-55 -7q-16 -2 -19 -8.5t-3 -40.5v-357q0 -112 41 -162
t117 -50q74 0 115 47.5t41 154.5v367q0 34 -3 40.5t-19 8.5z" />
    <glyph glyph-name="Uacute.alt" horiz-adv-x="850" 
d="M627 652v28h194v-28l-55 -7q-16 -2 -19 -8.5t-3 -40.5v-365q0 -120 -50.5 -180.5t-154.5 -60.5q-121 0 -195 66t-74 190v399h-17q-83 0 -118 -64t-23 -183l-107 29q-4 68 20.5 125.5t80 92.5t142.5 35h219v-28l-55 -7q-16 -2 -19 -8.5t-3 -40.5v-357q0 -112 41 -162
t117 -50q74 0 115 47.5t41 154.5v367q0 34 -3 40.5t-19 8.5zM547 752l-24 21q20 32 36 63.5t26 76.5h126q-34 -46 -71 -83t-93 -78z" />
    <glyph glyph-name="Ubreve.alt" horiz-adv-x="850" 
d="M627 652v28h194v-28l-55 -7q-16 -2 -19 -8.5t-3 -40.5v-365q0 -120 -50.5 -180.5t-154.5 -60.5q-121 0 -195 66t-74 190v399h-17q-83 0 -118 -64t-23 -183l-107 29q-4 68 20.5 125.5t80 92.5t142.5 35h219v-28l-55 -7q-16 -2 -19 -8.5t-3 -40.5v-357q0 -112 41 -162
t117 -50q74 0 115 47.5t41 154.5v367q0 34 -3 40.5t-19 8.5zM548 834q47 0 75 19.5t38 64.5l33 -10q-14 -74 -50 -115t-96 -41t-96 41t-50 115l33 10q11 -45 39 -64.5t74 -19.5z" />
    <glyph glyph-name="Ucircumflex.alt" horiz-adv-x="850" 
d="M627 652v28h194v-28l-55 -7q-16 -2 -19 -8.5t-3 -40.5v-365q0 -120 -50.5 -180.5t-154.5 -60.5q-121 0 -195 66t-74 190v399h-17q-83 0 -118 -64t-23 -183l-107 29q-4 68 20.5 125.5t80 92.5t142.5 35h219v-28l-55 -7q-16 -2 -19 -8.5t-3 -40.5v-357q0 -112 41 -162
t117 -50q74 0 115 47.5t41 154.5v367q0 34 -3 40.5t-19 8.5zM685 774l-14 -22q-36 21 -69 44t-58 45q-51 -46 -119 -89l-14 22q24 28 39 47.5t27 40t27 51.5h88l27.5 -51.5t26.5 -40t39 -47.5z" />
    <glyph glyph-name="Udieresis.alt" horiz-adv-x="850" 
d="M627 652v28h194v-28l-55 -7q-16 -2 -19 -8.5t-3 -40.5v-365q0 -120 -50.5 -180.5t-154.5 -60.5q-121 0 -195 66t-74 190v399h-17q-83 0 -118 -64t-23 -183l-107 29q-4 68 20.5 125.5t80 92.5t142.5 35h219v-28l-55 -7q-16 -2 -19 -8.5t-3 -40.5v-357q0 -112 41 -162
t117 -50q74 0 115 47.5t41 154.5v367q0 34 -3 40.5t-19 8.5zM443 773q-28 0 -45 17.5t-17 45.5t17 45t45 17q27 0 45 -17t18 -45t-18 -45.5t-45 -17.5zM653 773q-28 0 -45 17.5t-17 45.5t17 45t45 17q27 0 45 -17t18 -45t-18 -45.5t-45 -17.5z" />
    <glyph glyph-name="Ugrave.alt" horiz-adv-x="850" 
d="M627 652v28h194v-28l-55 -7q-16 -2 -19 -8.5t-3 -40.5v-365q0 -120 -50.5 -180.5t-154.5 -60.5q-121 0 -195 66t-74 190v399h-17q-83 0 -118 -64t-23 -183l-107 29q-4 68 20.5 125.5t80 92.5t142.5 35h219v-28l-55 -7q-16 -2 -19 -8.5t-3 -40.5v-357q0 -112 41 -162
t117 -50q74 0 115 47.5t41 154.5v367q0 34 -3 40.5t-19 8.5zM549 752q-55 41 -92.5 78t-71.5 83h126q11 -45 26.5 -76.5t35.5 -63.5z" />
    <glyph glyph-name="Uhungarumlaut.alt" horiz-adv-x="850" 
d="M627 652v28h194v-28l-55 -7q-16 -2 -19 -8.5t-3 -40.5v-365q0 -120 -50.5 -180.5t-154.5 -60.5q-121 0 -195 66t-74 190v399h-17q-83 0 -118 -64t-23 -183l-107 29q-4 68 20.5 125.5t80 92.5t142.5 35h219v-28l-55 -7q-16 -2 -19 -8.5t-3 -40.5v-357q0 -112 41 -162
t117 -50q74 0 115 47.5t41 154.5v367q0 34 -3 40.5t-19 8.5zM468 752l-27 24q20 30 32 61.5t22 75.5h111q-28 -45 -61 -83.5t-77 -77.5zM608 752l-27 24q20 30 32 61.5t22 75.5h111q-28 -45 -61 -83.5t-77 -77.5z" />
    <glyph glyph-name="Umacron.alt" horiz-adv-x="850" 
d="M627 652v28h194v-28l-55 -7q-16 -2 -19 -8.5t-3 -40.5v-365q0 -120 -50.5 -180.5t-154.5 -60.5q-121 0 -195 66t-74 190v399h-17q-83 0 -118 -64t-23 -183l-107 29q-4 68 20.5 125.5t80 92.5t142.5 35h219v-28l-55 -7q-16 -2 -19 -8.5t-3 -40.5v-357q0 -112 41 -162
t117 -50q74 0 115 47.5t41 154.5v367q0 34 -3 40.5t-19 8.5zM692 847v-55h-287v55h287z" />
    <glyph glyph-name="Uogonek.alt" horiz-adv-x="850" 
d="M627 652v28h194v-28l-55 -7q-16 -2 -19 -8.5t-3 -40.5v-365q0 -76 -16.5 -119t-46.5 -75q-27 -29 -54.5 -50t-46.5 -45.5t-19 -66.5q0 -64 44 -64q20 0 35 16.5t21 60.5l64 -13q-15 -54 -50.5 -76t-78.5 -22q-50 0 -84 25t-34 69q0 30 14.5 51t38.5 38t50 33
q-19 -3 -42 -3q-121 0 -195 66t-74 190v399h-17q-83 0 -118 -64t-23 -183l-107 29q-4 68 20.5 125.5t80 92.5t142.5 35h219v-28l-55 -7q-16 -2 -19 -8.5t-3 -40.5v-357q0 -112 41 -162t117 -50q74 0 115 47.5t41 154.5v367q0 34 -3 40.5t-19 8.5z" />
    <glyph glyph-name="Uring.alt" horiz-adv-x="850" 
d="M627 652v28h194v-28l-55 -7q-16 -2 -19 -8.5t-3 -40.5v-365q0 -120 -50.5 -180.5t-154.5 -60.5q-121 0 -195 66t-74 190v399h-17q-83 0 -118 -64t-23 -183l-107 29q-4 68 20.5 125.5t80 92.5t142.5 35h219v-28l-55 -7q-16 -2 -19 -8.5t-3 -40.5v-357q0 -112 41 -162
t117 -50q74 0 115 47.5t41 154.5v367q0 34 -3 40.5t-19 8.5zM671 862v-11q0 -28 -14.5 -54.5t-42 -43.5t-66.5 -17t-66.5 17t-42 43.5t-14.5 54.5v11q0 29 14.5 55t42 42.5t66.5 16.5t66.5 -16.5t42 -42.5t14.5 -55zM598 869q0 80 -50 80q-49 0 -49 -80v-25q0 -81 49 -81
q50 0 50 81v25z" />
    <glyph glyph-name="Utilde.alt" horiz-adv-x="850" 
d="M627 652v28h194v-28l-55 -7q-16 -2 -19 -8.5t-3 -40.5v-365q0 -120 -50.5 -180.5t-154.5 -60.5q-121 0 -195 66t-74 190v399h-17q-83 0 -118 -64t-23 -183l-107 29q-4 68 20.5 125.5t80 92.5t142.5 35h219v-28l-55 -7q-16 -2 -19 -8.5t-3 -40.5v-357q0 -112 41 -162
t117 -50q74 0 115 47.5t41 154.5v367q0 34 -3 40.5t-19 8.5zM610 756q-22 0 -40.5 12.5t-34.5 29t-30.5 29t-28.5 12.5q-17 0 -26.5 -18.5t-14.5 -59.5h-36q8 80 29 118.5t60 38.5q22 0 40 -12.5t34 -29t30 -29t29 -12.5q17 0 26 19t14 59h36q-8 -80 -28.5 -118.5
t-58.5 -38.5z" />
    <glyph glyph-name="V.alt" horiz-adv-x="794" 
d="M5 427q-4 68 20.5 125.5t80 92.5t142.5 35h185v-28l-55 -7q-16 -2 -17 -8.5t9 -40.5l152 -475l105 331q51 160 99.5 259.5t103 145.5t123.5 46v-110q-73 0 -123.5 -38.5t-88.5 -114t-74 -188.5l-145 -452h-86l-205 644q-71 -9 -100.5 -72t-18.5 -174z" />
    <glyph glyph-name="W.alt" horiz-adv-x="1113" 
d="M5 427q-4 68 20.5 125.5t80 92.5t142.5 35h199v-28l-55 -7q-16 -2 -17 -8t6 -41l104 -466l153 550h83l166 -549l70 321q29 131 63.5 218t75.5 138t88 73t99 22v-110q-73 0 -126.5 -33.5t-92 -108.5t-67.5 -199l-106 -452h-88l-164 546l-155 -546h-87l-150 645
q-80 -2 -113.5 -66t-21.5 -181z" />
    <glyph glyph-name="Wacute.alt" horiz-adv-x="1113" 
d="M5 427q-4 68 20.5 125.5t80 92.5t142.5 35h199v-28l-55 -7q-16 -2 -17 -8t6 -41l104 -466l153 550h83l166 -549l70 321q29 131 63.5 218t75.5 138t88 73t99 22v-110q-73 0 -126.5 -33.5t-92 -108.5t-67.5 -199l-106 -452h-88l-164 546l-155 -546h-87l-150 645
q-80 -2 -113.5 -66t-21.5 -181zM671 752l-24 21q20 32 36 63.5t26 76.5h126q-34 -46 -71 -83t-93 -78z" />
    <glyph glyph-name="Wcircumflex.alt" horiz-adv-x="1113" 
d="M5 427q-4 68 20.5 125.5t80 92.5t142.5 35h199v-28l-55 -7q-16 -2 -17 -8t6 -41l104 -466l153 550h83l166 -549l70 321q29 131 63.5 218t75.5 138t88 73t99 22v-110q-73 0 -126.5 -33.5t-92 -108.5t-67.5 -199l-106 -452h-88l-164 546l-155 -546h-87l-150 645
q-80 -2 -113.5 -66t-21.5 -181zM809 774l-14 -22q-36 21 -69 44t-58 45q-51 -46 -119 -89l-14 22q24 28 39 47.5t27 40t27 51.5h88l27.5 -51.5t26.5 -40t39 -47.5z" />
    <glyph glyph-name="Wdieresis.alt" horiz-adv-x="1113" 
d="M5 427q-4 68 20.5 125.5t80 92.5t142.5 35h199v-28l-55 -7q-16 -2 -17 -8t6 -41l104 -466l153 550h83l166 -549l70 321q29 131 63.5 218t75.5 138t88 73t99 22v-110q-73 0 -126.5 -33.5t-92 -108.5t-67.5 -199l-106 -452h-88l-164 546l-155 -546h-87l-150 645
q-80 -2 -113.5 -66t-21.5 -181zM567 773q-28 0 -45 17.5t-17 45.5t17 45t45 17q27 0 45 -17t18 -45t-18 -45.5t-45 -17.5zM777 773q-28 0 -45 17.5t-17 45.5t17 45t45 17q27 0 45 -17t18 -45t-18 -45.5t-45 -17.5z" />
    <glyph glyph-name="Wgrave.alt" horiz-adv-x="1113" 
d="M5 427q-4 68 20.5 125.5t80 92.5t142.5 35h199v-28l-55 -7q-16 -2 -17 -8t6 -41l104 -466l153 550h83l166 -549l70 321q29 131 63.5 218t75.5 138t88 73t99 22v-110q-73 0 -126.5 -33.5t-92 -108.5t-67.5 -199l-106 -452h-88l-164 546l-155 -546h-87l-150 645
q-80 -2 -113.5 -66t-21.5 -181zM673 752q-55 41 -92.5 78t-71.5 83h126q11 -45 26.5 -76.5t35.5 -63.5z" />
    <glyph glyph-name="X.alt" horiz-adv-x="754" 
d="M5 427q-4 68 20.5 125.5t80 92.5t142.5 35h179v-28l-55 -7q-15 -2 -15 -8.5t18 -40.5l100 -184l115 184q21 34 21.5 40.5t-15.5 8.5l-55 7v28h197v-28l-55 -7q-10 -1 -15.5 -4t-12.5 -12.5t-22 -32.5l-138 -221l157 -291q12 -22 18 -32t12 -12.5t16 -4.5l55 -7v-28h-285
v28l55 7q16 2 16 8.5t-19 40.5l-111 204l-127 -204q-21 -34 -21.5 -40.5t15.5 -8.5l55 -7v-28h-197v28l55 7q10 2 15.5 4.5t13 12t21.5 32.5l151 240l-173 317q-64 -13 -89.5 -75t-15.5 -168z" />
    <glyph glyph-name="Y.alt" horiz-adv-x="768" 
d="M5 427q-4 68 20.5 125.5t80 92.5t142.5 35h180v-28l-55 -7q-15 -2 -15 -8.5t16 -40.5l129 -258l134 258q17 33 16.5 40t-15.5 9l-55 7v28h195v-28l-55 -7q-10 -1 -15.5 -4t-11 -12.5t-17.5 -32.5l-157 -303v-209q0 -34 3 -40.5t19 -8.5l55 -7v-28h-274v28l55 7
q16 2 19 8.5t3 40.5v207l-183 351q-64 -13 -90.5 -75.5t-16.5 -168.5z" />
    <glyph glyph-name="Yacute.alt" horiz-adv-x="768" 
d="M5 427q-4 68 20.5 125.5t80 92.5t142.5 35h180v-28l-55 -7q-15 -2 -15 -8.5t16 -40.5l129 -258l134 258q17 33 16.5 40t-15.5 9l-55 7v28h195v-28l-55 -7q-10 -1 -15.5 -4t-11 -12.5t-17.5 -32.5l-157 -303v-209q0 -34 3 -40.5t19 -8.5l55 -7v-28h-274v28l55 7
q16 2 19 8.5t3 40.5v207l-183 351q-64 -13 -90.5 -75.5t-16.5 -168.5zM490 752l-24 21q20 32 36 63.5t26 76.5h126q-34 -46 -71 -83t-93 -78z" />
    <glyph glyph-name="Ycircumflex.alt" horiz-adv-x="768" 
d="M5 427q-4 68 20.5 125.5t80 92.5t142.5 35h180v-28l-55 -7q-15 -2 -15 -8.5t16 -40.5l129 -258l134 258q17 33 16.5 40t-15.5 9l-55 7v28h195v-28l-55 -7q-10 -1 -15.5 -4t-11 -12.5t-17.5 -32.5l-157 -303v-209q0 -34 3 -40.5t19 -8.5l55 -7v-28h-274v28l55 7
q16 2 19 8.5t3 40.5v207l-183 351q-64 -13 -90.5 -75.5t-16.5 -168.5zM628 774l-14 -22q-36 21 -69 44t-58 45q-51 -46 -119 -89l-14 22q24 28 39 47.5t27 40t27 51.5h88l27.5 -51.5t26.5 -40t39 -47.5z" />
    <glyph glyph-name="Ydieresis.alt" horiz-adv-x="768" 
d="M5 427q-4 68 20.5 125.5t80 92.5t142.5 35h180v-28l-55 -7q-15 -2 -15 -8.5t16 -40.5l129 -258l134 258q17 33 16.5 40t-15.5 9l-55 7v28h195v-28l-55 -7q-10 -1 -15.5 -4t-11 -12.5t-17.5 -32.5l-157 -303v-209q0 -34 3 -40.5t19 -8.5l55 -7v-28h-274v28l55 7
q16 2 19 8.5t3 40.5v207l-183 351q-64 -13 -90.5 -75.5t-16.5 -168.5zM385 773q-28 0 -45 17.5t-17 45.5t17 45t45 17q27 0 45 -17t18 -45t-18 -45.5t-45 -17.5zM595 773q-28 0 -45 17.5t-17 45.5t17 45t45 17q27 0 45 -17t18 -45t-18 -45.5t-45 -17.5z" />
    <glyph glyph-name="Ygrave.alt" horiz-adv-x="768" 
d="M5 427q-4 68 20.5 125.5t80 92.5t142.5 35h180v-28l-55 -7q-15 -2 -15 -8.5t16 -40.5l129 -258l134 258q17 33 16.5 40t-15.5 9l-55 7v28h195v-28l-55 -7q-10 -1 -15.5 -4t-11 -12.5t-17.5 -32.5l-157 -303v-209q0 -34 3 -40.5t19 -8.5l55 -7v-28h-274v28l55 7
q16 2 19 8.5t3 40.5v207l-183 351q-64 -13 -90.5 -75.5t-16.5 -168.5zM492 752q-55 41 -92.5 78t-71.5 83h126q11 -45 26.5 -76.5t35.5 -63.5z" />
    <glyph glyph-name="a" unicode="a" horiz-adv-x="538" 
d="M533 25q-16 -15 -38.5 -25t-54.5 -10q-41 0 -68.5 18t-36.5 51q-33 -36 -72.5 -52.5t-80.5 -16.5q-69 0 -103 38.5t-34 96.5q0 59 43 95.5t152 36.5h91v81q0 83 -21.5 113.5t-59.5 30.5q-25 0 -46 -12.5t-29.5 -46t2.5 -96.5l-110 16q-8 46 10.5 85.5t62.5 64t112 24.5
q77 0 119 -25t58.5 -66t16.5 -88v-231q0 -51 9 -64t20 -13q18 0 40 21zM226 43q26 0 51.5 13.5t53.5 50.5v115h-75q-49 0 -71 -23t-22 -72q0 -40 16 -62t47 -22z" />
    <glyph glyph-name="aacute" unicode="&#xe1;" horiz-adv-x="538" 
d="M533 25q-16 -15 -38.5 -25t-54.5 -10q-41 0 -68.5 18t-36.5 51q-33 -36 -72.5 -52.5t-80.5 -16.5q-69 0 -103 38.5t-34 96.5q0 59 43 95.5t152 36.5h91v81q0 83 -21.5 113.5t-59.5 30.5q-25 0 -46 -12.5t-29.5 -46t2.5 -96.5l-110 16q-8 46 10.5 85.5t62.5 64t112 24.5
q77 0 119 -25t58.5 -66t16.5 -88v-231q0 -51 9 -64t20 -13q18 0 40 21zM226 43q26 0 51.5 13.5t53.5 50.5v115h-75q-49 0 -71 -23t-22 -72q0 -40 16 -62t47 -22zM252 579l-24 21q20 32 36 63.5t26 76.5h126q-34 -46 -71 -83t-93 -78z" />
    <glyph glyph-name="abreve" unicode="&#x103;" horiz-adv-x="538" 
d="M533 25q-16 -15 -38.5 -25t-54.5 -10q-41 0 -68.5 18t-36.5 51q-33 -36 -72.5 -52.5t-80.5 -16.5q-69 0 -103 38.5t-34 96.5q0 59 43 95.5t152 36.5h91v81q0 83 -21.5 113.5t-59.5 30.5q-25 0 -46 -12.5t-29.5 -46t2.5 -96.5l-110 16q-8 46 10.5 85.5t62.5 64t112 24.5
q77 0 119 -25t58.5 -66t16.5 -88v-231q0 -51 9 -64t20 -13q18 0 40 21zM226 43q26 0 51.5 13.5t53.5 50.5v115h-75q-49 0 -71 -23t-22 -72q0 -40 16 -62t47 -22zM253 661q47 0 75 19.5t38 64.5l33 -10q-14 -74 -50 -115t-96 -41t-96 41t-50 115l33 10q11 -45 39 -64.5
t74 -19.5z" />
    <glyph glyph-name="acircumflex" unicode="&#xe2;" horiz-adv-x="538" 
d="M533 25q-16 -15 -38.5 -25t-54.5 -10q-41 0 -68.5 18t-36.5 51q-33 -36 -72.5 -52.5t-80.5 -16.5q-69 0 -103 38.5t-34 96.5q0 59 43 95.5t152 36.5h91v81q0 83 -21.5 113.5t-59.5 30.5q-25 0 -46 -12.5t-29.5 -46t2.5 -96.5l-110 16q-8 46 10.5 85.5t62.5 64t112 24.5
q77 0 119 -25t58.5 -66t16.5 -88v-231q0 -51 9 -64t20 -13q18 0 40 21zM226 43q26 0 51.5 13.5t53.5 50.5v115h-75q-49 0 -71 -23t-22 -72q0 -40 16 -62t47 -22zM390 601l-14 -22q-36 21 -69 44t-58 45q-51 -46 -119 -89l-14 22q24 28 39 47.5t27 40t27 51.5h88l27.5 -51.5
t26.5 -40t39 -47.5z" />
    <glyph glyph-name="adieresis" unicode="&#xe4;" horiz-adv-x="538" 
d="M533 25q-16 -15 -38.5 -25t-54.5 -10q-41 0 -68.5 18t-36.5 51q-33 -36 -72.5 -52.5t-80.5 -16.5q-69 0 -103 38.5t-34 96.5q0 59 43 95.5t152 36.5h91v81q0 83 -21.5 113.5t-59.5 30.5q-25 0 -46 -12.5t-29.5 -46t2.5 -96.5l-110 16q-8 46 10.5 85.5t62.5 64t112 24.5
q77 0 119 -25t58.5 -66t16.5 -88v-231q0 -51 9 -64t20 -13q18 0 40 21zM226 43q26 0 51.5 13.5t53.5 50.5v115h-75q-49 0 -71 -23t-22 -72q0 -40 16 -62t47 -22zM148 600q-28 0 -45 17.5t-17 45.5t17 45t45 17q27 0 45 -17t18 -45t-18 -45.5t-45 -17.5zM358 600
q-28 0 -45 17.5t-17 45.5t17 45t45 17q27 0 45 -17t18 -45t-18 -45.5t-45 -17.5z" />
    <glyph glyph-name="agrave" unicode="&#xe0;" horiz-adv-x="538" 
d="M533 25q-16 -15 -38.5 -25t-54.5 -10q-41 0 -68.5 18t-36.5 51q-33 -36 -72.5 -52.5t-80.5 -16.5q-69 0 -103 38.5t-34 96.5q0 59 43 95.5t152 36.5h91v81q0 83 -21.5 113.5t-59.5 30.5q-25 0 -46 -12.5t-29.5 -46t2.5 -96.5l-110 16q-8 46 10.5 85.5t62.5 64t112 24.5
q77 0 119 -25t58.5 -66t16.5 -88v-231q0 -51 9 -64t20 -13q18 0 40 21zM226 43q26 0 51.5 13.5t53.5 50.5v115h-75q-49 0 -71 -23t-22 -72q0 -40 16 -62t47 -22zM254 579q-55 41 -92.5 78t-71.5 83h126q11 -45 26.5 -76.5t35.5 -63.5z" />
    <glyph glyph-name="amacron" unicode="&#x101;" horiz-adv-x="538" 
d="M533 25q-16 -15 -38.5 -25t-54.5 -10q-41 0 -68.5 18t-36.5 51q-33 -36 -72.5 -52.5t-80.5 -16.5q-69 0 -103 38.5t-34 96.5q0 59 43 95.5t152 36.5h91v81q0 83 -21.5 113.5t-59.5 30.5q-25 0 -46 -12.5t-29.5 -46t2.5 -96.5l-110 16q-8 46 10.5 85.5t62.5 64t112 24.5
q77 0 119 -25t58.5 -66t16.5 -88v-231q0 -51 9 -64t20 -13q18 0 40 21zM226 43q26 0 51.5 13.5t53.5 50.5v115h-75q-49 0 -71 -23t-22 -72q0 -40 16 -62t47 -22zM397 674v-55h-287v55h287z" />
    <glyph glyph-name="aogonek" unicode="&#x105;" horiz-adv-x="538" 
d="M533 -125q-15 -54 -50.5 -76t-78.5 -22q-50 0 -84 24.5t-34 64.5q0 32 19.5 55t50 40t62.5 30q-68 9 -83 68q-33 -36 -72.5 -52.5t-80.5 -16.5q-69 0 -103 38.5t-34 96.5q0 59 43 95.5t152 36.5h91v81q0 83 -21.5 113.5t-59.5 30.5q-25 0 -46 -12.5t-29.5 -46t2.5 -96.5
l-110 16q-8 46 10.5 85.5t62.5 64t112 24.5q77 0 119 -25t58.5 -66t16.5 -88v-231q0 -51 9 -64t20 -13q18 0 40 21l18 -26q-26 -24 -54.5 -39.5l-53.5 -29.5t-40.5 -34t-15.5 -53q0 -26 11 -42t33 -16q20 0 35 16.5t21 60.5zM226 43q26 0 51.5 13.5t53.5 50.5v115h-75
q-49 0 -71 -23t-22 -72q0 -40 16 -62t47 -22z" />
    <glyph glyph-name="aring" unicode="&#xe5;" horiz-adv-x="538" 
d="M533 25q-16 -15 -38.5 -25t-54.5 -10q-41 0 -68.5 18t-36.5 51q-33 -36 -72.5 -52.5t-80.5 -16.5q-69 0 -103 38.5t-34 96.5q0 59 43 95.5t152 36.5h91v81q0 83 -21.5 113.5t-59.5 30.5q-25 0 -46 -12.5t-29.5 -46t2.5 -96.5l-110 16q-8 46 10.5 85.5t62.5 64t112 24.5
q77 0 119 -25t58.5 -66t16.5 -88v-231q0 -51 9 -64t20 -13q18 0 40 21zM226 43q26 0 51.5 13.5t53.5 50.5v115h-75q-49 0 -71 -23t-22 -72q0 -40 16 -62t47 -22zM376 689v-11q0 -28 -14.5 -54.5t-42 -43.5t-66.5 -17t-66.5 17t-42 43.5t-14.5 54.5v11q0 29 14.5 55t42 42.5
t66.5 16.5t66.5 -16.5t42 -42.5t14.5 -55zM303 696q0 80 -50 80q-49 0 -49 -80v-25q0 -81 49 -81q50 0 50 81v25z" />
    <glyph glyph-name="atilde" unicode="&#xe3;" horiz-adv-x="538" 
d="M533 25q-16 -15 -38.5 -25t-54.5 -10q-41 0 -68.5 18t-36.5 51q-33 -36 -72.5 -52.5t-80.5 -16.5q-69 0 -103 38.5t-34 96.5q0 59 43 95.5t152 36.5h91v81q0 83 -21.5 113.5t-59.5 30.5q-25 0 -46 -12.5t-29.5 -46t2.5 -96.5l-110 16q-8 46 10.5 85.5t62.5 64t112 24.5
q77 0 119 -25t58.5 -66t16.5 -88v-231q0 -51 9 -64t20 -13q18 0 40 21zM226 43q26 0 51.5 13.5t53.5 50.5v115h-75q-49 0 -71 -23t-22 -72q0 -40 16 -62t47 -22zM315 583q-22 0 -40.5 12.5t-34.5 29t-30.5 29t-28.5 12.5q-17 0 -26.5 -18.5t-14.5 -59.5h-36q8 80 29 118.5
t60 38.5q22 0 40 -12.5t34 -29t30 -29t29 -12.5q17 0 26 19t14 59h36q-8 -80 -28.5 -118.5t-58.5 -38.5z" />
    <glyph glyph-name="ae" unicode="&#xe6;" horiz-adv-x="807" 
d="M752 119q-18 -70 -67 -99.5t-114 -29.5q-75 0 -126 28t-80 77q-36 -55 -84 -80t-99 -25q-69 0 -103 38.5t-34 96.5q0 59 43 95.5t152 36.5h91v81q0 83 -21.5 113.5t-59.5 30.5q-25 0 -46 -12.5t-29.5 -46t2.5 -96.5l-110 16q-8 46 10.5 85.5t62.5 64t112 24.5
q60 0 95.5 -19.5t53.5 -51.5q25 34 63 52.5t87 18.5q60 0 106.5 -23.5t73 -67.5t26.5 -107q0 -15 -1.5 -32t-5.5 -34h-296v-29q0 -106 30 -152.5t97 -46.5q43 0 73 25.5t34 86.5zM551 482q-49 0 -73 -45t-24 -149h181q4 20 5.5 37.5t1.5 32.5q0 64 -25 94t-66 30zM226 43
q29 0 58.5 18.5t63.5 70.5q-7 20 -11 42.5t-5 47.5h-76q-49 0 -71 -23t-22 -72q0 -40 16 -62t47 -22z" />
    <glyph glyph-name="b" unicode="b" horiz-adv-x="577" 
d="M8 712v28h192v-307q27 42 60.5 63t77.5 21q84 0 133.5 -66.5t49.5 -186.5v-20q0 -116 -57 -185t-158 -69q-77 0 -126 46q-18 -7 -34.5 -17.5t-33.5 -23.5h-27v661q0 34 -3 40.5t-19 8.5zM312 473q-25 0 -52.5 -20.5t-59.5 -83.5v-302q38 -38 93 -38q56 0 80.5 49.5
t24.5 135.5v80q0 93 -23 136t-63 43z" />
    <glyph glyph-name="c" unicode="c" horiz-adv-x="503" 
d="M271 482q-48 0 -71.5 -45.5t-23.5 -152.5v-60q0 -106 27 -152.5t88 -46.5q45 0 73.5 25.5t32.5 86.5l64 -18q-18 -70 -65.5 -99.5t-111.5 -29.5q-115 0 -173 69.5t-58 184.5v20q0 115 56 184t162 69q70 0 114.5 -27.5t63 -72t9.5 -95.5l-110 -16q11 84 -9 130t-68 46z
" />
    <glyph glyph-name="cacute" unicode="&#x107;" horiz-adv-x="503" 
d="M271 482q-48 0 -71.5 -45.5t-23.5 -152.5v-60q0 -106 27 -152.5t88 -46.5q45 0 73.5 25.5t32.5 86.5l64 -18q-18 -70 -65.5 -99.5t-111.5 -29.5q-115 0 -173 69.5t-58 184.5v20q0 115 56 184t162 69q70 0 114.5 -27.5t63 -72t9.5 -95.5l-110 -16q11 84 -9 130t-68 46z
M271 579l-24 21q20 32 36 63.5t26 76.5h126q-34 -46 -71 -83t-93 -78z" />
    <glyph glyph-name="ccaron" unicode="&#x10d;" horiz-adv-x="503" 
d="M271 482q-48 0 -71.5 -45.5t-23.5 -152.5v-60q0 -106 27 -152.5t88 -46.5q45 0 73.5 25.5t32.5 86.5l64 -18q-18 -70 -65.5 -99.5t-111.5 -29.5q-115 0 -173 69.5t-58 184.5v20q0 115 56 184t162 69q70 0 114.5 -27.5t63 -72t9.5 -95.5l-110 -16q11 84 -9 130t-68 46z
M409 723q-24 -27 -39 -47t-26.5 -40.5l-27.5 -51.5h-88q-15 31 -27 51.5t-27 40.5t-39 47l14 22q36 -21 69 -44t58 -45q51 46 119 89z" />
    <glyph glyph-name="ccedilla" unicode="&#xe7;" horiz-adv-x="503" 
d="M398 -140q0 -39 -33.5 -61t-85.5 -22q-41 0 -72 17.5t-39 60.5l55 14q4 -33 16.5 -46.5t31.5 -13.5q23 0 33.5 14.5t10.5 36.5q0 23 -11 38t-41 15q-4 0 -9.5 -0.5t-10.5 -1.5l-13 26l22 54q-100 10 -149.5 78t-49.5 175v20q0 115 56 184t162 69q70 0 114.5 -27.5t63 -72
t9.5 -95.5l-110 -16q11 84 -9 130t-68 46t-71.5 -45.5t-23.5 -152.5v-60q0 -106 27 -152.5t88 -46.5q45 0 73.5 25.5t32.5 86.5l64 -18q-17 -68 -62.5 -97.5t-106.5 -31.5l-19 -45q57 -1 91 -23.5t34 -61.5z" />
    <glyph glyph-name="ccircumflex" unicode="&#x109;" horiz-adv-x="503" 
d="M271 482q-48 0 -71.5 -45.5t-23.5 -152.5v-60q0 -106 27 -152.5t88 -46.5q45 0 73.5 25.5t32.5 86.5l64 -18q-18 -70 -65.5 -99.5t-111.5 -29.5q-115 0 -173 69.5t-58 184.5v20q0 115 56 184t162 69q70 0 114.5 -27.5t63 -72t9.5 -95.5l-110 -16q11 84 -9 130t-68 46z
M409 601l-14 -22q-36 21 -69 44t-58 45q-51 -46 -119 -89l-14 22q24 28 39 47.5t27 40t27 51.5h88l27.5 -51.5t26.5 -40t39 -47.5z" />
    <glyph glyph-name="cdotaccent" unicode="&#x10b;" horiz-adv-x="503" 
d="M271 482q-48 0 -71.5 -45.5t-23.5 -152.5v-60q0 -106 27 -152.5t88 -46.5q45 0 73.5 25.5t32.5 86.5l64 -18q-18 -70 -65.5 -99.5t-111.5 -29.5q-115 0 -173 69.5t-58 184.5v20q0 115 56 184t162 69q70 0 114.5 -27.5t63 -72t9.5 -95.5l-110 -16q11 84 -9 130t-68 46z
M271 593q-31 0 -50 19.5t-19 50.5t19 50t50 19q30 0 50 -19t20 -50t-20 -50.5t-50 -19.5z" />
    <glyph glyph-name="d" unicode="d" horiz-adv-x="585" 
d="M569 28v-28h-186v83q-28 -46 -62.5 -69.5t-81.5 -23.5q-84 0 -133.5 66.5t-49.5 186.5v20q0 116 57.5 185t157.5 69q60 0 106 -30v169q0 34 -3 40.5t-19 8.5l-55 7v28h192v-656q0 -34 3 -40.5t19 -8.5zM179 213q0 -93 23 -136t63 -43q25 0 52.5 20.5t59.5 83.5v302
q-38 38 -93 38t-80 -49.5t-25 -135.5v-80z" />
    <glyph glyph-name="eth" unicode="&#xf0;" horiz-adv-x="561" 
d="M507 252q0 -126 -60 -194t-170 -68q-109 0 -168.5 61t-59.5 163v20q0 68 27.5 118t76.5 77.5t113 27.5q30 0 57 -8t50 -22q-10 50 -30.5 96t-55.5 86l-109 -80l-22 30l105 77q-46 46 -111 83l13 31q39 -18 73.5 -39.5t64.5 -44.5l115 84l22 -30l-107 -79
q87 -76 131.5 -167.5t44.5 -181.5v-40zM172 194q0 -91 27.5 -130t77.5 -39q35 0 59 19t36 64.5t12 123.5v80q0 34 -3 67q-28 26 -55.5 34.5t-50.5 8.5q-49 0 -76 -38.5t-27 -129.5v-60z" />
    <glyph glyph-name="dcaron" unicode="&#x10f;" horiz-adv-x="682" 
d="M569 28v-28h-186v83q-28 -46 -62.5 -69.5t-81.5 -23.5q-84 0 -133.5 66.5t-49.5 186.5v20q0 116 57.5 185t157.5 69q60 0 106 -30v169q0 34 -3 40.5t-19 8.5l-55 7v28h192v-656q0 -34 3 -40.5t19 -8.5zM179 213q0 -93 23 -136t63 -43q25 0 52.5 20.5t59.5 83.5v302
q-38 38 -93 38t-80 -49.5t-25 -135.5v-80zM578 526h-24v214h109q-18 -56 -37.5 -106t-47.5 -108z" />
    <glyph glyph-name="dcroat" unicode="&#x111;" horiz-adv-x="585" 
d="M569 28v-28h-186v83q-28 -46 -62.5 -69.5t-81.5 -23.5q-84 0 -133.5 66.5t-49.5 186.5v20q0 116 57.5 185t157.5 69q60 0 106 -30v103h-145v35h145v31q0 34 -3 40.5t-19 8.5l-55 7v28h192v-115h77v-35h-77v-506q0 -34 3 -40.5t19 -8.5zM179 213q0 -93 23 -136t63 -43
q25 0 52.5 20.5t59.5 83.5v302q-38 38 -93 38t-80 -49.5t-25 -135.5v-80z" />
    <glyph glyph-name="e" unicode="e" horiz-adv-x="529" 
d="M474 119q-18 -70 -67 -99.5t-114 -29.5q-120 0 -180 69.5t-60 184.5v20q0 115 56.5 184t163.5 69q60 0 106.5 -23.5t73 -67.5t26.5 -107q0 -15 -1.5 -32t-5.5 -34h-296v-29q0 -106 30 -152.5t97 -46.5q43 0 73 25.5t34 86.5zM273 482q-49 0 -73 -45t-24 -149h181
q4 20 5.5 37.5t1.5 32.5q0 64 -25 94t-66 30z" />
    <glyph glyph-name="eacute" unicode="&#xe9;" horiz-adv-x="529" 
d="M474 119q-18 -70 -67 -99.5t-114 -29.5q-120 0 -180 69.5t-60 184.5v20q0 115 56.5 184t163.5 69q60 0 106.5 -23.5t73 -67.5t26.5 -107q0 -15 -1.5 -32t-5.5 -34h-296v-29q0 -106 30 -152.5t97 -46.5q43 0 73 25.5t34 86.5zM273 482q-49 0 -73 -45t-24 -149h181
q4 20 5.5 37.5t1.5 32.5q0 64 -25 94t-66 30zM272 579l-24 21q20 32 36 63.5t26 76.5h126q-34 -46 -71 -83t-93 -78z" />
    <glyph glyph-name="ebreve" unicode="&#x115;" horiz-adv-x="529" 
d="M474 119q-18 -70 -67 -99.5t-114 -29.5q-120 0 -180 69.5t-60 184.5v20q0 115 56.5 184t163.5 69q60 0 106.5 -23.5t73 -67.5t26.5 -107q0 -15 -1.5 -32t-5.5 -34h-296v-29q0 -106 30 -152.5t97 -46.5q43 0 73 25.5t34 86.5zM273 482q-49 0 -73 -45t-24 -149h181
q4 20 5.5 37.5t1.5 32.5q0 64 -25 94t-66 30zM273 661q47 0 75 19.5t38 64.5l33 -10q-14 -74 -50 -115t-96 -41t-96 41t-50 115l33 10q11 -45 39 -64.5t74 -19.5z" />
    <glyph glyph-name="ecaron" unicode="&#x11b;" horiz-adv-x="529" 
d="M474 119q-18 -70 -67 -99.5t-114 -29.5q-120 0 -180 69.5t-60 184.5v20q0 115 56.5 184t163.5 69q60 0 106.5 -23.5t73 -67.5t26.5 -107q0 -15 -1.5 -32t-5.5 -34h-296v-29q0 -106 30 -152.5t97 -46.5q43 0 73 25.5t34 86.5zM273 482q-49 0 -73 -45t-24 -149h181
q4 20 5.5 37.5t1.5 32.5q0 64 -25 94t-66 30zM410 723q-24 -27 -39 -47t-26.5 -40.5l-27.5 -51.5h-88q-15 31 -27 51.5t-27 40.5t-39 47l14 22q36 -21 69 -44t58 -45q51 46 119 89z" />
    <glyph glyph-name="ecircumflex" unicode="&#xea;" horiz-adv-x="529" 
d="M474 119q-18 -70 -67 -99.5t-114 -29.5q-120 0 -180 69.5t-60 184.5v20q0 115 56.5 184t163.5 69q60 0 106.5 -23.5t73 -67.5t26.5 -107q0 -15 -1.5 -32t-5.5 -34h-296v-29q0 -106 30 -152.5t97 -46.5q43 0 73 25.5t34 86.5zM273 482q-49 0 -73 -45t-24 -149h181
q4 20 5.5 37.5t1.5 32.5q0 64 -25 94t-66 30zM410 601l-14 -22q-36 21 -69 44t-58 45q-51 -46 -119 -89l-14 22q24 28 39 47.5t27 40t27 51.5h88l27.5 -51.5t26.5 -40t39 -47.5z" />
    <glyph glyph-name="edieresis" unicode="&#xeb;" horiz-adv-x="529" 
d="M474 119q-18 -70 -67 -99.5t-114 -29.5q-120 0 -180 69.5t-60 184.5v20q0 115 56.5 184t163.5 69q60 0 106.5 -23.5t73 -67.5t26.5 -107q0 -15 -1.5 -32t-5.5 -34h-296v-29q0 -106 30 -152.5t97 -46.5q43 0 73 25.5t34 86.5zM273 482q-49 0 -73 -45t-24 -149h181
q4 20 5.5 37.5t1.5 32.5q0 64 -25 94t-66 30zM167 600q-28 0 -45 17.5t-17 45.5t17 45t45 17q27 0 45 -17t18 -45t-18 -45.5t-45 -17.5zM377 600q-28 0 -45 17.5t-17 45.5t17 45t45 17q27 0 45 -17t18 -45t-18 -45.5t-45 -17.5z" />
    <glyph glyph-name="edotaccent" unicode="&#x117;" horiz-adv-x="529" 
d="M474 119q-18 -70 -67 -99.5t-114 -29.5q-120 0 -180 69.5t-60 184.5v20q0 115 56.5 184t163.5 69q60 0 106.5 -23.5t73 -67.5t26.5 -107q0 -15 -1.5 -32t-5.5 -34h-296v-29q0 -106 30 -152.5t97 -46.5q43 0 73 25.5t34 86.5zM273 482q-49 0 -73 -45t-24 -149h181
q4 20 5.5 37.5t1.5 32.5q0 64 -25 94t-66 30zM272 593q-31 0 -50 19.5t-19 50.5t19 50t50 19q30 0 50 -19t20 -50t-20 -50.5t-50 -19.5z" />
    <glyph glyph-name="egrave" unicode="&#xe8;" horiz-adv-x="529" 
d="M474 119q-18 -70 -67 -99.5t-114 -29.5q-120 0 -180 69.5t-60 184.5v20q0 115 56.5 184t163.5 69q60 0 106.5 -23.5t73 -67.5t26.5 -107q0 -15 -1.5 -32t-5.5 -34h-296v-29q0 -106 30 -152.5t97 -46.5q43 0 73 25.5t34 86.5zM273 482q-49 0 -73 -45t-24 -149h181
q4 20 5.5 37.5t1.5 32.5q0 64 -25 94t-66 30zM274 579q-55 41 -92.5 78t-71.5 83h126q11 -45 26.5 -76.5t35.5 -63.5z" />
    <glyph glyph-name="emacron" unicode="&#x113;" horiz-adv-x="529" 
d="M474 119q-18 -70 -67 -99.5t-114 -29.5q-120 0 -180 69.5t-60 184.5v20q0 115 56.5 184t163.5 69q60 0 106.5 -23.5t73 -67.5t26.5 -107q0 -15 -1.5 -32t-5.5 -34h-296v-29q0 -106 30 -152.5t97 -46.5q43 0 73 25.5t34 86.5zM273 482q-49 0 -73 -45t-24 -149h181
q4 20 5.5 37.5t1.5 32.5q0 64 -25 94t-66 30zM416 674v-55h-287v55h287z" />
    <glyph glyph-name="eogonek" unicode="&#x119;" horiz-adv-x="529" 
d="M474 -125q-15 -54 -50.5 -76t-78.5 -22q-50 0 -84 25t-34 69t31 71t71 50q-9 -1 -18 -1.5t-18 -0.5q-120 0 -180 69.5t-60 184.5v20q0 115 56.5 184t163.5 69q60 0 106.5 -23.5t73 -67.5t26.5 -107q0 -15 -1.5 -32t-5.5 -34h-296v-29q0 -106 30 -152.5t97 -46.5
q43 0 73 25.5t34 86.5l64 -18q-9 -33 -23 -54t-24 -31q-35 -34 -61.5 -55t-41 -43t-14.5 -61q0 -64 44 -64q20 0 35 16.5t21 60.5zM273 482q-49 0 -73 -45t-24 -149h181q4 20 5.5 37.5t1.5 32.5q0 64 -25 94t-66 30z" />
    <glyph glyph-name="f" unicode="f" horiz-adv-x="363" 
d="M312 28v-28h-289v28l55 7q16 2 19 8.5t3 40.5v339q0 34 -3 40.5t-19 8.5l-55 7v28h77v54q0 48 16.5 91.5t56 70.5t106.5 27q61 0 100.5 -21t57 -56t10.5 -76l-110 -16q10 75 -5.5 104.5t-52.5 29.5q-20 0 -34.5 -11t-22 -39.5t-7.5 -83.5v-74h150v-35h-150v-388
q0 -34 3 -40.5t19 -8.5z" />
    <glyph glyph-name="g" unicode="g" horiz-adv-x="532" 
d="M511 -52q0 -82 -61.5 -126.5t-168.5 -44.5q-118 0 -176 38.5t-63 95.5l107 17q-4 -53 25.5 -84.5t106.5 -31.5q72 0 116.5 27t44.5 78q0 36 -26.5 54.5t-87.5 18.5h-114q-53 0 -83.5 15t-42.5 37.5t-12 46.5q0 29 16 57.5t55 56.5q-43 19 -70 56t-27 92q0 56 26 92.5
t70 55t98 18.5h17q58 0 100 -19l144 71l12 -98h-114q24 -21 37.5 -50.5t13.5 -69.5q0 -54 -26 -91t-69.5 -56t-97.5 -19h-17q-30 0 -59 6q-25 -17 -34.5 -32.5t-9.5 -29.5q0 -16 14.5 -24t47.5 -8h130q86 0 132 -38.5t46 -110.5zM261 220q32 0 55 28t23 103t-23 103t-55 28
h-17q-32 0 -55.5 -28t-23.5 -103t23.5 -103t55.5 -28h17z" />
    <glyph glyph-name="gbreve" unicode="&#x11f;" horiz-adv-x="532" 
d="M511 -52q0 -82 -61.5 -126.5t-168.5 -44.5q-118 0 -176 38.5t-63 95.5l107 17q-4 -53 25.5 -84.5t106.5 -31.5q72 0 116.5 27t44.5 78q0 36 -26.5 54.5t-87.5 18.5h-114q-53 0 -83.5 15t-42.5 37.5t-12 46.5q0 29 16 57.5t55 56.5q-43 19 -70 56t-27 92q0 56 26 92.5
t70 55t98 18.5h17q58 0 100 -19l144 71l12 -98h-114q24 -21 37.5 -50.5t13.5 -69.5q0 -54 -26 -91t-69.5 -56t-97.5 -19h-17q-30 0 -59 6q-25 -17 -34.5 -32.5t-9.5 -29.5q0 -16 14.5 -24t47.5 -8h130q86 0 132 -38.5t46 -110.5zM261 220q32 0 55 28t23 103t-23 103t-55 28
h-17q-32 0 -55.5 -28t-23.5 -103t23.5 -103t55.5 -28h17zM253 661q47 0 75 19.5t38 64.5l33 -10q-14 -74 -50 -115t-96 -41t-96 41t-50 115l33 10q11 -45 39 -64.5t74 -19.5z" />
    <glyph glyph-name="gcircumflex" unicode="&#x11d;" horiz-adv-x="532" 
d="M511 -52q0 -82 -61.5 -126.5t-168.5 -44.5q-118 0 -176 38.5t-63 95.5l107 17q-4 -53 25.5 -84.5t106.5 -31.5q72 0 116.5 27t44.5 78q0 36 -26.5 54.5t-87.5 18.5h-114q-53 0 -83.5 15t-42.5 37.5t-12 46.5q0 29 16 57.5t55 56.5q-43 19 -70 56t-27 92q0 56 26 92.5
t70 55t98 18.5h17q58 0 100 -19l144 71l12 -98h-114q24 -21 37.5 -50.5t13.5 -69.5q0 -54 -26 -91t-69.5 -56t-97.5 -19h-17q-30 0 -59 6q-25 -17 -34.5 -32.5t-9.5 -29.5q0 -16 14.5 -24t47.5 -8h130q86 0 132 -38.5t46 -110.5zM261 220q32 0 55 28t23 103t-23 103t-55 28
h-17q-32 0 -55.5 -28t-23.5 -103t23.5 -103t55.5 -28h17zM390 601l-14 -22q-36 21 -69 44t-58 45q-51 -46 -119 -89l-14 22q24 28 39 47.5t27 40t27 51.5h88l27.5 -51.5t26.5 -40t39 -47.5z" />
    <glyph glyph-name="uni0123" unicode="&#x123;" horiz-adv-x="532" 
d="M511 -52q0 -82 -61.5 -126.5t-168.5 -44.5q-118 0 -176 38.5t-63 95.5l107 17q-4 -53 25.5 -84.5t106.5 -31.5q72 0 116.5 27t44.5 78q0 36 -26.5 54.5t-87.5 18.5h-114q-53 0 -83.5 15t-42.5 37.5t-12 46.5q0 29 16 57.5t55 56.5q-43 19 -70 56t-27 92q0 56 26 92.5
t70 55t98 18.5h17q58 0 100 -19l144 71l12 -98h-114q24 -21 37.5 -50.5t13.5 -69.5q0 -54 -26 -91t-69.5 -56t-97.5 -19h-17q-30 0 -59 6q-25 -17 -34.5 -32.5t-9.5 -29.5q0 -16 14.5 -24t47.5 -8h130q86 0 132 -38.5t46 -110.5zM261 220q32 0 55 28t23 103t-23 103t-55 28
h-17q-32 0 -55.5 -28t-23.5 -103t23.5 -103t55.5 -28h17zM331 755l19 -18q-16 -33 -26.5 -68.5t-16.5 -84.5h-113q23 46 57 88.5t80 82.5z" />
    <glyph glyph-name="gdotaccent" unicode="&#x121;" horiz-adv-x="532" 
d="M511 -52q0 -82 -61.5 -126.5t-168.5 -44.5q-118 0 -176 38.5t-63 95.5l107 17q-4 -53 25.5 -84.5t106.5 -31.5q72 0 116.5 27t44.5 78q0 36 -26.5 54.5t-87.5 18.5h-114q-53 0 -83.5 15t-42.5 37.5t-12 46.5q0 29 16 57.5t55 56.5q-43 19 -70 56t-27 92q0 56 26 92.5
t70 55t98 18.5h17q58 0 100 -19l144 71l12 -98h-114q24 -21 37.5 -50.5t13.5 -69.5q0 -54 -26 -91t-69.5 -56t-97.5 -19h-17q-30 0 -59 6q-25 -17 -34.5 -32.5t-9.5 -29.5q0 -16 14.5 -24t47.5 -8h130q86 0 132 -38.5t46 -110.5zM261 220q32 0 55 28t23 103t-23 103t-55 28
h-17q-32 0 -55.5 -28t-23.5 -103t23.5 -103t55.5 -28h17zM253 593q-31 0 -50 19.5t-19 50.5t19 50t50 19q30 0 50 -19t20 -50t-20 -50.5t-50 -19.5z" />
    <glyph glyph-name="h" unicode="h" horiz-adv-x="616" 
d="M605 28v-28h-269v28l55 7q16 2 19 8.5t3 40.5v252q0 69 -20.5 100.5t-60.5 31.5q-17 0 -39.5 -8.5t-45 -30.5t-39.5 -65v-280q0 -34 3 -40.5t19 -8.5l55 -7v-28h-269v28l55 7q16 2 19 8.5t3 40.5v572q0 34 -3 40.5t-19 8.5l-55 7v28h192v-311q29 46 72.5 67t87.5 21
q74 0 117 -47t43 -133v-253q0 -34 3 -40.5t19 -8.5z" />
    <glyph glyph-name="hbar" unicode="&#x127;" horiz-adv-x="616" 
d="M285 28v-28h-269v28l55 7q16 2 19 8.5t3 40.5v506h-77v35h77v31q0 34 -3 40.5t-19 8.5l-55 7v28h192v-115h145v-35h-145v-161q29 46 72.5 67t87.5 21q74 0 117 -47t43 -133v-253q0 -34 3 -40.5t19 -8.5l55 -7v-28h-269v28l55 7q16 2 19 8.5t3 40.5v252q0 69 -20.5 100.5
t-60.5 31.5q-17 0 -39.5 -8.5t-45 -30.5t-39.5 -65v-280q0 -34 3 -40.5t19 -8.5z" />
    <glyph glyph-name="hcircumflex" unicode="&#x125;" horiz-adv-x="616" 
d="M605 28v-28h-269v28l55 7q16 2 19 8.5t3 40.5v252q0 69 -20.5 100.5t-60.5 31.5q-17 0 -39.5 -8.5t-45 -30.5t-39.5 -65v-280q0 -34 3 -40.5t19 -8.5l55 -7v-28h-269v28l55 7q16 2 19 8.5t3 40.5v572q0 34 -3 40.5t-19 8.5l-55 7v28h192v-311q29 46 72.5 67t87.5 21
q74 0 117 -47t43 -133v-253q0 -34 3 -40.5t19 -8.5zM402 823l-14 -22q-36 21 -69 44t-58 45q-51 -46 -119 -89l-14 22q24 28 39 47.5t27 40t27 51.5h88l27.5 -51.5t26.5 -40t39 -47.5z" />
    <glyph glyph-name="i" unicode="i" horiz-adv-x="308" 
d="M157 593q-31 0 -50 19.5t-19 50.5t19 50t50 19q30 0 50 -19t20 -50t-20 -50.5t-50 -19.5zM23 479v28h192v-423q0 -34 3 -40.5t19 -8.5l55 -7v-28h-269v28l55 7q16 2 19 8.5t3 40.5v339q0 34 -3 40.5t-19 8.5z" />
    <glyph glyph-name="dotlessi" unicode="&#x131;" horiz-adv-x="308" 
d="M23 479v28h192v-423q0 -34 3 -40.5t19 -8.5l55 -7v-28h-269v28l55 7q16 2 19 8.5t3 40.5v339q0 34 -3 40.5t-19 8.5z" />
    <glyph glyph-name="iacute" unicode="&#xed;" horiz-adv-x="308" 
d="M23 479v28h192v-423q0 -34 3 -40.5t19 -8.5l55 -7v-28h-269v28l55 7q16 2 19 8.5t3 40.5v339q0 34 -3 40.5t-19 8.5zM150 579l-24 21q20 32 36 63.5t26 76.5h126q-34 -46 -71 -83t-93 -78z" />
    <glyph glyph-name="ibreve" unicode="&#x12d;" horiz-adv-x="308" 
d="M23 479v28h192v-423q0 -34 3 -40.5t19 -8.5l55 -7v-28h-269v28l55 7q16 2 19 8.5t3 40.5v339q0 34 -3 40.5t-19 8.5zM151 661q47 0 75 19.5t38 64.5l33 -10q-14 -74 -50 -115t-96 -41t-96 41t-50 115l33 10q11 -45 39 -64.5t74 -19.5z" />
    <glyph glyph-name="icircumflex" unicode="&#xee;" horiz-adv-x="308" 
d="M23 479v28h192v-423q0 -34 3 -40.5t19 -8.5l55 -7v-28h-269v28l55 7q16 2 19 8.5t3 40.5v339q0 34 -3 40.5t-19 8.5zM288 601l-14 -22q-36 21 -69 44t-58 45q-51 -46 -119 -89l-14 22q24 28 39 47.5t27 40t27 51.5h88l27.5 -51.5t26.5 -40t39 -47.5z" />
    <glyph glyph-name="idieresis" unicode="&#xef;" horiz-adv-x="308" 
d="M23 479v28h192v-423q0 -34 3 -40.5t19 -8.5l55 -7v-28h-269v28l55 7q16 2 19 8.5t3 40.5v339q0 34 -3 40.5t-19 8.5zM46 600q-28 0 -45 17.5t-17 45.5t17 45t45 17q27 0 45 -17t18 -45t-18 -45.5t-45 -17.5zM256 600q-28 0 -45 17.5t-17 45.5t17 45t45 17q27 0 45 -17
t18 -45t-18 -45.5t-45 -17.5z" />
    <glyph glyph-name="igrave" unicode="&#xec;" horiz-adv-x="308" 
d="M23 479v28h192v-423q0 -34 3 -40.5t19 -8.5l55 -7v-28h-269v28l55 7q16 2 19 8.5t3 40.5v339q0 34 -3 40.5t-19 8.5zM152 579q-55 41 -92.5 78t-71.5 83h126q11 -45 26.5 -76.5t35.5 -63.5z" />
    <glyph glyph-name="ij" unicode="&#x133;" horiz-adv-x="601" 
d="M157 593q-31 0 -50 19.5t-19 50.5t19 50t50 19q30 0 50 -19t20 -50t-20 -50.5t-50 -19.5zM23 479v28h192v-423q0 -34 3 -40.5t19 -8.5l55 -7v-28h-269v28l55 7q16 2 19 8.5t3 40.5v339q0 34 -3 40.5t-19 8.5zM458 593q-31 0 -50 19.5t-19 50.5t19 50t50 19q30 0 50 -19
t20 -50t-20 -50.5t-50 -19.5zM324 479v28h192v-541q0 -50 -17 -93t-55 -69.5t-101 -26.5q-55 0 -94 28t-48 95l62 19q5 -64 24 -85.5t44 -21.5q33 0 51.5 29t18.5 105v477q0 34 -3 40.5t-19 8.5z" />
    <glyph glyph-name="imacron" unicode="&#x12b;" horiz-adv-x="308" 
d="M23 479v28h192v-423q0 -34 3 -40.5t19 -8.5l55 -7v-28h-269v28l55 7q16 2 19 8.5t3 40.5v339q0 34 -3 40.5t-19 8.5zM295 674v-55h-287v55h287z" />
    <glyph glyph-name="iogonek" unicode="&#x12f;" horiz-adv-x="308" 
d="M157 593q-31 0 -50 19.5t-19 50.5t19 50t50 19q30 0 50 -19t20 -50t-20 -50.5t-50 -19.5zM23 479v28h192v-423q0 -34 3 -40.5t19 -8.5l55 -7v-28h-60q-68 0 -104.5 -38t-36.5 -91q0 -28 10.5 -44t32.5 -16q20 0 35.5 16.5t21.5 60.5l64 -13q-15 -54 -50.5 -76t-78.5 -22
q-50 0 -84 25t-34 68q0 38 26.5 70t65.5 54v429q0 34 -3 40.5t-19 8.5z" />
    <glyph glyph-name="itilde" unicode="&#x129;" horiz-adv-x="308" 
d="M23 479v28h192v-423q0 -34 3 -40.5t19 -8.5l55 -7v-28h-269v28l55 7q16 2 19 8.5t3 40.5v339q0 34 -3 40.5t-19 8.5zM213 583q-22 0 -40.5 12.5t-34.5 29t-30.5 29t-28.5 12.5q-17 0 -26.5 -18.5t-14.5 -59.5h-36q8 80 29 118.5t60 38.5q22 0 40 -12.5t34 -29t30 -29
t29 -12.5q17 0 26 19t14 59h36q-8 -80 -28.5 -118.5t-58.5 -38.5z" />
    <glyph glyph-name="j" unicode="j" horiz-adv-x="293" 
d="M150 593q-31 0 -50 19.5t-19 50.5t19 50t50 19q30 0 50 -19t20 -50t-20 -50.5t-50 -19.5zM16 479v28h192v-541q0 -50 -17 -93t-55 -69.5t-101 -26.5q-55 0 -94 28t-48 95l62 19q5 -64 24 -85.5t44 -21.5q33 0 51.5 29t18.5 105v477q0 34 -3 40.5t-19 8.5z" />
    <glyph glyph-name="uni0237" unicode="&#x237;" horiz-adv-x="295" 
d="M18 479v28h192v-541q0 -50 -16 -93t-54 -69.5t-103 -26.5q-55 0 -95 27.5t-49 94.5l64 20q6 -64 25 -85.5t41 -21.5q36 0 54 29t18 105v477q0 34 -3 40.5t-19 8.5z" />
    <glyph glyph-name="jcircumflex" unicode="&#x135;" horiz-adv-x="295" 
d="M18 479v28h192v-541q0 -50 -16 -93t-54 -69.5t-103 -26.5q-55 0 -95 27.5t-49 94.5l64 20q6 -64 25 -85.5t41 -21.5q36 0 54 29t18 105v477q0 34 -3 40.5t-19 8.5zM276 601l-14 -22q-36 21 -69 44t-58 45q-51 -46 -119 -89l-14 22q24 28 39 47.5t27 40t27 51.5h88
l27.5 -51.5t26.5 -40t39 -47.5z" />
    <glyph glyph-name="k" unicode="k" 
d="M16 712v28h192v-485l176 168q35 33 37.5 40t-14.5 9l-55 7v28h205v-28l-55 -7q-9 -1 -15 -4t-17 -12.5t-35 -32.5l-96 -92l142 -247q14 -23 21 -32.5t13.5 -12t16.5 -4.5l55 -7v-28h-191l-139 253l-49 -47v-122q0 -34 3 -40.5t19 -8.5l55 -7v-28h-269v28l55 7
q16 2 19 8.5t3 40.5v572q0 34 -3 40.5t-19 8.5z" />
    <glyph glyph-name="uni0137" unicode="&#x137;" 
d="M16 712v28h192v-485l176 168q35 33 37.5 40t-14.5 9l-55 7v28h205v-28l-55 -7q-9 -1 -15 -4t-17 -12.5t-35 -32.5l-96 -92l142 -247q14 -23 21 -32.5t13.5 -12t16.5 -4.5l55 -7v-28h-191l-139 253l-49 -47v-122q0 -34 3 -40.5t19 -8.5l55 -7v-28h-269v28l55 7
q16 2 19 8.5t3 40.5v572q0 34 -3 40.5t-19 8.5zM219 -248l-19 18q16 33 26.5 68.5t16.5 84.5h113q-23 -46 -56.5 -88.5t-80.5 -82.5z" />
    <glyph glyph-name="kgreenlandic" unicode="&#x138;" horiz-adv-x="595" 
d="M23 479v28h192v-252l176 168q35 33 37.5 40t-14.5 9l-55 7v28h205v-28l-55 -7q-9 -1 -15 -4t-17 -12.5t-35 -32.5l-96 -92l142 -247q14 -23 21 -32.5t13.5 -12t16.5 -4.5l55 -7v-28h-191l-139 253l-49 -47v-122q0 -34 3 -40.5t19 -8.5l55 -7v-28h-269v28l55 7
q16 2 19 8.5t3 40.5v339q0 34 -3 40.5t-19 8.5z" />
    <glyph glyph-name="l" unicode="l" horiz-adv-x="301" 
d="M16 712v28h192v-656q0 -34 3 -40.5t19 -8.5l55 -7v-28h-269v28l55 7q16 2 19 8.5t3 40.5v572q0 34 -3 40.5t-19 8.5z" />
    <glyph glyph-name="lacute" unicode="&#x13a;" horiz-adv-x="301" 
d="M16 712v28h192v-656q0 -34 3 -40.5t19 -8.5l55 -7v-28h-269v28l55 7q16 2 19 8.5t3 40.5v572q0 34 -3 40.5t-19 8.5zM149 801l-24 21q20 32 36 63.5t26 76.5h126q-34 -46 -71 -83t-93 -78z" />
    <glyph glyph-name="lcaron" unicode="&#x13e;" horiz-adv-x="398" 
d="M16 712v28h192v-656q0 -34 3 -40.5t19 -8.5l55 -7v-28h-269v28l55 7q16 2 19 8.5t3 40.5v572q0 34 -3 40.5t-19 8.5zM294 526h-24v214h109q-18 -56 -37.5 -106t-47.5 -108z" />
    <glyph glyph-name="uni013C" unicode="&#x13c;" horiz-adv-x="301" 
d="M16 712v28h192v-656q0 -34 3 -40.5t19 -8.5l55 -7v-28h-269v28l55 7q16 2 19 8.5t3 40.5v572q0 34 -3 40.5t-19 8.5zM71 -248l-19 18q16 33 26.5 68.5t16.5 84.5h113q-23 -46 -56.5 -88.5t-80.5 -82.5z" />
    <glyph glyph-name="ldot" unicode="&#x140;" horiz-adv-x="342" 
d="M16 712v28h192v-656q0 -34 3 -40.5t19 -8.5l55 -7v-28h-269v28l55 7q16 2 19 8.5t3 40.5v572q0 34 -3 40.5t-19 8.5zM321 315q-31 0 -50 19.5t-19 50.5t19 50t50 19q30 0 50 -19t20 -50t-20 -50.5t-50 -19.5z" />
    <glyph glyph-name="lslash" unicode="&#x142;" horiz-adv-x="362" 
d="M49 712v28h192v-325l97 45l14 -34l-111 -51v-291q0 -34 3 -40.5t19 -8.5l55 -7v-28h-269v28l55 7q16 2 19 8.5t3 40.5v238l-97 -45l-14 34l111 51v294q0 34 -3 40.5t-19 8.5z" />
    <glyph glyph-name="m" unicode="m" horiz-adv-x="923" 
d="M602 28v-28h-269v28l55 7q16 2 19 8.5t3 40.5v252q0 69 -19 100.5t-57 31.5q-16 0 -38 -8.5t-43.5 -30.5t-37.5 -65v-280q0 -34 3 -40.5t19 -8.5l55 -7v-28h-269v28l55 7q16 2 19 8.5t3 40.5v339q0 34 -3 40.5t-19 8.5l-55 7v28h186v-88q28 51 72 74.5t89 23.5
q54 0 91.5 -27.5t53.5 -78.5q27 56 73 81t92 25q71 0 113 -47t42 -133v-253q0 -34 3 -40.5t19 -8.5l55 -7v-28h-269v28l55 7q16 2 19 8.5t3 40.5v252q0 69 -19 100.5t-57 31.5q-16 0 -38 -8.5t-44 -31.5t-38 -67q1 -5 1 -11.5v-12.5v-253q0 -34 3 -40.5t19 -8.5z" />
    <glyph glyph-name="n" unicode="n" horiz-adv-x="623" 
d="M612 28v-28h-269v28l55 7q16 2 19 8.5t3 40.5v252q0 69 -20.5 100.5t-60.5 31.5q-17 0 -39.5 -8.5t-45 -30.5t-39.5 -65v-280q0 -34 3 -40.5t19 -8.5l55 -7v-28h-269v28l55 7q16 2 19 8.5t3 40.5v339q0 34 -3 40.5t-19 8.5l-55 7v28h186v-88q29 51 74.5 74.5t91.5 23.5
q74 0 117 -47t43 -133v-253q0 -34 3 -40.5t19 -8.5z" />
    <glyph glyph-name="nacute" unicode="&#x144;" horiz-adv-x="623" 
d="M612 28v-28h-269v28l55 7q16 2 19 8.5t3 40.5v252q0 69 -20.5 100.5t-60.5 31.5q-17 0 -39.5 -8.5t-45 -30.5t-39.5 -65v-280q0 -34 3 -40.5t19 -8.5l55 -7v-28h-269v28l55 7q16 2 19 8.5t3 40.5v339q0 34 -3 40.5t-19 8.5l-55 7v28h186v-88q29 51 74.5 74.5t91.5 23.5
q74 0 117 -47t43 -133v-253q0 -34 3 -40.5t19 -8.5zM321 579l-24 21q20 32 36 63.5t26 76.5h126q-34 -46 -71 -83t-93 -78z" />
    <glyph glyph-name="napostrophe" unicode="&#x149;" horiz-adv-x="736" 
d="M725 28v-28h-269v28l55 7q16 2 19 8.5t3 40.5v252q0 69 -20.5 100.5t-60.5 31.5q-17 0 -39.5 -8.5t-45 -30.5t-39.5 -65v-280q0 -34 3 -40.5t19 -8.5l55 -7v-28h-269v28l55 7q16 2 19 8.5t3 40.5v339q0 34 -3 40.5t-19 8.5l-55 7v28h186v-88q29 51 74.5 74.5t91.5 23.5
q74 0 117 -47t43 -133v-253q0 -34 3 -40.5t19 -8.5zM105 611q0 -38 -25.5 -91.5t-76.5 -112.5l-23 20q34 41 47.5 73t14.5 59h-3q-29 0 -47 18t-18 48q0 29 18 47t47 18t47.5 -20.5t18.5 -58.5z" />
    <glyph glyph-name="ncaron" unicode="&#x148;" horiz-adv-x="623" 
d="M612 28v-28h-269v28l55 7q16 2 19 8.5t3 40.5v252q0 69 -20.5 100.5t-60.5 31.5q-17 0 -39.5 -8.5t-45 -30.5t-39.5 -65v-280q0 -34 3 -40.5t19 -8.5l55 -7v-28h-269v28l55 7q16 2 19 8.5t3 40.5v339q0 34 -3 40.5t-19 8.5l-55 7v28h186v-88q29 51 74.5 74.5t91.5 23.5
q74 0 117 -47t43 -133v-253q0 -34 3 -40.5t19 -8.5zM459 723q-24 -27 -39 -47t-26.5 -40.5l-27.5 -51.5h-88q-15 31 -27 51.5t-27 40.5t-39 47l14 22q36 -21 69 -44t58 -45q51 46 119 89z" />
    <glyph glyph-name="uni0146" unicode="&#x146;" horiz-adv-x="623" 
d="M612 28v-28h-269v28l55 7q16 2 19 8.5t3 40.5v252q0 69 -20.5 100.5t-60.5 31.5q-17 0 -39.5 -8.5t-45 -30.5t-39.5 -65v-280q0 -34 3 -40.5t19 -8.5l55 -7v-28h-269v28l55 7q16 2 19 8.5t3 40.5v339q0 34 -3 40.5t-19 8.5l-55 7v28h186v-88q29 51 74.5 74.5t91.5 23.5
q74 0 117 -47t43 -133v-253q0 -34 3 -40.5t19 -8.5zM241 -248l-19 18q16 33 26.5 68.5t16.5 84.5h113q-23 -46 -56.5 -88.5t-80.5 -82.5z" />
    <glyph glyph-name="eng" unicode="&#x14b;" horiz-adv-x="618" 
d="M23 479v28h186v-88q29 51 74.5 74.5t91.5 23.5q74 0 117 -47t43 -133v-371q0 -50 -16 -93t-54 -69.5t-103 -26.5q-55 0 -95 27.5t-49 94.5l64 20q6 -64 25 -85.5t41 -21.5q36 0 54 29t18 105v390q0 69 -20.5 100.5t-60.5 31.5q-17 0 -39.5 -8.5t-45 -30.5t-39.5 -65v-280
q0 -34 3 -40.5t19 -8.5l55 -7v-28h-269v28l55 7q16 2 19 8.5t3 40.5v339q0 34 -3 40.5t-19 8.5z" />
    <glyph glyph-name="ntilde" unicode="&#xf1;" horiz-adv-x="623" 
d="M612 28v-28h-269v28l55 7q16 2 19 8.5t3 40.5v252q0 69 -20.5 100.5t-60.5 31.5q-17 0 -39.5 -8.5t-45 -30.5t-39.5 -65v-280q0 -34 3 -40.5t19 -8.5l55 -7v-28h-269v28l55 7q16 2 19 8.5t3 40.5v339q0 34 -3 40.5t-19 8.5l-55 7v28h186v-88q29 51 74.5 74.5t91.5 23.5
q74 0 117 -47t43 -133v-253q0 -34 3 -40.5t19 -8.5zM384 583q-22 0 -40.5 12.5t-34.5 29t-30.5 29t-28.5 12.5q-17 0 -26.5 -18.5t-14.5 -59.5h-36q8 80 29 118.5t60 38.5q22 0 40 -12.5t34 -29t30 -29t29 -12.5q17 0 26 19t14 59h36q-8 -80 -28.5 -118.5t-58.5 -38.5z" />
    <glyph glyph-name="o" unicode="o" horiz-adv-x="562" 
d="M510 264v-20q0 -115 -59.5 -184.5t-169.5 -69.5t-169.5 69.5t-59.5 184.5v20q0 115 59.5 184t169.5 69t169.5 -69t59.5 -184zM387 284q0 107 -27 152.5t-79 45.5q-51 0 -78.5 -45.5t-27.5 -152.5v-60q0 -106 27.5 -152.5t78.5 -46.5q52 0 79 46.5t27 152.5v60z" />
    <glyph glyph-name="oacute" unicode="&#xf3;" horiz-adv-x="562" 
d="M510 264v-20q0 -115 -59.5 -184.5t-169.5 -69.5t-169.5 69.5t-59.5 184.5v20q0 115 59.5 184t169.5 69t169.5 -69t59.5 -184zM387 284q0 107 -27 152.5t-79 45.5q-51 0 -78.5 -45.5t-27.5 -152.5v-60q0 -106 27.5 -152.5t78.5 -46.5q52 0 79 46.5t27 152.5v60zM280 579
l-24 21q20 32 36 63.5t26 76.5h126q-34 -46 -71 -83t-93 -78z" />
    <glyph glyph-name="obreve" unicode="&#x14f;" horiz-adv-x="562" 
d="M510 264v-20q0 -115 -59.5 -184.5t-169.5 -69.5t-169.5 69.5t-59.5 184.5v20q0 115 59.5 184t169.5 69t169.5 -69t59.5 -184zM387 284q0 107 -27 152.5t-79 45.5q-51 0 -78.5 -45.5t-27.5 -152.5v-60q0 -106 27.5 -152.5t78.5 -46.5q52 0 79 46.5t27 152.5v60zM281 661
q47 0 75 19.5t38 64.5l33 -10q-14 -74 -50 -115t-96 -41t-96 41t-50 115l33 10q11 -45 39 -64.5t74 -19.5z" />
    <glyph glyph-name="ocircumflex" unicode="&#xf4;" horiz-adv-x="562" 
d="M510 264v-20q0 -115 -59.5 -184.5t-169.5 -69.5t-169.5 69.5t-59.5 184.5v20q0 115 59.5 184t169.5 69t169.5 -69t59.5 -184zM387 284q0 107 -27 152.5t-79 45.5q-51 0 -78.5 -45.5t-27.5 -152.5v-60q0 -106 27.5 -152.5t78.5 -46.5q52 0 79 46.5t27 152.5v60zM418 601
l-14 -22q-36 21 -69 44t-58 45q-51 -46 -119 -89l-14 22q24 28 39 47.5t27 40t27 51.5h88l27.5 -51.5t26.5 -40t39 -47.5z" />
    <glyph glyph-name="odieresis" unicode="&#xf6;" horiz-adv-x="562" 
d="M510 264v-20q0 -115 -59.5 -184.5t-169.5 -69.5t-169.5 69.5t-59.5 184.5v20q0 115 59.5 184t169.5 69t169.5 -69t59.5 -184zM387 284q0 107 -27 152.5t-79 45.5q-51 0 -78.5 -45.5t-27.5 -152.5v-60q0 -106 27.5 -152.5t78.5 -46.5q52 0 79 46.5t27 152.5v60zM176 600
q-28 0 -45 17.5t-17 45.5t17 45t45 17q27 0 45 -17t18 -45t-18 -45.5t-45 -17.5zM386 600q-28 0 -45 17.5t-17 45.5t17 45t45 17q27 0 45 -17t18 -45t-18 -45.5t-45 -17.5z" />
    <glyph glyph-name="ograve" unicode="&#xf2;" horiz-adv-x="562" 
d="M510 264v-20q0 -115 -59.5 -184.5t-169.5 -69.5t-169.5 69.5t-59.5 184.5v20q0 115 59.5 184t169.5 69t169.5 -69t59.5 -184zM387 284q0 107 -27 152.5t-79 45.5q-51 0 -78.5 -45.5t-27.5 -152.5v-60q0 -106 27.5 -152.5t78.5 -46.5q52 0 79 46.5t27 152.5v60zM282 579
q-55 41 -92.5 78t-71.5 83h126q11 -45 26.5 -76.5t35.5 -63.5z" />
    <glyph glyph-name="ohungarumlaut" unicode="&#x151;" horiz-adv-x="562" 
d="M510 264v-20q0 -115 -59.5 -184.5t-169.5 -69.5t-169.5 69.5t-59.5 184.5v20q0 115 59.5 184t169.5 69t169.5 -69t59.5 -184zM387 284q0 107 -27 152.5t-79 45.5q-51 0 -78.5 -45.5t-27.5 -152.5v-60q0 -106 27.5 -152.5t78.5 -46.5q52 0 79 46.5t27 152.5v60zM201 579
l-27 24q20 30 32 61.5t22 75.5h111q-28 -45 -61 -83.5t-77 -77.5zM341 579l-27 24q20 30 32 61.5t22 75.5h111q-28 -45 -61 -83.5t-77 -77.5z" />
    <glyph glyph-name="omacron" unicode="&#x14d;" horiz-adv-x="562" 
d="M510 264v-20q0 -115 -59.5 -184.5t-169.5 -69.5t-169.5 69.5t-59.5 184.5v20q0 115 59.5 184t169.5 69t169.5 -69t59.5 -184zM387 284q0 107 -27 152.5t-79 45.5q-51 0 -78.5 -45.5t-27.5 -152.5v-60q0 -106 27.5 -152.5t78.5 -46.5q52 0 79 46.5t27 152.5v60zM425 674
v-55h-287v55h287z" />
    <glyph glyph-name="oslash" unicode="&#xf8;" horiz-adv-x="562" 
d="M510 244q0 -115 -59.5 -184.5t-169.5 -69.5q-45 0 -81.5 12.5t-64.5 34.5l-29 -37h-54l53 67q-53 65 -53 177v20q0 115 59.5 184t169.5 69q45 0 81.5 -12t64.5 -35l29 37h54l-53 -67q53 -65 53 -176v-20zM175 224q0 -36 3 -65l195 244q-12 42 -35 60.5t-57 18.5
q-51 0 -78.5 -45.5t-27.5 -152.5v-60zM387 284q0 37 -3 65l-195 -245q13 -41 36 -60t56 -19q52 0 79 46.5t27 152.5v60z" />
    <glyph glyph-name="otilde" unicode="&#xf5;" horiz-adv-x="562" 
d="M510 264v-20q0 -115 -59.5 -184.5t-169.5 -69.5t-169.5 69.5t-59.5 184.5v20q0 115 59.5 184t169.5 69t169.5 -69t59.5 -184zM387 284q0 107 -27 152.5t-79 45.5q-51 0 -78.5 -45.5t-27.5 -152.5v-60q0 -106 27.5 -152.5t78.5 -46.5q52 0 79 46.5t27 152.5v60zM343 583
q-22 0 -40.5 12.5t-34.5 29t-30.5 29t-28.5 12.5q-17 0 -26.5 -18.5t-14.5 -59.5h-36q8 80 29 118.5t60 38.5q22 0 40 -12.5t34 -29t30 -29t29 -12.5q17 0 26 19t14 59h36q-8 -80 -28.5 -118.5t-58.5 -38.5z" />
    <glyph glyph-name="oe" unicode="&#x153;" horiz-adv-x="863" 
d="M808 119q-18 -70 -67 -99.5t-114 -29.5q-61 0 -105.5 21.5t-72.5 60.5q-28 -39 -70 -60.5t-98 -21.5q-110 0 -169.5 69.5t-59.5 184.5v20q0 115 59.5 184t169.5 69q55 0 97 -21t69 -59q26 38 66 59t94 21q60 0 106.5 -23.5t73 -67.5t26.5 -107q0 -15 -1.5 -32t-5.5 -34
h-296v-29q0 -106 30 -152.5t97 -46.5q43 0 73 25.5t34 86.5zM387 284q0 107 -27 152.5t-79 45.5q-51 0 -78.5 -45.5t-27.5 -152.5v-60q0 -106 27.5 -152.5t78.5 -46.5q52 0 79 46.5t27 152.5v60zM607 482q-49 0 -73 -45t-24 -149h181q4 20 5.5 37.5t1.5 32.5q0 64 -25 94
t-66 30z" />
    <glyph glyph-name="p" unicode="p" horiz-adv-x="585" 
d="M16 479v28h186v-83q29 47 63 70t81 23q84 0 133.5 -66.5t49.5 -186.5v-20q0 -116 -57 -185t-158 -69q-60 0 -106 30v-149q0 -34 3 -40.5t19 -8.5l75 -7v-28h-289v28l55 7q16 2 19 8.5t3 40.5v552q0 34 -3 40.5t-19 8.5zM320 473q-25 0 -52.5 -20.5t-59.5 -83.5v-302
q38 -38 93 -38q56 0 80.5 49.5t24.5 135.5v80q0 93 -23 136t-63 43z" />
    <glyph glyph-name="thorn" unicode="&#xfe;" horiz-adv-x="582" 
d="M13 712v28h192v-307q27 42 60.5 63t77.5 21q84 0 133.5 -66.5t49.5 -186.5v-20q0 -116 -57 -185t-158 -69q-60 0 -106 30v-149q0 -34 3 -40.5t19 -8.5l75 -7v-28h-289v28l55 7q16 2 19 8.5t3 40.5v785q0 34 -3 40.5t-19 8.5zM317 473q-25 0 -52.5 -20.5t-59.5 -83.5v-302
q38 -38 93 -38q56 0 80.5 49.5t24.5 135.5v80q0 93 -23 136t-63 43z" />
    <glyph glyph-name="q" unicode="q" horiz-adv-x="577" 
d="M569 -185v-28h-289v28l75 7q16 2 19 8.5t3 40.5v203q-27 -42 -60.5 -63t-77.5 -21q-84 0 -133.5 66.5t-49.5 186.5v20q0 116 57.5 185t157.5 69q77 0 126 -46q18 7 35 17.5t33 23.5h27v-641q0 -34 3 -40.5t19 -8.5zM179 213q0 -93 23 -136t63 -43q25 0 52.5 20.5
t59.5 83.5v302q-38 38 -93 38t-80 -49.5t-25 -135.5v-80z" />
    <glyph glyph-name="r" unicode="r" horiz-adv-x="462" 
d="M23 479v28h186v-82q61 92 145 92q31 0 60 -19.5t48 -72.5l-89 -48q-14 41 -32.5 55.5t-39.5 14.5q-22 0 -43 -14t-43 -52v-297q0 -34 3 -40.5t19 -8.5l75 -7v-28h-289v28l55 7q16 2 19 8.5t3 40.5v339q0 34 -3 40.5t-19 8.5z" />
    <glyph glyph-name="racute" unicode="&#x155;" horiz-adv-x="462" 
d="M23 479v28h186v-82q61 92 145 92q31 0 60 -19.5t48 -72.5l-89 -48q-14 41 -32.5 55.5t-39.5 14.5q-22 0 -43 -14t-43 -52v-297q0 -34 3 -40.5t19 -8.5l75 -7v-28h-289v28l55 7q16 2 19 8.5t3 40.5v339q0 34 -3 40.5t-19 8.5zM262 579l-24 21q20 32 36 63.5t26 76.5h126
q-34 -46 -71 -83t-93 -78z" />
    <glyph glyph-name="rcaron" unicode="&#x159;" horiz-adv-x="462" 
d="M23 479v28h186v-82q61 92 145 92q31 0 60 -19.5t48 -72.5l-89 -48q-14 41 -32.5 55.5t-39.5 14.5q-22 0 -43 -14t-43 -52v-297q0 -34 3 -40.5t19 -8.5l75 -7v-28h-289v28l55 7q16 2 19 8.5t3 40.5v339q0 34 -3 40.5t-19 8.5zM400 723q-24 -27 -39 -47t-26.5 -40.5
l-27.5 -51.5h-88q-15 31 -27 51.5t-27 40.5t-39 47l14 22q36 -21 69 -44t58 -45q51 46 119 89z" />
    <glyph glyph-name="uni0157" unicode="&#x157;" horiz-adv-x="462" 
d="M23 479v28h186v-82q61 92 145 92q31 0 60 -19.5t48 -72.5l-89 -48q-14 41 -32.5 55.5t-39.5 14.5q-22 0 -43 -14t-43 -52v-297q0 -34 3 -40.5t19 -8.5l75 -7v-28h-289v28l55 7q16 2 19 8.5t3 40.5v339q0 34 -3 40.5t-19 8.5zM78 -248l-19 18q16 33 26.5 68.5t16.5 84.5
h113q-23 -46 -56.5 -88.5t-80.5 -82.5z" />
    <glyph glyph-name="s" unicode="s" horiz-adv-x="480" 
d="M251 189l-69 16q-67 16 -99.5 57.5t-32.5 98.5q0 42 18.5 77.5t58.5 57t104 21.5q69 0 112 -22t61 -58t11 -77l-110 -20q14 68 -7.5 105t-71.5 37q-35 0 -58 -20.5t-23 -58.5q0 -35 20 -61.5t59 -35.5l69 -16q74 -17 107 -53.5t33 -90.5q0 -67 -49.5 -111.5t-147.5 -44.5
q-34 0 -74.5 10.5t-74 38.5t-48.5 80l65 26q7 -66 45.5 -93t86.5 -27q45 0 73.5 20.5t28.5 59.5q0 27 -18.5 49.5t-68.5 34.5z" />
    <glyph glyph-name="sacute" unicode="&#x15b;" horiz-adv-x="480" 
d="M251 189l-69 16q-67 16 -99.5 57.5t-32.5 98.5q0 42 18.5 77.5t58.5 57t104 21.5q69 0 112 -22t61 -58t11 -77l-110 -20q14 68 -7.5 105t-71.5 37q-35 0 -58 -20.5t-23 -58.5q0 -35 20 -61.5t59 -35.5l69 -16q74 -17 107 -53.5t33 -90.5q0 -67 -49.5 -111.5t-147.5 -44.5
q-34 0 -74.5 10.5t-74 38.5t-48.5 80l65 26q7 -66 45.5 -93t86.5 -27q45 0 73.5 20.5t28.5 59.5q0 27 -18.5 49.5t-68.5 34.5zM239 579l-24 21q20 32 36 63.5t26 76.5h126q-34 -46 -71 -83t-93 -78z" />
    <glyph glyph-name="scaron" unicode="&#x161;" horiz-adv-x="480" 
d="M251 189l-69 16q-67 16 -99.5 57.5t-32.5 98.5q0 42 18.5 77.5t58.5 57t104 21.5q69 0 112 -22t61 -58t11 -77l-110 -20q14 68 -7.5 105t-71.5 37q-35 0 -58 -20.5t-23 -58.5q0 -35 20 -61.5t59 -35.5l69 -16q74 -17 107 -53.5t33 -90.5q0 -67 -49.5 -111.5t-147.5 -44.5
q-34 0 -74.5 10.5t-74 38.5t-48.5 80l65 26q7 -66 45.5 -93t86.5 -27q45 0 73.5 20.5t28.5 59.5q0 27 -18.5 49.5t-68.5 34.5zM377 723q-24 -27 -39 -47t-26.5 -40.5l-27.5 -51.5h-88q-15 31 -27 51.5t-27 40.5t-39 47l14 22q36 -21 69 -44t58 -45q51 46 119 89z" />
    <glyph glyph-name="scedilla" unicode="&#x15f;" horiz-adv-x="480" 
d="M355 -140q0 -39 -33.5 -61t-85.5 -22q-41 0 -72 17.5t-39 60.5l55 14q4 -33 16.5 -46.5t31.5 -13.5q23 0 33.5 14.5t10.5 36.5q0 23 -11 38t-41 15q-4 0 -9.5 -0.5t-10.5 -1.5l-13 26l22 54q-32 3 -66.5 15.5t-62.5 39.5t-41 73l65 26q7 -66 45.5 -93t86.5 -27
q45 0 73.5 20.5t28.5 59.5q0 27 -18.5 49.5t-68.5 34.5l-69 16q-67 16 -99.5 57.5t-32.5 98.5q0 42 18.5 77.5t58.5 57t104 21.5q69 0 112 -22t61 -58t11 -77l-110 -20q14 68 -7.5 105t-71.5 37q-35 0 -58 -20.5t-23 -58.5q0 -35 20 -61.5t59 -35.5l69 -16q74 -17 107 -53.5
t33 -90.5q0 -64 -46.5 -108t-137.5 -48l-19 -45q57 -1 91 -23.5t34 -61.5z" />
    <glyph glyph-name="scircumflex" unicode="&#x15d;" horiz-adv-x="480" 
d="M251 189l-69 16q-67 16 -99.5 57.5t-32.5 98.5q0 42 18.5 77.5t58.5 57t104 21.5q69 0 112 -22t61 -58t11 -77l-110 -20q14 68 -7.5 105t-71.5 37q-35 0 -58 -20.5t-23 -58.5q0 -35 20 -61.5t59 -35.5l69 -16q74 -17 107 -53.5t33 -90.5q0 -67 -49.5 -111.5t-147.5 -44.5
q-34 0 -74.5 10.5t-74 38.5t-48.5 80l65 26q7 -66 45.5 -93t86.5 -27q45 0 73.5 20.5t28.5 59.5q0 27 -18.5 49.5t-68.5 34.5zM377 601l-14 -22q-36 21 -69 44t-58 45q-51 -46 -119 -89l-14 22q24 28 39 47.5t27 40t27 51.5h88l27.5 -51.5t26.5 -40t39 -47.5z" />
    <glyph glyph-name="germandbls" unicode="&#xdf;" horiz-adv-x="631" 
d="M215 581v-581h-192v28l55 7q16 2 19 8.5t3 40.5v339q0 34 -3 40.5t-19 8.5l-55 7v28h77v54q0 48 20 91.5t66.5 70.5t127.5 27q62 0 102 -17t60 -44t20 -58q0 -29 -15 -52.5t-34 -45.5t-34 -46t-15 -55q0 -37 22.5 -60.5t61.5 -51.5l39 -28q86 -62 86 -155
q0 -63 -43.5 -105t-117.5 -42q-32 0 -65.5 10.5t-60.5 38.5t-42 80l65 26q7 -66 34.5 -93t67.5 -27q31 0 51 18t20 56q0 27 -14 46.5t-49 44.5l-39 28q-27 20 -49 39t-34.5 43t-12.5 60q0 38 13.5 66t31 54.5t31 58t13.5 74.5q0 59 -26.5 80.5t-66.5 21.5q-46 0 -72.5 -28
t-26.5 -106z" />
    <glyph glyph-name="t" unicode="t" horiz-adv-x="395" 
d="M379 104q-13 -61 -49.5 -87.5t-88.5 -26.5q-53 0 -87 23.5t-50 62.5t-16 83v264q0 34 -3 40.5t-19 8.5l-55 7v28h77v116l115 23v-139h160v-35h-160v-333q0 -64 16 -88.5t41 -24.5q26 0 40.5 20t18.5 73z" />
    <glyph glyph-name="tbar" unicode="&#x167;" horiz-adv-x="410" 
d="M394 104q-13 -61 -49.5 -87.5t-88.5 -26.5q-53 0 -87 23.5t-50 62.5t-16 83v121h-77v35h77v108q0 34 -3 40.5t-19 8.5l-55 7v28h77v116l115 23v-139h160v-35h-160v-157h128v-35h-128v-141q0 -64 16 -88.5t41 -24.5q26 0 40.5 20t18.5 73z" />
    <glyph glyph-name="tcaron" unicode="&#x165;" horiz-adv-x="395" 
d="M379 104q-13 -61 -49.5 -87.5t-88.5 -26.5q-53 0 -87 23.5t-50 62.5t-16 83v264q0 34 -3 40.5t-19 8.5l-55 7v28h77v116l115 23v-139h160v-35h-160v-333q0 -64 16 -88.5t41 -24.5q26 0 40.5 20t18.5 73zM284 556h-24v214h109q-18 -56 -37.5 -106t-47.5 -108z" />
    <glyph glyph-name="u" unicode="u" horiz-adv-x="606" 
d="M590 28v-28h-186v88q-28 -51 -72 -74.5t-89 -23.5q-71 0 -113 47.5t-42 132.5v253q0 34 -3 40.5t-19 8.5l-55 7v28h192v-336q0 -69 19.5 -100.5t56.5 -31.5q16 0 37.5 8.5t43.5 31t38 64.5v280q0 34 -3 41t-19 8l-75 7v28h212v-423q0 -34 3 -40.5t19 -8.5z" />
    <glyph glyph-name="uacute" unicode="&#xfa;" horiz-adv-x="606" 
d="M590 28v-28h-186v88q-28 -51 -72 -74.5t-89 -23.5q-71 0 -113 47.5t-42 132.5v253q0 34 -3 40.5t-19 8.5l-55 7v28h192v-336q0 -69 19.5 -100.5t56.5 -31.5q16 0 37.5 8.5t43.5 31t38 64.5v280q0 34 -3 41t-19 8l-75 7v28h212v-423q0 -34 3 -40.5t19 -8.5zM298 579
l-24 21q20 32 36 63.5t26 76.5h126q-34 -46 -71 -83t-93 -78z" />
    <glyph glyph-name="ubreve" unicode="&#x16d;" horiz-adv-x="606" 
d="M590 28v-28h-186v88q-28 -51 -72 -74.5t-89 -23.5q-71 0 -113 47.5t-42 132.5v253q0 34 -3 40.5t-19 8.5l-55 7v28h192v-336q0 -69 19.5 -100.5t56.5 -31.5q16 0 37.5 8.5t43.5 31t38 64.5v280q0 34 -3 41t-19 8l-75 7v28h212v-423q0 -34 3 -40.5t19 -8.5zM299 661
q47 0 75 19.5t38 64.5l33 -10q-14 -74 -50 -115t-96 -41t-96 41t-50 115l33 10q11 -45 39 -64.5t74 -19.5z" />
    <glyph glyph-name="ucircumflex" unicode="&#xfb;" horiz-adv-x="606" 
d="M590 28v-28h-186v88q-28 -51 -72 -74.5t-89 -23.5q-71 0 -113 47.5t-42 132.5v253q0 34 -3 40.5t-19 8.5l-55 7v28h192v-336q0 -69 19.5 -100.5t56.5 -31.5q16 0 37.5 8.5t43.5 31t38 64.5v280q0 34 -3 41t-19 8l-75 7v28h212v-423q0 -34 3 -40.5t19 -8.5zM436 601
l-14 -22q-36 21 -69 44t-58 45q-51 -46 -119 -89l-14 22q24 28 39 47.5t27 40t27 51.5h88l27.5 -51.5t26.5 -40t39 -47.5z" />
    <glyph glyph-name="udieresis" unicode="&#xfc;" horiz-adv-x="606" 
d="M590 28v-28h-186v88q-28 -51 -72 -74.5t-89 -23.5q-71 0 -113 47.5t-42 132.5v253q0 34 -3 40.5t-19 8.5l-55 7v28h192v-336q0 -69 19.5 -100.5t56.5 -31.5q16 0 37.5 8.5t43.5 31t38 64.5v280q0 34 -3 41t-19 8l-75 7v28h212v-423q0 -34 3 -40.5t19 -8.5zM194 600
q-28 0 -45 17.5t-17 45.5t17 45t45 17q27 0 45 -17t18 -45t-18 -45.5t-45 -17.5zM404 600q-28 0 -45 17.5t-17 45.5t17 45t45 17q27 0 45 -17t18 -45t-18 -45.5t-45 -17.5z" />
    <glyph glyph-name="ugrave" unicode="&#xf9;" horiz-adv-x="606" 
d="M590 28v-28h-186v88q-28 -51 -72 -74.5t-89 -23.5q-71 0 -113 47.5t-42 132.5v253q0 34 -3 40.5t-19 8.5l-55 7v28h192v-336q0 -69 19.5 -100.5t56.5 -31.5q16 0 37.5 8.5t43.5 31t38 64.5v280q0 34 -3 41t-19 8l-75 7v28h212v-423q0 -34 3 -40.5t19 -8.5zM300 579
q-55 41 -92.5 78t-71.5 83h126q11 -45 26.5 -76.5t35.5 -63.5z" />
    <glyph glyph-name="uhungarumlaut" unicode="&#x171;" horiz-adv-x="606" 
d="M590 28v-28h-186v88q-28 -51 -72 -74.5t-89 -23.5q-71 0 -113 47.5t-42 132.5v253q0 34 -3 40.5t-19 8.5l-55 7v28h192v-336q0 -69 19.5 -100.5t56.5 -31.5q16 0 37.5 8.5t43.5 31t38 64.5v280q0 34 -3 41t-19 8l-75 7v28h212v-423q0 -34 3 -40.5t19 -8.5zM219 579
l-27 24q20 30 32 61.5t22 75.5h111q-28 -45 -61 -83.5t-77 -77.5zM359 579l-27 24q20 30 32 61.5t22 75.5h111q-28 -45 -61 -83.5t-77 -77.5z" />
    <glyph glyph-name="umacron" unicode="&#x16b;" horiz-adv-x="606" 
d="M590 28v-28h-186v88q-28 -51 -72 -74.5t-89 -23.5q-71 0 -113 47.5t-42 132.5v253q0 34 -3 40.5t-19 8.5l-55 7v28h192v-336q0 -69 19.5 -100.5t56.5 -31.5q16 0 37.5 8.5t43.5 31t38 64.5v280q0 34 -3 41t-19 8l-75 7v28h212v-423q0 -34 3 -40.5t19 -8.5zM443 674v-55
h-287v55h287z" />
    <glyph glyph-name="uni0163" unicode="&#x163;" horiz-adv-x="395" 
d="M379 104q-13 -61 -49.5 -87.5t-88.5 -26.5q-53 0 -87 23.5t-50 62.5t-16 83v264q0 34 -3 40.5t-19 8.5l-55 7v28h77v116l115 23v-139h160v-35h-160v-333q0 -64 16 -88.5t41 -24.5q26 0 40.5 20t18.5 73zM153 -248l-19 18q16 33 26.5 68.5t16.5 84.5h113
q-23 -46 -56.5 -88.5t-80.5 -82.5z" />
    <glyph glyph-name="uni0219" unicode="&#x219;" horiz-adv-x="480" 
d="M251 189l-69 16q-67 16 -99.5 57.5t-32.5 98.5q0 42 18.5 77.5t58.5 57t104 21.5q69 0 112 -22t61 -58t11 -77l-110 -20q14 68 -7.5 105t-71.5 37q-35 0 -58 -20.5t-23 -58.5q0 -35 20 -61.5t59 -35.5l69 -16q74 -17 107 -53.5t33 -90.5q0 -67 -49.5 -111.5t-147.5 -44.5
q-34 0 -74.5 10.5t-74 38.5t-48.5 80l65 26q7 -66 45.5 -93t86.5 -27q45 0 73.5 20.5t28.5 59.5q0 27 -18.5 49.5t-68.5 34.5zM160 -248l-19 18q16 33 26.5 68.5t16.5 84.5h113q-23 -46 -56.5 -88.5t-80.5 -82.5z" />
    <glyph glyph-name="uni021B" unicode="&#x21b;" horiz-adv-x="395" 
d="M379 104q-13 -61 -49.5 -87.5t-88.5 -26.5q-53 0 -87 23.5t-50 62.5t-16 83v264q0 34 -3 40.5t-19 8.5l-55 7v28h77v116l115 23v-139h160v-35h-160v-333q0 -64 16 -88.5t41 -24.5q26 0 40.5 20t18.5 73zM153 -248l-19 18q16 33 26.5 68.5t16.5 84.5h113
q-23 -46 -56.5 -88.5t-80.5 -82.5z" />
    <glyph glyph-name="uogonek" unicode="&#x173;" horiz-adv-x="606" 
d="M301 479v28h212v-423q0 -34 3 -40.5t19 -8.5l55 -7v-28h-48q-68 0 -104.5 -38t-36.5 -91q0 -28 10.5 -44t32.5 -16q20 0 35.5 16.5t21.5 60.5l64 -13q-15 -54 -50.5 -76t-78.5 -22q-50 0 -84 25t-34 68q0 37 24.5 68t61.5 52v98q-28 -51 -72 -74.5t-89 -23.5
q-71 0 -113 47.5t-42 132.5v253q0 34 -3 40.5t-19 8.5l-55 7v28h192v-336q0 -69 19.5 -100.5t56.5 -31.5q16 0 37.5 8.5t43.5 31t38 64.5v280q0 34 -3 41t-19 8z" />
    <glyph glyph-name="uring" unicode="&#x16f;" horiz-adv-x="606" 
d="M590 28v-28h-186v88q-28 -51 -72 -74.5t-89 -23.5q-71 0 -113 47.5t-42 132.5v253q0 34 -3 40.5t-19 8.5l-55 7v28h192v-336q0 -69 19.5 -100.5t56.5 -31.5q16 0 37.5 8.5t43.5 31t38 64.5v280q0 34 -3 41t-19 8l-75 7v28h212v-423q0 -34 3 -40.5t19 -8.5zM422 689v-11
q0 -28 -14.5 -54.5t-42 -43.5t-66.5 -17t-66.5 17t-42 43.5t-14.5 54.5v11q0 29 14.5 55t42 42.5t66.5 16.5t66.5 -16.5t42 -42.5t14.5 -55zM349 696q0 80 -50 80q-49 0 -49 -80v-25q0 -81 49 -81q50 0 50 81v25z" />
    <glyph glyph-name="utilde" unicode="&#x169;" horiz-adv-x="606" 
d="M590 28v-28h-186v88q-28 -51 -72 -74.5t-89 -23.5q-71 0 -113 47.5t-42 132.5v253q0 34 -3 40.5t-19 8.5l-55 7v28h192v-336q0 -69 19.5 -100.5t56.5 -31.5q16 0 37.5 8.5t43.5 31t38 64.5v280q0 34 -3 41t-19 8l-75 7v28h212v-423q0 -34 3 -40.5t19 -8.5zM361 583
q-22 0 -40.5 12.5t-34.5 29t-30.5 29t-28.5 12.5q-17 0 -26.5 -18.5t-14.5 -59.5h-36q8 80 29 118.5t60 38.5q22 0 40 -12.5t34 -29t30 -29t29 -12.5q17 0 26 19t14 59h36q-8 -80 -28.5 -118.5t-58.5 -38.5z" />
    <glyph glyph-name="v" unicode="v" horiz-adv-x="550" 
d="M463 423l-142 -423h-91l-142 423q-7 23 -11.5 32.5t-10 12.5t-16.5 4l-55 7v28h270v-28l-55 -7q-15 -2 -16 -8t10 -41l110 -332l111 332q11 35 10.5 41t-16.5 8l-55 7v28h191v-28l-55 -7q-10 -1 -15.5 -4t-9.5 -12.5t-12 -32.5z" />
    <glyph glyph-name="w" unicode="w" horiz-adv-x="798" 
d="M715 423l-109 -423h-91l-120 402l-121 -402h-83l-108 423q-6 23 -9.5 32.5t-8.5 12.5t-15 4l-55 7v28h266v-28l-55 -7q-16 -2 -18 -8.5t7 -40.5l78 -301l115 385h88l119 -402l81 318q9 34 7 40.5t-18 8.5l-55 7v28h193v-28l-55 -7q-10 -1 -15 -4t-8.5 -12.5t-9.5 -32.5z
" />
    <glyph glyph-name="wacute" unicode="&#x1e83;" horiz-adv-x="798" 
d="M715 423l-109 -423h-91l-120 402l-121 -402h-83l-108 423q-6 23 -9.5 32.5t-8.5 12.5t-15 4l-55 7v28h266v-28l-55 -7q-16 -2 -18 -8.5t7 -40.5l78 -301l115 385h88l119 -402l81 318q9 34 7 40.5t-18 8.5l-55 7v28h193v-28l-55 -7q-10 -1 -15 -4t-8.5 -12.5t-9.5 -32.5z
M430 579l-24 21q20 32 36 63.5t26 76.5h126q-34 -46 -71 -83t-93 -78z" />
    <glyph glyph-name="wcircumflex" unicode="&#x175;" horiz-adv-x="798" 
d="M715 423l-109 -423h-91l-120 402l-121 -402h-83l-108 423q-6 23 -9.5 32.5t-8.5 12.5t-15 4l-55 7v28h266v-28l-55 -7q-16 -2 -18 -8.5t7 -40.5l78 -301l115 385h88l119 -402l81 318q9 34 7 40.5t-18 8.5l-55 7v28h193v-28l-55 -7q-10 -1 -15 -4t-8.5 -12.5t-9.5 -32.5z
M568 601l-14 -22q-36 21 -69 44t-58 45q-51 -46 -119 -89l-14 22q24 28 39 47.5t27 40t27 51.5h88l27.5 -51.5t26.5 -40t39 -47.5z" />
    <glyph glyph-name="wdieresis" unicode="&#x1e85;" horiz-adv-x="798" 
d="M715 423l-109 -423h-91l-120 402l-121 -402h-83l-108 423q-6 23 -9.5 32.5t-8.5 12.5t-15 4l-55 7v28h266v-28l-55 -7q-16 -2 -18 -8.5t7 -40.5l78 -301l115 385h88l119 -402l81 318q9 34 7 40.5t-18 8.5l-55 7v28h193v-28l-55 -7q-10 -1 -15 -4t-8.5 -12.5t-9.5 -32.5z
M326 600q-28 0 -45 17.5t-17 45.5t17 45t45 17q27 0 45 -17t18 -45t-18 -45.5t-45 -17.5zM536 600q-28 0 -45 17.5t-17 45.5t17 45t45 17q27 0 45 -17t18 -45t-18 -45.5t-45 -17.5z" />
    <glyph glyph-name="wgrave" unicode="&#x1e81;" horiz-adv-x="798" 
d="M715 423l-109 -423h-91l-120 402l-121 -402h-83l-108 423q-6 23 -9.5 32.5t-8.5 12.5t-15 4l-55 7v28h266v-28l-55 -7q-16 -2 -18 -8.5t7 -40.5l78 -301l115 385h88l119 -402l81 318q9 34 7 40.5t-18 8.5l-55 7v28h193v-28l-55 -7q-10 -1 -15 -4t-8.5 -12.5t-9.5 -32.5z
M432 579q-55 41 -92.5 78t-71.5 83h126q11 -45 26.5 -76.5t35.5 -63.5z" />
    <glyph glyph-name="x" unicode="x" horiz-adv-x="543" 
d="M205 28v-28h-200v28l55 7q10 2 15.5 4.5t13.5 12.5t23 32l107 156l-107 183q-13 23 -20 32.5t-13 12.5t-16 4l-55 7v28h277v-28l-55 -7q-16 -2 -15 -8t21 -41l67 -114l77 114q23 34 23.5 40.5t-15.5 8.5l-55 7v28h200v-28l-55 -7q-10 -1 -15.5 -4t-13 -12.5t-23.5 -32.5
l-102 -150l110 -189q14 -23 20.5 -32.5t12.5 -12t16 -4.5l55 -7v-28h-277v28l55 7q16 2 15 8.5t-21 40.5l-70 121l-82 -121q-23 -34 -23.5 -40.5t15.5 -8.5z" />
    <glyph glyph-name="y" unicode="y" horiz-adv-x="550" 
d="M303 -50q-23 -63 -50.5 -101t-67.5 -55t-100 -17v110q61 0 98.5 8.5t58 27t30.5 47.5l10 30h-52l-142 423q-7 23 -11.5 32.5t-10 12.5t-16.5 4l-55 7v28h270v-28l-55 -7q-12 -1 -14.5 -7.5t8.5 -41.5l109 -330l113 334q11 32 9.5 37.5t-16.5 7.5l-55 7v28h191v-28l-55 -7
q-15 -2 -20 -8t-16 -37z" />
    <glyph glyph-name="yacute" unicode="&#xfd;" horiz-adv-x="550" 
d="M303 -50q-23 -63 -50.5 -101t-67.5 -55t-100 -17v110q61 0 98.5 8.5t58 27t30.5 47.5l10 30h-52l-142 423q-7 23 -11.5 32.5t-10 12.5t-16.5 4l-55 7v28h270v-28l-55 -7q-12 -1 -14.5 -7.5t8.5 -41.5l109 -330l113 334q11 32 9.5 37.5t-16.5 7.5l-55 7v28h191v-28l-55 -7
q-15 -2 -20 -8t-16 -37zM308 579l-24 21q20 32 36 63.5t26 76.5h126q-34 -46 -71 -83t-93 -78z" />
    <glyph glyph-name="ycircumflex" unicode="&#x177;" horiz-adv-x="550" 
d="M303 -50q-23 -63 -50.5 -101t-67.5 -55t-100 -17v110q61 0 98.5 8.5t58 27t30.5 47.5l10 30h-52l-142 423q-7 23 -11.5 32.5t-10 12.5t-16.5 4l-55 7v28h270v-28l-55 -7q-12 -1 -14.5 -7.5t8.5 -41.5l109 -330l113 334q11 32 9.5 37.5t-16.5 7.5l-55 7v28h191v-28l-55 -7
q-15 -2 -20 -8t-16 -37zM446 601l-14 -22q-36 21 -69 44t-58 45q-51 -46 -119 -89l-14 22q24 28 39 47.5t27 40t27 51.5h88l27.5 -51.5t26.5 -40t39 -47.5z" />
    <glyph glyph-name="ydieresis" unicode="&#xff;" horiz-adv-x="550" 
d="M303 -50q-23 -63 -50.5 -101t-67.5 -55t-100 -17v110q61 0 98.5 8.5t58 27t30.5 47.5l10 30h-52l-142 423q-7 23 -11.5 32.5t-10 12.5t-16.5 4l-55 7v28h270v-28l-55 -7q-12 -1 -14.5 -7.5t8.5 -41.5l109 -330l113 334q11 32 9.5 37.5t-16.5 7.5l-55 7v28h191v-28l-55 -7
q-15 -2 -20 -8t-16 -37zM204 600q-28 0 -45 17.5t-17 45.5t17 45t45 17q27 0 45 -17t18 -45t-18 -45.5t-45 -17.5zM414 600q-28 0 -45 17.5t-17 45.5t17 45t45 17q27 0 45 -17t18 -45t-18 -45.5t-45 -17.5z" />
    <glyph glyph-name="ygrave" unicode="&#x1ef3;" horiz-adv-x="550" 
d="M303 -50q-23 -63 -50.5 -101t-67.5 -55t-100 -17v110q61 0 98.5 8.5t58 27t30.5 47.5l10 30h-52l-142 423q-7 23 -11.5 32.5t-10 12.5t-16.5 4l-55 7v28h270v-28l-55 -7q-12 -1 -14.5 -7.5t8.5 -41.5l109 -330l113 334q11 32 9.5 37.5t-16.5 7.5l-55 7v28h191v-28l-55 -7
q-15 -2 -20 -8t-16 -37zM310 579q-55 41 -92.5 78t-71.5 83h126q11 -45 26.5 -76.5t35.5 -63.5z" />
    <glyph glyph-name="z" unicode="z" horiz-adv-x="465" 
d="M397 152h28v-152h-387v25l251 447h-130q-23 0 -33.5 -1.5t-13.5 -7t-7 -17.5l-27 -91h-28v152h365v-25l-251 -447h152q24 0 34 1.5t13.5 7t6.5 17.5z" />
    <glyph glyph-name="zacute" unicode="&#x17a;" horiz-adv-x="465" 
d="M397 152h28v-152h-387v25l251 447h-130q-23 0 -33.5 -1.5t-13.5 -7t-7 -17.5l-27 -91h-28v152h365v-25l-251 -447h152q24 0 34 1.5t13.5 7t6.5 17.5zM232 579l-24 21q20 32 36 63.5t26 76.5h126q-34 -46 -71 -83t-93 -78z" />
    <glyph glyph-name="zcaron" unicode="&#x17e;" horiz-adv-x="465" 
d="M397 152h28v-152h-387v25l251 447h-130q-23 0 -33.5 -1.5t-13.5 -7t-7 -17.5l-27 -91h-28v152h365v-25l-251 -447h152q24 0 34 1.5t13.5 7t6.5 17.5zM370 723q-24 -27 -39 -47t-26.5 -40.5l-27.5 -51.5h-88q-15 31 -27 51.5t-27 40.5t-39 47l14 22q36 -21 69 -44t58 -45
q51 46 119 89z" />
    <glyph glyph-name="zdotaccent" unicode="&#x17c;" horiz-adv-x="465" 
d="M397 152h28v-152h-387v25l251 447h-130q-23 0 -33.5 -1.5t-13.5 -7t-7 -17.5l-27 -91h-28v152h365v-25l-251 -447h152q24 0 34 1.5t13.5 7t6.5 17.5zM233 593q-31 0 -50 19.5t-19 50.5t19 50t50 19q30 0 50 -19t20 -50t-20 -50.5t-50 -19.5z" />
    <glyph glyph-name="i.dot" horiz-adv-x="308" 
d="M157 593q-31 0 -50 19.5t-19 50.5t19 50t50 19q30 0 50 -19t20 -50t-20 -50.5t-50 -19.5zM23 479v28h192v-423q0 -34 3 -40.5t19 -8.5l55 -7v-28h-269v28l55 7q16 2 19 8.5t3 40.5v339q0 34 -3 40.5t-19 8.5z" />
    <glyph glyph-name="ordfeminine" unicode="&#xaa;" horiz-adv-x="374" 
d="M309 339q-53 0 -68 40q-23 -23 -48.5 -33.5t-51.5 -10.5q-49 0 -72.5 27t-23.5 64q0 41 28 64t95 23h69v55q0 54 -16.5 72t-45.5 18q-18 0 -32 -7t-20.5 -26.5t-2.5 -57.5l-59 7q-4 48 25.5 79.5t89.5 31.5q48 0 74.5 -16.5t37 -43t10.5 -57.5v-152q0 -35 7.5 -42.5
t16.5 -7.5q6 0 13.5 2.5t15.5 9.5l12 -19q-10 -9 -23 -14.5t-31 -5.5zM156 366q16 0 36 8.5t45 34.5v77h-64q-34 0 -49.5 -13t-15.5 -43q0 -64 48 -64z" />
    <glyph glyph-name="ordmasculine" unicode="&#xba;" horiz-adv-x="392" 
d="M345 517v-13q0 -77 -39 -123t-110 -46t-110 46t-39 123v13q0 77 39 122.5t110 45.5t110 -45.5t39 -122.5zM277 531q0 70 -20 98.5t-61 28.5t-61 -28.5t-20 -98.5v-41q0 -70 20 -99t61 -29t61 29t20 99v41z" />
    <glyph glyph-name="pi" unicode="&#x3c0;" horiz-adv-x="615" 
d="M17 479v28h581v-35h-89v-365q0 -51 8.5 -64t21.5 -13q9 0 19.5 3.5t20.5 12.5l17 -27q-32 -29 -85 -29q-56 0 -86.5 34.5t-30.5 98.5v349h-185v-472h-115v423q0 34 -3 40.5t-19 8.5z" />
    <glyph glyph-name="zero" unicode="0" horiz-adv-x="616" 
d="M553 372v-63q0 -96 -28.5 -168t-83.5 -111.5t-133 -39.5t-133 39.5t-83.5 111.5t-28.5 168v63q0 96 28.5 167.5t83.5 111t133 39.5t133 -39.5t83.5 -111t28.5 -167.5zM420 442q0 114 -29 163.5t-83 49.5t-83 -49.5t-29 -163.5v-203q0 -115 29 -164.5t83 -49.5t83 49.5
t29 164.5v203z" />
    <glyph glyph-name="one" unicode="1" horiz-adv-x="365" 
d="M19 591l139 89h96v-596q0 -34 3 -40.5t19 -8.5l55 -7v-28h-294v28l75 7q16 2 19 8.5t3 40.5v538l-96 -61z" />
    <glyph glyph-name="two" unicode="2" horiz-adv-x="533" 
d="M440 221h28v-221h-419v70q0 62 19.5 104.5t52.5 73.5t71 55l73.5 51.5t60.5 65t24 98.5q0 137 -91 137q-56 0 -78.5 -49t-12.5 -139l-120 16q-9 54 10.5 101t70 76.5t131.5 29.5q79 0 127 -25.5t70.5 -67t22.5 -89.5q0 -59 -24 -97t-63 -62.5t-84 -42t-87 -37.5
q-51 -23 -87 -61.5t-44 -103.5h273q24 0 34 1.5t13.5 7t6.5 17.5z" />
    <glyph glyph-name="three" unicode="3" horiz-adv-x="523" 
d="M209 331h-27v35h27q71 0 100.5 42t29.5 108q0 139 -91 139q-56 0 -78.5 -49t-12.5 -139l-120 16q-9 54 10.5 101t70 76.5t131.5 29.5q79 0 127 -24.5t70.5 -64t22.5 -85.5q0 -70 -48 -112.5t-137 -54.5q93 -12 142.5 -56t49.5 -123t-60 -129.5t-179 -50.5
q-79 0 -134.5 36.5t-70.5 121.5l71 19q10 -76 42.5 -109t82.5 -33q62 0 90 36.5t28 108.5q0 71 -31 116t-106 45z" />
    <glyph glyph-name="four" unicode="4" horiz-adv-x="512" 
d="M292 84v92h-280v35q50 53 84.5 104t59 105.5t43.5 118t37 141.5h145q-31 -94 -76.5 -173.5t-106 -151.5t-137.5 -144h231v153l120 18v-171h77v-35h-77v-92q0 -34 3 -40.5t19 -8.5l55 -7v-28h-294v28l75 7q16 2 19 8.5t3 40.5z" />
    <glyph glyph-name="five" unicode="5" horiz-adv-x="514" 
d="M408 767h28v-191h-319l-11 -193q27 19 62.5 29.5t75.5 10.5q68 0 118.5 -26t78.5 -73t28 -112q0 -59 -23 -109.5t-74.5 -81.5t-135.5 -31q-76 0 -128 36.5t-67 121.5l71 19q10 -76 39.5 -109t75.5 -33q58 0 85 43.5t27 143.5q0 52 -9.5 91.5t-34.5 62t-70 22.5
q-30 0 -64 -12t-69 -44l-24 15l19 333h255q35 0 42.5 4t11.5 22z" />
    <glyph glyph-name="six" unicode="6" horiz-adv-x="581" 
d="M531 195q0 -94 -61.5 -149.5t-165.5 -55.5q-114 0 -176 82t-62 233v63q0 165 62.5 243.5t172.5 78.5q67 0 116.5 -23.5t76 -63t25.5 -87.5l-118 -14q5 74 -22 113.5t-78 39.5q-31 0 -55.5 -18t-38 -67.5t-13.5 -142.5v-86q29 34 65.5 48t75.5 14q56 0 100.5 -24.5t70 -69
t25.5 -104.5v-10zM194 246q0 -84 13 -132.5t38.5 -68.5t62.5 -20q45 0 72.5 37t27.5 127v10q0 74 -22 117t-76 43q-29 0 -61 -16.5t-55 -53.5v-43z" />
    <glyph glyph-name="seven" unicode="7" horiz-adv-x="462" 
d="M57 459h-28v221h416v-94q-43 -57 -74.5 -116t-52 -127t-32.5 -152t-17 -191h-145q10 71 28 138t49.5 135t80.5 142t121 161h-270q-23 0 -33.5 -1.5t-14 -7t-6.5 -17.5z" />
    <glyph glyph-name="eight" unicode="8" horiz-adv-x="554" 
d="M504 183q0 -55 -24.5 -98.5t-74 -69t-124.5 -25.5q-78 0 -129.5 23t-76.5 61.5t-25 82.5q0 56 37.5 99.5t106.5 73.5q-60 30 -95 71.5t-35 109.5q0 49 25 89.5t71.5 65t112.5 24.5q100 0 156.5 -45.5t56.5 -113.5q0 -46 -34 -81t-102 -63q71 -32 112.5 -77.5t41.5 -126.5
zM269 422l48 -21q35 24 47 55.5t12 73.5q0 125 -105 125q-50 0 -77.5 -28.5t-27.5 -78.5q0 -46 27 -75.5t76 -50.5zM160 160q0 -64 30.5 -99.5t90.5 -35.5q59 0 90 31t31 91q0 49 -24 81.5t-83 57.5l-67 28q-34 -22 -51 -62.5t-17 -91.5z" />
    <glyph glyph-name="nine" unicode="9" horiz-adv-x="581" 
d="M515 312q0 -165 -70 -243.5t-187 -78.5q-73 0 -128.5 36.5t-70.5 121.5l71 19q10 -76 42 -109t81 -33q36 0 66.5 18t49 67.5t18.5 142.5v66q-29 -34 -65.5 -48t-75.5 -14q-56 0 -100.5 24.5t-70 69t-25.5 104.5v27q0 95 62 151.5t165 56.5q114 0 176 -81.5t62 -233.5v-63
zM173 461q0 -74 22 -117t76 -43q29 0 61 16.5t55 53.5v63q0 85 -13 133t-38.5 68t-62.5 20q-45 0 -72.5 -37t-27.5 -127v-30z" />
    <glyph glyph-name="zero.denominator" horiz-adv-x="337" 
d="M304 186v-31q0 -73 -35.5 -116.5t-100.5 -43.5t-100 43.5t-35 116.5v31q0 72 35 115.5t100 43.5t100.5 -43.5t35.5 -115.5zM222 221q0 52 -14 74.5t-40 22.5t-40 -22.5t-14 -74.5v-101q0 -52 14 -74.5t40 -22.5t40 22.5t14 74.5v101z" />
    <glyph glyph-name="one.denominator" horiz-adv-x="240" 
d="M35 296l69 44h63v-288q0 -16 2 -19.5t9 -4.5l28 -4v-24h-162v24l37 4q8 1 9.5 4.5t1.5 19.5v248l-42 -27z" />
    <glyph glyph-name="two.denominator" horiz-adv-x="299" 
d="M229 121h24v-121h-225v35q0 48 22 72.5t50 42.5l37 24t30 30.5t12 47.5q0 66 -38 66q-48 0 -39 -87l-75 8q-7 41 21 73.5t93 32.5q64 0 91 -30t27 -68q0 -31 -14 -50.5t-36.5 -31.5t-47.5 -21t-47 -20q-19 -10 -32.5 -24.5t-18.5 -37.5h131q17 0 21.5 2t5.5 11z" />
    <glyph glyph-name="three.denominator" horiz-adv-x="293" 
d="M116 164h-24v22h24q32 0 45 20.5t13 51.5q0 65 -39 65q-24 0 -33.5 -23t-4.5 -66l-75 8q-7 40 20 71.5t93 31.5q63 0 91 -26t28 -61q0 -63 -66 -83q69 -20 69 -90q0 -37 -31 -63.5t-93 -26.5q-40 0 -71.5 16t-39.5 63l36 10q5 -39 24 -52.5t41 -13.5q29 0 41.5 16.5
t12.5 50.5q0 35 -14 57t-47 22z" />
    <glyph glyph-name="four.denominator" horiz-adv-x="271" 
d="M145 48v40h-141v23q33 35 53.5 68.5t34 72t24.5 88.5h87q-22 -68 -68.5 -120.5t-101.5 -108.5h112v71l75 9v-80h38v-23h-38v-40q0 -16 1.5 -19t9.5 -5l27 -4v-20h-162v20l38 4q8 1 9.5 4.5t1.5 19.5z" />
    <glyph glyph-name="five.denominator" horiz-adv-x="281" 
d="M223 384h14v-106h-173l-5 -87q29 21 69 21q56 0 91 -28.5t35 -77.5q0 -44 -28.5 -77.5t-95.5 -33.5q-36 0 -63.5 17t-37.5 53l35 13q7 -32 20 -45.5t33 -13.5q30 0 43.5 20.5t13.5 66.5q0 36 -11.5 59t-43.5 23q-15 0 -32 -6t-35 -22l-12 8l10 172h140q18 0 22 2t5 11z
" />
    <glyph glyph-name="six.denominator" horiz-adv-x="321" 
d="M289 99q0 -48 -33.5 -76t-89.5 -28q-61 0 -94 41t-33 117v31q0 83 33.5 122t92.5 39q61 0 92 -28t25 -65l-75 -8q8 79 -41 79q-23 0 -36.5 -21t-13.5 -89v-33q13 14 29 19t36 5q47 0 77.5 -27.5t30.5 -72.5v-5zM116 122q0 -59 13.5 -81.5t38.5 -22.5q19 0 30.5 17.5
t11.5 60.5v5q0 35 -10 55.5t-36 20.5q-13 0 -25 -6t-23 -24v-25z" />
    <glyph glyph-name="seven.denominator" horiz-adv-x="286" 
d="M63 220h-24v120h219v-57q-28 -37 -46 -75.5t-27.5 -88t-12.5 -119.5h-88q7 47 22.5 88.5t45.5 87t78 102.5h-132q-17 0 -21 -2t-6 -11z" />
    <glyph glyph-name="eight.denominator" horiz-adv-x="320" 
d="M279 92q0 -41 -29 -69t-86 -28q-62 0 -91.5 25t-29.5 59q0 27 18 48.5t50 37.5q-29 17 -46 38.5t-17 52.5q0 37 28.5 63t80.5 26t82.5 -23t30.5 -57q0 -22 -15.5 -39.5t-44.5 -31.5q32 -18 50.5 -41.5t18.5 -60.5zM158 219l23 -11q11 11 15 25t4 30q0 28 -12 41.5
t-32 13.5q-42 0 -42 -43q0 -20 11.5 -33t32.5 -23zM113 80q0 -25 12.5 -41t38.5 -16q23 0 36 13t13 35q0 42 -46 65l-29 14q-25 -25 -25 -70z" />
    <glyph glyph-name="nine.denominator" horiz-adv-x="301" 
d="M271 156q0 -82 -37 -121.5t-99 -39.5q-40 0 -67.5 17.5t-38.5 52.5l34 15q8 -34 27.5 -48t41.5 -14q17 0 30.5 8.5t22 32.5t8.5 68v20q-13 -13 -29 -18t-34 -5q-48 0 -78 28.5t-30 76.5v12q0 48 32.5 76t86.5 28q63 0 96.5 -40.5t33.5 -116.5v-32zM100 231
q0 -37 10 -58.5t37 -21.5q12 0 24 6t22 22v38q0 61 -13 83.5t-38 22.5q-19 0 -30.5 -17.5t-11.5 -59.5v-15z" />
    <glyph glyph-name="zero.numerator" horiz-adv-x="337" 
d="M304 526v-31q0 -73 -35.5 -116.5t-100.5 -43.5t-100 43.5t-35 116.5v31q0 72 35 115.5t100 43.5t100.5 -43.5t35.5 -115.5zM222 561q0 52 -14 74.5t-40 22.5t-40 -22.5t-14 -74.5v-101q0 -52 14 -74.5t40 -22.5t40 22.5t14 74.5v101z" />
    <glyph glyph-name="one.numerator" horiz-adv-x="240" 
d="M35 636l69 44h63v-288q0 -16 2 -19.5t9 -4.5l28 -4v-24h-162v24l37 4q8 1 9.5 4.5t1.5 19.5v248l-42 -27z" />
    <glyph glyph-name="two.numerator" horiz-adv-x="299" 
d="M229 461h24v-121h-225v35q0 48 22 72.5t50 42.5l37 24t30 30.5t12 47.5q0 66 -38 66q-48 0 -39 -87l-75 8q-7 41 21 73.5t93 32.5q64 0 91 -30t27 -68q0 -31 -14 -50.5t-36.5 -31.5t-47.5 -21t-47 -20q-19 -10 -32.5 -24.5t-18.5 -37.5h131q17 0 21.5 2t5.5 11z" />
    <glyph glyph-name="three.numerator" horiz-adv-x="293" 
d="M116 504h-24v22h24q32 0 45 20.5t13 51.5q0 65 -39 65q-24 0 -33.5 -23t-4.5 -66l-75 8q-7 40 20 71.5t93 31.5q63 0 91 -26t28 -61q0 -63 -66 -83q69 -20 69 -90q0 -37 -31 -63.5t-93 -26.5q-40 0 -71.5 16t-39.5 63l36 10q5 -39 24 -52.5t41 -13.5q29 0 41.5 16.5
t12.5 50.5q0 35 -14 57t-47 22z" />
    <glyph glyph-name="four.numerator" horiz-adv-x="271" 
d="M145 388v40h-141v23q33 35 53.5 68.5t34 72t24.5 88.5h87q-22 -68 -68.5 -120.5t-101.5 -108.5h112v71l75 9v-80h38v-23h-38v-40q0 -16 1.5 -19t9.5 -5l27 -4v-20h-162v20l38 4q8 1 9.5 4.5t1.5 19.5z" />
    <glyph glyph-name="five.numerator" horiz-adv-x="281" 
d="M223 724h14v-106h-173l-5 -87q29 21 69 21q56 0 91 -28.5t35 -77.5q0 -44 -28.5 -77.5t-95.5 -33.5q-36 0 -63.5 17t-37.5 53l35 13q7 -32 20 -45.5t33 -13.5q30 0 43.5 20.5t13.5 66.5q0 36 -11.5 59t-43.5 23q-15 0 -32 -6t-35 -22l-12 8l10 172h140q18 0 22 2t5 11z
" />
    <glyph glyph-name="six.numerator" horiz-adv-x="321" 
d="M289 439q0 -48 -33.5 -76t-89.5 -28q-61 0 -94 41t-33 117v31q0 83 33.5 122t92.5 39q61 0 92 -28t25 -65l-75 -8q8 79 -41 79q-23 0 -36.5 -21t-13.5 -89v-33q13 14 29 19t36 5q47 0 77.5 -27.5t30.5 -72.5v-5zM116 462q0 -59 13.5 -81.5t38.5 -22.5q19 0 30.5 17.5
t11.5 60.5v5q0 35 -10 55.5t-36 20.5q-13 0 -25 -6t-23 -24v-25z" />
    <glyph glyph-name="seven.numerator" horiz-adv-x="286" 
d="M63 560h-24v120h219v-57q-28 -37 -46 -75.5t-27.5 -88t-12.5 -119.5h-88q7 47 22.5 88.5t45.5 87t78 102.5h-132q-17 0 -21 -2t-6 -11z" />
    <glyph glyph-name="eight.numerator" horiz-adv-x="320" 
d="M279 432q0 -41 -29 -69t-86 -28q-62 0 -91.5 25t-29.5 59q0 27 18 48.5t50 37.5q-29 17 -46 38.5t-17 52.5q0 37 28.5 63t80.5 26t82.5 -23t30.5 -57q0 -22 -15.5 -39.5t-44.5 -31.5q32 -18 50.5 -41.5t18.5 -60.5zM158 559l23 -11q11 11 15 25t4 30q0 28 -12 41.5
t-32 13.5q-42 0 -42 -43q0 -20 11.5 -33t32.5 -23zM113 420q0 -25 12.5 -41t38.5 -16q23 0 36 13t13 35q0 42 -46 65l-29 14q-25 -25 -25 -70z" />
    <glyph glyph-name="nine.numerator" horiz-adv-x="301" 
d="M271 496q0 -82 -37 -121.5t-99 -39.5q-40 0 -67.5 17.5t-38.5 52.5l34 15q8 -34 27.5 -48t41.5 -14q17 0 30.5 8.5t22 32.5t8.5 68v20q-13 -13 -29 -18t-34 -5q-48 0 -78 28.5t-30 76.5v12q0 48 32.5 76t86.5 28q63 0 96.5 -40.5t33.5 -116.5v-32zM100 571
q0 -37 10 -58.5t37 -21.5q12 0 24 6t22 22v38q0 61 -13 83.5t-38 22.5q-19 0 -30.5 -17.5t-11.5 -59.5v-15z" />
    <glyph glyph-name="zero.posf" horiz-adv-x="572" 
d="M520 264v-20q0 -115 -61 -184.5t-173 -69.5t-173 69.5t-61 184.5v20q0 115 61 184t173 69t173 -69t61 -184zM397 284q0 107 -28.5 152.5t-82.5 45.5q-53 0 -82 -45.5t-29 -152.5v-60q0 -106 29 -152.5t82 -46.5q54 0 82.5 46.5t28.5 152.5v60z" />
    <glyph glyph-name="one.posf" horiz-adv-x="341" 
d="M13 418l139 89h96v-423q0 -34 3 -40.5t19 -8.5l55 -7v-28h-294v28l75 7q16 2 19 8.5t3 40.5v365l-96 -61z" />
    <glyph glyph-name="two.posf" horiz-adv-x="531" 
d="M432 195h28v-195h-393v70q0 45 15.5 74.5t41.5 49.5t56 36q27 14 55 26.5t52.5 28.5t39.5 40t15 62q0 95 -78 95q-49 0 -67 -39t-11 -111l-120 16q-8 45 10.5 83.5t65 62t123.5 23.5q74 0 119.5 -20t66.5 -51.5t21 -68.5q0 -39 -17.5 -64t-46 -40.5t-63.5 -26.5
l-70.5 -21.5t-65.5 -24.5q-38 -18 -65 -40.5t-35 -61.5h252q24 0 34 1.5t13.5 7t6.5 17.5z" />
    <glyph glyph-name="three.posf" horiz-adv-x="506" 
d="M76 286h-28v221h390v-94l-194 -207q104 -4 159.5 -52.5t55.5 -146.5q0 -54 -26 -97t-77 -68t-126 -25q-77 0 -131 36.5t-69 121.5l71 19q10 -76 41 -109t79 -33q57 0 82.5 39t25.5 116q0 74 -25 119.5t-84 45.5h-27v35l184 196h-225q-23 0 -33.5 -1.5t-14 -7t-6.5 -17.5z
" />
    <glyph glyph-name="four.posf" horiz-adv-x="509" 
d="M301 -183v183h-280v35q50 53 84.5 104.5t59 106.5t43.5 119t37 142h145q-31 -94 -76.5 -174.5t-106 -153t-137.5 -144.5h231v153l120 18v-171h77v-35h-77v-160z" />
    <glyph glyph-name="five.posf" horiz-adv-x="513" 
d="M401 594h28v-191h-319l-11 -193q27 19 62.5 29.5t75.5 10.5q68 0 118.5 -26t78.5 -73t28 -112q0 -59 -23 -109.5t-74.5 -81.5t-135.5 -31q-76 0 -128 36.5t-67 121.5l71 19q10 -76 39.5 -109t75.5 -33q58 0 85 43.5t27 143.5q0 52 -9.5 91.5t-34.5 62t-70 22.5
q-30 0 -64 -12t-69 -44l-24 15l19 333h255q35 0 42.5 4t11.5 22z" />
    <glyph glyph-name="six.posf" horiz-adv-x="577" 
d="M518 195q0 -94 -61.5 -149.5t-165.5 -55.5q-114 0 -176 82t-62 233v63q0 165 62.5 243.5t172.5 78.5q67 0 116.5 -23.5t76 -63t25.5 -87.5l-118 -14q5 74 -22 113.5t-78 39.5q-31 0 -55.5 -18t-38 -67.5t-13.5 -142.5v-86q29 34 65.5 48t75.5 14q56 0 100.5 -24.5t70 -69
t25.5 -104.5v-10zM181 246q0 -84 13 -132.5t38.5 -68.5t62.5 -20q45 0 72.5 37t27.5 127v10q0 74 -22 117t-76 43q-29 0 -61 -16.5t-55 -53.5v-43z" />
    <glyph glyph-name="seven.posf" horiz-adv-x="480" 
d="M56 286h-28v221h416v-94q-43 -57 -74.5 -116t-52 -127t-32.5 -152t-17 -191h-145q10 71 28 138t49.5 135t80.5 142t121 161h-270q-23 0 -33.5 -1.5t-14 -7t-6.5 -17.5z" />
    <glyph glyph-name="eight.posf" horiz-adv-x="528" 
d="M481 183q0 -55 -24.5 -98.5t-74 -69t-124.5 -25.5q-78 0 -129.5 23t-76.5 61.5t-25 82.5q0 56 37.5 99.5t106.5 73.5q-60 30 -95 71.5t-35 109.5q0 49 25 89.5t71.5 65t112.5 24.5q100 0 156.5 -45.5t56.5 -113.5q0 -46 -34 -81t-102 -63q71 -32 112.5 -77.5t41.5 -126.5
zM246 422l48 -21q35 24 47 55.5t12 73.5q0 125 -105 125q-50 0 -77.5 -28.5t-27.5 -78.5q0 -46 27 -75.5t76 -50.5zM137 160q0 -64 30.5 -99.5t90.5 -35.5q59 0 90 31t31 91q0 49 -24 81.5t-83 57.5l-67 28q-34 -22 -51 -62.5t-17 -91.5z" />
    <glyph glyph-name="nine.posf" horiz-adv-x="569" 
d="M504 139q0 -165 -70 -243.5t-187 -78.5q-73 0 -128.5 36.5t-70.5 121.5l71 19q10 -76 42 -109t81 -33q36 0 66.5 18t49 67.5t18.5 142.5v66q-29 -34 -65.5 -48t-75.5 -14q-56 0 -100.5 24.5t-70 69t-25.5 104.5v27q0 95 62 151.5t165 56.5q114 0 176 -81.5t62 -233.5v-63
zM162 288q0 -74 22 -117t76 -43q29 0 61 16.5t55 53.5v63q0 85 -13 133t-38.5 68t-62.5 20q-45 0 -72.5 -37t-27.5 -127v-30z" />
    <glyph glyph-name="zero.tlf" horiz-adv-x="540" 
d="M515 372v-63q0 -96 -28.5 -168t-83.5 -111.5t-133 -39.5t-133 39.5t-83.5 111.5t-28.5 168v63q0 96 28.5 167.5t83.5 111t133 39.5t133 -39.5t83.5 -111t28.5 -167.5zM382 442q0 114 -29 163.5t-83 49.5t-83 -49.5t-29 -163.5v-203q0 -115 29 -164.5t83 -49.5t83 49.5
t29 164.5v203z" />
    <glyph glyph-name="one.tlf" horiz-adv-x="540" 
d="M77 565l179 115h96v-592q0 -34 3 -40.5t19 -8.5l95 -11v-28h-374v28l115 11q16 2 19 8.5t3 40.5v532l-135 -86z" />
    <glyph glyph-name="two.tlf" horiz-adv-x="540" 
d="M442 221h28v-221h-419v70q0 62 19.5 104.5t52.5 73.5t71 55l73.5 51.5t60.5 65t24 98.5q0 137 -91 137q-56 0 -78.5 -49t-12.5 -139l-120 16q-9 54 10.5 101t70 76.5t131.5 29.5q79 0 127 -25.5t70.5 -67t22.5 -89.5q0 -59 -24 -97t-63 -62.5t-84 -42t-87 -37.5
q-51 -23 -87 -61.5t-44 -103.5h273q24 0 34 1.5t13.5 7t6.5 17.5z" />
    <glyph glyph-name="three.tlf" horiz-adv-x="540" 
d="M218 331h-27v35h27q71 0 100.5 42t29.5 108q0 139 -91 139q-56 0 -78.5 -49t-12.5 -139l-120 16q-9 54 10.5 101t70 76.5t131.5 29.5q79 0 127 -24.5t70.5 -64t22.5 -85.5q0 -70 -48 -112.5t-137 -54.5q93 -12 142.5 -56t49.5 -123t-60 -129.5t-179 -50.5
q-79 0 -134.5 36.5t-70.5 121.5l71 19q10 -76 42.5 -109t82.5 -33q62 0 90 36.5t28 108.5q0 71 -31 116t-106 45z" />
    <glyph glyph-name="four.tlf" horiz-adv-x="540" 
d="M308 84v92h-280v35q50 53 84.5 104t59 105.5t43.5 118t37 141.5h145q-31 -94 -76.5 -173.5t-106 -151.5t-137.5 -144h231v153l120 18v-171h77v-35h-77v-92q0 -34 3 -40.5t19 -8.5l55 -7v-28h-294v28l75 7q16 2 19 8.5t3 40.5z" />
    <glyph glyph-name="five.tlf" horiz-adv-x="540" 
d="M419 767h28v-191h-319l-11 -193q27 19 62.5 29.5t75.5 10.5q68 0 118.5 -26t78.5 -73t28 -112q0 -59 -23 -109.5t-74.5 -81.5t-135.5 -31q-76 0 -128 36.5t-67 121.5l71 19q10 -76 39.5 -109t75.5 -33q58 0 85 43.5t27 143.5q0 52 -9.5 91.5t-34.5 62t-70 22.5
q-30 0 -64 -12t-69 -44l-24 15l19 333h255q35 0 42.5 4t11.5 22z" />
    <glyph glyph-name="six.tlf" horiz-adv-x="540" 
d="M505 195q0 -94 -61.5 -149.5t-165.5 -55.5q-114 0 -176 82t-62 233v63q0 165 62.5 243.5t172.5 78.5q67 0 116.5 -23.5t76 -63t25.5 -87.5l-118 -14q5 74 -22 113.5t-78 39.5q-31 0 -55.5 -18t-38 -67.5t-13.5 -142.5v-86q29 34 65.5 48t75.5 14q56 0 100.5 -24.5t70 -69
t25.5 -104.5v-10zM168 246q0 -84 13 -132.5t38.5 -68.5t62.5 -20q45 0 72.5 37t27.5 127v10q0 74 -22 117t-76 43q-29 0 -61 -16.5t-55 -53.5v-43z" />
    <glyph glyph-name="seven.tlf" horiz-adv-x="540" 
d="M91 459h-28v221h416v-94q-43 -57 -74.5 -116t-52 -127t-32.5 -152t-17 -191h-145q10 71 28 138t49.5 135t80.5 142t121 161h-270q-23 0 -33.5 -1.5t-14 -7t-6.5 -17.5z" />
    <glyph glyph-name="eight.tlf" horiz-adv-x="540" 
d="M497 183q0 -55 -24.5 -98.5t-74 -69t-124.5 -25.5q-78 0 -129.5 23t-76.5 61.5t-25 82.5q0 56 37.5 99.5t106.5 73.5q-60 30 -95 71.5t-35 109.5q0 49 25 89.5t71.5 65t112.5 24.5q100 0 156.5 -45.5t56.5 -113.5q0 -46 -34 -81t-102 -63q71 -32 112.5 -77.5t41.5 -126.5
zM262 422l48 -21q35 24 47 55.5t12 73.5q0 125 -105 125q-50 0 -77.5 -28.5t-27.5 -78.5q0 -46 27 -75.5t76 -50.5zM153 160q0 -64 30.5 -99.5t90.5 -35.5q59 0 90 31t31 91q0 49 -24 81.5t-83 57.5l-67 28q-34 -22 -51 -62.5t-17 -91.5z" />
    <glyph glyph-name="nine.tlf" horiz-adv-x="540" 
d="M500 312q0 -165 -70 -243.5t-187 -78.5q-73 0 -128.5 36.5t-70.5 121.5l71 19q10 -76 42 -109t81 -33q36 0 66.5 18t49 67.5t18.5 142.5v66q-29 -34 -65.5 -48t-75.5 -14q-56 0 -100.5 24.5t-70 69t-25.5 104.5v27q0 95 62 151.5t165 56.5q114 0 176 -81.5t62 -233.5v-63
zM158 461q0 -74 22 -117t76 -43q29 0 61 16.5t55 53.5v63q0 85 -13 133t-38.5 68t-62.5 20q-45 0 -72.5 -37t-27.5 -127v-30z" />
    <glyph glyph-name="uni2080" unicode="&#x2080;" horiz-adv-x="337" 
d="M304 81v-31q0 -73 -35.5 -116.5t-100.5 -43.5t-100 43.5t-35 116.5v31q0 72 35 115.5t100 43.5t100.5 -43.5t35.5 -115.5zM222 116q0 52 -14 74.5t-40 22.5t-40 -22.5t-14 -74.5v-101q0 -52 14 -74.5t40 -22.5t40 22.5t14 74.5v101z" />
    <glyph glyph-name="uni2081" unicode="&#x2081;" horiz-adv-x="240" 
d="M35 191l69 44h63v-288q0 -16 2 -19.5t9 -4.5l28 -4v-24h-162v24l37 4q8 1 9.5 4.5t1.5 19.5v248l-42 -27z" />
    <glyph glyph-name="uni2082" unicode="&#x2082;" horiz-adv-x="299" 
d="M229 16h24v-121h-225v35q0 48 22 72.5t50 42.5l37 24t30 30.5t12 47.5q0 66 -38 66q-48 0 -39 -87l-75 8q-7 41 21 73.5t93 32.5q64 0 91 -30t27 -68q0 -31 -14 -50.5t-36.5 -31.5t-47.5 -21t-47 -20q-19 -10 -32.5 -24.5t-18.5 -37.5h131q17 0 21.5 2t5.5 11z" />
    <glyph glyph-name="uni2083" unicode="&#x2083;" horiz-adv-x="293" 
d="M116 59h-24v22h24q32 0 45 20.5t13 51.5q0 65 -39 65q-24 0 -33.5 -23t-4.5 -66l-75 8q-7 40 20 71.5t93 31.5q63 0 91 -26t28 -61q0 -63 -66 -83q69 -20 69 -90q0 -37 -31 -63.5t-93 -26.5q-40 0 -71.5 16t-39.5 63l36 10q5 -39 24 -52.5t41 -13.5q29 0 41.5 16.5
t12.5 50.5q0 35 -14 57t-47 22z" />
    <glyph glyph-name="uni2084" unicode="&#x2084;" horiz-adv-x="271" 
d="M145 -57v40h-141v23q33 35 53.5 68.5t34 72t24.5 88.5h87q-22 -68 -68.5 -120.5t-101.5 -108.5h112v71l75 9v-80h38v-23h-38v-40q0 -16 1.5 -19t9.5 -5l27 -4v-20h-162v20l38 4q8 1 9.5 4.5t1.5 19.5z" />
    <glyph glyph-name="uni2085" unicode="&#x2085;" horiz-adv-x="281" 
d="M223 279h14v-106h-173l-5 -87q29 21 69 21q56 0 91 -28.5t35 -77.5q0 -44 -28.5 -77.5t-95.5 -33.5q-36 0 -63.5 17t-37.5 53l35 13q7 -32 20 -45.5t33 -13.5q30 0 43.5 20.5t13.5 66.5q0 36 -11.5 59t-43.5 23q-15 0 -32 -6t-35 -22l-12 8l10 172h140q18 0 22 2t5 11z
" />
    <glyph glyph-name="uni2086" unicode="&#x2086;" horiz-adv-x="321" 
d="M289 -6q0 -48 -33.5 -76t-89.5 -28q-61 0 -94 41t-33 117v31q0 83 33.5 122t92.5 39q61 0 92 -28t25 -65l-75 -8q8 79 -41 79q-23 0 -36.5 -21t-13.5 -89v-33q13 14 29 19t36 5q47 0 77.5 -27.5t30.5 -72.5v-5zM116 17q0 -59 13.5 -81.5t38.5 -22.5q19 0 30.5 17.5
t11.5 60.5v5q0 35 -10 55.5t-36 20.5q-13 0 -25 -6t-23 -24v-25z" />
    <glyph glyph-name="uni2087" unicode="&#x2087;" horiz-adv-x="286" 
d="M63 115h-24v120h219v-57q-28 -37 -46 -75.5t-27.5 -88t-12.5 -119.5h-88q7 47 22.5 88.5t45.5 87t78 102.5h-132q-17 0 -21 -2t-6 -11z" />
    <glyph glyph-name="uni2088" unicode="&#x2088;" horiz-adv-x="320" 
d="M279 -13q0 -41 -29 -69t-86 -28q-62 0 -91.5 25t-29.5 59q0 27 18 48.5t50 37.5q-29 17 -46 38.5t-17 52.5q0 37 28.5 63t80.5 26t82.5 -23t30.5 -57q0 -22 -15.5 -39.5t-44.5 -31.5q32 -18 50.5 -41.5t18.5 -60.5zM158 114l23 -11q11 11 15 25t4 30q0 28 -12 41.5
t-32 13.5q-42 0 -42 -43q0 -20 11.5 -33t32.5 -23zM113 -25q0 -25 12.5 -41t38.5 -16q23 0 36 13t13 35q0 42 -46 65l-29 14q-25 -25 -25 -70z" />
    <glyph glyph-name="uni2089" unicode="&#x2089;" horiz-adv-x="301" 
d="M271 51q0 -82 -37 -121.5t-99 -39.5q-40 0 -67.5 17.5t-38.5 52.5l34 15q8 -34 27.5 -48t41.5 -14q17 0 30.5 8.5t22 32.5t8.5 68v20q-13 -13 -29 -18t-34 -5q-48 0 -78 28.5t-30 76.5v12q0 48 32.5 76t86.5 28q63 0 96.5 -40.5t33.5 -116.5v-32zM100 126q0 -37 10 -58.5
t37 -21.5q12 0 24 6t22 22v38q0 61 -13 83.5t-38 22.5q-19 0 -30.5 -17.5t-11.5 -59.5v-15z" />
    <glyph glyph-name="uni2070" unicode="&#x2070;" horiz-adv-x="337" 
d="M304 631v-31q0 -73 -35.5 -116.5t-100.5 -43.5t-100 43.5t-35 116.5v31q0 72 35 115.5t100 43.5t100.5 -43.5t35.5 -115.5zM222 666q0 52 -14 74.5t-40 22.5t-40 -22.5t-14 -74.5v-101q0 -52 14 -74.5t40 -22.5t40 22.5t14 74.5v101z" />
    <glyph glyph-name="uni00B9" unicode="&#xb9;" horiz-adv-x="240" 
d="M35 741l69 44h63v-288q0 -16 2 -19.5t9 -4.5l28 -4v-24h-162v24l37 4q8 1 9.5 4.5t1.5 19.5v248l-42 -27z" />
    <glyph glyph-name="uni00B2" unicode="&#xb2;" horiz-adv-x="299" 
d="M229 566h24v-121h-225v35q0 48 22 72.5t50 42.5l37 24t30 30.5t12 47.5q0 66 -38 66q-48 0 -39 -87l-75 8q-7 41 21 73.5t93 32.5q64 0 91 -30t27 -68q0 -31 -14 -50.5t-36.5 -31.5t-47.5 -21t-47 -20q-19 -10 -32.5 -24.5t-18.5 -37.5h131q17 0 21.5 2t5.5 11z" />
    <glyph glyph-name="uni00B3" unicode="&#xb3;" horiz-adv-x="293" 
d="M116 609h-24v22h24q32 0 45 20.5t13 51.5q0 65 -39 65q-24 0 -33.5 -23t-4.5 -66l-75 8q-7 40 20 71.5t93 31.5q63 0 91 -26t28 -61q0 -63 -66 -83q69 -20 69 -90q0 -37 -31 -63.5t-93 -26.5q-40 0 -71.5 16t-39.5 63l36 10q5 -39 24 -52.5t41 -13.5q29 0 41.5 16.5
t12.5 50.5q0 35 -14 57t-47 22z" />
    <glyph glyph-name="uni2074" unicode="&#x2074;" horiz-adv-x="271" 
d="M145 493v40h-141v23q33 35 53.5 68.5t34 72t24.5 88.5h87q-22 -68 -68.5 -120.5t-101.5 -108.5h112v71l75 9v-80h38v-23h-38v-40q0 -16 1.5 -19t9.5 -5l27 -4v-20h-162v20l38 4q8 1 9.5 4.5t1.5 19.5z" />
    <glyph glyph-name="uni2075" unicode="&#x2075;" horiz-adv-x="281" 
d="M223 829h14v-106h-173l-5 -87q29 21 69 21q56 0 91 -28.5t35 -77.5q0 -44 -28.5 -77.5t-95.5 -33.5q-36 0 -63.5 17t-37.5 53l35 13q7 -32 20 -45.5t33 -13.5q30 0 43.5 20.5t13.5 66.5q0 36 -11.5 59t-43.5 23q-15 0 -32 -6t-35 -22l-12 8l10 172h140q18 0 22 2t5 11z
" />
    <glyph glyph-name="uni2076" unicode="&#x2076;" horiz-adv-x="321" 
d="M289 544q0 -48 -33.5 -76t-89.5 -28q-61 0 -94 41t-33 117v31q0 83 33.5 122t92.5 39q61 0 92 -28t25 -65l-75 -8q8 79 -41 79q-23 0 -36.5 -21t-13.5 -89v-33q13 14 29 19t36 5q47 0 77.5 -27.5t30.5 -72.5v-5zM116 567q0 -59 13.5 -81.5t38.5 -22.5q19 0 30.5 17.5
t11.5 60.5v5q0 35 -10 55.5t-36 20.5q-13 0 -25 -6t-23 -24v-25z" />
    <glyph glyph-name="uni2077" unicode="&#x2077;" horiz-adv-x="286" 
d="M63 665h-24v120h219v-57q-28 -37 -46 -75.5t-27.5 -88t-12.5 -119.5h-88q7 47 22.5 88.5t45.5 87t78 102.5h-132q-17 0 -21 -2t-6 -11z" />
    <glyph glyph-name="uni2078" unicode="&#x2078;" horiz-adv-x="320" 
d="M279 537q0 -41 -29 -69t-86 -28q-62 0 -91.5 25t-29.5 59q0 27 18 48.5t50 37.5q-29 17 -46 38.5t-17 52.5q0 37 28.5 63t80.5 26t82.5 -23t30.5 -57q0 -22 -15.5 -39.5t-44.5 -31.5q32 -18 50.5 -41.5t18.5 -60.5zM158 664l23 -11q11 11 15 25t4 30q0 28 -12 41.5
t-32 13.5q-42 0 -42 -43q0 -20 11.5 -33t32.5 -23zM113 525q0 -25 12.5 -41t38.5 -16q23 0 36 13t13 35q0 42 -46 65l-29 14q-25 -25 -25 -70z" />
    <glyph glyph-name="uni2079" unicode="&#x2079;" horiz-adv-x="301" 
d="M271 601q0 -82 -37 -121.5t-99 -39.5q-40 0 -67.5 17.5t-38.5 52.5l34 15q8 -34 27.5 -48t41.5 -14q17 0 30.5 8.5t22 32.5t8.5 68v20q-13 -13 -29 -18t-34 -5q-48 0 -78 28.5t-30 76.5v12q0 48 32.5 76t86.5 28q63 0 96.5 -40.5t33.5 -116.5v-32zM100 676
q0 -37 10 -58.5t37 -21.5q12 0 24 6t22 22v38q0 61 -13 83.5t-38 22.5q-19 0 -30.5 -17.5t-11.5 -59.5v-15z" />
    <glyph glyph-name="fraction" unicode="&#x2044;" horiz-adv-x="51" 
d="M199 680l29 -17l-375 -663l-29 17z" />
    <glyph glyph-name="onehalf" unicode="&#xbd;" horiz-adv-x="610" 
d="M35 636l69 44h63v-288q0 -16 2 -19.5t9 -4.5l28 -4v-24h-162v24l37 4q8 1 9.5 4.5t1.5 19.5v248l-42 -27zM459 680l29 -17l-375 -663l-29 17zM540 121h24v-121h-225v35q0 48 22 72.5t50 42.5l37 24t30 30.5t12 47.5q0 66 -38 66q-48 0 -39 -87l-75 8q-7 41 21 73.5
t93 32.5q64 0 91 -30t27 -68q0 -31 -14 -50.5t-36.5 -31.5t-47.5 -21t-47 -20q-19 -10 -32.5 -24.5t-18.5 -37.5h131q17 0 21.5 2t5.5 11z" />
    <glyph glyph-name="uni2153" unicode="&#x2153;" horiz-adv-x="604" 
d="M35 636l69 44h63v-288q0 -16 2 -19.5t9 -4.5l28 -4v-24h-162v24l37 4q8 1 9.5 4.5t1.5 19.5v248l-42 -27zM459 680l29 -17l-375 -663l-29 17zM427 164h-24v22h24q32 0 45 20.5t13 51.5q0 65 -39 65q-24 0 -33.5 -23t-4.5 -66l-75 8q-7 40 20 71.5t93 31.5q63 0 91 -26
t28 -61q0 -63 -66 -83q69 -20 69 -90q0 -37 -31 -63.5t-93 -26.5q-40 0 -71.5 16t-39.5 63l36 10q5 -39 24 -52.5t41 -13.5q29 0 41.5 16.5t12.5 50.5q0 35 -14 57t-47 22z" />
    <glyph glyph-name="uni2154" unicode="&#x2154;" horiz-adv-x="643" 
d="M229 461h24v-121h-225v35q0 48 22 72.5t50 42.5l37 24t30 30.5t12 47.5q0 66 -38 66q-48 0 -39 -87l-75 8q-7 41 21 73.5t93 32.5q64 0 91 -30t27 -68q0 -31 -14 -50.5t-36.5 -31.5t-47.5 -21t-47 -20q-19 -10 -32.5 -24.5t-18.5 -37.5h131q17 0 21.5 2t5.5 11zM498 680
l29 -17l-375 -663l-29 17zM466 164h-24v22h24q32 0 45 20.5t13 51.5q0 65 -39 65q-24 0 -33.5 -23t-4.5 -66l-75 8q-7 40 20 71.5t93 31.5q63 0 91 -26t28 -61q0 -63 -66 -83q69 -20 69 -90q0 -37 -31 -63.5t-93 -26.5q-40 0 -71.5 16t-39.5 63l36 10q5 -39 24 -52.5
t41 -13.5q29 0 41.5 16.5t12.5 50.5q0 35 -14 57t-47 22z" />
    <glyph glyph-name="onequarter" unicode="&#xbc;" horiz-adv-x="572" 
d="M35 636l69 44h63v-288q0 -16 2 -19.5t9 -4.5l28 -4v-24h-162v24l37 4q8 1 9.5 4.5t1.5 19.5v248l-42 -27zM459 680l29 -17l-375 -663l-29 17zM456 48v40h-141v23q33 35 53.5 68.5t34 72t24.5 88.5h87q-22 -68 -68.5 -120.5t-101.5 -108.5h112v71l75 9v-80h38v-23h-38v-40
q0 -16 1.5 -19t9.5 -5l27 -4v-20h-162v20l38 4q8 1 9.5 4.5t1.5 19.5z" />
    <glyph glyph-name="threequarters" unicode="&#xbe;" horiz-adv-x="605" 
d="M116 504h-24v22h24q32 0 45 20.5t13 51.5q0 65 -39 65q-24 0 -33.5 -23t-4.5 -66l-75 8q-7 40 20 71.5t93 31.5q63 0 91 -26t28 -61q0 -63 -66 -83q69 -20 69 -90q0 -37 -31 -63.5t-93 -26.5q-40 0 -71.5 16t-39.5 63l36 10q5 -39 24 -52.5t41 -13.5q29 0 41.5 16.5
t12.5 50.5q0 35 -14 57t-47 22zM492 680l29 -17l-375 -663l-29 17zM489 48v40h-141v23q33 35 53.5 68.5t34 72t24.5 88.5h87q-22 -68 -68.5 -120.5t-101.5 -108.5h112v71l75 9v-80h38v-23h-38v-40q0 -16 1.5 -19t9.5 -5l27 -4v-20h-162v20l38 4q8 1 9.5 4.5t1.5 19.5z" />
    <glyph glyph-name="uni2155" horiz-adv-x="592" 
d="M35 636l69 44h63v-288q0 -16 2 -19.5t9 -4.5l28 -4v-24h-162v24l37 4q8 1 9.5 4.5t1.5 19.5v248l-42 -27zM459 680l29 -17l-375 -663l-29 17zM534 384h14v-106h-173l-5 -87q29 21 69 21q56 0 91 -28.5t35 -77.5q0 -44 -28.5 -77.5t-95.5 -33.5q-36 0 -63.5 17t-37.5 53
l35 13q7 -32 20 -45.5t33 -13.5q30 0 43.5 20.5t13.5 66.5q0 36 -11.5 59t-43.5 23q-15 0 -32 -6t-35 -22l-12 8l10 172h140q18 0 22 2t5 11z" />
    <glyph glyph-name="uni2156" horiz-adv-x="631" 
d="M229 461h24v-121h-225v35q0 48 22 72.5t50 42.5l37 24t30 30.5t12 47.5q0 66 -38 66q-48 0 -39 -87l-75 8q-7 41 21 73.5t93 32.5q64 0 91 -30t27 -68q0 -31 -14 -50.5t-36.5 -31.5t-47.5 -21t-47 -20q-19 -10 -32.5 -24.5t-18.5 -37.5h131q17 0 21.5 2t5.5 11zM498 680
l29 -17l-375 -663l-29 17zM573 384h14v-106h-173l-5 -87q29 21 69 21q56 0 91 -28.5t35 -77.5q0 -44 -28.5 -77.5t-95.5 -33.5q-36 0 -63.5 17t-37.5 53l35 13q7 -32 20 -45.5t33 -13.5q30 0 43.5 20.5t13.5 66.5q0 36 -11.5 59t-43.5 23q-15 0 -32 -6t-35 -22l-12 8l10 172
h140q18 0 22 2t5 11z" />
    <glyph glyph-name="uni2157" horiz-adv-x="625" 
d="M116 504h-24v22h24q32 0 45 20.5t13 51.5q0 65 -39 65q-24 0 -33.5 -23t-4.5 -66l-75 8q-7 40 20 71.5t93 31.5q63 0 91 -26t28 -61q0 -63 -66 -83q69 -20 69 -90q0 -37 -31 -63.5t-93 -26.5q-40 0 -71.5 16t-39.5 63l36 10q5 -39 24 -52.5t41 -13.5q29 0 41.5 16.5
t12.5 50.5q0 35 -14 57t-47 22zM492 680l29 -17l-375 -663l-29 17zM567 384h14v-106h-173l-5 -87q29 21 69 21q56 0 91 -28.5t35 -77.5q0 -44 -28.5 -77.5t-95.5 -33.5q-36 0 -63.5 17t-37.5 53l35 13q7 -32 20 -45.5t33 -13.5q30 0 43.5 20.5t13.5 66.5q0 36 -11.5 59
t-43.5 23q-15 0 -32 -6t-35 -22l-12 8l10 172h140q18 0 22 2t5 11z" />
    <glyph glyph-name="uni2158" horiz-adv-x="643" 
d="M145 388v40h-141v23q33 35 53.5 68.5t34 72t24.5 88.5h87q-22 -68 -68.5 -120.5t-101.5 -108.5h112v71l75 9v-80h38v-23h-38v-40q0 -16 1.5 -19t9.5 -5l27 -4v-20h-162v20l38 4q8 1 9.5 4.5t1.5 19.5zM510 680l29 -17l-375 -663l-29 17zM585 384h14v-106h-173l-5 -87
q29 21 69 21q56 0 91 -28.5t35 -77.5q0 -44 -28.5 -77.5t-95.5 -33.5q-36 0 -63.5 17t-37.5 53l35 13q7 -32 20 -45.5t33 -13.5q30 0 43.5 20.5t13.5 66.5q0 36 -11.5 59t-43.5 23q-15 0 -32 -6t-35 -22l-12 8l10 172h140q18 0 22 2t5 11z" />
    <glyph glyph-name="uni2159" horiz-adv-x="632" 
d="M35 636l69 44h63v-288q0 -16 2 -19.5t9 -4.5l28 -4v-24h-162v24l37 4q8 1 9.5 4.5t1.5 19.5v248l-42 -27zM459 680l29 -17l-375 -663l-29 17zM600 99q0 -48 -33.5 -76t-89.5 -28q-61 0 -94 41t-33 117v31q0 83 33.5 122t92.5 39q61 0 92 -28t25 -65l-75 -8q8 79 -41 79
q-23 0 -36.5 -21t-13.5 -89v-33q13 14 29 19t36 5q47 0 77.5 -27.5t30.5 -72.5v-5zM427 122q0 -59 13.5 -81.5t38.5 -22.5q19 0 30.5 17.5t11.5 60.5v5q0 35 -10 55.5t-36 20.5q-13 0 -25 -6t-23 -24v-25z" />
    <glyph glyph-name="uni215A" horiz-adv-x="653" 
d="M223 724h14v-106h-173l-5 -87q29 21 69 21q56 0 91 -28.5t35 -77.5q0 -44 -28.5 -77.5t-95.5 -33.5q-36 0 -63.5 17t-37.5 53l35 13q7 -32 20 -45.5t33 -13.5q30 0 43.5 20.5t13.5 66.5q0 36 -11.5 59t-43.5 23q-15 0 -32 -6t-35 -22l-12 8l10 172h140q18 0 22 2t5 11z
M480 680l29 -17l-375 -663l-29 17zM621 99q0 -48 -33.5 -76t-89.5 -28q-61 0 -94 41t-33 117v31q0 83 33.5 122t92.5 39q61 0 92 -28t25 -65l-75 -8q8 79 -41 79q-23 0 -36.5 -21t-13.5 -89v-33q13 14 29 19t36 5q47 0 77.5 -27.5t30.5 -72.5v-5zM448 122q0 -59 13.5 -81.5
t38.5 -22.5q19 0 30.5 17.5t11.5 60.5v5q0 35 -10 55.5t-36 20.5q-13 0 -25 -6t-23 -24v-25z" />
    <glyph glyph-name="uni2150" horiz-adv-x="597" 
d="M35 636l69 44h63v-288q0 -16 2 -19.5t9 -4.5l28 -4v-24h-162v24l37 4q8 1 9.5 4.5t1.5 19.5v248l-42 -27zM459 680l29 -17l-375 -663l-29 17zM374 220h-24v120h219v-57q-28 -37 -46 -75.5t-27.5 -88t-12.5 -119.5h-88q7 47 22.5 88.5t45.5 87t78 102.5h-132q-17 0 -21 -2
t-6 -11z" />
    <glyph glyph-name="two_fraction_seven" horiz-adv-x="636" 
d="M229 461h24v-121h-225v35q0 48 22 72.5t50 42.5l37 24t30 30.5t12 47.5q0 66 -38 66q-48 0 -39 -87l-75 8q-7 41 21 73.5t93 32.5q64 0 91 -30t27 -68q0 -31 -14 -50.5t-36.5 -31.5t-47.5 -21t-47 -20q-19 -10 -32.5 -24.5t-18.5 -37.5h131q17 0 21.5 2t5.5 11zM498 680
l29 -17l-375 -663l-29 17zM413 220h-24v120h219v-57q-28 -37 -46 -75.5t-27.5 -88t-12.5 -119.5h-88q7 47 22.5 88.5t45.5 87t78 102.5h-132q-17 0 -21 -2t-6 -11z" />
    <glyph glyph-name="three_fraction_seven" horiz-adv-x="630" 
d="M116 504h-24v22h24q32 0 45 20.5t13 51.5q0 65 -39 65q-24 0 -33.5 -23t-4.5 -66l-75 8q-7 40 20 71.5t93 31.5q63 0 91 -26t28 -61q0 -63 -66 -83q69 -20 69 -90q0 -37 -31 -63.5t-93 -26.5q-40 0 -71.5 16t-39.5 63l36 10q5 -39 24 -52.5t41 -13.5q29 0 41.5 16.5
t12.5 50.5q0 35 -14 57t-47 22zM492 680l29 -17l-375 -663l-29 17zM407 220h-24v120h219v-57q-28 -37 -46 -75.5t-27.5 -88t-12.5 -119.5h-88q7 47 22.5 88.5t45.5 87t78 102.5h-132q-17 0 -21 -2t-6 -11z" />
    <glyph glyph-name="four_fraction_seven" horiz-adv-x="648" 
d="M145 388v40h-141v23q33 35 53.5 68.5t34 72t24.5 88.5h87q-22 -68 -68.5 -120.5t-101.5 -108.5h112v71l75 9v-80h38v-23h-38v-40q0 -16 1.5 -19t9.5 -5l27 -4v-20h-162v20l38 4q8 1 9.5 4.5t1.5 19.5zM510 680l29 -17l-375 -663l-29 17zM425 220h-24v120h219v-57
q-28 -37 -46 -75.5t-27.5 -88t-12.5 -119.5h-88q7 47 22.5 88.5t45.5 87t78 102.5h-132q-17 0 -21 -2t-6 -11z" />
    <glyph glyph-name="five_fraction_seven" horiz-adv-x="618" 
d="M223 724h14v-106h-173l-5 -87q29 21 69 21q56 0 91 -28.5t35 -77.5q0 -44 -28.5 -77.5t-95.5 -33.5q-36 0 -63.5 17t-37.5 53l35 13q7 -32 20 -45.5t33 -13.5q30 0 43.5 20.5t13.5 66.5q0 36 -11.5 59t-43.5 23q-15 0 -32 -6t-35 -22l-12 8l10 172h140q18 0 22 2t5 11z
M480 680l29 -17l-375 -663l-29 17zM395 220h-24v120h219v-57q-28 -37 -46 -75.5t-27.5 -88t-12.5 -119.5h-88q7 47 22.5 88.5t45.5 87t78 102.5h-132q-17 0 -21 -2t-6 -11z" />
    <glyph glyph-name="six_fraction_seven" horiz-adv-x="658" 
d="M289 439q0 -48 -33.5 -76t-89.5 -28q-61 0 -94 41t-33 117v31q0 83 33.5 122t92.5 39q61 0 92 -28t25 -65l-75 -8q8 79 -41 79q-23 0 -36.5 -21t-13.5 -89v-33q13 14 29 19t36 5q47 0 77.5 -27.5t30.5 -72.5v-5zM116 462q0 -59 13.5 -81.5t38.5 -22.5q19 0 30.5 17.5
t11.5 60.5v5q0 35 -10 55.5t-36 20.5q-13 0 -25 -6t-23 -24v-25zM520 680l29 -17l-375 -663l-29 17zM435 220h-24v120h219v-57q-28 -37 -46 -75.5t-27.5 -88t-12.5 -119.5h-88q7 47 22.5 88.5t45.5 87t78 102.5h-132q-17 0 -21 -2t-6 -11z" />
    <glyph glyph-name="oneeighth" unicode="&#x215b;" horiz-adv-x="631" 
d="M35 636l69 44h63v-288q0 -16 2 -19.5t9 -4.5l28 -4v-24h-162v24l37 4q8 1 9.5 4.5t1.5 19.5v248l-42 -27zM459 680l29 -17l-375 -663l-29 17zM590 92q0 -41 -29 -69t-86 -28q-62 0 -91.5 25t-29.5 59q0 27 18 48.5t50 37.5q-29 17 -46 38.5t-17 52.5q0 37 28.5 63
t80.5 26t82.5 -23t30.5 -57q0 -22 -15.5 -39.5t-44.5 -31.5q32 -18 50.5 -41.5t18.5 -60.5zM469 219l23 -11q11 11 15 25t4 30q0 28 -12 41.5t-32 13.5q-42 0 -42 -43q0 -20 11.5 -33t32.5 -23zM424 80q0 -25 12.5 -41t38.5 -16q23 0 36 13t13 35q0 42 -46 65l-29 14
q-25 -25 -25 -70z" />
    <glyph glyph-name="threeeighths" unicode="&#x215c;" horiz-adv-x="664" 
d="M116 504h-24v22h24q32 0 45 20.5t13 51.5q0 65 -39 65q-24 0 -33.5 -23t-4.5 -66l-75 8q-7 40 20 71.5t93 31.5q63 0 91 -26t28 -61q0 -63 -66 -83q69 -20 69 -90q0 -37 -31 -63.5t-93 -26.5q-40 0 -71.5 16t-39.5 63l36 10q5 -39 24 -52.5t41 -13.5q29 0 41.5 16.5
t12.5 50.5q0 35 -14 57t-47 22zM492 680l29 -17l-375 -663l-29 17zM623 92q0 -41 -29 -69t-86 -28q-62 0 -91.5 25t-29.5 59q0 27 18 48.5t50 37.5q-29 17 -46 38.5t-17 52.5q0 37 28.5 63t80.5 26t82.5 -23t30.5 -57q0 -22 -15.5 -39.5t-44.5 -31.5q32 -18 50.5 -41.5
t18.5 -60.5zM502 219l23 -11q11 11 15 25t4 30q0 28 -12 41.5t-32 13.5q-42 0 -42 -43q0 -20 11.5 -33t32.5 -23zM457 80q0 -25 12.5 -41t38.5 -16q23 0 36 13t13 35q0 42 -46 65l-29 14q-25 -25 -25 -70z" />
    <glyph glyph-name="fiveeighths" unicode="&#x215d;" horiz-adv-x="652" 
d="M223 724h14v-106h-173l-5 -87q29 21 69 21q56 0 91 -28.5t35 -77.5q0 -44 -28.5 -77.5t-95.5 -33.5q-36 0 -63.5 17t-37.5 53l35 13q7 -32 20 -45.5t33 -13.5q30 0 43.5 20.5t13.5 66.5q0 36 -11.5 59t-43.5 23q-15 0 -32 -6t-35 -22l-12 8l10 172h140q18 0 22 2t5 11z
M480 680l29 -17l-375 -663l-29 17zM611 92q0 -41 -29 -69t-86 -28q-62 0 -91.5 25t-29.5 59q0 27 18 48.5t50 37.5q-29 17 -46 38.5t-17 52.5q0 37 28.5 63t80.5 26t82.5 -23t30.5 -57q0 -22 -15.5 -39.5t-44.5 -31.5q32 -18 50.5 -41.5t18.5 -60.5zM490 219l23 -11
q11 11 15 25t4 30q0 28 -12 41.5t-32 13.5q-42 0 -42 -43q0 -20 11.5 -33t32.5 -23zM445 80q0 -25 12.5 -41t38.5 -16q23 0 36 13t13 35q0 42 -46 65l-29 14q-25 -25 -25 -70z" />
    <glyph glyph-name="seveneighths" unicode="&#x215e;" horiz-adv-x="657" 
d="M63 560h-24v120h219v-57q-28 -37 -46 -75.5t-27.5 -88t-12.5 -119.5h-88q7 47 22.5 88.5t45.5 87t78 102.5h-132q-17 0 -21 -2t-6 -11zM485 680l29 -17l-375 -663l-29 17zM616 92q0 -41 -29 -69t-86 -28q-62 0 -91.5 25t-29.5 59q0 27 18 48.5t50 37.5q-29 17 -46 38.5
t-17 52.5q0 37 28.5 63t80.5 26t82.5 -23t30.5 -57q0 -22 -15.5 -39.5t-44.5 -31.5q32 -18 50.5 -41.5t18.5 -60.5zM495 219l23 -11q11 11 15 25t4 30q0 28 -12 41.5t-32 13.5q-42 0 -42 -43q0 -20 11.5 -33t32.5 -23zM450 80q0 -25 12.5 -41t38.5 -16q23 0 36 13t13 35
q0 42 -46 65l-29 14q-25 -25 -25 -70z" />
    <glyph glyph-name="uni2151" horiz-adv-x="612" 
d="M35 636l69 44h63v-288q0 -16 2 -19.5t9 -4.5l28 -4v-24h-162v24l37 4q8 1 9.5 4.5t1.5 19.5v248l-42 -27zM459 680l29 -17l-375 -663l-29 17zM582 156q0 -82 -37 -121.5t-99 -39.5q-40 0 -67.5 17.5t-38.5 52.5l34 15q8 -34 27.5 -48t41.5 -14q17 0 30.5 8.5t22 32.5
t8.5 68v20q-13 -13 -29 -18t-34 -5q-48 0 -78 28.5t-30 76.5v12q0 48 32.5 76t86.5 28q63 0 96.5 -40.5t33.5 -116.5v-32zM411 231q0 -37 10 -58.5t37 -21.5q12 0 24 6t22 22v38q0 61 -13 83.5t-38 22.5q-19 0 -30.5 -17.5t-11.5 -59.5v-15z" />
    <glyph glyph-name="two_fraction_nine" horiz-adv-x="651" 
d="M229 461h24v-121h-225v35q0 48 22 72.5t50 42.5l37 24t30 30.5t12 47.5q0 66 -38 66q-48 0 -39 -87l-75 8q-7 41 21 73.5t93 32.5q64 0 91 -30t27 -68q0 -31 -14 -50.5t-36.5 -31.5t-47.5 -21t-47 -20q-19 -10 -32.5 -24.5t-18.5 -37.5h131q17 0 21.5 2t5.5 11zM498 680
l29 -17l-375 -663l-29 17zM621 156q0 -82 -37 -121.5t-99 -39.5q-40 0 -67.5 17.5t-38.5 52.5l34 15q8 -34 27.5 -48t41.5 -14q17 0 30.5 8.5t22 32.5t8.5 68v20q-13 -13 -29 -18t-34 -5q-48 0 -78 28.5t-30 76.5v12q0 48 32.5 76t86.5 28q63 0 96.5 -40.5t33.5 -116.5v-32z
M450 231q0 -37 10 -58.5t37 -21.5q12 0 24 6t22 22v38q0 61 -13 83.5t-38 22.5q-19 0 -30.5 -17.5t-11.5 -59.5v-15z" />
    <glyph glyph-name="four_fraction_nine" horiz-adv-x="663" 
d="M145 388v40h-141v23q33 35 53.5 68.5t34 72t24.5 88.5h87q-22 -68 -68.5 -120.5t-101.5 -108.5h112v71l75 9v-80h38v-23h-38v-40q0 -16 1.5 -19t9.5 -5l27 -4v-20h-162v20l38 4q8 1 9.5 4.5t1.5 19.5zM510 680l29 -17l-375 -663l-29 17zM633 156q0 -82 -37 -121.5
t-99 -39.5q-40 0 -67.5 17.5t-38.5 52.5l34 15q8 -34 27.5 -48t41.5 -14q17 0 30.5 8.5t22 32.5t8.5 68v20q-13 -13 -29 -18t-34 -5q-48 0 -78 28.5t-30 76.5v12q0 48 32.5 76t86.5 28q63 0 96.5 -40.5t33.5 -116.5v-32zM462 231q0 -37 10 -58.5t37 -21.5q12 0 24 6t22 22
v38q0 61 -13 83.5t-38 22.5q-19 0 -30.5 -17.5t-11.5 -59.5v-15z" />
    <glyph glyph-name="five_fraction_nine" horiz-adv-x="633" 
d="M223 724h14v-106h-173l-5 -87q29 21 69 21q56 0 91 -28.5t35 -77.5q0 -44 -28.5 -77.5t-95.5 -33.5q-36 0 -63.5 17t-37.5 53l35 13q7 -32 20 -45.5t33 -13.5q30 0 43.5 20.5t13.5 66.5q0 36 -11.5 59t-43.5 23q-15 0 -32 -6t-35 -22l-12 8l10 172h140q18 0 22 2t5 11z
M480 680l29 -17l-375 -663l-29 17zM603 156q0 -82 -37 -121.5t-99 -39.5q-40 0 -67.5 17.5t-38.5 52.5l34 15q8 -34 27.5 -48t41.5 -14q17 0 30.5 8.5t22 32.5t8.5 68v20q-13 -13 -29 -18t-34 -5q-48 0 -78 28.5t-30 76.5v12q0 48 32.5 76t86.5 28q63 0 96.5 -40.5
t33.5 -116.5v-32zM432 231q0 -37 10 -58.5t37 -21.5q12 0 24 6t22 22v38q0 61 -13 83.5t-38 22.5q-19 0 -30.5 -17.5t-11.5 -59.5v-15z" />
    <glyph glyph-name="seven_fraction_nine" horiz-adv-x="638" 
d="M63 560h-24v120h219v-57q-28 -37 -46 -75.5t-27.5 -88t-12.5 -119.5h-88q7 47 22.5 88.5t45.5 87t78 102.5h-132q-17 0 -21 -2t-6 -11zM485 680l29 -17l-375 -663l-29 17zM608 156q0 -82 -37 -121.5t-99 -39.5q-40 0 -67.5 17.5t-38.5 52.5l34 15q8 -34 27.5 -48
t41.5 -14q17 0 30.5 8.5t22 32.5t8.5 68v20q-13 -13 -29 -18t-34 -5q-48 0 -78 28.5t-30 76.5v12q0 48 32.5 76t86.5 28q63 0 96.5 -40.5t33.5 -116.5v-32zM437 231q0 -37 10 -58.5t37 -21.5q12 0 24 6t22 22v38q0 61 -13 83.5t-38 22.5q-19 0 -30.5 -17.5t-11.5 -59.5v-15z
" />
    <glyph glyph-name="eight_fraction_nine" horiz-adv-x="672" 
d="M279 432q0 -41 -29 -69t-86 -28q-62 0 -91.5 25t-29.5 59q0 27 18 48.5t50 37.5q-29 17 -46 38.5t-17 52.5q0 37 28.5 63t80.5 26t82.5 -23t30.5 -57q0 -22 -15.5 -39.5t-44.5 -31.5q32 -18 50.5 -41.5t18.5 -60.5zM158 559l23 -11q11 11 15 25t4 30q0 28 -12 41.5
t-32 13.5q-42 0 -42 -43q0 -20 11.5 -33t32.5 -23zM113 420q0 -25 12.5 -41t38.5 -16q23 0 36 13t13 35q0 42 -46 65l-29 14q-25 -25 -25 -70zM519 680l29 -17l-375 -663l-29 17zM642 156q0 -82 -37 -121.5t-99 -39.5q-40 0 -67.5 17.5t-38.5 52.5l34 15q8 -34 27.5 -48
t41.5 -14q17 0 30.5 8.5t22 32.5t8.5 68v20q-13 -13 -29 -18t-34 -5q-48 0 -78 28.5t-30 76.5v12q0 48 32.5 76t86.5 28q63 0 96.5 -40.5t33.5 -116.5v-32zM471 231q0 -37 10 -58.5t37 -21.5q12 0 24 6t22 22v38q0 61 -13 83.5t-38 22.5q-19 0 -30.5 -17.5t-11.5 -59.5v-15z
" />
    <glyph glyph-name="period" unicode="." horiz-adv-x="255" 
d="M127 -10q-31 0 -50.5 19.5t-19.5 51.5t19.5 51t50.5 19t51 -19t20 -51t-20 -51.5t-51 -19.5z" />
    <glyph glyph-name="comma" unicode="," horiz-adv-x="255" 
d="M196 44q0 -43 -31 -103t-87 -127l-23 20q41 50 58 87.5t18 68.5h-3q-30 0 -48.5 18.5t-18.5 49.5q0 30 18.5 48.5t48.5 18.5q29 0 48.5 -21t19.5 -60z" />
    <glyph glyph-name="colon" unicode=":" horiz-adv-x="255" 
d="M127 376q-31 0 -50.5 19.5t-19.5 51.5t19.5 51t50.5 19t51 -19t20 -51t-20 -51.5t-51 -19.5zM127 -10q-31 0 -50.5 19.5t-19.5 51.5t19.5 51t50.5 19t51 -19t20 -51t-20 -51.5t-51 -19.5z" />
    <glyph glyph-name="semicolon" unicode=";" horiz-adv-x="255" 
d="M127 376q-31 0 -50.5 19.5t-19.5 51.5t19.5 51t50.5 19t51 -19t20 -51t-20 -51.5t-51 -19.5zM196 44q0 -43 -31 -103t-87 -127l-23 20q41 50 58 87.5t18 68.5h-3q-30 0 -48.5 18.5t-18.5 49.5q0 30 18.5 48.5t48.5 18.5q29 0 48.5 -21t19.5 -60z" />
    <glyph glyph-name="ellipsis" unicode="&#x2026;" horiz-adv-x="655" 
d="M127 -10q-31 0 -50.5 19.5t-19.5 51.5t19.5 51t50.5 19t51 -19t20 -51t-20 -51.5t-51 -19.5zM327 -10q-31 0 -50.5 19.5t-19.5 51.5t19.5 51t50.5 19t51 -19t20 -51t-20 -51.5t-51 -19.5zM527 -10q-31 0 -50.5 19.5t-19.5 51.5t19.5 51t50.5 19t51 -19t20 -51t-20 -51.5
t-51 -19.5z" />
    <glyph glyph-name="exclam" unicode="!" horiz-adv-x="255" 
d="M145 202h-35q0 68 -4 119t-10 92.5l-12 80.5t-10 83.5t-4 102.5h115q0 -58 -4 -102.5t-10 -83.5l-12 -80.5t-10 -92.5t-4 -119zM127 -10q-31 0 -50.5 19.5t-19.5 51.5t19.5 51t50.5 19t51 -19t20 -51t-20 -51.5t-51 -19.5z" />
    <glyph glyph-name="exclamdown" unicode="&#xa1;" horiz-adv-x="255" 
d="M128 517q32 0 51 -19.5t19 -51.5q0 -31 -19 -50.5t-51 -19.5q-31 0 -51 19.5t-20 50.5q0 32 20 51.5t51 19.5zM110 305h35q0 -68 4 -119t10 -92.5l12 -80.5t10 -83.5t4 -102.5h-115q0 58 4 102.5t10 83.5l12 80.5t10 92.5t4 119z" />
    <glyph glyph-name="question" unicode="?" horiz-adv-x="492" 
d="M262 202h-51v16q0 44 12 70.5t29.5 45.5l35 39.5t29.5 52t12 83.5q0 71 -22.5 108.5t-65.5 37.5q-54 0 -74.5 -49t-10.5 -139l-115 16q-10 54 8.5 101t66.5 76.5t126 29.5q75 0 121.5 -24.5t68.5 -63.5t22 -83q0 -43 -15 -72.5t-38.5 -50t-49.5 -37.5t-48.5 -35.5
t-34.5 -43t-8 -61.5zM235 -10q-31 0 -50.5 19.5t-19.5 51.5t19.5 51t50.5 19t51 -19t20 -51t-20 -51.5t-51 -19.5z" />
    <glyph glyph-name="questiondown" unicode="&#xbf;" horiz-adv-x="492" 
d="M260 517q32 0 51 -19.5t19 -51.5q0 -31 -19 -50.5t-51 -19.5q-31 0 -51 19.5t-20 50.5q0 32 20 51.5t51 19.5zM233 305h51v-16q0 -44 -12 -70.5t-29.5 -45.5l-35 -39.5t-29.5 -52t-12 -83.5q0 -71 22.5 -108.5t65.5 -37.5q54 0 74.5 49t10.5 139l115 -16
q10 -53 -8.5 -100.5t-66 -77t-126.5 -29.5q-75 0 -122 24.5t-68.5 64t-21.5 82.5t15 72.5t38.5 50t49.5 37.5t48.5 35.5t34.5 43t8 61.5z" />
    <glyph glyph-name="periodcentered" unicode="&#xb7;" horiz-adv-x="500" 
d="M250 315q-31 0 -50 19.5t-19 50.5t19 50t50 19q30 0 50 -19t20 -50t-20 -50.5t-50 -19.5z" />
    <glyph glyph-name="bullet" unicode="&#x2022;" horiz-adv-x="264" 
d="M132 240q-40 0 -66.5 26.5t-26.5 67.5q0 40 26.5 66t66.5 26q41 0 67 -26t26 -66q0 -41 -26 -67.5t-67 -26.5z" />
    <glyph glyph-name="asterisk" unicode="*" horiz-adv-x="450" 
d="M381 344l-77 -56q-17 23 -24 41.5t-12 36t-14 38.5t-30 50q-21 -28 -30 -49t-13.5 -38.5t-11.5 -36t-24 -41.5l-77 56q17 23 32 35.5t30.5 22.5t33 25t38.5 44q-34 11 -57 13t-41 1t-37.5 0t-47.5 10l30 91q27 -9 43.5 -19.5t30.5 -22t34 -23.5t54 -23q0 36 -5 58.5
t-11.5 39.5t-11.5 36t-5 47h95q0 -29 -5 -48t-11.5 -36t-11.5 -39.5t-5 -58.5q34 11 53.5 23t33.5 23.5t30.5 22t44.5 19.5l29 -91q-27 -9 -46.5 -10t-38 0t-41.5 -1t-57 -13q21 -29 38 -44t32.5 -25t30.5 -22.5t32 -35.5z" />
    <glyph glyph-name="numbersign" unicode="#" horiz-adv-x="638" 
d="M549 210h-119l-68 -220l-36 11l64 209h-222l-68 -220l-36 11l64 209h-108v35h119l59 190h-109v35h119l68 220l36 -11l-64 -209h222l68 220l36 -11l-64 -209h108v-35h-119l-59 -190h109v-35zM178 245h223l59 190h-223z" />
    <glyph glyph-name="slash" unicode="/" horiz-adv-x="373" 
d="M324 740l39 -15l-346 -868l-39 15z" />
    <glyph glyph-name="backslash" unicode="\" horiz-adv-x="373" 
d="M49 740l346 -868l-39 -15l-346 868z" />
    <glyph glyph-name="exclamdown.case" horiz-adv-x="255" 
d="M128 690q32 0 51 -19.5t19 -51.5q0 -31 -19 -50.5t-51 -19.5q-31 0 -51 19.5t-20 50.5q0 32 20 51.5t51 19.5zM110 478h35q0 -68 4 -119t10 -92.5l12 -80.5t10 -83.5t4 -102.5h-115q0 58 4 102.5t10 83.5l12 80.5t10 92.5t4 119z" />
    <glyph glyph-name="questiondown.case" horiz-adv-x="492" 
d="M263 690q32 0 51 -19.5t19 -51.5q0 -31 -19 -50.5t-51 -19.5q-31 0 -51 19.5t-20 50.5q0 32 20 51.5t51 19.5zM236 478h51v-16q0 -44 -12 -70.5t-29.5 -45.5l-35 -39.5t-29.5 -52t-12 -83.5q0 -71 22.5 -108.5t65.5 -37.5q54 0 74.5 49t10.5 139l115 -16
q10 -53 -8.5 -100.5t-66 -77t-126.5 -29.5q-75 0 -122 24.5t-68.5 64t-21.5 82.5t15 72.5t38.5 50t49.5 37.5t48.5 35.5t34.5 43t8 61.5z" />
    <glyph glyph-name="parenleft" unicode="(" horiz-adv-x="333" 
d="M56 280v37q0 125 60.5 229.5t183.5 203.5l23 -24q-56 -52 -87.5 -118t-44 -140t-12.5 -151v-37q0 -77 12.5 -151t44 -140t87.5 -118l-23 -24q-123 99 -183.5 204t-60.5 229z" />
    <glyph glyph-name="parenright" unicode=")" horiz-adv-x="333" 
d="M277 317v-37q0 -124 -60.5 -229t-183.5 -204l-23 24q56 52 87.5 118t44 140t12.5 151v37q0 77 -12.5 151t-44 140t-87.5 118l23 24q123 -99 183.5 -203.5t60.5 -229.5z" />
    <glyph glyph-name="braceleft" unicode="{" horiz-adv-x="392" 
d="M382 -109v-35h-85q-61 0 -105.5 21t-63 62t-1.5 102l30 106q16 56 1.5 95t-43.5 39h-83v35h83q29 0 43.5 38.5t-1.5 94.5l-30 106q-17 61 1.5 102t63 62t105.5 21h85v-35h-85q-47 0 -60.5 -35.5t3.5 -95.5l30 -106q20 -69 -7 -112t-83 -58q56 -15 83 -58t7 -112l-30 -106
q-17 -60 -3.5 -95.5t60.5 -35.5h85z" />
    </font>
</defs>
</svg>
