<?xml version="1.0" encoding="utf-8"?>
<!-- Generator: Adobe Illustrator 24.1.2, SVG Export Plug-In . SVG Version: 6.00 Build 0)  -->
<svg version="1.1" id="Calque_1" xmlns="http://www.w3.org/2000/svg" xmlns:xlink="http://www.w3.org/1999/xlink" x="0px" y="0px"
	 viewBox="0 0 463.5 461" style="enable-background:new 0 0 463.5 461;" xml:space="preserve">
<path style="fill:#725AC1;stroke:#C3BAF4;stroke-width:5;stroke-linecap:round;stroke-linejoin:round;stroke-miterlimit:10;" d="
	M350.1,433.8c0,12.8-57.4,23.2-128.3,23.2S93.5,446.6,93.5,433.8c0-14.7,20.3-28.2,21.6-29c-1.9,1.5-2.9,3-2.9,4.5
	c0,3.4,4.6,6.5,12.7,9.3c18.4,6.3,54.9,10.5,96.9,10.5s78.5-4.3,96.9-10.5c8.1-2.8,12.7-5.9,12.7-9.3c0-1.6-1-3.1-2.9-4.5
	C329.8,405.6,350.1,419.1,350.1,433.8z"/>
<g style="opacity:0.2;">
	
		<image style="overflow:visible;" width="329" height="125" xlink:href="102BCA2C8E37C65B.png"  transform="matrix(1 0 0 1 57.4803 368)">
	</image>
</g>
<path style="fill:#C3BAF4;stroke:#C3BAF4;stroke-width:5;stroke-linecap:round;stroke-linejoin:round;stroke-miterlimit:10;" d="
	M331.4,409.3c0,3.4-4.6,6.5-12.7,9.3c-18.4,6.3-54.9,10.5-96.9,10.5s-78.5-4.3-96.9-10.5c-8.1-2.8-12.7-5.9-12.7-9.3
	c0-1.6,1-3.1,2.9-4.5c0,0,0.1,0,0.1,0c11.5-8.7,54.9-15.2,106.7-15.2s95.2,6.5,106.7,15.2c0,0,0,0,0.1,0
	C330.4,406.2,331.4,407.7,331.4,409.3z"/>
<path style="fill:none;stroke:#FFFFFF;stroke-width:5;stroke-linecap:round;stroke-linejoin:round;stroke-miterlimit:10;" d="
	M158.2,201.2c0,0,10.2-28.5,36.5-24.1s46-21.2,54.7-23.3c8.8-2.2,18.2-2.9,30.6,0"/>
<line style="fill:none;stroke:#725AC1;stroke-width:5;stroke-linecap:round;stroke-linejoin:round;stroke-miterlimit:10;" x1="222.2" y1="230.2" x2="222.2" y2="409.3"/>
<circle style="fill:#FFFFFF;stroke:#725AC1;stroke-width:5;stroke-linecap:round;stroke-linejoin:round;stroke-miterlimit:10;" cx="386.4" cy="308.8" r="27.5"/>
<circle style="fill:#FFFFFF;stroke:#725AC1;stroke-width:5;stroke-linecap:round;stroke-linejoin:round;stroke-miterlimit:10;" cx="44" cy="69.9" r="12.2"/>
<path style="fill:#C3BAF4;stroke:#725AC1;stroke-width:5;stroke-linecap:round;stroke-linejoin:round;stroke-miterlimit:10;" d="
	M158.6,201.6c0,0-16,3.6-18.2,5.1s-29.2,5.8-37.2,0s-15.3-12.4-16-37.2s3.3-14.2,3.3-27.4s7.3-9.5,8.8-17.5s16-11.7,17.5-18.2
	s16.8-10.9,19-17.5c2.2-6.6,16.8-1.5,33.6-14.6s19-2.2,37.2-6.6s20.4,0.7,33.6-4.4s22.6,5.8,33.6,3.6c10.9-2.2,19,10.2,37.9,14.6
	s16.8,20.4,29.9,26.3s7.3,17.5,21.2,27.7c13.9,10.2,16,48.1-22.6,63.5c0,0,5.1,51.8-68.6,46.7c0,0-18.2-2.2-27.7-24.1
	c0,0-16.8,10.2-27.7,8.8s-19,7.3-28.5,2.9s-27-2.9-29.9-13.9S158.6,201.6,158.6,201.6z"/>
<g style="opacity:0.2;">
	
		<image style="overflow:visible;" width="358" height="258" xlink:href="102BCA2C8E37C659.png"  transform="matrix(1 0 0 1 50.4803 25)">
	</image>
</g>
<g>
	<path style="fill:none;stroke:#10101C;stroke-width:3;stroke-linecap:round;stroke-linejoin:round;stroke-miterlimit:10;" d="
		M100.6,165.5c0,0,12.4,13.9,17.5,0s9.5-21.2,19.7-19.7s18.2,0,22.6-7.3s15.3-2.9,17.5,5.1s-15.2,27.5-5.4,38.6"/>
	<path style="fill:none;stroke:#10101C;stroke-width:3;stroke-linecap:round;stroke-linejoin:round;stroke-miterlimit:10;" d="
		M176,139.7c0,0,9.2-10,7-19.5s-11.7-16,12.4-29.9"/>
	<path style="fill:none;stroke:#10101C;stroke-width:3;stroke-linecap:round;stroke-linejoin:round;stroke-miterlimit:10;" d="
		M131.4,146.2c0,0-19.1-4.1,2.1-27.4"/>
	<path style="fill:none;stroke:#10101C;stroke-width:3;stroke-linecap:round;stroke-linejoin:round;stroke-miterlimit:10;" d="
		M150.1,145.7c0,0-9.4,10.3,0.1,22"/>
	<path style="fill:none;stroke:#10101C;stroke-width:3;stroke-linecap:round;stroke-linejoin:round;stroke-miterlimit:10;" d="
		M221,172.4c0,0-17.5,6.2-19.7-11.3s5.1-24.1,2.2-31.4c-2.9-7.3,16-3.6,15.3-10.9s5.1-8.8,6.6-20.4s10.9-22.6,18.2-24.1"/>
	<path style="fill:none;stroke:#10101C;stroke-width:3;stroke-linecap:round;stroke-linejoin:round;stroke-miterlimit:10;" d="
		M247.3,142.7c0,0-15.4,0.9-16.9-7.9s1.5-13.1,0-18.2s17.5-10.2,18.2-14.6s0.7-10.9,4.4-13.1"/>
	<path style="fill:none;stroke:#10101C;stroke-width:3;stroke-linecap:round;stroke-linejoin:round;stroke-miterlimit:10;" d="
		M326,110c0,0,24.1,24.8,10.9,29.9s-21.2-5.1-21.2-5.1"/>
	<path style="fill:none;stroke:#10101C;stroke-width:3;stroke-linecap:round;stroke-linejoin:round;stroke-miterlimit:10;" d="
		M327,141.3c0,0-15.6,15.3-25.8,16.8s-29.9,5.8-32.1,9.5c-2.2,3.6,0,10.9-8.8,14.6s-21.9-1.5-19,11.7s-19.7-5.8-26.3,0
		s-24.8-5.1-19.7,4.4s-23.3,6.6-24.1,12.4"/>
	<path style="fill:none;stroke:#10101C;stroke-width:3;stroke-linecap:round;stroke-linejoin:round;stroke-miterlimit:10;" d="
		M311.1,154c0,0,18.7,33-16.3,32.3"/>
	<path style="fill:none;stroke:#10101C;stroke-width:3;stroke-linecap:round;stroke-linejoin:round;stroke-miterlimit:10;" d="
		M315.4,176c0,0,25.4,8.8,39.3,0"/>
	<path style="fill:none;stroke:#10101C;stroke-width:3;stroke-linecap:round;stroke-linejoin:round;stroke-miterlimit:10;" d="
		M280.1,110c0,0-8-8.8-1.5-13.9c6.6-5.1,21.2-1.5,19.7,13.9s15.3,23.3,7.3,31.4c-8,8-37.9,8-42.3-8.8"/>
	<path style="fill:none;stroke:#10101C;stroke-width:3;stroke-linecap:round;stroke-linejoin:round;stroke-miterlimit:10;" d="
		M165.5,125.3c0,0-8.8-19-26.3-15.3"/>
	<path style="fill:none;stroke:#10101C;stroke-width:3;stroke-linecap:round;stroke-linejoin:round;stroke-miterlimit:10;" d="
		M113,153.8c0,0-7.3-0.7-3.6-9.5s0.7-13.1-0.7-14.6"/>
	<path style="fill:none;stroke:#10101C;stroke-width:3;stroke-linecap:round;stroke-linejoin:round;stroke-miterlimit:10;" d="
		M149.5,96.1c0,0,8-3.2,16-4s4.4-15,16.8-14.3s26.9,6.4,33.7,1.1"/>
	<path style="fill:none;stroke:#10101C;stroke-width:3;stroke-linecap:round;stroke-linejoin:round;stroke-miterlimit:10;" d="
		M183,120.2c0,0,16.8-3.6,20.4-10.2"/>
	<path style="fill:none;stroke:#10101C;stroke-width:3;stroke-linecap:round;stroke-linejoin:round;stroke-miterlimit:10;" d="
		M278.6,96.1c0,0-6.6-11.7-3.6-18.2"/>
	<path style="fill:none;stroke:#10101C;stroke-width:3;stroke-linecap:round;stroke-linejoin:round;stroke-miterlimit:10;" d="
		M260.4,109.3c0,0,1.5,8.8,11.7,10.9"/>
	<path style="fill:none;stroke:#10101C;stroke-width:3;stroke-linecap:round;stroke-linejoin:round;stroke-miterlimit:10;" d="
		M113,183.7c0,0,16,13.9,32.8,4.4"/>
	<path style="fill:none;stroke:#10101C;stroke-width:3;stroke-linecap:round;stroke-linejoin:round;stroke-miterlimit:10;" d="
		M129.1,162.5c0,0,16.8,18.2-2.9,16"/>
	<path style="fill:none;stroke:#10101C;stroke-width:3;stroke-linecap:round;stroke-linejoin:round;stroke-miterlimit:10;" d="
		M135.7,174.6c0,0,12.3,9.1,19.6,9.1"/>
	<path style="fill:none;stroke:#10101C;stroke-width:3;stroke-linecap:round;stroke-linejoin:round;stroke-miterlimit:10;" d="
		M198.1,223.7c0,0,17.7-6.5,7.5-16"/>
	<path style="fill:none;stroke:#10101C;stroke-width:3;stroke-linecap:round;stroke-linejoin:round;stroke-miterlimit:10;" d="
		M209.1,214.5c0,0,13.3,1.2,16.9-2.4c3.7-3.6,23.3-1.9,28.4-7.7c14.9-16.9,24.5-13.8,31-13"/>
	<path style="fill:none;stroke:#10101C;stroke-width:3;stroke-linecap:round;stroke-linejoin:round;stroke-miterlimit:10;" d="
		M273.1,226.6c0,0,10.6,10.5,34.7,7.6"/>
	<path style="fill:none;stroke:#10101C;stroke-width:3;stroke-linecap:round;stroke-linejoin:round;stroke-miterlimit:10;" d="
		M281.2,221.2c0,0,22.2,10.6,43.3,1.2"/>
	<path style="fill:none;stroke:#10101C;stroke-width:3;stroke-linecap:round;stroke-linejoin:round;stroke-miterlimit:10;" d="
		M264.5,230.6c0,0,6.5,7.2,23.3,9.4"/>
	<path style="fill:none;stroke:#10101C;stroke-width:3;stroke-linecap:round;stroke-linejoin:round;stroke-miterlimit:10;" d="
		M290,214.9c0,0,27.5,4.1,41.1-7.2"/>
</g>
<g>
	<g>
		<path style="fill:none;stroke:#725AC1;stroke-width:4;stroke-linecap:round;stroke-linejoin:round;" d="M68.8,183.7
			c-2.5,2.3-4.9,4.5-7.3,6.8"/>
		
			<path style="fill:none;stroke:#725AC1;stroke-width:4;stroke-linecap:round;stroke-linejoin:round;stroke-dasharray:19.7106,19.7106;" d="
			M47.5,204.4c-36.3,37.7-53.4,71.1-42,89.8c21,34.6,131.6,6,247-64S444.3,75.3,423.3,40.6c-13.6-22.4-64.9-18.3-130.6,6.4"/>
		<path style="fill:none;stroke:#725AC1;stroke-width:4;stroke-linecap:round;stroke-linejoin:round;" d="M283.5,50.6
			c-3.1,1.2-6.1,2.5-9.3,3.8"/>
	</g>
</g>
<circle style="fill:#725AC1;stroke:#C3BAF4;stroke-width:5;stroke-linecap:round;stroke-linejoin:round;stroke-miterlimit:10;" cx="423.3" cy="40.6" r="36.9"/>
<g style="opacity:0.2;">
	
		<image style="overflow:visible;" width="147" height="147" xlink:href="102BCA2C8E37C65F.png"  transform="matrix(1 0 0 1 349.4803 -33)">
	</image>
</g>
</svg>
