<?xml version="1.0" standalone="no"?>
<!DOCTYPE svg PUBLIC "-//W3C//DTD SVG 1.1//EN" "http://www.w3.org/Graphics/SVG/1.1/DTD/svg11.dtd" >
<svg>
<metadata>
Created by FontForge 20090622 at Wed Jul 15 20:42:26 2020
 By deploy user
Copyright 2017 The Inria Serif Project Authors (https://github.com/BlackFoundryCom/InriaFonts)
</metadata>
<defs>
<font id="InriaSerif-Italic" horiz-adv-x="588" >
  <font-face 
    font-family="Inria Serif"
    font-weight="400"
    font-style="italic"
    font-stretch="normal"
    units-per-em="1000"
    panose-1="0 0 0 0 0 0 0 0 0 0"
    ascent="800"
    descent="-200"
    x-height="495"
    cap-height="680"
    bbox="-228 -242 1379 974"
    underline-thickness="65"
    underline-position="-53"
    slope="-10"
    unicode-range="U+000D-U+FB04"
  />
<missing-glyph horiz-adv-x="657" 
d="M67 0l120 680h434l-120 -680h-434zM160 32h260l108 616h-260z" />
    <glyph glyph-name="ff" unicode="ff" horiz-adv-x="639" 
d="M448 -7q-10 -57 -35.5 -106t-71.5 -79.5t-121 -30.5q-83 0 -126 37t-39 92l82 16q-5 -61 14.5 -87t68.5 -26q36 0 64 14.5t48 51.5t32 104l86 484h-226l-81 -463h-83l73 414q6 34 4 40.5t-17 8.5l-55 5l5 27h77l7 40q10 55 35 101.5t71.5 75t119.5 28.5q49 0 81.5 -17
t48.5 -46q22 33 57.5 53t89.5 20q58 0 92 -21.5t43.5 -56.5t-4.5 -77l-81 -16q44 139 -49 139q-26 0 -46 -11.5t-35 -41t-25 -84.5l-15 -86h159l-6 -32h-159zM239 549l-9 -54h225l11 63q14 77 -8.5 113.5t-77.5 36.5q-34 0 -62 -13.5t-48 -47.5t-31 -98z" />
    <glyph glyph-name="ffi" unicode="ffi" horiz-adv-x="913" 
d="M546 549l-10 -54h306l-60 -345q-13 -74 -9.5 -98t19.5 -24q14 0 32 17.5t31 59.5l35 -22q-22 -46 -51 -67t-63 -21q-46 0 -68 36t-9 111l55 321h-223l-83 -470q-10 -57 -35.5 -106t-71.5 -79.5t-121 -30.5q-83 0 -126 37t-39 92l82 16q-5 -61 14.5 -87t68.5 -26
q36 0 64 14.5t48 51.5t32 104l85 484h-225l-81 -463h-83l73 414q6 34 4 40.5t-17 8.5l-55 5l5 27h77l7 40q10 55 35 101.5t71.5 75t119.5 28.5q52 0 85 -19.5t48 -51.5q27 37 70 59t107 22q61 0 102.5 -20.5t58.5 -55.5t3 -79l-82 -16q22 74 -2 106.5t-80 32.5
q-36 0 -64 -14t-48 -50.5t-32 -104.5zM239 549l-9 -54h225l8 43q17 92 -5 131t-78 39q-34 0 -62 -13.5t-48 -47.5t-31 -98z" />
    <glyph glyph-name="ffl" unicode="ffl" horiz-adv-x="914" 
d="M448 -7q-10 -57 -35.5 -106t-71.5 -79.5t-121 -30.5q-83 0 -126 37t-39 92l82 16q-5 -61 14.5 -87t68.5 -26q36 0 64 14.5t48 51.5t32 104l85 484h-225l-81 -463h-83l73 414q6 34 4 40.5t-17 8.5l-55 5l5 27h77l7 40q10 55 35 101.5t71.5 75t119.5 28.5q52 0 85 -20
t49 -52q26 37 69 59.5t107 22.5q45 0 76 -13t47 -36q29 17 51 39h21l-103 -590q-13 -74 -9.5 -98t19.5 -24q14 0 32 17.5t31 59.5l35 -22q-22 -46 -51 -67t-63 -21q-46 0 -68 36t-9 111l79 457q11 63 -11.5 91t-76.5 28q-36 0 -64 -14t-48 -50.5t-32 -104.5l-10 -54h141
l-6 -32h-140zM239 549l-9 -54h225l7 40q17 93 -4.5 133t-77.5 40q-34 0 -62 -13.5t-48 -47.5t-31 -98z" />
    <glyph glyph-name="fi" unicode="fi" horiz-adv-x="605" 
d="M239 549l-10 -54h306l-60 -345q-13 -74 -10 -98t19 -24q15 0 32.5 17.5t31.5 59.5l35 -22q-22 -46 -51 -67t-63 -21q-46 0 -68 36t-9 111l55 321h-223l-120 -676h-82l111 627q6 34 4 40.5t-17 8.5l-55 5l5 27h77l7 40q11 57 36 106t71.5 79t121.5 30q61 0 102 -20.5
t58 -55.5t4 -79l-82 -16q22 74 -2 106.5t-81 32.5q-35 0 -63 -14t-48 -50.5t-32 -104.5z" />
    <glyph glyph-name="fl" unicode="fl" horiz-adv-x="606" 
d="M364 463h-140l-120 -676h-82l111 627q6 34 4 40.5t-17 8.5l-55 5l5 27h77l7 40q11 57 36 106t71.5 79t121.5 30q45 0 76 -13t47 -36q30 17 50 39h22l-103 -590q-13 -74 -10 -98t19 -24q15 0 32.5 17.5t31.5 59.5l35 -22q-22 -46 -51 -67t-63 -21q-46 0 -68 36t-9 111
l79 457q11 63 -12 91t-77 28q-35 0 -63 -14t-48 -50.5t-32 -104.5l-10 -54h140z" />
    <glyph glyph-name="ft" unicode="ft" horiz-adv-x="678" 
d="M396 165l51 298h-223l-120 -676h-82l111 627q6 34 4 40.5t-17 8.5l-55 5l5 27h77l7 40q11 57 35.5 106t70.5 79t119 30q76 0 107 -36.5t29 -86.5q7 5 13.5 10.5t11.5 10.5h22l-27 -153h163l-5 -32h-163l-56 -318q-13 -71 0 -97t41 -26q27 0 47.5 21.5t38.5 77.5l48 -19
q-27 -64 -62.5 -88t-75.5 -24q-76 0 -102 49t-13 126zM229 495h224l18 105q11 62 -11.5 90t-77.5 28q-35 0 -63 -14t-48 -50.5t-32 -104.5z" />
    <glyph glyph-name="fft" unicode="fft" horiz-adv-x="985" 
d="M448 -7q-10 -57 -35.5 -106t-71.5 -79.5t-121 -30.5q-83 0 -126 37t-39 92l82 16q-5 -61 14.5 -87t68.5 -26q36 0 64 14.5t48 51.5t32 104l85 484h-225l-81 -463h-83l73 414q6 34 4 40.5t-17 8.5l-55 5l5 27h77l7 40q10 55 35 101.5t71.5 75t119.5 28.5q52 0 85 -19.5
t48 -51.5q27 37 69.5 59t104.5 22q75 0 106 -36.5t29 -86.5q15 10 26 21h21l-27 -153h163l-5 -32h-163l-56 -318q-13 -71 0 -97t41 -26q27 0 47.5 21.5t38.5 77.5l48 -19q-27 -64 -62.5 -88t-75.5 -24q-75 0 -101.5 49t-13.5 126l51 298h-223zM536 495h224l18 105
q11 62 -11.5 90t-76.5 28q-36 0 -64 -14t-48 -50.5t-32 -104.5zM239 549l-9 -54h225l7 40q17 93 -4.5 133t-77.5 40q-34 0 -62 -13.5t-48 -47.5t-31 -98z" />
    <glyph glyph-name="fb" unicode="fb" horiz-adv-x="887" 
d="M224 463l-120 -676h-82l111 627q6 34 4 40.5t-17 8.5l-55 5l5 27h77l7 40q11 57 36 106t72.5 79t123.5 30q47 0 78.5 -13t47.5 -36q14 8 27 18t24 21h21l-58 -328q35 51 73 72t78 21q59 0 96 -36.5t50.5 -97.5t-0.5 -136l-4 -22q-12 -70 -46.5 -120t-83 -76.5
t-102.5 -26.5q-83 0 -125 59q-19 -10 -34.5 -23.5t-32.5 -30.5h-24l103 584q14 75 -6.5 107t-81.5 32q-36 0 -65 -14t-49.5 -50.5t-32.5 -104.5l-10 -54h140l-5 -32h-140zM663 470q-19 0 -43.5 -11.5t-52 -43.5t-56.5 -93l-39 -223q18 -40 45 -57.5t64 -17.5q61 0 97 47.5
t50 131.5l10 57q17 101 -5 155.5t-70 54.5z" />
    <glyph glyph-name="ffb" unicode="ffb" horiz-adv-x="1194" 
d="M448 -7q-10 -57 -35.5 -106t-71.5 -79.5t-121 -30.5q-83 0 -126 37t-39 92l82 16q-5 -61 14.5 -87t68.5 -26q36 0 64 14.5t48 51.5t32 104l85 484h-225l-81 -463h-83l73 414q6 34 4 40.5t-17 8.5l-55 5l5 27h77l7 40q10 55 35 101.5t71.5 75t119.5 28.5q53 0 86 -20
t48 -52q27 37 70.5 59.5t108.5 22.5q47 0 78 -13.5t48 -35.5q14 8 27 18t24 21h22l-58 -328q34 51 72 72t78 21q60 0 97 -36.5t50 -97.5t-1 -136l-4 -22q-12 -70 -46.5 -120t-82.5 -76.5t-103 -26.5q-42 0 -73 15.5t-52 43.5q-19 -10 -34.5 -23.5t-31.5 -30.5h-24l102 584
q13 75 -7 107t-81 32q-36 0 -65 -14t-49.5 -50.5t-32.5 -104.5l-10 -54h141l-6 -32h-140zM239 549l-9 -54h225l7 40q17 93 -4.5 133t-77.5 40q-34 0 -62 -13.5t-48 -47.5t-31 -98zM970 470q-19 0 -43.5 -11.5t-51.5 -43t-57 -91.5l-39 -226q18 -39 45 -56.5t64 -17.5
q62 0 97.5 47.5t49.5 131.5l10 57q17 101 -5 155.5t-70 54.5z" />
    <glyph glyph-name="fff" unicode="fff" horiz-adv-x="947" 
d="M528 -213q-52 0 -84.5 20.5t-47.5 51.5q-27 -37 -69.5 -59.5t-106.5 -22.5q-83 0 -126 37t-39 92l82 16q-5 -61 14.5 -87t68.5 -26q36 0 64 14.5t48 51.5t32 104l85 484h-225l-81 -463h-83l73 414q6 34 4 40.5t-17 8.5l-55 5l5 27h77l7 40q10 55 35 101.5t71.5 75
t119.5 28.5q54 0 88 -21t48 -54q27 34 69.5 54.5t104.5 20.5q47 0 79 -17t48 -45q23 32 58.5 52t89.5 20q58 0 91.5 -21.5t43.5 -56.5t-4 -77l-82 -16q46 139 -49 139q-26 0 -46 -11.5t-35 -41t-25 -84.5l-15 -86h159l-5 -32h-160l-82 -467q-10 -55 -35 -103t-71.5 -77
t-121.5 -29zM546 549l-10 -54h226l12 64q15 81 -9.5 115t-74.5 34q-35 0 -63.5 -13.5t-48.5 -47.5t-32 -98zM239 549l-9 -54h225l7 40q17 93 -4.5 133t-77.5 40q-34 0 -62 -13.5t-48 -47.5t-31 -98zM449 -3q-18 -98 3 -138t76 -40q36 0 64 13.5t48.5 49t31.5 100.5l85 481
h-226z" />
    <glyph glyph-name="fh" unicode="fh" horiz-adv-x="927" 
d="M224 463l-120 -676h-82l111 627q6 34 4 40.5t-17 8.5l-55 5l5 27h77l7 40q11 57 36 106t72.5 79t123.5 30q47 0 78.5 -13t47.5 -36q14 8 27 18t24 21h21l-61 -349q44 62 91.5 88t96.5 26q74 0 106.5 -49t15.5 -132l-41 -200q-10 -51 -9 -73.5t20 -22.5q17 0 34.5 17.5
t30.5 59.5l36 -22q-22 -46 -52 -67t-65 -21q-45 0 -67 31.5t-9 100.5l40 196q15 76 -2 110t-56 34q-24 0 -54 -13.5t-63 -46.5t-67 -94l-55 -313h-82l102 579q14 75 -6.5 107t-81.5 32q-36 0 -65 -14t-49.5 -50.5t-32.5 -104.5l-10 -54h140l-5 -32h-140z" />
    <glyph glyph-name="ffh" unicode="ffh" horiz-adv-x="1234" 
d="M448 -7q-10 -57 -35.5 -106t-71.5 -79.5t-121 -30.5q-83 0 -126 37t-39 92l82 16q-5 -61 14.5 -87t68.5 -26q36 0 64 14.5t48 51.5t32 104l85 484h-225l-81 -463h-83l73 414q6 34 4 40.5t-17 8.5l-55 5l5 27h77l7 40q10 55 35 101.5t71.5 75t119.5 28.5q53 0 86 -20
t48 -52q27 37 70.5 59.5t108.5 22.5q47 0 78 -13.5t48 -35.5q14 8 27 18t24 21h22l-61 -347q44 60 91.5 86t95.5 26q74 0 106.5 -49t15.5 -132l-41 -200q-10 -51 -9 -73.5t20 -22.5q17 0 34.5 17.5t30.5 59.5l36 -22q-22 -46 -51.5 -67t-64.5 -21q-46 0 -68 31.5t-9 100.5
l40 196q15 76 -2 110t-56 34q-24 0 -53.5 -13t-62 -45.5t-66.5 -92.5l-56 -316h-82l101 579q13 75 -7 107t-81 32q-36 0 -65 -14t-49.5 -50.5t-32.5 -104.5l-10 -54h141l-6 -32h-140zM239 549l-9 -54h225l7 40q17 93 -4.5 133t-77.5 40q-34 0 -62 -13.5t-48 -47.5t-31 -98z
" />
    <glyph glyph-name="fj" unicode="fj" horiz-adv-x="581" 
d="M239 549l-10 -54h313l-88 -502q-10 -57 -35.5 -106t-72.5 -79.5t-123 -30.5q-85 0 -128.5 37t-39.5 92l82 16q-6 -61 14.5 -87t71.5 -26q37 0 65 14.5t48.5 51.5t32.5 104l85 484h-230l-82 -463h-82l73 414q6 34 4 40.5t-17 8.5l-55 5l5 27h77l7 40q11 57 36 106t72.5 79
t123.5 30q62 0 104 -20.5t59.5 -55.5t3.5 -79l-82 -16q22 74 -2 106.5t-83 32.5q-36 0 -65 -14t-49.5 -50.5t-32.5 -104.5z" />
    <glyph glyph-name="ffj" unicode="ffj" horiz-adv-x="887" 
d="M546 549l-10 -54h312l-88 -499q-10 -55 -35.5 -103t-72.5 -77t-123 -29q-52 0 -85.5 20t-48.5 52q-26 -37 -69 -59.5t-106 -22.5q-83 0 -126 37t-39 92l82 16q-5 -61 14.5 -87t68.5 -26q36 0 64 14.5t48 51.5t32 104l85 484h-225l-81 -463h-83l73 414q6 34 4 40.5
t-17 8.5l-55 5l5 27h77l7 40q10 55 35 101.5t71.5 75t119.5 28.5q53 0 86 -20t48 -52q27 37 70.5 59.5t108.5 22.5q62 0 104 -20.5t59.5 -55.5t3.5 -79l-81 -16q22 74 -2.5 106.5t-83.5 32.5q-36 0 -65 -14t-49.5 -50.5t-32.5 -104.5zM239 549l-9 -54h225l7 40
q17 93 -4.5 133t-77.5 40q-34 0 -62 -13.5t-48 -47.5t-31 -98zM448 -7q-1 -4 -1.5 -8.5t-2.5 -9.5q-13 -85 9 -120.5t76 -35.5q37 0 65.5 13.5t49.5 49t32 100.5l84 481h-229z" />
    <glyph glyph-name="fk" unicode="fk" horiz-adv-x="843" 
d="M224 463l-120 -676h-82l111 627q6 34 4 40.5t-17 8.5l-55 5l5 27h77l7 40q11 57 36 106t72.5 79t123.5 30q47 0 78.5 -13t47.5 -36q14 8 27 18t24 21h21l-88 -499l121 112l81 72.5t63.5 47.5t67.5 32l16 -85q-66 -13 -119 -39.5t-97 -64.5l108 -241q14 -30 19.5 -35.5
t21.5 -7.5l50 -6l-4 -26h-144l-112 261l-81 -73l-33 -188h-82l102 579q14 75 -6.5 107t-81.5 32q-36 0 -65 -14t-49.5 -50.5t-32.5 -104.5l-10 -54h140l-5 -32h-140z" />
    <glyph glyph-name="ffk" unicode="ffk" horiz-adv-x="1150" 
d="M448 -7q-10 -57 -35.5 -106t-71.5 -79.5t-121 -30.5q-83 0 -126 37t-39 92l82 16q-5 -61 14.5 -87t68.5 -26q36 0 64 14.5t48 51.5t32 104l85 484h-225l-81 -463h-83l73 414q6 34 4 40.5t-17 8.5l-55 5l5 27h77l7 40q10 55 35 101.5t71.5 75t119.5 28.5q53 0 86 -20
t48 -52q27 37 70.5 59.5t108.5 22.5q47 0 78 -13.5t48 -35.5q14 8 27 18t24 21h22l-88 -498l120 111l81.5 72.5t64 47.5t67.5 32l15 -85q-66 -13 -119 -39.5t-97 -64.5l108 -241q14 -30 19.5 -35.5t21.5 -7.5l50 -6l-4 -26h-144l-112 260l-80 -72l-33 -188h-82l101 579
q13 75 -7 107t-81 32q-36 0 -65 -14t-49.5 -50.5t-32.5 -104.5l-10 -54h141l-6 -32h-140zM239 549l-9 -54h225l7 40q17 93 -4.5 133t-77.5 40q-34 0 -62 -13.5t-48 -47.5t-31 -98z" />
    <glyph glyph-name=".notdef" horiz-adv-x="657" 
d="M67 0l120 680h434l-120 -680h-434zM160 32h260l108 616h-260z" />
    <glyph glyph-name="A" unicode="A" horiz-adv-x="628" 
d="M152 26l-5 -26h-193l5 26l55 6q11 1 17 3.5t11.5 12.5t16.5 33l299 599h63l89 -599q5 -34 9 -40.5t18 -8.5l54 -6l-4 -26h-240l5 26l56 6q17 2 19.5 8.5t-2.5 40.5l-18 128h-244l-64 -128q-17 -34 -17 -40.5t16 -8.5zM179 241h223l-50 348z" />
    <glyph glyph-name="Aacute" unicode="&#xc1;" horiz-adv-x="628" 
d="M152 26l-5 -26h-193l5 26l55 6q11 1 17 3.5t11.5 12.5t16.5 33l299 599h63l89 -599q5 -34 9 -40.5t18 -8.5l54 -6l-4 -26h-240l5 26l56 6q17 2 19.5 8.5t-2.5 40.5l-18 128h-244l-64 -128q-17 -34 -17 -40.5t16 -8.5zM179 241h223l-50 348zM403 764l-19 22
q29 32 49.5 62.5t39.5 76.5h101q-38 -46 -78.5 -84t-92.5 -77z" />
    <glyph glyph-name="Abreve" unicode="&#x102;" horiz-adv-x="628" 
d="M152 26l-5 -26h-193l5 26l55 6q11 1 17 3.5t11.5 12.5t16.5 33l299 599h63l89 -599q5 -34 9 -40.5t18 -8.5l54 -6l-4 -26h-240l5 26l56 6q17 2 19.5 8.5t-2.5 40.5l-18 128h-244l-64 -128q-17 -34 -17 -40.5t16 -8.5zM179 241h223l-50 348zM415 828q47 0 77.5 23.5
t51.5 75.5l29 -9q-27 -82 -66 -118t-95 -36q-60 0 -90 39t-33 115l29 9q6 -52 28.5 -75.5t68.5 -23.5z" />
    <glyph glyph-name="Acircumflex" unicode="&#xc2;" horiz-adv-x="628" 
d="M152 26l-5 -26h-193l5 26l55 6q11 1 17 3.5t11.5 12.5t16.5 33l299 599h63l89 -599q5 -34 9 -40.5t18 -8.5l54 -6l-4 -26h-240l5 26l56 6q17 2 19.5 8.5t-2.5 40.5l-18 128h-244l-64 -128q-17 -34 -17 -40.5t16 -8.5zM179 241h223l-50 348zM538 783l-18 -19
q-29 26 -53 50.5t-44 48.5q-28 -24 -60 -48.5l-69 -50.5l-17 21q29 27 47.5 46t35.5 40.5t39 53.5h66q11 -32 20 -54t21.5 -41.5t31.5 -46.5z" />
    <glyph glyph-name="Adieresis" unicode="&#xc4;" horiz-adv-x="628" 
d="M152 26l-5 -26h-193l5 26l55 6q11 1 17 3.5t11.5 12.5t16.5 33l299 599h63l89 -599q5 -34 9 -40.5t18 -8.5l54 -6l-4 -26h-240l5 26l56 6q17 2 19.5 8.5t-2.5 40.5l-18 128h-244l-64 -128q-17 -34 -17 -40.5t16 -8.5zM179 241h223l-50 348zM307 796q-21 0 -33.5 12.5
t-12.5 32.5q0 23 16 40t41 17q22 0 34 -12t12 -32q0 -23 -15.5 -40.5t-41.5 -17.5zM509 796q-20 0 -33 12.5t-13 32.5q0 23 16 40t41 17q22 0 34.5 -12t12.5 -32q0 -23 -15.5 -40.5t-42.5 -17.5z" />
    <glyph glyph-name="Agrave" unicode="&#xc0;" horiz-adv-x="628" 
d="M152 26l-5 -26h-193l5 26l55 6q11 1 17 3.5t11.5 12.5t16.5 33l299 599h63l89 -599q5 -34 9 -40.5t18 -8.5l54 -6l-4 -26h-240l5 26l56 6q17 2 19.5 8.5t-2.5 40.5l-18 128h-244l-64 -128q-17 -34 -17 -40.5t16 -8.5zM179 241h223l-50 348zM405 764q-38 39 -65 77t-49 84
h91q5 -47 16 -78t30 -66z" />
    <glyph glyph-name="Amacron" unicode="&#x100;" horiz-adv-x="628" 
d="M152 26l-5 -26h-193l5 26l55 6q11 1 17 3.5t11.5 12.5t16.5 33l299 599h63l89 -599q5 -34 9 -40.5t18 -8.5l54 -6l-4 -26h-240l5 26l56 6q17 2 19.5 8.5t-2.5 40.5l-18 128h-244l-64 -128q-17 -34 -17 -40.5t16 -8.5zM179 241h223l-50 348zM562 851l-8 -47h-287l8 47h287
z" />
    <glyph glyph-name="Aogonek" unicode="&#x104;" horiz-adv-x="628" 
d="M548 -125q-25 -54 -59.5 -76t-74.5 -22q-45 0 -74.5 21.5t-29.5 63.5q0 47 36.5 86.5t88.5 60.5l-29 200h-243l-64 -128q-17 -34 -17 -40.5t16 -8.5l54 -6l-5 -26h-193l5 26l55 6q11 1 17 3.5t11.5 12t16.5 33.5l299 599h63l89 -599q4 -24 6.5 -33.5t7 -12t13.5 -3.5
l54 -6l-4 -26h-64q-47 0 -80.5 -20.5t-51 -53t-17.5 -67.5q0 -52 42 -52q23 0 44.5 18t37.5 63zM179 241h223l-50 348z" />
    <glyph glyph-name="Aring" unicode="&#xc5;" horiz-adv-x="628" 
d="M152 26l-5 -26h-193l5 26l55 6q11 1 17 3.5t11.5 12.5t16.5 33l289 580q-37 12 -54 44t-11 66l2 11q8 42 41.5 71t86.5 29q41 0 67 -17t36.5 -43.5t5.5 -55.5l-2 -11q-6 -34 -31 -61.5t-65 -35.5l86 -577q5 -34 9 -40.5t18 -8.5l54 -6l-4 -26h-240l5 26l56 6
q17 2 19.5 8.5t-2.5 40.5l-18 128h-244l-64 -128q-17 -34 -17 -40.5t16 -8.5zM389 680q58 0 70 75l5 25q6 37 -7 57t-42 20q-56 0 -70 -76l-4 -25q-7 -36 6.5 -56t41.5 -20zM179 241h223l-50 348z" />
    <glyph glyph-name="Atilde" unicode="&#xc3;" horiz-adv-x="628" 
d="M152 26l-5 -26h-193l5 26l55 6q11 1 17 3.5t11.5 12.5t16.5 33l299 599h63l89 -599q5 -34 9 -40.5t18 -8.5l54 -6l-4 -26h-240l5 26l56 6q17 2 19.5 8.5t-2.5 40.5l-18 128h-244l-64 -128q-17 -34 -17 -40.5t16 -8.5zM179 241h223l-50 348zM482 774q-25 0 -43 13.5
t-32.5 31t-28.5 31t-31 13.5t-32 -18.5t-25 -59.5h-31q14 74 40 106.5t59 32.5q26 0 43.5 -13.5t31.5 -31t27.5 -31t30.5 -13.5t31.5 19t24.5 59h32q-14 -75 -39.5 -107t-57.5 -32z" />
    <glyph glyph-name="AE" unicode="&#xc6;" horiz-adv-x="888" 
d="M395 653l5 27h499l-29 -163h-25l-11 105q-1 17 -7.5 21.5t-41.5 4.5h-194l-51 -289h134q24 0 34.5 1.5t15 7t9.5 17.5l32 75h25l-41 -234h-25l-7 75q-1 18 -7.5 22t-41.5 4h-134l-52 -295h204q24 0 34.5 1.5t15 7t9.5 17.5l47 105h26l-29 -163h-477l4 26l57 6
q16 2 20 8.5t10 40.5l23 128h-222l-91 -128q-24 -34 -26 -40.5t14 -8.5l54 -6l-4 -26h-197l5 26l55 6q11 1 17 3.5t14.5 12.5t24.5 33l367 518q25 34 26.5 40.5t-14.5 8.5zM227 241h204l68 385z" />
    <glyph glyph-name="B" unicode="B" horiz-adv-x="605" 
d="M119 653l5 27h268q65 0 105.5 -22.5t57 -60t8.5 -83.5l-4 -28q-9 -52 -44 -87.5t-94 -49.5q65 -14 95 -57t20 -104l-5 -27q-11 -73 -68.5 -117t-155.5 -44h-303l5 26l56 6q17 2 21 8.5t10 40.5l91 518q6 35 4 41t-17 8zM391 648h-109l-50 -286h108q104 0 125 116l7 41
q12 63 -9 96t-72 33zM360 330h-134l-52 -298h133q108 0 131 124l7 41q12 64 -10 98.5t-75 34.5z" />
    <glyph glyph-name="C" unicode="C" horiz-adv-x="586" 
d="M297 -10q-83 0 -135.5 40.5t-71.5 114t-4 170.5l11 67q23 143 99.5 225.5t196.5 82.5q74 0 120 -30.5t62 -78.5t-1 -101l-90 -21q27 96 3 147.5t-95 51.5t-121 -53t-70 -173l-28 -167q-21 -127 11 -185t116 -58q48 0 91 29t65 105l62 -21q-36 -79 -94.5 -112t-126.5 -33z
" />
    <glyph glyph-name="Cacute" unicode="&#x106;" horiz-adv-x="586" 
d="M297 -10q-83 0 -135.5 40.5t-71.5 114t-4 170.5l11 67q23 143 99.5 225.5t196.5 82.5q74 0 120 -30.5t62 -78.5t-1 -101l-90 -21q27 96 3 147.5t-95 51.5t-121 -53t-70 -173l-28 -167q-21 -127 11 -185t116 -58q48 0 91 29t65 105l62 -21q-36 -79 -94.5 -112t-126.5 -33z
M407 764l-19 22q29 32 49.5 62.5t39.5 76.5h101q-38 -46 -78.5 -84t-92.5 -77z" />
    <glyph glyph-name="Ccaron" unicode="&#x10c;" horiz-adv-x="586" 
d="M297 -10q-83 0 -135.5 40.5t-71.5 114t-4 170.5l11 67q23 143 99.5 225.5t196.5 82.5q74 0 120 -30.5t62 -78.5t-1 -101l-90 -21q27 96 3 147.5t-95 51.5t-121 -53t-70 -173l-28 -167q-21 -127 11 -185t116 -58q48 0 91 29t65 105l62 -21q-36 -79 -94.5 -112t-126.5 -33z
M565 908q-28 -26 -47 -45.5t-36 -40.5t-39 -53h-66q-10 32 -19.5 53.5t-22 41.5t-31.5 46l18 19q29 -25 53.5 -49.5t43.5 -49.5q29 25 60.5 49.5t68.5 49.5z" />
    <glyph glyph-name="Ccedilla" unicode="&#xc7;" horiz-adv-x="586" 
d="M375 -133q0 -40 -34.5 -65t-84.5 -25q-40 0 -70 18t-31 60l51 14q-2 -35 9.5 -49.5t35.5 -14.5q27 0 43 19t16 45q0 22 -10 33.5t-39 11.5q-5 0 -12 -1t-12 -2l-5 26l32 55q-107 12 -153.5 99.5t-24.5 223.5l11 67q23 143 99.5 225.5t196.5 82.5q74 0 120 -30.5t62 -78.5
t-1 -101l-90 -21q27 96 3 147.5t-95 51.5t-121 -53t-70 -173l-28 -167q-21 -127 11 -185t116 -58q48 0 91 29t65 105l62 -21q-36 -79 -94 -112t-126 -33l-28 -48q50 0 77.5 -21t27.5 -54z" />
    <glyph glyph-name="Ccircumflex" unicode="&#x108;" horiz-adv-x="586" 
d="M297 -10q-83 0 -135.5 40.5t-71.5 114t-4 170.5l11 67q23 143 99.5 225.5t196.5 82.5q74 0 120 -30.5t62 -78.5t-1 -101l-90 -21q27 96 3 147.5t-95 51.5t-121 -53t-70 -173l-28 -167q-21 -127 11 -185t116 -58q48 0 91 29t65 105l62 -21q-36 -79 -94.5 -112t-126.5 -33z
M542 783l-18 -19q-29 26 -53 50.5t-44 48.5q-28 -24 -60 -48.5l-69 -50.5l-17 21q29 27 47.5 46t35.5 40.5t39 53.5h66q11 -32 20 -54t21.5 -41.5t31.5 -46.5z" />
    <glyph glyph-name="Cdotaccent" unicode="&#x10a;" horiz-adv-x="586" 
d="M297 -10q-83 0 -135.5 40.5t-71.5 114t-4 170.5l11 67q23 143 99.5 225.5t196.5 82.5q74 0 120 -30.5t62 -78.5t-1 -101l-90 -21q27 96 3 147.5t-95 51.5t-121 -53t-70 -173l-28 -167q-21 -127 11 -185t116 -58q48 0 91 29t65 105l62 -21q-36 -79 -94.5 -112t-126.5 -33z
M417 793q-22 0 -35.5 13t-13.5 35q0 25 16.5 42.5t43.5 17.5q23 0 36.5 -12.5t13.5 -34.5q0 -25 -16.5 -43t-44.5 -18z" />
    <glyph glyph-name="D" unicode="D" horiz-adv-x="659" 
d="M119 653l5 27h262q88 0 142 -41.5t74 -112.5t4 -160l-12 -65q-16 -91 -56 -158.5t-102 -105t-144 -37.5h-288l5 26l56 6q17 2 21 8.5t10 40.5l91 518q6 35 4 41t-17 8zM387 648h-105l-108 -616h117q80 0 130.5 56t69.5 165l29 165q19 110 -13.5 170t-119.5 60z" />
    <glyph glyph-name="Eth" unicode="&#xd0;" horiz-adv-x="663" 
d="M123 653l5 27h262q88 0 142 -41.5t73.5 -112.5t3.5 -160l-11 -65q-16 -91 -56 -158.5t-102 -105t-144 -37.5h-288l4 26l56 6q17 2 21 8.5t10 40.5l46 257h-77l5 32h77l41 229q6 35 4 41t-17 8zM385 338h-153l-54 -306h117q79 0 130 56t70 165l28 165q19 110 -13 170
t-120 60h-104l-49 -278h153z" />
    <glyph glyph-name="Dcaron" unicode="&#x10e;" horiz-adv-x="659" 
d="M119 653l5 27h262q88 0 142 -41.5t74 -112.5t4 -160l-12 -65q-16 -91 -56 -158.5t-102 -105t-144 -37.5h-288l5 26l56 6q17 2 21 8.5t10 40.5l91 518q6 35 4 41t-17 8zM387 648h-105l-108 -616h117q80 0 130.5 56t69.5 165l29 165q19 110 -13.5 170t-119.5 60zM566 908
q-28 -26 -47 -45.5t-36 -40.5t-39 -53h-66q-10 32 -19.5 53.5t-22 41.5t-31.5 46l18 19q29 -25 53.5 -49.5t43.5 -49.5q29 25 60.5 49.5t68.5 49.5z" />
    <glyph glyph-name="Dcroat" unicode="&#x110;" horiz-adv-x="663" 
d="M123 653l5 27h262q88 0 142 -41.5t73.5 -112.5t3.5 -160l-11 -65q-16 -91 -56 -158.5t-102 -105t-144 -37.5h-288l4 26l56 6q17 2 21 8.5t10 40.5l46 257h-77l5 32h77l41 229q6 35 4 41t-17 8zM385 338h-153l-54 -306h117q79 0 130 56t70 165l28 165q19 110 -13 170
t-120 60h-104l-49 -278h153z" />
    <glyph glyph-name="E" unicode="E" horiz-adv-x="580" 
d="M512 163l-29 -163h-479l5 26l56 6q11 1 16 3.5t8 12t7 33.5l91 518q6 35 4 41t-17 8l-55 5l5 27h467l-29 -163h-26l-10 105q-1 12 -3.5 17.5t-12 7t-33.5 1.5h-194l-51 -289h134q24 0 34 1.5t15 7t10 17.5l32 75h25l-41 -234h-25l-6 75q-1 18 -8 22t-42 4h-134l-52 -295
h206q24 0 34 1.5t15 7t10 17.5l47 105h26z" />
    <glyph glyph-name="Eacute" unicode="&#xc9;" horiz-adv-x="580" 
d="M512 163l-29 -163h-479l5 26l56 6q11 1 16 3.5t8 12t7 33.5l91 518q6 35 4 41t-17 8l-55 5l5 27h467l-29 -163h-26l-10 105q-1 12 -3.5 17.5t-12 7t-33.5 1.5h-194l-51 -289h134q24 0 34 1.5t15 7t10 17.5l32 75h25l-41 -234h-25l-6 75q-1 18 -8 22t-42 4h-134l-52 -295
h206q24 0 34 1.5t15 7t10 17.5l47 105h26zM393 764l-19 22q29 32 49.5 62.5t39.5 76.5h101q-38 -46 -78.5 -84t-92.5 -77z" />
    <glyph glyph-name="Ebreve" unicode="&#x114;" horiz-adv-x="580" 
d="M512 163l-29 -163h-479l5 26l56 6q11 1 16 3.5t8 12t7 33.5l91 518q6 35 4 41t-17 8l-55 5l5 27h467l-29 -163h-26l-10 105q-1 12 -3.5 17.5t-12 7t-33.5 1.5h-194l-51 -289h134q24 0 34 1.5t15 7t10 17.5l32 75h25l-41 -234h-25l-6 75q-1 18 -8 22t-42 4h-134l-52 -295
h206q24 0 34 1.5t15 7t10 17.5l47 105h26zM405 828q47 0 77.5 23.5t51.5 75.5l29 -9q-27 -82 -66 -118t-95 -36q-60 0 -90 39t-33 115l29 9q6 -52 28.5 -75.5t68.5 -23.5z" />
    <glyph glyph-name="Ecaron" unicode="&#x11a;" horiz-adv-x="580" 
d="M512 163l-29 -163h-479l5 26l56 6q11 1 16 3.5t8 12t7 33.5l91 518q6 35 4 41t-17 8l-55 5l5 27h467l-29 -163h-26l-10 105q-1 12 -3.5 17.5t-12 7t-33.5 1.5h-194l-51 -289h134q24 0 34 1.5t15 7t10 17.5l32 75h25l-41 -234h-25l-6 75q-1 18 -8 22t-42 4h-134l-52 -295
h206q24 0 34 1.5t15 7t10 17.5l47 105h26zM550 908q-28 -26 -47 -45.5t-36 -40.5t-39 -53h-66q-10 32 -19.5 53.5t-22 41.5t-31.5 46l18 19q29 -25 53.5 -49.5t43.5 -49.5q29 25 60.5 49.5t68.5 49.5z" />
    <glyph glyph-name="Ecircumflex" unicode="&#xca;" horiz-adv-x="580" 
d="M512 163l-29 -163h-479l5 26l56 6q11 1 16 3.5t8 12t7 33.5l91 518q6 35 4 41t-17 8l-55 5l5 27h467l-29 -163h-26l-10 105q-1 12 -3.5 17.5t-12 7t-33.5 1.5h-194l-51 -289h134q24 0 34 1.5t15 7t10 17.5l32 75h25l-41 -234h-25l-6 75q-1 18 -8 22t-42 4h-134l-52 -295
h206q24 0 34 1.5t15 7t10 17.5l47 105h26zM529 783l-18 -19q-29 26 -53 50.5t-44 48.5q-28 -24 -60 -48.5l-69 -50.5l-17 21q29 27 47.5 46t35.5 40.5t39 53.5h66q11 -32 20 -54t21.5 -41.5t31.5 -46.5z" />
    <glyph glyph-name="Edieresis" unicode="&#xcb;" horiz-adv-x="580" 
d="M512 163l-29 -163h-479l5 26l56 6q11 1 16 3.5t8 12t7 33.5l91 518q6 35 4 41t-17 8l-55 5l5 27h467l-29 -163h-26l-10 105q-1 12 -3.5 17.5t-12 7t-33.5 1.5h-194l-51 -289h134q24 0 34 1.5t15 7t10 17.5l32 75h25l-41 -234h-25l-6 75q-1 18 -8 22t-42 4h-134l-52 -295
h206q24 0 34 1.5t15 7t10 17.5l47 105h26zM302 796q-21 0 -33.5 12.5t-12.5 32.5q0 23 16 40t41 17q22 0 34 -12t12 -32q0 -23 -15.5 -40.5t-41.5 -17.5zM504 796q-20 0 -33 12.5t-13 32.5q0 23 16 40t41 17q22 0 34.5 -12t12.5 -32q0 -23 -15.5 -40.5t-42.5 -17.5z" />
    <glyph glyph-name="Edotaccent" unicode="&#x116;" horiz-adv-x="580" 
d="M512 163l-29 -163h-479l5 26l56 6q11 1 16 3.5t8 12t7 33.5l91 518q6 35 4 41t-17 8l-55 5l5 27h467l-29 -163h-26l-10 105q-1 12 -3.5 17.5t-12 7t-33.5 1.5h-194l-51 -289h134q24 0 34 1.5t15 7t10 17.5l32 75h25l-41 -234h-25l-6 75q-1 18 -8 22t-42 4h-134l-52 -295
h206q24 0 34 1.5t15 7t10 17.5l47 105h26zM403 793q-22 0 -35.5 13t-13.5 35q0 25 16.5 42.5t43.5 17.5q23 0 36.5 -12.5t13.5 -34.5q0 -25 -16.5 -43t-44.5 -18z" />
    <glyph glyph-name="Egrave" unicode="&#xc8;" horiz-adv-x="580" 
d="M512 163l-29 -163h-479l5 26l56 6q11 1 16 3.5t8 12t7 33.5l91 518q6 35 4 41t-17 8l-55 5l5 27h467l-29 -163h-26l-10 105q-1 12 -3.5 17.5t-12 7t-33.5 1.5h-194l-51 -289h134q24 0 34 1.5t15 7t10 17.5l32 75h25l-41 -234h-25l-6 75q-1 18 -8 22t-42 4h-134l-52 -295
h206q24 0 34 1.5t15 7t10 17.5l47 105h26zM395 764q-38 39 -65 77t-49 84h91q5 -47 16 -78t30 -66z" />
    <glyph glyph-name="Emacron" unicode="&#x112;" horiz-adv-x="580" 
d="M512 163l-29 -163h-479l5 26l56 6q11 1 16 3.5t8 12t7 33.5l91 518q6 35 4 41t-17 8l-55 5l5 27h467l-29 -163h-26l-10 105q-1 12 -3.5 17.5t-12 7t-33.5 1.5h-194l-51 -289h134q24 0 34 1.5t15 7t10 17.5l32 75h25l-41 -234h-25l-6 75q-1 18 -8 22t-42 4h-134l-52 -295
h206q24 0 34 1.5t15 7t10 17.5l47 105h26zM553 851l-8 -47h-287l8 47h287z" />
    <glyph glyph-name="Eogonek" unicode="&#x118;" horiz-adv-x="580" 
d="M461 -125q-25 -54 -59.5 -76t-74.5 -22q-45 0 -74.5 21.5t-29.5 63.5q0 44 35.5 81t84.5 57h-339l5 26l56 6q11 1 16 3.5t8 12t7 33.5l91 518q6 35 4 41t-17 8l-55 5l5 27h467l-29 -163h-26l-10 105q-1 12 -3.5 17.5t-12 7t-33.5 1.5h-194l-51 -289h134q24 0 34 1.5t15 7
t10 17.5l32 75h25l-41 -234h-25l-6 75q-1 18 -8 22t-42 4h-134l-52 -295h206q24 0 34 1.5t15 7t10 17.5l47 105h26l-29 -163h-47q-47 0 -80.5 -20.5t-51 -53t-17.5 -67.5q0 -52 41 -52q24 0 45.5 18t37.5 63z" />
    <glyph glyph-name="F" unicode="F" horiz-adv-x="543" 
d="M270 26l-5 -26h-261l5 26l56 6q11 1 15.5 3.5t7.5 12t7 33.5l92 518q6 35 4 41t-18 8l-54 5l5 27h457l-28 -163h-27l-10 105q-2 17 -8.5 21.5t-41.5 4.5h-184l-53 -298h125q24 0 34 1.5t14.5 7t9.5 17.5l33 75h26l-41 -234h-26l-6 75q-1 18 -8 22t-42 4h-124l-42 -237
q-6 -35 -4 -41.5t18 -7.5z" />
    <glyph glyph-name="G" unicode="G" horiz-adv-x="649" 
d="M484 12q-13 27 -34 44q-63 -66 -160 -66q-80 0 -131 40.5t-69.5 114t-3.5 170.5l11 67q23 143 102 225.5t202 82.5q77 0 124.5 -30t64 -78t0.5 -102l-90 -21q27 97 1.5 148t-102.5 51q-73 0 -125.5 -53t-72.5 -173l-28 -167q-21 -127 10.5 -185t110.5 -58q41 0 81.5 16.5
t66.5 59.5l23 129q7 35 5 41.5t-18 7.5l-74 5l4 27h255l-4 -27l-56 -5q-16 -2 -20.5 -8.5t-10.5 -40.5l-38 -215h-24z" />
    <glyph glyph-name="Gbreve" unicode="&#x11e;" horiz-adv-x="649" 
d="M484 12q-13 27 -34 44q-63 -66 -160 -66q-80 0 -131 40.5t-69.5 114t-3.5 170.5l11 67q23 143 102 225.5t202 82.5q77 0 124.5 -30t64 -78t0.5 -102l-90 -21q27 97 1.5 148t-102.5 51q-73 0 -125.5 -53t-72.5 -173l-28 -167q-21 -127 10.5 -185t110.5 -58q41 0 81.5 16.5
t66.5 59.5l23 129q7 35 5 41.5t-18 7.5l-74 5l4 27h255l-4 -27l-56 -5q-16 -2 -20.5 -8.5t-10.5 -40.5l-38 -215h-24zM430 828q47 0 77.5 23.5t51.5 75.5l29 -9q-27 -82 -66 -118t-95 -36q-60 0 -90 39t-33 115l29 9q6 -52 28.5 -75.5t68.5 -23.5z" />
    <glyph glyph-name="Gcircumflex" unicode="&#x11c;" horiz-adv-x="649" 
d="M484 12q-13 27 -34 44q-63 -66 -160 -66q-80 0 -131 40.5t-69.5 114t-3.5 170.5l11 67q23 143 102 225.5t202 82.5q77 0 124.5 -30t64 -78t0.5 -102l-90 -21q27 97 1.5 148t-102.5 51q-73 0 -125.5 -53t-72.5 -173l-28 -167q-21 -127 10.5 -185t110.5 -58q41 0 81.5 16.5
t66.5 59.5l23 129q7 35 5 41.5t-18 7.5l-74 5l4 27h255l-4 -27l-56 -5q-16 -2 -20.5 -8.5t-10.5 -40.5l-38 -215h-24zM553 783l-18 -19q-29 26 -53 50.5t-44 48.5q-28 -24 -60 -48.5l-69 -50.5l-17 21q29 27 47.5 46t35.5 40.5t39 53.5h66q11 -32 20 -54t21.5 -41.5
t31.5 -46.5z" />
    <glyph glyph-name="uni0122" unicode="&#x122;" horiz-adv-x="649" 
d="M484 12q-13 27 -34 44q-63 -66 -160 -66q-80 0 -131 40.5t-69.5 114t-3.5 170.5l11 67q23 143 102 225.5t202 82.5q77 0 124.5 -30t64 -78t0.5 -102l-90 -21q27 97 1.5 148t-102.5 51q-73 0 -125.5 -53t-72.5 -173l-28 -167q-21 -127 10.5 -185t110.5 -58q41 0 81.5 16.5
t66.5 59.5l23 129q7 35 5 41.5t-18 7.5l-74 5l4 27h255l-4 -27l-56 -5q-16 -2 -20.5 -8.5t-10.5 -40.5l-38 -215h-24zM193 -242l-18 16q23 35 37.5 69t24.5 80h88q-26 -49 -57 -87t-75 -78z" />
    <glyph glyph-name="Gdotaccent" unicode="&#x120;" horiz-adv-x="649" 
d="M484 12q-13 27 -34 44q-63 -66 -160 -66q-80 0 -131 40.5t-69.5 114t-3.5 170.5l11 67q23 143 102 225.5t202 82.5q77 0 124.5 -30t64 -78t0.5 -102l-90 -21q27 97 1.5 148t-102.5 51q-73 0 -125.5 -53t-72.5 -173l-28 -167q-21 -127 10.5 -185t110.5 -58q41 0 81.5 16.5
t66.5 59.5l23 129q7 35 5 41.5t-18 7.5l-74 5l4 27h255l-4 -27l-56 -5q-16 -2 -20.5 -8.5t-10.5 -40.5l-38 -215h-24zM428 793q-22 0 -35.5 13t-13.5 35q0 25 16.5 42.5t43.5 17.5q23 0 36.5 -12.5t13.5 -34.5q0 -25 -16.5 -43t-44.5 -18z" />
    <glyph glyph-name="H" unicode="H" horiz-adv-x="726" 
d="M250 26l-5 -26h-241l5 26l56 6q11 1 15.5 3.5t7.5 12t7 33.5l92 518q6 35 4 41t-18 8l-54 5l5 27h241l-5 -27l-56 -5q-10 -1 -15 -4t-8 -12.5t-7 -32.5l-43 -240h302l43 240q6 35 4 41t-18 8l-54 5l5 27h241l-5 -27l-56 -5q-10 -1 -15 -4t-8 -12.5t-7 -32.5l-92 -518
q-6 -35 -4 -41t18 -8l54 -6l-5 -26h-241l5 26l56 6q11 1 15.5 3.5t7.5 12t7 33.5l44 246h-302l-44 -246q-6 -35 -4 -41t18 -8z" />
    <glyph glyph-name="Hbar" unicode="&#x126;" horiz-adv-x="734" 
d="M253 26l-5 -26h-241l5 26l56 6q11 1 15.5 3.5t7.5 12t7 33.5l73 412h-76l5 31h77l13 75q6 35 4 41t-18 8l-54 5l5 27h241l-5 -27l-56 -5q-10 -1 -15 -4t-8 -12.5t-7 -32.5l-13 -75h302l13 75q6 35 4 41t-18 8l-54 5l5 27h241l-5 -27l-56 -5q-10 -1 -15 -4t-8 -12.5
t-7 -32.5l-13 -75h77l-5 -31h-78l-73 -412q-6 -35 -4 -41t18 -8l54 -6l-5 -26h-241l5 26l56 6q11 1 15.5 3.5t7.5 12t7 33.5l44 246h-302l-44 -246q-6 -35 -4 -41t18 -8zM234 359h302l24 134h-302z" />
    <glyph glyph-name="Hcircumflex" unicode="&#x124;" horiz-adv-x="726" 
d="M250 26l-5 -26h-241l5 26l56 6q11 1 15.5 3.5t7.5 12t7 33.5l92 518q6 35 4 41t-18 8l-54 5l5 27h241l-5 -27l-56 -5q-10 -1 -15 -4t-8 -12.5t-7 -32.5l-43 -240h302l43 240q6 35 4 41t-18 8l-54 5l5 27h241l-5 -27l-56 -5q-10 -1 -15 -4t-8 -12.5t-7 -32.5l-92 -518
q-6 -35 -4 -41t18 -8l54 -6l-5 -26h-241l5 26l56 6q11 1 15.5 3.5t7.5 12t7 33.5l44 246h-302l-44 -246q-6 -35 -4 -41t18 -8zM583 783l-18 -19q-29 26 -53 50.5t-44 48.5q-28 -24 -60 -48.5l-69 -50.5l-17 21q29 27 47.5 46t35.5 40.5t39 53.5h66q11 -32 20 -54t21.5 -41.5
t31.5 -46.5z" />
    <glyph glyph-name="I" unicode="I" horiz-adv-x="337" 
d="M119 653l5 27h241l-5 -27l-56 -5q-10 -1 -15 -4t-8 -12.5t-7 -32.5l-92 -518q-6 -35 -4 -41t18 -8l54 -6l-5 -26h-241l5 26l56 6q11 1 15.5 3.5t7.5 12t7 33.5l92 518q6 35 4 41t-18 8z" />
    <glyph glyph-name="IJ" unicode="&#x132;" horiz-adv-x="799" 
d="M119 653l5 27h241l-5 -27l-56 -5q-10 -1 -15 -4t-8 -12.5t-7 -32.5l-92 -518q-6 -35 -4 -41t18 -8l54 -6l-5 -26h-241l5 26l56 6q11 1 15.5 3.5t7.5 12t7 33.5l92 518q6 35 4 41t-18 8zM592 653l5 27h241l-5 -27l-55 -5q-16 -2 -20.5 -8.5t-10.5 -40.5l-71 -405
q-10 -56 -35.5 -102.5t-69 -74t-107.5 -27.5q-37 0 -69 13.5t-50 45t-15 85.5l65 19q-7 -54 1.5 -82t26.5 -38.5t37 -10.5q28 0 52.5 14.5t44.5 50.5t31 103l72 409q6 34 4 40.5t-17 8.5z" />
    <glyph glyph-name="Iacute" unicode="&#xcd;" horiz-adv-x="337" 
d="M119 653l5 27h241l-5 -27l-56 -5q-10 -1 -15 -4t-8 -12.5t-7 -32.5l-92 -518q-6 -35 -4 -41t18 -8l54 -6l-5 -26h-241l5 26l56 6q11 1 15.5 3.5t7.5 12t7 33.5l92 518q6 35 4 41t-18 8zM258 764l-19 22q29 32 49.5 62.5t39.5 76.5h101q-38 -46 -78.5 -84t-92.5 -77z" />
    <glyph glyph-name="Ibreve" unicode="&#x12c;" horiz-adv-x="337" 
d="M119 653l5 27h241l-5 -27l-56 -5q-10 -1 -15 -4t-8 -12.5t-7 -32.5l-92 -518q-6 -35 -4 -41t18 -8l54 -6l-5 -26h-241l5 26l56 6q11 1 15.5 3.5t7.5 12t7 33.5l92 518q6 35 4 41t-18 8zM270 828q47 0 77.5 23.5t51.5 75.5l29 -9q-27 -82 -66 -118t-95 -36q-60 0 -90 39
t-33 115l29 9q6 -52 28.5 -75.5t68.5 -23.5z" />
    <glyph glyph-name="Icircumflex" unicode="&#xce;" horiz-adv-x="337" 
d="M119 653l5 27h241l-5 -27l-56 -5q-10 -1 -15 -4t-8 -12.5t-7 -32.5l-92 -518q-6 -35 -4 -41t18 -8l54 -6l-5 -26h-241l5 26l56 6q11 1 15.5 3.5t7.5 12t7 33.5l92 518q6 35 4 41t-18 8zM393 783l-18 -19q-29 26 -53 50.5t-44 48.5q-28 -24 -60 -48.5l-69 -50.5l-17 21
q29 27 47.5 46t35.5 40.5t39 53.5h66q11 -32 20 -54t21.5 -41.5t31.5 -46.5z" />
    <glyph glyph-name="Idieresis" unicode="&#xcf;" horiz-adv-x="337" 
d="M119 653l5 27h241l-5 -27l-56 -5q-10 -1 -15 -4t-8 -12.5t-7 -32.5l-92 -518q-6 -35 -4 -41t18 -8l54 -6l-5 -26h-241l5 26l56 6q11 1 15.5 3.5t7.5 12t7 33.5l92 518q6 35 4 41t-18 8zM167 796q-21 0 -33.5 12.5t-12.5 32.5q0 23 16 40t41 17q22 0 34 -12t12 -32
q0 -23 -15.5 -40.5t-41.5 -17.5zM369 796q-20 0 -33 12.5t-13 32.5q0 23 16 40t41 17q22 0 34.5 -12t12.5 -32q0 -23 -15.5 -40.5t-42.5 -17.5z" />
    <glyph glyph-name="Idotaccent" unicode="&#x130;" horiz-adv-x="337" 
d="M119 653l5 27h241l-5 -27l-56 -5q-10 -1 -15 -4t-8 -12.5t-7 -32.5l-92 -518q-6 -35 -4 -41t18 -8l54 -6l-5 -26h-241l5 26l56 6q11 1 15.5 3.5t7.5 12t7 33.5l92 518q6 35 4 41t-18 8zM268 793q-22 0 -35.5 13t-13.5 35q0 25 16.5 42.5t43.5 17.5q23 0 36.5 -12.5
t13.5 -34.5q0 -25 -16.5 -43t-44.5 -18z" />
    <glyph glyph-name="Igrave" unicode="&#xcc;" horiz-adv-x="337" 
d="M119 653l5 27h241l-5 -27l-56 -5q-10 -1 -15 -4t-8 -12.5t-7 -32.5l-92 -518q-6 -35 -4 -41t18 -8l54 -6l-5 -26h-241l5 26l56 6q11 1 15.5 3.5t7.5 12t7 33.5l92 518q6 35 4 41t-18 8zM260 764q-38 39 -65 77t-49 84h91q5 -47 16 -78t30 -66z" />
    <glyph glyph-name="Imacron" unicode="&#x12a;" horiz-adv-x="337" 
d="M119 653l5 27h241l-5 -27l-56 -5q-10 -1 -15 -4t-8 -12.5t-7 -32.5l-92 -518q-6 -35 -4 -41t18 -8l54 -6l-5 -26h-241l5 26l56 6q11 1 15.5 3.5t7.5 12t7 33.5l92 518q6 35 4 41t-18 8zM418 851l-8 -47h-287l8 47h287z" />
    <glyph glyph-name="Iogonek" unicode="&#x12e;" horiz-adv-x="334" 
d="M204 -125q-25 -54 -59.5 -76t-74.5 -22q-45 0 -74.5 21.5t-29.5 63.5q0 44 32.5 81.5t79.5 59.5l105 596q6 35 4 41t-17 8l-55 5l5 27h241l-5 -27l-55 -5q-11 -1 -16 -4t-8 -12.5t-7 -32.5l-91 -518q-6 -35 -4 -41t17 -8l54 -6l-4 -26h-63q-47 0 -80.5 -20.5t-51 -53
t-17.5 -67.5q0 -52 42 -52q23 0 44.5 18t37.5 63z" />
    <glyph glyph-name="Itilde" unicode="&#x128;" horiz-adv-x="337" 
d="M119 653l5 27h241l-5 -27l-56 -5q-10 -1 -15 -4t-8 -12.5t-7 -32.5l-92 -518q-6 -35 -4 -41t18 -8l54 -6l-5 -26h-241l5 26l56 6q11 1 15.5 3.5t7.5 12t7 33.5l92 518q6 35 4 41t-18 8zM337 774q-25 0 -43 13.5t-32.5 31t-28.5 31t-31 13.5t-32 -18.5t-25 -59.5h-31
q14 74 40 106.5t59 32.5q26 0 43.5 -13.5t31.5 -31t27.5 -31t30.5 -13.5t31.5 19t24.5 59h32q-14 -75 -39.5 -107t-57.5 -32z" />
    <glyph glyph-name="J" unicode="J" horiz-adv-x="461" 
d="M255 653l5 27h241l-5 -27l-55 -5q-16 -2 -20.5 -8.5t-10.5 -40.5l-71 -405q-10 -56 -35.5 -102.5t-69 -74t-107.5 -27.5q-37 0 -69 13.5t-50 45t-15 85.5l65 19q-7 -54 1.5 -82t26.5 -38.5t37 -10.5q28 0 52.5 14.5t44.5 50.5t31 103l72 409q6 34 4 40.5t-17 8.5z" />
    <glyph glyph-name="Jcircumflex" unicode="&#x134;" horiz-adv-x="461" 
d="M255 653l5 27h241l-5 -27l-55 -5q-16 -2 -20.5 -8.5t-10.5 -40.5l-71 -405q-10 -56 -35.5 -102.5t-69 -74t-107.5 -27.5q-37 0 -69 13.5t-50 45t-15 85.5l65 19q-7 -54 1.5 -82t26.5 -38.5t37 -10.5q28 0 52.5 14.5t44.5 50.5t31 103l72 409q6 34 4 40.5t-17 8.5z
M528 783l-18 -19q-29 26 -53 50.5t-44 48.5q-28 -24 -60 -48.5l-69 -50.5l-17 21q29 27 47.5 46t35.5 40.5t39 53.5h66q11 -32 20 -54t21.5 -41.5t31.5 -46.5z" />
    <glyph glyph-name="K" unicode="K" horiz-adv-x="644" 
d="M250 26l-5 -26h-241l5 26l56 6q17 2 21 8.5t10 40.5l91 518q6 35 4 41.5t-17 7.5l-54 6l4 26h241l-4 -26l-56 -6q-16 -1 -20.5 -7.5t-10.5 -41.5l-49 -279l290 285q29 29 30.5 35.5t-13.5 7.5l-50 6l4 26h196l-4 -26l-53 -6q-10 -1 -16.5 -3.5t-15.5 -11l-29 -28.5
l-191 -188l133 -336q10 -24 15.5 -33.5t11 -12t15.5 -3.5l47 -6l-5 -26h-150l-133 352l-92 -91l-32 -180q-6 -34 -4 -40.5t17 -8.5z" />
    <glyph glyph-name="uni0136" unicode="&#x136;" horiz-adv-x="644" 
d="M250 26l-5 -26h-241l5 26l56 6q17 2 21 8.5t10 40.5l91 518q6 35 4 41.5t-17 7.5l-54 6l4 26h241l-4 -26l-56 -6q-16 -1 -20.5 -7.5t-10.5 -41.5l-49 -279l290 285q29 29 30.5 35.5t-13.5 7.5l-50 6l4 26h196l-4 -26l-53 -6q-10 -1 -16.5 -3.5t-15.5 -11l-29 -28.5
l-191 -188l133 -336q10 -24 15.5 -33.5t11 -12t15.5 -3.5l47 -6l-5 -26h-150l-133 352l-92 -91l-32 -180q-6 -34 -4 -40.5t17 -8.5zM197 -242l-18 16q23 35 37.5 69t24.5 80h88q-26 -49 -57 -87t-75 -78z" />
    <glyph glyph-name="L" unicode="L" horiz-adv-x="515" 
d="M488 165l-29 -165h-455l5 26l56 6q11 1 15.5 3.5t7.5 12t7 33.5l92 518q6 35 4 41t-18 8l-54 5l5 27h241l-5 -27l-56 -5q-10 -1 -15 -4t-8 -12.5t-7 -32.5l-100 -567h181q24 0 34 1.5t15 7t10 17.5l48 107h26z" />
    <glyph glyph-name="Lacute" unicode="&#x139;" horiz-adv-x="515" 
d="M488 165l-29 -165h-455l5 26l56 6q11 1 15.5 3.5t7.5 12t7 33.5l92 518q6 35 4 41t-18 8l-54 5l5 27h241l-5 -27l-56 -5q-10 -1 -15 -4t-8 -12.5t-7 -32.5l-100 -567h181q24 0 34 1.5t15 7t10 17.5l48 107h26zM266 764l-19 22q29 32 49.5 62.5t39.5 76.5h101
q-38 -46 -78.5 -84t-92.5 -77z" />
    <glyph glyph-name="Lcaron" unicode="&#x13d;" horiz-adv-x="515" 
d="M488 165l-29 -165h-455l5 26l56 6q11 1 15.5 3.5t7.5 12t7 33.5l92 518q6 35 4 41t-18 8l-54 5l5 27h241l-5 -27l-56 -5q-10 -1 -15 -4t-8 -12.5t-7 -32.5l-100 -567h181q24 0 34 1.5t15 7t10 17.5l48 107h26zM418 466h-21l37 214h82q-22 -54 -45.5 -106t-52.5 -108z" />
    <glyph glyph-name="uni013B" unicode="&#x13b;" horiz-adv-x="515" 
d="M488 165l-29 -165h-455l5 26l56 6q11 1 15.5 3.5t7.5 12t7 33.5l92 518q6 35 4 41t-18 8l-54 5l5 27h241l-5 -27l-56 -5q-10 -1 -15 -4t-8 -12.5t-7 -32.5l-100 -567h181q24 0 34 1.5t15 7t10 17.5l48 107h26zM157 -242l-18 16q23 35 37.5 69t24.5 80h88q-26 -49 -57 -87
t-75 -78z" />
    <glyph glyph-name="Ldot" unicode="&#x13f;" horiz-adv-x="515" 
d="M488 165l-29 -165h-455l5 26l56 6q11 1 15.5 3.5t7.5 12t7 33.5l92 518q6 35 4 41t-18 8l-54 5l5 27h241l-5 -27l-56 -5q-10 -1 -15 -4t-8 -12.5t-7 -32.5l-100 -567h181q24 0 34 1.5t15 7t10 17.5l48 107h26zM443 330q-22 0 -35.5 13t-13.5 35q0 25 16.5 42.5t43.5 17.5
q23 0 36.5 -12.5t13.5 -34.5q0 -25 -16.5 -43t-44.5 -18z" />
    <glyph glyph-name="Lslash" unicode="&#x141;" horiz-adv-x="518" 
d="M490 163l-28 -163h-455l5 26l56 6q11 1 15.5 3.5t7.5 12t7 33.5l38 215l-84 -39l-10 32l101 47l47 263q6 35 4 41t-18 8l-54 5l5 27h241l-5 -27l-56 -5q-10 -1 -15 -4t-8 -12.5t-7 -32.5l-39 -219l142 66l10 -32l-159 -74l-54 -308h181q24 0 34 1.5t15 7t10 17.5l47 105
h26z" />
    <glyph glyph-name="M" unicode="M" horiz-adv-x="860" 
d="M303 680l109 -523l292 523h184l-5 -27l-56 -5q-16 -2 -20.5 -8.5t-10.5 -40.5l-91 -518q-6 -34 -4 -40.5t17 -8.5l54 -6l-4 -26h-241l4 26l56 6q16 2 20.5 8.5t10.5 40.5l96 544l-305 -545h-68l-114 548l-94 -547q-6 -34 -4 -40.5t17 -8.5l54 -6l-5 -26h-191l5 26l56 6
q14 2 19.5 8.5t11.5 40.5l91 518q6 34 4 40.5t-17 8.5l-55 5l5 27h179z" />
    <glyph glyph-name="N" unicode="N" horiz-adv-x="691" 
d="M119 653l5 27h167l228 -534l81 453q6 34 4 40.5t-17 8.5l-55 5l5 27h191l-5 -27l-55 -5q-16 -2 -20.5 -8.5t-10.5 -40.5l-106 -599h-40l-264 613l-94 -532q-6 -34 -4 -40.5t17 -8.5l54 -6l-5 -26h-191l5 26l56 6q17 2 21 8.5t10 40.5l91 518q6 34 4 40.5t-17 8.5z" />
    <glyph glyph-name="Nacute" unicode="&#x143;" horiz-adv-x="691" 
d="M119 653l5 27h167l228 -534l81 453q6 34 4 40.5t-17 8.5l-55 5l5 27h191l-5 -27l-55 -5q-16 -2 -20.5 -8.5t-10.5 -40.5l-106 -599h-40l-264 613l-94 -532q-6 -34 -4 -40.5t17 -8.5l54 -6l-5 -26h-191l5 26l56 6q17 2 21 8.5t10 40.5l91 518q6 34 4 40.5t-17 8.5z
M443 764l-19 22q29 32 49.5 62.5t39.5 76.5h101q-38 -46 -78.5 -84t-92.5 -77z" />
    <glyph glyph-name="Ncaron" unicode="&#x147;" horiz-adv-x="691" 
d="M119 653l5 27h167l228 -534l81 453q6 34 4 40.5t-17 8.5l-55 5l5 27h191l-5 -27l-55 -5q-16 -2 -20.5 -8.5t-10.5 -40.5l-106 -599h-40l-264 613l-94 -532q-6 -34 -4 -40.5t17 -8.5l54 -6l-5 -26h-191l5 26l56 6q17 2 21 8.5t10 40.5l91 518q6 34 4 40.5t-17 8.5z
M600 908q-28 -26 -47 -45.5t-36 -40.5t-39 -53h-66q-10 32 -19.5 53.5t-22 41.5t-31.5 46l18 19q29 -25 53.5 -49.5t43.5 -49.5q29 25 60.5 49.5t68.5 49.5z" />
    <glyph glyph-name="uni0145" unicode="&#x145;" horiz-adv-x="691" 
d="M119 653l5 27h167l228 -534l81 453q6 34 4 40.5t-17 8.5l-55 5l5 27h191l-5 -27l-55 -5q-16 -2 -20.5 -8.5t-10.5 -40.5l-106 -599h-40l-264 613l-94 -532q-6 -34 -4 -40.5t17 -8.5l54 -6l-5 -26h-191l5 26l56 6q17 2 21 8.5t10 40.5l91 518q6 34 4 40.5t-17 8.5z
M203 -242l-18 16q23 35 37.5 69t24.5 80h88q-26 -49 -57 -87t-75 -78z" />
    <glyph glyph-name="Eng" unicode="&#x14a;" horiz-adv-x="691" 
d="M119 653l5 27h167l228 -534l81 453q6 34 4 40.5t-17 8.5l-55 5l5 27h191l-5 -27l-55 -5q-16 -2 -20.5 -8.5t-10.5 -40.5l-109 -618q-10 -56 -34.5 -102.5t-66.5 -74t-105 -27.5q-32 0 -62 13t-47.5 43.5t-12.5 82.5l62 17q-9 -51 -0.5 -77.5t25 -36.5t33.5 -10
q27 0 50.5 14.5t42 51t29.5 103.5l17 96l-232 539l-94 -532q-6 -34 -4 -40.5t17 -8.5l54 -6l-5 -26h-191l5 26l56 6q17 2 21 8.5t10 40.5l91 518q6 34 4 40.5t-17 8.5z" />
    <glyph glyph-name="Ntilde" unicode="&#xd1;" horiz-adv-x="691" 
d="M119 653l5 27h167l228 -534l81 453q6 34 4 40.5t-17 8.5l-55 5l5 27h191l-5 -27l-55 -5q-16 -2 -20.5 -8.5t-10.5 -40.5l-106 -599h-40l-264 613l-94 -532q-6 -34 -4 -40.5t17 -8.5l54 -6l-5 -26h-191l5 26l56 6q17 2 21 8.5t10 40.5l91 518q6 34 4 40.5t-17 8.5z
M522 774q-25 0 -43 13.5t-32.5 31t-28.5 31t-31 13.5t-32 -18.5t-25 -59.5h-31q14 74 40 106.5t59 32.5q26 0 43.5 -13.5t31.5 -31t27.5 -31t30.5 -13.5t31.5 19t24.5 59h32q-14 -75 -39.5 -107t-57.5 -32z" />
    <glyph glyph-name="O" unicode="O" horiz-adv-x="666" 
d="M614 366l-12 -65q-16 -94 -56 -164t-102 -108.5t-143 -38.5q-87 0 -140.5 42.5t-72.5 116.5t-3 166l11 65q17 93 57 163t101.5 108.5t142.5 38.5q87 0 140.5 -43t73 -116.5t3.5 -164.5zM528 418q20 114 -12.5 177t-118.5 63q-78 0 -127.5 -58.5t-69.5 -171.5l-29 -165
q-20 -115 12.5 -178t117.5 -63q79 0 129 59t69 172z" />
    <glyph glyph-name="Oacute" unicode="&#xd3;" horiz-adv-x="666" 
d="M614 366l-12 -65q-16 -94 -56 -164t-102 -108.5t-143 -38.5q-87 0 -140.5 42.5t-72.5 116.5t-3 166l11 65q17 93 57 163t101.5 108.5t142.5 38.5q87 0 140.5 -43t73 -116.5t3.5 -164.5zM528 418q20 114 -12.5 177t-118.5 63q-78 0 -127.5 -58.5t-69.5 -171.5l-29 -165
q-20 -115 12.5 -178t117.5 -63q79 0 129 59t69 172zM421 764l-19 22q29 32 49.5 62.5t39.5 76.5h101q-38 -46 -78.5 -84t-92.5 -77z" />
    <glyph glyph-name="Obreve" unicode="&#x14e;" horiz-adv-x="666" 
d="M614 366l-12 -65q-16 -94 -56 -164t-102 -108.5t-143 -38.5q-87 0 -140.5 42.5t-72.5 116.5t-3 166l11 65q17 93 57 163t101.5 108.5t142.5 38.5q87 0 140.5 -43t73 -116.5t3.5 -164.5zM528 418q20 114 -12.5 177t-118.5 63q-78 0 -127.5 -58.5t-69.5 -171.5l-29 -165
q-20 -115 12.5 -178t117.5 -63q79 0 129 59t69 172zM433 828q47 0 77.5 23.5t51.5 75.5l29 -9q-27 -82 -66 -118t-95 -36q-60 0 -90 39t-33 115l29 9q6 -52 28.5 -75.5t68.5 -23.5z" />
    <glyph glyph-name="Ocircumflex" unicode="&#xd4;" horiz-adv-x="666" 
d="M614 366l-12 -65q-16 -94 -56 -164t-102 -108.5t-143 -38.5q-87 0 -140.5 42.5t-72.5 116.5t-3 166l11 65q17 93 57 163t101.5 108.5t142.5 38.5q87 0 140.5 -43t73 -116.5t3.5 -164.5zM528 418q20 114 -12.5 177t-118.5 63q-78 0 -127.5 -58.5t-69.5 -171.5l-29 -165
q-20 -115 12.5 -178t117.5 -63q79 0 129 59t69 172zM556 783l-18 -19q-29 26 -53 50.5t-44 48.5q-28 -24 -60 -48.5l-69 -50.5l-17 21q29 27 47.5 46t35.5 40.5t39 53.5h66q11 -32 20 -54t21.5 -41.5t31.5 -46.5z" />
    <glyph glyph-name="Odieresis" unicode="&#xd6;" horiz-adv-x="666" 
d="M614 366l-12 -65q-16 -94 -56 -164t-102 -108.5t-143 -38.5q-87 0 -140.5 42.5t-72.5 116.5t-3 166l11 65q17 93 57 163t101.5 108.5t142.5 38.5q87 0 140.5 -43t73 -116.5t3.5 -164.5zM528 418q20 114 -12.5 177t-118.5 63q-78 0 -127.5 -58.5t-69.5 -171.5l-29 -165
q-20 -115 12.5 -178t117.5 -63q79 0 129 59t69 172zM330 796q-21 0 -33.5 12.5t-12.5 32.5q0 23 16 40t41 17q22 0 34 -12t12 -32q0 -23 -15.5 -40.5t-41.5 -17.5zM532 796q-20 0 -33 12.5t-13 32.5q0 23 16 40t41 17q22 0 34.5 -12t12.5 -32q0 -23 -15.5 -40.5t-42.5 -17.5
z" />
    <glyph glyph-name="Ograve" unicode="&#xd2;" horiz-adv-x="666" 
d="M614 366l-12 -65q-16 -94 -56 -164t-102 -108.5t-143 -38.5q-87 0 -140.5 42.5t-72.5 116.5t-3 166l11 65q17 93 57 163t101.5 108.5t142.5 38.5q87 0 140.5 -43t73 -116.5t3.5 -164.5zM528 418q20 114 -12.5 177t-118.5 63q-78 0 -127.5 -58.5t-69.5 -171.5l-29 -165
q-20 -115 12.5 -178t117.5 -63q79 0 129 59t69 172zM423 764q-38 39 -65 77t-49 84h91q5 -47 16 -78t30 -66z" />
    <glyph glyph-name="Ohungarumlaut" unicode="&#x150;" horiz-adv-x="666" 
d="M614 366l-12 -65q-16 -94 -56 -164t-102 -108.5t-143 -38.5q-87 0 -140.5 42.5t-72.5 116.5t-3 166l11 65q17 93 57 163t101.5 108.5t142.5 38.5q87 0 140.5 -43t73 -116.5t3.5 -164.5zM528 418q20 114 -12.5 177t-118.5 63q-78 0 -127.5 -58.5t-69.5 -171.5l-29 -165
q-20 -115 12.5 -178t117.5 -63q79 0 129 59t69 172zM350 764l-19 17q23 31 40.5 64.5t33.5 79.5h91q-63 -88 -146 -161zM490 764l-19 17q23 31 40.5 64.5t34.5 79.5h91q-64 -89 -147 -161z" />
    <glyph glyph-name="Omacron" unicode="&#x14c;" horiz-adv-x="666" 
d="M614 366l-12 -65q-16 -94 -56 -164t-102 -108.5t-143 -38.5q-87 0 -140.5 42.5t-72.5 116.5t-3 166l11 65q17 93 57 163t101.5 108.5t142.5 38.5q87 0 140.5 -43t73 -116.5t3.5 -164.5zM528 418q20 114 -12.5 177t-118.5 63q-78 0 -127.5 -58.5t-69.5 -171.5l-29 -165
q-20 -115 12.5 -178t117.5 -63q79 0 129 59t69 172zM581 851l-8 -47h-287l8 47h287z" />
    <glyph glyph-name="Oslash" unicode="&#xd8;" horiz-adv-x="666" 
d="M602 301q-16 -94 -56.5 -164t-102 -108.5t-142.5 -38.5q-57 0 -99.5 19t-70.5 53l-54 -62h-47l80 92q-24 44 -30 100.5t5 122.5l11 65q17 93 57 163t101.5 108.5t142.5 38.5q57 0 99.5 -19t70.5 -53l54 62h47l-80 -92q49 -89 26 -222zM171 263q-5 -31 -6.5 -58t-0.5 -50
l361 415q-28 88 -128 88q-78 0 -127.5 -58.5t-69.5 -171.5zM528 418q11 62 6 108l-361 -416q28 -88 128 -88q79 0 129 59t69 172z" />
    <glyph glyph-name="Otilde" unicode="&#xd5;" horiz-adv-x="666" 
d="M614 366l-12 -65q-16 -94 -56 -164t-102 -108.5t-143 -38.5q-87 0 -140.5 42.5t-72.5 116.5t-3 166l11 65q17 93 57 163t101.5 108.5t142.5 38.5q87 0 140.5 -43t73 -116.5t3.5 -164.5zM528 418q20 114 -12.5 177t-118.5 63q-78 0 -127.5 -58.5t-69.5 -171.5l-29 -165
q-20 -115 12.5 -178t117.5 -63q79 0 129 59t69 172zM500 774q-25 0 -43 13.5t-32.5 31t-28.5 31t-31 13.5t-32 -18.5t-25 -59.5h-31q14 74 40 106.5t59 32.5q26 0 43.5 -13.5t31.5 -31t27.5 -31t30.5 -13.5t31.5 19t24.5 59h32q-14 -75 -39.5 -107t-57.5 -32z" />
    <glyph glyph-name="OE" unicode="&#x152;" horiz-adv-x="901" 
d="M96 379q16 91 56 158.5t102.5 105t143.5 37.5h514l-29 -163h-25l-11 105q-1 17 -7.5 21.5t-41.5 4.5h-194l-51 -289h134q24 0 34.5 1.5t15 7t9.5 17.5l30 75h27l-41 -234h-25l-7 75q-1 18 -7.5 22t-41.5 4h-134l-52 -295h204q24 0 34.5 1.5t15 7t9.5 17.5l47 105h26
l-29 -163h-498q-88 0 -142 41.5t-73 113t-4 159.5zM304 32h104l108 616h-116q-79 0 -130 -56.5t-71 -164.5l-28 -165q-19 -110 13.5 -170t119.5 -60z" />
    <glyph glyph-name="P" unicode="P" horiz-adv-x="574" 
d="M119 653l5 27h279q65 0 107 -25t60 -67.5t8 -96.5l-5 -29q-14 -82 -70.5 -128t-158.5 -46h-125l-36 -207q-6 -35 -4.5 -41.5t17.5 -7.5l74 -6l-5 -26h-261l5 26l56 6q17 2 21 8.5t10 40.5l91 518q6 35 4 41t-17 8zM402 648h-120l-57 -328h119q113 0 135 130l10 57
q23 141 -87 141z" />
    <glyph glyph-name="Thorn" unicode="&#xde;" horiz-adv-x="574" 
d="M270 26l-5 -26h-261l5 26l56 6q11 1 15.5 3.5t7.5 12t7 33.5l92 518q6 35 4 41t-18 8l-54 5l5 27h261l-5 -27l-76 -5q-16 -1 -20 -7.5t-10 -41.5l-11 -61h115q65 0 107.5 -25t60 -67.5t8.5 -96.5l-5 -29q-15 -82 -71 -128t-158 -46h-126l-12 -65q-6 -35 -4 -41.5t18 -7.5
zM378 506h-121l-58 -328h121q54 0 88.5 32.5t45.5 97.5l10 57q24 141 -86 141z" />
    <glyph glyph-name="Q" unicode="Q" horiz-adv-x="668" 
d="M503 -98l-3 -89q-72 0 -128.5 41t-75.5 136q-85 2 -137.5 45t-70.5 116t-2 164l11 65q17 93 56.5 163t101 108.5t142.5 38.5q87 0 141 -43t73.5 -116.5t3.5 -164.5l-12 -65q-23 -133 -92.5 -216t-179.5 -94q14 -52 53.5 -70.5t118.5 -18.5zM529 418q20 114 -12.5 177
t-118.5 63q-78 0 -128 -58.5t-70 -171.5l-28 -165q-20 -115 12.5 -178t117.5 -63q79 0 129 59t69 172z" />
    <glyph glyph-name="R" unicode="R" horiz-adv-x="625" 
d="M119 653l5 27h271q67 0 109.5 -23.5t60.5 -63.5t9 -91l-5 -30q-11 -64 -51.5 -103.5t-105.5 -53.5l86 -234q9 -24 13.5 -33.5t9.5 -12t15 -3.5l44 -6l-4 -26h-146l-105 308h-102l-40 -227q-6 -34 -4 -40.5t17 -8.5l54 -6l-5 -26h-241l5 26l56 6q17 2 21 8.5t10 40.5
l91 518q6 34 4 40.5t-17 8.5zM397 648h-115l-54 -308h114q51 0 88 33.5t47 94.5l6 38q12 69 -12 105.5t-74 36.5z" />
    <glyph glyph-name="Racute" unicode="&#x154;" horiz-adv-x="625" 
d="M119 653l5 27h271q67 0 109.5 -23.5t60.5 -63.5t9 -91l-5 -30q-11 -64 -51.5 -103.5t-105.5 -53.5l86 -234q9 -24 13.5 -33.5t9.5 -12t15 -3.5l44 -6l-4 -26h-146l-105 308h-102l-40 -227q-6 -34 -4 -40.5t17 -8.5l54 -6l-5 -26h-241l5 26l56 6q17 2 21 8.5t10 40.5
l91 518q6 34 4 40.5t-17 8.5zM397 648h-115l-54 -308h114q51 0 88 33.5t47 94.5l6 38q12 69 -12 105.5t-74 36.5zM394 764l-19 22q29 32 49.5 62.5t39.5 76.5h101q-38 -46 -78.5 -84t-92.5 -77z" />
    <glyph glyph-name="Rcaron" unicode="&#x158;" horiz-adv-x="625" 
d="M119 653l5 27h271q67 0 109.5 -23.5t60.5 -63.5t9 -91l-5 -30q-11 -64 -51.5 -103.5t-105.5 -53.5l86 -234q9 -24 13.5 -33.5t9.5 -12t15 -3.5l44 -6l-4 -26h-146l-105 308h-102l-40 -227q-6 -34 -4 -40.5t17 -8.5l54 -6l-5 -26h-241l5 26l56 6q17 2 21 8.5t10 40.5
l91 518q6 34 4 40.5t-17 8.5zM397 648h-115l-54 -308h114q51 0 88 33.5t47 94.5l6 38q12 69 -12 105.5t-74 36.5zM551 908q-28 -26 -47 -45.5t-36 -40.5t-39 -53h-66q-10 32 -19.5 53.5t-22 41.5t-31.5 46l18 19q29 -25 53.5 -49.5t43.5 -49.5q29 25 60.5 49.5t68.5 49.5z
" />
    <glyph glyph-name="uni0156" unicode="&#x156;" horiz-adv-x="625" 
d="M119 653l5 27h271q67 0 109.5 -23.5t60.5 -63.5t9 -91l-5 -30q-11 -64 -51.5 -103.5t-105.5 -53.5l86 -234q9 -24 13.5 -33.5t9.5 -12t15 -3.5l44 -6l-4 -26h-146l-105 308h-102l-40 -227q-6 -34 -4 -40.5t17 -8.5l54 -6l-5 -26h-241l5 26l56 6q17 2 21 8.5t10 40.5
l91 518q6 34 4 40.5t-17 8.5zM397 648h-115l-54 -308h114q51 0 88 33.5t47 94.5l6 38q12 69 -12 105.5t-74 36.5zM202 -242l-18 16q23 35 37.5 69t24.5 80h88q-26 -49 -57 -87t-75 -78z" />
    <glyph glyph-name="S" unicode="S" horiz-adv-x="548" 
d="M239 -10q-53 0 -100 16t-76.5 56t-30.5 110l63 20q-3 -67 16 -104t53 -51.5t76 -14.5q82 0 124.5 37.5t42.5 101.5q0 46 -24.5 76t-83.5 54l-74 29q-60 24 -92.5 67t-32.5 107q0 53 24.5 97.5t74.5 71.5t126 27q62 0 103.5 -18.5t64.5 -49t28 -67t-7 -72.5l-87 -18
q28 91 2 142t-108 51q-65 0 -104 -33.5t-39 -100.5q0 -45 22.5 -75.5t80.5 -53.5l74 -30q63 -25 97 -65.5t34 -102.5q0 -53 -26.5 -100.5t-81.5 -77t-139 -29.5z" />
    <glyph glyph-name="Sacute" unicode="&#x15a;" horiz-adv-x="548" 
d="M239 -10q-53 0 -100 16t-76.5 56t-30.5 110l63 20q-3 -67 16 -104t53 -51.5t76 -14.5q82 0 124.5 37.5t42.5 101.5q0 46 -24.5 76t-83.5 54l-74 29q-60 24 -92.5 67t-32.5 107q0 53 24.5 97.5t74.5 71.5t126 27q62 0 103.5 -18.5t64.5 -49t28 -67t-7 -72.5l-87 -18
q28 91 2 142t-108 51q-65 0 -104 -33.5t-39 -100.5q0 -45 22.5 -75.5t80.5 -53.5l74 -30q63 -25 97 -65.5t34 -102.5q0 -53 -26.5 -100.5t-81.5 -77t-139 -29.5zM351 764l-19 22q29 32 49.5 62.5t39.5 76.5h101q-38 -46 -78.5 -84t-92.5 -77z" />
    <glyph glyph-name="Scaron" unicode="&#x160;" horiz-adv-x="548" 
d="M239 -10q-53 0 -100 16t-76.5 56t-30.5 110l63 20q-3 -67 16 -104t53 -51.5t76 -14.5q82 0 124.5 37.5t42.5 101.5q0 46 -24.5 76t-83.5 54l-74 29q-60 24 -92.5 67t-32.5 107q0 53 24.5 97.5t74.5 71.5t126 27q62 0 103.5 -18.5t64.5 -49t28 -67t-7 -72.5l-87 -18
q28 91 2 142t-108 51q-65 0 -104 -33.5t-39 -100.5q0 -45 22.5 -75.5t80.5 -53.5l74 -30q63 -25 97 -65.5t34 -102.5q0 -53 -26.5 -100.5t-81.5 -77t-139 -29.5zM508 908q-28 -26 -47 -45.5t-36 -40.5t-39 -53h-66q-10 32 -19.5 53.5t-22 41.5t-31.5 46l18 19
q29 -25 53.5 -49.5t43.5 -49.5q29 25 60.5 49.5t68.5 49.5z" />
    <glyph glyph-name="Scedilla" unicode="&#x15e;" horiz-adv-x="548" 
d="M301 -133q0 -40 -34.5 -65t-84.5 -25q-40 0 -70 18t-31 60l51 14q-2 -35 9.5 -49.5t35.5 -14.5q27 0 43 19t16 45q0 22 -10 33.5t-39 11.5q-5 0 -12 -1t-12 -2l-5 26l33 56q-43 6 -78.5 25.5t-57.5 57t-23 96.5l63 20q-3 -67 16 -104t53 -51.5t76 -14.5q82 0 124.5 37.5
t42.5 101.5q0 46 -24.5 76t-83.5 54l-74 29q-60 24 -92.5 67t-32.5 107q0 53 24.5 97.5t74.5 71.5t126 27q62 0 103.5 -18.5t64.5 -49t28 -67t-7 -72.5l-87 -18q28 91 2 142t-108 51q-65 0 -104 -33.5t-39 -100.5q0 -45 22.5 -75.5t80.5 -53.5l74 -30q63 -25 97 -65.5
t34 -102.5q0 -53 -26.5 -100.5t-81.5 -77t-139 -29.5h-15l-28 -48q50 0 77.5 -21t27.5 -54z" />
    <glyph glyph-name="Scircumflex" unicode="&#x15c;" horiz-adv-x="548" 
d="M239 -10q-53 0 -100 16t-76.5 56t-30.5 110l63 20q-3 -67 16 -104t53 -51.5t76 -14.5q82 0 124.5 37.5t42.5 101.5q0 46 -24.5 76t-83.5 54l-74 29q-60 24 -92.5 67t-32.5 107q0 53 24.5 97.5t74.5 71.5t126 27q62 0 103.5 -18.5t64.5 -49t28 -67t-7 -72.5l-87 -18
q28 91 2 142t-108 51q-65 0 -104 -33.5t-39 -100.5q0 -45 22.5 -75.5t80.5 -53.5l74 -30q63 -25 97 -65.5t34 -102.5q0 -53 -26.5 -100.5t-81.5 -77t-139 -29.5zM486 783l-18 -19q-29 26 -53 50.5t-44 48.5q-28 -24 -60 -48.5l-69 -50.5l-17 21q29 27 47.5 46t35.5 40.5
t39 53.5h66q11 -32 20 -54t21.5 -41.5t31.5 -46.5z" />
    <glyph glyph-name="uni1E9E" unicode="&#x1e9e;" horiz-adv-x="654" 
d="M592 154q-13 -78 -69.5 -121t-136.5 -43q-40 0 -73.5 13.5t-52.5 41.5t-18 70l61 17q-2 -45 9 -69t30 -33t41 -9q47 0 77.5 36t40.5 100l6 38q12 74 -19.5 119.5t-122.5 45.5h-8l4 26l169 218q-42 54 -121 54q-67 0 -109.5 -39.5t-57.5 -127.5l-87 -491h-163l5 26l55 6
q11 1 15.5 3.5t7.5 12t7 33.5l71 400q18 100 78.5 154.5t178.5 54.5q68 0 122 -23.5t84 -58.5l-3 -19l-162 -208q80 -21 117.5 -78t25.5 -133z" />
    <glyph glyph-name="T" unicode="T" horiz-adv-x="559" 
d="M60 517l29 163h532l-28 -163h-27l-10 105q-1 18 -7.5 22t-41.5 4h-114l-100 -567q-6 -35 -4 -41t17 -8l54 -6l-4 -26h-241l4 26l56 6q11 1 16 3.5t8 12t7 33.5l100 567h-114q-23 0 -33.5 -1.5t-15 -7t-9.5 -17.5l-48 -105h-26z" />
    <glyph glyph-name="Tbar" unicode="&#x166;" horiz-adv-x="559" 
d="M360 26l-4 -26h-241l4 26l56 6q11 1 16 3.5t8 12t7 33.5l43 242h-144l5 32h144l52 293h-114q-23 0 -33.5 -1.5t-15 -7t-9.5 -17.5l-48 -105h-26l29 163h532l-28 -163h-27l-10 105q-1 18 -7.5 22t-41.5 4h-114l-52 -293h144l-5 -32h-144l-43 -242q-6 -35 -4 -41t17 -8z
" />
    <glyph glyph-name="Tcaron" unicode="&#x164;" horiz-adv-x="559" 
d="M60 517l29 163h532l-28 -163h-27l-10 105q-1 18 -7.5 22t-41.5 4h-114l-100 -567q-6 -35 -4 -41t17 -8l54 -6l-4 -26h-241l4 26l56 6q11 1 16 3.5t8 12t7 33.5l100 567h-114q-23 0 -33.5 -1.5t-15 -7t-9.5 -17.5l-48 -105h-26zM524 908q-28 -26 -47 -45.5t-36 -40.5
t-39 -53h-66q-10 32 -19.5 53.5t-22 41.5t-31.5 46l18 19q29 -25 53.5 -49.5t43.5 -49.5q29 25 60.5 49.5t68.5 49.5z" />
    <glyph glyph-name="U" unicode="U" horiz-adv-x="677" 
d="M524 653l5 27h191l-5 -27l-55 -5q-15 -2 -20 -8.5t-11 -40.5l-65 -369q-19 -112 -80 -176t-169 -64q-118 0 -172 69t-33 187l62 353q6 34 4 40.5t-17 8.5l-55 5l5 27h241l-5 -27l-55 -5q-15 -2 -20 -8.5t-11 -40.5l-65 -369q-19 -106 12 -157t114 -51q86 0 137.5 53.5
t69.5 154.5l65 369q6 34 4 40.5t-17 8.5z" />
    <glyph glyph-name="Uacute" unicode="&#xda;" horiz-adv-x="677" 
d="M524 653l5 27h191l-5 -27l-55 -5q-15 -2 -20 -8.5t-11 -40.5l-65 -369q-19 -112 -80 -176t-169 -64q-118 0 -172 69t-33 187l62 353q6 34 4 40.5t-17 8.5l-55 5l5 27h241l-5 -27l-55 -5q-15 -2 -20 -8.5t-11 -40.5l-65 -369q-19 -106 12 -157t114 -51q86 0 137.5 53.5
t69.5 154.5l65 369q6 34 4 40.5t-17 8.5zM447 764l-19 22q29 32 49.5 62.5t39.5 76.5h101q-38 -46 -78.5 -84t-92.5 -77z" />
    <glyph glyph-name="Ubreve" unicode="&#x16c;" horiz-adv-x="677" 
d="M524 653l5 27h191l-5 -27l-55 -5q-15 -2 -20 -8.5t-11 -40.5l-65 -369q-19 -112 -80 -176t-169 -64q-118 0 -172 69t-33 187l62 353q6 34 4 40.5t-17 8.5l-55 5l5 27h241l-5 -27l-55 -5q-15 -2 -20 -8.5t-11 -40.5l-65 -369q-19 -106 12 -157t114 -51q86 0 137.5 53.5
t69.5 154.5l65 369q6 34 4 40.5t-17 8.5zM459 828q47 0 77.5 23.5t51.5 75.5l29 -9q-27 -82 -66 -118t-95 -36q-60 0 -90 39t-33 115l29 9q6 -52 28.5 -75.5t68.5 -23.5z" />
    <glyph glyph-name="Ucircumflex" unicode="&#xdb;" horiz-adv-x="677" 
d="M524 653l5 27h191l-5 -27l-55 -5q-15 -2 -20 -8.5t-11 -40.5l-65 -369q-19 -112 -80 -176t-169 -64q-118 0 -172 69t-33 187l62 353q6 34 4 40.5t-17 8.5l-55 5l5 27h241l-5 -27l-55 -5q-15 -2 -20 -8.5t-11 -40.5l-65 -369q-19 -106 12 -157t114 -51q86 0 137.5 53.5
t69.5 154.5l65 369q6 34 4 40.5t-17 8.5zM583 783l-18 -19q-29 26 -53 50.5t-44 48.5q-28 -24 -60 -48.5l-69 -50.5l-17 21q29 27 47.5 46t35.5 40.5t39 53.5h66q11 -32 20 -54t21.5 -41.5t31.5 -46.5z" />
    <glyph glyph-name="Udieresis" unicode="&#xdc;" horiz-adv-x="677" 
d="M524 653l5 27h191l-5 -27l-55 -5q-15 -2 -20 -8.5t-11 -40.5l-65 -369q-19 -112 -80 -176t-169 -64q-118 0 -172 69t-33 187l62 353q6 34 4 40.5t-17 8.5l-55 5l5 27h241l-5 -27l-55 -5q-15 -2 -20 -8.5t-11 -40.5l-65 -369q-19 -106 12 -157t114 -51q86 0 137.5 53.5
t69.5 154.5l65 369q6 34 4 40.5t-17 8.5zM356 796q-21 0 -33.5 12.5t-12.5 32.5q0 23 16 40t41 17q22 0 34 -12t12 -32q0 -23 -15.5 -40.5t-41.5 -17.5zM558 796q-20 0 -33 12.5t-13 32.5q0 23 16 40t41 17q22 0 34.5 -12t12.5 -32q0 -23 -15.5 -40.5t-42.5 -17.5z" />
    <glyph glyph-name="Ugrave" unicode="&#xd9;" horiz-adv-x="677" 
d="M524 653l5 27h191l-5 -27l-55 -5q-15 -2 -20 -8.5t-11 -40.5l-65 -369q-19 -112 -80 -176t-169 -64q-118 0 -172 69t-33 187l62 353q6 34 4 40.5t-17 8.5l-55 5l5 27h241l-5 -27l-55 -5q-15 -2 -20 -8.5t-11 -40.5l-65 -369q-19 -106 12 -157t114 -51q86 0 137.5 53.5
t69.5 154.5l65 369q6 34 4 40.5t-17 8.5zM449 764q-38 39 -65 77t-49 84h91q5 -47 16 -78t30 -66z" />
    <glyph glyph-name="Uhungarumlaut" unicode="&#x170;" horiz-adv-x="677" 
d="M524 653l5 27h191l-5 -27l-55 -5q-15 -2 -20 -8.5t-11 -40.5l-65 -369q-19 -112 -80 -176t-169 -64q-118 0 -172 69t-33 187l62 353q6 34 4 40.5t-17 8.5l-55 5l5 27h241l-5 -27l-55 -5q-15 -2 -20 -8.5t-11 -40.5l-65 -369q-19 -106 12 -157t114 -51q86 0 137.5 53.5
t69.5 154.5l65 369q6 34 4 40.5t-17 8.5zM376 764l-19 17q23 31 40.5 64.5t33.5 79.5h91q-63 -88 -146 -161zM516 764l-19 17q23 31 40.5 64.5t34.5 79.5h91q-64 -89 -147 -161z" />
    <glyph glyph-name="Umacron" unicode="&#x16a;" horiz-adv-x="677" 
d="M524 653l5 27h191l-5 -27l-55 -5q-15 -2 -20 -8.5t-11 -40.5l-65 -369q-19 -112 -80 -176t-169 -64q-118 0 -172 69t-33 187l62 353q6 34 4 40.5t-17 8.5l-55 5l5 27h241l-5 -27l-55 -5q-15 -2 -20 -8.5t-11 -40.5l-65 -369q-19 -106 12 -157t114 -51q86 0 137.5 53.5
t69.5 154.5l65 369q6 34 4 40.5t-17 8.5zM607 851l-8 -47h-287l8 47h287z" />
    <glyph glyph-name="Uogonek" unicode="&#x172;" horiz-adv-x="677" 
d="M474 -125q-25 -54 -59.5 -76t-74.5 -22q-45 0 -74.5 21.5t-29.5 63.5q0 34 18 57t46 40.5t59 33.5q-21 -3 -44 -3q-118 0 -172 69t-33 187l62 353q6 34 4 40.5t-17 8.5l-55 5l5 27h241l-5 -27l-55 -5q-15 -2 -20 -8.5t-11 -40.5l-65 -369q-19 -106 12 -157t114 -51
q86 0 137.5 53.5t69.5 154.5l65 369q6 34 4 40.5t-17 8.5l-55 5l5 27h191l-5 -27l-55 -5q-15 -2 -20 -8.5t-11 -40.5l-65 -369q-10 -61 -33 -108t-59 -79q-28 -24 -58 -43t-56 -38t-42 -43.5t-16 -59.5q0 -52 41 -52q23 0 45 18t38 63z" />
    <glyph glyph-name="Uring" unicode="&#x16e;" horiz-adv-x="677" 
d="M524 653l5 27h191l-5 -27l-55 -5q-15 -2 -20 -8.5t-11 -40.5l-65 -369q-19 -112 -80 -176t-169 -64q-118 0 -172 69t-33 187l62 353q6 34 4 40.5t-17 8.5l-55 5l5 27h241l-5 -27l-55 -5q-15 -2 -20 -8.5t-11 -40.5l-65 -369q-19 -106 12 -157t114 -51q86 0 137.5 53.5
t69.5 154.5l65 369q6 34 4 40.5t-17 8.5zM476 974q41 0 67 -17t36.5 -43.5t5.5 -55.5l-2 -11q-7 -41 -41 -71t-88 -30q-40 0 -65.5 17t-36.5 44t-6 56l2 11q8 42 41.5 71t86.5 29zM452 772q58 0 70 75l5 25q6 37 -7 57t-42 20q-56 0 -70 -76l-4 -25q-7 -36 6.5 -56t41.5 -20
z" />
    <glyph glyph-name="Utilde" unicode="&#x168;" horiz-adv-x="677" 
d="M524 653l5 27h191l-5 -27l-55 -5q-15 -2 -20 -8.5t-11 -40.5l-65 -369q-19 -112 -80 -176t-169 -64q-118 0 -172 69t-33 187l62 353q6 34 4 40.5t-17 8.5l-55 5l5 27h241l-5 -27l-55 -5q-15 -2 -20 -8.5t-11 -40.5l-65 -369q-19 -106 12 -157t114 -51q86 0 137.5 53.5
t69.5 154.5l65 369q6 34 4 40.5t-17 8.5zM526 774q-25 0 -43 13.5t-32.5 31t-28.5 31t-31 13.5t-32 -18.5t-25 -59.5h-31q14 74 40 106.5t59 32.5q26 0 43.5 -13.5t31.5 -31t27.5 -31t30.5 -13.5t31.5 19t24.5 59h32q-14 -75 -39.5 -107t-57.5 -32z" />
    <glyph glyph-name="V" unicode="V" horiz-adv-x="620" 
d="M600 605l-300 -605h-68l-87 605q-4 30 -7.5 35.5t-18.5 7.5l-51 5l5 27h233l-5 -27l-52 -5q-16 -2 -18.5 -8t1.5 -35l74 -516l255 516q15 29 14.5 35t-16.5 8l-51 5l5 27h185l-5 -27l-52 -5q-10 -1 -15.5 -3.5t-10.5 -11t-15 -28.5z" />
    <glyph glyph-name="W" unicode="W" horiz-adv-x="921" 
d="M586 0l-69 573l-269 -573h-65l-40 605q-1 29 -4.5 35t-18.5 8l-51 5l5 27h230l-5 -27l-52 -5q-16 -2 -18.5 -7.5t-1.5 -35.5l32 -500l268 575h62l70 -571l206 496q12 30 11 36t-16 7l-51 5l5 27h186l-5 -27l-52 -5q-10 -1 -15.5 -3.5t-10 -11t-13.5 -28.5l-253 -605h-65z
" />
    <glyph glyph-name="Wacute" unicode="&#x1e82;" horiz-adv-x="921" 
d="M586 0l-69 573l-269 -573h-65l-40 605q-1 29 -4.5 35t-18.5 8l-51 5l5 27h230l-5 -27l-52 -5q-16 -2 -18.5 -7.5t-1.5 -35.5l32 -500l268 575h62l70 -571l206 496q12 30 11 36t-16 7l-51 5l5 27h186l-5 -27l-52 -5q-10 -1 -15.5 -3.5t-10 -11t-13.5 -28.5l-253 -605h-65z
M561 764l-19 22q29 32 49.5 62.5t39.5 76.5h101q-38 -46 -78.5 -84t-92.5 -77z" />
    <glyph glyph-name="Wcircumflex" unicode="&#x174;" horiz-adv-x="921" 
d="M586 0l-69 573l-269 -573h-65l-40 605q-1 29 -4.5 35t-18.5 8l-51 5l5 27h230l-5 -27l-52 -5q-16 -2 -18.5 -7.5t-1.5 -35.5l32 -500l268 575h62l70 -571l206 496q12 30 11 36t-16 7l-51 5l5 27h186l-5 -27l-52 -5q-10 -1 -15.5 -3.5t-10 -11t-13.5 -28.5l-253 -605h-65z
M696 783l-18 -19q-29 26 -53 50.5t-44 48.5q-28 -24 -60 -48.5l-69 -50.5l-17 21q29 27 47.5 46t35.5 40.5t39 53.5h66q11 -32 20 -54t21.5 -41.5t31.5 -46.5z" />
    <glyph glyph-name="Wdieresis" unicode="&#x1e84;" horiz-adv-x="921" 
d="M586 0l-69 573l-269 -573h-65l-40 605q-1 29 -4.5 35t-18.5 8l-51 5l5 27h230l-5 -27l-52 -5q-16 -2 -18.5 -7.5t-1.5 -35.5l32 -500l268 575h62l70 -571l206 496q12 30 11 36t-16 7l-51 5l5 27h186l-5 -27l-52 -5q-10 -1 -15.5 -3.5t-10 -11t-13.5 -28.5l-253 -605h-65z
M470 796q-21 0 -33.5 12.5t-12.5 32.5q0 23 16 40t41 17q22 0 34 -12t12 -32q0 -23 -15.5 -40.5t-41.5 -17.5zM672 796q-20 0 -33 12.5t-13 32.5q0 23 16 40t41 17q22 0 34.5 -12t12.5 -32q0 -23 -15.5 -40.5t-42.5 -17.5z" />
    <glyph glyph-name="Wgrave" unicode="&#x1e80;" horiz-adv-x="921" 
d="M586 0l-69 573l-269 -573h-65l-40 605q-1 29 -4.5 35t-18.5 8l-51 5l5 27h230l-5 -27l-52 -5q-16 -2 -18.5 -7.5t-1.5 -35.5l32 -500l268 575h62l70 -571l206 496q12 30 11 36t-16 7l-51 5l5 27h186l-5 -27l-52 -5q-10 -1 -15.5 -3.5t-10 -11t-13.5 -28.5l-253 -605h-65z
M563 764q-38 39 -65 77t-49 84h91q5 -47 16 -78t30 -66z" />
    <glyph glyph-name="X" unicode="X" horiz-adv-x="598" 
d="M152 26l-4 -26h-190l4 26l52 6q10 1 15.5 3t13.5 11t24 29l206 260l-106 270q-11 30 -16 35.5t-19 7.5l-51 5l5 27h239l-5 -27l-52 -5q-16 -2 -17.5 -8t9.5 -35l81 -208l163 208q23 29 24.5 35t-13.5 8l-51 5l5 27h190l-5 -27l-52 -5q-10 -1 -15.5 -3.5t-13.5 -11
t-24 -28.5l-194 -246l111 -284q11 -30 16 -35.5t19 -7.5l51 -6l-5 -26h-238l5 26l52 6q17 2 18 7.5t-10 35.5l-87 222l-175 -222q-23 -29 -24 -35t14 -8z" />
    <glyph glyph-name="Y" unicode="Y" 
d="M376 26l-5 -26h-241l5 26l56 6q11 1 16 3.5t9 13.5l42 243l-105 313q-10 30 -15.5 35.5t-19.5 7.5l-51 5l5 27h239l-5 -27l-52 -5q-16 -2 -17.5 -8t8.5 -35l88 -273l187 273q20 29 20 35.5t-14 7.5l-51 5l5 27h188l-5 -27l-52 -5q-11 -1 -17 -3.5t-12.5 -11t-20.5 -28.5
l-216 -314l-37 -212l1 2q-6 -35 -4 -41t17 -8z" />
    <glyph glyph-name="Yacute" unicode="&#xdd;" 
d="M376 26l-5 -26h-241l5 26l56 6q11 1 16 3.5t9 13.5l42 243l-105 313q-10 30 -15.5 35.5t-19.5 7.5l-51 5l5 27h239l-5 -27l-52 -5q-16 -2 -17.5 -8t8.5 -35l88 -273l187 273q20 29 20 35.5t-14 7.5l-51 5l5 27h188l-5 -27l-52 -5q-11 -1 -17 -3.5t-12.5 -11t-20.5 -28.5
l-216 -314l-37 -212l1 2q-6 -35 -4 -41t17 -8zM393 764l-19 22q29 32 49.5 62.5t39.5 76.5h101q-38 -46 -78.5 -84t-92.5 -77z" />
    <glyph glyph-name="Ycircumflex" unicode="&#x176;" 
d="M376 26l-5 -26h-241l5 26l56 6q11 1 16 3.5t9 13.5l42 243l-105 313q-10 30 -15.5 35.5t-19.5 7.5l-51 5l5 27h239l-5 -27l-52 -5q-16 -2 -17.5 -8t8.5 -35l88 -273l187 273q20 29 20 35.5t-14 7.5l-51 5l5 27h188l-5 -27l-52 -5q-11 -1 -17 -3.5t-12.5 -11t-20.5 -28.5
l-216 -314l-37 -212l1 2q-6 -35 -4 -41t17 -8zM528 783l-18 -19q-29 26 -53 50.5t-44 48.5q-28 -24 -60 -48.5l-69 -50.5l-17 21q29 27 47.5 46t35.5 40.5t39 53.5h66q11 -32 20 -54t21.5 -41.5t31.5 -46.5z" />
    <glyph glyph-name="Ydieresis" unicode="&#x178;" 
d="M376 26l-5 -26h-241l5 26l56 6q11 1 16 3.5t9 13.5l42 243l-105 313q-10 30 -15.5 35.5t-19.5 7.5l-51 5l5 27h239l-5 -27l-52 -5q-16 -2 -17.5 -8t8.5 -35l88 -273l187 273q20 29 20 35.5t-14 7.5l-51 5l5 27h188l-5 -27l-52 -5q-11 -1 -17 -3.5t-12.5 -11t-20.5 -28.5
l-216 -314l-37 -212l1 2q-6 -35 -4 -41t17 -8zM302 796q-21 0 -33.5 12.5t-12.5 32.5q0 23 16 40t41 17q22 0 34 -12t12 -32q0 -23 -15.5 -40.5t-41.5 -17.5zM504 796q-20 0 -33 12.5t-13 32.5q0 23 16 40t41 17q22 0 34.5 -12t12.5 -32q0 -23 -15.5 -40.5t-42.5 -17.5z" />
    <glyph glyph-name="Ygrave" unicode="&#x1ef2;" 
d="M376 26l-5 -26h-241l5 26l56 6q11 1 16 3.5t9 13.5l42 243l-105 313q-10 30 -15.5 35.5t-19.5 7.5l-51 5l5 27h239l-5 -27l-52 -5q-16 -2 -17.5 -8t8.5 -35l88 -273l187 273q20 29 20 35.5t-14 7.5l-51 5l5 27h188l-5 -27l-52 -5q-11 -1 -17 -3.5t-12.5 -11t-20.5 -28.5
l-216 -314l-37 -212l1 2q-6 -35 -4 -41t17 -8zM395 764q-38 39 -65 77t-49 84h91q5 -47 16 -78t30 -66z" />
    <glyph glyph-name="Z" unicode="Z" horiz-adv-x="531" 
d="M476 163l-28 -163h-452l4 22l447 626h-215q-23 0 -34 -1.5t-15.5 -7t-9.5 -17.5l-48 -105h-26l29 163h430l-5 -22l-447 -626h238q24 0 34 1.5t15 7t10 17.5l47 105h26z" />
    <glyph glyph-name="Zacute" unicode="&#x179;" horiz-adv-x="531" 
d="M476 163l-28 -163h-452l4 22l447 626h-215q-23 0 -34 -1.5t-15.5 -7t-9.5 -17.5l-48 -105h-26l29 163h430l-5 -22l-447 -626h238q24 0 34 1.5t15 7t10 17.5l47 105h26zM345 764l-19 22q29 32 49.5 62.5t39.5 76.5h101q-38 -46 -78.5 -84t-92.5 -77z" />
    <glyph glyph-name="Zcaron" unicode="&#x17d;" horiz-adv-x="531" 
d="M476 163l-28 -163h-452l4 22l447 626h-215q-23 0 -34 -1.5t-15.5 -7t-9.5 -17.5l-48 -105h-26l29 163h430l-5 -22l-447 -626h238q24 0 34 1.5t15 7t10 17.5l47 105h26zM502 908q-28 -26 -47 -45.5t-36 -40.5t-39 -53h-66q-10 32 -19.5 53.5t-22 41.5t-31.5 46l18 19
q29 -25 53.5 -49.5t43.5 -49.5q29 25 60.5 49.5t68.5 49.5z" />
    <glyph glyph-name="Zdotaccent" unicode="&#x17b;" horiz-adv-x="531" 
d="M476 163l-28 -163h-452l4 22l447 626h-215q-23 0 -34 -1.5t-15.5 -7t-9.5 -17.5l-48 -105h-26l29 163h430l-5 -22l-447 -626h238q24 0 34 1.5t15 7t10 17.5l47 105h26zM355 793q-22 0 -35.5 13t-13.5 35q0 25 16.5 42.5t43.5 17.5q23 0 36.5 -12.5t13.5 -34.5
q0 -25 -16.5 -43t-44.5 -18z" />
    <glyph glyph-name="uni0162" unicode="&#x162;" horiz-adv-x="559" 
d="M60 517l29 163h532l-28 -163h-27l-10 105q-1 18 -7.5 22t-41.5 4h-114l-100 -567q-6 -35 -4 -41t17 -8l54 -6l-4 -26h-241l4 26l56 6q11 1 16 3.5t8 12t7 33.5l100 567h-114q-23 0 -33.5 -1.5t-15 -7t-9.5 -17.5l-48 -105h-26zM133 -242l-18 16q23 35 37.5 69t24.5 80h88
q-26 -49 -57 -87t-75 -78z" />
    <glyph glyph-name="uni0218" unicode="&#x218;" horiz-adv-x="548" 
d="M239 -10q-53 0 -100 16t-76.5 56t-30.5 110l63 20q-3 -67 16 -104t53 -51.5t76 -14.5q82 0 124.5 37.5t42.5 101.5q0 46 -24.5 76t-83.5 54l-74 29q-60 24 -92.5 67t-32.5 107q0 53 24.5 97.5t74.5 71.5t126 27q62 0 103.5 -18.5t64.5 -49t28 -67t-7 -72.5l-87 -18
q28 91 2 142t-108 51q-65 0 -104 -33.5t-39 -100.5q0 -45 22.5 -75.5t80.5 -53.5l74 -30q63 -25 97 -65.5t34 -102.5q0 -53 -26.5 -100.5t-81.5 -77t-139 -29.5zM125 -242l-18 16q23 35 37.5 69t24.5 80h88q-26 -49 -57 -87t-75 -78z" />
    <glyph glyph-name="uni021A" unicode="&#x21a;" horiz-adv-x="559" 
d="M60 517l29 163h532l-28 -163h-27l-10 105q-1 18 -7.5 22t-41.5 4h-114l-100 -567q-6 -35 -4 -41t17 -8l54 -6l-4 -26h-241l4 26l56 6q11 1 16 3.5t8 12t7 33.5l100 567h-114q-23 0 -33.5 -1.5t-15 -7t-9.5 -17.5l-48 -105h-26zM133 -242l-18 16q23 35 37.5 69t24.5 80h88
q-26 -49 -57 -87t-75 -78z" />
    <glyph glyph-name="A.alt" horiz-adv-x="715" 
d="M69 430q3 70 32.5 126.5t87.5 90t148 33.5h171l89 -599q4 -24 6.5 -33.5t7 -12t13.5 -3.5l54 -6l-4 -26h-240l4 26l56 6q17 2 19.5 8.5t-2.5 40.5l-18 128h-244l-13 -27q-61 -123 -108.5 -202t-89.5 -123.5t-86 -62t-97 -17.5l14 85q57 0 108.5 29.5t105 100.5t115.5 195
l231 461h-88q-92 0 -140 -62t-56 -177zM265 241h223l-49 348z" />
    <glyph glyph-name="Aacute.alt" horiz-adv-x="715" 
d="M69 430q3 70 32.5 126.5t87.5 90t148 33.5h171l89 -599q4 -24 6.5 -33.5t7 -12t13.5 -3.5l54 -6l-4 -26h-240l4 26l56 6q17 2 19.5 8.5t-2.5 40.5l-18 128h-244l-13 -27q-61 -123 -108.5 -202t-89.5 -123.5t-86 -62t-97 -17.5l14 85q57 0 108.5 29.5t105 100.5t115.5 195
l231 461h-88q-92 0 -140 -62t-56 -177zM265 241h223l-49 348zM482 764l-19 22q29 32 49.5 62.5t39.5 76.5h101q-38 -46 -78.5 -84t-92.5 -77z" />
    <glyph glyph-name="Abreve.alt" horiz-adv-x="715" 
d="M69 430q3 70 32.5 126.5t87.5 90t148 33.5h171l89 -599q4 -24 6.5 -33.5t7 -12t13.5 -3.5l54 -6l-4 -26h-240l4 26l56 6q17 2 19.5 8.5t-2.5 40.5l-18 128h-244l-13 -27q-61 -123 -108.5 -202t-89.5 -123.5t-86 -62t-97 -17.5l14 85q57 0 108.5 29.5t105 100.5t115.5 195
l231 461h-88q-92 0 -140 -62t-56 -177zM265 241h223l-49 348zM494 828q47 0 77.5 23.5t51.5 75.5l29 -9q-27 -82 -66 -118t-95 -36q-60 0 -90 39t-33 115l29 9q6 -52 28.5 -75.5t68.5 -23.5z" />
    <glyph glyph-name="Acircumflex.alt" horiz-adv-x="715" 
d="M69 430q3 70 32.5 126.5t87.5 90t148 33.5h171l89 -599q4 -24 6.5 -33.5t7 -12t13.5 -3.5l54 -6l-4 -26h-240l4 26l56 6q17 2 19.5 8.5t-2.5 40.5l-18 128h-244l-13 -27q-61 -123 -108.5 -202t-89.5 -123.5t-86 -62t-97 -17.5l14 85q57 0 108.5 29.5t105 100.5t115.5 195
l231 461h-88q-92 0 -140 -62t-56 -177zM265 241h223l-49 348zM617 783l-18 -19q-29 26 -53 50.5t-44 48.5q-28 -24 -60 -48.5l-69 -50.5l-17 21q29 27 47.5 46t35.5 40.5t39 53.5h66q11 -32 20 -54t21.5 -41.5t31.5 -46.5z" />
    <glyph glyph-name="Adieresis.alt" horiz-adv-x="715" 
d="M69 430q3 70 32.5 126.5t87.5 90t148 33.5h171l89 -599q4 -24 6.5 -33.5t7 -12t13.5 -3.5l54 -6l-4 -26h-240l4 26l56 6q17 2 19.5 8.5t-2.5 40.5l-18 128h-244l-13 -27q-61 -123 -108.5 -202t-89.5 -123.5t-86 -62t-97 -17.5l14 85q57 0 108.5 29.5t105 100.5t115.5 195
l231 461h-88q-92 0 -140 -62t-56 -177zM265 241h223l-49 348zM386 796q-21 0 -33.5 12.5t-12.5 32.5q0 23 16 40t41 17q22 0 34 -12t12 -32q0 -23 -15.5 -40.5t-41.5 -17.5zM588 796q-20 0 -33 12.5t-13 32.5q0 23 16 40t41 17q22 0 34.5 -12t12.5 -32q0 -23 -15.5 -40.5
t-42.5 -17.5z" />
    <glyph glyph-name="Agrave.alt" horiz-adv-x="715" 
d="M69 430q3 70 32.5 126.5t87.5 90t148 33.5h171l89 -599q4 -24 6.5 -33.5t7 -12t13.5 -3.5l54 -6l-4 -26h-240l4 26l56 6q17 2 19.5 8.5t-2.5 40.5l-18 128h-244l-13 -27q-61 -123 -108.5 -202t-89.5 -123.5t-86 -62t-97 -17.5l14 85q57 0 108.5 29.5t105 100.5t115.5 195
l231 461h-88q-92 0 -140 -62t-56 -177zM265 241h223l-49 348zM484 764q-38 39 -65 77t-49 84h91q5 -47 16 -78t30 -66z" />
    <glyph glyph-name="Amacron.alt" horiz-adv-x="715" 
d="M69 430q3 70 32.5 126.5t87.5 90t148 33.5h171l89 -599q4 -24 6.5 -33.5t7 -12t13.5 -3.5l54 -6l-4 -26h-240l4 26l56 6q17 2 19.5 8.5t-2.5 40.5l-18 128h-244l-13 -27q-61 -123 -108.5 -202t-89.5 -123.5t-86 -62t-97 -17.5l14 85q57 0 108.5 29.5t105 100.5t115.5 195
l231 461h-88q-92 0 -140 -62t-56 -177zM265 241h223l-49 348zM641 851l-8 -47h-287l8 47h287z" />
    <glyph glyph-name="Aogonek.alt" horiz-adv-x="715" 
d="M68 430q3 70 32.5 126.5t87.5 90t148 33.5h171l89 -599q4 -24 6.5 -33.5t7 -12t13.5 -3.5l54 -6l-4 -26h-63q-47 0 -80.5 -20.5t-51 -53t-17.5 -67.5q0 -52 42 -52q23 0 44.5 18t37.5 63l50 -13q-25 -54 -59.5 -76t-74.5 -22q-45 0 -74.5 21.5t-29.5 63.5q0 47 36.5 86.5
t87.5 60.5l-29 200h-243l-13 -27q-61 -123 -109 -202t-90 -123.5t-86 -62t-97 -17.5l15 85q57 0 108 29.5t104.5 100.5t115.5 195l231 461h-88q-91 0 -139 -62t-56 -177zM265 241h223l-50 348z" />
    <glyph glyph-name="Aring.alt" horiz-adv-x="633" 
d="M154 182q-61 -123 -109 -202t-90 -123.5t-86 -62t-97 -17.5l15 85q57 0 108.5 29.5t104.5 100.5t115 195l238 473q-38 13 -55 44.5t-11 66.5l2 11q8 42 41.5 71t86.5 29q41 0 67 -17t36.5 -43.5t5.5 -55.5l-2 -11q-6 -34 -31 -61.5t-65 -35.5l87 -577q5 -35 9 -41t18 -8
l54 -6l-5 -26h-239l4 26l56 6q17 2 19.5 8.5t-2.5 40.5l-18 128h-244zM393 680q58 0 70 75l5 25q6 37 -7 57t-42 20q-56 0 -70 -76l-4 -25q-7 -36 6.5 -56t41.5 -20zM183 241h223l-50 346z" />
    <glyph glyph-name="Atilde.alt" horiz-adv-x="715" 
d="M69 430q3 70 32.5 126.5t87.5 90t148 33.5h171l89 -599q4 -24 6.5 -33.5t7 -12t13.5 -3.5l54 -6l-4 -26h-240l4 26l56 6q17 2 19.5 8.5t-2.5 40.5l-18 128h-244l-13 -27q-61 -123 -108.5 -202t-89.5 -123.5t-86 -62t-97 -17.5l14 85q57 0 108.5 29.5t105 100.5t115.5 195
l231 461h-88q-92 0 -140 -62t-56 -177zM265 241h223l-49 348zM561 774q-25 0 -43 13.5t-32.5 31t-28.5 31t-31 13.5t-32 -18.5t-25 -59.5h-31q14 74 40 106.5t59 32.5q26 0 43.5 -13.5t31.5 -31t27.5 -31t30.5 -13.5t31.5 19t24.5 59h32q-14 -75 -39.5 -107t-57.5 -32z" />
    <glyph glyph-name="B.alt" horiz-adv-x="757" 
d="M48 430q3 70 32.5 126.5t87.5 90t148 33.5h228q65 0 105.5 -22.5t57.5 -60t9 -83.5l-5 -28q-8 -52 -43.5 -87.5t-94.5 -49.5q65 -14 95 -57t20 -104l-4 -27q-12 -73 -69.5 -117t-155.5 -44h-302l4 26l56 6q17 2 21 8.5t10 40.5l100 567h-29q-91 0 -139 -62t-56 -177z
M544 648h-109l-50 -286h107q105 0 126 116l7 41q11 63 -10 96t-71 33zM512 330h-133l-52 -298h132q109 0 132 124l7 41q11 64 -11 98.5t-75 34.5z" />
    <glyph glyph-name="D.alt" horiz-adv-x="812" 
d="M48 430q3 70 32.5 126.5t87.5 90t148 33.5h223q88 0 141.5 -41.5t73.5 -112.5t4 -160l-11 -65q-16 -91 -56 -158.5t-102 -105t-144 -37.5h-288l4 26l56 6q17 2 21 8.5t10 40.5l100 567h-28q-92 0 -140 -62t-56 -177zM539 648h-104l-108 -616h116q80 0 130.5 56t69.5 165
l29 165q19 110 -13.5 170t-119.5 60z" />
    <glyph glyph-name="Dcaron.alt" horiz-adv-x="812" 
d="M48 430q3 70 32.5 126.5t87.5 90t148 33.5h223q88 0 141.5 -41.5t73.5 -112.5t4 -160l-11 -65q-16 -91 -56 -158.5t-102 -105t-144 -37.5h-288l4 26l56 6q17 2 21 8.5t10 40.5l100 567h-28q-92 0 -140 -62t-56 -177zM539 648h-104l-108 -616h116q80 0 130.5 56t69.5 165
l29 165q19 110 -13.5 170t-119.5 60zM720 908q-28 -26 -47 -45.5t-36 -40.5t-39 -53h-66q-10 32 -19.5 53.5t-22 41.5t-31.5 46l18 19q29 -25 53.5 -49.5t43.5 -49.5q29 25 60.5 49.5t68.5 49.5z" />
    <glyph glyph-name="E.alt" horiz-adv-x="732" 
d="M48 430q3 70 32.5 126.5t87.5 90t148 33.5h427l-29 -163h-26l-10 105q-1 17 -7.5 21.5t-41.5 4.5h-194l-51 -289h134q24 0 34.5 1.5t15 7t9.5 17.5l32 75h26l-42 -234h-25l-6 75q-1 18 -7.5 22t-41.5 4h-135l-52 -295h206q24 0 34.5 1.5t15 7t9.5 17.5l47 105h26
l-29 -163h-478l4 26l56 6q11 1 16 3.5t8 12t7 33.5l99 567h-27q-92 0 -140 -62t-56 -177z" />
    <glyph glyph-name="Eacute.alt" horiz-adv-x="732" 
d="M48 430q3 70 32.5 126.5t87.5 90t148 33.5h427l-29 -163h-26l-10 105q-1 17 -7.5 21.5t-41.5 4.5h-194l-51 -289h134q24 0 34.5 1.5t15 7t9.5 17.5l32 75h26l-42 -234h-25l-6 75q-1 18 -7.5 22t-41.5 4h-135l-52 -295h206q24 0 34.5 1.5t15 7t9.5 17.5l47 105h26
l-29 -163h-478l4 26l56 6q11 1 16 3.5t8 12t7 33.5l99 567h-27q-92 0 -140 -62t-56 -177zM551 764l-19 22q29 32 49.5 62.5t39.5 76.5h101q-38 -46 -78.5 -84t-92.5 -77z" />
    <glyph glyph-name="Ebreve.alt" horiz-adv-x="732" 
d="M48 430q3 70 32.5 126.5t87.5 90t148 33.5h427l-29 -163h-26l-10 105q-1 17 -7.5 21.5t-41.5 4.5h-194l-51 -289h134q24 0 34.5 1.5t15 7t9.5 17.5l32 75h26l-42 -234h-25l-6 75q-1 18 -7.5 22t-41.5 4h-135l-52 -295h206q24 0 34.5 1.5t15 7t9.5 17.5l47 105h26
l-29 -163h-478l4 26l56 6q11 1 16 3.5t8 12t7 33.5l99 567h-27q-92 0 -140 -62t-56 -177zM563 828q47 0 77.5 23.5t51.5 75.5l29 -9q-27 -82 -66 -118t-95 -36q-60 0 -90 39t-33 115l29 9q6 -52 28.5 -75.5t68.5 -23.5z" />
    <glyph glyph-name="Ecaron.alt" horiz-adv-x="732" 
d="M48 430q3 70 32.5 126.5t87.5 90t148 33.5h427l-29 -163h-26l-10 105q-1 17 -7.5 21.5t-41.5 4.5h-194l-51 -289h134q24 0 34.5 1.5t15 7t9.5 17.5l32 75h26l-42 -234h-25l-6 75q-1 18 -7.5 22t-41.5 4h-135l-52 -295h206q24 0 34.5 1.5t15 7t9.5 17.5l47 105h26
l-29 -163h-478l4 26l56 6q11 1 16 3.5t8 12t7 33.5l99 567h-27q-92 0 -140 -62t-56 -177zM708 908q-28 -26 -47 -45.5t-36 -40.5t-39 -53h-66q-10 32 -19.5 53.5t-22 41.5t-31.5 46l18 19q29 -25 53.5 -49.5t43.5 -49.5q29 25 60.5 49.5t68.5 49.5z" />
    <glyph glyph-name="Ecircumflex.alt" horiz-adv-x="732" 
d="M48 430q3 70 32.5 126.5t87.5 90t148 33.5h427l-29 -163h-26l-10 105q-1 17 -7.5 21.5t-41.5 4.5h-194l-51 -289h134q24 0 34.5 1.5t15 7t9.5 17.5l32 75h26l-42 -234h-25l-6 75q-1 18 -7.5 22t-41.5 4h-135l-52 -295h206q24 0 34.5 1.5t15 7t9.5 17.5l47 105h26
l-29 -163h-478l4 26l56 6q11 1 16 3.5t8 12t7 33.5l99 567h-27q-92 0 -140 -62t-56 -177zM686 783l-18 -19q-29 26 -53 50.5t-44 48.5q-28 -24 -60 -48.5l-69 -50.5l-17 21q29 27 47.5 46t35.5 40.5t39 53.5h66q11 -32 20 -54t21.5 -41.5t31.5 -46.5z" />
    <glyph glyph-name="Edieresis.alt" horiz-adv-x="732" 
d="M48 430q3 70 32.5 126.5t87.5 90t148 33.5h427l-29 -163h-26l-10 105q-1 17 -7.5 21.5t-41.5 4.5h-194l-51 -289h134q24 0 34.5 1.5t15 7t9.5 17.5l32 75h26l-42 -234h-25l-6 75q-1 18 -7.5 22t-41.5 4h-135l-52 -295h206q24 0 34.5 1.5t15 7t9.5 17.5l47 105h26
l-29 -163h-478l4 26l56 6q11 1 16 3.5t8 12t7 33.5l99 567h-27q-92 0 -140 -62t-56 -177zM459 796q-21 0 -33.5 12.5t-12.5 32.5q0 23 16 40t41 17q22 0 34 -12t12 -32q0 -23 -15.5 -40.5t-41.5 -17.5zM661 796q-20 0 -33 12.5t-13 32.5q0 23 16 40t41 17q22 0 34.5 -12
t12.5 -32q0 -23 -15.5 -40.5t-42.5 -17.5z" />
    <glyph glyph-name="Edotaccent.alt" horiz-adv-x="732" 
d="M48 430q3 70 32.5 126.5t87.5 90t148 33.5h427l-29 -163h-26l-10 105q-1 17 -7.5 21.5t-41.5 4.5h-194l-51 -289h134q24 0 34.5 1.5t15 7t9.5 17.5l32 75h26l-42 -234h-25l-6 75q-1 18 -7.5 22t-41.5 4h-135l-52 -295h206q24 0 34.5 1.5t15 7t9.5 17.5l47 105h26
l-29 -163h-478l4 26l56 6q11 1 16 3.5t8 12t7 33.5l99 567h-27q-92 0 -140 -62t-56 -177zM560 793q-22 0 -35.5 13t-13.5 35q0 25 16.5 42.5t43.5 17.5q23 0 36.5 -12.5t13.5 -34.5q0 -25 -16.5 -43t-44.5 -18z" />
    <glyph glyph-name="Egrave.alt" horiz-adv-x="732" 
d="M48 430q3 70 32.5 126.5t87.5 90t148 33.5h427l-29 -163h-26l-10 105q-1 17 -7.5 21.5t-41.5 4.5h-194l-51 -289h134q24 0 34.5 1.5t15 7t9.5 17.5l32 75h26l-42 -234h-25l-6 75q-1 18 -7.5 22t-41.5 4h-135l-52 -295h206q24 0 34.5 1.5t15 7t9.5 17.5l47 105h26
l-29 -163h-478l4 26l56 6q11 1 16 3.5t8 12t7 33.5l99 567h-27q-92 0 -140 -62t-56 -177zM553 764q-38 39 -65 77t-49 84h91q5 -47 16 -78t30 -66z" />
    <glyph glyph-name="Emacron.alt" horiz-adv-x="732" 
d="M48 430q3 70 32.5 126.5t87.5 90t148 33.5h427l-29 -163h-26l-10 105q-1 17 -7.5 21.5t-41.5 4.5h-194l-51 -289h134q24 0 34.5 1.5t15 7t9.5 17.5l32 75h26l-42 -234h-25l-6 75q-1 18 -7.5 22t-41.5 4h-135l-52 -295h206q24 0 34.5 1.5t15 7t9.5 17.5l47 105h26
l-29 -163h-478l4 26l56 6q11 1 16 3.5t8 12t7 33.5l99 567h-27q-92 0 -140 -62t-56 -177zM710 851l-8 -47h-287l8 47h287z" />
    <glyph glyph-name="Eogonek.alt" horiz-adv-x="732" 
d="M48 430q3 70 32.5 126.5t87.5 90t148 33.5h427l-29 -163h-26l-10 105q-1 17 -7.5 21.5t-41.5 4.5h-194l-51 -289h134q24 0 34.5 1.5t15 7t9.5 17.5l32 75h26l-42 -234h-25l-6 75q-1 18 -7.5 22t-41.5 4h-135l-52 -295h206q24 0 34.5 1.5t15 7t9.5 17.5l47 105h26
l-29 -163h-47q-47 0 -80.5 -20.5t-51 -53t-17.5 -67.5q0 -52 42 -52q23 0 44.5 18t37.5 63l50 -13q-25 -54 -59.5 -76t-74.5 -22q-45 0 -74.5 21.5t-29.5 63.5q0 44 35.5 81t84.5 57h-338l4 26l56 6q11 1 16 3.5t8 12t7 33.5l99 567h-27q-92 0 -140 -62t-56 -177z" />
    <glyph glyph-name="F.alt" horiz-adv-x="699" 
d="M48 430q3 70 32.5 126.5t87.5 90t148 33.5h418l-29 -163h-26l-11 105q-1 17 -7.5 21.5t-41.5 4.5h-184l-53 -298h124q24 0 34.5 1.5t15 7t9.5 17.5l32 75h26l-41 -234h-26l-6 75q-1 18 -7.5 22t-41.5 4h-124l-42 -237q-6 -35 -4.5 -41.5t17.5 -7.5l74 -6l-4 -26h-261
l4 26l56 6q11 1 16 3.5t8 12t7 33.5l99 567h-27q-92 0 -140 -62t-56 -177z" />
    <glyph glyph-name="G.alt" horiz-adv-x="649" 
d="M503 -19q-10 -56 -35 -102.5t-66.5 -74t-104.5 -27.5q-31 0 -59.5 10.5t-46 33t-15.5 59.5l62 17q-4 -36 3.5 -55.5t23 -26.5t32.5 -7q27 0 51 14.5t43 51.5t31 104l12 70q-59 -50 -143 -50q-80 0 -131 40.5t-69.5 114t-2.5 170.5l9 59q23 143 102 225.5t202 82.5
q77 0 124.5 -30t64 -78t0.5 -102l-90 -21q27 97 1.5 148t-102.5 51q-73 0 -125.5 -53t-72.5 -173l-27 -159q-21 -127 10.5 -185t110.5 -58q41 0 82.5 17t67.5 62l20 118q6 35 4.5 41.5t-17.5 7.5l-74 5l4 27h255l-4 -27l-56 -5q-16 -2 -20.5 -8.5t-10.5 -40.5z" />
    <glyph glyph-name="Gbreve.alt" horiz-adv-x="649" 
d="M503 -19q-10 -56 -35 -102.5t-66.5 -74t-104.5 -27.5q-31 0 -59.5 10.5t-46 33t-15.5 59.5l62 17q-4 -36 3.5 -55.5t23 -26.5t32.5 -7q27 0 51 14.5t43 51.5t31 104l12 70q-59 -50 -143 -50q-80 0 -131 40.5t-69.5 114t-2.5 170.5l9 59q23 143 102 225.5t202 82.5
q77 0 124.5 -30t64 -78t0.5 -102l-90 -21q27 97 1.5 148t-102.5 51q-73 0 -125.5 -53t-72.5 -173l-27 -159q-21 -127 10.5 -185t110.5 -58q41 0 82.5 17t67.5 62l20 118q6 35 4.5 41.5t-17.5 7.5l-74 5l4 27h255l-4 -27l-56 -5q-16 -2 -20.5 -8.5t-10.5 -40.5zM432 828
q47 0 77.5 23.5t51.5 75.5l29 -9q-27 -82 -66 -118t-95 -36q-60 0 -90 39t-33 115l29 9q6 -52 28.5 -75.5t68.5 -23.5z" />
    <glyph glyph-name="Gcircumflex.alt" horiz-adv-x="649" 
d="M503 -19q-10 -56 -35 -102.5t-66.5 -74t-104.5 -27.5q-31 0 -59.5 10.5t-46 33t-15.5 59.5l62 17q-4 -36 3.5 -55.5t23 -26.5t32.5 -7q27 0 51 14.5t43 51.5t31 104l12 70q-59 -50 -143 -50q-80 0 -131 40.5t-69.5 114t-2.5 170.5l9 59q23 143 102 225.5t202 82.5
q77 0 124.5 -30t64 -78t0.5 -102l-90 -21q27 97 1.5 148t-102.5 51q-73 0 -125.5 -53t-72.5 -173l-27 -159q-21 -127 10.5 -185t110.5 -58q41 0 82.5 17t67.5 62l20 118q6 35 4.5 41.5t-17.5 7.5l-74 5l4 27h255l-4 -27l-56 -5q-16 -2 -20.5 -8.5t-10.5 -40.5zM555 783
l-18 -19q-29 26 -53 50.5t-44 48.5q-28 -24 -60 -48.5l-69 -50.5l-17 21q29 27 47.5 46t35.5 40.5t39 53.5h66q11 -32 20 -54t21.5 -41.5t31.5 -46.5z" />
    <glyph glyph-name="Gdotaccent.alt" horiz-adv-x="649" 
d="M503 -19q-10 -56 -35 -102.5t-66.5 -74t-104.5 -27.5q-31 0 -59.5 10.5t-46 33t-15.5 59.5l62 17q-4 -36 3.5 -55.5t23 -26.5t32.5 -7q27 0 51 14.5t43 51.5t31 104l12 70q-59 -50 -143 -50q-80 0 -131 40.5t-69.5 114t-2.5 170.5l9 59q23 143 102 225.5t202 82.5
q77 0 124.5 -30t64 -78t0.5 -102l-90 -21q27 97 1.5 148t-102.5 51q-73 0 -125.5 -53t-72.5 -173l-27 -159q-21 -127 10.5 -185t110.5 -58q41 0 82.5 17t67.5 62l20 118q6 35 4.5 41.5t-17.5 7.5l-74 5l4 27h255l-4 -27l-56 -5q-16 -2 -20.5 -8.5t-10.5 -40.5zM429 793
q-22 0 -35.5 13t-13.5 35q0 25 16.5 42.5t43.5 17.5q23 0 36.5 -12.5t13.5 -34.5q0 -25 -16.5 -43t-44.5 -18z" />
    <glyph glyph-name="H.alt" horiz-adv-x="879" 
d="M48 430q3 70 32.5 126.5t87.5 90t148 33.5h201l-4 -27l-56 -5q-11 -1 -16 -4t-8 -12.5t-7 -32.5l-42 -240h302l42 240q6 35 4 41t-17 8l-54 5l4 27h241l-4 -27l-56 -5q-11 -1 -16 -4t-8 -12.5t-7 -32.5l-91 -518q-6 -35 -4 -41t17 -8l54 -6l-4 -26h-241l4 26l56 6
q11 1 16 3.5t8 12t7 33.5l43 246h-302l-43 -246q-6 -35 -4 -41t17 -8l54 -6l-4 -26h-241l4 26l56 6q11 1 16 3.5t8 12t7 33.5l99 567h-27q-92 0 -140 -62t-56 -177z" />
    <glyph glyph-name="Hcircumflex.alt" horiz-adv-x="879" 
d="M48 430q3 70 32.5 126.5t87.5 90t148 33.5h201l-4 -27l-56 -5q-11 -1 -16 -4t-8 -12.5t-7 -32.5l-42 -240h302l42 240q6 35 4 41t-17 8l-54 5l4 27h241l-4 -27l-56 -5q-11 -1 -16 -4t-8 -12.5t-7 -32.5l-91 -518q-6 -35 -4 -41t17 -8l54 -6l-4 -26h-241l4 26l56 6
q11 1 16 3.5t8 12t7 33.5l43 246h-302l-43 -246q-6 -35 -4 -41t17 -8l54 -6l-4 -26h-241l4 26l56 6q11 1 16 3.5t8 12t7 33.5l99 567h-27q-92 0 -140 -62t-56 -177zM731 783l-18 -19q-29 26 -53 50.5t-44 48.5q-28 -24 -60 -48.5l-69 -50.5l-17 21q29 27 47.5 46t35.5 40.5
t39 53.5h66q11 -32 20 -54t21.5 -41.5t31.5 -46.5z" />
    <glyph glyph-name="J.alt" horiz-adv-x="501" 
d="M62 430q3 70 32 126.5t87 90t148 33.5h212l-5 -27l-55 -5q-16 -2 -20.5 -8.5t-10.5 -40.5l-71 -405q-10 -56 -36 -102.5t-69.5 -74t-106.5 -27.5q-37 0 -69 13.5t-50.5 45t-15.5 85.5l66 19q-7 -54 1.5 -82t26.5 -38.5t37 -10.5q28 0 52.5 14.5t44 50.5t31.5 103l80 458
h-37q-92 0 -140 -62t-56 -177z" />
    <glyph glyph-name="Jcircumflex.alt" horiz-adv-x="501" 
d="M62 430q3 70 32 126.5t87 90t148 33.5h212l-5 -27l-55 -5q-16 -2 -20.5 -8.5t-10.5 -40.5l-71 -405q-10 -56 -36 -102.5t-69.5 -74t-106.5 -27.5q-37 0 -69 13.5t-50.5 45t-15.5 85.5l66 19q-7 -54 1.5 -82t26.5 -38.5t37 -10.5q28 0 52.5 14.5t44 50.5t31.5 103l80 458
h-37q-92 0 -140 -62t-56 -177zM562 783l-18 -19q-29 26 -53 50.5t-44 48.5q-28 -24 -60 -48.5l-69 -50.5l-17 21q29 27 47.5 46t35.5 40.5t39 53.5h66q11 -32 20 -54t21.5 -41.5t31.5 -46.5z" />
    <glyph glyph-name="K.alt" horiz-adv-x="796" 
d="M48 430q3 70 32.5 126.5t87.5 90t148 33.5h202l-5 -26l-56 -6q-15 -1 -20 -7.5t-11 -41.5l-49 -279l290 285q30 29 31.5 35.5t-13.5 7.5l-51 6l5 26h196l-5 -26l-52 -6q-10 -1 -16.5 -3.5t-15.5 -11l-29 -28.5l-191 -188l133 -336q9 -24 14.5 -33.5t11 -12t15.5 -3.5
l47 -6l-4 -26h-151l-133 352l-92 -91l-32 -180q-6 -34 -4 -40.5t17 -8.5l54 -6l-4 -26h-241l4 26l56 6q17 2 21 8.5t10 40.5l100 567h-28q-92 0 -140 -62t-56 -177z" />
    <glyph glyph-name="uni0136.alt" horiz-adv-x="796" 
d="M48 430q3 70 32.5 126.5t87.5 90t148 33.5h202l-5 -26l-56 -6q-15 -1 -20 -7.5t-11 -41.5l-49 -279l290 285q30 29 31.5 35.5t-13.5 7.5l-51 6l5 26h196l-5 -26l-52 -6q-10 -1 -16.5 -3.5t-15.5 -11l-29 -28.5l-191 -188l133 -336q9 -24 14.5 -33.5t11 -12t15.5 -3.5
l47 -6l-4 -26h-151l-133 352l-92 -91l-32 -180q-6 -34 -4 -40.5t17 -8.5l54 -6l-4 -26h-241l4 26l56 6q17 2 21 8.5t10 40.5l100 567h-28q-92 0 -140 -62t-56 -177zM361 -242l-18 16q23 35 37.5 69t24.5 80h88q-26 -49 -57 -87t-75 -78z" />
    <glyph glyph-name="L.alt" horiz-adv-x="667" 
d="M48 430q3 70 32.5 126.5t87.5 90t148 33.5h201l-4 -27l-56 -5q-11 -1 -16 -4t-8 -12.5t-7 -32.5l-99 -567h181q24 0 34 1.5t14.5 7t9.5 17.5l48 107h27l-30 -165h-454l4 26l56 6q11 1 16 3.5t8 12t7 33.5l99 567h-27q-92 0 -140 -62t-56 -177z" />
    <glyph glyph-name="Lacute.alt" horiz-adv-x="667" 
d="M48 430q3 70 32.5 126.5t87.5 90t148 33.5h201l-4 -27l-56 -5q-11 -1 -16 -4t-8 -12.5t-7 -32.5l-99 -567h181q24 0 34 1.5t14.5 7t9.5 17.5l48 107h27l-30 -165h-454l4 26l56 6q11 1 16 3.5t8 12t7 33.5l99 567h-27q-92 0 -140 -62t-56 -177zM414 764l-19 22
q29 32 49.5 62.5t39.5 76.5h101q-38 -46 -78.5 -84t-92.5 -77z" />
    <glyph glyph-name="Lcaron.alt" horiz-adv-x="667" 
d="M48 430q3 70 32.5 126.5t87.5 90t148 33.5h201l-4 -27l-56 -5q-11 -1 -16 -4t-8 -12.5t-7 -32.5l-99 -567h181q24 0 34 1.5t14.5 7t9.5 17.5l48 107h27l-30 -165h-454l4 26l56 6q11 1 16 3.5t8 12t7 33.5l99 567h-27q-92 0 -140 -62t-56 -177zM571 466h-21l37 214h82
q-22 -54 -45.5 -106t-52.5 -108z" />
    <glyph glyph-name="uni013B.alt" horiz-adv-x="667" 
d="M48 430q3 70 32.5 126.5t87.5 90t148 33.5h201l-4 -27l-56 -5q-11 -1 -16 -4t-8 -12.5t-7 -32.5l-99 -567h181q24 0 34 1.5t14.5 7t9.5 17.5l48 107h27l-30 -165h-454l4 26l56 6q11 1 16 3.5t8 12t7 33.5l99 567h-27q-92 0 -140 -62t-56 -177zM312 -242l-18 16
q23 35 37.5 69t24.5 80h88q-26 -49 -57 -87t-75 -78z" />
    <glyph glyph-name="M.alt" horiz-adv-x="1012" 
d="M455 680l110 -523l292 523h183l-5 -27l-55 -5q-16 -2 -20.5 -8.5t-10.5 -40.5l-92 -518q-6 -34 -4 -40.5t17 -8.5l54 -6l-4 -26h-241l4 26l56 6q17 2 21 8.5t10 40.5l96 542l-304 -543h-68l-115 546l-94 -545q-6 -34 -4 -40.5t17 -8.5l54 -6l-4 -26h-191l4 26l56 6
q14 2 19.5 8.5t11.5 40.5l100 567h-28q-92 0 -140 -62t-56 -177l-76 21q3 70 32.5 126.5t87.5 90t148 33.5h139z" />
    <glyph glyph-name="N.alt" horiz-adv-x="844" 
d="M48 430q3 70 32.5 126.5t87.5 90t148 33.5h127l229 -534l80 453q6 34 4 40.5t-17 8.5l-54 5l5 27h191l-5 -27l-56 -5q-16 -2 -20.5 -8.5t-10.5 -40.5l-105 -599h-41l-264 615l-94 -534q-6 -34 -4 -40.5t17 -8.5l54 -6l-4 -26h-191l4 26l56 6q17 2 21 8.5t10 40.5l100 567
h-28q-92 0 -140 -62t-56 -177z" />
    <glyph glyph-name="Nacute.alt" horiz-adv-x="844" 
d="M48 430q3 70 32.5 126.5t87.5 90t148 33.5h127l229 -534l80 453q6 34 4 40.5t-17 8.5l-54 5l5 27h191l-5 -27l-56 -5q-16 -2 -20.5 -8.5t-10.5 -40.5l-105 -599h-41l-264 615l-94 -534q-6 -34 -4 -40.5t17 -8.5l54 -6l-4 -26h-191l4 26l56 6q17 2 21 8.5t10 40.5l100 567
h-28q-92 0 -140 -62t-56 -177zM600 764l-19 22q29 32 49.5 62.5t39.5 76.5h101q-38 -46 -78.5 -84t-92.5 -77z" />
    <glyph glyph-name="Ncaron.alt" horiz-adv-x="844" 
d="M48 430q3 70 32.5 126.5t87.5 90t148 33.5h127l229 -534l80 453q6 34 4 40.5t-17 8.5l-54 5l5 27h191l-5 -27l-56 -5q-16 -2 -20.5 -8.5t-10.5 -40.5l-105 -599h-41l-264 615l-94 -534q-6 -34 -4 -40.5t17 -8.5l54 -6l-4 -26h-191l4 26l56 6q17 2 21 8.5t10 40.5l100 567
h-28q-92 0 -140 -62t-56 -177zM757 908q-28 -26 -47 -45.5t-36 -40.5t-39 -53h-66q-10 32 -19.5 53.5t-22 41.5t-31.5 46l18 19q29 -25 53.5 -49.5t43.5 -49.5q29 25 60.5 49.5t68.5 49.5z" />
    <glyph glyph-name="uni0145.alt" horiz-adv-x="844" 
d="M48 430q3 70 32.5 126.5t87.5 90t148 33.5h127l229 -534l80 453q6 34 4 40.5t-17 8.5l-54 5l5 27h191l-5 -27l-56 -5q-16 -2 -20.5 -8.5t-10.5 -40.5l-105 -599h-41l-264 615l-94 -534q-6 -34 -4 -40.5t17 -8.5l54 -6l-4 -26h-191l4 26l56 6q17 2 21 8.5t10 40.5l100 567
h-28q-92 0 -140 -62t-56 -177zM357 -242l-18 16q23 35 37.5 69t24.5 80h88q-26 -49 -57 -87t-75 -78z" />
    <glyph glyph-name="Eng.alt" horiz-adv-x="844" 
d="M48 430q3 70 32.5 126.5t87.5 90t148 33.5h127l229 -534l80 453q6 34 4 40.5t-17 8.5l-54 5l5 27h191l-5 -27l-56 -5q-16 -2 -20.5 -8.5t-10.5 -40.5l-109 -618q-10 -56 -34.5 -102.5t-66 -74t-104.5 -27.5q-32 0 -62.5 13t-48 43.5t-12.5 82.5l63 17q-9 -51 -1 -77.5
t25 -36.5t34 -10q26 0 49.5 14.5t42 51t30.5 103.5l16 96l-232 541l-94 -534q-6 -34 -4 -40.5t17 -8.5l54 -6l-4 -26h-191l4 26l56 6q17 2 21 8.5t10 40.5l100 567h-28q-92 0 -140 -62t-56 -177z" />
    <glyph glyph-name="Ntilde.alt" horiz-adv-x="844" 
d="M48 430q3 70 32.5 126.5t87.5 90t148 33.5h127l229 -534l80 453q6 34 4 40.5t-17 8.5l-54 5l5 27h191l-5 -27l-56 -5q-16 -2 -20.5 -8.5t-10.5 -40.5l-105 -599h-41l-264 615l-94 -534q-6 -34 -4 -40.5t17 -8.5l54 -6l-4 -26h-191l4 26l56 6q17 2 21 8.5t10 40.5l100 567
h-28q-92 0 -140 -62t-56 -177zM679 774q-25 0 -43 13.5t-32.5 31t-28.5 31t-31 13.5t-32 -18.5t-25 -59.5h-31q14 74 40 106.5t59 32.5q26 0 43.5 -13.5t31.5 -31t27.5 -31t30.5 -13.5t31.5 19t24.5 59h32q-14 -75 -39.5 -107t-57.5 -32z" />
    <glyph glyph-name="P.alt" horiz-adv-x="726" 
d="M48 430q3 70 32.5 126.5t87.5 90t148 33.5h239q65 0 107.5 -25t60 -67.5t8.5 -96.5l-5 -29q-15 -82 -71 -128t-158 -46h-125l-37 -207q-6 -35 -4.5 -41.5t17.5 -7.5l74 -6l-4 -26h-261l4 26l56 6q17 2 21 8.5t10 40.5l100 567h-28q-92 0 -140 -62t-56 -177zM555 648h-120
l-58 -328h120q54 0 88.5 32.5t45.5 97.5l10 57q24 141 -86 141z" />
    <glyph glyph-name="R.alt" horiz-adv-x="777" 
d="M48 430q3 70 32.5 126.5t87.5 90t148 33.5h232q66 0 109 -23.5t61 -63.5t9 -91l-6 -30q-10 -64 -50.5 -104t-106.5 -54l87 -233q9 -24 13 -33.5t9 -12t15 -3.5l44 -6l-4 -26h-146l-104 308h-103l-40 -227q-6 -34 -4 -40.5t17 -8.5l54 -6l-4 -26h-241l4 26l56 6
q17 2 21 8.5t10 40.5l100 567h-28q-92 0 -140 -62t-56 -177zM549 648h-114l-54 -308h113q52 0 88.5 33.5t46.5 94.5l6 38q12 69 -11.5 105.5t-74.5 36.5z" />
    <glyph glyph-name="Racute.alt" horiz-adv-x="777" 
d="M48 430q3 70 32.5 126.5t87.5 90t148 33.5h232q66 0 109 -23.5t61 -63.5t9 -91l-6 -30q-10 -64 -50.5 -104t-106.5 -54l87 -233q9 -24 13 -33.5t9 -12t15 -3.5l44 -6l-4 -26h-146l-104 308h-103l-40 -227q-6 -34 -4 -40.5t17 -8.5l54 -6l-4 -26h-241l4 26l56 6
q17 2 21 8.5t10 40.5l100 567h-28q-92 0 -140 -62t-56 -177zM549 648h-114l-54 -308h113q52 0 88.5 33.5t46.5 94.5l6 38q12 69 -11.5 105.5t-74.5 36.5zM542 764l-19 22q29 32 49.5 62.5t39.5 76.5h101q-38 -46 -78.5 -84t-92.5 -77z" />
    <glyph glyph-name="Rcaron.alt" horiz-adv-x="777" 
d="M48 430q3 70 32.5 126.5t87.5 90t148 33.5h232q66 0 109 -23.5t61 -63.5t9 -91l-6 -30q-10 -64 -50.5 -104t-106.5 -54l87 -233q9 -24 13 -33.5t9 -12t15 -3.5l44 -6l-4 -26h-146l-104 308h-103l-40 -227q-6 -34 -4 -40.5t17 -8.5l54 -6l-4 -26h-241l4 26l56 6
q17 2 21 8.5t10 40.5l100 567h-28q-92 0 -140 -62t-56 -177zM549 648h-114l-54 -308h113q52 0 88.5 33.5t46.5 94.5l6 38q12 69 -11.5 105.5t-74.5 36.5zM699 908q-28 -26 -47 -45.5t-36 -40.5t-39 -53h-66q-10 32 -19.5 53.5t-22 41.5t-31.5 46l18 19q29 -25 53.5 -49.5
t43.5 -49.5q29 25 60.5 49.5t68.5 49.5z" />
    <glyph glyph-name="uni0156.alt" horiz-adv-x="777" 
d="M48 430q3 70 32.5 126.5t87.5 90t148 33.5h232q66 0 109 -23.5t61 -63.5t9 -91l-6 -30q-10 -64 -50.5 -104t-106.5 -54l87 -233q9 -24 13 -33.5t9 -12t15 -3.5l44 -6l-4 -26h-146l-104 308h-103l-40 -227q-6 -34 -4 -40.5t17 -8.5l54 -6l-4 -26h-241l4 26l56 6
q17 2 21 8.5t10 40.5l100 567h-28q-92 0 -140 -62t-56 -177zM549 648h-114l-54 -308h113q52 0 88.5 33.5t46.5 94.5l6 38q12 69 -11.5 105.5t-74.5 36.5zM355 -242l-18 16q23 35 37.5 69t24.5 80h88q-26 -49 -57 -87t-75 -78z" />
    <glyph glyph-name="S.alt" horiz-adv-x="727" 
d="M-28 -7q2 55 27 100t75.5 72t128.5 27h71q-3 -67 16 -104t53 -51.5t76 -14.5q81 0 123.5 37.5t42.5 101.5q0 47 -24 76.5t-83 53.5l-74 29q-61 24 -93.5 67t-32.5 107q0 53 24.5 97.5t74.5 71.5t127 27q61 0 103 -18.5t65 -49t28 -67t-7 -72.5l-88 -18q29 91 2.5 142
t-108.5 51q-64 0 -103 -33.5t-39 -100.5q0 -45 22 -75.5t80 -53.5l74 -30q64 -25 97.5 -65.5t33.5 -102.5q0 -53 -26.5 -100.5t-81.5 -77t-139 -29.5q-51 0 -96.5 15t-75.5 52.5t-34 102.5h-4q-79 0 -116.5 -48t-43.5 -140z" />
    <glyph glyph-name="Sacute.alt" horiz-adv-x="727" 
d="M-28 -7q2 55 27 100t75.5 72t128.5 27h71q-3 -67 16 -104t53 -51.5t76 -14.5q81 0 123.5 37.5t42.5 101.5q0 47 -24 76.5t-83 53.5l-74 29q-61 24 -93.5 67t-32.5 107q0 53 24.5 97.5t74.5 71.5t127 27q61 0 103 -18.5t65 -49t28 -67t-7 -72.5l-88 -18q29 91 2.5 142
t-108.5 51q-64 0 -103 -33.5t-39 -100.5q0 -45 22 -75.5t80 -53.5l74 -30q64 -25 97.5 -65.5t33.5 -102.5q0 -53 -26.5 -100.5t-81.5 -77t-139 -29.5q-51 0 -96.5 15t-75.5 52.5t-34 102.5h-4q-79 0 -116.5 -48t-43.5 -140zM526 764l-19 22q29 32 49.5 62.5t39.5 76.5h101
q-38 -46 -78.5 -84t-92.5 -77z" />
    <glyph glyph-name="Scaron.alt" horiz-adv-x="727" 
d="M-28 -7q2 55 27 100t75.5 72t128.5 27h71q-3 -67 16 -104t53 -51.5t76 -14.5q81 0 123.5 37.5t42.5 101.5q0 47 -24 76.5t-83 53.5l-74 29q-61 24 -93.5 67t-32.5 107q0 53 24.5 97.5t74.5 71.5t127 27q61 0 103 -18.5t65 -49t28 -67t-7 -72.5l-88 -18q29 91 2.5 142
t-108.5 51q-64 0 -103 -33.5t-39 -100.5q0 -45 22 -75.5t80 -53.5l74 -30q64 -25 97.5 -65.5t33.5 -102.5q0 -53 -26.5 -100.5t-81.5 -77t-139 -29.5q-51 0 -96.5 15t-75.5 52.5t-34 102.5h-4q-79 0 -116.5 -48t-43.5 -140zM683 908q-28 -26 -47 -45.5t-36 -40.5t-39 -53
h-66q-10 32 -19.5 53.5t-22 41.5t-31.5 46l18 19q29 -25 53.5 -49.5t43.5 -49.5q29 25 60.5 49.5t68.5 49.5z" />
    <glyph glyph-name="Scedilla.alt" horiz-adv-x="727" 
d="M480 -133q0 -40 -34.5 -65t-84.5 -25q-40 0 -70 18t-31 60l51 14q-2 -35 9.5 -49.5t35.5 -14.5q27 0 43 19t16 45q0 22 -10 33.5t-39 11.5q-5 0 -12 -1t-12 -2l-5 26l33 56q-41 6 -76 24t-57 53t-26 90h-4q-79 0 -116.5 -48t-43.5 -140l-75 21q2 55 27 100t75.5 72
t128.5 27h71q-3 -67 16 -104t53 -51.5t76 -14.5q81 0 123.5 37.5t42.5 101.5q0 47 -24 76.5t-83 53.5l-74 29q-61 24 -93.5 67t-32.5 107q0 53 24.5 97.5t74.5 71.5t127 27q61 0 103 -18.5t65 -49t28 -67t-7 -72.5l-88 -18q29 91 2.5 142t-108.5 51q-64 0 -103 -33.5
t-39 -100.5q0 -45 22 -75.5t80 -53.5l74 -30q64 -25 97.5 -65.5t33.5 -102.5q0 -53 -26.5 -100.5t-81.5 -77t-139 -29.5h-14l-28 -48q50 0 77.5 -21t27.5 -54z" />
    <glyph glyph-name="Scircumflex.alt" horiz-adv-x="727" 
d="M-28 -7q2 55 27 100t75.5 72t128.5 27h71q-3 -67 16 -104t53 -51.5t76 -14.5q81 0 123.5 37.5t42.5 101.5q0 47 -24 76.5t-83 53.5l-74 29q-61 24 -93.5 67t-32.5 107q0 53 24.5 97.5t74.5 71.5t127 27q61 0 103 -18.5t65 -49t28 -67t-7 -72.5l-88 -18q29 91 2.5 142
t-108.5 51q-64 0 -103 -33.5t-39 -100.5q0 -45 22 -75.5t80 -53.5l74 -30q64 -25 97.5 -65.5t33.5 -102.5q0 -53 -26.5 -100.5t-81.5 -77t-139 -29.5q-51 0 -96.5 15t-75.5 52.5t-34 102.5h-4q-79 0 -116.5 -48t-43.5 -140zM661 783l-18 -19q-29 26 -53 50.5t-44 48.5
q-28 -24 -60 -48.5l-69 -50.5l-17 21q29 27 47.5 46t35.5 40.5t39 53.5h66q11 -32 20 -54t21.5 -41.5t31.5 -46.5z" />
    <glyph glyph-name="uni0218.alt" horiz-adv-x="727" 
d="M-28 -7q2 55 27 100t75.5 72t128.5 27h71q-3 -67 16 -104t53 -51.5t76 -14.5q81 0 123.5 37.5t42.5 101.5q0 47 -24 76.5t-83 53.5l-74 29q-61 24 -93.5 67t-32.5 107q0 53 24.5 97.5t74.5 71.5t127 27q61 0 103 -18.5t65 -49t28 -67t-7 -72.5l-88 -18q29 91 2.5 142
t-108.5 51q-64 0 -103 -33.5t-39 -100.5q0 -45 22 -75.5t80 -53.5l74 -30q64 -25 97.5 -65.5t33.5 -102.5q0 -53 -26.5 -100.5t-81.5 -77t-139 -29.5q-51 0 -96.5 15t-75.5 52.5t-34 102.5h-4q-79 0 -116.5 -48t-43.5 -140zM305 -242l-18 16q23 35 37.5 69t24.5 80h88
q-26 -49 -57 -87t-75 -78z" />
    <glyph glyph-name="T.alt" horiz-adv-x="635" 
d="M45 430q3 70 32.5 126.5t87.5 90t148 33.5h385l-29 -163h-26l-11 105q-1 18 -7.5 22t-41.5 4h-114l-100 -567q-6 -35 -4 -41t17 -8l55 -6l-5 -26h-241l5 26l55 6q11 1 16 3.5t8 12t7 33.5l100 567h-65q-92 0 -140 -62t-56 -177z" />
    <glyph glyph-name="Tbar.alt" horiz-adv-x="635" 
d="M437 26l-5 -26h-241l5 26l55 6q11 1 16 3.5t8 12t7 33.5l43 242h-144l6 32h143l52 293h-65q-92 0 -140 -62t-56 -177l-76 21q3 70 32.5 126.5t87.5 90t148 33.5h385l-29 -163h-26l-11 105q-1 18 -7.5 22t-41.5 4h-114l-52 -293h145l-6 -32h-144l-43 -242q-6 -35 -4 -41
t17 -8z" />
    <glyph glyph-name="Tcaron.alt" horiz-adv-x="635" 
d="M45 430q3 70 32.5 126.5t87.5 90t148 33.5h385l-29 -163h-26l-11 105q-1 18 -7.5 22t-41.5 4h-114l-100 -567q-6 -35 -4 -41t17 -8l55 -6l-5 -26h-241l5 26l55 6q11 1 16 3.5t8 12t7 33.5l100 567h-65q-92 0 -140 -62t-56 -177zM599 908q-28 -26 -47 -45.5t-36 -40.5
t-39 -53h-66q-10 32 -19.5 53.5t-22 41.5t-31.5 46l18 19q29 -25 53.5 -49.5t43.5 -49.5q29 25 60.5 49.5t68.5 49.5z" />
    <glyph glyph-name="uni0162.alt" horiz-adv-x="635" 
d="M45 430q3 70 32.5 126.5t87.5 90t148 33.5h385l-29 -163h-26l-11 105q-1 18 -7.5 22t-41.5 4h-114l-100 -567q-6 -35 -4 -41t17 -8l55 -6l-5 -26h-241l5 26l55 6q11 1 16 3.5t8 12t7 33.5l100 567h-65q-92 0 -140 -62t-56 -177zM210 -242l-18 16q23 35 37.5 69t24.5 80
h88q-26 -49 -57 -87t-75 -78z" />
    <glyph glyph-name="uni021A.alt" horiz-adv-x="635" 
d="M45 430q3 70 32.5 126.5t87.5 90t148 33.5h385l-29 -163h-26l-11 105q-1 18 -7.5 22t-41.5 4h-114l-100 -567q-6 -35 -4 -41t17 -8l55 -6l-5 -26h-241l5 26l55 6q11 1 16 3.5t8 12t7 33.5l100 567h-65q-92 0 -140 -62t-56 -177zM210 -242l-18 16q23 35 37.5 69t24.5 80
h88q-26 -49 -57 -87t-75 -78z" />
    <glyph glyph-name="U.alt" horiz-adv-x="838" 
d="M41 430q3 70 32.5 126.5t88 90t147.5 33.5h202l-5 -27l-55 -5q-16 -2 -20.5 -8.5t-10.5 -40.5l-65 -369q-19 -106 12 -157t114 -51q86 0 137.5 53.5t69.5 154.5l65 369q6 34 4 40.5t-17 8.5l-55 5l5 27h191l-5 -27l-55 -5q-16 -2 -20.5 -8.5t-10.5 -40.5l-65 -369
q-20 -112 -81 -176t-169 -64q-118 0 -172 69t-33 187l71 402h-28q-91 0 -139.5 -62t-56.5 -177z" />
    <glyph glyph-name="Uacute.alt" horiz-adv-x="838" 
d="M41 430q3 70 32.5 126.5t88 90t147.5 33.5h202l-5 -27l-55 -5q-16 -2 -20.5 -8.5t-10.5 -40.5l-65 -369q-19 -106 12 -157t114 -51q86 0 137.5 53.5t69.5 154.5l65 369q6 34 4 40.5t-17 8.5l-55 5l5 27h191l-5 -27l-55 -5q-16 -2 -20.5 -8.5t-10.5 -40.5l-65 -369
q-20 -112 -81 -176t-169 -64q-118 0 -172 69t-33 187l71 402h-28q-91 0 -139.5 -62t-56.5 -177zM601 764l-19 22q29 32 49.5 62.5t39.5 76.5h101q-38 -46 -78.5 -84t-92.5 -77z" />
    <glyph glyph-name="Ubreve.alt" horiz-adv-x="838" 
d="M41 430q3 70 32.5 126.5t88 90t147.5 33.5h202l-5 -27l-55 -5q-16 -2 -20.5 -8.5t-10.5 -40.5l-65 -369q-19 -106 12 -157t114 -51q86 0 137.5 53.5t69.5 154.5l65 369q6 34 4 40.5t-17 8.5l-55 5l5 27h191l-5 -27l-55 -5q-16 -2 -20.5 -8.5t-10.5 -40.5l-65 -369
q-20 -112 -81 -176t-169 -64q-118 0 -172 69t-33 187l71 402h-28q-91 0 -139.5 -62t-56.5 -177zM613 828q47 0 77.5 23.5t51.5 75.5l29 -9q-27 -82 -66 -118t-95 -36q-60 0 -90 39t-33 115l29 9q6 -52 28.5 -75.5t68.5 -23.5z" />
    <glyph glyph-name="Ucircumflex.alt" horiz-adv-x="838" 
d="M41 430q3 70 32.5 126.5t88 90t147.5 33.5h202l-5 -27l-55 -5q-16 -2 -20.5 -8.5t-10.5 -40.5l-65 -369q-19 -106 12 -157t114 -51q86 0 137.5 53.5t69.5 154.5l65 369q6 34 4 40.5t-17 8.5l-55 5l5 27h191l-5 -27l-55 -5q-16 -2 -20.5 -8.5t-10.5 -40.5l-65 -369
q-20 -112 -81 -176t-169 -64q-118 0 -172 69t-33 187l71 402h-28q-91 0 -139.5 -62t-56.5 -177zM736 783l-18 -19q-29 26 -53 50.5t-44 48.5q-28 -24 -60 -48.5l-69 -50.5l-17 21q29 27 47.5 46t35.5 40.5t39 53.5h66q11 -32 20 -54t21.5 -41.5t31.5 -46.5z" />
    <glyph glyph-name="Udieresis.alt" horiz-adv-x="838" 
d="M41 430q3 70 32.5 126.5t88 90t147.5 33.5h202l-5 -27l-55 -5q-16 -2 -20.5 -8.5t-10.5 -40.5l-65 -369q-19 -106 12 -157t114 -51q86 0 137.5 53.5t69.5 154.5l65 369q6 34 4 40.5t-17 8.5l-55 5l5 27h191l-5 -27l-55 -5q-16 -2 -20.5 -8.5t-10.5 -40.5l-65 -369
q-20 -112 -81 -176t-169 -64q-118 0 -172 69t-33 187l71 402h-28q-91 0 -139.5 -62t-56.5 -177zM510 796q-21 0 -33.5 12.5t-12.5 32.5q0 23 16 40t41 17q22 0 34 -12t12 -32q0 -23 -15.5 -40.5t-41.5 -17.5zM712 796q-20 0 -33 12.5t-13 32.5q0 23 16 40t41 17
q22 0 34.5 -12t12.5 -32q0 -23 -15.5 -40.5t-42.5 -17.5z" />
    <glyph glyph-name="Ugrave.alt" horiz-adv-x="838" 
d="M41 430q3 70 32.5 126.5t88 90t147.5 33.5h202l-5 -27l-55 -5q-16 -2 -20.5 -8.5t-10.5 -40.5l-65 -369q-19 -106 12 -157t114 -51q86 0 137.5 53.5t69.5 154.5l65 369q6 34 4 40.5t-17 8.5l-55 5l5 27h191l-5 -27l-55 -5q-16 -2 -20.5 -8.5t-10.5 -40.5l-65 -369
q-20 -112 -81 -176t-169 -64q-118 0 -172 69t-33 187l71 402h-28q-91 0 -139.5 -62t-56.5 -177zM603 764q-38 39 -65 77t-49 84h91q5 -47 16 -78t30 -66z" />
    <glyph glyph-name="Uhungarumlaut.alt" horiz-adv-x="838" 
d="M41 430q3 70 32.5 126.5t88 90t147.5 33.5h202l-5 -27l-55 -5q-16 -2 -20.5 -8.5t-10.5 -40.5l-65 -369q-19 -106 12 -157t114 -51q86 0 137.5 53.5t69.5 154.5l65 369q6 34 4 40.5t-17 8.5l-55 5l5 27h191l-5 -27l-55 -5q-16 -2 -20.5 -8.5t-10.5 -40.5l-65 -369
q-20 -112 -81 -176t-169 -64q-118 0 -172 69t-33 187l71 402h-28q-91 0 -139.5 -62t-56.5 -177zM530 764l-19 17q23 31 40.5 64.5t33.5 79.5h91q-63 -88 -146 -161zM670 764l-19 17q23 31 40.5 64.5t34.5 79.5h91q-64 -89 -147 -161z" />
    <glyph glyph-name="Umacron.alt" horiz-adv-x="838" 
d="M41 430q3 70 32.5 126.5t88 90t147.5 33.5h202l-5 -27l-55 -5q-16 -2 -20.5 -8.5t-10.5 -40.5l-65 -369q-19 -106 12 -157t114 -51q86 0 137.5 53.5t69.5 154.5l65 369q6 34 4 40.5t-17 8.5l-55 5l5 27h191l-5 -27l-55 -5q-16 -2 -20.5 -8.5t-10.5 -40.5l-65 -369
q-20 -112 -81 -176t-169 -64q-118 0 -172 69t-33 187l71 402h-28q-91 0 -139.5 -62t-56.5 -177zM761 851l-8 -47h-287l8 47h287z" />
    <glyph glyph-name="Uogonek.alt" horiz-adv-x="838" 
d="M41 430q3 70 32.5 126.5t88 90t147.5 33.5h202l-5 -27l-55 -5q-16 -2 -20.5 -8.5t-10.5 -40.5l-65 -369q-19 -106 12 -157t114 -51q86 0 137.5 53.5t69.5 154.5l65 369q6 34 4 40.5t-17 8.5l-55 5l5 27h191l-5 -27l-55 -5q-16 -2 -20.5 -8.5t-10.5 -40.5l-65 -369
q-11 -61 -33.5 -108t-59.5 -79q-28 -24 -58 -43t-56 -38t-42 -43.5t-16 -59.5q0 -52 42 -52q23 0 44.5 18t37.5 63l50 -13q-25 -54 -59.5 -76t-74.5 -22q-45 0 -74.5 21.5t-29.5 63.5q0 34 18 57t46 40.5t59 33.5q-21 -3 -44 -3q-118 0 -172 69t-33 187l71 402h-28
q-91 0 -139.5 -62t-56.5 -177z" />
    <glyph glyph-name="Uring.alt" horiz-adv-x="838" 
d="M41 430q3 70 32.5 126.5t88 90t147.5 33.5h202l-5 -27l-55 -5q-16 -2 -20.5 -8.5t-10.5 -40.5l-65 -369q-19 -106 12 -157t114 -51q86 0 137.5 53.5t69.5 154.5l65 369q6 34 4 40.5t-17 8.5l-55 5l5 27h191l-5 -27l-55 -5q-16 -2 -20.5 -8.5t-10.5 -40.5l-65 -369
q-20 -112 -81 -176t-169 -64q-118 0 -172 69t-33 187l71 402h-28q-91 0 -139.5 -62t-56.5 -177zM630 974q41 0 67 -17t36.5 -43.5t5.5 -55.5l-2 -11q-7 -41 -41 -71t-88 -30q-40 0 -65.5 17t-36.5 44t-6 56l2 11q8 42 41.5 71t86.5 29zM606 772q58 0 70 75l5 25q6 37 -7 57
t-42 20q-56 0 -70 -76l-4 -25q-7 -36 6.5 -56t41.5 -20z" />
    <glyph glyph-name="Utilde.alt" horiz-adv-x="838" 
d="M41 430q3 70 32.5 126.5t88 90t147.5 33.5h202l-5 -27l-55 -5q-16 -2 -20.5 -8.5t-10.5 -40.5l-65 -369q-19 -106 12 -157t114 -51q86 0 137.5 53.5t69.5 154.5l65 369q6 34 4 40.5t-17 8.5l-55 5l5 27h191l-5 -27l-55 -5q-16 -2 -20.5 -8.5t-10.5 -40.5l-65 -369
q-20 -112 -81 -176t-169 -64q-118 0 -172 69t-33 187l71 402h-28q-91 0 -139.5 -62t-56.5 -177zM680 774q-25 0 -43 13.5t-32.5 31t-28.5 31t-31 13.5t-32 -18.5t-25 -59.5h-31q14 74 40 106.5t59 32.5q26 0 43.5 -13.5t31.5 -31t27.5 -31t30.5 -13.5t31.5 19t24.5 59h32
q-14 -75 -39.5 -107t-57.5 -32z" />
    <glyph glyph-name="V.alt" horiz-adv-x="787" 
d="M40 430q3 70 32.5 126.5t88 90t147.5 33.5h167l-5 -27l-52 -5q-16 -2 -19 -8t1 -35l74 -518l217 437q55 111 100.5 184.5t87.5 116t85 60.5t93 18l-15 -85q-57 0 -108.5 -29.5t-105 -100.5t-115.5 -196l-245 -492h-67l-94 648q-90 -1 -136.5 -63.5t-54.5 -175.5z" />
    <glyph glyph-name="W.alt" horiz-adv-x="1098" 
d="M40 430q3 70 32.5 126.5t88 90t147.5 33.5h173l-5 -27l-51 -5q-16 -2 -19 -7.5t-1 -35.5l31 -500l268 575h62l70 -571l173 414q48 116 92 190t88 115.5t90.5 58t99.5 16.5l-15 -85q-45 0 -86.5 -14.5t-81.5 -50.5t-80 -99.5t-81 -161.5l-206 -492h-66l-69 573l-269 -573
h-65l-42 648h-6q-92 0 -140 -62t-56 -177z" />
    <glyph glyph-name="Wacute.alt" horiz-adv-x="1098" 
d="M40 430q3 70 32.5 126.5t88 90t147.5 33.5h173l-5 -27l-51 -5q-16 -2 -19 -7.5t-1 -35.5l31 -500l268 575h62l70 -571l173 414q48 116 92 190t88 115.5t90.5 58t99.5 16.5l-15 -85q-45 0 -86.5 -14.5t-81.5 -50.5t-80 -99.5t-81 -161.5l-206 -492h-66l-69 573l-269 -573
h-65l-42 648h-6q-92 0 -140 -62t-56 -177zM740 764l-19 22q29 32 49.5 62.5t39.5 76.5h101q-38 -46 -78.5 -84t-92.5 -77z" />
    <glyph glyph-name="Wcircumflex.alt" horiz-adv-x="1098" 
d="M40 430q3 70 32.5 126.5t88 90t147.5 33.5h173l-5 -27l-51 -5q-16 -2 -19 -7.5t-1 -35.5l31 -500l268 575h62l70 -571l173 414q48 116 92 190t88 115.5t90.5 58t99.5 16.5l-15 -85q-45 0 -86.5 -14.5t-81.5 -50.5t-80 -99.5t-81 -161.5l-206 -492h-66l-69 573l-269 -573
h-65l-42 648h-6q-92 0 -140 -62t-56 -177zM875 783l-18 -19q-29 26 -53 50.5t-44 48.5q-28 -24 -60 -48.5l-69 -50.5l-17 21q29 27 47.5 46t35.5 40.5t39 53.5h66q11 -32 20 -54t21.5 -41.5t31.5 -46.5z" />
    <glyph glyph-name="Wdieresis.alt" horiz-adv-x="1098" 
d="M40 430q3 70 32.5 126.5t88 90t147.5 33.5h173l-5 -27l-51 -5q-16 -2 -19 -7.5t-1 -35.5l31 -500l268 575h62l70 -571l173 414q48 116 92 190t88 115.5t90.5 58t99.5 16.5l-15 -85q-45 0 -86.5 -14.5t-81.5 -50.5t-80 -99.5t-81 -161.5l-206 -492h-66l-69 573l-269 -573
h-65l-42 648h-6q-92 0 -140 -62t-56 -177zM649 796q-21 0 -33.5 12.5t-12.5 32.5q0 23 16 40t41 17q22 0 34 -12t12 -32q0 -23 -15.5 -40.5t-41.5 -17.5zM851 796q-20 0 -33 12.5t-13 32.5q0 23 16 40t41 17q22 0 34.5 -12t12.5 -32q0 -23 -15.5 -40.5t-42.5 -17.5z" />
    <glyph glyph-name="Wgrave.alt" horiz-adv-x="1098" 
d="M40 430q3 70 32.5 126.5t88 90t147.5 33.5h173l-5 -27l-51 -5q-16 -2 -19 -7.5t-1 -35.5l31 -500l268 575h62l70 -571l173 414q48 116 92 190t88 115.5t90.5 58t99.5 16.5l-15 -85q-45 0 -86.5 -14.5t-81.5 -50.5t-80 -99.5t-81 -161.5l-206 -492h-66l-69 573l-269 -573
h-65l-42 648h-6q-92 0 -140 -62t-56 -177zM742 764q-38 39 -65 77t-49 84h91q5 -47 16 -78t30 -66z" />
    <glyph glyph-name="X.alt" horiz-adv-x="746" 
d="M40 430q3 70 32.5 126.5t88 90t147.5 33.5h165l-5 -27l-52 -5q-16 -2 -17.5 -8t9.5 -35l81 -208l163 208q23 29 24.5 35t-13.5 8l-51 5l5 27h190l-5 -27l-52 -5q-10 -1 -15.5 -3.5t-13.5 -11t-24 -28.5l-194 -246l111 -284q11 -30 16 -35.5t19 -7.5l51 -6l-5 -26h-238
l5 26l52 6q17 2 18 7.5t-10 35.5l-87 223l-175 -223q-23 -29 -24 -35t14 -8l50 -6l-4 -26h-191l4 26l53 6q10 1 16 3t13.5 11l23.5 29l206 260l-122 313q-86 -4 -130.5 -66.5t-52.5 -172.5z" />
    <glyph glyph-name="Y.alt" horiz-adv-x="744" 
d="M40 430q3 70 32.5 126.5t88 90t147.5 33.5h159l-5 -27l-52 -5q-16 -2 -17.5 -8t8.5 -35l88 -273l187 273q20 29 20 35.5t-14 7.5l-51 5l5 27h188l-5 -27l-52 -5q-11 -1 -17 -3.5t-12.5 -11t-20.5 -28.5l-216 -314l-37 -212l1 2q-6 -35 -4 -41t17 -8l54 -6l-5 -26h-241
l5 26l56 6q11 1 16 3.5t9 13.5l42 243l-121 355q-82 -6 -126 -67.5t-51 -170.5z" />
    <glyph glyph-name="Yacute.alt" horiz-adv-x="744" 
d="M40 430q3 70 32.5 126.5t88 90t147.5 33.5h159l-5 -27l-52 -5q-16 -2 -17.5 -8t8.5 -35l88 -273l187 273q20 29 20 35.5t-14 7.5l-51 5l5 27h188l-5 -27l-52 -5q-11 -1 -17 -3.5t-12.5 -11t-20.5 -28.5l-216 -314l-37 -212l1 2q-6 -35 -4 -41t17 -8l54 -6l-5 -26h-241
l5 26l56 6q11 1 16 3.5t9 13.5l42 243l-121 355q-82 -6 -126 -67.5t-51 -170.5zM544 764l-19 22q29 32 49.5 62.5t39.5 76.5h101q-38 -46 -78.5 -84t-92.5 -77z" />
    <glyph glyph-name="Ycircumflex.alt" horiz-adv-x="744" 
d="M40 430q3 70 32.5 126.5t88 90t147.5 33.5h159l-5 -27l-52 -5q-16 -2 -17.5 -8t8.5 -35l88 -273l187 273q20 29 20 35.5t-14 7.5l-51 5l5 27h188l-5 -27l-52 -5q-11 -1 -17 -3.5t-12.5 -11t-20.5 -28.5l-216 -314l-37 -212l1 2q-6 -35 -4 -41t17 -8l54 -6l-5 -26h-241
l5 26l56 6q11 1 16 3.5t9 13.5l42 243l-121 355q-82 -6 -126 -67.5t-51 -170.5zM679 783l-18 -19q-29 26 -53 50.5t-44 48.5q-28 -24 -60 -48.5l-69 -50.5l-17 21q29 27 47.5 46t35.5 40.5t39 53.5h66q11 -32 20 -54t21.5 -41.5t31.5 -46.5z" />
    <glyph glyph-name="Ydieresis.alt" horiz-adv-x="744" 
d="M40 430q3 70 32.5 126.5t88 90t147.5 33.5h159l-5 -27l-52 -5q-16 -2 -17.5 -8t8.5 -35l88 -273l187 273q20 29 20 35.5t-14 7.5l-51 5l5 27h188l-5 -27l-52 -5q-11 -1 -17 -3.5t-12.5 -11t-20.5 -28.5l-216 -314l-37 -212l1 2q-6 -35 -4 -41t17 -8l54 -6l-5 -26h-241
l5 26l56 6q11 1 16 3.5t9 13.5l42 243l-121 355q-82 -6 -126 -67.5t-51 -170.5zM453 796q-21 0 -33.5 12.5t-12.5 32.5q0 23 16 40t41 17q22 0 34 -12t12 -32q0 -23 -15.5 -40.5t-41.5 -17.5zM655 796q-20 0 -33 12.5t-13 32.5q0 23 16 40t41 17q22 0 34.5 -12t12.5 -32
q0 -23 -15.5 -40.5t-42.5 -17.5z" />
    <glyph glyph-name="Ygrave.alt" horiz-adv-x="744" 
d="M40 430q3 70 32.5 126.5t88 90t147.5 33.5h159l-5 -27l-52 -5q-16 -2 -17.5 -8t8.5 -35l88 -273l187 273q20 29 20 35.5t-14 7.5l-51 5l5 27h188l-5 -27l-52 -5q-11 -1 -17 -3.5t-12.5 -11t-20.5 -28.5l-216 -314l-37 -212l1 2q-6 -35 -4 -41t17 -8l54 -6l-5 -26h-241
l5 26l56 6q11 1 16 3.5t9 13.5l42 243l-121 355q-82 -6 -126 -67.5t-51 -170.5zM546 764q-38 39 -65 77t-49 84h91q5 -47 16 -78t30 -66z" />
    <glyph glyph-name="a" unicode="a" horiz-adv-x="581" 
d="M444 -5q-37 0 -58.5 22.5t-23.5 68.5q-34 -53 -73 -74.5t-80 -21.5q-59 0 -96 36.5t-50 97.5t1 136l4 22q13 70 46.5 120t81.5 76.5t102 26.5q42 0 73.5 -16.5t51.5 -46.5q14 11 27 25l26 28h35l-61 -345q-13 -74 -10 -98t19 -24q15 0 32.5 17.5t31.5 59.5l35 -22
q-22 -46 -51 -67t-63 -21zM149 234q-17 -100 4.5 -155t68.5 -55q19 0 43 10.5t50.5 40t54.5 85.5l41 236q-18 39 -44.5 57t-62.5 18q-61 0 -96.5 -48t-49.5 -132z" />
    <glyph glyph-name="aacute" unicode="&#xe1;" horiz-adv-x="581" 
d="M444 -5q-37 0 -58.5 22.5t-23.5 68.5q-34 -53 -73 -74.5t-80 -21.5q-59 0 -96 36.5t-50 97.5t1 136l4 22q13 70 46.5 120t81.5 76.5t102 26.5q42 0 73.5 -16.5t51.5 -46.5q14 11 27 25l26 28h35l-61 -345q-13 -74 -10 -98t19 -24q15 0 32.5 17.5t31.5 59.5l35 -22
q-22 -46 -51 -67t-63 -21zM149 234q-17 -100 4.5 -155t68.5 -55q19 0 43 10.5t50.5 40t54.5 85.5l41 236q-18 39 -44.5 57t-62.5 18q-61 0 -96.5 -48t-49.5 -132zM321 579l-19 22q29 32 49.5 62.5t39.5 76.5h101q-38 -46 -78.5 -84t-92.5 -77z" />
    <glyph glyph-name="abreve" unicode="&#x103;" horiz-adv-x="581" 
d="M444 -5q-37 0 -58.5 22.5t-23.5 68.5q-34 -53 -73 -74.5t-80 -21.5q-59 0 -96 36.5t-50 97.5t1 136l4 22q13 70 46.5 120t81.5 76.5t102 26.5q42 0 73.5 -16.5t51.5 -46.5q14 11 27 25l26 28h35l-61 -345q-13 -74 -10 -98t19 -24q15 0 32.5 17.5t31.5 59.5l35 -22
q-22 -46 -51 -67t-63 -21zM149 234q-17 -100 4.5 -155t68.5 -55q19 0 43 10.5t50.5 40t54.5 85.5l41 236q-18 39 -44.5 57t-62.5 18q-61 0 -96.5 -48t-49.5 -132zM333 643q47 0 77.5 23.5t51.5 75.5l29 -9q-27 -82 -66 -118t-95 -36q-60 0 -90 39t-33 115l29 9
q6 -52 28.5 -75.5t68.5 -23.5z" />
    <glyph glyph-name="acircumflex" unicode="&#xe2;" horiz-adv-x="581" 
d="M444 -5q-37 0 -58.5 22.5t-23.5 68.5q-34 -53 -73 -74.5t-80 -21.5q-59 0 -96 36.5t-50 97.5t1 136l4 22q13 70 46.5 120t81.5 76.5t102 26.5q42 0 73.5 -16.5t51.5 -46.5q14 11 27 25l26 28h35l-61 -345q-13 -74 -10 -98t19 -24q15 0 32.5 17.5t31.5 59.5l35 -22
q-22 -46 -51 -67t-63 -21zM149 234q-17 -100 4.5 -155t68.5 -55q19 0 43 10.5t50.5 40t54.5 85.5l41 236q-18 39 -44.5 57t-62.5 18q-61 0 -96.5 -48t-49.5 -132zM456 598l-18 -19q-29 26 -53 50.5t-44 48.5q-28 -24 -60 -48.5l-69 -50.5l-17 21q29 27 47.5 46t35.5 40.5
t39 53.5h66q11 -32 20 -54t21.5 -41.5t31.5 -46.5z" />
    <glyph glyph-name="adieresis" unicode="&#xe4;" horiz-adv-x="581" 
d="M444 -5q-37 0 -58.5 22.5t-23.5 68.5q-34 -53 -73 -74.5t-80 -21.5q-59 0 -96 36.5t-50 97.5t1 136l4 22q13 70 46.5 120t81.5 76.5t102 26.5q42 0 73.5 -16.5t51.5 -46.5q14 11 27 25l26 28h35l-61 -345q-13 -74 -10 -98t19 -24q15 0 32.5 17.5t31.5 59.5l35 -22
q-22 -46 -51 -67t-63 -21zM149 234q-17 -100 4.5 -155t68.5 -55q19 0 43 10.5t50.5 40t54.5 85.5l41 236q-18 39 -44.5 57t-62.5 18q-61 0 -96.5 -48t-49.5 -132zM230 611q-21 0 -33.5 12.5t-12.5 32.5q0 23 16 40t41 17q22 0 34 -12t12 -32q0 -23 -15.5 -40.5t-41.5 -17.5z
M432 611q-20 0 -33 12.5t-13 32.5q0 23 16 40t41 17q22 0 34.5 -12t12.5 -32q0 -23 -15.5 -40.5t-42.5 -17.5z" />
    <glyph glyph-name="agrave" unicode="&#xe0;" horiz-adv-x="581" 
d="M444 -5q-37 0 -58.5 22.5t-23.5 68.5q-34 -53 -73 -74.5t-80 -21.5q-59 0 -96 36.5t-50 97.5t1 136l4 22q13 70 46.5 120t81.5 76.5t102 26.5q42 0 73.5 -16.5t51.5 -46.5q14 11 27 25l26 28h35l-61 -345q-13 -74 -10 -98t19 -24q15 0 32.5 17.5t31.5 59.5l35 -22
q-22 -46 -51 -67t-63 -21zM149 234q-17 -100 4.5 -155t68.5 -55q19 0 43 10.5t50.5 40t54.5 85.5l41 236q-18 39 -44.5 57t-62.5 18q-61 0 -96.5 -48t-49.5 -132zM323 579q-38 39 -65 77t-49 84h91q5 -47 16 -78t30 -66z" />
    <glyph glyph-name="amacron" unicode="&#x101;" horiz-adv-x="581" 
d="M444 -5q-37 0 -58.5 22.5t-23.5 68.5q-34 -53 -73 -74.5t-80 -21.5q-59 0 -96 36.5t-50 97.5t1 136l4 22q13 70 46.5 120t81.5 76.5t102 26.5q42 0 73.5 -16.5t51.5 -46.5q14 11 27 25l26 28h35l-61 -345q-13 -74 -10 -98t19 -24q15 0 32.5 17.5t31.5 59.5l35 -22
q-22 -46 -51 -67t-63 -21zM149 234q-17 -100 4.5 -155t68.5 -55q19 0 43 10.5t50.5 40t54.5 85.5l41 236q-18 39 -44.5 57t-62.5 18q-61 0 -96.5 -48t-49.5 -132zM481 666l-8 -47h-287l8 47h287z" />
    <glyph glyph-name="aogonek" unicode="&#x105;" horiz-adv-x="582" 
d="M522 -125q-25 -54 -60 -76t-76 -22q-43 0 -72.5 21t-29.5 60q0 37 22.5 62t55.5 43.5t64 32.5q-28 5 -45 27.5t-19 62.5q-34 -53 -73 -74.5t-80 -21.5q-59 0 -96 36.5t-50 97.5t1 136l4 22q13 70 46.5 120t81.5 76.5t102 26.5q42 0 73.5 -16.5t51.5 -46.5q14 11 27 25
l26 28h35l-61 -345q-13 -74 -10 -98t19 -24q15 0 32.5 17.5t31.5 59.5l35 -22q-16 -36 -42 -59.5t-55 -40.5l-54.5 -33t-42 -38t-16.5 -55q0 -50 41 -50q23 0 45 18t38 63zM149 234q-17 -100 4.5 -155t68.5 -55q19 0 43 10.5t50.5 40t54.5 85.5l41 236q-18 39 -44.5 57
t-62.5 18q-61 0 -96.5 -48t-49.5 -132z" />
    <glyph glyph-name="aring" unicode="&#xe5;" horiz-adv-x="581" 
d="M444 -5q-37 0 -58.5 22.5t-23.5 68.5q-34 -53 -73 -74.5t-80 -21.5q-59 0 -96 36.5t-50 97.5t1 136l4 22q13 70 46.5 120t81.5 76.5t102 26.5q42 0 73.5 -16.5t51.5 -46.5q14 11 27 25l26 28h35l-61 -345q-13 -74 -10 -98t19 -24q15 0 32.5 17.5t31.5 59.5l35 -22
q-22 -46 -51 -67t-63 -21zM149 234q-17 -100 4.5 -155t68.5 -55q19 0 43 10.5t50.5 40t54.5 85.5l41 236q-18 39 -44.5 57t-62.5 18q-61 0 -96.5 -48t-49.5 -132zM350 789q41 0 67 -17t36.5 -43.5t5.5 -55.5l-2 -11q-7 -41 -41 -71t-88 -30q-40 0 -65.5 17t-36.5 44t-6 56
l2 11q8 42 41.5 71t86.5 29zM326 587q58 0 70 75l5 25q6 37 -7 57t-42 20q-56 0 -70 -76l-4 -25q-7 -36 6.5 -56t41.5 -20z" />
    <glyph glyph-name="atilde" unicode="&#xe3;" horiz-adv-x="581" 
d="M444 -5q-37 0 -58.5 22.5t-23.5 68.5q-34 -53 -73 -74.5t-80 -21.5q-59 0 -96 36.5t-50 97.5t1 136l4 22q13 70 46.5 120t81.5 76.5t102 26.5q42 0 73.5 -16.5t51.5 -46.5q14 11 27 25l26 28h35l-61 -345q-13 -74 -10 -98t19 -24q15 0 32.5 17.5t31.5 59.5l35 -22
q-22 -46 -51 -67t-63 -21zM149 234q-17 -100 4.5 -155t68.5 -55q19 0 43 10.5t50.5 40t54.5 85.5l41 236q-18 39 -44.5 57t-62.5 18q-61 0 -96.5 -48t-49.5 -132zM400 589q-25 0 -43 13.5t-32.5 31t-28.5 31t-31 13.5t-32 -18.5t-25 -59.5h-31q14 74 40 106.5t59 32.5
q26 0 43.5 -13.5t31.5 -31t27.5 -31t30.5 -13.5t31.5 19t24.5 59h32q-14 -75 -39.5 -107t-57.5 -32z" />
    <glyph glyph-name="ae" unicode="&#xe6;" horiz-adv-x="799" 
d="M733 98q-35 -61 -88 -84.5t-105 -23.5q-68 0 -113.5 32.5t-62.5 89.5q-40 -69 -94 -95.5t-104 -26.5q-62 0 -94.5 30.5t-32.5 82.5q0 39 18.5 72.5t63 54.5t120.5 21h117l14 81q10 54 1.5 84.5t-29 43.5t-49.5 13q-28 0 -54 -12t-43 -43.5t-20 -91.5l-79 12
q3 47 27.5 84.5t67.5 60t101 22.5q60 0 93.5 -24t46.5 -59q33 40 79 61.5t101 21.5q51 0 86 -17t53 -44.5t18 -58.5q0 -49 -34.5 -86.5t-96.5 -58.5t-147 -21h-52q-14 -99 12.5 -148t88.5 -49q24 0 52 9t53 31t38 61zM454 289l-6 -38h45q64 0 104 12.5t62 33.5t30 45t8 47
q0 39 -23 61.5t-62 22.5q-53 0 -97.5 -43.5t-60.5 -140.5zM190 32q21 0 48 9t57.5 36t59.5 79q-2 15 -2 31t1 32h-108q-67 0 -94.5 -31t-27.5 -82q0 -74 66 -74z" />
    <glyph glyph-name="b" unicode="b" horiz-adv-x="568" 
d="M500 213q-12 -70 -46.5 -120t-82.5 -76.5t-103 -26.5q-42 0 -73 15.5t-52 43.5q-19 -10 -34 -23.5t-32 -30.5h-24l116 664q6 34 4 40.5t-17 8.5l-53 5l4 27h159l-58 -328q34 51 72 72t78 21q60 0 97 -36.5t50 -97.5t-1 -136zM344 470q-19 0 -43.5 -11.5t-51.5 -43
t-57 -91.5l-39 -226q18 -39 45 -56.5t64 -17.5q62 0 97.5 47.5t49.5 131.5l10 57q17 101 -5 155.5t-70 54.5z" />
    <glyph glyph-name="c" unicode="c" horiz-adv-x="485" 
d="M307 473q-50 0 -92 -43.5t-58 -140.5l-10 -60q-17 -104 7.5 -155.5t82.5 -51.5q23 0 49.5 9t50 31.5t37.5 61.5l46 -26q-35 -61 -85.5 -84.5t-103.5 -23.5q-65 0 -108 33t-59.5 92.5t-2.5 138.5l4 22q13 68 47 119.5t85 80.5t114 29q59 0 97 -25t51 -67t-4 -93l-81 -16
q26 80 7.5 124.5t-74.5 44.5z" />
    <glyph glyph-name="cacute" unicode="&#x107;" horiz-adv-x="485" 
d="M307 473q-50 0 -92 -43.5t-58 -140.5l-10 -60q-17 -104 7.5 -155.5t82.5 -51.5q23 0 49.5 9t50 31.5t37.5 61.5l46 -26q-35 -61 -85.5 -84.5t-103.5 -23.5q-65 0 -108 33t-59.5 92.5t-2.5 138.5l4 22q13 68 47 119.5t85 80.5t114 29q59 0 97 -25t51 -67t-4 -93l-81 -16
q26 80 7.5 124.5t-74.5 44.5zM319 579l-19 22q29 32 49.5 62.5t39.5 76.5h101q-38 -46 -78.5 -84t-92.5 -77z" />
    <glyph glyph-name="ccaron" unicode="&#x10d;" horiz-adv-x="485" 
d="M307 473q-50 0 -92 -43.5t-58 -140.5l-10 -60q-17 -104 7.5 -155.5t82.5 -51.5q23 0 49.5 9t50 31.5t37.5 61.5l46 -26q-35 -61 -85.5 -84.5t-103.5 -23.5q-65 0 -108 33t-59.5 92.5t-2.5 138.5l4 22q13 68 47 119.5t85 80.5t114 29q59 0 97 -25t51 -67t-4 -93l-81 -16
q26 80 7.5 124.5t-74.5 44.5zM476 723q-28 -26 -47 -45.5t-36 -40.5t-39 -53h-66q-10 32 -19.5 53.5t-22 41.5t-31.5 46l18 19q29 -25 53.5 -49.5t43.5 -49.5q29 25 60.5 49.5t68.5 49.5z" />
    <glyph glyph-name="ccedilla" unicode="&#xe7;" horiz-adv-x="485" 
d="M322 -133q0 -40 -34.5 -65t-84.5 -25q-40 0 -70 18t-31 60l51 14q-2 -35 9.5 -49.5t35.5 -14.5q27 0 43 19t16 45q0 22 -10 33.5t-39 11.5q-5 0 -12 -1t-12 -2l-5 26l32 54q-58 5 -96.5 39t-52.5 91.5t-1 132.5l4 22q13 68 47 119.5t85 80.5t114 29q59 0 97 -25t51 -67
t-4 -93l-81 -16q26 80 7.5 124.5t-74.5 44.5q-50 0 -92 -43.5t-58 -140.5l-10 -60q-17 -104 7.5 -155.5t82.5 -51.5q23 0 49.5 9t50 31.5t37.5 61.5l46 -26q-33 -57 -79 -81t-96 -27l-28 -48q50 0 77.5 -21t27.5 -54z" />
    <glyph glyph-name="ccircumflex" unicode="&#x109;" horiz-adv-x="485" 
d="M307 473q-50 0 -92 -43.5t-58 -140.5l-10 -60q-17 -104 7.5 -155.5t82.5 -51.5q23 0 49.5 9t50 31.5t37.5 61.5l46 -26q-35 -61 -85.5 -84.5t-103.5 -23.5q-65 0 -108 33t-59.5 92.5t-2.5 138.5l4 22q13 68 47 119.5t85 80.5t114 29q59 0 97 -25t51 -67t-4 -93l-81 -16
q26 80 7.5 124.5t-74.5 44.5zM454 598l-18 -19q-29 26 -53 50.5t-44 48.5q-28 -24 -60 -48.5l-69 -50.5l-17 21q29 27 47.5 46t35.5 40.5t39 53.5h66q11 -32 20 -54t21.5 -41.5t31.5 -46.5z" />
    <glyph glyph-name="cdotaccent" unicode="&#x10b;" horiz-adv-x="485" 
d="M307 473q-50 0 -92 -43.5t-58 -140.5l-10 -60q-17 -104 7.5 -155.5t82.5 -51.5q23 0 49.5 9t50 31.5t37.5 61.5l46 -26q-35 -61 -85.5 -84.5t-103.5 -23.5q-65 0 -108 33t-59.5 92.5t-2.5 138.5l4 22q13 68 47 119.5t85 80.5t114 29q59 0 97 -25t51 -67t-4 -93l-81 -16
q26 80 7.5 124.5t-74.5 44.5zM329 608q-22 0 -35.5 13t-13.5 35q0 25 16.5 42.5t43.5 17.5q23 0 36.5 -12.5t13.5 -34.5q0 -25 -16.5 -43t-44.5 -18z" />
    <glyph glyph-name="d" unicode="d" horiz-adv-x="585" 
d="M448 -5q-37 0 -59 24t-23 73q-35 -57 -75 -79.5t-81 -22.5q-59 0 -96.5 36.5t-50.5 97.5t1 136l4 22q13 70 47 120t82 76.5t102 26.5q41 0 72.5 -15.5t52.5 -43.5l37 213q6 35 4 41t-17 8l-54 5l4 27h160l-104 -590q-13 -74 -10 -98t19 -24q15 0 32.5 17.5t30.5 59.5
l36 -22q-22 -46 -51 -67t-63 -21zM149 234q-17 -100 4.5 -155t69.5 -55q20 0 44 11.5t51.5 42.5t56.5 90l40 227q-19 40 -46 58t-64 18q-61 0 -97 -48t-50 -132z" />
    <glyph glyph-name="eth" unicode="&#xf0;" horiz-adv-x="559" 
d="M495 256q-23 -128 -86.5 -197t-168.5 -69q-70 0 -114.5 30t-61.5 83t-7 120l3 20q15 101 75.5 154.5t145.5 53.5q44 0 80 -16t61 -48q2 71 -13.5 128t-45.5 100l-130 -84l-16 28l126 82q-21 25 -46 45.5t-54 37.5l14 26q70 -35 121 -86l133 86l16 -28l-126 -82
q63 -72 89 -163.5t9 -192.5zM142 197q-14 -86 11 -130.5t86 -44.5q64 0 103.5 50.5t59.5 166.5l11 68q2 8 3 16t2 15q-25 48 -59.5 64.5t-63.5 16.5q-52 0 -91 -40.5t-53 -127.5z" />
    <glyph glyph-name="dcaron" unicode="&#x10f;" horiz-adv-x="665" 
d="M448 -5q-37 0 -59 24t-23 73q-35 -57 -75 -79.5t-81 -22.5q-59 0 -96.5 36.5t-50.5 97.5t1 136l4 22q13 70 47 120t82 76.5t102 26.5q41 0 72.5 -15.5t52.5 -43.5l37 213q6 35 4 41t-17 8l-54 5l4 27h160l-104 -590q-13 -74 -10 -98t19 -24q15 0 32.5 17.5t30.5 59.5
l36 -22q-22 -46 -51 -67t-63 -21zM149 234q-17 -100 4.5 -155t69.5 -55q20 0 44 11.5t51.5 42.5t56.5 90l40 227q-19 40 -46 58t-64 18q-61 0 -97 -48t-50 -132zM621 526h-21l37 214h82q-22 -54 -45.5 -106t-52.5 -108z" />
    <glyph glyph-name="dcroat" unicode="&#x111;" horiz-adv-x="585" 
d="M448 -5q-37 0 -59 24t-23 73q-35 -57 -75 -79.5t-81 -22.5q-59 0 -96.5 36.5t-50.5 97.5t1 136l4 22q13 70 47 120t82 76.5t102 26.5q41 0 72.5 -15.5t52.5 -43.5l25 142h-152l5 32h152l7 39q6 35 4 41t-17 8l-54 5l4 27h160l-21 -120h77l-5 -32h-78l-77 -438
q-13 -74 -10 -98t19 -24q15 0 32.5 17.5t30.5 59.5l36 -22q-22 -46 -51 -67t-63 -21zM149 234q-17 -100 4.5 -155t69.5 -55q20 0 44 11.5t51.5 42.5t56.5 90l40 227q-19 40 -46 58t-64 18q-61 0 -97 -48t-50 -132z" />
    <glyph glyph-name="e" unicode="e" horiz-adv-x="502" 
d="M435 98q-35 -61 -88 -84.5t-105 -23.5q-69 0 -114.5 33t-63 92.5t-3.5 138.5l4 22q12 68 46.5 119.5t87 80.5t118.5 29q51 0 86 -17t53 -44.5t18 -58.5q0 -50 -35.5 -86t-98 -56.5t-144.5 -26.5l-52 -4q-13 -95 13.5 -142.5t87.5 -47.5q24 0 52 9t53 31t38 61zM156 289
l-7 -45l46 3q82 5 126 27t61 53t17 62q0 39 -22.5 61.5t-62.5 22.5q-53 0 -97 -43.5t-61 -140.5z" />
    <glyph glyph-name="eacute" unicode="&#xe9;" horiz-adv-x="502" 
d="M435 98q-35 -61 -88 -84.5t-105 -23.5q-69 0 -114.5 33t-63 92.5t-3.5 138.5l4 22q12 68 46.5 119.5t87 80.5t118.5 29q51 0 86 -17t53 -44.5t18 -58.5q0 -50 -35.5 -86t-98 -56.5t-144.5 -26.5l-52 -4q-13 -95 13.5 -142.5t87.5 -47.5q24 0 52 9t53 31t38 61zM156 289
l-7 -45l46 3q82 5 126 27t61 53t17 62q0 39 -22.5 61.5t-62.5 22.5q-53 0 -97 -43.5t-61 -140.5zM323 579l-19 22q29 32 49.5 62.5t39.5 76.5h101q-38 -46 -78.5 -84t-92.5 -77z" />
    <glyph glyph-name="ebreve" unicode="&#x115;" horiz-adv-x="502" 
d="M435 98q-35 -61 -88 -84.5t-105 -23.5q-69 0 -114.5 33t-63 92.5t-3.5 138.5l4 22q12 68 46.5 119.5t87 80.5t118.5 29q51 0 86 -17t53 -44.5t18 -58.5q0 -50 -35.5 -86t-98 -56.5t-144.5 -26.5l-52 -4q-13 -95 13.5 -142.5t87.5 -47.5q24 0 52 9t53 31t38 61zM156 289
l-7 -45l46 3q82 5 126 27t61 53t17 62q0 39 -22.5 61.5t-62.5 22.5q-53 0 -97 -43.5t-61 -140.5zM335 643q47 0 77.5 23.5t51.5 75.5l29 -9q-27 -82 -66 -118t-95 -36q-60 0 -90 39t-33 115l29 9q6 -52 28.5 -75.5t68.5 -23.5z" />
    <glyph glyph-name="ecaron" unicode="&#x11b;" horiz-adv-x="502" 
d="M435 98q-35 -61 -88 -84.5t-105 -23.5q-69 0 -114.5 33t-63 92.5t-3.5 138.5l4 22q12 68 46.5 119.5t87 80.5t118.5 29q51 0 86 -17t53 -44.5t18 -58.5q0 -50 -35.5 -86t-98 -56.5t-144.5 -26.5l-52 -4q-13 -95 13.5 -142.5t87.5 -47.5q24 0 52 9t53 31t38 61zM156 289
l-7 -45l46 3q82 5 126 27t61 53t17 62q0 39 -22.5 61.5t-62.5 22.5q-53 0 -97 -43.5t-61 -140.5zM480 723q-28 -26 -47 -45.5t-36 -40.5t-39 -53h-66q-10 32 -19.5 53.5t-22 41.5t-31.5 46l18 19q29 -25 53.5 -49.5t43.5 -49.5q29 25 60.5 49.5t68.5 49.5z" />
    <glyph glyph-name="ecircumflex" unicode="&#xea;" horiz-adv-x="502" 
d="M435 98q-35 -61 -88 -84.5t-105 -23.5q-69 0 -114.5 33t-63 92.5t-3.5 138.5l4 22q12 68 46.5 119.5t87 80.5t118.5 29q51 0 86 -17t53 -44.5t18 -58.5q0 -50 -35.5 -86t-98 -56.5t-144.5 -26.5l-52 -4q-13 -95 13.5 -142.5t87.5 -47.5q24 0 52 9t53 31t38 61zM156 289
l-7 -45l46 3q82 5 126 27t61 53t17 62q0 39 -22.5 61.5t-62.5 22.5q-53 0 -97 -43.5t-61 -140.5zM459 598l-18 -19q-29 26 -53 50.5t-44 48.5q-28 -24 -60 -48.5l-69 -50.5l-17 21q29 27 47.5 46t35.5 40.5t39 53.5h66q11 -32 20 -54t21.5 -41.5t31.5 -46.5z" />
    <glyph glyph-name="edieresis" unicode="&#xeb;" horiz-adv-x="502" 
d="M435 98q-35 -61 -88 -84.5t-105 -23.5q-69 0 -114.5 33t-63 92.5t-3.5 138.5l4 22q12 68 46.5 119.5t87 80.5t118.5 29q51 0 86 -17t53 -44.5t18 -58.5q0 -50 -35.5 -86t-98 -56.5t-144.5 -26.5l-52 -4q-13 -95 13.5 -142.5t87.5 -47.5q24 0 52 9t53 31t38 61zM156 289
l-7 -45l46 3q82 5 126 27t61 53t17 62q0 39 -22.5 61.5t-62.5 22.5q-53 0 -97 -43.5t-61 -140.5zM232 611q-21 0 -33.5 12.5t-12.5 32.5q0 23 16 40t41 17q22 0 34 -12t12 -32q0 -23 -15.5 -40.5t-41.5 -17.5zM434 611q-20 0 -33 12.5t-13 32.5q0 23 16 40t41 17
q22 0 34.5 -12t12.5 -32q0 -23 -15.5 -40.5t-42.5 -17.5z" />
    <glyph glyph-name="edotaccent" unicode="&#x117;" horiz-adv-x="502" 
d="M435 98q-35 -61 -88 -84.5t-105 -23.5q-69 0 -114.5 33t-63 92.5t-3.5 138.5l4 22q12 68 46.5 119.5t87 80.5t118.5 29q51 0 86 -17t53 -44.5t18 -58.5q0 -50 -35.5 -86t-98 -56.5t-144.5 -26.5l-52 -4q-13 -95 13.5 -142.5t87.5 -47.5q24 0 52 9t53 31t38 61zM156 289
l-7 -45l46 3q82 5 126 27t61 53t17 62q0 39 -22.5 61.5t-62.5 22.5q-53 0 -97 -43.5t-61 -140.5zM333 608q-22 0 -35.5 13t-13.5 35q0 25 16.5 42.5t43.5 17.5q23 0 36.5 -12.5t13.5 -34.5q0 -25 -16.5 -43t-44.5 -18z" />
    <glyph glyph-name="egrave" unicode="&#xe8;" horiz-adv-x="502" 
d="M435 98q-35 -61 -88 -84.5t-105 -23.5q-69 0 -114.5 33t-63 92.5t-3.5 138.5l4 22q12 68 46.5 119.5t87 80.5t118.5 29q51 0 86 -17t53 -44.5t18 -58.5q0 -50 -35.5 -86t-98 -56.5t-144.5 -26.5l-52 -4q-13 -95 13.5 -142.5t87.5 -47.5q24 0 52 9t53 31t38 61zM156 289
l-7 -45l46 3q82 5 126 27t61 53t17 62q0 39 -22.5 61.5t-62.5 22.5q-53 0 -97 -43.5t-61 -140.5zM325 579q-38 39 -65 77t-49 84h91q5 -47 16 -78t30 -66z" />
    <glyph glyph-name="emacron" unicode="&#x113;" horiz-adv-x="502" 
d="M435 98q-35 -61 -88 -84.5t-105 -23.5q-69 0 -114.5 33t-63 92.5t-3.5 138.5l4 22q12 68 46.5 119.5t87 80.5t118.5 29q51 0 86 -17t53 -44.5t18 -58.5q0 -50 -35.5 -86t-98 -56.5t-144.5 -26.5l-52 -4q-13 -95 13.5 -142.5t87.5 -47.5q24 0 52 9t53 31t38 61zM156 289
l-7 -45l46 3q82 5 126 27t61 53t17 62q0 39 -22.5 61.5t-62.5 22.5q-53 0 -97 -43.5t-61 -140.5zM483 666l-8 -47h-287l8 47h287z" />
    <glyph glyph-name="eogonek" unicode="&#x119;" horiz-adv-x="502" 
d="M393 -125q-25 -54 -59.5 -76t-74.5 -22q-45 0 -74.5 21.5t-29.5 63.5q0 33 17.5 56.5t44 41t54.5 32.5q-7 -1 -14 -1.5t-15 -0.5q-69 0 -114.5 33t-63 92.5t-3.5 138.5l4 22q12 68 46.5 119.5t87 80.5t118.5 29q51 0 86 -17t53 -44.5t18 -58.5q0 -50 -35.5 -86t-98 -56.5
t-144.5 -26.5l-52 -4q-13 -95 13.5 -142.5t87.5 -47.5q24 0 52 9t53 31t38 61l47 -25q-18 -32 -45 -55.5t-56.5 -42.5t-55.5 -38.5t-42.5 -44t-16.5 -58.5q0 -52 41 -52q24 0 45.5 18t37.5 63zM156 289l-7 -45l46 3q82 5 126 27t61 53t17 62q0 39 -22.5 61.5t-62.5 22.5
q-53 0 -97 -43.5t-61 -140.5z" />
    <glyph glyph-name="f" unicode="f" horiz-adv-x="331" 
d="M383 463h-160l-119 -676h-82l111 627q6 34 4 40.5t-17 8.5l-55 5l5 27h77l13 72q9 49 30 90.5t59.5 67t100.5 25.5q58 0 91.5 -21.5t43.5 -56.5t-4 -77l-82 -16q44 139 -49 139q-26 0 -46 -11.5t-35 -41t-25 -84.5l-15 -86h159z" />
    <glyph glyph-name="g" unicode="g" horiz-adv-x="564" 
d="M428 9q-11 -61 -40.5 -114t-81.5 -85.5t-131 -32.5q-78 0 -116 42t-33 109l57 12q-7 -72 18.5 -102.5t73.5 -30.5q62 0 106.5 42.5t63.5 149.5l14 76q-34 -47 -72 -66t-77 -19q-59 0 -96.5 36.5t-50.5 97.5t1 136l4 22q13 70 47 120t82 76.5t102 26.5q43 0 75 -16.5
t53 -46.5q13 11 26 24.5t26 28.5h35zM149 234q-17 -100 4.5 -155t69.5 -55q20 0 44 10.5t51.5 40t55.5 85.5l41 234q-18 41 -45.5 59t-64.5 18q-61 0 -97 -48t-50 -132z" />
    <glyph glyph-name="gbreve" unicode="&#x11f;" horiz-adv-x="564" 
d="M428 9q-11 -61 -40.5 -114t-81.5 -85.5t-131 -32.5q-78 0 -116 42t-33 109l57 12q-7 -72 18.5 -102.5t73.5 -30.5q62 0 106.5 42.5t63.5 149.5l14 76q-34 -47 -72 -66t-77 -19q-59 0 -96.5 36.5t-50.5 97.5t1 136l4 22q13 70 47 120t82 76.5t102 26.5q43 0 75 -16.5
t53 -46.5q13 11 26 24.5t26 28.5h35zM149 234q-17 -100 4.5 -155t69.5 -55q20 0 44 10.5t51.5 40t55.5 85.5l41 234q-18 41 -45.5 59t-64.5 18q-61 0 -97 -48t-50 -132zM336 643q47 0 77.5 23.5t51.5 75.5l29 -9q-27 -82 -66 -118t-95 -36q-60 0 -90 39t-33 115l29 9
q6 -52 28.5 -75.5t68.5 -23.5z" />
    <glyph glyph-name="gcircumflex" unicode="&#x11d;" horiz-adv-x="564" 
d="M428 9q-11 -61 -40.5 -114t-81.5 -85.5t-131 -32.5q-78 0 -116 42t-33 109l57 12q-7 -72 18.5 -102.5t73.5 -30.5q62 0 106.5 42.5t63.5 149.5l14 76q-34 -47 -72 -66t-77 -19q-59 0 -96.5 36.5t-50.5 97.5t1 136l4 22q13 70 47 120t82 76.5t102 26.5q43 0 75 -16.5
t53 -46.5q13 11 26 24.5t26 28.5h35zM149 234q-17 -100 4.5 -155t69.5 -55q20 0 44 10.5t51.5 40t55.5 85.5l41 234q-18 41 -45.5 59t-64.5 18q-61 0 -97 -48t-50 -132zM459 598l-18 -19q-29 26 -53 50.5t-44 48.5q-28 -24 -60 -48.5l-69 -50.5l-17 21q29 27 47.5 46
t35.5 40.5t39 53.5h66q11 -32 20 -54t21.5 -41.5t31.5 -46.5z" />
    <glyph glyph-name="uni0123" unicode="&#x123;" horiz-adv-x="564" 
d="M428 9q-11 -61 -40.5 -114t-81.5 -85.5t-131 -32.5q-78 0 -116 42t-33 109l57 12q-7 -72 18.5 -102.5t73.5 -30.5q62 0 106.5 42.5t63.5 149.5l14 76q-34 -47 -72 -66t-77 -19q-59 0 -96.5 36.5t-50.5 97.5t1 136l4 22q13 70 47 120t82 76.5t102 26.5q43 0 75 -16.5
t53 -46.5q13 11 26 24.5t26 28.5h35zM149 234q-17 -100 4.5 -155t69.5 -55q20 0 44 10.5t51.5 40t55.5 85.5l41 234q-18 41 -45.5 59t-64.5 18q-61 0 -97 -48t-50 -132zM412 749l19 -16q-22 -34 -36.5 -68t-25.5 -81h-89q26 50 57 87.5t75 77.5z" />
    <glyph glyph-name="gdotaccent" unicode="&#x121;" horiz-adv-x="564" 
d="M428 9q-11 -61 -40.5 -114t-81.5 -85.5t-131 -32.5q-78 0 -116 42t-33 109l57 12q-7 -72 18.5 -102.5t73.5 -30.5q62 0 106.5 42.5t63.5 149.5l14 76q-34 -47 -72 -66t-77 -19q-59 0 -96.5 36.5t-50.5 97.5t1 136l4 22q13 70 47 120t82 76.5t102 26.5q43 0 75 -16.5
t53 -46.5q13 11 26 24.5t26 28.5h35zM149 234q-17 -100 4.5 -155t69.5 -55q20 0 44 10.5t51.5 40t55.5 85.5l41 234q-18 41 -45.5 59t-64.5 18q-61 0 -97 -48t-50 -132zM333 608q-22 0 -35.5 13t-13.5 35q0 25 16.5 42.5t43.5 17.5q23 0 36.5 -12.5t13.5 -34.5
q0 -25 -16.5 -43t-44.5 -18z" />
    <glyph glyph-name="h" unicode="h" horiz-adv-x="611" 
d="M588 83q-22 -46 -51.5 -67t-64.5 -21q-45 0 -67.5 31.5t-8.5 100.5l39 196q16 76 -1 110t-56 34q-24 0 -53.5 -13t-62.5 -45.5t-67 -92.5l-56 -316h-82l116 659q6 34 4 40.5t-17 8.5l-55 5l5 27h159l-61 -347q44 60 92 86t96 26q73 0 106 -49t16 -132l-41 -200
q-10 -51 -9 -73.5t20 -22.5q16 0 34 17.5t31 59.5z" />
    <glyph glyph-name="hbar" unicode="&#x127;" horiz-adv-x="611" 
d="M588 83q-22 -46 -51.5 -67t-64.5 -21q-45 0 -67.5 31.5t-8.5 100.5l39 196q16 76 -1 110t-56 34q-24 0 -53.5 -13t-62.5 -45.5t-67 -92.5l-56 -316h-82l104 588h-78l6 32h77l7 39q6 34 4 40.5t-17 8.5l-55 5l5 27h159l-21 -120h153l-6 -32h-153l-34 -195q44 60 92 86
t96 26q73 0 106 -49t16 -132l-41 -200q-10 -51 -9 -73.5t20 -22.5q16 0 34 17.5t31 59.5z" />
    <glyph glyph-name="hcircumflex" unicode="&#x125;" horiz-adv-x="611" 
d="M588 83q-22 -46 -51.5 -67t-64.5 -21q-45 0 -67.5 31.5t-8.5 100.5l39 196q16 76 -1 110t-56 34q-24 0 -53.5 -13t-62.5 -45.5t-67 -92.5l-56 -316h-82l116 659q6 34 4 40.5t-17 8.5l-55 5l5 27h159l-61 -347q44 60 92 86t96 26q73 0 106 -49t16 -132l-41 -200
q-10 -51 -9 -73.5t20 -22.5q16 0 34 17.5t31 59.5zM470 820l-18 -19q-29 26 -53 50.5t-44 48.5q-28 -24 -60 -48.5l-69 -50.5l-17 21q29 27 47.5 46t35.5 40.5t39 53.5h66q11 -32 20 -54t21.5 -41.5t31.5 -46.5z" />
    <glyph glyph-name="i" unicode="i" horiz-adv-x="300" 
d="M212 608q-49 0 -49 48q0 25 16.5 42.5t43.5 17.5q23 0 36.5 -12.5t13.5 -34.5q0 -25 -16.5 -43t-44.5 -18zM66 468l5 27h159l-60 -345q-13 -74 -10 -98t19 -24q15 0 32.5 17.5t30.5 59.5l36 -22q-22 -46 -51.5 -67t-62.5 -21q-46 0 -68.5 36t-9.5 111l47 272q6 34 4 40.5
t-17 8.5z" />
    <glyph glyph-name="dotlessi" unicode="&#x131;" horiz-adv-x="300" 
d="M66 468l5 27h159l-60 -345q-13 -74 -10 -98t19 -24q15 0 32.5 17.5t30.5 59.5l36 -22q-22 -46 -51.5 -67t-62.5 -21q-46 0 -68.5 36t-9.5 111l48 272q6 34 3.5 40.5t-17.5 8.5z" />
    <glyph glyph-name="iacute" unicode="&#xed;" horiz-adv-x="300" 
d="M66 468l5 27h159l-60 -345q-13 -74 -10 -98t19 -24q15 0 32.5 17.5t30.5 59.5l36 -22q-22 -46 -51.5 -67t-62.5 -21q-46 0 -68.5 36t-9.5 111l48 272q6 34 3.5 40.5t-17.5 8.5zM183 579l-19 22q29 32 49.5 62.5t39.5 76.5h101q-38 -46 -78.5 -84t-92.5 -77z" />
    <glyph glyph-name="ibreve" unicode="&#x12d;" horiz-adv-x="300" 
d="M66 468l5 27h159l-60 -345q-13 -74 -10 -98t19 -24q15 0 32.5 17.5t30.5 59.5l36 -22q-22 -46 -51.5 -67t-62.5 -21q-46 0 -68.5 36t-9.5 111l48 272q6 34 3.5 40.5t-17.5 8.5zM195 643q47 0 77.5 23.5t51.5 75.5l29 -9q-27 -82 -66 -118t-95 -36q-60 0 -90 39t-33 115
l29 9q6 -52 28.5 -75.5t68.5 -23.5z" />
    <glyph glyph-name="icircumflex" unicode="&#xee;" horiz-adv-x="300" 
d="M66 468l5 27h159l-60 -345q-13 -74 -10 -98t19 -24q15 0 32.5 17.5t30.5 59.5l36 -22q-22 -46 -51.5 -67t-62.5 -21q-46 0 -68.5 36t-9.5 111l48 272q6 34 3.5 40.5t-17.5 8.5zM318 598l-18 -19q-29 26 -53 50.5t-44 48.5q-28 -24 -60 -48.5l-69 -50.5l-17 21
q29 27 47.5 46t35.5 40.5t39 53.5h66q11 -32 20 -54t21.5 -41.5t31.5 -46.5z" />
    <glyph glyph-name="idieresis" unicode="&#xef;" horiz-adv-x="300" 
d="M66 468l5 27h159l-60 -345q-13 -74 -10 -98t19 -24q15 0 32.5 17.5t30.5 59.5l36 -22q-22 -46 -51.5 -67t-62.5 -21q-46 0 -68.5 36t-9.5 111l48 272q6 34 3.5 40.5t-17.5 8.5zM92 611q-21 0 -33.5 12.5t-12.5 32.5q0 23 16 40t41 17q22 0 34 -12t12 -32
q0 -23 -15.5 -40.5t-41.5 -17.5zM294 611q-20 0 -33 12.5t-13 32.5q0 23 16 40t41 17q22 0 34.5 -12t12.5 -32q0 -23 -15.5 -40.5t-42.5 -17.5z" />
    <glyph glyph-name="igrave" unicode="&#xec;" horiz-adv-x="300" 
d="M66 468l5 27h159l-60 -345q-13 -74 -10 -98t19 -24q15 0 32.5 17.5t30.5 59.5l36 -22q-22 -46 -51.5 -67t-62.5 -21q-46 0 -68.5 36t-9.5 111l48 272q6 34 3.5 40.5t-17.5 8.5zM185 579q-38 39 -65 77t-49 84h91q5 -47 16 -78t30 -66z" />
    <glyph glyph-name="ij" unicode="&#x133;" 
d="M212 608q-49 0 -49 48q0 25 16.5 42.5t43.5 17.5q23 0 36.5 -12.5t13.5 -34.5q0 -25 -16.5 -43t-44.5 -18zM66 468l5 27h159l-60 -345q-13 -74 -10 -98t19 -24q15 0 32.5 17.5t30.5 59.5l36 -22q-22 -46 -51.5 -67t-62.5 -21q-46 0 -68.5 36t-9.5 111l47 272q6 34 4 40.5
t-17 8.5zM511 608q-23 0 -36 14t-11 37q2 25 19.5 41t42.5 16q24 0 37 -13.5t11 -36.5q-2 -24 -19.5 -41t-43.5 -17zM367 468l4 27h159l-96 -547q-8 -45 -28 -84t-56 -63t-92 -24q-52 0 -83.5 29.5t-27.5 86.5l57 16q-4 -55 11 -77.5t40 -22.5q36 0 59.5 27.5t36.5 103.5
l83 474q6 34 4 40.5t-17 8.5z" />
    <glyph glyph-name="imacron" unicode="&#x12b;" horiz-adv-x="300" 
d="M66 468l5 27h159l-60 -345q-13 -74 -10 -98t19 -24q15 0 32.5 17.5t30.5 59.5l36 -22q-22 -46 -51.5 -67t-62.5 -21q-46 0 -68.5 36t-9.5 111l48 272q6 34 3.5 40.5t-17.5 8.5zM343 666l-8 -47h-287l8 47h287z" />
    <glyph glyph-name="iogonek" unicode="&#x12f;" horiz-adv-x="293" 
d="M205 608q-23 0 -36.5 13t-13.5 35q0 25 17 42.5t44 17.5q23 0 36.5 -12.5t13.5 -34.5q0 -25 -16.5 -43t-44.5 -18zM59 468l5 27h159l-61 -345q-13 -74 -9.5 -98t19.5 -24q14 0 32 17.5t31 59.5l35 -22q-16 -34 -39.5 -56t-49.5 -38.5t-49 -33.5t-37.5 -40t-14.5 -58
q0 -50 42 -50q23 0 45 18t38 63l50 -13q-25 -54 -60 -76t-77 -22q-43 0 -72.5 21t-29.5 60q0 36 20 61.5t49 44t57 33.5q-40 5 -57.5 41t-5.5 104l47 272q6 34 4 40.5t-17 8.5z" />
    <glyph glyph-name="itilde" unicode="&#x129;" horiz-adv-x="300" 
d="M66 468l5 27h159l-60 -345q-13 -74 -10 -98t19 -24q15 0 32.5 17.5t30.5 59.5l36 -22q-22 -46 -51.5 -67t-62.5 -21q-46 0 -68.5 36t-9.5 111l48 272q6 34 3.5 40.5t-17.5 8.5zM262 589q-25 0 -43 13.5t-32.5 31t-28.5 31t-31 13.5t-32 -18.5t-25 -59.5h-31
q14 74 40 106.5t59 32.5q26 0 43.5 -13.5t31.5 -31t27.5 -31t30.5 -13.5t31.5 19t24.5 59h32q-14 -75 -39.5 -107t-57.5 -32z" />
    <glyph glyph-name="j" unicode="j" horiz-adv-x="284" 
d="M212 608q-23 0 -36 14t-11 37q2 25 19.5 41t42.5 16q24 0 37 -13.5t11 -36.5q-2 -24 -19.5 -41t-43.5 -17zM68 468l4 27h159l-96 -547q-8 -45 -28 -84t-56 -63t-92 -24q-52 0 -83.5 29.5t-27.5 86.5l57 16q-4 -55 11 -77.5t40 -22.5q36 0 59.5 27.5t36.5 103.5l83 474
q6 34 4 40.5t-17 8.5z" />
    <glyph glyph-name="uni0237" unicode="&#x237;" horiz-adv-x="284" 
d="M68 468l4 27h159l-96 -547q-8 -45 -28 -84t-56 -63t-92 -24q-52 0 -83.5 29.5t-27.5 86.5l57 16q-4 -55 11 -77.5t40 -22.5q36 0 59.5 27.5t36.5 103.5l83 474q6 34 4 40.5t-17 8.5z" />
    <glyph glyph-name="jcircumflex" unicode="&#x135;" horiz-adv-x="284" 
d="M68 468l4 27h159l-96 -547q-8 -45 -28 -84t-56 -63t-92 -24q-52 0 -83.5 29.5t-27.5 86.5l57 16q-4 -55 11 -77.5t40 -22.5q36 0 59.5 27.5t36.5 103.5l83 474q6 34 4 40.5t-17 8.5zM322 598l-18 -19q-29 26 -53 50.5t-44 48.5q-28 -24 -60 -48.5l-69 -50.5l-17 21
q29 27 47.5 46t35.5 40.5t39 53.5h66q11 -32 20 -54t21.5 -41.5t31.5 -46.5z" />
    <glyph glyph-name="k" unicode="k" horiz-adv-x="521" 
d="M357 0l-112 260l-81 -72l-33 -188h-81l116 659q6 34 4 40.5t-17 8.5l-54 5l4 27h159l-88 -499l120 112l81.5 72.5t64 47.5t67.5 32l16 -85q-66 -13 -119 -39.5t-97 -64.5l108 -241q13 -30 19 -35.5t21 -7.5l51 -6l-5 -26h-144z" />
    <glyph glyph-name="uni0137" unicode="&#x137;" horiz-adv-x="521" 
d="M357 0l-112 260l-81 -72l-33 -188h-81l116 659q6 34 4 40.5t-17 8.5l-54 5l4 27h159l-88 -499l120 112l81.5 72.5t64 47.5t67.5 32l16 -85q-66 -13 -119 -39.5t-97 -64.5l108 -241q13 -30 19 -35.5t21 -7.5l51 -6l-5 -26h-144zM156 -242l-18 16q23 35 37.5 69t24.5 80h88
q-26 -49 -57 -87t-75 -78z" />
    <glyph glyph-name="kgreenlandic" unicode="&#x138;" horiz-adv-x="533" 
d="M370 0l-112 260l-81 -73l-34 -187h-80l73 414q6 34 4 40.5t-18 8.5l-53 5l4 27h159l-46 -254l121 112l81.5 72.5t64 47.5t67.5 32l15 -85q-66 -13 -119 -39.5t-97 -64.5l108 -241q14 -30 19.5 -35.5t21.5 -7.5l50 -6l-4 -26h-144z" />
    <glyph glyph-name="l" unicode="l" horiz-adv-x="291" 
d="M99 713l4 27h159l-103 -590q-13 -74 -9.5 -98t19.5 -24q14 0 32 17.5t31 59.5l35 -22q-22 -46 -51 -67t-62 -21q-47 0 -69 36t-9 111l90 517q6 34 4 40.5t-17 8.5z" />
    <glyph glyph-name="lacute" unicode="&#x13a;" horiz-adv-x="291" 
d="M99 713l4 27h159l-103 -590q-13 -74 -9.5 -98t19.5 -24q14 0 32 17.5t31 59.5l35 -22q-22 -46 -51 -67t-62 -21q-47 0 -69 36t-9 111l90 517q6 34 4 40.5t-17 8.5zM225 801l-19 22q29 32 49.5 62.5t39.5 76.5h101q-38 -46 -78.5 -84t-92.5 -77z" />
    <glyph glyph-name="lcaron" unicode="&#x13e;" horiz-adv-x="364" 
d="M99 713l4 27h159l-103 -590q-13 -74 -9.5 -98t19.5 -24q14 0 32 17.5t31 59.5l35 -22q-22 -46 -51 -67t-62 -21q-47 0 -69 36t-9 111l90 517q6 34 4 40.5t-17 8.5zM320 526h-21l37 214h82q-22 -54 -45.5 -106t-52.5 -108z" />
    <glyph glyph-name="uni013C" unicode="&#x13c;" horiz-adv-x="293" 
d="M99 713l4 27h159l-103 -590q-13 -74 -9.5 -98t19.5 -24q14 0 32 17.5t31 59.5l35 -22q-22 -46 -51 -67t-62 -21q-47 0 -69 36t-9 111l90 517q6 34 4 40.5t-17 8.5zM30 -242l-18 16q23 35 37.5 69t24.5 80h88q-26 -49 -57 -87t-75 -78z" />
    <glyph glyph-name="ldot" unicode="&#x140;" horiz-adv-x="309" 
d="M99 713l4 27h159l-103 -590q-13 -74 -9.5 -98t19.5 -24q14 0 32 17.5t31 59.5l35 -22q-22 -46 -51 -67t-62 -21q-47 0 -69 36t-9 111l90 517q6 34 4 40.5t-17 8.5zM308 330q-22 0 -35.5 13t-13.5 35q0 25 16.5 42.5t43.5 17.5q23 0 36.5 -12.5t13.5 -34.5
q0 -25 -16.5 -43t-44.5 -18z" />
    <glyph glyph-name="lslash" unicode="&#x142;" horiz-adv-x="330" 
d="M283 83q-22 -46 -51.5 -67t-62.5 -21q-46 0 -68.5 36t-9.5 111l33 189l-108 -50l-9 31l123 57l51 290q6 34 4 40.5t-17 8.5l-54 5l5 27h159l-58 -330l107 49l10 -30l-123 -57l-39 -222q-13 -74 -10 -98t19 -24q15 0 32.5 17.5t30.5 59.5z" />
    <glyph glyph-name="m" unicode="m" horiz-adv-x="920" 
d="M894 83q-22 -46 -51.5 -67t-64.5 -21q-46 0 -68 32t-9 100l40 196q15 76 -1.5 110t-51.5 34t-80.5 -30.5t-95.5 -117.5l-56 -319h-82l57 323q14 76 -2 110t-51 34t-81 -31t-96 -120l-56 -316h-82l72 414q6 34 4 40.5t-17 8.5l-54 5l5 27h156l-17 -105q44 61 90 88t94 27
q56 0 87.5 -32.5t34.5 -88.5q44 65 91.5 93t96.5 28q71 0 102.5 -49t14.5 -132l-41 -200q-10 -51 -9 -73.5t20 -22.5q17 0 34.5 17.5t30.5 59.5z" />
    <glyph glyph-name="n" unicode="n" horiz-adv-x="616" 
d="M594 83q-22 -46 -51.5 -67t-64.5 -21q-46 0 -68 32t-9 100l40 196q15 76 -2 110t-56 34q-24 0 -53.5 -13t-62 -45.5t-67.5 -92.5l-55 -316h-82l72 414q6 34 4 40.5t-17 8.5l-54 5l5 27h156l-18 -106q44 62 92.5 89t97.5 27q74 0 106.5 -49t15.5 -132l-41 -200
q-10 -51 -9 -73.5t20 -22.5q17 0 34.5 17.5t30.5 59.5z" />
    <glyph glyph-name="nacute" unicode="&#x144;" horiz-adv-x="617" 
d="M594 83q-22 -46 -51.5 -67t-64.5 -21q-46 0 -68 32t-9 100l40 196q15 76 -2 110t-56 34q-24 0 -53.5 -13t-62 -45.5t-67.5 -92.5l-55 -316h-82l72 414q6 34 4 40.5t-17 8.5l-54 5l5 27h156l-18 -106q44 62 92.5 89t97.5 27q74 0 106.5 -49t15.5 -132l-41 -200
q-10 -51 -9 -73.5t20 -22.5q17 0 34.5 17.5t30.5 59.5zM372 579l-19 22q29 32 49.5 62.5t39.5 76.5h101q-38 -46 -78.5 -84t-92.5 -77z" />
    <glyph glyph-name="napostrophe" unicode="&#x149;" horiz-adv-x="717" 
d="M693 83q-22 -46 -51.5 -67t-64.5 -21q-46 0 -68 32t-9 100l40 196q15 76 -2 110t-56 34q-24 0 -53.5 -13t-62 -45.5t-67.5 -92.5l-55 -316h-82l72 414q6 34 4 40.5t-17 8.5l-54 5l5 27h156l-18 -106q44 62 92.5 89t97.5 27q74 0 106.5 -49t15.5 -132l-41 -200
q-10 -51 -9 -73.5t20 -22.5q17 0 34.5 17.5t30.5 59.5zM154 635q0 -43 -34 -95.5t-93 -108.5l-19 20q40 41 59.5 73.5t26.5 60.5q-20 1 -32 13t-12 33q0 25 15 42t40 17q22 0 35.5 -14.5t13.5 -40.5z" />
    <glyph glyph-name="ncaron" unicode="&#x148;" horiz-adv-x="617" 
d="M594 83q-22 -46 -51.5 -67t-64.5 -21q-46 0 -68 32t-9 100l40 196q15 76 -2 110t-56 34q-24 0 -53.5 -13t-62 -45.5t-67.5 -92.5l-55 -316h-82l72 414q6 34 4 40.5t-17 8.5l-54 5l5 27h156l-18 -106q44 62 92.5 89t97.5 27q74 0 106.5 -49t15.5 -132l-41 -200
q-10 -51 -9 -73.5t20 -22.5q17 0 34.5 17.5t30.5 59.5zM529 723q-28 -26 -47 -45.5t-36 -40.5t-39 -53h-66q-10 32 -19.5 53.5t-22 41.5t-31.5 46l18 19q29 -25 53.5 -49.5t43.5 -49.5q29 25 60.5 49.5t68.5 49.5z" />
    <glyph glyph-name="uni0146" unicode="&#x146;" horiz-adv-x="617" 
d="M594 83q-22 -46 -51.5 -67t-64.5 -21q-46 0 -68 32t-9 100l40 196q15 76 -2 110t-56 34q-24 0 -53.5 -13t-62 -45.5t-67.5 -92.5l-55 -316h-82l72 414q6 34 4 40.5t-17 8.5l-54 5l5 27h156l-18 -106q44 62 92.5 89t97.5 27q74 0 106.5 -49t15.5 -132l-41 -200
q-10 -51 -9 -73.5t20 -22.5q17 0 34.5 17.5t30.5 59.5zM177 -242l-18 16q23 35 37.5 69t24.5 80h88q-26 -49 -57 -87t-75 -78z" />
    <glyph glyph-name="eng" unicode="&#x14b;" horiz-adv-x="596" 
d="M453 -52q-8 -45 -28 -84t-56 -63t-92 -24q-53 0 -86 28t-26 88l57 16q-6 -59 10.5 -79.5t41.5 -20.5q36 0 59.5 27.5t36.5 103.5l68 383q13 76 -3 110t-55 34q-24 0 -53.5 -13t-62 -45.5t-67.5 -92.5l-56 -316h-82l73 414q6 34 4 40.5t-17 8.5l-54 5l5 27h156l-19 -108
q44 63 93 90.5t98 27.5q74 0 105.5 -49t16.5 -132z" />
    <glyph glyph-name="ntilde" unicode="&#xf1;" horiz-adv-x="617" 
d="M594 83q-22 -46 -51.5 -67t-64.5 -21q-46 0 -68 32t-9 100l40 196q15 76 -2 110t-56 34q-24 0 -53.5 -13t-62 -45.5t-67.5 -92.5l-55 -316h-82l72 414q6 34 4 40.5t-17 8.5l-54 5l5 27h156l-18 -106q44 62 92.5 89t97.5 27q74 0 106.5 -49t15.5 -132l-41 -200
q-10 -51 -9 -73.5t20 -22.5q17 0 34.5 17.5t30.5 59.5zM451 589q-25 0 -43 13.5t-32.5 31t-28.5 31t-31 13.5t-32 -18.5t-25 -59.5h-31q14 74 40 106.5t59 32.5q26 0 43.5 -13.5t31.5 -31t27.5 -31t30.5 -13.5t31.5 19t24.5 59h32q-14 -75 -39.5 -107t-57.5 -32z" />
    <glyph glyph-name="o" unicode="o" horiz-adv-x="554" 
d="M492 242l-4 -22q-19 -109 -83 -169.5t-164 -60.5q-70 0 -114.5 35.5t-61.5 95t-4 131.5l4 23q20 109 83 169.5t162 60.5q71 0 116 -35.5t62 -95.5t4 -132zM406 268q18 102 -9 154t-89 52q-55 0 -94.5 -43.5t-56.5 -142.5l-10 -61q-18 -102 9 -154.5t88 -52.5
q56 0 95.5 44t55.5 143z" />
    <glyph glyph-name="oacute" unicode="&#xf3;" horiz-adv-x="554" 
d="M492 242l-4 -22q-19 -109 -83 -169.5t-164 -60.5q-70 0 -114.5 35.5t-61.5 95t-4 131.5l4 23q20 109 83 169.5t162 60.5q71 0 116 -35.5t62 -95.5t4 -132zM406 268q18 102 -9 154t-89 52q-55 0 -94.5 -43.5t-56.5 -142.5l-10 -61q-18 -102 9 -154.5t88 -52.5
q56 0 95.5 44t55.5 143zM330 579l-19 22q29 32 49.5 62.5t39.5 76.5h101q-38 -46 -78.5 -84t-92.5 -77z" />
    <glyph glyph-name="obreve" unicode="&#x14f;" horiz-adv-x="554" 
d="M492 242l-4 -22q-19 -109 -83 -169.5t-164 -60.5q-70 0 -114.5 35.5t-61.5 95t-4 131.5l4 23q20 109 83 169.5t162 60.5q71 0 116 -35.5t62 -95.5t4 -132zM406 268q18 102 -9 154t-89 52q-55 0 -94.5 -43.5t-56.5 -142.5l-10 -61q-18 -102 9 -154.5t88 -52.5
q56 0 95.5 44t55.5 143zM342 643q47 0 77.5 23.5t51.5 75.5l29 -9q-27 -82 -66 -118t-95 -36q-60 0 -90 39t-33 115l29 9q6 -52 28.5 -75.5t68.5 -23.5z" />
    <glyph glyph-name="ocircumflex" unicode="&#xf4;" horiz-adv-x="554" 
d="M492 242l-4 -22q-19 -109 -83 -169.5t-164 -60.5q-70 0 -114.5 35.5t-61.5 95t-4 131.5l4 23q20 109 83 169.5t162 60.5q71 0 116 -35.5t62 -95.5t4 -132zM406 268q18 102 -9 154t-89 52q-55 0 -94.5 -43.5t-56.5 -142.5l-10 -61q-18 -102 9 -154.5t88 -52.5
q56 0 95.5 44t55.5 143zM465 598l-18 -19q-29 26 -53 50.5t-44 48.5q-28 -24 -60 -48.5l-69 -50.5l-17 21q29 27 47.5 46t35.5 40.5t39 53.5h66q11 -32 20 -54t21.5 -41.5t31.5 -46.5z" />
    <glyph glyph-name="odieresis" unicode="&#xf6;" horiz-adv-x="554" 
d="M492 242l-4 -22q-19 -109 -83 -169.5t-164 -60.5q-70 0 -114.5 35.5t-61.5 95t-4 131.5l4 23q20 109 83 169.5t162 60.5q71 0 116 -35.5t62 -95.5t4 -132zM406 268q18 102 -9 154t-89 52q-55 0 -94.5 -43.5t-56.5 -142.5l-10 -61q-18 -102 9 -154.5t88 -52.5
q56 0 95.5 44t55.5 143zM239 611q-21 0 -33.5 12.5t-12.5 32.5q0 23 16 40t41 17q22 0 34 -12t12 -32q0 -23 -15.5 -40.5t-41.5 -17.5zM441 611q-20 0 -33 12.5t-13 32.5q0 23 16 40t41 17q22 0 34.5 -12t12.5 -32q0 -23 -15.5 -40.5t-42.5 -17.5z" />
    <glyph glyph-name="ograve" unicode="&#xf2;" horiz-adv-x="554" 
d="M492 242l-4 -22q-19 -109 -83 -169.5t-164 -60.5q-70 0 -114.5 35.5t-61.5 95t-4 131.5l4 23q20 109 83 169.5t162 60.5q71 0 116 -35.5t62 -95.5t4 -132zM406 268q18 102 -9 154t-89 52q-55 0 -94.5 -43.5t-56.5 -142.5l-10 -61q-18 -102 9 -154.5t88 -52.5
q56 0 95.5 44t55.5 143zM332 579q-38 39 -65 77t-49 84h91q5 -47 16 -78t30 -66z" />
    <glyph glyph-name="ohungarumlaut" unicode="&#x151;" horiz-adv-x="554" 
d="M492 242l-4 -22q-19 -109 -83 -169.5t-164 -60.5q-70 0 -114.5 35.5t-61.5 95t-4 131.5l4 23q20 109 83 169.5t162 60.5q71 0 116 -35.5t62 -95.5t4 -132zM406 268q18 102 -9 154t-89 52q-55 0 -94.5 -43.5t-56.5 -142.5l-10 -61q-18 -102 9 -154.5t88 -52.5
q56 0 95.5 44t55.5 143zM259 579l-19 17q23 31 40.5 64.5t33.5 79.5h91q-63 -88 -146 -161zM399 579l-19 17q23 31 40.5 64.5t34.5 79.5h91q-64 -89 -147 -161z" />
    <glyph glyph-name="omacron" unicode="&#x14d;" horiz-adv-x="554" 
d="M492 242l-4 -22q-19 -109 -83 -169.5t-164 -60.5q-70 0 -114.5 35.5t-61.5 95t-4 131.5l4 23q20 109 83 169.5t162 60.5q71 0 116 -35.5t62 -95.5t4 -132zM406 268q18 102 -9 154t-89 52q-55 0 -94.5 -43.5t-56.5 -142.5l-10 -61q-18 -102 9 -154.5t88 -52.5
q56 0 95.5 44t55.5 143zM490 666l-8 -47h-287l8 47h287z" />
    <glyph glyph-name="oslash" unicode="&#xf8;" horiz-adv-x="556" 
d="M489 220q-19 -109 -83 -169.5t-163 -60.5q-44 0 -78 14.5t-58 39.5l-42 -44h-48l69 72q-43 72 -24 180l4 23q20 109 83 169.5t162 60.5q44 0 78.5 -14t58.5 -40l42 44h47l-69 -72q45 -73 25 -181zM148 227q-9 -55 -6 -96l263 275q-23 68 -96 68q-55 0 -94.5 -43.5
t-56.5 -142.5zM407 268q5 28 6.5 52.5t-0.5 44.5l-263 -275q23 -70 96 -70q56 0 95 44t56 143z" />
    <glyph glyph-name="otilde" unicode="&#xf5;" horiz-adv-x="554" 
d="M492 242l-4 -22q-19 -109 -83 -169.5t-164 -60.5q-70 0 -114.5 35.5t-61.5 95t-4 131.5l4 23q20 109 83 169.5t162 60.5q71 0 116 -35.5t62 -95.5t4 -132zM406 268q18 102 -9 154t-89 52q-55 0 -94.5 -43.5t-56.5 -142.5l-10 -61q-18 -102 9 -154.5t88 -52.5
q56 0 95.5 44t55.5 143zM409 589q-25 0 -43 13.5t-32.5 31t-28.5 31t-31 13.5t-32 -18.5t-25 -59.5h-31q14 74 40 106.5t59 32.5q26 0 43.5 -13.5t31.5 -31t27.5 -31t30.5 -13.5t31.5 19t24.5 59h32q-14 -75 -39.5 -107t-57.5 -32z" />
    <glyph glyph-name="oe" unicode="&#x153;" horiz-adv-x="845" 
d="M778 98q-35 -61 -87.5 -84.5t-105.5 -23.5q-57 0 -97 26.5t-60 74.5q-31 -49 -78 -75t-109 -26q-70 0 -114.5 35.5t-61.5 95t-4 131.5l4 23q20 109 83 169.5t162 60.5q60 0 100 -29.5t59 -78.5q32 50 81.5 79t110.5 29q51 0 86 -17t53 -44.5t18 -58.5q0 -50 -35.5 -86
t-98.5 -56.5t-144 -26.5l-53 -4q-13 -95 13.5 -142.5t87.5 -47.5q24 0 52 9t53 31t38 61zM406 268q18 102 -9 154t-89 52q-55 0 -94.5 -43.5t-56.5 -142.5l-10 -61q-18 -102 9 -154.5t88 -52.5q56 0 95.5 44t55.5 143zM500 289l-7 -45l46 3q82 5 126 27t61 53t17 62
q0 39 -23 61.5t-63 22.5q-53 0 -96.5 -43.5t-60.5 -140.5z" />
    <glyph glyph-name="p" unicode="p" horiz-adv-x="577" 
d="M277 -10q-41 0 -72 15t-52 43l-46 -261h-82l110 627q6 34 4 40.5t-17 8.5l-54 6l5 26h156l-16 -89q35 55 74 77t80 22q60 0 97 -36.5t50 -97.5t-1 -136l-4 -22q-12 -70 -46.5 -120t-82.5 -76.5t-103 -26.5zM353 470q-19 0 -43.5 -11.5t-52 -43t-56.5 -92.5l-39 -225
q18 -39 45 -56.5t64 -17.5q62 0 97.5 47.5t49.5 131.5l10 57q17 101 -5 155.5t-70 54.5z" />
    <glyph glyph-name="thorn" unicode="&#xfe;" horiz-adv-x="572" 
d="M272 -10q-41 0 -72.5 15t-52.5 43l-46 -261h-82l154 872q6 35 3.5 41.5t-16.5 7.5l-54 6l4 26h159l-58 -329q35 52 73 73t78 21q59 0 96 -36.5t50.5 -97.5t-0.5 -136l-4 -22q-13 -70 -47.5 -120t-82.5 -76.5t-102 -26.5zM348 470q-20 0 -44.5 -11.5t-52 -43.5t-56.5 -93
l-39 -223q18 -40 45.5 -57.5t64.5 -17.5q61 0 97 47.5t50 131.5l9 57q17 101 -4.5 155.5t-69.5 54.5z" />
    <glyph glyph-name="q" unicode="q" horiz-adv-x="565" 
d="M516 500l-127 -713h-82l53 296q-34 -52 -72 -72.5t-78 -20.5q-59 0 -96.5 36.5t-50.5 97.5t1 136l4 22q13 70 47 120t82 76.5t102 26.5q42 0 73.5 -16t52.5 -45q33 19 67 56h24zM149 234q-17 -100 4.5 -155t69.5 -55q20 0 44 11.5t51.5 43t56.5 90.5l40 225
q-18 41 -45.5 59t-64.5 18q-61 0 -97 -48t-50 -132z" />
    <glyph glyph-name="r" unicode="r" horiz-adv-x="428" 
d="M332 450q-17 0 -37.5 -11t-43.5 -40t-50 -83l-56 -316h-82l73 414q6 34 4 40.5t-17 8.5l-55 5l5 27h157l-18 -104q39 62 80 88t80 26q32 0 57 -18t35 -59l-70 -47q-8 38 -23.5 53.5t-38.5 15.5z" />
    <glyph glyph-name="racute" unicode="&#x155;" horiz-adv-x="428" 
d="M332 450q-17 0 -37.5 -11t-43.5 -40t-50 -83l-56 -316h-82l73 414q6 34 4 40.5t-17 8.5l-55 5l5 27h157l-18 -104q39 62 80 88t80 26q32 0 57 -18t35 -59l-70 -47q-8 38 -23.5 53.5t-38.5 15.5zM307 579l-19 22q29 32 49.5 62.5t39.5 76.5h101q-38 -46 -78.5 -84
t-92.5 -77z" />
    <glyph glyph-name="rcaron" unicode="&#x159;" horiz-adv-x="428" 
d="M332 450q-17 0 -37.5 -11t-43.5 -40t-50 -83l-56 -316h-82l73 414q6 34 4 40.5t-17 8.5l-55 5l5 27h157l-18 -104q39 62 80 88t80 26q32 0 57 -18t35 -59l-70 -47q-8 38 -23.5 53.5t-38.5 15.5zM466 723q-28 -26 -47 -45.5t-36 -40.5t-39 -53h-66q-10 32 -19.5 53.5
t-22 41.5t-31.5 46l18 19q29 -25 53.5 -49.5t43.5 -49.5q29 25 60.5 49.5t68.5 49.5z" />
    <glyph glyph-name="uni0157" unicode="&#x157;" horiz-adv-x="428" 
d="M332 450q-17 0 -37.5 -11t-43.5 -40t-50 -83l-56 -316h-82l73 414q6 34 4 40.5t-17 8.5l-55 5l5 27h157l-18 -104q39 62 80 88t80 26q32 0 57 -18t35 -59l-70 -47q-8 38 -23.5 53.5t-38.5 15.5zM4 -242l-18 16q23 35 37.5 69t24.5 80h88q-26 -49 -57 -87t-75 -78z" />
    <glyph glyph-name="s" unicode="s" horiz-adv-x="458" 
d="M193 -10q-44 0 -82 12t-61.5 39.5t-26.5 72.5l58 20q-1 -65 31 -89t80 -24q56 0 91.5 24.5t35.5 69.5q0 30 -19.5 52.5t-67.5 37.5l-58 19q-48 15 -74.5 48t-26.5 79q0 37 18.5 72t58.5 58.5t106 23.5q65 0 103.5 -23t51 -59t-1.5 -77l-82 -16q25 69 4 106t-80 37
q-48 0 -77 -24.5t-29 -66.5q0 -35 19.5 -55.5t54.5 -31.5l58 -19q52 -16 82.5 -50t30.5 -85q0 -38 -20.5 -73t-64 -56.5t-112.5 -21.5z" />
    <glyph glyph-name="sacute" unicode="&#x15b;" horiz-adv-x="458" 
d="M193 -10q-44 0 -82 12t-61.5 39.5t-26.5 72.5l58 20q-1 -65 31 -89t80 -24q56 0 91.5 24.5t35.5 69.5q0 30 -19.5 52.5t-67.5 37.5l-58 19q-48 15 -74.5 48t-26.5 79q0 37 18.5 72t58.5 58.5t106 23.5q65 0 103.5 -23t51 -59t-1.5 -77l-82 -16q25 69 4 106t-80 37
q-48 0 -77 -24.5t-29 -66.5q0 -35 19.5 -55.5t54.5 -31.5l58 -19q52 -16 82.5 -50t30.5 -85q0 -38 -20.5 -73t-64 -56.5t-112.5 -21.5zM271 579l-19 22q29 32 49.5 62.5t39.5 76.5h101q-38 -46 -78.5 -84t-92.5 -77z" />
    <glyph glyph-name="scaron" unicode="&#x161;" horiz-adv-x="458" 
d="M193 -10q-44 0 -82 12t-61.5 39.5t-26.5 72.5l58 20q-1 -65 31 -89t80 -24q56 0 91.5 24.5t35.5 69.5q0 30 -19.5 52.5t-67.5 37.5l-58 19q-48 15 -74.5 48t-26.5 79q0 37 18.5 72t58.5 58.5t106 23.5q65 0 103.5 -23t51 -59t-1.5 -77l-82 -16q25 69 4 106t-80 37
q-48 0 -77 -24.5t-29 -66.5q0 -35 19.5 -55.5t54.5 -31.5l58 -19q52 -16 82.5 -50t30.5 -85q0 -38 -20.5 -73t-64 -56.5t-112.5 -21.5zM428 723q-28 -26 -47 -45.5t-36 -40.5t-39 -53h-66q-10 32 -19.5 53.5t-22 41.5t-31.5 46l18 19q29 -25 53.5 -49.5t43.5 -49.5
q29 25 60.5 49.5t68.5 49.5z" />
    <glyph glyph-name="scedilla" unicode="&#x15f;" horiz-adv-x="458" 
d="M274 -133q0 -40 -34.5 -65t-84.5 -25q-40 0 -70 18t-31 60l51 14q-2 -35 9.5 -49.5t35.5 -14.5q27 0 43 19t16 45q0 22 -10 33.5t-39 11.5q-5 0 -12 -1t-12 -2l-5 26l32 54q-56 5 -96 33.5t-44 89.5l58 20q-1 -65 31 -89t80 -24q56 0 91.5 24.5t35.5 69.5
q0 30 -19.5 52.5t-67.5 37.5l-58 19q-48 15 -74.5 48t-26.5 79q0 37 18.5 72t58.5 58.5t106 23.5q65 0 103.5 -23t51 -59t-1.5 -77l-82 -16q25 69 4 106t-80 37q-48 0 -77 -24.5t-29 -66.5q0 -35 19.5 -55.5t54.5 -31.5l58 -19q52 -16 82.5 -50t30.5 -85q0 -38 -20.5 -73
t-63 -56.5t-109.5 -21.5l-28 -48q50 0 77.5 -21t27.5 -54z" />
    <glyph glyph-name="scircumflex" unicode="&#x15d;" horiz-adv-x="458" 
d="M193 -10q-44 0 -82 12t-61.5 39.5t-26.5 72.5l58 20q-1 -65 31 -89t80 -24q56 0 91.5 24.5t35.5 69.5q0 30 -19.5 52.5t-67.5 37.5l-58 19q-48 15 -74.5 48t-26.5 79q0 37 18.5 72t58.5 58.5t106 23.5q65 0 103.5 -23t51 -59t-1.5 -77l-82 -16q25 69 4 106t-80 37
q-48 0 -77 -24.5t-29 -66.5q0 -35 19.5 -55.5t54.5 -31.5l58 -19q52 -16 82.5 -50t30.5 -85q0 -38 -20.5 -73t-64 -56.5t-112.5 -21.5zM406 598l-18 -19q-29 26 -53 50.5t-44 48.5q-28 -24 -60 -48.5l-69 -50.5l-17 21q29 27 47.5 46t35.5 40.5t39 53.5h66q11 -32 20 -54
t21.5 -41.5t31.5 -46.5z" />
    <glyph glyph-name="germandbls" unicode="&#xdf;" horiz-adv-x="602" 
d="M244 581l-140 -794h-82l111 627q6 35 4 41t-17 8l-55 5l5 27h77l13 72q9 50 31.5 91.5t66 66.5t113.5 25q84 0 123 -36t39 -84q0 -31 -13.5 -54.5t-33.5 -43l-40 -39.5t-33.5 -43.5t-13.5 -54.5q0 -28 15.5 -49t44.5 -45l36 -31q30 -24 46 -54.5t16 -73.5
q0 -64 -46.5 -108t-126.5 -44q-58 0 -99 29t-49 95l58 20q2 -64 27 -88.5t63 -24.5q44 0 73.5 23t29.5 69q0 27 -11 48.5t-39 44.5l-36 30q-30 25 -50 51t-20 66q0 32 13 58.5t32.5 51l39.5 50t33 55.5t13 68q0 82 -88 82q-49 0 -82.5 -28t-47.5 -109z" />
    <glyph glyph-name="t" unicode="t" horiz-adv-x="363" 
d="M334 102q-27 -64 -62.5 -88t-75.5 -24q-76 0 -102 49t-13 126l43 250q6 33 4 39.5t-18 8.5l-54 5l5 27h77l23 131l85 17l-26 -148h163l-6 -32h-163l-56 -318q-13 -71 0.5 -97t40.5 -26t47.5 21.5t38.5 77.5z" />
    <glyph glyph-name="tbar" unicode="&#x167;" horiz-adv-x="370" 
d="M341 102q-27 -64 -62.5 -88t-75.5 -24q-76 0 -102 49t-13 126l19 109h-77l5 32h77l19 109q6 33 4 39.5t-18 8.5l-54 5l5 27h77l23 131l85 17l-26 -148h163l-6 -32h-163l-28 -157h135l-5 -32h-135l-23 -129q-13 -71 0.5 -97t40.5 -26t47.5 21.5t38.5 77.5z" />
    <glyph glyph-name="tcaron" unicode="&#x165;" horiz-adv-x="362" 
d="M334 102q-27 -64 -62.5 -88t-75.5 -24q-76 0 -102 49t-13 126l43 250q6 33 4 39.5t-18 8.5l-54 5l5 27h77l23 131l85 17l-26 -148h163l-6 -32h-163l-56 -318q-13 -71 0.5 -97t40.5 -26t47.5 21.5t38.5 77.5zM321 556h-21l37 214h82q-22 -54 -45.5 -106t-52.5 -108z" />
    <glyph glyph-name="u" unicode="u" horiz-adv-x="605" 
d="M468 -5q-40 0 -62.5 27t-19.5 83q-43 -61 -90 -88t-96 -27q-70 0 -100.5 48.5t-16.5 131.5l43 244q6 34 4 40.5t-17 8.5l-55 5l5 27h160l-57 -324q-13 -76 2 -110t50 -34q24 0 52.5 13t60 46t65.5 92l56 317h82l-60 -345q-13 -74 -10 -98t19 -24q15 0 32.5 17.5
t30.5 59.5l36 -22q-22 -46 -51.5 -67t-62.5 -21z" />
    <glyph glyph-name="uacute" unicode="&#xfa;" horiz-adv-x="605" 
d="M468 -5q-40 0 -62.5 27t-19.5 83q-43 -61 -90 -88t-96 -27q-70 0 -100.5 48.5t-16.5 131.5l43 244q6 34 4 40.5t-17 8.5l-55 5l5 27h160l-57 -324q-13 -76 2 -110t50 -34q24 0 52.5 13t60 46t65.5 92l56 317h82l-60 -345q-13 -74 -10 -98t19 -24q15 0 32.5 17.5
t30.5 59.5l36 -22q-22 -46 -51.5 -67t-62.5 -21zM344 579l-19 22q29 32 49.5 62.5t39.5 76.5h101q-38 -46 -78.5 -84t-92.5 -77z" />
    <glyph glyph-name="ubreve" unicode="&#x16d;" horiz-adv-x="605" 
d="M468 -5q-40 0 -62.5 27t-19.5 83q-43 -61 -90 -88t-96 -27q-70 0 -100.5 48.5t-16.5 131.5l43 244q6 34 4 40.5t-17 8.5l-55 5l5 27h160l-57 -324q-13 -76 2 -110t50 -34q24 0 52.5 13t60 46t65.5 92l56 317h82l-60 -345q-13 -74 -10 -98t19 -24q15 0 32.5 17.5
t30.5 59.5l36 -22q-22 -46 -51.5 -67t-62.5 -21zM356 643q47 0 77.5 23.5t51.5 75.5l29 -9q-27 -82 -66 -118t-95 -36q-60 0 -90 39t-33 115l29 9q6 -52 28.5 -75.5t68.5 -23.5z" />
    <glyph glyph-name="ucircumflex" unicode="&#xfb;" horiz-adv-x="605" 
d="M468 -5q-40 0 -62.5 27t-19.5 83q-43 -61 -90 -88t-96 -27q-70 0 -100.5 48.5t-16.5 131.5l43 244q6 34 4 40.5t-17 8.5l-55 5l5 27h160l-57 -324q-13 -76 2 -110t50 -34q24 0 52.5 13t60 46t65.5 92l56 317h82l-60 -345q-13 -74 -10 -98t19 -24q15 0 32.5 17.5
t30.5 59.5l36 -22q-22 -46 -51.5 -67t-62.5 -21zM479 598l-18 -19q-29 26 -53 50.5t-44 48.5q-28 -24 -60 -48.5l-69 -50.5l-17 21q29 27 47.5 46t35.5 40.5t39 53.5h66q11 -32 20 -54t21.5 -41.5t31.5 -46.5z" />
    <glyph glyph-name="udieresis" unicode="&#xfc;" horiz-adv-x="605" 
d="M468 -5q-40 0 -62.5 27t-19.5 83q-43 -61 -90 -88t-96 -27q-70 0 -100.5 48.5t-16.5 131.5l43 244q6 34 4 40.5t-17 8.5l-55 5l5 27h160l-57 -324q-13 -76 2 -110t50 -34q24 0 52.5 13t60 46t65.5 92l56 317h82l-60 -345q-13 -74 -10 -98t19 -24q15 0 32.5 17.5
t30.5 59.5l36 -22q-22 -46 -51.5 -67t-62.5 -21zM253 611q-21 0 -33.5 12.5t-12.5 32.5q0 23 16 40t41 17q22 0 34 -12t12 -32q0 -23 -15.5 -40.5t-41.5 -17.5zM455 611q-20 0 -33 12.5t-13 32.5q0 23 16 40t41 17q22 0 34.5 -12t12.5 -32q0 -23 -15.5 -40.5t-42.5 -17.5z
" />
    <glyph glyph-name="ugrave" unicode="&#xf9;" horiz-adv-x="605" 
d="M468 -5q-40 0 -62.5 27t-19.5 83q-43 -61 -90 -88t-96 -27q-70 0 -100.5 48.5t-16.5 131.5l43 244q6 34 4 40.5t-17 8.5l-55 5l5 27h160l-57 -324q-13 -76 2 -110t50 -34q24 0 52.5 13t60 46t65.5 92l56 317h82l-60 -345q-13 -74 -10 -98t19 -24q15 0 32.5 17.5
t30.5 59.5l36 -22q-22 -46 -51.5 -67t-62.5 -21zM346 579q-38 39 -65 77t-49 84h91q5 -47 16 -78t30 -66z" />
    <glyph glyph-name="uhungarumlaut" unicode="&#x171;" horiz-adv-x="605" 
d="M468 -5q-40 0 -62.5 27t-19.5 83q-43 -61 -90 -88t-96 -27q-70 0 -100.5 48.5t-16.5 131.5l43 244q6 34 4 40.5t-17 8.5l-55 5l5 27h160l-57 -324q-13 -76 2 -110t50 -34q24 0 52.5 13t60 46t65.5 92l56 317h82l-60 -345q-13 -74 -10 -98t19 -24q15 0 32.5 17.5
t30.5 59.5l36 -22q-22 -46 -51.5 -67t-62.5 -21zM273 579l-19 17q23 31 40.5 64.5t33.5 79.5h91q-63 -88 -146 -161zM413 579l-19 17q23 31 40.5 64.5t34.5 79.5h91q-64 -89 -147 -161z" />
    <glyph glyph-name="umacron" unicode="&#x16b;" horiz-adv-x="605" 
d="M468 -5q-40 0 -62.5 27t-19.5 83q-43 -61 -90 -88t-96 -27q-70 0 -100.5 48.5t-16.5 131.5l43 244q6 34 4 40.5t-17 8.5l-55 5l5 27h160l-57 -324q-13 -76 2 -110t50 -34q24 0 52.5 13t60 46t65.5 92l56 317h82l-60 -345q-13 -74 -10 -98t19 -24q15 0 32.5 17.5
t30.5 59.5l36 -22q-22 -46 -51.5 -67t-62.5 -21zM504 666l-8 -47h-287l8 47h287z" />
    <glyph glyph-name="uni0163" unicode="&#x163;" horiz-adv-x="362" 
d="M334 102q-27 -64 -62.5 -88t-75.5 -24q-76 0 -102 49t-13 126l43 250q6 33 4 39.5t-18 8.5l-54 5l5 27h77l23 131l85 17l-26 -148h163l-6 -32h-163l-56 -318q-13 -71 0.5 -97t40.5 -26t47.5 21.5t38.5 77.5zM80 -242l-18 16q23 35 37.5 69t24.5 80h88q-26 -49 -57 -87
t-75 -78z" />
    <glyph glyph-name="uni0219" unicode="&#x219;" horiz-adv-x="458" 
d="M193 -10q-44 0 -82 12t-61.5 39.5t-26.5 72.5l58 20q-1 -65 31 -89t80 -24q56 0 91.5 24.5t35.5 69.5q0 30 -19.5 52.5t-67.5 37.5l-58 19q-48 15 -74.5 48t-26.5 79q0 37 18.5 72t58.5 58.5t106 23.5q65 0 103.5 -23t51 -59t-1.5 -77l-82 -16q25 69 4 106t-80 37
q-48 0 -77 -24.5t-29 -66.5q0 -35 19.5 -55.5t54.5 -31.5l58 -19q52 -16 82.5 -50t30.5 -85q0 -38 -20.5 -73t-64 -56.5t-112.5 -21.5zM90 -242l-18 16q23 35 37.5 69t24.5 80h88q-26 -49 -57 -87t-75 -78z" />
    <glyph glyph-name="uni021B" unicode="&#x21b;" horiz-adv-x="362" 
d="M334 102q-27 -64 -62.5 -88t-75.5 -24q-76 0 -102 49t-13 126l43 250q6 33 4 39.5t-18 8.5l-54 5l5 27h77l23 131l85 17l-26 -148h163l-6 -32h-163l-56 -318q-13 -71 0.5 -97t40.5 -26t47.5 21.5t38.5 77.5zM80 -242l-18 16q23 35 37.5 69t24.5 80h88q-26 -49 -57 -87
t-75 -78z" />
    <glyph glyph-name="uogonek" unicode="&#x173;" horiz-adv-x="605" 
d="M58 468l5 27h160l-57 -324q-13 -76 2 -110t50 -34q24 0 52.5 13t60 46t65.5 92l56 317h82l-60 -345q-13 -74 -10 -98t19 -24q15 0 32.5 17.5t30.5 59.5l36 -22q-17 -37 -43.5 -60t-56 -39.5t-55 -32.5t-42 -38t-16.5 -56q0 -50 41 -50q24 0 45.5 18t37.5 63l50 -13
q-25 -54 -60 -76t-76 -22q-43 0 -72.5 21t-29.5 60q0 37 23.5 62t57 43.5t64.5 32.5q-32 6 -49 33t-15 76q-43 -61 -90 -88t-96 -27q-70 0 -100.5 48.5t-16.5 131.5l43 244q6 35 4 41t-17 8z" />
    <glyph glyph-name="uring" unicode="&#x16f;" horiz-adv-x="605" 
d="M468 -5q-40 0 -62.5 27t-19.5 83q-43 -61 -90 -88t-96 -27q-70 0 -100.5 48.5t-16.5 131.5l43 244q6 34 4 40.5t-17 8.5l-55 5l5 27h160l-57 -324q-13 -76 2 -110t50 -34q24 0 52.5 13t60 46t65.5 92l56 317h82l-60 -345q-13 -74 -10 -98t19 -24q15 0 32.5 17.5
t30.5 59.5l36 -22q-22 -46 -51.5 -67t-62.5 -21zM373 789q41 0 67 -17t36.5 -43.5t5.5 -55.5l-2 -11q-7 -41 -41 -71t-88 -30q-40 0 -65.5 17t-36.5 44t-6 56l2 11q8 42 41.5 71t86.5 29zM349 587q58 0 70 75l5 25q6 37 -7 57t-42 20q-56 0 -70 -76l-4 -25q-7 -36 6.5 -56
t41.5 -20z" />
    <glyph glyph-name="utilde" unicode="&#x169;" horiz-adv-x="605" 
d="M468 -5q-40 0 -62.5 27t-19.5 83q-43 -61 -90 -88t-96 -27q-70 0 -100.5 48.5t-16.5 131.5l43 244q6 34 4 40.5t-17 8.5l-55 5l5 27h160l-57 -324q-13 -76 2 -110t50 -34q24 0 52.5 13t60 46t65.5 92l56 317h82l-60 -345q-13 -74 -10 -98t19 -24q15 0 32.5 17.5
t30.5 59.5l36 -22q-22 -46 -51.5 -67t-62.5 -21zM424 589q-25 0 -43 13.5t-32.5 31t-28.5 31t-31 13.5t-32 -18.5t-25 -59.5h-31q14 74 40 106.5t59 32.5q26 0 43.5 -13.5t31.5 -31t27.5 -31t30.5 -13.5t31.5 19t24.5 59h32q-14 -75 -39.5 -107t-57.5 -32z" />
    <glyph glyph-name="v" unicode="v" horiz-adv-x="538" 
d="M53 468l5 27h159l-47 -273q-19 -105 -3.5 -150t61.5 -45q44 0 88 37.5t73.5 115.5t29.5 198q0 23 -1.5 47.5t-3.5 49.5l92 30q-9 -153 -40.5 -253t-75.5 -157.5t-91.5 -81t-89.5 -23.5q-78 0 -109.5 61t-12.5 170l34 193q6 34 4 40.5t-18 8.5z" />
    <glyph glyph-name="w" unicode="w" horiz-adv-x="804" 
d="M769 505q-9 -153 -38.5 -253t-70.5 -157.5t-86.5 -81t-86.5 -23.5q-52 0 -82 29t-38 83q-39 -62 -84 -87t-86 -25q-77 0 -104 57.5t-9 154.5l38 212q6 34 4 40.5t-18 8.5l-55 5l5 27h160l-52 -292q-16 -93 -6.5 -134.5t52.5 -41.5q41 0 82 35.5t72 108.5q1 22 6 50
l48 274h82l-47 -273q-18 -105 -7 -150t57 -45q42 0 82.5 37.5t67.5 114t27 193.5q0 24 -1 49.5t-4 53.5z" />
    <glyph glyph-name="wacute" unicode="&#x1e83;" horiz-adv-x="803" 
d="M769 505q-9 -153 -38.5 -253t-70.5 -157.5t-86.5 -81t-86.5 -23.5q-52 0 -82 29t-38 83q-39 -62 -84 -87t-86 -25q-77 0 -104 57.5t-9 154.5l38 212q6 34 4 40.5t-18 8.5l-55 5l5 27h160l-52 -292q-16 -93 -6.5 -134.5t52.5 -41.5q41 0 82 35.5t72 108.5q1 22 6 50
l48 274h82l-47 -273q-18 -105 -7 -150t57 -45q42 0 82.5 37.5t67.5 114t27 193.5q0 24 -1 49.5t-4 53.5zM470 579l-19 22q29 32 49.5 62.5t39.5 76.5h101q-38 -46 -78.5 -84t-92.5 -77z" />
    <glyph glyph-name="wcircumflex" unicode="&#x175;" horiz-adv-x="803" 
d="M769 505q-9 -153 -38.5 -253t-70.5 -157.5t-86.5 -81t-86.5 -23.5q-52 0 -82 29t-38 83q-39 -62 -84 -87t-86 -25q-77 0 -104 57.5t-9 154.5l38 212q6 34 4 40.5t-18 8.5l-55 5l5 27h160l-52 -292q-16 -93 -6.5 -134.5t52.5 -41.5q41 0 82 35.5t72 108.5q1 22 6 50
l48 274h82l-47 -273q-18 -105 -7 -150t57 -45q42 0 82.5 37.5t67.5 114t27 193.5q0 24 -1 49.5t-4 53.5zM605 598l-18 -19q-29 26 -53 50.5t-44 48.5q-28 -24 -60 -48.5l-69 -50.5l-17 21q29 27 47.5 46t35.5 40.5t39 53.5h66q11 -32 20 -54t21.5 -41.5t31.5 -46.5z" />
    <glyph glyph-name="wdieresis" unicode="&#x1e85;" horiz-adv-x="803" 
d="M769 505q-9 -153 -38.5 -253t-70.5 -157.5t-86.5 -81t-86.5 -23.5q-52 0 -82 29t-38 83q-39 -62 -84 -87t-86 -25q-77 0 -104 57.5t-9 154.5l38 212q6 34 4 40.5t-18 8.5l-55 5l5 27h160l-52 -292q-16 -93 -6.5 -134.5t52.5 -41.5q41 0 82 35.5t72 108.5q1 22 6 50
l48 274h82l-47 -273q-18 -105 -7 -150t57 -45q42 0 82.5 37.5t67.5 114t27 193.5q0 24 -1 49.5t-4 53.5zM378 611q-21 0 -33.5 12.5t-12.5 32.5q0 23 16 40t41 17q22 0 34 -12t12 -32q0 -23 -15.5 -40.5t-41.5 -17.5zM580 611q-20 0 -33 12.5t-13 32.5q0 23 16 40t41 17
q22 0 34.5 -12t12.5 -32q0 -23 -15.5 -40.5t-42.5 -17.5z" />
    <glyph glyph-name="wgrave" unicode="&#x1e81;" horiz-adv-x="803" 
d="M769 505q-9 -153 -38.5 -253t-70.5 -157.5t-86.5 -81t-86.5 -23.5q-52 0 -82 29t-38 83q-39 -62 -84 -87t-86 -25q-77 0 -104 57.5t-9 154.5l38 212q6 34 4 40.5t-18 8.5l-55 5l5 27h160l-52 -292q-16 -93 -6.5 -134.5t52.5 -41.5q41 0 82 35.5t72 108.5q1 22 6 50
l48 274h82l-47 -273q-18 -105 -7 -150t57 -45q42 0 82.5 37.5t67.5 114t27 193.5q0 24 -1 49.5t-4 53.5zM471 579q-38 39 -65 77t-49 84h91q5 -47 16 -78t30 -66z" />
    <glyph glyph-name="x" unicode="x" horiz-adv-x="502" 
d="M208 179l-57 -75.5l-47 -59.5t-47 -54l-69 48q64 44 114 86t93 85l29 29l-72 182q-11 30 -17.5 35.5t-21.5 7.5l-51 5l5 27h139l77 -197l13 18l57 75l47.5 59.5t47.5 54.5l69 -49q-64 -44 -114.5 -85.5t-93.5 -85.5l-15 -15l77 -195q11 -30 17.5 -35.5t21.5 -7.5l50 -6
l-4 -26h-139l-84 214z" />
    <glyph glyph-name="y" unicode="y" horiz-adv-x="585" 
d="M448 9q-10 -61 -39.5 -114t-82 -85.5t-131.5 -32.5q-78 0 -116 42t-32 109l57 12q-8 -72 18 -102.5t73 -30.5q62 0 106.5 42.5t63.5 149.5l18 102q-43 -59 -89.5 -85t-93.5 -26q-70 0 -100.5 48.5t-16.5 131.5l43 244q6 34 4 40.5t-17 8.5l-55 5l5 27h160l-57 -324
q-13 -76 2 -110t50 -34q36 0 81.5 31.5t96.5 119.5l56 317h82z" />
    <glyph glyph-name="yacute" unicode="&#xfd;" horiz-adv-x="585" 
d="M448 9q-10 -61 -39.5 -114t-82 -85.5t-131.5 -32.5q-78 0 -116 42t-32 109l57 12q-8 -72 18 -102.5t73 -30.5q62 0 106.5 42.5t63.5 149.5l18 102q-43 -59 -89.5 -85t-93.5 -26q-70 0 -100.5 48.5t-16.5 131.5l43 244q6 34 4 40.5t-17 8.5l-55 5l5 27h160l-57 -324
q-13 -76 2 -110t50 -34q36 0 81.5 31.5t96.5 119.5l56 317h82zM346 579l-19 22q29 32 49.5 62.5t39.5 76.5h101q-38 -46 -78.5 -84t-92.5 -77z" />
    <glyph glyph-name="ycircumflex" unicode="&#x177;" horiz-adv-x="585" 
d="M448 9q-10 -61 -39.5 -114t-82 -85.5t-131.5 -32.5q-78 0 -116 42t-32 109l57 12q-8 -72 18 -102.5t73 -30.5q62 0 106.5 42.5t63.5 149.5l18 102q-43 -59 -89.5 -85t-93.5 -26q-70 0 -100.5 48.5t-16.5 131.5l43 244q6 34 4 40.5t-17 8.5l-55 5l5 27h160l-57 -324
q-13 -76 2 -110t50 -34q36 0 81.5 31.5t96.5 119.5l56 317h82zM481 598l-18 -19q-29 26 -53 50.5t-44 48.5q-28 -24 -60 -48.5l-69 -50.5l-17 21q29 27 47.5 46t35.5 40.5t39 53.5h66q11 -32 20 -54t21.5 -41.5t31.5 -46.5z" />
    <glyph glyph-name="ydieresis" unicode="&#xff;" horiz-adv-x="585" 
d="M448 9q-10 -61 -39.5 -114t-82 -85.5t-131.5 -32.5q-78 0 -116 42t-32 109l57 12q-8 -72 18 -102.5t73 -30.5q62 0 106.5 42.5t63.5 149.5l18 102q-43 -59 -89.5 -85t-93.5 -26q-70 0 -100.5 48.5t-16.5 131.5l43 244q6 34 4 40.5t-17 8.5l-55 5l5 27h160l-57 -324
q-13 -76 2 -110t50 -34q36 0 81.5 31.5t96.5 119.5l56 317h82zM255 611q-21 0 -33.5 12.5t-12.5 32.5q0 23 16 40t41 17q22 0 34 -12t12 -32q0 -23 -15.5 -40.5t-41.5 -17.5zM457 611q-20 0 -33 12.5t-13 32.5q0 23 16 40t41 17q22 0 34.5 -12t12.5 -32q0 -23 -15.5 -40.5
t-42.5 -17.5z" />
    <glyph glyph-name="ygrave" unicode="&#x1ef3;" horiz-adv-x="585" 
d="M448 9q-10 -61 -39.5 -114t-82 -85.5t-131.5 -32.5q-78 0 -116 42t-32 109l57 12q-8 -72 18 -102.5t73 -30.5q62 0 106.5 42.5t63.5 149.5l18 102q-43 -59 -89.5 -85t-93.5 -26q-70 0 -100.5 48.5t-16.5 131.5l43 244q6 34 4 40.5t-17 8.5l-55 5l5 27h160l-57 -324
q-13 -76 2 -110t50 -34q36 0 81.5 31.5t96.5 119.5l56 317h82zM348 579q-38 39 -65 77t-49 84h91q5 -47 16 -78t30 -66z" />
    <glyph glyph-name="z" unicode="z" horiz-adv-x="457" 
d="M413 140q-10 -65 -39 -107.5t-82 -42.5q-35 0 -65.5 15.5t-58 31t-54.5 15.5q-19 0 -39.5 -11.5t-45.5 -40.5l-25 23l350 406h-165q-35 0 -43.5 -3t-15.5 -19l-35 -78h-26l29 166h342l-5 -25l-326 -378q16 9 28.5 12.5t25.5 3.5q28 0 51.5 -13.5l47.5 -27t51 -13.5
q32 0 47.5 24t25.5 69z" />
    <glyph glyph-name="zacute" unicode="&#x17a;" horiz-adv-x="457" 
d="M413 140q-10 -65 -39 -107.5t-82 -42.5q-35 0 -65.5 15.5t-58 31t-54.5 15.5q-19 0 -39.5 -11.5t-45.5 -40.5l-25 23l350 406h-165q-35 0 -43.5 -3t-15.5 -19l-35 -78h-26l29 166h342l-5 -25l-326 -378q16 9 28.5 12.5t25.5 3.5q28 0 51.5 -13.5l47.5 -27t51 -13.5
q32 0 47.5 24t25.5 69zM283 579l-19 22q29 32 49.5 62.5t39.5 76.5h101q-38 -46 -78.5 -84t-92.5 -77z" />
    <glyph glyph-name="zcaron" unicode="&#x17e;" horiz-adv-x="457" 
d="M413 140q-10 -65 -39 -107.5t-82 -42.5q-35 0 -65.5 15.5t-58 31t-54.5 15.5q-19 0 -39.5 -11.5t-45.5 -40.5l-25 23l350 406h-165q-35 0 -43.5 -3t-15.5 -19l-35 -78h-26l29 166h342l-5 -25l-326 -378q16 9 28.5 12.5t25.5 3.5q28 0 51.5 -13.5l47.5 -27t51 -13.5
q32 0 47.5 24t25.5 69zM440 723q-28 -26 -47 -45.5t-36 -40.5t-39 -53h-66q-10 32 -19.5 53.5t-22 41.5t-31.5 46l18 19q29 -25 53.5 -49.5t43.5 -49.5q29 25 60.5 49.5t68.5 49.5z" />
    <glyph glyph-name="zdotaccent" unicode="&#x17c;" horiz-adv-x="457" 
d="M413 140q-10 -65 -39 -107.5t-82 -42.5q-35 0 -65.5 15.5t-58 31t-54.5 15.5q-19 0 -39.5 -11.5t-45.5 -40.5l-25 23l350 406h-165q-35 0 -43.5 -3t-15.5 -19l-35 -78h-26l29 166h342l-5 -25l-326 -378q16 9 28.5 12.5t25.5 3.5q28 0 51.5 -13.5l47.5 -27t51 -13.5
q32 0 47.5 24t25.5 69zM293 608q-22 0 -35.5 13t-13.5 35q0 25 16.5 42.5t43.5 17.5q23 0 36.5 -12.5t13.5 -34.5q0 -25 -16.5 -43t-44.5 -18z" />
    <glyph glyph-name="i.dot" horiz-adv-x="300" 
d="M212 608q-49 0 -49 48q0 25 16.5 42.5t43.5 17.5q23 0 36.5 -12.5t13.5 -34.5q0 -25 -16.5 -43t-44.5 -18zM66 468l5 27h159l-60 -345q-13 -74 -10 -98t19 -24q15 0 32.5 17.5t30.5 59.5l36 -22q-22 -46 -51.5 -67t-62.5 -21q-46 0 -68.5 36t-9.5 111l47 272q6 34 4 40.5
t-17 8.5z" />
    <glyph glyph-name="ordfeminine" unicode="&#xaa;" horiz-adv-x="410" 
d="M356 338q-53 0 -59 57q-22 -34 -48 -47t-52 -13q-40 0 -65.5 24.5t-34 66t0.5 91.5l3 16q13 71 57 111.5t99 40.5q29 0 50.5 -11.5t35.5 -31.5l16.5 17t15.5 19h26l-42 -235q-8 -49 -5.5 -65t12.5 -16t21.5 12t19.5 38l26 -15q-29 -59 -77 -59zM159 501q-11 -67 3 -104
t43 -37q19 0 44 16t52 65l30 174q-23 44 -71 44q-39 0 -62 -32t-33 -88z" />
    <glyph glyph-name="ordmasculine" unicode="&#xba;" horiz-adv-x="395" 
d="M390 507l-3 -15q-12 -75 -55.5 -116t-109.5 -41q-48 0 -79 24t-42.5 64.5t-3.5 89.5l3 14q12 75 55 116.5t109 41.5q50 0 80.5 -24.5t42 -64.5t3.5 -89zM328 524q11 65 -6.5 101t-58.5 36q-34 0 -60 -29.5t-37 -94.5l-7 -41q-11 -65 6.5 -101t57.5 -36q36 0 61.5 29
t36.5 94z" />
    <glyph glyph-name="pi" unicode="&#x3c0;" horiz-adv-x="598" 
d="M73 468l4 27h530l-6 -32h-92l-55 -313q-13 -74 -11.5 -98t15.5 -24q12 0 26 18t27 59l35 -22q-22 -45 -47 -66.5t-57 -21.5q-43 0 -63.5 36t-7.5 111l56 321h-196l-82 -463h-82l73 414q6 35 4 41t-17 8z" />
    <glyph glyph-name="zero" unicode="0" horiz-adv-x="614" 
d="M559 366l-11 -65q-26 -151 -94 -231t-177 -80q-77 0 -125.5 40.5t-65 113.5t0.5 171l11 65q26 149 94 229.5t177 80.5q77 0 125 -40.5t65 -113.5t0 -170zM473 419q21 123 -7.5 181t-96.5 58q-66 0 -106 -54.5t-62 -177.5l-28 -165q-21 -122 7.5 -180.5t95.5 -58.5
t107 54.5t62 177.5z" />
    <glyph glyph-name="one" unicode="1" horiz-adv-x="353" 
d="M91 597l147 83h71l-105 -599q-6 -34 -4 -40.5t17 -8.5l54 -6l-5 -26h-261l5 26l76 6q16 1 20.5 7.5t10.5 41.5l96 549l-108 -61z" />
    <glyph glyph-name="two" unicode="2" horiz-adv-x="539" 
d="M455 206l-36 -206h-402l10 53q13 72 46 119t77.5 80t91.5 61q45 27 85.5 56t66 71t25.5 106q0 60 -23.5 86t-72.5 26q-66 0 -100 -49.5t-41 -141.5l-84 16q0 56 25.5 103t76 75.5t123.5 28.5q67 0 108.5 -22t61.5 -59t20 -83q0 -57 -23 -95t-61.5 -64.5t-84.5 -48
l-92 -44.5q-62 -31 -112.5 -77t-70.5 -122h254q24 0 34 1.5t15 7.5t10 17l47 105h26z" />
    <glyph glyph-name="three" unicode="3" horiz-adv-x="527" 
d="M458 195q0 -51 -26 -98t-80 -77t-137 -30q-80 0 -130.5 36.5t-61.5 120.5l57 18q0 -55 18 -86.5t46.5 -44t60.5 -12.5q74 0 115.5 52t41.5 131q0 62 -32 95.5t-106 33.5h-27l7 32h27q65 0 104.5 26.5t57.5 68.5t18 90q0 56 -23.5 81.5t-69.5 25.5q-67 0 -101.5 -49.5
t-41.5 -141.5l-84 16q0 54 26 101t77 76.5t126 29.5q98 0 142.5 -44.5t44.5 -109.5q0 -70 -45 -119.5t-136 -67.5q64 -15 98 -53.5t34 -100.5z" />
    <glyph glyph-name="four" unicode="4" horiz-adv-x="495" 
d="M272 81l17 95h-289l5 32q81 73 138.5 142t101 148.5t81.5 181.5h106q-61 -140 -158.5 -252.5t-222.5 -219.5h243l28 157l89 14l-30 -171h77l-6 -32h-76l-17 -95q-6 -34 -4 -40.5t17 -8.5l54 -6l-5 -26h-261l5 26l76 6q17 1 21 7.5t10 41.5z" />
    <glyph glyph-name="five" unicode="5" horiz-adv-x="511" 
d="M92 348l77 332h247q25 0 35 1t14 6.5t9 18.5l21 56h26l-27 -159h-309l-48 -209q31 18 64.5 26.5t67.5 8.5q88 0 138.5 -48.5t50.5 -137.5q0 -44 -14.5 -89t-45.5 -82t-80 -59.5t-117 -22.5q-69 0 -115 36.5t-56 120.5l57 18q0 -55 15 -86.5t40 -44t55 -12.5q52 0 89 32.5
t57.5 87t20.5 121.5q0 65 -24 98.5t-80 33.5q-34 0 -71.5 -12.5t-78.5 -43.5z" />
    <glyph glyph-name="six" unicode="6" horiz-adv-x="575" 
d="M505 176q-8 -57 -41 -99t-82.5 -64.5t-108.5 -22.5q-80 0 -126.5 40.5t-61 114t1.5 171.5l11 63q27 164 98 237.5t177 73.5q68 0 111 -27.5t59.5 -71.5t3.5 -95l-88 -15q23 85 0.5 131t-89.5 46q-35 0 -68 -19t-58.5 -66.5t-40.5 -135.5l-18 -104q35 34 75 50.5t83 16.5
q56 0 96.5 -26t59 -72.5t9.5 -108.5zM171 256q-21 -123 5.5 -178.5t93.5 -55.5q53 0 91.5 35.5t51.5 120.5l2 13q12 78 -9 125t-82 47q-35 0 -74.5 -19t-74.5 -67z" />
    <glyph glyph-name="seven" unicode="7" horiz-adv-x="456" 
d="M503 611q-55 -58 -98.5 -117t-78 -128t-63 -158t-54.5 -208h-106q27 94 58.5 173t72 149.5t95 139t127.5 141.5h-263q-23 0 -33.5 -1.5t-15 -7t-9.5 -17.5l-42 -97h-27l36 200h413z" />
    <glyph glyph-name="eight" unicode="8" horiz-adv-x="544" 
d="M476 185q0 -50 -25.5 -95t-76.5 -72.5t-126 -27.5q-68 0 -115 22t-71 57.5t-24 77.5q0 56 43 107.5t134 83.5q-47 29 -75 68.5t-28 94.5q0 53 25 95.5t73 68t116 25.5q89 0 141 -42t52 -109q0 -49 -37 -97.5t-127 -76.5q121 -67 121 -180zM288 403l39 -22q43 16 67 42
t33.5 56.5t9.5 59.5q0 59 -32.5 89t-82.5 30q-33 0 -63 -13t-48.5 -40.5t-18.5 -70.5q0 -49 25.5 -77t70.5 -54zM120 149q0 -59 34 -93t97 -34q67 0 106.5 36.5t39.5 97.5q0 41 -21.5 73t-76.5 62l-56 30q-60 -22 -91.5 -67.5t-31.5 -104.5z" />
    <glyph glyph-name="nine" unicode="9" horiz-adv-x="575" 
d="M509 300q-18 -111 -59 -179t-99 -99.5t-129 -31.5q-69 0 -118 36.5t-57 119.5l62 18q-1 -55 13.5 -86t40.5 -43.5t57 -12.5q36 0 72.5 18.5t66.5 66.5t45 136l14 82q-34 -31 -73.5 -47t-80.5 -16q-56 0 -97 27t-59.5 76t-8.5 114l3 18q9 59 42 102.5t82.5 67t107.5 23.5
q81 0 127 -41t60.5 -114.5t-2.5 -171.5zM191 478q-13 -81 9 -130t83 -49q34 0 72 18t72 62l8 45q22 122 -4 178t-94 56q-52 0 -90.5 -37t-52.5 -126z" />
    <glyph glyph-name="zero.denominator" horiz-adv-x="334" 
d="M284 184l-6 -35q-12 -77 -49.5 -115.5t-95.5 -38.5q-66 0 -94 45.5t-16 115.5l7 35q27 154 144 154q66 0 93.5 -45t16.5 -116zM224 209q10 58 -3 85.5t-45 27.5q-31 0 -50 -25.5t-29 -83.5l-14 -82q-10 -58 3.5 -85.5t44.5 -27.5q32 0 51 25.5t29 83.5z" />
    <glyph glyph-name="one.denominator" horiz-adv-x="216" 
d="M38 299l74 41h50l-52 -293q-3 -17 -1.5 -20t8.5 -4l28 -3l-4 -20h-146l4 20l38 3q8 1 10 4t5 20l46 256l-48 -27z" />
    <glyph glyph-name="two.denominator" horiz-adv-x="290" 
d="M221 99l-17 -99h-217l5 27q7 37 19 59t33.5 37.5t55.5 32.5q51 26 70 52.5t19 63.5q0 50 -37 50q-31 0 -46.5 -23t-19.5 -67l-57 8q0 41 30 73t91 32q56 0 79 -24.5t23 -57.5q0 -32 -18 -54.5t-51 -41t-79 -40.5q-34 -16 -52.5 -34.5t-26.5 -48.5h130q17 0 21.5 2t7.5 11
l17 42h20z" />
    <glyph glyph-name="three.denominator" horiz-adv-x="291" 
d="M228 101q0 -25 -14 -49.5t-43 -40.5t-76 -16q-39 0 -67 16t-33 57l35 10q-1 -36 18 -49t43 -13q35 0 54.5 25t19.5 65q0 26 -14.5 42t-48.5 16h-18l4 21h18q45 0 64.5 28.5t19.5 62.5q0 48 -41 48q-31 0 -46.5 -23t-19.5 -67l-56 8q-1 41 28 72t92 31q55 0 80 -23.5
t25 -57.5q0 -32 -21 -56t-64 -34q61 -17 61 -73z" />
    <glyph glyph-name="four.denominator" horiz-adv-x="266" 
d="M119 46l7 39h-148l3 21q40 36 69 70t51.5 73t39.5 91h67q-26 -70 -79.5 -125t-115.5 -109h117l13 77l59 6l-15 -83h39l-4 -21h-38l-7 -39q-3 -17 -2 -20t9 -5l26 -3l-3 -18h-140l4 18l33 3q8 1 10 4.5t5 20.5z" />
    <glyph glyph-name="five.denominator" horiz-adv-x="277" 
d="M28 172l39 168h138q19 0 22.5 1.5t6.5 11.5l10 28h14l-16 -85h-164l-22 -95q31 17 66 17q48 0 77 -25.5t29 -72.5q0 -29 -14 -58t-44 -48t-79 -19q-37 0 -63 16.5t-31 53.5l34 10q1 -33 16.5 -46t36.5 -13q37 0 58.5 33t21.5 82q0 30 -11 47.5t-39 17.5q-17 0 -35 -6.5
t-39 -22.5z" />
    <glyph glyph-name="six.denominator" horiz-adv-x="318" 
d="M255 91q-6 -46 -41.5 -71t-84.5 -25q-61 0 -88 42t-15 116l5 31q14 83 51.5 122t94.5 39q59 0 84.5 -30.5t14.5 -68.5l-61 -8q25 86 -36 86q-26 0 -47.5 -21t-33.5 -89l-6 -33q30 23 70 23q48 0 74 -29.5t20 -76.5zM82 123q-10 -59 4 -83t41 -24q23 0 41.5 18t25.5 61
l1 5q6 38 -3.5 59.5t-38.5 21.5q-16 0 -33 -7.5t-34 -27.5z" />
    <glyph glyph-name="seven.denominator" horiz-adv-x="272" 
d="M257 301q-38 -41 -64 -80.5t-45 -91t-36 -129.5h-68q18 60 41.5 108.5t57 93.5t81.5 94h-127q-17 0 -21.5 -2t-7.5 -11l-15 -42h-21l18 99h214z" />
    <glyph glyph-name="eight.denominator" horiz-adv-x="311" 
d="M244 97q0 -25 -12.5 -48.5t-39.5 -38.5t-71 -15q-53 0 -81.5 22.5t-28.5 56.5q0 26 20 49t73 43q-25 15 -41 34.5t-16 47.5q0 24 12 46t37.5 36.5t66.5 14.5q50 0 76.5 -22t26.5 -54q0 -23 -18.5 -44t-64.5 -39q28 -16 44.5 -37t16.5 -52zM146 209l18 -11q25 14 36 32.5
t11 40.5q0 51 -49 51q-27 0 -43.5 -16t-16.5 -40q0 -22 12 -34t32 -23zM66 74q0 -28 15 -42.5t41 -14.5q30 0 48.5 17.5t18.5 43.5q0 23 -11 36.5t-31 24.5l-25 16q-30 -16 -43 -36.5t-13 -44.5z" />
    <glyph glyph-name="nine.denominator" horiz-adv-x="307" 
d="M252 153q-13 -82 -53 -120t-101 -38q-37 0 -63 16.5t-32 53.5l34 11q1 -33 18.5 -46.5t41.5 -13.5q30 0 53.5 22t34.5 88l6 33q-30 -24 -70 -24q-49 0 -74 29.5t-19 75.5l1 12q6 46 40 69.5t80 23.5q65 0 92 -43t16 -117zM88 238q-5 -37 4.5 -58t37.5 -21q16 0 33.5 7.5
t33.5 27.5l4 23q11 59 -3.5 83t-43.5 24q-24 0 -41.5 -17.5t-23.5 -61.5z" />
    <glyph glyph-name="zero.numerator" horiz-adv-x="334" 
d="M343 524l-6 -35q-12 -77 -49.5 -115.5t-95.5 -38.5q-66 0 -94 45.5t-16 115.5l7 35q27 154 144 154q66 0 93.5 -45t16.5 -116zM283 549q10 58 -3 85.5t-45 27.5q-31 0 -50 -25.5t-29 -83.5l-14 -82q-10 -58 3.5 -85.5t44.5 -27.5q32 0 51 25.5t29 83.5z" />
    <glyph glyph-name="one.numerator" horiz-adv-x="216" 
d="M97 639l74 41h50l-52 -293q-3 -17 -1.5 -20t8.5 -4l28 -3l-4 -20h-146l4 20l38 3q8 1 10 4t5 20l46 256l-48 -27z" />
    <glyph glyph-name="two.numerator" horiz-adv-x="290" 
d="M280 439l-17 -99h-217l5 27q7 37 19 59t33.5 37.5t55.5 32.5q51 26 70 52.5t19 63.5q0 50 -37 50q-31 0 -46.5 -23t-19.5 -67l-57 8q0 41 30 73t91 32q56 0 79 -24.5t23 -57.5q0 -32 -18 -54.5t-51 -41t-79 -40.5q-34 -16 -52.5 -34.5t-26.5 -48.5h130q17 0 21.5 2
t7.5 11l17 42h20z" />
    <glyph glyph-name="three.numerator" horiz-adv-x="291" 
d="M287 441q0 -25 -14 -49.5t-43 -40.5t-76 -16q-39 0 -67 16t-33 57l35 10q-1 -36 18 -49t43 -13q35 0 54.5 25t19.5 65q0 26 -14.5 42t-48.5 16h-18l4 21h18q45 0 64.5 28.5t19.5 62.5q0 48 -41 48q-31 0 -46.5 -23t-19.5 -67l-56 8q-1 41 28 72t92 31q55 0 80 -23.5
t25 -57.5q0 -32 -21 -56t-64 -34q61 -17 61 -73z" />
    <glyph glyph-name="four.numerator" horiz-adv-x="265" 
d="M178 386l7 39h-148l3 21q40 36 69 70t51.5 73t39.5 91h67q-26 -70 -79.5 -125t-115.5 -109h117l13 77l59 6l-15 -83h39l-4 -21h-38l-7 -39q-3 -17 -2 -20t9 -5l26 -3l-3 -18h-140l4 18l33 3q8 1 10 4.5t5 20.5z" />
    <glyph glyph-name="five.numerator" horiz-adv-x="277" 
d="M87 512l39 168h138q19 0 22.5 1.5t6.5 11.5l10 28h14l-16 -85h-164l-22 -95q31 17 66 17q48 0 77 -25.5t29 -72.5q0 -29 -14 -58t-44 -48t-79 -19q-37 0 -63 16.5t-31 53.5l34 10q1 -33 16.5 -46t36.5 -13q37 0 58.5 33t21.5 82q0 30 -11 47.5t-39 17.5q-17 0 -35 -6.5
t-39 -22.5z" />
    <glyph glyph-name="six.numerator" horiz-adv-x="318" 
d="M314 431q-6 -46 -41.5 -71t-84.5 -25q-61 0 -88 42t-15 116l5 31q14 83 51.5 122t94.5 39q59 0 84.5 -30.5t14.5 -68.5l-61 -8q25 86 -36 86q-26 0 -47.5 -21t-33.5 -89l-6 -33q30 23 70 23q48 0 74 -29.5t20 -76.5zM141 463q-10 -59 4 -83t41 -24q23 0 41.5 18t25.5 61
l1 5q6 38 -3.5 59.5t-38.5 21.5q-16 0 -33 -7.5t-34 -27.5z" />
    <glyph glyph-name="seven.numerator" horiz-adv-x="272" 
d="M316 641q-38 -41 -64 -80.5t-45 -91t-36 -129.5h-68q18 60 41.5 108.5t57 93.5t81.5 94h-127q-17 0 -21.5 -2t-7.5 -11l-15 -42h-21l18 99h214z" />
    <glyph glyph-name="eight.numerator" horiz-adv-x="311" 
d="M303 437q0 -25 -12.5 -48.5t-39.5 -38.5t-71 -15q-53 0 -81.5 22.5t-28.5 56.5q0 26 20 49t73 43q-25 15 -41 34.5t-16 47.5q0 24 12 46t37.5 36.5t66.5 14.5q50 0 76.5 -22t26.5 -54q0 -23 -18.5 -44t-64.5 -39q28 -16 44.5 -37t16.5 -52zM205 549l18 -11q25 14 36 32.5
t11 40.5q0 51 -49 51q-27 0 -43.5 -16t-16.5 -40q0 -22 12 -34t32 -23zM125 414q0 -28 15 -42.5t41 -14.5q30 0 48.5 17.5t18.5 43.5q0 23 -11 36.5t-31 24.5l-25 16q-30 -16 -43 -36.5t-13 -44.5z" />
    <glyph glyph-name="nine.numerator" horiz-adv-x="307" 
d="M311 493q-13 -82 -53 -120t-101 -38q-37 0 -63 16.5t-32 53.5l34 11q1 -33 18.5 -46.5t41.5 -13.5q30 0 53.5 22t34.5 88l6 33q-30 -24 -70 -24q-49 0 -74 29.5t-19 75.5l1 12q6 46 40 69.5t80 23.5q65 0 92 -43t16 -117zM147 578q-5 -37 4.5 -58t37.5 -21q16 0 33.5 7.5
t33.5 27.5l4 23q11 59 -3.5 83t-43.5 24q-24 0 -41.5 -17.5t-23.5 -61.5z" />
    <glyph glyph-name="zero.posf" horiz-adv-x="565" 
d="M503 242l-4 -22q-19 -109 -84.5 -169.5t-167.5 -60.5q-71 0 -117 35.5t-63.5 95t-4.5 131.5l4 23q20 109 85 169.5t165 60.5q74 0 120 -35.5t63 -95.5t4 -132zM417 268q17 102 -10.5 154t-93.5 52q-56 0 -97 -43.5t-58 -142.5l-11 -61q-17 -102 11 -154.5t92 -52.5
q58 0 99 44t57 143z" />
    <glyph glyph-name="one.posf" horiz-adv-x="337" 
d="M53 412l147 83h71l-73 -414q-6 -34 -4 -40.5t17 -8.5l54 -6l-4 -26h-261l4 26l76 6q17 1 21 8t10 41l64 364l-108 -61z" />
    <glyph glyph-name="two.posf" horiz-adv-x="522" 
d="M425 165l-30 -165h-363l9 55q12 65 50 100.5t99 62.5q54 24 94 46.5t62.5 53.5t22.5 77q0 78 -77 78q-57 0 -85.5 -42t-33.5 -119l-85 16q0 47 23 87t69.5 65t115.5 25q87 0 127.5 -36.5t40.5 -89.5q0 -41 -21 -68t-57.5 -46.5t-82 -36.5t-94.5 -38q-48 -20 -80.5 -46
t-46.5 -70h229q24 0 34 1.5t15 7t10 17.5l28 65h27z" />
    <glyph glyph-name="three.posf" horiz-adv-x="505" 
d="M215 167h-27l6 32l214 219h-218q-23 0 -34 -1.5t-15 -7t-10 -17.5l-42 -97h-26l35 200h378l-12 -69l-224 -228q74 -4 122.5 -44.5t48.5 -113.5q0 -41 -14.5 -82.5t-45 -76t-77 -55.5t-111.5 -21q-71 0 -119 35t-57 122l65 18q-1 -55 13.5 -86t40 -44t56.5 -13
q48 0 82.5 28t52.5 77t18 110q0 56 -23 85.5t-77 29.5z" />
    <glyph glyph-name="four.posf" horiz-adv-x="491" 
d="M227 -195l35 195h-288l5 32q79 72 136.5 139.5t101 145t80.5 178.5h106q-61 -138 -157.5 -248t-221.5 -215h243l26 146l89 14l-28 -160h77l-5 -32h-78l-31 -178z" />
    <glyph glyph-name="five.posf" horiz-adv-x="514" 
d="M58 163l77 332h247q25 0 35 1t14 6.5t9 18.5l21 56h26l-27 -159h-309l-48 -209q31 18 64.5 26.5t67.5 8.5q88 0 138.5 -48.5t50.5 -137.5q0 -44 -14.5 -89t-45.5 -82t-80 -59.5t-117 -22.5q-69 0 -115 36.5t-56 120.5l57 18q0 -55 15 -86.5t40 -44t55 -12.5q52 0 89 32.5
t57.5 87t20.5 121.5q0 65 -24 98.5t-80 33.5q-34 0 -71.5 -12.5t-78.5 -43.5z" />
    <glyph glyph-name="six.posf" horiz-adv-x="577" 
d="M500 176q-8 -57 -41 -99t-82.5 -64.5t-108.5 -22.5q-80 0 -126.5 40.5t-61 114t1.5 171.5l11 63q27 164 98 237.5t177 73.5q68 0 111 -27.5t59.5 -71.5t3.5 -95l-88 -15q23 85 0.5 131t-89.5 46q-35 0 -68 -19t-58.5 -66.5t-40.5 -135.5l-18 -104q35 34 75 50.5t83 16.5
q56 0 96.5 -26t59 -72.5t9.5 -108.5zM166 256q-21 -123 5.5 -178.5t93.5 -55.5q53 0 91.5 35.5t51.5 120.5l2 13q12 78 -9 125t-82 47q-35 0 -74.5 -19t-74.5 -67z" />
    <glyph glyph-name="seven.posf" horiz-adv-x="479" 
d="M477 426q-55 -58 -98.5 -117t-78 -128t-63 -158t-54.5 -208h-106q27 94 58.5 173t72 149.5t95 139t127.5 141.5h-263q-23 0 -33.5 -1.5t-15 -7t-9.5 -17.5l-42 -97h-27l36 200h413z" />
    <glyph glyph-name="eight.posf" horiz-adv-x="539" 
d="M470 185q0 -50 -25.5 -95t-76.5 -72.5t-126 -27.5q-68 0 -115 22t-71 57.5t-24 77.5q0 56 43 107.5t134 83.5q-47 29 -75 68.5t-28 94.5q0 53 25 95.5t73 68t116 25.5q89 0 141 -42t52 -109q0 -49 -37 -97.5t-127 -76.5q121 -67 121 -180zM282 403l39 -22q43 16 67 42
t33.5 56.5t9.5 59.5q0 59 -32.5 89t-82.5 30q-33 0 -63 -13t-48.5 -40.5t-18.5 -70.5q0 -49 25.5 -77t70.5 -54zM114 149q0 -59 34 -93t97 -34q67 0 106.5 36.5t39.5 97.5q0 41 -21.5 73t-76.5 62l-56 30q-60 -22 -91.5 -67.5t-31.5 -104.5z" />
    <glyph glyph-name="nine.posf" horiz-adv-x="576" 
d="M474 115q-18 -111 -59 -179t-99 -99.5t-129 -31.5q-69 0 -118 36.5t-57 119.5l62 18q-1 -55 13.5 -86t40.5 -43.5t57 -12.5q36 0 72.5 18.5t66.5 66.5t45 136l14 82q-34 -31 -73.5 -47t-80.5 -16q-56 0 -97 27t-59.5 76t-8.5 114l3 18q9 59 42 102.5t82.5 67t107.5 23.5
q81 0 127 -41t60.5 -114.5t-2.5 -171.5zM156 293q-13 -81 9 -130t83 -49q34 0 72 18t72 62l8 45q22 122 -4 178t-94 56q-52 0 -90.5 -37t-52.5 -126z" />
    <glyph glyph-name="zero.tlf" horiz-adv-x="525" 
d="M515 366l-11 -65q-26 -151 -94 -231t-177 -80q-77 0 -125.5 40.5t-65 113.5t0.5 171l11 65q26 149 94 229.5t177 80.5q77 0 125 -40.5t65 -113.5t0 -170zM429 419q21 123 -7.5 181t-96.5 58q-66 0 -106 -54.5t-62 -177.5l-28 -165q-21 -122 7.5 -180.5t95.5 -58.5
t107 54.5t62 177.5z" />
    <glyph glyph-name="one.tlf" horiz-adv-x="525" 
d="M137 569l192 111h72l-105 -598q-6 -34 -4 -40.5t17 -8.5l95 -7l-4 -26h-339l4 26l113 7q16 2 20.5 8.5t10.5 40.5l96 548l-154 -89z" />
    <glyph glyph-name="two.tlf" horiz-adv-x="525" 
d="M451 206l-36 -206h-402l10 53q13 72 46 119t77.5 80t91.5 61q45 27 85.5 56t66 71t25.5 106q0 60 -23.5 86t-72.5 26q-66 0 -100 -49.5t-41 -141.5l-84 16q0 56 25.5 103t76 75.5t123.5 28.5q67 0 108.5 -22t61.5 -59t20 -83q0 -57 -23 -95t-61.5 -64.5t-84.5 -48
l-92 -44.5q-62 -31 -112.5 -77t-70.5 -122h254q24 0 34 1.5t15 7.5t10 17l47 105h26z" />
    <glyph glyph-name="three.tlf" horiz-adv-x="525" 
d="M459 195q0 -51 -26 -98t-80 -77t-137 -30q-80 0 -130.5 36.5t-61.5 120.5l57 18q0 -55 18 -86.5t46.5 -44t60.5 -12.5q74 0 115.5 52t41.5 131q0 62 -32 95.5t-106 33.5h-27l7 32h27q65 0 104.5 26.5t57.5 68.5t18 90q0 56 -23.5 81.5t-69.5 25.5q-67 0 -101.5 -49.5
t-41.5 -141.5l-84 16q0 54 26 101t77 76.5t126 29.5q98 0 142.5 -44.5t44.5 -109.5q0 -70 -45 -119.5t-136 -67.5q64 -15 98 -53.5t34 -100.5z" />
    <glyph glyph-name="four.tlf" horiz-adv-x="525" 
d="M288 81l17 95h-289l5 32q81 73 138.5 142t101 148.5t81.5 181.5h106q-61 -140 -158.5 -252.5t-222.5 -219.5h243l28 157l89 14l-30 -171h77l-6 -32h-76l-17 -95q-6 -34 -4 -40.5t17 -8.5l54 -6l-5 -26h-261l5 26l76 6q17 1 21 7.5t10 41.5z" />
    <glyph glyph-name="five.tlf" horiz-adv-x="525" 
d="M96 348l77 332h247q25 0 35 1t14 6.5t9 18.5l21 56h26l-27 -159h-309l-48 -209q31 18 64.5 26.5t67.5 8.5q88 0 138.5 -48.5t50.5 -137.5q0 -44 -14.5 -89t-45.5 -82t-80 -59.5t-117 -22.5q-69 0 -115 36.5t-56 120.5l57 18q0 -55 15 -86.5t40 -44t55 -12.5q52 0 89 32.5
t57.5 87t20.5 121.5q0 65 -24 98.5t-80 33.5q-34 0 -71.5 -12.5t-78.5 -43.5z" />
    <glyph glyph-name="six.tlf" horiz-adv-x="525" 
d="M477 176q-8 -57 -41 -99t-82.5 -64.5t-108.5 -22.5q-80 0 -126.5 40.5t-61 114t1.5 171.5l11 63q27 164 98 237.5t177 73.5q68 0 111 -27.5t59.5 -71.5t3.5 -95l-88 -15q23 85 0.5 131t-89.5 46q-35 0 -68 -19t-58.5 -66.5t-40.5 -135.5l-18 -104q35 34 75 50.5t83 16.5
q56 0 96.5 -26t59 -72.5t9.5 -108.5zM143 256q-21 -123 5.5 -178.5t93.5 -55.5q53 0 91.5 35.5t51.5 120.5l2 13q12 78 -9 125t-82 47q-35 0 -74.5 -19t-74.5 -67z" />
    <glyph glyph-name="seven.tlf" horiz-adv-x="525" 
d="M532 611q-55 -58 -98.5 -117t-78 -128t-63 -158t-54.5 -208h-106q27 94 58.5 173t72 149.5t95 139t127.5 141.5h-263q-23 0 -33.5 -1.5t-15 -7t-9.5 -17.5l-42 -97h-27l36 200h413z" />
    <glyph glyph-name="eight.tlf" horiz-adv-x="525" 
d="M467 185q0 -50 -25.5 -95t-76.5 -72.5t-126 -27.5q-68 0 -115 22t-71 57.5t-24 77.5q0 56 43 107.5t134 83.5q-47 29 -75 68.5t-28 94.5q0 53 25 95.5t73 68t116 25.5q89 0 141 -42t52 -109q0 -49 -37 -97.5t-127 -76.5q121 -67 121 -180zM279 403l39 -22q43 16 67 42
t33.5 56.5t9.5 59.5q0 59 -32.5 89t-82.5 30q-33 0 -63 -13t-48.5 -40.5t-18.5 -70.5q0 -49 25.5 -77t70.5 -54zM111 149q0 -59 34 -93t97 -34q67 0 106.5 36.5t39.5 97.5q0 41 -21.5 73t-76.5 62l-56 30q-60 -22 -91.5 -67.5t-31.5 -104.5z" />
    <glyph glyph-name="nine.tlf" horiz-adv-x="525" 
d="M488 300q-18 -111 -59 -179t-99 -99.5t-129 -31.5q-69 0 -118 36.5t-57 119.5l62 18q-1 -55 13.5 -86t40.5 -43.5t57 -12.5q36 0 72.5 18.5t66.5 66.5t45 136l14 82q-34 -31 -73.5 -47t-80.5 -16q-56 0 -97 27t-59.5 76t-8.5 114l3 18q9 59 42 102.5t82.5 67t107.5 23.5
q81 0 127 -41t60.5 -114.5t-2.5 -171.5zM170 478q-13 -81 9 -130t83 -49q34 0 72 18t72 62l8 45q22 122 -4 178t-94 56q-52 0 -90.5 -37t-52.5 -126z" />
    <glyph glyph-name="uni2080" unicode="&#x2080;" horiz-adv-x="334" 
d="M265 79l-6 -35q-12 -77 -49.5 -115.5t-95.5 -38.5q-66 0 -94 45.5t-16 115.5l7 35q27 154 144 154q66 0 93.5 -45t16.5 -116zM205 104q10 58 -3 85.5t-45 27.5q-31 0 -50 -25.5t-29 -83.5l-14 -82q-10 -58 3.5 -85.5t44.5 -27.5q32 0 51 25.5t29 83.5z" />
    <glyph glyph-name="uni2081" unicode="&#x2081;" horiz-adv-x="216" 
d="M19 194l74 41h50l-52 -293q-3 -17 -1.5 -20t8.5 -4l28 -3l-4 -20h-146l4 20l38 3q8 1 10 4t5 20l46 256l-48 -27z" />
    <glyph glyph-name="uni2082" unicode="&#x2082;" horiz-adv-x="290" 
d="M202 -6l-17 -99h-217l5 27q7 37 19 59t33.5 37.5t55.5 32.5q51 26 70 52.5t19 63.5q0 50 -37 50q-31 0 -46.5 -23t-19.5 -67l-57 8q0 41 30 73t91 32q56 0 79 -24.5t23 -57.5q0 -32 -18 -54.5t-51 -41t-79 -40.5q-34 -16 -52.5 -34.5t-26.5 -48.5h130q17 0 21.5 2t7.5 11
l17 42h20z" />
    <glyph glyph-name="uni2083" unicode="&#x2083;" horiz-adv-x="291" 
d="M209 -4q0 -25 -14 -49.5t-43 -40.5t-76 -16q-39 0 -67 16t-33 57l35 10q-1 -36 18 -49t43 -13q35 0 54.5 25t19.5 65q0 26 -14.5 42t-48.5 16h-18l4 21h18q45 0 64.5 28.5t19.5 62.5q0 48 -41 48q-31 0 -46.5 -23t-19.5 -67l-56 8q-1 41 28 72t92 31q55 0 80 -23.5
t25 -57.5q0 -32 -21 -56t-64 -34q61 -17 61 -73z" />
    <glyph glyph-name="uni2084" unicode="&#x2084;" horiz-adv-x="266" 
d="M100 -59l7 39h-148l3 21q40 36 69 70t51.5 73t39.5 91h67q-26 -70 -79.5 -125t-115.5 -109h117l13 77l59 6l-15 -83h39l-4 -21h-38l-7 -39q-3 -17 -2 -20t9 -5l26 -3l-3 -18h-140l4 18l33 3q8 1 10 4.5t5 20.5z" />
    <glyph glyph-name="uni2085" unicode="&#x2085;" horiz-adv-x="277" 
d="M9 67l39 168h138q19 0 22.5 1.5t6.5 11.5l10 28h14l-16 -85h-164l-22 -95q31 17 66 17q48 0 77 -25.5t29 -72.5q0 -29 -14 -58t-44 -48t-79 -19q-37 0 -63 16.5t-31 53.5l34 10q1 -33 16.5 -46t36.5 -13q37 0 58.5 33t21.5 82q0 30 -11 47.5t-39 17.5q-17 0 -35 -6.5
t-39 -22.5z" />
    <glyph glyph-name="uni2086" unicode="&#x2086;" horiz-adv-x="318" 
d="M236 -14q-6 -46 -41.5 -71t-84.5 -25q-61 0 -88 42t-15 116l5 31q14 83 51.5 122t94.5 39q59 0 84.5 -30.5t14.5 -68.5l-61 -8q25 86 -36 86q-26 0 -47.5 -21t-33.5 -89l-6 -33q30 23 70 23q48 0 74 -29.5t20 -76.5zM63 18q-10 -59 4 -83t41 -24q23 0 41.5 18t25.5 61
l1 5q6 38 -3.5 59.5t-38.5 21.5q-16 0 -33 -7.5t-34 -27.5z" />
    <glyph glyph-name="uni2087" unicode="&#x2087;" horiz-adv-x="272" 
d="M238 196q-38 -41 -64 -80.5t-45 -91t-36 -129.5h-68q18 60 41.5 108.5t57 93.5t81.5 94h-127q-17 0 -21.5 -2t-7.5 -11l-15 -42h-21l18 99h214z" />
    <glyph glyph-name="uni2088" unicode="&#x2088;" horiz-adv-x="311" 
d="M225 -8q0 -25 -12.5 -48.5t-39.5 -38.5t-71 -15q-53 0 -81.5 22.5t-28.5 56.5q0 26 20 49t73 43q-25 15 -41 34.5t-16 47.5q0 24 12 46t37.5 36.5t66.5 14.5q50 0 76.5 -22t26.5 -54q0 -23 -18.5 -44t-64.5 -39q28 -16 44.5 -37t16.5 -52zM127 104l18 -11q25 14 36 32.5
t11 40.5q0 51 -49 51q-27 0 -43.5 -16t-16.5 -40q0 -22 12 -34t32 -23zM47 -31q0 -28 15 -42.5t41 -14.5q30 0 48.5 17.5t18.5 43.5q0 23 -11 36.5t-31 24.5l-25 16q-30 -16 -43 -36.5t-13 -44.5z" />
    <glyph glyph-name="uni2089" unicode="&#x2089;" horiz-adv-x="307" 
d="M233 48q-13 -82 -53 -120t-101 -38q-37 0 -63 16.5t-32 53.5l34 11q1 -33 18.5 -46.5t41.5 -13.5q30 0 53.5 22t34.5 88l6 33q-30 -24 -70 -24q-49 0 -74 29.5t-19 75.5l1 12q6 46 40 69.5t80 23.5q65 0 92 -43t16 -117zM69 133q-5 -37 4.5 -58t37.5 -21q16 0 33.5 7.5
t33.5 27.5l4 23q11 59 -3.5 83t-43.5 24q-24 0 -41.5 -17.5t-23.5 -61.5z" />
    <glyph glyph-name="uni2070" unicode="&#x2070;" horiz-adv-x="334" 
d="M361 629l-6 -35q-12 -77 -49.5 -115.5t-95.5 -38.5q-66 0 -94 45.5t-16 115.5l7 35q27 154 144 154q66 0 93.5 -45t16.5 -116zM301 654q10 58 -3 85.5t-45 27.5q-31 0 -50 -25.5t-29 -83.5l-14 -82q-10 -58 3.5 -85.5t44.5 -27.5q32 0 51 25.5t29 83.5z" />
    <glyph glyph-name="uni00B9" unicode="&#xb9;" horiz-adv-x="216" 
d="M115 744l74 41h50l-52 -293q-3 -17 -1.5 -20t8.5 -4l28 -3l-4 -20h-146l4 20l38 3q8 1 10 4t5 20l46 256l-48 -27z" />
    <glyph glyph-name="uni00B2" unicode="&#xb2;" horiz-adv-x="290" 
d="M298 544l-17 -99h-217l5 27q7 37 19 59t33.5 37.5t55.5 32.5q51 26 70 52.5t19 63.5q0 50 -37 50q-31 0 -46.5 -23t-19.5 -67l-57 8q0 41 30 73t91 32q56 0 79 -24.5t23 -57.5q0 -32 -18 -54.5t-51 -41t-79 -40.5q-34 -16 -52.5 -34.5t-26.5 -48.5h130q17 0 21.5 2
t7.5 11l17 42h20z" />
    <glyph glyph-name="uni00B3" unicode="&#xb3;" horiz-adv-x="291" 
d="M305 546q0 -25 -14 -49.5t-43 -40.5t-76 -16q-39 0 -67 16t-33 57l35 10q-1 -36 18 -49t43 -13q35 0 54.5 25t19.5 65q0 26 -14.5 42t-48.5 16h-18l4 21h18q45 0 64.5 28.5t19.5 62.5q0 48 -41 48q-31 0 -46.5 -23t-19.5 -67l-56 8q-1 41 28 72t92 31q55 0 80 -23.5
t25 -57.5q0 -32 -21 -56t-64 -34q61 -17 61 -73z" />
    <glyph glyph-name="uni2074" unicode="&#x2074;" horiz-adv-x="266" 
d="M197 491l7 39h-148l3 21q40 36 69 70t51.5 73t39.5 91h67q-26 -70 -79.5 -125t-115.5 -109h117l13 77l59 6l-15 -83h39l-4 -21h-38l-7 -39q-3 -17 -2 -20t9 -5l26 -3l-3 -18h-140l4 18l33 3q8 1 10 4.5t5 20.5z" />
    <glyph glyph-name="uni2075" unicode="&#x2075;" horiz-adv-x="277" 
d="M105 617l39 168h138q19 0 22.5 1.5t6.5 11.5l10 28h14l-16 -85h-164l-22 -95q31 17 66 17q48 0 77 -25.5t29 -72.5q0 -29 -14 -58t-44 -48t-79 -19q-37 0 -63 16.5t-31 53.5l34 10q1 -33 16.5 -46t36.5 -13q37 0 58.5 33t21.5 82q0 30 -11 47.5t-39 17.5q-17 0 -35 -6.5
t-39 -22.5z" />
    <glyph glyph-name="uni2076" unicode="&#x2076;" horiz-adv-x="318" 
d="M332 536q-6 -46 -41.5 -71t-84.5 -25q-61 0 -88 42t-15 116l5 31q14 83 51.5 122t94.5 39q59 0 84.5 -30.5t14.5 -68.5l-61 -8q25 86 -36 86q-26 0 -47.5 -21t-33.5 -89l-6 -33q30 23 70 23q48 0 74 -29.5t20 -76.5zM159 568q-10 -59 4 -83t41 -24q23 0 41.5 18t25.5 61
l1 5q6 38 -3.5 59.5t-38.5 21.5q-16 0 -33 -7.5t-34 -27.5z" />
    <glyph glyph-name="uni2077" unicode="&#x2077;" horiz-adv-x="272" 
d="M334 746q-38 -41 -64 -80.5t-45 -91t-36 -129.5h-68q18 60 41.5 108.5t57 93.5t81.5 94h-127q-17 0 -21.5 -2t-7.5 -11l-15 -42h-21l18 99h214z" />
    <glyph glyph-name="uni2078" unicode="&#x2078;" horiz-adv-x="311" 
d="M321 542q0 -25 -12.5 -48.5t-39.5 -38.5t-71 -15q-53 0 -81.5 22.5t-28.5 56.5q0 26 20 49t73 43q-25 15 -41 34.5t-16 47.5q0 24 12 46t37.5 36.5t66.5 14.5q50 0 76.5 -22t26.5 -54q0 -23 -18.5 -44t-64.5 -39q28 -16 44.5 -37t16.5 -52zM223 654l18 -11q25 14 36 32.5
t11 40.5q0 51 -49 51q-27 0 -43.5 -16t-16.5 -40q0 -22 12 -34t32 -23zM143 519q0 -28 15 -42.5t41 -14.5q30 0 48.5 17.5t18.5 43.5q0 23 -11 36.5t-31 24.5l-25 16q-30 -16 -43 -36.5t-13 -44.5z" />
    <glyph glyph-name="uni2079" unicode="&#x2079;" horiz-adv-x="307" 
d="M329 598q-13 -82 -53 -120t-101 -38q-37 0 -63 16.5t-32 53.5l34 11q1 -33 18.5 -46.5t41.5 -13.5q30 0 53.5 22t34.5 88l6 33q-30 -24 -70 -24q-49 0 -74 29.5t-19 75.5l1 12q6 46 40 69.5t80 23.5q65 0 92 -43t16 -117zM165 683q-5 -37 4.5 -58t37.5 -21q16 0 33.5 7.5
t33.5 27.5l4 23q11 59 -3.5 83t-43.5 24q-24 0 -41.5 -17.5t-23.5 -61.5z" />
    <glyph glyph-name="fraction" unicode="&#x2044;" horiz-adv-x="51" 
d="M274 680l25 -18l-489 -662l-25 17z" />
    <glyph glyph-name="onehalf" unicode="&#xbd;" horiz-adv-x="605" 
d="M97 639l74 41h50l-52 -293q-3 -17 -1.5 -20t8.5 -4l28 -3l-4 -20h-146l4 20l38 3q8 1 10 4t5 20l46 256l-48 -27zM527 680l25 -18l-489 -662l-25 17zM535 99l-17 -99h-217l5 27q7 37 19 59t33.5 37.5t55.5 32.5q51 26 70 52.5t19 63.5q0 50 -37 50q-31 0 -46.5 -23
t-19.5 -67l-57 8q0 41 30 73t91 32q56 0 79 -24.5t23 -57.5q0 -32 -18 -54.5t-51 -41t-79 -40.5q-34 -16 -52.5 -34.5t-26.5 -48.5h130q17 0 21.5 2t7.5 11l17 42h20z" />
    <glyph glyph-name="uni2153" unicode="&#x2153;" horiz-adv-x="610" 
d="M97 639l74 41h50l-52 -293q-3 -17 -1.5 -20t8.5 -4l28 -3l-4 -20h-146l4 20l38 3q8 1 10 4t5 20l46 256l-48 -27zM527 680l25 -18l-489 -662l-25 17zM547 101q0 -25 -14 -49.5t-43 -40.5t-76 -16q-39 0 -67 16t-33 57l35 10q-1 -36 18 -49t43 -13q35 0 54.5 25t19.5 65
q0 26 -14.5 42t-48.5 16h-18l4 21h18q45 0 64.5 28.5t19.5 62.5q0 48 -41 48q-31 0 -46.5 -23t-19.5 -67l-56 8q-1 41 28 72t92 31q55 0 80 -23.5t25 -57.5q0 -32 -21 -56t-64 -34q61 -17 61 -73z" />
    <glyph glyph-name="uni2154" unicode="&#x2154;" horiz-adv-x="671" 
d="M280 439l-17 -99h-217l5 27q7 37 19 59t33.5 37.5t55.5 32.5q51 26 70 52.5t19 63.5q0 50 -37 50q-31 0 -46.5 -23t-19.5 -67l-57 8q0 41 30 73t91 32q56 0 79 -24.5t23 -57.5q0 -32 -18 -54.5t-51 -41t-79 -40.5q-34 -16 -52.5 -34.5t-26.5 -48.5h130q17 0 21.5 2
t7.5 11l17 42h20zM588 680l25 -18l-489 -662l-25 17zM608 101q0 -25 -14 -49.5t-43 -40.5t-76 -16q-39 0 -67 16t-33 57l35 10q-1 -36 18 -49t43 -13q35 0 54.5 25t19.5 65q0 26 -14.5 42t-48.5 16h-18l4 21h18q45 0 64.5 28.5t19.5 62.5q0 48 -41 48q-31 0 -46.5 -23
t-19.5 -67l-56 8q-1 41 28 72t92 31q55 0 80 -23.5t25 -57.5q0 -32 -21 -56t-64 -34q61 -17 61 -73z" />
    <glyph glyph-name="onequarter" unicode="&#xbc;" horiz-adv-x="573" 
d="M97 639l74 41h50l-52 -293q-3 -17 -1.5 -20t8.5 -4l28 -3l-4 -20h-146l4 20l38 3q8 1 10 4t5 20l46 256l-48 -27zM527 680l25 -18l-489 -662l-25 17zM434 46l7 39h-148l3 21q40 36 69 70t51.5 73t39.5 91h67q-26 -70 -79.5 -125t-115.5 -109h117l13 77l59 6l-15 -83h39
l-4 -21h-38l-7 -39q-3 -17 -2 -20t9 -5l26 -3l-3 -18h-140l4 18l33 3q8 1 10 4.5t5 20.5z" />
    <glyph glyph-name="threequarters" unicode="&#xbe;" horiz-adv-x="628" 
d="M287 441q0 -25 -14 -49.5t-43 -40.5t-76 -16q-39 0 -67 16t-33 57l35 10q-1 -36 18 -49t43 -13q35 0 54.5 25t19.5 65q0 26 -14.5 42t-48.5 16h-18l4 21h18q45 0 64.5 28.5t19.5 62.5q0 48 -41 48q-31 0 -46.5 -23t-19.5 -67l-56 8q-1 41 28 72t92 31q55 0 80 -23.5
t25 -57.5q0 -32 -21 -56t-64 -34q61 -17 61 -73zM582 680l25 -18l-489 -662l-25 17zM489 46l7 39h-148l3 21q40 36 69 70t51.5 73t39.5 91h67q-26 -70 -79.5 -125t-115.5 -109h117l13 77l59 6l-15 -83h39l-4 -21h-38l-7 -39q-3 -17 -2 -20t9 -5l26 -3l-3 -18h-140l4 18l33 3
q8 1 10 4.5t5 20.5z" />
    <glyph glyph-name="uni2155" horiz-adv-x="603" 
d="M97 639l74 41h50l-52 -293q-3 -17 -1.5 -20t8.5 -4l28 -3l-4 -20h-146l4 20l38 3q8 1 10 4t5 20l46 256l-48 -27zM527 680l25 -18l-489 -662l-25 17zM354 172l39 168h138q19 0 22.5 1.5t6.5 11.5l10 28h14l-16 -85h-164l-22 -95q31 17 66 17q48 0 77 -25.5t29 -72.5
q0 -29 -14 -58t-44 -48t-79 -19q-37 0 -63 16.5t-31 53.5l34 10q1 -33 16.5 -46t36.5 -13q37 0 58.5 33t21.5 82q0 30 -11 47.5t-39 17.5q-17 0 -35 -6.5t-39 -22.5z" />
    <glyph glyph-name="uni2156" horiz-adv-x="664" 
d="M280 439l-17 -99h-217l5 27q7 37 19 59t33.5 37.5t55.5 32.5q51 26 70 52.5t19 63.5q0 50 -37 50q-31 0 -46.5 -23t-19.5 -67l-57 8q0 41 30 73t91 32q56 0 79 -24.5t23 -57.5q0 -32 -18 -54.5t-51 -41t-79 -40.5q-34 -16 -52.5 -34.5t-26.5 -48.5h130q17 0 21.5 2
t7.5 11l17 42h20zM588 680l25 -18l-489 -662l-25 17zM415 172l39 168h138q19 0 22.5 1.5t6.5 11.5l10 28h14l-16 -85h-164l-22 -95q31 17 66 17q48 0 77 -25.5t29 -72.5q0 -29 -14 -58t-44 -48t-79 -19q-37 0 -63 16.5t-31 53.5l34 10q1 -33 16.5 -46t36.5 -13q37 0 58.5 33
t21.5 82q0 30 -11 47.5t-39 17.5q-17 0 -35 -6.5t-39 -22.5z" />
    <glyph glyph-name="uni2157" horiz-adv-x="658" 
d="M287 441q0 -25 -14 -49.5t-43 -40.5t-76 -16q-39 0 -67 16t-33 57l35 10q-1 -36 18 -49t43 -13q35 0 54.5 25t19.5 65q0 26 -14.5 42t-48.5 16h-18l4 21h18q45 0 64.5 28.5t19.5 62.5q0 48 -41 48q-31 0 -46.5 -23t-19.5 -67l-56 8q-1 41 28 72t92 31q55 0 80 -23.5
t25 -57.5q0 -32 -21 -56t-64 -34q61 -17 61 -73zM582 680l25 -18l-489 -662l-25 17zM409 172l39 168h138q19 0 22.5 1.5t6.5 11.5l10 28h14l-16 -85h-164l-22 -95q31 17 66 17q48 0 77 -25.5t29 -72.5q0 -29 -14 -58t-44 -48t-79 -19q-37 0 -63 16.5t-31 53.5l34 10
q1 -33 16.5 -46t36.5 -13q37 0 58.5 33t21.5 82q0 30 -11 47.5t-39 17.5q-17 0 -35 -6.5t-39 -22.5z" />
    <glyph glyph-name="uni2158" horiz-adv-x="662" 
d="M178 386l7 39h-148l3 21q40 36 69 70t51.5 73t39.5 91h67q-26 -70 -79.5 -125t-115.5 -109h117l13 77l59 6l-15 -83h39l-4 -21h-38l-7 -39q-3 -17 -2 -20t9 -5l26 -3l-3 -18h-140l4 18l33 3q8 1 10 4.5t5 20.5zM585 680l25 -18l-489 -662l-25 17zM412 172l39 168h138
q19 0 22.5 1.5t6.5 11.5l10 28h14l-16 -85h-164l-22 -95q31 17 66 17q48 0 77 -25.5t29 -72.5q0 -29 -14 -58t-44 -48t-79 -19q-37 0 -63 16.5t-31 53.5l34 10q1 -33 16.5 -46t36.5 -13q37 0 58.5 33t21.5 82q0 30 -11 47.5t-39 17.5q-17 0 -35 -6.5t-39 -22.5z" />
    <glyph glyph-name="uni2159" horiz-adv-x="626" 
d="M97 639l74 41h50l-52 -293q-3 -17 -1.5 -20t8.5 -4l28 -3l-4 -20h-146l4 20l38 3q8 1 10 4t5 20l46 256l-48 -27zM527 680l25 -18l-489 -662l-25 17zM563 91q-6 -46 -41.5 -71t-84.5 -25q-61 0 -88 42t-15 116l5 31q14 83 51.5 122t94.5 39q59 0 84.5 -30.5t14.5 -68.5
l-61 -8q25 86 -36 86q-26 0 -47.5 -21t-33.5 -89l-6 -33q30 23 70 23q48 0 74 -29.5t20 -76.5zM390 123q-10 -59 4 -83t41 -24q23 0 41.5 18t25.5 61l1 5q6 38 -3.5 59.5t-38.5 21.5q-16 0 -33 -7.5t-34 -27.5z" />
    <glyph glyph-name="uni215A" horiz-adv-x="669" 
d="M87 512l39 168h138q19 0 22.5 1.5t6.5 11.5l10 28h14l-16 -85h-164l-22 -95q31 17 66 17q48 0 77 -25.5t29 -72.5q0 -29 -14 -58t-44 -48t-79 -19q-37 0 -63 16.5t-31 53.5l34 10q1 -33 16.5 -46t36.5 -13q37 0 58.5 33t21.5 82q0 30 -11 47.5t-39 17.5q-17 0 -35 -6.5
t-39 -22.5zM570 680l25 -18l-489 -662l-25 17zM606 91q-6 -46 -41.5 -71t-84.5 -25q-61 0 -88 42t-15 116l5 31q14 83 51.5 122t94.5 39q59 0 84.5 -30.5t14.5 -68.5l-61 -8q25 86 -36 86q-26 0 -47.5 -21t-33.5 -89l-6 -33q30 23 70 23q48 0 74 -29.5t20 -76.5zM433 123
q-10 -59 4 -83t41 -24q23 0 41.5 18t25.5 61l1 5q6 38 -3.5 59.5t-38.5 21.5q-16 0 -33 -7.5t-34 -27.5z" />
    <glyph glyph-name="uni2150" horiz-adv-x="603" 
d="M97 639l74 41h50l-52 -293q-3 -17 -1.5 -20t8.5 -4l28 -3l-4 -20h-146l4 20l38 3q8 1 10 4t5 20l46 256l-48 -27zM527 680l25 -18l-489 -662l-25 17zM588 301q-38 -41 -64 -80.5t-45 -91t-36 -129.5h-68q18 60 41.5 108.5t57 93.5t81.5 94h-127q-17 0 -21.5 -2t-7.5 -11
l-15 -42h-21l18 99h214z" />
    <glyph glyph-name="two_fraction_seven" horiz-adv-x="664" 
d="M280 439l-17 -99h-217l5 27q7 37 19 59t33.5 37.5t55.5 32.5q51 26 70 52.5t19 63.5q0 50 -37 50q-31 0 -46.5 -23t-19.5 -67l-57 8q0 41 30 73t91 32q56 0 79 -24.5t23 -57.5q0 -32 -18 -54.5t-51 -41t-79 -40.5q-34 -16 -52.5 -34.5t-26.5 -48.5h130q17 0 21.5 2
t7.5 11l17 42h20zM588 680l25 -18l-489 -662l-25 17zM649 301q-38 -41 -64 -80.5t-45 -91t-36 -129.5h-68q18 60 41.5 108.5t57 93.5t81.5 94h-127q-17 0 -21.5 -2t-7.5 -11l-15 -42h-21l18 99h214z" />
    <glyph glyph-name="three_fraction_seven" horiz-adv-x="658" 
d="M287 441q0 -25 -14 -49.5t-43 -40.5t-76 -16q-39 0 -67 16t-33 57l35 10q-1 -36 18 -49t43 -13q35 0 54.5 25t19.5 65q0 26 -14.5 42t-48.5 16h-18l4 21h18q45 0 64.5 28.5t19.5 62.5q0 48 -41 48q-31 0 -46.5 -23t-19.5 -67l-56 8q-1 41 28 72t92 31q55 0 80 -23.5
t25 -57.5q0 -32 -21 -56t-64 -34q61 -17 61 -73zM582 680l25 -18l-489 -662l-25 17zM643 301q-38 -41 -64 -80.5t-45 -91t-36 -129.5h-68q18 60 41.5 108.5t57 93.5t81.5 94h-127q-17 0 -21.5 -2t-7.5 -11l-15 -42h-21l18 99h214z" />
    <glyph glyph-name="four_fraction_seven" horiz-adv-x="661" 
d="M178 386l7 39h-148l3 21q40 36 69 70t51.5 73t39.5 91h67q-26 -70 -79.5 -125t-115.5 -109h117l13 77l59 6l-15 -83h39l-4 -21h-38l-7 -39q-3 -17 -2 -20t9 -5l26 -3l-3 -18h-140l4 18l33 3q8 1 10 4.5t5 20.5zM585 680l25 -18l-489 -662l-25 17zM646 301
q-38 -41 -64 -80.5t-45 -91t-36 -129.5h-68q18 60 41.5 108.5t57 93.5t81.5 94h-127q-17 0 -21.5 -2t-7.5 -11l-15 -42h-21l18 99h214z" />
    <glyph glyph-name="five_fraction_seven" horiz-adv-x="646" 
d="M87 512l39 168h138q19 0 22.5 1.5t6.5 11.5l10 28h14l-16 -85h-164l-22 -95q31 17 66 17q48 0 77 -25.5t29 -72.5q0 -29 -14 -58t-44 -48t-79 -19q-37 0 -63 16.5t-31 53.5l34 10q1 -33 16.5 -46t36.5 -13q37 0 58.5 33t21.5 82q0 30 -11 47.5t-39 17.5q-17 0 -35 -6.5
t-39 -22.5zM570 680l25 -18l-489 -662l-25 17zM631 301q-38 -41 -64 -80.5t-45 -91t-36 -129.5h-68q18 60 41.5 108.5t57 93.5t81.5 94h-127q-17 0 -21.5 -2t-7.5 -11l-15 -42h-21l18 99h214z" />
    <glyph glyph-name="six_fraction_seven" horiz-adv-x="682" 
d="M314 431q-6 -46 -41.5 -71t-84.5 -25q-61 0 -88 42t-15 116l5 31q14 83 51.5 122t94.5 39q59 0 84.5 -30.5t14.5 -68.5l-61 -8q25 86 -36 86q-26 0 -47.5 -21t-33.5 -89l-6 -33q30 23 70 23q48 0 74 -29.5t20 -76.5zM141 463q-10 -59 4 -83t41 -24q23 0 41.5 18t25.5 61
l1 5q6 38 -3.5 59.5t-38.5 21.5q-16 0 -33 -7.5t-34 -27.5zM606 680l25 -18l-489 -662l-25 17zM667 301q-38 -41 -64 -80.5t-45 -91t-36 -129.5h-68q18 60 41.5 108.5t57 93.5t81.5 94h-127q-17 0 -21.5 -2t-7.5 -11l-15 -42h-21l18 99h214z" />
    <glyph glyph-name="oneeighth" unicode="&#x215b;" horiz-adv-x="621" 
d="M97 639l74 41h50l-52 -293q-3 -17 -1.5 -20t8.5 -4l28 -3l-4 -20h-146l4 20l38 3q8 1 10 4t5 20l46 256l-48 -27zM527 680l25 -18l-489 -662l-25 17zM554 97q0 -25 -12.5 -48.5t-39.5 -38.5t-71 -15q-53 0 -81.5 22.5t-28.5 56.5q0 26 20 49t73 43q-25 15 -41 34.5
t-16 47.5q0 24 12 46t37.5 36.5t66.5 14.5q50 0 76.5 -22t26.5 -54q0 -23 -18.5 -44t-64.5 -39q28 -16 44.5 -37t16.5 -52zM456 209l18 -11q25 14 36 32.5t11 40.5q0 51 -49 51q-27 0 -43.5 -16t-16.5 -40q0 -22 12 -34t32 -23zM376 74q0 -28 15 -42.5t41 -14.5
q30 0 48.5 17.5t18.5 43.5q0 23 -11 36.5t-31 24.5l-25 16q-30 -16 -43 -36.5t-13 -44.5z" />
    </font>
</defs>
</svg>
